<?xml version="1.0" encoding="utf-8"?><svg xmlns="http://www.w3.org/2000/svg" xmlns:xlink="http://www.w3.org/1999/xlink"><symbol fill="none" viewBox="0 0 24 24" id="icon-list" xmlns="http://www.w3.org/2000/svg"><path fill-rule="evenodd" clip-rule="evenodd" d="M14.978 4.363C14.18 4.3 13.18 4.3 11.85 4.3c-1.162 0-2.074 0-2.821.043-.22.012-.42.028-.606.048.63.621 1.141 1.103 1.599 1.47.638.51 1.115.747 1.595.823.347.055.701.055 1.048 0 .466-.074.93-.3 1.543-.781.451-.356.956-.828 1.578-1.44a8.09 8.09 0 0 0-.808-.1Zm2.117.634c-.809.804-1.478 1.45-2.083 1.927-.704.554-1.373.922-2.143 1.044a4.65 4.65 0 0 1-1.455 0c-.793-.125-1.478-.51-2.205-1.092-.643-.516-1.364-1.222-2.251-2.108a2.23 2.23 0 0 0-.277.172 3.35 3.35 0 0 0-.741.74c-.288.397-.459.908-.548 1.734C5.3 8.252 5.3 9.336 5.3 10.85v1.6c0 1.514 0 2.598.092 3.436.09.826.26 1.337.548 1.733.206.285.457.535.74.741.397.288.908.459 1.734.548.838.091 1.922.092 3.436.092s2.598 0 3.436-.092c.826-.09 1.337-.26 1.733-.548.285-.206.535-.456.741-.74.288-.397.459-.908.548-1.734.091-.838.092-1.922.092-3.436v-1.6c0-1.514 0-2.598-.092-3.436-.09-.826-.26-1.337-.548-1.733a3.35 3.35 0 0 0-.665-.684Zm-2.015-1.93c.862.068 1.588.207 2.215.524.171.086.333.185.488.297a4.65 4.65 0 0 1 1.029 1.029c.476.655.687 1.42.789 2.357.099.916.099 2.07.099 3.537v1.678c0 1.467 0 2.62-.1 3.537-.1.937-.312 1.702-.788 2.357a4.648 4.648 0 0 1-1.029 1.029c-.655.476-1.42.687-2.357.789-.916.099-2.07.099-3.537.099h-.078c-1.467 0-2.62 0-3.537-.1-.937-.1-1.702-.312-2.357-.788a4.649 4.649 0 0 1-1.029-1.029c-.476-.655-.687-1.42-.789-2.357C4 15.11 4 13.956 4 12.49v-1.678c0-1.467 0-2.62.1-3.537.1-.937.312-1.702.788-2.357a4.65 4.65 0 0 1 1.029-1.029c.298-.217.622-.38.979-.503.59-.204 1.267-.295 2.059-.34C9.744 3 10.692 3 11.832 3h.044c1.299 0 2.35 0 3.204.067ZM8 11.65a.65.65 0 0 1 .65-.65h2.4a.65.65 0 1 1 0 1.3h-2.4a.65.65 0 0 1-.65-.65Zm0 3.2a.65.65 0 0 1 .65-.65h6.4a.65.65 0 1 1 0 1.3h-6.4a.65.65 0 0 1-.65-.65Z" fill="currentColor"/></symbol><symbol fill="none" viewBox="0 0 24 24" id="icon-admin" xmlns="http://www.w3.org/2000/svg"><path fill-rule="evenodd" clip-rule="evenodd" d="M10.158 4.65a2.297 2.297 0 1 0 0 4.595 2.297 2.297 0 0 0 0-4.595ZM6.56 6.947a3.597 3.597 0 1 1 7.195 0 3.597 3.597 0 0 1-7.195 0Zm12.873 5.674c.268.24.29.65.05.918l-2.513 2.808c-.465.52-.86.96-1.222 1.265-.387.325-.816.564-1.354.564-.537 0-.966-.24-1.353-.564-.363-.305-.757-.746-1.222-1.265l-.672-.75a.65.65 0 0 1 .969-.868l.64.716c.505.564.838.934 1.121 1.172.267.224.408.26.517.26.11 0 .25-.036.517-.26.283-.238.617-.608 1.122-1.172l2.482-2.773a.65.65 0 0 1 .918-.051ZM4.35 16.053a3.597 3.597 0 0 1 3.597-3.598h4.421a.65.65 0 1 1 0 1.3H7.947a2.297 2.297 0 1 0 0 4.595h4.421a.65.65 0 1 1 0 1.3H7.947a3.597 3.597 0 0 1-3.597-3.597Z" fill="currentColor"/></symbol><symbol fill="none" viewBox="0 0 24 24" id="icon-agences" xmlns="http://www.w3.org/2000/svg"><path fill-rule="evenodd" clip-rule="evenodd" d="M9.695 6.3a1.901 1.901 0 1 1 0 3.802 1.901 1.901 0 0 1 0-3.802Zm3.201 1.901a3.201 3.201 0 1 0-6.402 0 3.201 3.201 0 0 0 6.402 0Zm2.551 7.653a3.201 3.201 0 0 0-3.2-3.2H7.143a3.201 3.201 0 1 0 0 6.401h5.102a3.201 3.201 0 0 0 3.201-3.2Zm-3.2-1.9a1.901 1.901 0 1 1 0 3.801H7.143a1.901 1.901 0 0 1 0-3.802h5.102ZM14.248 6.3a1.901 1.901 0 0 1 0 3.802.65.65 0 1 0 0 1.3 3.201 3.201 0 1 0 0-6.402.65.65 0 1 0 0 1.3ZM20 15.854a3.201 3.201 0 0 0-3.201-3.2.65.65 0 0 0 0 1.3 1.901 1.901 0 1 1 0 3.801.65.65 0 0 0 0 1.3 3.201 3.201 0 0 0 3.201-3.2Z" fill="currentColor"/></symbol><symbol fill="none" viewBox="0 0 24 24" id="icon-arrows" xmlns="http://www.w3.org/2000/svg"><path fill-rule="evenodd" clip-rule="evenodd" d="M15.591 5.374c-.466.074-.827.347-1.145.666-.31.31-.654.745-1.066 1.266l-1.112 1.401a.65.65 0 0 0 1.019.808l1.087-1.371c.37-.467.64-.806.864-1.052v9.797a.65.65 0 1 0 1.3 0V7.092c.225.246.495.585.865 1.052l1.087 1.371a.65.65 0 0 0 1.019-.808l-1.111-1.401c-.413-.521-.758-.955-1.067-1.266-.317-.319-.679-.592-1.145-.666a1.89 1.89 0 0 0-.595 0Zm-7.48.754a.65.65 0 0 1 .65.65v9.796c.225-.245.494-.584.864-1.051l1.088-1.371a.65.65 0 0 1 1.018.807l-1.111 1.402c-.413.52-.757.955-1.066 1.265-.318.32-.68.593-1.146.667a1.886 1.886 0 0 1-.594 0c-.467-.074-.828-.348-1.146-.667-.31-.31-.653-.744-1.066-1.265L4.49 14.96a.65.65 0 0 1 1.019-.807l1.087 1.37c.37.468.64.807.865 1.052V6.778a.65.65 0 0 1 .65-.65Z" fill="currentColor"/></symbol><symbol fill="none" viewBox="0 0 24 24" id="icon-attack" xmlns="http://www.w3.org/2000/svg"><path fill-rule="evenodd" clip-rule="evenodd" d="M12 3.35a.65.65 0 0 1 .65.65v2.26c.935.003 1.578.03 2.129.209A4.286 4.286 0 0 1 17.53 9.22c.179.551.205 1.194.209 2.129H20a.65.65 0 1 1 0 1.3h-2.26c-.004.935-.03 1.578-.21 2.13a4.286 4.286 0 0 1-2.751 2.751c-.551.18-1.194.206-2.13.21V20a.65.65 0 1 1-1.3 0v-2.26c-.935-.003-1.577-.03-2.128-.209a4.286 4.286 0 0 1-2.753-2.752c-.179-.551-.205-1.194-.209-2.129H4a.65.65 0 1 1 0-1.3h2.26c.004-.935.03-1.578.21-2.13a4.286 4.286 0 0 1 2.75-2.75c.55-.18 1.193-.206 2.129-.21V4a.65.65 0 0 1 .65-.65Zm-.65 4.21c-.939.006-1.375.03-1.728.145a2.986 2.986 0 0 0-1.917 1.918c-.115.352-.14.789-.145 1.727h.076a.65.65 0 1 1 0 1.3H7.56c.005.938.03 1.375.145 1.727a2.986 2.986 0 0 0 1.917 1.918c.353.114.79.14 1.728.145v-.076a.65.65 0 1 1 1.3 0v.076c.938-.006 1.375-.03 1.727-.145a2.986 2.986 0 0 0 1.917-1.918c.115-.352.14-.789.145-1.727h-.076a.65.65 0 0 1 0-1.3h.076c-.005-.938-.03-1.375-.145-1.727a2.986 2.986 0 0 0-1.917-1.918c-.352-.114-.789-.14-1.727-.145v.076a.65.65 0 1 1-1.3 0V7.56Z" fill="currentColor"/><path fill-rule="evenodd" clip-rule="evenodd" d="M12 14.027a2.027 2.027 0 1 1 0-4.054 2.027 2.027 0 0 1 0 4.054Zm0-1.3a.727.727 0 1 1 0-1.454.727.727 0 0 1 0 1.454Z" fill="currentColor"/></symbol><symbol fill="none" viewBox="0 0 24 24" id="icon-blocked-admins" xmlns="http://www.w3.org/2000/svg"><path fill-rule="evenodd" clip-rule="evenodd" d="M11.673 4.65a2.592 2.592 0 1 0 0 5.184 2.592 2.592 0 0 0 0-5.184ZM7.781 7.242a3.892 3.892 0 1 1 7.784 0 3.892 3.892 0 0 1-7.784 0ZM5.35 16.158a3.892 3.892 0 0 1 3.892-3.892h4.863a.65.65 0 1 1 0 1.3H9.242a2.592 2.592 0 1 0 0 5.184h4.863a.65.65 0 1 1 0 1.3H9.242a3.892 3.892 0 0 1-3.892-3.892Zm14.373-1.983a.65.65 0 0 1 0 .92l-1.26 1.26 1.26 1.26a.65.65 0 0 1-.92.919l-1.26-1.26-1.26 1.26a.65.65 0 1 1-.918-.92l1.26-1.26-1.26-1.26a.65.65 0 1 1 .919-.918l1.26 1.26 1.26-1.26a.65.65 0 0 1 .919 0Z" fill="currentColor"/></symbol><symbol fill="none" viewBox="0 0 24 24" id="icon-blogs" xmlns="http://www.w3.org/2000/svg"><path fill-rule="evenodd" clip-rule="evenodd" d="m14.743 6.484 3.272 3.272c.262-.267.455-.476.597-.662.203-.266.238-.406.238-.514 0-.108-.035-.248-.238-.514-.214-.281-.548-.616-1.055-1.123-.507-.508-.842-.841-1.124-1.056-.266-.203-.406-.237-.514-.237-.107 0-.247.034-.513.237a7.575 7.575 0 0 0-.663.597Zm2.354 4.193-3.275-3.275-3.523 3.523c-.396.396-.48.492-.53.596-.05.105-.072.23-.134.786-.097.87-.16 1.453-.146 1.883.013.414.096.556.18.64.084.085.227.167.64.18.43.014 1.013-.049 1.883-.145.556-.062.681-.085.786-.135.105-.05.2-.134.596-.53l3.524-3.523Zm-2.48-5.823c.382-.291.796-.504 1.302-.504.507 0 .921.213 1.303.504.359.274.755.67 1.223 1.138l.062.062c.468.468.865.865 1.139 1.224.29.381.504.796.504 1.302s-.213.92-.504 1.303c-.274.358-.67.755-1.139 1.223l-4.014 4.014-.058.058c-.306.307-.564.565-.894.724-.33.158-.692.198-1.123.246a51.23 51.23 0 0 1-.082.009l-.05.005c-.808.09-1.484.165-2.019.148-.563-.018-1.097-.14-1.517-.56-.42-.42-.542-.954-.56-1.518-.018-.534.058-1.21.147-2.02l.006-.048.009-.082c.047-.432.087-.794.246-1.124.158-.33.416-.587.724-.894l.058-.058 4.014-4.014c.468-.468.864-.864 1.223-1.138ZM10.84 5.866a.65.65 0 0 1-.642.658c-1.86.022-2.697.15-3.288.578-.26.189-.488.417-.676.677-.26.358-.417.821-.5 1.583-.083.774-.084 1.775-.084 3.18 0 1.404 0 2.405.084 3.18.083.76.24 1.225.5 1.582.188.26.416.488.676.677.358.26.822.416 1.583.499.774.084 1.775.085 3.18.085 1.404 0 2.406-.001 3.18-.085.76-.082 1.225-.24 1.583-.5.26-.188.487-.416.676-.676.43-.59.556-1.428.579-3.287a.65.65 0 1 1 1.3.015c-.022 1.795-.118 3.06-.827 4.037a4.36 4.36 0 0 1-.964.963c-.617.448-1.335.646-2.208.74-.852.093-1.923.093-3.28.093h-.078c-1.357 0-2.429 0-3.28-.093-.873-.094-1.592-.291-2.208-.74a4.356 4.356 0 0 1-.964-.963c-.448-.617-.646-1.336-.74-2.208-.092-.852-.092-1.923-.092-3.28v-.078c0-1.357 0-2.43.092-3.281.094-.872.292-1.59.74-2.207.269-.37.594-.696.964-.964.976-.71 2.242-.806 4.036-.827a.65.65 0 0 1 .658.642Z" fill="currentColor"/></symbol><symbol fill="none" viewBox="0 0 24 24" id="icon-bluehost" xmlns="http://www.w3.org/2000/svg"><path d="M9.154 4H5v4.182h4.154V4Zm5.361 0H10.36v4.182h4.156V4Zm5.364 0h-4.156v4.182h4.156V4ZM9.154 9.409H5v4.182h4.154V9.409Zm5.361 0H10.36v4.182h4.156V9.409Zm5.364 0h-4.156v4.182h4.156V9.409ZM9.154 14.818H5V19h4.154v-4.182Zm5.361 0H10.36V19h4.156v-4.182Z" fill="currentColor"/><path d="M19.879 14.818h-4.156V19h4.156v-4.182Z" fill="currentColor" fill-opacity=".5"/></symbol><symbol fill="none" viewBox="0 0 24 24" id="icon-career" xmlns="http://www.w3.org/2000/svg"><path fill-rule="evenodd" clip-rule="evenodd" d="M7.798 6.967a4.249 4.249 0 0 1 8.404.007c.942.042 1.679.157 2.306.503a4.248 4.248 0 0 1 1.87 2.09c.228.548.287 1.143.269 1.844-.018.688-.113 1.54-.233 2.621l-.006.057c-.098.883-.176 1.583-.283 2.146-.11.577-.26 1.06-.525 1.494a4.247 4.247 0 0 1-1.823 1.632c-.462.216-.958.31-1.543.356-.572.045-1.276.045-2.164.045H9.93c-.889 0-1.593 0-2.165-.045-.585-.045-1.081-.14-1.543-.356A4.248 4.248 0 0 1 4.4 17.729c-.267-.435-.416-.917-.525-1.494-.108-.563-.185-1.263-.284-2.146l-.006-.057c-.12-1.08-.215-1.933-.232-2.62-.018-.702.04-1.297.268-1.846a4.258 4.258 0 0 1 1.87-2.089c.625-.345 1.364-.466 2.307-.51Zm1.326-.022a185.648 185.648 0 0 1 .832.003h4.092l.828.001a2.95 2.95 0 0 0-5.752-.004Zm.224 1.3c-.343 0-.647-.003-.934.003-1.24.023-1.855.125-2.295.367a2.944 2.944 0 0 0-1.07 1.012l2.235 2.236c1.212 1.212 2.076 2.074 2.819 2.641.728.556 1.263.766 1.81.766.545 0 1.08-.21 1.809-.766.743-.567 1.607-1.43 2.82-2.641l2.34-2.341a2.95 2.95 0 0 0-1.002-.907c-.439-.242-1.044-.335-2.294-.359a86.729 86.729 0 0 0-1.543-.008H9.956l-.608-.002Zm9.995 2.655-1.917 1.916c-1.17 1.17-2.095 2.095-2.916 2.721-.844.644-1.653 1.033-2.598 1.033-.944 0-1.754-.389-2.598-1.033-.82-.626-1.745-1.55-2.915-2.72l-1.748-1.749c-.002.097-.002.2.001.31.016.626.104 1.423.229 2.54.101.916.174 1.566.27 2.074.096.5.206.811.358 1.06a2.95 2.95 0 0 0 1.264 1.131c.264.124.586.199 1.093.238.515.04 1.169.04 2.09.04h4.087c.921 0 1.575 0 2.09-.04.507-.04.83-.114 1.093-.238a2.949 2.949 0 0 0 1.265-1.132c.151-.248.261-.56.357-1.06.096-.507.169-1.157.27-2.072.125-1.118.213-1.915.229-2.541a6.179 6.179 0 0 0-.004-.479Z" fill="currentColor"/></symbol><symbol fill="none" viewBox="0 0 24 24" id="icon-chart" xmlns="http://www.w3.org/2000/svg"><path fill-rule="evenodd" clip-rule="evenodd" d="M11.96 4.35h.079c1.425 0 2.547 0 3.44.097.912.098 1.66.305 2.3.77.385.28.724.619 1.004 1.004.465.64.671 1.388.77 2.3.097.892.097 2.015.097 3.44v.078c0 1.425 0 2.548-.097 3.44-.099.912-.305 1.66-.77 2.3-.28.385-.62.724-1.004 1.004-.64.465-1.388.672-2.3.77-.893.097-2.015.097-3.44.097h-.078c-1.425 0-2.548 0-3.44-.097-.912-.098-1.66-.305-2.3-.77a4.54 4.54 0 0 1-1.005-1.004c-.465-.64-.67-1.388-.77-2.3-.096-.892-.096-2.015-.096-3.44v-.078c0-1.425 0-2.548.096-3.44.1-.912.305-1.66.77-2.3.28-.385.62-.724 1.005-1.004.64-.465 1.388-.672 2.3-.77.892-.097 2.014-.097 3.44-.097Zm-3.3 1.39c-.8.086-1.293.251-1.675.529-.275.2-.517.441-.717.716-.277.382-.442.875-.53 1.676-.088.814-.088 1.866-.088 3.339 0 1.473 0 2.525.089 3.339.087.801.252 1.294.53 1.676.199.275.44.517.716.716.382.278.874.443 1.676.53.814.088 1.866.089 3.339.089 1.472 0 2.525 0 3.338-.089.802-.087 1.295-.252 1.677-.53.274-.2.516-.441.716-.716.277-.382.443-.875.53-1.676.088-.814.089-1.866.089-3.339 0-1.473-.001-2.525-.09-3.339-.086-.801-.252-1.294-.529-1.676a3.236 3.236 0 0 0-.716-.716c-.382-.278-.875-.443-1.677-.53-.813-.088-1.866-.089-3.338-.089-1.473 0-2.525 0-3.34.09ZM12 7.46a.65.65 0 0 1 .65.65v7.778a.65.65 0 1 1-1.3 0V8.11a.65.65 0 0 1 .65-.65Zm3.11 3.111a.65.65 0 0 1 .65.65v4.667a.65.65 0 1 1-1.3 0v-4.667a.65.65 0 0 1 .65-.65Zm-6.22 1.557a.65.65 0 0 1 .65.65v3.11a.65.65 0 1 1-1.3 0v-3.11a.65.65 0 0 1 .65-.65Z" fill="currentColor"/></symbol><symbol fill="none" viewBox="0 0 24 24" id="icon-contact-us" xmlns="http://www.w3.org/2000/svg"><path fill-rule="evenodd" clip-rule="evenodd" d="M16.849 6.453A7.35 7.35 0 0 0 6.453 16.849c.865.864 2.178 1.651 3.63 1.992 1.441.34 2.983.232 4.367-.629l.04-.024a2.66 2.66 0 0 1 .388-.215 1.37 1.37 0 0 1 .648-.098 2.269 2.269 0 0 1 .424.086c.512.133.864.224 1.135.275.273.051.389.046.444.035a.95.95 0 0 0 .742-.742c.011-.055.016-.171-.035-.444a19.647 19.647 0 0 0-.284-1.169 2.426 2.426 0 0 1-.078-.39 1.368 1.368 0 0 1 .098-.645 2.697 2.697 0 0 1 .239-.43c.855-1.383.948-2.942.6-4.398-.351-1.465-1.139-2.776-1.962-3.6Zm-11.315-.92a8.65 8.65 0 0 1 12.234 0c.993.994 1.9 2.519 2.307 4.218.408 1.707.32 3.64-.758 5.384a9.461 9.461 0 0 0-.138.23c-.01.025-.01.03-.01.027.001-.004 0 .002.001.031l.007.032c.008.036.02.085.042.169l.006.022c.126.484.228.88.288 1.198.06.32.094.637.032.944a2.25 2.25 0 0 1-1.757 1.757c-.307.062-.624.029-.944-.032-.319-.06-.714-.162-1.198-.288l-.022-.006a6.392 6.392 0 0 0-.2-.049.233.233 0 0 0-.032 0l-.027.009a9.213 9.213 0 0 0-.228.138c-1.737 1.079-3.648 1.19-5.352.79-1.695-.398-3.221-1.31-4.251-2.34a8.65 8.65 0 0 1 0-12.233Zm5.353 4.404a.65.65 0 0 1 .65-.65h3.2a.65.65 0 1 1 0 1.3h-3.2a.65.65 0 0 1-.65-.65Zm-3.2 3.2a.65.65 0 0 1 .65-.65h6.4a.65.65 0 1 1 0 1.3h-6.4a.65.65 0 0 1-.65-.65Z" fill="currentColor"/></symbol><symbol fill="none" viewBox="0 0 24 24" id="icon-custom-login-pages" xmlns="http://www.w3.org/2000/svg"><path fill-rule="evenodd" clip-rule="evenodd" d="M14.224 5h-4.148c-.93 0-1.668 0-2.263.049-.61.05-1.125.153-1.597.393a4.06 4.06 0 0 0-1.774 1.774c-.24.472-.344.988-.393 1.597C4.006 9.332 4 9.96 4 10.729v.384c0 .95 0 2.098.047 3.102.024.503.06.983.116 1.39.053.384.133.782.28 1.07a4.06 4.06 0 0 0 1.773 1.773c.472.24.988.345 1.597.394.595.049 1.333.049 2.263.049h4.148c.93 0 1.668 0 2.264-.049.608-.05 1.124-.153 1.596-.393a4.06 4.06 0 0 0 1.774-1.774c.146-.288.226-.686.28-1.07.055-.407.091-.887.115-1.39.047-1.004.047-2.153.047-3.102v-.383c0-.77-.006-1.398-.049-1.917-.05-.61-.153-1.125-.393-1.597a4.06 4.06 0 0 0-1.774-1.774c-.472-.24-.988-.344-1.596-.393C15.893 5 15.155 5 14.224 5Zm-8.878 9.154a62.177 62.177 0 0 1-.046-2.763H19c0 .89-.005 1.887-.046 2.763a14.79 14.79 0 0 1-.105 1.274c-.051.374-.11.58-.15.656-.264.52-.686.942-1.206 1.206-.257.132-.583.213-1.111.257-.536.043-1.221.044-2.187.044h-4.09c-.966 0-1.65 0-2.187-.044-.528-.044-.854-.125-1.112-.257a2.759 2.759 0 0 1-1.205-1.206c-.04-.076-.099-.282-.15-.656a14.812 14.812 0 0 1-.105-1.274Zm-.043-4.063h13.694a16.661 16.661 0 0 0-.041-1.173c-.043-.528-.125-.854-.257-1.112a2.759 2.759 0 0 0-1.206-1.205c-.257-.132-.583-.214-1.111-.257-.536-.043-1.221-.044-2.187-.044h-4.09c-.966 0-1.65 0-2.187.044-.528.043-.854.125-1.112.257a2.76 2.76 0 0 0-1.205 1.205c-.132.258-.214.584-.257 1.112-.026.326-.037.707-.041 1.173Zm6.166-2.26a.5.5 0 1 0 0 1h4.772a.5.5 0 0 0 0-1H11.47Zm-3.41.5a.682.682 0 1 1-1.363 0 .682.682 0 0 1 1.364 0Zm1.364.683a.682.682 0 1 0 0-1.364.682.682 0 0 0 0 1.364Z" fill="currentColor"/></symbol><symbol fill="none" viewBox="0 0 24 24" id="icon-enterprise" xmlns="http://www.w3.org/2000/svg"><path fill-rule="evenodd" clip-rule="evenodd" d="M11.912 5.215a.324.324 0 0 1 .411.312v12.05H6.127V7.087c0-.145.097-.272.236-.311l5.549-1.56ZM4.925 17.577V7.087c0-.683.455-1.283 1.113-1.468l5.548-1.561a1.526 1.526 0 0 1 1.94 1.469v2.952l3.785 1.104a2.45 2.45 0 0 1 1.764 2.353v5.641h.323a.601.601 0 1 1 0 1.202H4.601a.601.601 0 1 1 0-1.202h.324Zm8.6 0V9.731l3.449 1.006c.533.155.899.644.899 1.199v5.641h-4.348ZM7.87 9.13a.601.601 0 1 0 0 1.203h2.466a.601.601 0 1 0 0-1.203H7.869Zm-.601 5.349a.6.6 0 0 1 .6-.601h2.467a.601.601 0 0 1 0 1.202H7.869a.601.601 0 0 1-.601-.601Zm8.432.601a.601.601 0 1 0 0-1.202h-.925a.601.601 0 0 0 0 1.202h.925Z" fill="currentColor"/></symbol><symbol fill="none" viewBox="0 0 24 24" id="icon-fake-login-attempt" xmlns="http://www.w3.org/2000/svg"><path fill-rule="evenodd" clip-rule="evenodd" d="M3.35 11.5a.65.65 0 0 1 .65-.65h9.613c-.27-.259-.659-.568-1.215-1.01L10.93 8.677a.65.65 0 0 1 .808-1.019l1.5 1.19c.56.443 1.023.81 1.353 1.14.34.338.624.716.702 1.202a1.98 1.98 0 0 1 0 .622c-.078.486-.362.864-.702 1.202-.33.33-.794.697-1.353 1.14l-1.5 1.19a.65.65 0 0 1-.808-1.02l1.47-1.164c.555-.441.944-.75 1.214-1.01H4a.65.65 0 0 1-.65-.65Zm5.797 6.276a.65.65 0 0 1 .91-.129 3.498 3.498 0 0 0 2.11.703H13c.799 0 1.122-.002 1.383-.043a3.517 3.517 0 0 0 2.923-2.924c.042-.26.044-.584.044-1.383V9c0-.8-.002-1.123-.044-1.384a3.517 3.517 0 0 0-2.923-2.923c-.26-.041-.584-.043-1.383-.043h-.834c-.792 0-1.522.261-2.11.703a.65.65 0 0 1-.78-1.04 4.798 4.798 0 0 1 2.89-.963h.903c.708 0 1.142 0 1.517.06a4.817 4.817 0 0 1 4.004 4.003c.06.375.06.81.06 1.518v5.138c0 .708 0 1.143-.06 1.518a4.817 4.817 0 0 1-4.004 4.004c-.375.059-.809.059-1.517.059h-.903a4.798 4.798 0 0 1-2.89-.963.65.65 0 0 1-.13-.91Z" fill="currentColor"/></symbol><symbol fill="none" viewBox="0 0 24 24" id="icon-filter" xmlns="http://www.w3.org/2000/svg"><path fill-rule="evenodd" clip-rule="evenodd" d="M5.35 8.625a2.275 2.275 0 1 1 4.55 0 2.275 2.275 0 0 1-4.55 0Zm2.275-.975a.975.975 0 1 0 0 1.95.975.975 0 0 0 0-1.95Zm4.225.975a.65.65 0 0 1 .65-.65H19a.65.65 0 1 1 0 1.3h-6.5a.65.65 0 0 1-.65-.65Zm3.25 7.196a2.275 2.275 0 1 1 4.55 0 2.275 2.275 0 0 1-4.55 0Zm2.275-.975a.975.975 0 1 0 0 1.95.975.975 0 0 0 0-1.95Zm-12.025.975a.65.65 0 0 1 .65-.65h6.5a.65.65 0 1 1 0 1.3H6a.65.65 0 0 1-.65-.65Z" fill="currentColor"/></symbol><symbol fill="none" viewBox="0 0 24 24" id="icon-gdpr-compliance" xmlns="http://www.w3.org/2000/svg"><path fill-rule="evenodd" clip-rule="evenodd" d="M15.554 4.394c-.86-.093-1.972-.094-3.524-.094-.681 0-1.28 0-1.812.008a6.254 6.254 0 0 1-.056.905 4.75 4.75 0 0 1-3.949 3.949c-.253.04-.532.052-.905.056-.008.532-.008 1.13-.008 1.812v1.64c0 1.552 0 2.664.094 3.524.092.848.267 1.374.565 1.784.213.293.47.55.763.763.41.298.936.473 1.784.565.86.093 1.972.094 3.524.094s2.664 0 3.524-.094c.848-.092 1.374-.267 1.784-.565.293-.213.55-.47.763-.763.298-.41.473-.936.565-1.784.093-.86.094-1.972.094-3.524v-1.64c0-1.552 0-2.664-.094-3.524-.092-.848-.267-1.374-.565-1.784a3.452 3.452 0 0 0-.763-.763c-.41-.298-.936-.473-1.784-.565ZM5.358 7.917a4.59 4.59 0 0 0 .652-.04A3.45 3.45 0 0 0 8.878 5.01a4.59 4.59 0 0 0 .04-.652c-1.09.078-1.718.253-2.196.6a3.45 3.45 0 0 0-.763.764c-.348.478-.523 1.105-.601 2.195Zm10.336-4.815c.959.104 1.74.32 2.408.805a4.75 4.75 0 0 1 1.05 1.051c.486.668.703 1.45.806 2.408.102.939.102 2.12.102 3.625v1.718c0 1.504 0 2.686-.102 3.625-.103.959-.32 1.74-.805 2.408a4.748 4.748 0 0 1-1.051 1.05c-.668.486-1.45.702-2.408.806-.939.102-2.12.102-3.625.102h-.078c-1.504 0-2.686 0-3.625-.102-.959-.104-1.74-.32-2.408-.805a4.75 4.75 0 0 1-1.05-1.051c-.486-.668-.702-1.45-.806-2.408C4 15.395 4 14.214 4 12.709v-1.688c0-.951 0-1.77.024-2.473.053-1.537.219-2.676.883-3.59a4.75 4.75 0 0 1 1.051-1.05c.914-.665 2.053-.831 3.59-.884C10.25 3 11.07 3 12.02 3h.05c1.503 0 2.685 0 3.624.102Z" fill="currentColor"/><path fill-rule="evenodd" clip-rule="evenodd" d="M14.898 10.144a.65.65 0 0 1 .098.914l-1.658 2.057-.027.035c-.305.377-.576.714-.828.95-.272.253-.614.48-1.068.48-.454 0-.796-.227-1.068-.48-.252-.236-.523-.572-.828-.95l-.028-.035-.427-.53a.65.65 0 1 1 1.012-.816l.428.53c.34.424.554.686.73.85a.747.747 0 0 0 .179.13l.002.001h.002s.007-.002.018-.008a.747.747 0 0 0 .16-.123c.177-.164.39-.426.731-.85l1.658-2.057a.65.65 0 0 1 .914-.098Z" fill="currentColor"/></symbol><symbol fill="none" viewBox="0 0 24 24" id="icon-godaddy" xmlns="http://www.w3.org/2000/svg"><path d="M18.527 4.736c-1.871-1.174-4.334-.895-6.53.492-2.19-1.387-4.654-1.666-6.522-.492-2.956 1.856-3.315 6.636-.802 10.676 1.852 2.98 4.749 4.725 7.328 4.693 2.578.032 5.475-1.713 7.327-4.693 2.51-4.04 2.154-8.82-.801-10.676ZM6.032 14.559a9.702 9.702 0 0 1-1.16-2.667 7.663 7.663 0 0 1-.252-2.516c.112-1.493.717-2.656 1.703-3.275C7.309 5.483 8.612 5.445 10 6c.208.083.414.18.618.286a11.4 11.4 0 0 0-1.992 2.407c-1.526 2.454-1.992 5.183-1.46 7.36a9.895 9.895 0 0 1-1.134-1.493Zm13.098-2.668a9.725 9.725 0 0 1-1.16 2.668 9.996 9.996 0 0 1-1.135 1.495c.476-1.95.153-4.341-1.015-6.583a.296.296 0 0 0-.307-.158.294.294 0 0 0-.114.043l-3.64 2.285a.3.3 0 0 0-.094.412l.534.858a.297.297 0 0 0 .41.095l2.359-1.481c.076.23.152.46.21.69.222.818.307 1.667.252 2.512-.112 1.493-.717 2.656-1.703 3.275a3.316 3.316 0 0 1-1.687.49h-.075a3.312 3.312 0 0 1-1.687-.49c-.986-.62-1.591-1.782-1.704-3.275a7.683 7.683 0 0 1 .252-2.515 9.96 9.96 0 0 1 3.038-4.886A7.602 7.602 0 0 1 14 5.997c1.384-.553 2.69-.517 3.676.103.986.62 1.59 1.781 1.703 3.275a7.681 7.681 0 0 1-.249 2.516Z" fill="currentColor"/></symbol><symbol fill="none" viewBox="0 0 24 24" id="icon-help" xmlns="http://www.w3.org/2000/svg"><path fill-rule="evenodd" clip-rule="evenodd" d="M12.15 5.3a6.85 6.85 0 0 0-5.42 11.04A3.648 3.648 0 0 1 9.9 14.5h4.5c1.357 0 2.541.74 3.17 1.84A6.85 6.85 0 0 0 12.15 5.3Zm4.46 12.05a2.351 2.351 0 0 0-2.21-1.55H9.9a2.351 2.351 0 0 0-2.21 1.55A6.82 6.82 0 0 0 12.15 19a6.82 6.82 0 0 0 4.46-1.65ZM4 12.15a8.15 8.15 0 1 1 16.3 0 8.15 8.15 0 0 1-16.3 0Zm8.15-4.6a2.35 2.35 0 1 0 0 4.7 2.35 2.35 0 0 0 0-4.7ZM8.5 9.9a3.65 3.65 0 1 1 7.3 0 3.65 3.65 0 0 1-7.3 0Z" fill="currentColor"/></symbol><symbol fill="none" viewBox="0 0 24 24" id="icon-house" xmlns="http://www.w3.org/2000/svg"><path fill-rule="evenodd" clip-rule="evenodd" d="M11.503 4.003a3.91 3.91 0 0 1 .294 0c.655.024 1.238.253 1.86.617.603.353 1.294.867 2.158 1.508l.06.045c.865.642 1.556 1.155 2.07 1.631.532.493.921.986 1.144 1.607.033.093.063.188.09.283.177.635.146 1.266 0 1.981-.143.693-.407 1.523-.737 2.562l-1.16 3.647a2.016 2.016 0 0 1-1.915 1.416c-1.126 0-2.014-.928-2.014-2.043v-1.875a.643.643 0 0 0-.629-.657h-2.148a.643.643 0 0 0-.63.657v1.875c0 1.115-.887 2.043-2.013 2.043-.88 0-1.65-.58-1.915-1.416l-1.16-3.647c-.33-1.04-.594-1.869-.736-2.562-.147-.715-.178-1.346 0-1.981.026-.095.056-.19.09-.283.222-.621.61-1.114 1.143-1.607.514-.476 1.205-.99 2.07-1.631l.06-.045c.864-.641 1.555-1.155 2.158-1.508.622-.364 1.205-.593 1.86-.617Zm.245 1.299a2.614 2.614 0 0 0-.196 0c-.361.013-.731.135-1.252.44-.535.313-1.17.783-2.07 1.452-.902.67-1.535 1.141-1.992 1.564-.445.412-.676.737-.803 1.092a2.807 2.807 0 0 0-.061.193c-.102.364-.102.768.021 1.371.127.618.369 1.382.713 2.464l1.149 3.613a.716.716 0 0 0 .676.509.73.73 0 0 0 .714-.743v-1.875c0-1.067.85-1.957 1.929-1.957h2.148c1.08 0 1.93.89 1.93 1.957v1.875c0 .424.332.743.713.743.3 0 .577-.198.677-.51l1.148-3.612c.344-1.082.586-1.846.712-2.464.124-.603.124-1.007.022-1.371a2.812 2.812 0 0 0-.061-.193c-.127-.355-.358-.68-.803-1.092-.457-.423-1.09-.894-1.992-1.564-.9-.669-1.536-1.139-2.07-1.452-.521-.305-.89-.427-1.252-.44Z" fill="currentColor"/></symbol><symbol fill="none" viewBox="0 0 24 24" id="icon-ip" xmlns="http://www.w3.org/2000/svg"><path fill-rule="evenodd" clip-rule="evenodd" d="M10.65 6a.65.65 0 0 1-.65.65H8.15v11.199H10a.65.65 0 1 1 0 1.3H7.534a.646.646 0 0 1-.069 0H5a.65.65 0 1 1 0-1.3h1.85V6.65H5a.65.65 0 0 1 0-1.3h5a.65.65 0 0 1 .65.65Zm2.45 0a.65.65 0 0 1 .65-.65h3.125a3.775 3.775 0 1 1 0 7.55H14.4v5.6a.65.65 0 1 1-1.3 0V6Zm1.3 5.6V6.65h2.475a2.475 2.475 0 0 1 0 4.95H14.4Z" fill="currentColor"/></symbol><symbol fill="none" viewBox="0 0 24 24" id="icon-location" xmlns="http://www.w3.org/2000/svg"><path fill-rule="evenodd" clip-rule="evenodd" d="M11.093 5.65c-2.962 0-5.443 2.599-5.443 5.907 0 .913.478 2.148 1.243 3.501.752 1.329 1.724 2.676 2.594 3.785.473.604.779.99 1.05 1.237.244.222.396.27.556.27.16 0 .312-.048.556-.27.272-.247.578-.633 1.05-1.237.87-1.11 1.843-2.456 2.594-3.785.766-1.353 1.244-2.588 1.244-3.5 0-3.309-2.481-5.908-5.444-5.908ZM4.35 11.557c0-3.935 2.975-7.207 6.743-7.207 3.769 0 6.744 3.272 6.744 7.207 0 1.272-.63 2.759-1.412 4.141-.797 1.409-1.813 2.813-2.702 3.947l-.033.042c-.43.55-.804 1.025-1.167 1.355-.4.364-.849.608-1.43.608-.58 0-1.03-.244-1.43-.608-.363-.33-.736-.805-1.167-1.355l-.032-.042c-.89-1.134-1.906-2.538-2.702-3.947-.782-1.382-1.412-2.87-1.412-4.14Zm3.808.298a2.935 2.935 0 1 1 5.87 0 2.935 2.935 0 0 1-5.87 0Zm2.935-1.635a1.635 1.635 0 1 0 0 3.27 1.635 1.635 0 0 0 0-3.27Z" fill="currentColor"/></symbol><symbol fill="none" viewBox="0 0 24 24" id="icon-lock" xmlns="http://www.w3.org/2000/svg"><path fill-rule="evenodd" clip-rule="evenodd" d="M7.46 7.889a4.539 4.539 0 1 1 9.078 0v.358a4.539 4.539 0 0 1 2.89 2.906c.222.685.222 1.505.222 2.822v.273c0 1.316 0 2.136-.223 2.821a4.539 4.539 0 0 1-2.914 2.914c-.685.223-1.505.223-2.821.223h-3.384c-1.317 0-2.137 0-2.822-.223a4.539 4.539 0 0 1-2.914-2.914c-.223-.685-.223-1.505-.222-2.821v-.273c0-1.317 0-2.137.222-2.822A4.539 4.539 0 0 1 7.46 8.247V7.89Zm1.3.15c.443-.022.968-.022 1.613-.022h3.254c.644 0 1.169 0 1.611.022v-.15a3.239 3.239 0 0 0-6.477 0v.15Zm1.684 1.278c-1.147 0-1.767.002-2.225.08a2.295 2.295 0 0 0-.331.078 3.239 3.239 0 0 0-2.08 2.08c-.15.463-.158 1.058-.158 2.556s.008 2.093.158 2.556a3.239 3.239 0 0 0 2.08 2.08c.463.15 1.058.159 2.556.159h3.111c1.498 0 2.093-.008 2.557-.159a3.239 3.239 0 0 0 2.08-2.08c.15-.463.158-1.058.158-2.556s-.008-2.093-.159-2.556a3.239 3.239 0 0 0-2.08-2.08 2.294 2.294 0 0 0-.33-.079c-.458-.077-1.078-.08-2.226-.08h-3.11Zm-.65 3.239a2.206 2.206 0 1 1 2.856 2.108v2.558a.65.65 0 1 1-1.3 0v-2.558a2.207 2.207 0 0 1-1.556-2.108ZM12 11.65a.906.906 0 1 0 0 1.811.906.906 0 0 0 0-1.811Z" fill="currentColor"/></symbol><symbol fill="none" viewBox="0 0 24 24" id="icon-login-firewall" xmlns="http://www.w3.org/2000/svg"><path fill-rule="evenodd" clip-rule="evenodd" d="M11.611 4h.078c1.425 0 2.548 0 3.44.097.912.098 1.66.305 2.3.77.385.28.724.619 1.004 1.004.465.64.672 1.388.77 2.3.097.892.097 2.015.097 3.44v.078c0 1.425 0 2.548-.097 3.44-.098.912-.305 1.66-.77 2.3-.28.385-.619.724-1.004 1.004-.64.465-1.388.672-2.3.77-.892.097-2.015.097-3.44.097h-.078c-1.425 0-2.548 0-3.44-.097-.912-.098-1.66-.305-2.3-.77a4.54 4.54 0 0 1-1.004-1.004c-.465-.64-.672-1.388-.77-2.3C4 14.237 4 13.114 4 11.689v-.078c0-1.425 0-2.548.097-3.44.098-.912.305-1.66.77-2.3.28-.385.619-.724 1.004-1.004.64-.465 1.388-.672 2.3-.77C9.063 4 10.186 4 11.611 4Zm-3.3 1.39c-.801.086-1.294.251-1.676.529a3.22 3.22 0 0 0-.716.716c-.278.382-.443.875-.53 1.676-.088.814-.089 1.866-.089 3.339 0 1.473 0 2.525.09 3.339.086.801.251 1.294.529 1.676.2.275.441.517.716.716.382.278.875.443 1.676.53.814.088 1.866.089 3.339.089 1.473 0 2.525 0 3.339-.09.801-.086 1.294-.251 1.676-.529.275-.2.517-.441.716-.716.278-.382.443-.875.53-1.676.088-.814.089-1.866.089-3.339 0-1.473 0-2.525-.09-3.339-.086-.801-.251-1.294-.529-1.676a3.239 3.239 0 0 0-.716-.716c-.382-.278-.875-.443-1.676-.53-.814-.088-1.866-.089-3.339-.089-1.473 0-2.525 0-3.339.09Zm-1.2 5.482c0-.788.64-1.428 1.428-1.428h1.184c.584 0 1.11.356 1.326.898l.263.658h4.135c.303 0 .58.17.714.441a2.21 2.21 0 0 1 0 1.973l-.04.082a.65.65 0 0 1-1.163-.581l.04-.082a.906.906 0 0 0 .087-.533h-1.028c.022.38-.054.764-.229 1.114l-.041.082a.65.65 0 1 1-1.163-.581l.041-.082a.906.906 0 0 0 .087-.533h-1.44l-.263.658a1.428 1.428 0 0 1-1.326.898H8.54c-.789 0-1.428-.64-1.428-1.428v-1.556Zm1.428-.128a.128.128 0 0 0-.128.128v1.556c0 .07.057.128.128.128h1.184a.13.13 0 0 0 .12-.08l.31-.779a.128.128 0 0 0 0-.095l-.31-.777a.128.128 0 0 0-.12-.08H8.54Z" fill="currentColor"/></symbol><symbol fill="none" viewBox="0 0 24 24" id="icon-magnifier" xmlns="http://www.w3.org/2000/svg"><path fill-rule="evenodd" clip-rule="evenodd" d="M4.35 11a6.65 6.65 0 1 1 13.3 0 6.65 6.65 0 0 1-13.3 0ZM11 5.65a5.35 5.35 0 1 0 0 10.7 5.35 5.35 0 0 0 0-10.7Zm-.108 1.582a.65.65 0 0 1-.54.743 2.683 2.683 0 0 0-2.231 2.23.65.65 0 0 1-1.284-.203 3.983 3.983 0 0 1 3.31-3.31.65.65 0 0 1 .745.54Zm5.648 9.308a.65.65 0 0 1 .92 0l2 2a.65.65 0 0 1-.92.92l-2-2a.65.65 0 0 1 0-.92Z" fill="currentColor"/></symbol><symbol fill="none" viewBox="0 0 24 24" id="icon-notification" xmlns="http://www.w3.org/2000/svg"><path fill-rule="evenodd" clip-rule="evenodd" d="M17.197 6.65a.875.875 0 1 0 0 1.75.875.875 0 0 0 0-1.75Zm-2.174.875a2.175 2.175 0 1 1 4.349 0 2.175 2.175 0 0 1-4.35 0Zm-3.67-1.413h1.266a.65.65 0 1 1 0 1.3H11.38c-.95 0-1.627 0-2.162.042-.526.04-.866.117-1.146.246a3.162 3.162 0 0 0-1.365 1.2l.26.243.01.009c1.283 1.283 2.2 2.199 2.99 2.801.775.591 1.35.82 1.94.82.91 0 1.758-.54 3.316-2.028a.65.65 0 0 1 .899.94c-1.524 1.455-2.722 2.388-4.215 2.388-.989 0-1.838-.407-2.729-1.086-.827-.632-1.755-1.55-2.916-2.712a44.28 44.28 0 0 0-.279 1.837c-.167 1.208-.287 2.073-.323 2.754-.035.674.017 1.099.151 1.44a3.162 3.162 0 0 0 1.392 1.598c.319.18.733.29 1.405.347.679.058 1.553.06 2.772.06h1.239c1.22 0 2.093-.002 2.772-.06.673-.058 1.086-.168 1.405-.347a3.162 3.162 0 0 0 1.392-1.599c.134-.34.186-.765.15-1.44-.035-.68-.154-1.545-.322-2.753a.65.65 0 0 1 1.287-.18l.005.031c.162 1.172.29 2.092.33 2.835.039.755-.009 1.394-.24 1.983a4.462 4.462 0 0 1-1.964 2.256c-.552.31-1.178.445-1.932.51-.74.063-1.67.063-2.852.063h-1.3c-1.183 0-2.112 0-2.853-.063-.754-.065-1.38-.2-1.932-.51a4.462 4.462 0 0 1-1.963-2.256c-.232-.59-.28-1.228-.24-1.983.039-.743.167-1.663.33-2.835l.004-.03.013-.096c.188-1.351.32-2.3.598-3.022a3.57 3.57 0 0 1 .32-.64A4.462 4.462 0 0 1 7.53 6.518c.475-.218.985-.314 1.589-.36.59-.046 1.316-.046 2.235-.046Z" fill="currentColor"/></symbol><symbol fill="none" viewBox="0 0 24 24" id="icon-roadmap" xmlns="http://www.w3.org/2000/svg"><path fill-rule="evenodd" clip-rule="evenodd" d="M6.65 5.538a.888.888 0 1 1 1.777 0 .888.888 0 0 1-1.777 0Zm.888-2.188a2.188 2.188 0 1 0 2.09 2.838h4.37a2.12 2.12 0 0 1 0 4.239H9.23a3.573 3.573 0 1 0 0 7.146h6.279L13.54 19.54a.65.65 0 1 0 .92.92l2.37-2.37a1.65 1.65 0 0 0 0-2.334l-2.37-2.37a.65.65 0 0 0-.92.92l1.967 1.967H9.23a2.273 2.273 0 0 1 0-4.546H14a3.42 3.42 0 1 0 0-6.839H9.63A2.19 2.19 0 0 0 7.54 3.35Z" fill="currentColor"/></symbol><symbol fill="none" viewBox="0 0 24 24" id="icon-sheet" xmlns="http://www.w3.org/2000/svg"><path fill-rule="evenodd" clip-rule="evenodd" d="M11.96 3.35h.079c1.425 0 2.547 0 3.44.097.912.098 1.66.305 2.3.77.385.28.724.619 1.004 1.004.465.64.671 1.388.77 2.3.097.892.097 2.015.097 3.44v1.633c0 1.426 0 2.548-.097 3.44-.099.913-.305 1.66-.77 2.3a4.54 4.54 0 0 1-1.004 1.005c-.64.465-1.388.671-2.3.77-.893.097-2.015.097-3.44.097h-.078c-1.426 0-2.548 0-3.44-.097-.912-.099-1.66-.305-2.3-.77a4.538 4.538 0 0 1-1.005-1.004c-.465-.64-.67-1.388-.77-2.3-.096-.893-.096-2.015-.096-3.44V10.96c0-1.425 0-2.548.096-3.44.1-.912.305-1.66.77-2.3.28-.385.62-.724 1.005-1.004.64-.465 1.388-.672 2.3-.77.892-.097 2.014-.097 3.44-.097Zm-3.3 1.39c-.8.086-1.293.251-1.675.529-.275.2-.517.441-.717.716-.277.382-.442.875-.53 1.676C5.65 8.475 5.65 9.527 5.65 11v1.556c0 1.472 0 2.525.089 3.338.087.802.252 1.295.53 1.676.199.275.44.517.716.717.382.277.874.443 1.676.53.814.088 1.866.089 3.339.089 1.472 0 2.525-.001 3.338-.09.802-.086 1.295-.252 1.677-.529.274-.2.516-.442.716-.717.277-.381.443-.874.53-1.676.088-.813.089-1.866.089-3.338V11c0-1.473-.001-2.525-.09-3.339-.086-.801-.252-1.294-.529-1.676a3.236 3.236 0 0 0-.716-.716c-.382-.278-.875-.443-1.677-.53-.813-.088-1.866-.089-3.338-.089-1.473 0-2.525 0-3.34.09Zm-.42 3.926a.65.65 0 0 1 .65-.65h2.333a.65.65 0 1 1 0 1.3H8.889a.65.65 0 0 1-.65-.65Zm0 3.11a.65.65 0 0 1 .65-.65h6.222a.65.65 0 1 1 0 1.3H8.888a.65.65 0 0 1-.65-.65Zm0 3.112a.65.65 0 0 1 .65-.65h2.333a.65.65 0 1 1 0 1.3H8.889a.65.65 0 0 1-.65-.65Z" fill="currentColor"/></symbol><symbol fill="none" viewBox="0 0 24 24" id="icon-shield" xmlns="http://www.w3.org/2000/svg"><path fill-rule="evenodd" clip-rule="evenodd" d="M7.856 5.591a2.241 2.241 0 0 1 2.241-2.241h4.027c1.112 0 2.014.902 2.014 2.014 0 .394.32.714.714.714h.46c1.267 0 2.388.985 2.336 2.34-.065 1.689-.393 4.403-1.712 6.807-.358.653-.836 1.294-1.352 1.89l-.042.048c-.736.85-1.356 1.566-2.024 2.056-.724.53-1.497.794-2.521.794-1.024 0-1.797-.264-2.521-.794-.668-.49-1.289-1.206-2.024-2.056l-.042-.049c-.516-.595-.994-1.236-1.352-1.89-1.277-2.325-1.626-4.78-1.705-6.352-.07-1.363 1.06-2.34 2.321-2.34h.24a.94.94 0 0 0 .942-.94Zm2.241-.941a.941.941 0 0 0-.941.941 2.241 2.241 0 0 1-2.241 2.242h-.241c-.623 0-1.05.455-1.023.973.074 1.469.4 3.705 1.546 5.793.3.547.717 1.112 1.196 1.664.789.912 1.315 1.514 1.851 1.907.493.361.996.543 1.753.543.757 0 1.26-.182 1.753-.543.536-.393 1.062-.995 1.851-1.907.479-.552.895-1.117 1.196-1.664 1.177-2.146 1.49-4.625 1.552-6.23.02-.532-.418-.991-1.038-.991h-.46a2.014 2.014 0 0 1-2.013-2.014.714.714 0 0 0-.714-.714h-4.027ZM14.3 9.87a.65.65 0 0 1 0 .92l-1.194 1.193 1.194 1.194a.65.65 0 1 1-.92.92l-1.193-1.194-1.194 1.193a.65.65 0 1 1-.919-.919l1.194-1.194-1.194-1.193a.65.65 0 0 1 .92-.92l1.193 1.194L13.38 9.87a.65.65 0 0 1 .92 0Z" fill="currentColor"/></symbol><symbol fill="none" viewBox="0 0 24 24" id="icon-siteground" xmlns="http://www.w3.org/2000/svg"><path fill-rule="evenodd" clip-rule="evenodd" d="M9.098 17.057c-2.113-.69-3.62-2.743-3.99-4.893C4.09 6.229 10.407.874 16.716 3.847c.074 1.333-.545 3.23-2.244 3.8 8.433 5.324 1.223 16.23-7.614 12.644-1.612-.823-.751-2.326.972-1.455 1.925.664 4.426.664 6.003-.207a7.13 7.13 0 0 0 2.565-2.285c.235-.357.439-.734.609-1.126.133-.314.564-1.612.23-1.754-.084-.035-.128.065-.151.158a5.505 5.505 0 0 1-1.21 2.28 6.1 6.1 0 0 1-2.603 1.783c-1.26.459-2.721.517-4.73.077.133-.143.4-.543.554-.705h.002ZM14.919 4.38c.033.194.052.39.057.588a2.791 2.791 0 0 1-.932 2.315 8.32 8.32 0 0 1-.482.443c2.382 1.48 3.626 4.718 2.243 6.982-1.865 3.049-5.563 2.356-7.582.268-2.115-2.186-1.835-5.014-.316-7.11A8.81 8.81 0 0 1 14.92 4.38Z" fill="currentColor"/><path fill-rule="evenodd" clip-rule="evenodd" d="M7.74 11.075c.454-4.527 5.661-5.423 7.596.61 1.562 6.2-8.314 4.85-7.595-.61Zm4.248 2.976c4.112.15 2.142-4.056-.558-4.985-2.676-.921-4.164 4.984.558 4.985Z" fill="currentColor" fill-opacity=".4"/></symbol><symbol fill="none" viewBox="0 0 24 24" id="icon-speed" xmlns="http://www.w3.org/2000/svg"><path fill-rule="evenodd" clip-rule="evenodd" d="M18.113 4.35a.65.65 0 0 1 .653.647l.006 1.426c.002.524.004.97-.035 1.332-.042.383-.137.751-.387 1.075a2.041 2.041 0 0 1-.364.364c-.324.25-.692.345-1.075.387-.362.04-.808.038-1.332.035l-1.426-.006a.65.65 0 1 1 .006-1.3l1.39.006c.45.002.778.003 1.033-.012A6.32 6.32 0 0 0 12 6.35a6.35 6.35 0 1 0 6.35 6.35.65.65 0 1 1 1.3 0 7.65 7.65 0 1 1-2.186-5.354c.01-.243.01-.548.008-.953l-.006-1.39a.65.65 0 0 1 .647-.653ZM8.74 10.84c.668-.667 1.81-.194 1.81.75v3.91a.65.65 0 1 1-1.3 0v-3.33l-.29.29a.65.65 0 1 1-.92-.92l.7-.7Zm3.31 1.86a2.05 2.05 0 1 1 4.1 0v1.4a2.05 2.05 0 1 1-4.1 0v-1.4Zm2.05-.75a.75.75 0 0 0-.75.75v1.4a.75.75 0 0 0 1.5 0v-1.4a.75.75 0 0 0-.75-.75Z" fill="currentColor"/></symbol><symbol fill="none" viewBox="0 0 24 24" id="icon-star" xmlns="http://www.w3.org/2000/svg"><path fill-rule="evenodd" clip-rule="evenodd" d="M8.763 5.703c1.019-3.137 5.457-3.137 6.476 0a2.105 2.105 0 0 0 2.002 1.454c3.298 0 4.67 4.22 2.001 6.16a2.105 2.105 0 0 0-.765 2.353c1.02 3.136-2.57 5.745-5.239 3.806a2.105 2.105 0 0 0-2.474 0c-2.669 1.939-6.259-.67-5.24-3.806a2.105 2.105 0 0 0-.764-2.354c-2.669-1.938-1.297-6.159 2-6.159.913 0 1.72-.587 2.003-1.454Zm5.24.401c-.63-1.939-3.374-1.939-4.004 0a3.405 3.405 0 0 1-3.238 2.353c-2.039 0-2.887 2.61-1.237 3.808A3.405 3.405 0 0 1 6.76 16.07c-.63 1.94 1.589 3.552 3.239 2.353a3.405 3.405 0 0 1 4.002 0c1.65 1.199 3.87-.413 3.24-2.353a3.405 3.405 0 0 1 1.236-3.806c1.65-1.199.802-3.808-1.237-3.808a3.405 3.405 0 0 1-3.238-2.353Zm-.692 1.749a.65.65 0 0 1 .824.407c.15.446.596.771 1.125.771a.65.65 0 1 1 0 1.3c-1.057 0-2.018-.653-2.356-1.654a.65.65 0 0 1 .407-.824Z" fill="currentColor"/></symbol><symbol fill="none" viewBox="0 0 24 24" id="icon-updates" xmlns="http://www.w3.org/2000/svg"><path fill-rule="evenodd" clip-rule="evenodd" d="M11.96 4.35h.079c1.425 0 2.547 0 3.44.097.912.098 1.66.305 2.3.77.385.28.724.619 1.004 1.004.465.64.671 1.388.77 2.3.097.892.097 2.015.097 3.44v.078c0 1.425 0 2.548-.097 3.44-.099.912-.305 1.66-.77 2.3a4.54 4.54 0 0 1-1.004 1.004c-.64.465-1.388.671-2.3.77-.893.097-2.015.097-3.44.097h-.078c-1.425 0-2.548 0-3.44-.097-.912-.099-1.66-.305-2.3-.77a4.538 4.538 0 0 1-1.005-1.004c-.465-.64-.67-1.388-.77-2.3-.096-.892-.096-2.015-.096-3.44v-.078c0-1.425 0-2.548.096-3.44.1-.912.305-1.66.77-2.3.28-.385.62-.724 1.005-1.004.64-.465 1.388-.672 2.3-.77.892-.097 2.014-.097 3.44-.097Zm-3.3 1.389c-.8.087-1.293.252-1.675.53-.275.2-.517.441-.717.716-.277.382-.442.875-.53 1.676-.088.814-.088 1.866-.088 3.339 0 1.473 0 2.525.089 3.339.087.801.252 1.294.53 1.676.199.275.44.517.716.716.382.278.874.443 1.676.53.814.088 1.866.089 3.339.089 1.472 0 2.525 0 3.338-.09.802-.086 1.295-.251 1.677-.529.274-.2.516-.441.716-.716.277-.382.443-.875.53-1.676.088-.814.089-1.866.089-3.339 0-1.473-.001-2.525-.09-3.339-.086-.801-.252-1.294-.529-1.676a3.236 3.236 0 0 0-.716-.716c-.382-.278-.875-.443-1.677-.53-.813-.088-1.866-.089-3.338-.089-1.473 0-2.525 0-3.34.089Zm3.99 4.118c.232.197.511.477.912.881l1.087 1.097a.65.65 0 1 0 .923-.915L14.46 9.797c-.411-.415-.758-.765-1.07-1.016-.329-.263-.68-.47-1.112-.525a2.193 2.193 0 0 0-.554 0c-.432.056-.784.262-1.113.525-.312.25-.659.601-1.07 1.016L8.427 10.92a.65.65 0 1 0 .923.915l1.087-1.097c.4-.404.68-.684.913-.881v5.254a.65.65 0 1 0 1.3 0V9.857Z" fill="currentColor"/></symbol><symbol fill="none" viewBox="0 0 24 24" id="icon-web" xmlns="http://www.w3.org/2000/svg"><path fill-rule="evenodd" clip-rule="evenodd" d="M11.054 5.72c-.245.807-.71 2.434-.985 4.058.684.106 1.347.172 1.93.172.584 0 1.247-.066 1.93-.172-.275-1.624-.738-3.25-.984-4.058a6.406 6.406 0 0 0-1.89 0Zm3.365.407c.254.9.574 2.152.79 3.415a36.115 36.115 0 0 0 2.363-.589 6.377 6.377 0 0 0-3.153-2.826Zm3.66 4.033c-.7.202-1.664.459-2.693.673.04.4.064.793.064 1.167 0 .543-.05 1.128-.129 1.718a37.676 37.676 0 0 0 2.959-.773 6.398 6.398 0 0 0-.2-2.785Zm-.206 4.26c-.75.21-1.742.468-2.781.672a36.153 36.153 0 0 1-.673 2.781 6.374 6.374 0 0 0 3.454-3.454Zm-4.928 3.86c.19-.622.51-1.735.772-2.958A13.16 13.16 0 0 1 12 15.45c-.543 0-1.128-.05-1.718-.128.263 1.223.583 2.336.772 2.958a6.398 6.398 0 0 0 1.89 0Zm-3.365-.407a36.182 36.182 0 0 1-.672-2.78 36.15 36.15 0 0 1-2.781-.674 6.374 6.374 0 0 0 3.453 3.454Zm-3.86-4.928c.622.19 1.734.51 2.958.773A13.165 13.165 0 0 1 8.55 12c0-.374.023-.768.063-1.167a37.51 37.51 0 0 1-2.693-.673 6.35 6.35 0 0 0-.2 2.785Zm-.997-3.313a7.678 7.678 0 0 0-.21 3.95 7.659 7.659 0 0 0 5.904 5.904 7.675 7.675 0 0 0 3.165 0 7.659 7.659 0 0 0 5.904-5.904 7.675 7.675 0 0 0-.4-4.47 7.663 7.663 0 0 0-5.504-4.598 7.679 7.679 0 0 0-3.165 0 7.663 7.663 0 0 0-5.502 4.595l-.21.512.018.01Zm1.704-.679c.642.182 1.478.402 2.364.589.215-1.263.535-2.515.79-3.415a6.376 6.376 0 0 0-3.154 2.826Zm3.47 2.113c-.03.328-.047.641-.047.934 0 .595.069 1.272.178 1.971.7.11 1.377.179 1.972.179.594 0 1.272-.069 1.97-.179.11-.699.18-1.376.18-1.971 0-.293-.017-.606-.047-.934-.72.11-1.443.184-2.103.184a14.1 14.1 0 0 1-2.103-.184Z" fill="currentColor"/></symbol><symbol fill="none" viewBox="0 0 24 24" id="icon-web-host" xmlns="http://www.w3.org/2000/svg"><path fill-rule="evenodd" clip-rule="evenodd" d="M12.017 4a578.277 578.277 0 0 0 .266 0c1.216 0 1.984 0 2.626.206a4.242 4.242 0 0 1 2.78 2.853c.301.237.569.513.795.821.44.6.634 1.297.726 2.14.09.822.09 1.856.09 3.162v.079c0 1.306 0 2.34-.09 3.162-.092.843-.286 1.54-.726 2.14a4.242 4.242 0 0 1-.943.933c-.604.434-1.306.624-2.156.715-.83.09-1.875.089-3.197.089h-.076c-1.322 0-2.366 0-3.197-.089-.85-.091-1.552-.281-2.156-.715a4.241 4.241 0 0 1-.943-.933c-.44-.6-.634-1.297-.726-2.14C5 15.6 5 14.567 5 13.26v-.079c0-1.306 0-2.34.09-3.162.092-.843.286-1.54.726-2.14a4.24 4.24 0 0 1 .794-.82 4.241 4.241 0 0 1 2.78-2.853c.643-.207 1.41-.207 2.627-.207ZM8.485 6.29a8.14 8.14 0 0 1 .475-.063c.823-.084 1.854-.084 3.154-.084h.072c1.3 0 2.331 0 3.154.084.164.017.322.037.475.062a2.963 2.963 0 0 0-1.303-.845c-.423-.136-.968-.144-2.362-.144-1.394 0-1.939.008-2.361.144-.512.164-.96.46-1.304.845Zm.608 1.23c-.739.076-1.191.22-1.538.456a2.942 2.942 0 0 0-.692.673c-.25.34-.4.782-.48 1.513-.082.743-.083 1.706-.083 3.06 0 1.353 0 2.316.082 3.06.08.73.232 1.171.482 1.511.182.248.402.466.654.647.346.248.795.399 1.536.479.753.08 1.728.081 3.096.081s2.343 0 3.096-.081c.741-.08 1.19-.23 1.536-.479a2.94 2.94 0 0 0 .654-.647c.25-.34.402-.781.482-1.512.081-.743.082-1.706.082-3.06 0-1.353 0-2.316-.082-3.06-.08-.73-.232-1.171-.482-1.511a2.943 2.943 0 0 0-.691-.674c-.347-.236-.799-.38-1.538-.456-.748-.076-1.713-.077-3.057-.077-1.344 0-2.308 0-3.057.077Zm-.482 7.844a.65.65 0 0 1 .65-.65h5.778a.65.65 0 1 1 0 1.3H9.26a.65.65 0 0 1-.65-.65Z" fill="currentColor"/></symbol><symbol fill="none" viewBox="0 0 24 24" id="icon-woo" xmlns="http://www.w3.org/2000/svg"><path d="M12 21a9 9 0 1 0 0-18 9 9 0 0 0 0 18Z" fill="currentColor"/><path d="M5.41 9.516a.478.478 0 0 1 .379-.18c.306-.018.486.126.522.432.18 1.26.396 2.322.612 3.204l1.314-2.52c.126-.234.27-.342.45-.36.27-.018.432.144.486.504.144.81.342 1.476.576 2.07.162-1.53.414-2.646.792-3.312a.483.483 0 0 1 .396-.27.486.486 0 0 1 .378.126c.108.09.18.198.18.342a.746.746 0 0 1-.054.288c-.234.432-.432 1.17-.594 2.178-.144.99-.198 1.746-.162 2.304a.712.712 0 0 1-.072.396.414.414 0 0 1-.324.216c-.162.018-.324-.054-.468-.216-.558-.576-1.008-1.422-1.332-2.574-.396.774-.684 1.35-.864 1.746-.36.684-.666 1.026-.918 1.044-.162.018-.306-.126-.414-.414-.306-.792-.648-2.322-.99-4.59 0-.162.036-.306.108-.414Zm12.98.954a1.399 1.399 0 0 0-.973-.702c-.108-.018-.216-.036-.324-.036-.576 0-1.044.306-1.422.9a3.297 3.297 0 0 0-.468 1.71c0 .468.09.864.288 1.188.216.378.54.612.972.702.108.018.216.036.324.036.594 0 1.062-.306 1.422-.9.306-.522.468-1.08.468-1.71 0-.468-.09-.864-.288-1.188Zm-.757 1.674c-.09.396-.234.702-.45.9-.18.162-.342.216-.486.198-.144-.036-.27-.162-.36-.396a1.536 1.536 0 0 1-.108-.558c0-.144.018-.306.036-.432.054-.252.162-.486.324-.72.198-.288.414-.414.63-.378.144.036.27.162.36.396.072.18.108.378.108.558-.018.126-.036.288-.054.432ZM14.61 10.47a1.399 1.399 0 0 0-.972-.702c-.108-.018-.216-.036-.324-.036-.576 0-1.044.306-1.422.9a3.297 3.297 0 0 0-.468 1.71c0 .468.09.864.288 1.188.216.378.54.612.972.702.108.018.216.036.324.036.594 0 1.062-.306 1.422-.9.306-.522.468-1.08.468-1.71 0-.468-.09-.864-.288-1.188Zm-.756 1.674c-.09.396-.234.702-.45.9-.18.162-.342.216-.486.198-.144-.036-.27-.162-.36-.396a1.536 1.536 0 0 1-.108-.558c0-.144.018-.306.036-.432.054-.252.162-.486.324-.72.198-.288.414-.414.63-.378.144.036.27.162.36.396.072.18.108.378.108.558-.018.126-.036.288-.054.432Z" fill="white"/></symbol><symbol fill="none" viewBox="0 0 24 24" id="icon-wordpress" xmlns="http://www.w3.org/2000/svg"><path d="M4.28 12a7.722 7.722 0 0 0 4.35 6.948L4.948 8.858A7.692 7.692 0 0 0 4.279 12Zm12.932-.39c0-.954-.343-1.615-.637-2.13-.391-.635-.758-1.174-.758-1.81 0-.71.538-1.37 1.296-1.37.035 0 .067.004.1.006A7.692 7.692 0 0 0 12 4.28a7.711 7.711 0 0 0-6.45 3.48l.496.01c.808 0 2.058-.098 2.058-.098.416-.025.465.586.049.636 0 0-.418.049-.884.073l2.812 8.363 1.69-5.067-1.203-3.296c-.416-.025-.81-.074-.81-.074-.416-.024-.367-.66.049-.636 0 0 1.275.098 2.033.098.808 0 2.058-.098 2.058-.098.416-.024.465.587.05.636 0 0-.42.05-.884.074l2.79 8.3.77-2.574c.334-1.068.588-1.835.588-2.496Zm-5.077 1.065L9.82 19.407a7.719 7.719 0 0 0 4.745-.124.683.683 0 0 1-.055-.106l-2.374-6.502Zm6.64-4.38c.032.246.051.51.051.794 0 .784-.146 1.665-.587 2.766l-2.358 6.819A7.717 7.717 0 0 0 19.72 12a7.678 7.678 0 0 0-.946-3.704ZM12 3c-4.963 0-9 4.037-9 9 0 4.962 4.037 9 9 9 4.962 0 9-4.037 9-9s-4.038-9-9-9Zm0 17.587c-4.735 0-8.587-3.852-8.587-8.587 0-4.735 3.852-8.587 8.587-8.587 4.735 0 8.587 3.852 8.587 8.587 0 4.735-3.853 8.587-8.587 8.587Z" fill="currentColor"/></symbol><symbol fill="none" viewBox="0 0 24 24" id="icon-wp-engine" xmlns="http://www.w3.org/2000/svg"><path d="M9.224 19.4h4.952v-3.744l-1.208-1.208h-2.566l-1.178 1.208V19.4Zm6.402-10.176-1.178 1.178v2.596l1.178 1.178H19.4V9.224h-3.774ZM14.176 4H9.224v3.775l1.178 1.177h2.566l1.208-1.177V4ZM19.4 19.4v-3.744l-1.178-1.208h-3.774V19.4H19.4ZM5.178 4 4 5.178v3.774h4.952V4H5.178Zm9.27 0v3.775l1.178 1.177H19.4V4h-4.952ZM11.7 12.425a.702.702 0 0 1-.694-.695c0-.392.332-.694.694-.694.393 0 .695.332.695.694a.702.702 0 0 1-.695.695ZM8.952 9.224H4v4.952h3.744l1.208-1.178V9.224Zm0 6.432-1.208-1.208H4V19.4h3.744l1.208-1.178v-2.566Z" fill="currentColor"/></symbol></svg>