<?xml version="1.0" encoding="utf-8"?><svg xmlns="http://www.w3.org/2000/svg" xmlns:xlink="http://www.w3.org/1999/xlink"><symbol fill="none" viewBox="0 0 24 24" id="icon-admin" xmlns="http://www.w3.org/2000/svg"><path fill-rule="evenodd" clip-rule="evenodd" d="M9.997 4.081a3.102 3.102 0 1 0 0 6.204 3.102 3.102 0 0 0 0-6.204ZM5.592 7.183a4.405 4.405 0 1 1 8.81 0 4.405 4.405 0 0 1-8.81 0Zm16.1 6.083c.268.24.29.652.05.92l-3.193 3.568c-.599.668-1.095 1.222-1.546 1.602-.477.4-.984.677-1.61.677-.627 0-1.134-.277-1.61-.677-.452-.38-.948-.934-1.546-1.602l-.848-.948a.651.651 0 1 1 .97-.869l.816.911c.64.715 1.074 1.197 1.446 1.51.356.3.574.372.772.372.197 0 .415-.072.771-.372.373-.313.807-.796 1.447-1.51l3.161-3.53a.651.651 0 0 1 .92-.052ZM2.777 17.505A4.405 4.405 0 0 1 7.182 13.1h5.63a.651.651 0 1 1 0 1.303h-5.63a3.102 3.102 0 1 0 0 6.204h5.63a.651.651 0 1 1 0 1.303h-5.63a4.405 4.405 0 0 1-4.405-4.405Z" fill="currentColor"/></symbol><symbol fill="none" viewBox="0 0 24 25" id="icon-admin-big" xmlns="http://www.w3.org/2000/svg"><path fill-rule="evenodd" clip-rule="evenodd" d="M9.265 2.86a3.619 3.619 0 1 0 0 7.239 3.619 3.619 0 0 0 0-7.238ZM4.126 6.48a5.139 5.139 0 1 1 10.278 0 5.139 5.139 0 0 1-10.278 0Zm18.783 7.097a.76.76 0 0 1 .06 1.073l-3.727 4.162c-.699.78-1.277 1.426-1.804 1.869-.555.467-1.147.79-1.878.79-.731 0-1.323-.323-1.879-.79-.527-.443-1.105-1.089-1.803-1.869l-.99-1.105a.76.76 0 0 1 1.133-1.014l.951 1.063c.746.833 1.253 1.396 1.687 1.761.416.35.67.434.9.434.231 0 .486-.084.901-.434.434-.365.941-.928 1.687-1.761l3.689-4.12a.76.76 0 0 1 1.073-.06ZM.842 18.522a5.14 5.14 0 0 1 5.139-5.14h6.568a.76.76 0 0 1 0 1.52H5.981a3.619 3.619 0 0 0 0 7.239h6.568a.76.76 0 0 1 0 1.52H5.981a5.139 5.139 0 0 1-5.14-5.14Z" fill="currentColor"/></symbol><symbol fill="none" viewBox="0 0 24 25" id="icon-align-left" xmlns="http://www.w3.org/2000/svg"><path fill-rule="evenodd" clip-rule="evenodd" d="M11.914 1.3h.057c1.238 0 2.3 0 3.215.031 1.997.069 3.455.285 4.622 1.133.517.375.972.83 1.348 1.348.847 1.166 1.064 2.624 1.132 4.622.032.913.032 1.977.032 3.215v2.19c0 1.961 0 3.495-.132 4.711-.134 1.24-.413 2.24-1.032 3.091-.376.518-.83.973-1.348 1.348-.852.62-1.852.898-3.092 1.032-1.216.132-2.75.132-4.71.132h-.092c-1.961 0-3.495 0-4.711-.132-1.24-.134-2.24-.413-3.092-1.032a6.092 6.092 0 0 1-1.348-1.348c-.619-.852-.897-1.851-1.032-3.091C1.6 17.334 1.6 15.8 1.6 13.84v-2.226c0-1.961 0-3.495.131-4.711.135-1.24.413-2.24 1.032-3.091a6.07 6.07 0 0 1 1.348-1.348c.853-.62 1.852-.898 3.092-1.032 1.216-.132 2.75-.132 4.71-.132ZM7.367 2.943c-1.111.12-1.812.35-2.362.75-.388.282-.73.624-1.012 1.012-.4.55-.63 1.251-.75 2.362C3.12 8.19 3.12 9.643 3.12 11.66v2.133c0 2.017 0 3.469.123 4.593.12 1.11.35 1.812.75 2.362.282.388.624.73 1.012 1.012.55.4 1.251.63 2.362.75 1.124.122 2.576.123 4.593.123 2.016 0 3.468 0 4.593-.123 1.11-.12 1.812-.35 2.361-.75.389-.282.73-.624 1.012-1.012.4-.55.63-1.251.75-2.362.123-1.124.124-2.576.124-4.593V11.66c0-.922 0-1.728-.013-2.442-.525-.004-.906-.02-1.247-.073a6.093 6.093 0 0 1-5.065-5.065c-.054-.342-.07-.722-.074-1.248a150.22 150.22 0 0 0-2.441-.012c-2.017 0-3.469 0-4.593.123Zm8.555-.054c.005.46.018.724.054.953a4.573 4.573 0 0 0 3.801 3.802c.229.036.494.049.953.053-.098-1.48-.328-2.337-.804-2.992a4.575 4.575 0 0 0-1.012-1.012c-.654-.475-1.512-.706-2.992-.804Zm-8.99 5.57a.76.76 0 0 1 .76-.76h3.2a.76.76 0 0 1 0 1.52H7.694a.76.76 0 0 1-.76-.76Zm0 4.267c0-.42.341-.76.76-.76h8.534a.76.76 0 0 1 0 1.52H7.693a.76.76 0 0 1-.76-.76Zm0 4.267c0-.42.341-.76.76-.76h3.2a.76.76 0 1 1 0 1.52H7.694a.76.76 0 0 1-.76-.76Z" fill="currentColor"/></symbol><symbol fill="none" viewBox="0 0 24 25" id="icon-arrow" xmlns="http://www.w3.org/2000/svg"><path d="M15.388 12.765a.733.733 0 0 1-.192.48l-4.804 4.8a.754.754 0 0 1-1.057 0 .753.753 0 0 1 0-1.056l4.324-4.32-4.324-4.32a.753.753 0 0 1 0-1.056.754.754 0 0 1 1.057 0l4.804 4.8c.096.384.192.576.192.672Z" fill="currentColor"/></symbol><symbol fill="none" viewBox="0 0 25 25" id="icon-attack" xmlns="http://www.w3.org/2000/svg"><path fill-rule="evenodd" clip-rule="evenodd" d="M12.5.948c.372 0 .674.302.674.675v3.28c1.39.003 2.283.03 3.039.275a5.618 5.618 0 0 1 3.607 3.607c.245.756.272 1.649.274 3.038h3.28a.675.675 0 1 1 0 1.35h-3.28c-.002 1.39-.029 2.283-.274 3.039a5.618 5.618 0 0 1-3.607 3.607c-.757.245-1.65.272-3.039.274v3.28a.675.675 0 1 1-1.35 0v-3.28c-1.39-.002-2.282-.029-3.038-.274a5.618 5.618 0 0 1-3.607-3.607c-.246-.756-.272-1.65-.275-3.039h-3.28a.675.675 0 1 1 0-1.35h3.28c.003-1.39.03-2.282.275-3.038a5.618 5.618 0 0 1 3.607-3.607c.756-.246 1.649-.272 3.038-.275v-3.28c0-.373.303-.675.675-.675Zm-.676 5.306c-1.416.004-2.083.033-2.621.208a4.268 4.268 0 0 0-2.74 2.74c-.175.538-.204 1.205-.208 2.621h.312a.675.675 0 1 1 0 1.35h-.312c.004 1.417.033 2.083.208 2.621a4.268 4.268 0 0 0 2.74 2.74c.538.176 1.205.204 2.621.209v-.313a.675.675 0 0 1 1.35 0v.313c1.417-.005 2.083-.033 2.622-.208a4.268 4.268 0 0 0 2.74-2.74c.175-.539.203-1.205.208-2.622h-.313a.675.675 0 1 1 0-1.35h.313c-.005-1.416-.033-2.083-.208-2.621a4.268 4.268 0 0 0-2.74-2.74c-.539-.175-1.205-.204-2.622-.208v.312a.675.675 0 0 1-1.35 0v-.312Z" fill="currentColor"/><path fill-rule="evenodd" clip-rule="evenodd" d="M12.499 14.84a2.339 2.339 0 1 1 0-4.678 2.339 2.339 0 0 1 0 4.677Zm0-1.35a.989.989 0 1 1 0-1.978.989.989 0 0 1 0 1.977Z" fill="currentColor"/></symbol><symbol fill="none" viewBox="0 0 24 24" id="icon-award" xmlns="http://www.w3.org/2000/svg"><path fill-rule="evenodd" clip-rule="evenodd" d="M12.31 2.674a6.206 6.206 0 1 0 0 12.411 6.206 6.206 0 0 0 0-12.411ZM4.8 8.88a7.509 7.509 0 1 1 13.304 4.775v5.716c0 .625 0 1.168-.06 1.576-.062.41-.22.93-.754 1.169-.526.235-1.019.018-1.374-.2-.355-.22-.777-.571-1.268-.98l-.843-.703c-.47-.39-.776-.645-1.03-.808-.238-.153-.365-.182-.466-.182-.1 0-.227.029-.465.182-.255.163-.561.417-1.03.808l-.844.703c-.49.409-.912.76-1.267.98-.355.218-.849.435-1.375.2-.534-.24-.691-.758-.752-1.17-.061-.407-.061-.95-.06-1.575v-5.716A7.48 7.48 0 0 1 4.8 8.88Zm3.018 6.017v4.422c0 .693.002 1.136.046 1.436.008.052.016.093.024.125a1.48 1.48 0 0 0 .131-.073c.266-.164.616-.454 1.156-.904l.805-.67.03-.026c.43-.359.799-.666 1.13-.878.353-.227.726-.389 1.17-.389.442 0 .816.162 1.17.389.33.212.698.52 1.129.878l.835.696c.54.45.89.74 1.155.904.055.033.099.057.132.073.007-.032.016-.073.023-.125.045-.3.047-.743.047-1.436v-4.422a7.477 7.477 0 0 1-4.492 1.491 7.477 7.477 0 0 1-4.491-1.49Zm8.88 6.079s.001-.004.005-.009a.034.034 0 0 1-.005.009Zm.118-.063h.008-.008Zm-9.022 0h.009-.009Zm.122.054c.004.005.005.009.005.009l-.005-.009Z" fill="currentColor"/><path fill-rule="evenodd" clip-rule="evenodd" d="M16.162 5.815a.651.651 0 0 1 .07.918L13.89 9.457c-.431.502-.8.931-1.14 1.228-.361.317-.774.56-1.299.56-.524 0-.937-.243-1.299-.56-.34-.297-.708-.726-1.14-1.228l-.03-.036-.596-.693a.651.651 0 0 1 .988-.85l.596.694c.47.548.78.904 1.04 1.133.247.216.364.238.441.238.078 0 .195-.022.441-.238.261-.229.57-.585 1.04-1.133l2.311-2.688a.651.651 0 0 1 .919-.07Z" fill="currentColor"/></symbol><symbol fill="none" viewBox="0 0 24 24" id="icon-calendar" xmlns="http://www.w3.org/2000/svg"><path fill-rule="evenodd" clip-rule="evenodd" d="M10.455 4.621a.621.621 0 1 0-1.243 0v1.1A5.147 5.147 0 0 0 5 10.78v4.21a5.145 5.145 0 0 0 5.145 5.145h4.21A5.145 5.145 0 0 0 19.5 14.99v-4.21a5.147 5.147 0 0 0-4.29-5.074V4.62a.621.621 0 1 0-1.242 0v1.015h-3.513V4.62Zm3.513 3.119v-.861h-3.513v.86a.621.621 0 1 1-1.243 0v-.748a3.904 3.904 0 0 0-2.97 3.79v4.21a3.902 3.902 0 0 0 3.903 3.902h4.21a3.902 3.902 0 0 0 3.902-3.902v-4.21a3.904 3.904 0 0 0-3.047-3.808v.767a.621.621 0 1 1-1.242 0ZM8.586 9.535a.621.621 0 0 0 0 1.243h7.328a.621.621 0 1 0 0-1.243H8.586Z" fill="currentColor"/></symbol><symbol fill="none" viewBox="0 0 24 24" id="icon-cancellation" xmlns="http://www.w3.org/2000/svg"><path fill-rule="evenodd" clip-rule="evenodd" d="M12.268 3.429h.08c1.68 0 2.995 0 4.037.113 1.063.115 1.92.354 2.65.884.443.322.833.712 1.155 1.156.53.73.77 1.587.885 2.65.113 1.042.113 2.357.113 4.037v.08c0 1.68 0 2.995-.113 4.037-.115 1.063-.354 1.92-.885 2.65a5.22 5.22 0 0 1-1.155 1.155c-.73.53-1.587.77-2.65.885-1.042.113-2.357.113-4.038.113h-.079c-1.68 0-2.995 0-4.038-.113-1.062-.115-1.919-.354-2.65-.885a5.222 5.222 0 0 1-1.155-1.155c-.53-.73-.77-1.587-.884-2.65-.113-1.042-.113-2.357-.113-4.038v-.079c0-1.68 0-2.995.113-4.038.115-1.062.354-1.919.884-2.65a5.223 5.223 0 0 1 1.156-1.155c.73-.53 1.587-.77 2.65-.884 1.042-.113 2.357-.113 4.037-.113ZM8.371 4.837c-.952.103-1.553.3-2.025.643a3.92 3.92 0 0 0-.867.867c-.342.472-.54 1.073-.643 2.025-.105.964-.105 2.208-.105 3.937 0 1.728 0 2.973.105 3.937.103.952.3 1.553.643 2.024.242.333.535.625.867.867.472.343 1.073.54 2.025.643.964.105 2.208.106 3.937.106 1.728 0 2.973-.001 3.937-.105.951-.104 1.553-.301 2.024-.644.333-.242.625-.534.867-.867.343-.471.54-1.072.644-2.024.104-.964.105-2.209.105-3.937 0-1.729-.001-2.973-.105-3.937-.104-.952-.301-1.553-.644-2.025a3.92 3.92 0 0 0-.867-.867c-.471-.342-1.072-.54-2.024-.643-.964-.105-2.209-.105-3.937-.105-1.729 0-2.973 0-3.937.105Zm6.337 5.293a.651.651 0 0 1 0 .922l-1.479 1.479 1.479 1.478a.651.651 0 0 1-.921.922l-1.48-1.48-1.478 1.48a.651.651 0 0 1-.921-.922l1.479-1.479-1.48-1.478a.651.651 0 0 1 .922-.922l1.479 1.48 1.479-1.48a.651.651 0 0 1 .92 0Z" fill="currentColor"/></symbol><symbol fill="none" viewBox="0 0 28 28" id="icon-copy" xmlns="http://www.w3.org/2000/svg"><path fill-rule="evenodd" clip-rule="evenodd" d="M12.258 3.908h.061c1.001 0 4.371 0 5.1.025a.758.758 0 1 1-.051 1.516c-.7-.024-4.061-.024-5.065-.024-1.608 0-2.753 0-3.637.097-.87.094-1.398.273-1.805.568a3.484 3.484 0 0 0-.77.771c-.296.407-.475.935-.57 1.805-.095.884-.096 2.03-.096 3.637v6.788a.758.758 0 0 1-1.517 0v-6.833c0-1.553 0-2.78.106-3.755.108-1 .335-1.825.85-2.533A5 5 0 0 1 5.97 4.863c.708-.514 1.533-.74 2.533-.85.975-.105 2.202-.105 3.755-.105Zm3.394 3.394h.056c.983 0 1.831 0 2.56.025 1.591.055 2.793.226 3.762.93a5 5 0 0 1 1.107 1.107c.703.968.875 2.17.93 3.761.025.73.025 1.578.025 2.56v.057c0 1.552 0 2.78-.106 3.755-.108 1-.335 1.825-.85 2.533a5.002 5.002 0 0 1-1.106 1.107c-.708.514-1.533.74-2.533.849-.975.106-2.202.105-3.755.105h-.09c-1.553 0-2.78 0-3.755-.105-1-.108-1.825-.335-2.533-.85a5.003 5.003 0 0 1-1.107-1.106c-.514-.708-.74-1.534-.849-2.533-.106-.976-.106-2.203-.106-3.755v-.09c0-1.553 0-2.78.106-3.755.108-1 .335-1.825.85-2.533a5 5 0 0 1 1.106-1.107c.708-.514 1.533-.74 2.533-.85.975-.105 2.202-.105 3.755-.105ZM12.06 8.916c-.87.094-1.398.273-1.805.568a3.485 3.485 0 0 0-.77.771c-.296.407-.475.935-.57 1.805-.095.884-.096 2.03-.096 3.637 0 1.608.001 2.752.097 3.637.094.87.273 1.398.568 1.805.215.296.475.556.771.77.407.296.935.475 1.805.569.884.096 2.03.097 3.637.097 1.608 0 2.753-.001 3.637-.097.87-.094 1.398-.273 1.805-.569.296-.214.556-.474.77-.77.296-.407.475-.935.57-1.805.095-.885.096-2.03.096-3.637 0-.67 0-1.261-.007-1.79a6.145 6.145 0 0 1-.866-.059 5 5 0 0 1-4.156-4.157 6.127 6.127 0 0 1-.059-.865 134.54 134.54 0 0 0-1.79-.007c-1.608 0-2.753 0-3.637.097Zm6.945-.03c.005.26.016.425.039.568a3.484 3.484 0 0 0 2.896 2.896c.143.023.307.034.568.039-.083-1.064-.262-1.671-.598-2.134a3.484 3.484 0 0 0-.771-.77c-.463-.337-1.07-.516-2.134-.6Z" fill="currentColor"/></symbol><symbol fill="none" viewBox="0 0 24 24" id="icon-dollars" xmlns="http://www.w3.org/2000/svg"><path fill-rule="evenodd" clip-rule="evenodd" d="M12 1.919c-5.567 0-10.08 4.512-10.08 10.08 0 5.566 4.513 10.08 10.08 10.08s10.08-4.514 10.08-10.08c0-5.568-4.512-10.08-10.08-10.08ZM.48 11.999C.48 5.635 5.638.479 12 .479c6.363 0 11.52 5.157 11.52 11.52 0 6.362-5.157 11.52-11.52 11.52-6.362 0-11.52-5.158-11.52-11.52ZM12 3.719a.72.72 0 0 1 .72.72v.343a3.907 3.907 0 0 1 2.833 1.917l.405.702a.72.72 0 0 1-1.247.72l-.405-.702a2.466 2.466 0 0 0-1.585-1.173v5.25l.468.172c3.114 1.146 3.48 5.404.606 7.063a3.916 3.916 0 0 1-1.075.424v.403a.72.72 0 1 1-1.44 0v-.343a3.907 3.907 0 0 1-2.831-1.917l-.406-.702a.72.72 0 1 1 1.247-.72l.406.702c.356.618.94 1.024 1.585 1.173v-5.25l-.469-.172c-3.114-1.146-3.479-5.404-.605-7.063a3.913 3.913 0 0 1 1.073-.424V4.44a.72.72 0 0 1 .72-.72Zm-.72 2.626c-.12.046-.238.102-.353.168-1.808 1.044-1.588 3.714.354 4.453V6.345Zm1.44 6.686v4.622a2.5 2.5 0 0 0 .355-.17c1.807-1.043 1.587-3.713-.354-4.452Z" fill="currentColor"/></symbol><symbol fill="none" viewBox="0 0 24 25" id="icon-exit" xmlns="http://www.w3.org/2000/svg"><path fill-rule="evenodd" clip-rule="evenodd" d="M8.002 2.86a5.64 5.64 0 0 0-5.64 5.64v8a5.64 5.64 0 0 0 5.64 5.64h8a5.64 5.64 0 0 0 5.64-5.64v-.671a.76.76 0 0 1 1.52 0v.672a7.16 7.16 0 0 1-7.16 7.16h-8a7.16 7.16 0 0 1-7.16-7.16v-8a7.16 7.16 0 0 1 7.16-7.16h6.496a.76.76 0 1 1 0 1.52H8.002Z" fill="currentColor"/><path fill-rule="evenodd" clip-rule="evenodd" d="M12.258 10.348a3.24 3.24 0 0 0-3.24 3.24v1.824a.76.76 0 1 1-1.52 0v-1.824a4.76 4.76 0 0 1 4.76-4.76h9.312v1.52h-9.312Z" fill="currentColor"/><path fill-rule="evenodd" clip-rule="evenodd" d="M21.3 9.615a.04.04 0 0 0 0-.056l-4.427-4.427a.76.76 0 1 1 1.075-1.074l4.426 4.426c.61.61.61 1.597 0 2.206l-4.426 4.426a.76.76 0 1 1-1.075-1.075l4.426-4.426Z" fill="currentColor"/></symbol><symbol fill="none" viewBox="0 0 24 24" id="icon-exploitation" xmlns="http://www.w3.org/2000/svg"><path fill-rule="evenodd" clip-rule="evenodd" d="M8.672 3.064c.998-3.498 5.955-3.498 6.953 0A2.095 2.095 0 0 0 18.15 4.52c3.528-.884 6.007 3.409 3.477 6.022a2.096 2.096 0 0 0 0 2.915c2.53 2.613.051 6.906-3.477 6.022a2.096 2.096 0 0 0-2.525 1.457c-.998 3.498-5.955 3.498-6.953 0a2.095 2.095 0 0 0-2.524-1.457C2.62 20.364.14 16.07 2.67 13.458a2.096 2.096 0 0 0 0-2.915C.141 7.93 2.62 3.637 6.148 4.52a2.095 2.095 0 0 0 2.524-1.457Zm5.492.417c-.579-2.027-3.452-2.027-4.03 0a3.615 3.615 0 0 1-4.356 2.515c-2.045-.513-3.481 1.975-2.015 3.49a3.615 3.615 0 0 1 0 5.03c-1.466 1.514-.03 4.002 2.015 3.49a3.615 3.615 0 0 1 4.356 2.514c.578 2.027 3.451 2.027 4.03 0a3.615 3.615 0 0 1 4.356-2.515c2.044.513 3.48-1.975 2.015-3.49a3.615 3.615 0 0 1 0-5.03c1.466-1.514.03-4.002-2.015-3.49a3.615 3.615 0 0 1-4.356-2.514ZM8.33 12a3.818 3.818 0 1 1 7.636 0 3.818 3.818 0 0 1-7.636 0Zm3.818-2.299a2.298 2.298 0 1 0 0 4.597 2.298 2.298 0 0 0 0-4.597Z" fill="currentColor"/></symbol><symbol fill="none" viewBox="0 0 24 24" id="icon-facebook" xmlns="http://www.w3.org/2000/svg"><path d="M14.5 13.4v6.3c0 .1-.3 1-1 1.1-.8.1-2 0-2.1 0-.2-.1-1-.2-1.1-1.2-.1-.9 0-6.2 0-6.2H9c-.1 0-1.1-.3-1.2-1.1-.1-.8 0-1.7 0-2.2 0-.3.4-1 1.3-1h1.2s.1-2.4.1-2.8c.1-.8.5-2.1 1.5-2.8 1.2-.9 2.8-1 3.7-.8.9.2 1.3.5 1.3.7 0 .2 0 2-.1 2.1-.1.1-.3.5-.6.5-.2 0-.9 0-1.4.1-.4.1-.9.5-1 1.2-.1.7 0 1.7 0 1.7h2.1c.6 0 1 .5 1 1.2.1.8-.2 2.2-.6 2.6-.3.7-.7.6-1.8.6Z" stroke="currentColor" stroke-width="1.2" stroke-linejoin="round"/></symbol><symbol fill="none" viewBox="0 0 24 25" id="icon-filter" xmlns="http://www.w3.org/2000/svg"><path fill-rule="evenodd" clip-rule="evenodd" d="M11.956 1.34h.092c2.127 0 3.786 0 5.1.143 1.338.145 2.408.445 3.319 1.106a6.539 6.539 0 0 1 1.446 1.447c.662.91.962 1.98 1.106 3.318.143 1.315.143 2.973.143 5.1v.093c0 2.127 0 3.786-.143 5.1-.144 1.338-.444 2.408-1.106 3.319a6.54 6.54 0 0 1-1.446 1.446c-.91.662-1.981.962-3.319 1.107-1.314.142-2.973.142-5.1.142h-.092c-2.128 0-3.787 0-5.1-.143-1.338-.144-2.409-.444-3.32-1.106a6.54 6.54 0 0 1-1.446-1.446c-.661-.91-.96-1.981-1.106-3.319-.142-1.314-.142-2.973-.142-5.1v-.092c0-2.128 0-3.786.142-5.1.145-1.338.445-2.409 1.106-3.32A6.538 6.538 0 0 1 3.537 2.59c.91-.661 1.98-.96 3.318-1.106 1.314-.142 2.973-.142 5.1-.142ZM7.019 2.995c-1.208.131-1.98.383-2.589.825-.426.31-.8.684-1.11 1.11-.442.608-.694 1.38-.825 2.59-.132 1.222-.133 2.798-.133 4.982 0 2.183 0 3.76.133 4.982.131 1.209.383 1.981.825 2.59.31.425.684.8 1.11 1.11.608.441 1.38.693 2.59.824 1.222.133 2.798.134 4.982.134 2.183 0 3.76-.001 4.982-.134 1.209-.13 1.981-.383 2.59-.825.425-.309.8-.684 1.11-1.11.441-.608.693-1.38.824-2.588.133-1.223.134-2.8.134-4.983 0-2.184-.001-3.76-.134-4.983-.13-1.208-.383-1.98-.825-2.589a5.016 5.016 0 0 0-1.11-1.11c-.608-.442-1.38-.694-2.588-.825-1.223-.132-2.8-.133-4.983-.133-2.184 0-3.76 0-4.983.133Zm5.378 4.885a3.071 3.071 0 1 1 6.143 0 3.071 3.071 0 0 1-6.143 0Zm3.071-1.552a1.551 1.551 0 1 0 0 3.103 1.551 1.551 0 0 0 0-3.103Zm-6.933-1.52c.42 0 .76.34.76.76v6.934a.76.76 0 1 1-1.52 0V5.567c0-.42.34-.76.76-.76Zm6.934 6.934c.42 0 .76.34.76.76v6.933a.76.76 0 0 1-1.52 0v-6.933c0-.42.34-.76.76-.76ZM5.463 17.123a3.071 3.071 0 1 1 6.142 0 3.071 3.071 0 0 1-6.142 0Zm3.071-1.551a1.551 1.551 0 1 0 0 3.102 1.551 1.551 0 0 0 0-3.102Z" fill="currentColor"/></symbol><symbol fill="none" viewBox="0 0 24 24" id="icon-filter-add" xmlns="http://www.w3.org/2000/svg"><path fill-rule="evenodd" clip-rule="evenodd" d="M4 5.538a2.538 2.538 0 1 1 5.077 0 2.538 2.538 0 0 1-5.077 0Zm2.538-1.153a1.154 1.154 0 1 0 0 2.307 1.154 1.154 0 0 0 0-2.307Zm4.847 1.153c0-.382.31-.692.692-.692h7.385a.692.692 0 1 1 0 1.385h-7.385a.692.692 0 0 1-.692-.693ZM15.077 12a2.538 2.538 0 1 1 5.077 0 2.538 2.538 0 0 1-5.077 0Zm2.538-1.154a1.154 1.154 0 1 0 0 2.308 1.154 1.154 0 0 0 0-2.308ZM4 12c0-.382.31-.692.692-.692h7.385a.692.692 0 1 1 0 1.384H4.692A.692.692 0 0 1 4 12Zm0 6.462a2.538 2.538 0 1 1 5.077 0 2.538 2.538 0 0 1-5.077 0Zm2.538-1.154a1.154 1.154 0 1 0 0 2.307 1.154 1.154 0 0 0 0-2.307Zm4.847 1.154c0-.383.31-.693.692-.693h7.385a.692.692 0 1 1 0 1.385h-7.385a.692.692 0 0 1-.692-.692Z" fill="currentColor"/></symbol><symbol fill="none" viewBox="0 0 24 25" id="icon-folder-cross" xmlns="http://www.w3.org/2000/svg"><path fill-rule="evenodd" clip-rule="evenodd" d="M11.835.541a1130.422 1130.422 0 0 0 .332 0c1.826 0 2.93 0 3.85.298a6.093 6.093 0 0 1 3.912 3.912c.03.09.056.181.08.273.45.352.851.765 1.188 1.229.619.852.898 1.851 1.032 3.091.132 1.216.132 2.75.132 4.711v.092c0 1.961 0 3.495-.132 4.71-.134 1.24-.413 2.24-1.032 3.092-.376.518-.83.973-1.348 1.348-.852.62-1.852.898-3.092 1.032-1.216.132-2.75.132-4.71.132h-.092c-1.961 0-3.495 0-4.711-.132-1.24-.134-2.24-.413-3.092-1.032a6.092 6.092 0 0 1-1.348-1.348c-.619-.852-.897-1.851-1.032-3.091-.131-1.216-.131-2.75-.131-4.71v-.093c0-1.96 0-3.495.131-4.71.135-1.24.413-2.24 1.032-3.092a6.094 6.094 0 0 1 1.19-1.229 4.4 4.4 0 0 1 .078-.273A6.093 6.093 0 0 1 7.984.84c.92-.298 2.024-.298 3.85-.298Zm-5.748 3.52c.38-.088.787-.15 1.222-.195 1.205-.125 2.72-.125 4.648-.125h.087c1.928 0 3.443 0 4.648.125.436.045.842.107 1.223.195a4.573 4.573 0 0 0-2.368-1.776c-.66-.215-1.502-.224-3.546-.224-2.045 0-2.887.01-3.547.224A4.573 4.573 0 0 0 6.087 4.06Zm1.38 1.317c-1.107.114-1.812.334-2.362.714l-.06.042a4.595 4.595 0 0 0-1.01 1.012c-.4.55-.631 1.251-.751 2.362-.122 1.125-.123 2.576-.123 4.593s0 3.468.123 4.593c.12 1.11.35 1.812.75 2.362.282.388.624.73 1.012 1.012.55.4 1.251.63 2.362.75 1.124.122 2.576.123 4.593.123 2.016 0 3.468-.001 4.593-.123 1.11-.12 1.812-.35 2.361-.75.389-.282.73-.624 1.012-1.012.4-.55.63-1.251.75-2.362.123-1.125.124-2.576.124-4.593s-.001-3.468-.123-4.593c-.12-1.11-.351-1.812-.75-2.362a4.573 4.573 0 0 0-1.072-1.054c-.55-.38-1.255-.6-2.36-.714C15.417 5.262 13.98 5.26 12 5.26c-1.981 0-3.417.001-4.535.117ZM9.33 11.43a.76.76 0 0 1 1.075 0l1.725 1.726 1.725-1.726a.76.76 0 1 1 1.075 1.075l-1.725 1.725 1.725 1.726a.76.76 0 1 1-1.075 1.075l-1.725-1.726-1.725 1.726a.76.76 0 1 1-1.075-1.075l1.725-1.726-1.725-1.725a.76.76 0 0 1 0-1.075Z" fill="currentColor"/></symbol><symbol fill="none" viewBox="0 0 24 24" id="icon-gears" xmlns="http://www.w3.org/2000/svg"><path fill-rule="evenodd" clip-rule="evenodd" d="M8.38 4.8v.051V4.8a1.45 1.45 0 0 1 1.115.531l.453.513a.597.597 0 0 0 .507.198l.695-.062a1.471 1.471 0 0 1 1.52.962c.073.203.1.42.08.635l-.072.69a.598.598 0 0 0 .21.472l.514.446a1.459 1.459 0 0 1 .383 1.729c-.09.192-.22.363-.383.5l-.515.45a.584.584 0 0 0-.199.501l.062.693a1.459 1.459 0 0 1-.964 1.517c-.204.072-.421.1-.637.079l-.692-.072a.629.629 0 0 0-.474.209l-.446.512a1.45 1.45 0 0 1-1.109.532l-.02.005H8.4a1.45 1.45 0 0 1-1.115-.532l-.453-.512a.587.587 0 0 0-.487-.204l-.695.062a1.47 1.47 0 0 1-1.158-.42 1.488 1.488 0 0 1-.426-1.154l.056-.713a.6.6 0 0 0-.208-.471l-.515-.447a1.458 1.458 0 0 1-.383-1.728c.09-.193.22-.363.383-.5l.515-.451a.585.585 0 0 0 .198-.5v-.001l-.061-.693a1.459 1.459 0 0 1 .964-1.516c.203-.073.421-.1.636-.08l.693.072a.604.604 0 0 0 .473-.208l.447-.513A1.45 1.45 0 0 1 8.38 4.8Zm.025.867-.004-.051-.003.051a.568.568 0 0 0-.472.212l-.001.002-.447.512a1.482 1.482 0 0 1-1.238.532l-.695-.052a.583.583 0 0 0-.612.387.589.589 0 0 0-.033.255l.057.689a1.449 1.449 0 0 1-.533 1.234l-.514.451a.586.586 0 0 0-.209.449v.002a.563.563 0 0 0 .213.47l.001.002.514.446a1.464 1.464 0 0 1 .533 1.234l-.051.693v.001a.584.584 0 0 0 .17.472.577.577 0 0 0 .473.17h.001l.683-.056.147-.052h.009a1.47 1.47 0 0 1 1.114.531l.453.514a.587.587 0 0 0 .45.207v.052l.003-.051a.568.568 0 0 0 .472-.212l.001-.002.447-.513a1.456 1.456 0 0 1 1.238-.53l.695.05a.588.588 0 0 0 .634-.637l-.056-.688a1.45 1.45 0 0 1 .532-1.234l.515-.452a.585.585 0 0 0 .208-.448v-.003a.563.563 0 0 0-.212-.47l-.002-.002-.514-.446a1.464 1.464 0 0 1-.533-1.233l.052-.693a.585.585 0 0 0-.639-.633l-.69.056a1.46 1.46 0 0 1-1.238-.53l-.451-.512a.587.587 0 0 0-.468-.174Zm-.004 2.674A1.98 1.98 0 0 0 7 8.92a1.973 1.973 0 0 0 1.4 3.373c.526 0 1.03-.208 1.402-.579a1.973 1.973 0 0 0-1.401-3.373Zm-.783 1.196a1.108 1.108 0 0 1 1.89.78A1.102 1.102 0 0 1 8.4 11.421a1.108 1.108 0 0 1-1.107-1.104c0-.292.117-.573.324-.78Zm9.408 2.081v-.098a1.186 1.186 0 0 0-.478.103c-.149.067-.28.163-.384.283l-.325.35a.39.39 0 0 1-.288.12l-.5-.048h-.002a1.204 1.204 0 0 0-.491.057 1.15 1.15 0 0 0-.419.25 1.058 1.058 0 0 0-.265.392 1.004 1.004 0 0 0-.062.461l.045.474v.001a.317.317 0 0 1-.023.158.336.336 0 0 1-.098.13l-.374.309a1.068 1.068 0 0 0-.296.363 1.007 1.007 0 0 0 0 .894c.07.14.17.264.296.364l.374.305a.352.352 0 0 1 .097.123.329.329 0 0 1 .031.148l-.04.485v.001c-.013.154.01.308.067.453a1.08 1.08 0 0 0 .674.632c.155.052.32.073.483.06l.505-.042a.38.38 0 0 1 .163.025.36.36 0 0 1 .134.092l.329.35c.104.12.235.217.384.284.149.067.312.102.478.102h.013l.016-.003c.16-.003.319-.038.464-.103a1.12 1.12 0 0 0 .384-.283l.324-.35a.41.41 0 0 1 .29-.121l.5.049c.167.015.335-.005.492-.058.157-.053.3-.138.419-.249.118-.11.209-.245.265-.393a.992.992 0 0 0 .062-.46l-.045-.475a.316.316 0 0 1 .023-.158.337.337 0 0 1 .098-.13l.374-.309c.125-.1.226-.223.296-.363a1.007 1.007 0 0 0 0-.895c-.07-.14-.17-.264-.296-.363l-.374-.305a.35.35 0 0 1-.097-.123.328.328 0 0 1-.031-.147l.052-.47v-.001a1.004 1.004 0 0 0-.062-.462 1.06 1.06 0 0 0-.265-.393 1.148 1.148 0 0 0-.419-.249 1.204 1.204 0 0 0-.491-.057l-.505.042h-.001a.388.388 0 0 1-.31-.115l-.329-.35a1.11 1.11 0 0 0-.384-.283 1.18 1.18 0 0 0-.478-.102v.098Zm.01.622.005-.098.009.098a.38.38 0 0 1 .284.099l.326.348c.114.131.26.235.427.302.167.067.348.096.53.083l.501-.038h.002a.38.38 0 0 1 .285.096.335.335 0 0 1 .084.123.317.317 0 0 1 .02.144v.001l-.037.475a1 1 0 0 0 .09.496c.072.155.182.293.322.4l.372.305.004.003a.326.326 0 0 1 .099.12.305.305 0 0 1 .03.149v.005a.34.34 0 0 1-.127.258l-.375.309c-.14.107-.25.245-.322.4a1 1 0 0 0-.089.497l.041.471v.001a.319.319 0 0 1-.102.268.363.363 0 0 1-.285.099h-.001l-.505-.035a1.193 1.193 0 0 0-.53.083 1.121 1.121 0 0 0-.427.303l-.324.35-.003.003a.361.361 0 0 1-.286.12l-.006.1v-.1a.379.379 0 0 1-.274-.119l-.33-.351a1.127 1.127 0 0 0-.384-.282 1.196 1.196 0 0 0-.477-.104h-.019l-.11.036-.487.038h-.002a.374.374 0 0 1-.288-.097l-.001-.001a.335.335 0 0 1-.085-.125.317.317 0 0 1-.019-.146l.038-.477a1.01 1.01 0 0 0-.09-.496 1.074 1.074 0 0 0-.322-.401l-.373-.305-.003-.002a.327.327 0 0 1-.1-.12.306.306 0 0 1-.029-.15v-.004a.341.341 0 0 1 .127-.258l.375-.31c.14-.107.25-.244.322-.4a.999.999 0 0 0 .089-.497l-.041-.47v-.002a.32.32 0 0 1 .02-.147.358.358 0 0 1 .217-.205.375.375 0 0 1 .156-.018l.508.036c.181.01.362-.019.528-.086a1.15 1.15 0 0 0 .428-.3l.324-.35.003-.004a.363.363 0 0 1 .286-.12Zm-1.043 2.134c.278-.26.655-.407 1.048-.407s.77.146 1.048.407.434.615.434.984-.156.722-.434.983-.655.408-1.048.408-.77-.147-1.048-.408a1.349 1.349 0 0 1-.434-.983c0-.37.156-.723.434-.984Zm1.048.268a.789.789 0 0 0-.54.21.694.694 0 0 0-.223.506c0 .19.08.372.224.506a.79.79 0 0 0 .539.21.789.789 0 0 0 .54-.21.694.694 0 0 0 .223-.506.69.69 0 0 0-.224-.506.788.788 0 0 0-.54-.21Z" fill="currentColor"/></symbol><symbol fill="none" viewBox="0 0 24 24" id="icon-icon-information" xmlns="http://www.w3.org/2000/svg"><rect x=".5" y=".5" width="23" height="23" rx="8" fill="#F5FCFD"/><rect x=".5" y=".5" width="23" height="23" rx="8" stroke="currentColor" stroke-width=".2"/><path d="M16.73 16.382c-1.515 1.514-4.727 2.824-7.334 1.213a2.165 2.165 0 0 0-.272-.156.601.601 0 0 0-.297-.045 1.653 1.653 0 0 0-.259.056c-.838.218-1.258.326-1.56.265a1.333 1.333 0 0 1-1.04-1.041c-.062-.302.047-.721.264-1.56.035-.133.052-.2.056-.259a.603.603 0 0 0-.045-.298c-.022-.055-.067-.127-.156-.27C4.47 11.684 5.72 8.531 7.3 6.952a6.667 6.667 0 0 1 9.43 9.429Z" fill="currentColor"/><path fill-rule="evenodd" clip-rule="evenodd" d="M11.848 9.667a1.083 1.083 0 1 0 0-2.167 1.083 1.083 0 0 0 0 2.167Zm-1.49 5.789a.107.107 0 0 0 .024.21h3.179a.107.107 0 0 0 .023-.21l-.29-.067a.546.546 0 0 1-.213-.074c-.029-.029-.043-.082-.043-.16v-4.662a.203.203 0 0 0-.203-.202l-2.46.307a.114.114 0 0 0-.01.225l.284.065c.106.021.174.046.202.075.036.028.054.082.054.16v4.032c0 .078-.018.131-.054.16-.028.028-.096.053-.202.074l-.29.067Z" fill="#F5FCFD"/></symbol><symbol fill="none" viewBox="0 0 24 24" id="icon-icon-pencil" xmlns="http://www.w3.org/2000/svg"><rect x=".5" y=".5" width="23" height="23" rx="8" fill="#F5FCFD"/><rect x=".5" y=".5" width="23" height="23" rx="8" stroke="currentColor" stroke-width=".2"/><rect x="5" y="5" width="14" height="14" rx="5.5" fill="currentColor"/><path d="M11.763 9.019c.68-.68 1.02-1.02 1.442-1.02.422 0 .762.34 1.442 1.02.68.68 1.02 1.02 1.02 1.442 0 .423-.34.763-1.02 1.443l-2.739 2.739c-.25.25-.376.376-.532.451-.157.075-.333.095-.685.134-1.17.13-1.754.195-2.1-.152-.348-.346-.283-.931-.153-2.1.04-.353.059-.529.134-.685.076-.157.2-.282.451-.533l2.74-2.74Z" fill="#F5FCFD"/><path fill-rule="evenodd" clip-rule="evenodd" d="m12.353 9.02 2.294 2.294c.191-.194.332-.346.435-.48.141-.186.17-.289.17-.372 0-.084-.029-.186-.17-.372-.15-.195-.38-.428-.729-.776-.348-.348-.58-.58-.775-.728-.186-.142-.289-.17-.372-.17-.084 0-.186.028-.372.17a5.449 5.449 0 0 0-.48.434Zm1.706 2.884L11.763 9.61 9.32 12.054c-.271.27-.333.34-.37.418-.038.078-.054.17-.096.55-.066.598-.11 1-.1 1.3.009.287.067.395.132.46.066.066.173.124.461.133.299.01.702-.034 1.3-.1.38-.043.472-.058.55-.096.078-.037.147-.1.418-.37l2.445-2.445Zm-1.73-3.98c.26-.199.538-.341.877-.341.339 0 .617.142.877.34.245.187.517.459.84.782l.04.04c.323.323.594.594.781.84.199.26.34.538.34.877 0 .339-.141.617-.34.877-.187.245-.458.517-.781.84l-2.76 2.76-.038.038c-.213.213-.386.386-.608.493-.222.107-.466.134-.765.167l-.054.006-.032.003c-.558.062-1.021.114-1.387.102-.384-.012-.742-.096-1.023-.376-.28-.281-.364-.64-.376-1.024-.012-.365.04-.829.101-1.386l.004-.032.006-.054c.033-.3.06-.543.166-.765.107-.222.28-.396.494-.608l.038-.039 2.76-2.76c.323-.322.594-.594.84-.78Z" fill="currentColor"/></symbol><symbol fill="none" viewBox="0 0 24 24" id="icon-icon-quotes" xmlns="http://www.w3.org/2000/svg"><rect x=".5" y=".5" width="23" height="23" rx="8" fill="#F5FCFD"/><rect x=".5" y=".5" width="23" height="23" rx="8" stroke="currentColor" stroke-width=".2"/><path d="M16.83 13.54c0 .798-.199 1.463-.597 1.995-.399.532-.917.798-1.555.798-.782 0-1.427-.368-1.938-1.105-.494-.757-.741-1.658-.741-2.702 0-1.514.438-2.814 1.315-3.899S15.252 7 16.496 7l.048.43c-.766 0-1.468.348-2.105 1.044-.638.696-.957 1.494-.957 2.394 0 .205.016.359.048.46.048.103.111.155.191.155.112 0 .28-.062.502-.185.24-.143.439-.215.598-.215.527 0 .989.236 1.388.707.414.45.622 1.033.622 1.75Zm-5.453 0c0 .798-.2 1.463-.598 1.995-.399.532-.917.798-1.555.798-.781 0-1.427-.368-1.938-1.105-.494-.757-.741-1.658-.741-2.702 0-1.514.438-2.814 1.316-3.899C8.738 7.542 9.798 7 11.04 7l.049.43c-.766 0-1.467.348-2.105 1.044-.638.696-.957 1.494-.957 2.394 0 .205.016.359.048.46.048.103.111.155.191.155.112 0 .28-.062.503-.185.239-.143.438-.215.598-.215.526 0 .988.236 1.387.707.414.45.622 1.033.622 1.75Z" fill="currentColor"/></symbol><symbol fill="none" viewBox="0 0 24 24" id="icon-linkedin" xmlns="http://www.w3.org/2000/svg"><path d="M7.59 6.448a.6.6 0 0 0 0-.025c-.023-.529-.189-1.011-.527-1.403-.368-.425-.87-.62-1.433-.62-.61 0-1.17.167-1.6.569-.423.393-.63.902-.63 1.48 0 .55.183 1.048.563 1.448.399.42.925.608 1.512.608h.016c.593 0 1.128-.184 1.532-.607.381-.4.567-.897.567-1.45Zm-3.414 3.987a.6.6 0 0 0-.6.6v8.435a.6.6 0 0 0 .6.6h2.857a.6.6 0 0 0 .6-.6v-8.435a.6.6 0 0 0-.6-.6H4.176Zm15.172 9.635a.6.6 0 0 0 .6-.6v-4.836c0-.697-.088-1.329-.283-1.88a3.976 3.976 0 0 0-.816-1.392 3.267 3.267 0 0 0-1.28-.858 4.346 4.346 0 0 0-1.512-.261c-.42 0-.812.05-1.17.163h-.004a3.51 3.51 0 0 0-.856.396.6.6 0 0 0-.553-.367H10.6a.6.6 0 0 0-.6.608l.008.586v.002l.011 1.057v2.859L10 19.468a.6.6 0 0 0 .6.603h2.875a.6.6 0 0 0 .6-.6v-4.716c0-.114.005-.216.013-.305a.702.702 0 0 1 .03-.156 1.32 1.32 0 0 1 .357-.472l.002-.002c.103-.092.268-.167.56-.167.383 0 .53.115.613.243.143.224.241.56.241 1.06v4.514a.6.6 0 0 0 .6.6h2.858Z" stroke="currentColor" stroke-width="1.2" stroke-linejoin="round"/></symbol><symbol fill="none" viewBox="0 0 24 24" id="icon-location" xmlns="http://www.w3.org/2000/svg"><path fill-rule="evenodd" clip-rule="evenodd" d="M12.24 5.736c-2.5 0-4.584 2.192-4.584 4.968 0 .777.405 1.814 1.04 2.936.624 1.103 1.43 2.221 2.151 3.14.39.497.647.823.879 1.033.211.192.355.245.514.245.16 0 .303-.053.515-.245.23-.21.489-.536.878-1.033.72-.919 1.528-2.037 2.152-3.14.634-1.122 1.04-2.16 1.04-2.936 0-2.776-2.084-4.968-4.585-4.968Zm-5.496 4.968c0-3.215 2.43-5.88 5.496-5.88 3.066 0 5.496 2.665 5.496 5.88 0 1.029-.511 2.243-1.157 3.385-.656 1.16-1.494 2.317-2.228 3.254l-.024.03c-.36.458-.664.847-.96 1.115-.32.292-.673.482-1.127.482-.454 0-.806-.19-1.128-.482-.295-.268-.6-.657-.959-1.115l-.024-.03c-.734-.937-1.571-2.095-2.227-3.254-.646-1.142-1.158-2.356-1.158-3.385Zm7.672-1.369a.456.456 0 0 1 .07.641l-1.294 1.606c-.236.291-.442.548-.633.727-.206.191-.459.357-.791.357-.333 0-.586-.166-.791-.357-.192-.18-.398-.435-.633-.727l-.349-.433a.456.456 0 0 1 .71-.572l.329.408c.26.324.427.528.565.657a.634.634 0 0 0 .133.102c.021.01.03.01.036.01.006 0 .014 0 .035-.01a.612.612 0 0 0 .133-.102c.139-.13.304-.333.566-.657l1.273-1.58a.456.456 0 0 1 .641-.07Z" fill="currentColor"/></symbol><symbol fill="none" viewBox="0 0 25 25" id="icon-lock-add" xmlns="http://www.w3.org/2000/svg"><path fill-rule="evenodd" clip-rule="evenodd" d="M6.718 7.626C6.718 4.519 9.28 2 12.442 2c3.162 0 5.725 2.519 5.725 5.626v.494l.012.004a5.676 5.676 0 0 1 3.675 3.612c.281.85.28 1.867.28 3.527v.323c0 1.66.001 2.678-.28 3.527a5.676 5.676 0 0 1-3.675 3.612c-.864.275-1.9.275-3.589.275h-4.295c-1.69 0-2.726 0-3.59-.275a5.676 5.676 0 0 1-3.675-3.613c-.28-.848-.28-1.866-.28-3.526a850.292 850.292 0 0 0 0-.323c0-1.66 0-2.678.28-3.527a5.676 5.676 0 0 1 3.676-3.612l.012-.004v-.494Zm1.53.254c.576-.031 1.266-.031 2.125-.031h4.138c.86 0 1.55 0 2.126.03v-.253c0-2.277-1.878-4.122-4.195-4.122-2.316 0-4.194 1.845-4.194 4.122v.254Zm2.21 1.473c-1.46 0-2.258.002-2.848.1-.163.027-.303.06-.431.102A4.159 4.159 0 0 0 4.486 12.2c-.196.592-.206 1.35-.206 3.223 0 1.873.01 2.631.206 3.224a4.159 4.159 0 0 0 2.693 2.646c.602.193 1.374.202 3.28.202h3.967c1.906 0 2.677-.01 3.28-.202a4.159 4.159 0 0 0 2.693-2.646c.196-.593.205-1.35.205-3.224 0-1.872-.01-2.63-.205-3.223a4.159 4.159 0 0 0-2.693-2.646 3.043 3.043 0 0 0-.431-.102c-.59-.098-1.388-.1-2.849-.1H10.46Zm-.765 4.122c0-1.492 1.231-2.702 2.75-2.702 1.518 0 2.748 1.21 2.748 2.702 0 1.23-.838 2.27-1.984 2.595v3.254a.759.759 0 0 1-.765.752.759.759 0 0 1-.765-.752V16.07c-1.146-.325-1.984-1.364-1.984-2.595Zm2.75-1.198c-.674 0-1.22.536-1.22 1.198 0 .661.546 1.197 1.22 1.197.672 0 1.218-.536 1.218-1.197 0-.662-.546-1.198-1.219-1.198Z" fill="currentColor"/></symbol><symbol fill="none" viewBox="0 0 24 24" id="icon-lock-big" xmlns="http://www.w3.org/2000/svg"><path fill-rule="evenodd" clip-rule="evenodd" d="M5.832 6.8c0-3.313 2.734-6 6.106-6s6.106 2.687 6.106 6v.528l.013.004a6.055 6.055 0 0 1 3.92 3.853c.3.906.3 1.992.3 3.762v.344c0 1.77 0 2.857-.3 3.762a6.054 6.054 0 0 1-3.92 3.853c-.921.294-2.026.294-3.828.294H9.647c-1.802 0-2.907 0-3.828-.294a6.055 6.055 0 0 1-3.92-3.853c-.3-.905-.3-1.991-.3-3.762a968.028 968.028 0 0 0 0-.344c0-1.77 0-2.856.3-3.762a6.055 6.055 0 0 1 3.933-3.857v-.527Zm1.632.272c.615-.034 1.35-.034 2.267-.033h4.414c.917 0 1.652 0 2.267.033V6.8c0-2.428-2.003-4.397-4.474-4.397-2.47 0-4.474 1.969-4.474 4.397v.27Zm2.358 1.57c-1.558 0-2.409.004-3.038.108a3.24 3.24 0 0 0-.46.108 4.436 4.436 0 0 0-2.873 2.823c-.209.632-.219 1.44-.219 3.438 0 1.998.01 2.807.219 3.438a4.436 4.436 0 0 0 2.872 2.823c.643.206 1.466.216 3.499.216h4.232c2.033 0 2.856-.01 3.499-.216a4.436 4.436 0 0 0 2.872-2.823c.209-.631.22-1.44.22-3.438 0-1.998-.011-2.806-.22-3.438a4.436 4.436 0 0 0-2.872-2.823 3.238 3.238 0 0 0-.46-.108c-.63-.104-1.48-.107-3.039-.107H9.822Zm-.816 4.398c0-1.592 1.313-2.882 2.932-2.882 1.62 0 2.932 1.29 2.932 2.882 0 1.313-.893 2.42-2.116 2.768v3.47a.81.81 0 0 1-.816.802.81.81 0 0 1-.816-.802v-3.47c-1.222-.347-2.116-1.455-2.116-2.768Zm2.932-1.278c-.718 0-1.3.572-1.3 1.278 0 .705.582 1.277 1.3 1.277.718 0 1.3-.572 1.3-1.277 0-.706-.582-1.278-1.3-1.278Z" fill="currentColor"/></symbol><symbol fill="none" viewBox="0 0 24 24" id="icon-menu" xmlns="http://www.w3.org/2000/svg"><rect x=".5" y=".5" width="23" height="23" rx="5.5" stroke="currentColor"/><path fill-rule="evenodd" clip-rule="evenodd" d="M6 9.7a.7.7 0 0 1 .7-.7h12a.7.7 0 1 1 0 1.4h-12a.7.7 0 0 1-.7-.7Zm0 5a.7.7 0 0 1 .7-.7h7a.7.7 0 1 1 0 1.4h-7a.7.7 0 0 1-.7-.7Z" fill="currentColor"/></symbol><symbol fill="none" viewBox="0 0 24 24" id="icon-opened_eye" xmlns="http://www.w3.org/2000/svg"><path fill-rule="evenodd" clip-rule="evenodd" d="M12.15 10.217a2.226 2.226 0 1 0 0 4.452 2.226 2.226 0 0 0 0-4.452Zm-3.527 2.226a3.526 3.526 0 1 1 7.052 0 3.526 3.526 0 0 1-7.052 0Z" fill="currentColor"/><path fill-rule="evenodd" clip-rule="evenodd" d="M6.725 7.248a11.761 11.761 0 0 1 14.876 3.722l.262.37a2.184 2.184 0 0 1-.006 2.63 11.76 11.76 0 0 1-19.347-.318l-.005-.007-.107-.166a2.184 2.184 0 0 1 .059-2.593l.055-.078a11.762 11.762 0 0 1 4.213-3.56Zm5.362.052a10.461 10.461 0 0 0-8.523 4.272l-.054.076a.884.884 0 0 0-.029 1.112l.113.174a10.461 10.461 0 0 0 17.21.272l.009-.01.005-.007a.884.884 0 0 0-.01-1.089l-.268-.379a10.464 10.464 0 0 0-8.453-4.42Z" fill="currentColor"/></symbol><symbol fill="none" viewBox="0 0 24 24" id="icon-pre-Instal" xmlns="http://www.w3.org/2000/svg"><path fill-rule="evenodd" clip-rule="evenodd" d="M12.216 5.28c.252 0 .456.204.456.456v8.645l.063-.061c.22-.22.48-.548.858-1.025l.932-1.175a.456.456 0 0 1 .715.566l-.95 1.198c-.356.45-.648.818-.91 1.08-.266.268-.557.484-.925.543a1.518 1.518 0 0 1-.478 0c-.369-.059-.66-.275-.926-.543-.261-.262-.553-.63-.91-1.08l-.95-1.198a.456.456 0 1 1 .715-.566l.932 1.175c.379.477.639.804.859 1.025l.063.061V5.736c0-.252.204-.456.456-.456Zm-5.06 5.425a.456.456 0 0 1 .09.639 2.862 2.862 0 0 0-.574 1.726v.666c0 .637.001.902.035 1.117A2.877 2.877 0 0 0 9.1 17.245c.215.034.48.035 1.117.035h4c.636 0 .902-.001 1.117-.035a2.877 2.877 0 0 0 2.391-2.392c.034-.215.036-.48.036-1.117v-.666a2.86 2.86 0 0 0-.575-1.726.456.456 0 0 1 .729-.548c.476.633.758 1.421.758 2.274v.716c0 .572 0 .915-.047 1.21a3.79 3.79 0 0 1-3.15 3.15c-.295.046-.637.046-1.209.046h-4.1c-.572 0-.915 0-1.21-.046a3.79 3.79 0 0 1-3.15-3.15c-.046-.295-.046-.638-.046-1.21v-.716c0-.853.282-1.64.758-2.274a.456.456 0 0 1 .638-.091Z" fill="currentColor"/></symbol><symbol fill="none" viewBox="0 0 24 24" id="icon-premium-plus" xmlns="http://www.w3.org/2000/svg"><path fill-rule="evenodd" clip-rule="evenodd" d="M14.517 5.381c-1.005-1.841-3.649-1.841-4.653 0l-.905 1.66a1.35 1.35 0 0 1-.937.68l-1.857.348c-2.062.386-2.88 2.9-1.438 4.425l1.298 1.373c.279.295.41.7.358 1.101l-.243 1.875c-.27 2.08 1.87 3.634 3.764 2.735l1.707-.81a1.35 1.35 0 0 1 1.158 0l1.707.81c1.896.9 4.035-.655 3.765-2.735l-.243-1.874a1.35 1.35 0 0 1 .357-1.102l1.299-1.373c1.44-1.524.624-4.04-1.438-4.425l-1.858-.348a1.35 1.35 0 0 1-.936-.68l-.905-1.66Zm-3.512.623a1.35 1.35 0 0 1 2.37 0l.905 1.659a2.65 2.65 0 0 0 1.84 1.336l1.857.348a1.35 1.35 0 0 1 .732 2.254l-1.298 1.373a2.65 2.65 0 0 0-.703 2.162l.244 1.874a1.35 1.35 0 0 1-1.918 1.393l-1.707-.81a2.65 2.65 0 0 0-2.273 0l-1.707.81a1.35 1.35 0 0 1-1.918-1.393l.243-1.874a2.65 2.65 0 0 0-.702-2.162l-1.3-1.373a1.35 1.35 0 0 1 .733-2.254l1.857-.348a2.65 2.65 0 0 0 1.84-1.336l.904-1.66Zm4.44 5.469a.65.65 0 1 0-.891-.946l-2.496 2.353a.35.35 0 0 1-.48 0l-1.133-1.067a.65.65 0 1 0-.891.946l1.132 1.067c.636.6 1.628.6 2.264 0l2.495-2.353Z" fill="currentColor"/></symbol><symbol fill="none" viewBox="0 0 24 24" id="icon-professional" xmlns="http://www.w3.org/2000/svg"><path fill-rule="evenodd" clip-rule="evenodd" d="M9.251 7.455a2.805 2.805 0 1 1 5.61 0 2.805 2.805 0 0 1-5.61 0Zm2.806-4.105a4.105 4.105 0 1 0 0 8.21 4.105 4.105 0 0 0 0-8.21Zm-1.523 9.271c-2.413 0-4.005 1.02-4.962 2.507-.93 1.445-1.222 3.27-1.222 4.872 0 .359.29.65.65.65h14.085a.65.65 0 0 0 .65-.65c0-1.57-.23-3.398-1.13-4.852-.934-1.507-2.536-2.527-5.054-2.527h-.346a.65.65 0 0 0-.648.706l.246 2.864-.725.638-.83-.653.323-2.83a.65.65 0 0 0-.645-.725h-.392Zm7.886 6.729H5.668c.072-1.27.366-2.537.997-3.519.67-1.041 1.752-1.815 3.531-1.902l-.28 2.46a.65.65 0 0 0 .243.584l1.54 1.213a.65.65 0 0 0 .832-.023l1.377-1.213a.65.65 0 0 0 .218-.543l-.212-2.477c1.877.089 2.947.873 3.585 1.902.607.98.86 2.245.921 3.518Z" fill="currentColor"/></symbol><symbol fill="none" viewBox="0 0 24 24" id="icon-roadmap" xmlns="http://www.w3.org/2000/svg"><path fill-rule="evenodd" clip-rule="evenodd" d="M15.087 5.241H9.55V3.938h5.538a3.975 3.975 0 0 1 0 7.95H9.364a2.856 2.856 0 0 0 0 5.712h9.046v1.303H9.364a4.16 4.16 0 0 1 0-8.318h5.723a2.672 2.672 0 0 0 0-5.344Z" fill="currentColor"/><path fill-rule="evenodd" clip-rule="evenodd" d="M17.834 18.276a.034.034 0 0 0 0-.048l-3.208-3.208a.651.651 0 0 1 .922-.921l3.207 3.207a1.337 1.337 0 0 1 0 1.891l-3.207 3.208a.651.651 0 0 1-.922-.921l3.208-3.208Zm-10.5-14.88a1.195 1.195 0 1 0 0 2.39 1.195 1.195 0 0 0 0-2.39ZM4.836 4.59a2.498 2.498 0 1 1 4.995 0 2.498 2.498 0 0 1-4.995 0Z" fill="currentColor"/></symbol><symbol fill="none" viewBox="0 0 24 24" id="icon-scan" xmlns="http://www.w3.org/2000/svg"><path fill-rule="evenodd" clip-rule="evenodd" d="M14 2.75a.75.75 0 0 1 .75-.75h1a5.75 5.75 0 0 1 5.75 5.75v1a.75.75 0 0 1-1.5 0v-1a4.25 4.25 0 0 0-4.25-4.25h-1a.75.75 0 0 1-.75-.75Zm-12 5A5.75 5.75 0 0 1 7.75 2h1a.75.75 0 0 1 0 1.5h-1A4.25 4.25 0 0 0 3.5 7.75v1a.75.75 0 0 1-1.5 0v-1Zm5 4a4.75 4.75 0 1 1 9.5 0 4.75 4.75 0 0 1-9.5 0Zm4.75-3.25a3.25 3.25 0 1 0 0 6.5 3.25 3.25 0 0 0 0-6.5Zm-9 5.5a.75.75 0 0 1 .75.75v1A4.25 4.25 0 0 0 7.75 20h1a.75.75 0 0 1 0 1.5h-1A5.75 5.75 0 0 1 2 15.75v-1a.75.75 0 0 1 .75-.75Zm18 0a.75.75 0 0 1 .75.75v1a5.75 5.75 0 0 1-5.75 5.75h-1a.75.75 0 0 1 0-1.5h1A4.25 4.25 0 0 0 20 15.75v-1a.75.75 0 0 1 .75-.75Z" fill="currentColor"/></symbol><symbol fill="none" viewBox="0 0 24 24" id="icon-shield" xmlns="http://www.w3.org/2000/svg"><path fill-rule="evenodd" clip-rule="evenodd" d="M6.499 3.792A2.792 2.792 0 0 1 9.29 1h5.166a2.5 2.5 0 0 1 2.5 2.5 1 1 0 0 0 1 1h.59c1.585 0 2.979 1.23 2.914 2.916-.083 2.16-.503 5.627-2.186 8.695-.456.831-1.066 1.648-1.724 2.41l-.05.057c-.948 1.095-1.738 2.008-2.587 2.63-.914.67-1.89 1.003-3.186 1.003s-2.27-.334-3.185-1.003c-.85-.622-1.64-1.535-2.587-2.63l-.05-.058c-.658-.76-1.268-1.578-1.724-2.41-1.63-2.968-2.076-6.102-2.177-8.114-.086-1.693 1.318-2.913 2.894-2.913h.309c.713 0 1.292-.578 1.292-1.291ZM9.29 2.5A1.29 1.29 0 0 0 8 3.792a2.792 2.792 0 0 1-2.792 2.791h-.309c-.84 0-1.433.618-1.396 1.338.095 1.89.516 4.774 1.994 7.468.389.709.928 1.438 1.544 2.15 1.01 1.167 1.692 1.948 2.389 2.459.647.474 1.31.713 2.298.713.99 0 1.652-.239 2.3-.713.696-.51 1.378-1.292 2.388-2.46.617-.711 1.155-1.44 1.544-2.149 1.52-2.77 1.923-5.966 2.002-8.03C19.989 6.622 19.383 6 18.546 6h-.59a2.5 2.5 0 0 1-2.5-2.5 1 1 0 0 0-1-1H9.29Zm5.908 6.666a.75.75 0 0 1 .114 1.055l-2.055 2.549c-.372.462-.7.87-1.006 1.155-.328.307-.736.575-1.274.575-.537 0-.945-.268-1.273-.575-.305-.285-.634-.693-1.006-1.155l-.555-.688a.75.75 0 1 1 1.168-.941l.522.647c.415.515.677.838.895 1.041a.952.952 0 0 0 .205.157c.028.014.038.014.044.014h.001c.006 0 .016 0 .044-.014a.95.95 0 0 0 .205-.157c.218-.204.48-.526.895-1.04l2.021-2.51a.75.75 0 0 1 1.055-.113Z" fill="currentColor"/></symbol><symbol fill="none" viewBox="0 0 25 25" id="icon-shield-new" xmlns="http://www.w3.org/2000/svg"><path fill-rule="evenodd" clip-rule="evenodd" d="M7.238 4.395A2.732 2.732 0 0 1 9.97 1.663h5.11a2.444 2.444 0 0 1 2.445 2.444c0 .563.456 1.019 1.018 1.019h.584c1.553 0 2.916 1.205 2.853 2.853-.082 2.137-.497 5.56-2.159 8.59-.45.82-1.051 1.626-1.702 2.378l-.048.055c-.939 1.085-1.719 1.986-2.556 2.6-.899.658-1.857.986-3.134.986-1.276 0-2.235-.328-3.134-.986-.837-.614-1.617-1.515-2.556-2.6l-.047-.055c-.651-.752-1.253-1.558-1.703-2.378-1.609-2.932-2.05-6.028-2.15-8.015-.084-1.657 1.29-2.851 2.834-2.851h.305c.722 0 1.308-.586 1.308-1.308ZM9.97 3.088c-.722 0-1.307.585-1.307 1.307A2.732 2.732 0 0 1 5.93 7.128h-.305c-.846 0-1.448.623-1.411 1.354.094 1.873.51 4.73 1.976 7.401.387.704.92 1.427 1.531 2.132.999 1.153 1.676 1.93 2.369 2.437.646.473 1.307.711 2.291.711.985 0 1.646-.238 2.292-.71.693-.508 1.37-1.285 2.368-2.438.61-.705 1.145-1.428 1.53-2.132 1.508-2.747 1.907-5.913 1.985-7.958.029-.746-.586-1.374-1.43-1.374h-.583A2.444 2.444 0 0 1 16.1 4.107a1.02 1.02 0 0 0-1.02-1.019H9.97Zm5.254 6.818a.713.713 0 0 1 0 1.008l-1.595 1.595 1.595 1.595a.713.713 0 0 1-1.008 1.007l-1.595-1.595-1.595 1.595a.712.712 0 1 1-1.007-1.007l1.595-1.595-1.595-1.595a.712.712 0 1 1 1.007-1.008l1.595 1.595 1.595-1.595a.712.712 0 0 1 1.008 0Z" fill="currentColor"/></symbol><symbol fill="none" viewBox="0 0 24 24" id="icon-stopwatch" xmlns="http://www.w3.org/2000/svg"><path fill-rule="evenodd" clip-rule="evenodd" d="M15.496 1.554a.782.782 0 0 0 .787-.777.782.782 0 0 0-.787-.777H8.505a.782.782 0 0 0-.786.777c0 .43.352.777.786.777h2.715a.77.77 0 0 0-.005.086v1.697C5.832 3.737 1.6 8.208 1.6 13.654 1.6 19.362 6.25 24 12 24c3.434 0 6.477-1.656 8.37-4.202a.77.77 0 0 0-.169-1.086.793.793 0 0 0-1.1.166 8.826 8.826 0 0 1-7.1 3.568c-4.87 0-8.828-3.93-8.828-8.792S7.13 4.862 12 4.862c2.09 0 4.01.722 5.522 1.932a.793.793 0 0 0 1.229-.323.781.781 0 0 0 .085-.087l.783-.928.54.43a.793.793 0 0 0 1.106-.118.77.77 0 0 0-.119-1.092l-2.403-1.914a.793.793 0 0 0-1.107.117.77.77 0 0 0 .12 1.093l.638.509-.53.627a10.382 10.382 0 0 0-5.078-1.771V1.64a.77.77 0 0 0-.005-.086h2.714Zm4.896 5.986a.793.793 0 0 0-1.1-.17.77.77 0 0 0-.172 1.085 8.803 8.803 0 0 1 .794 1.298.791.791 0 0 0 1.053.354c.39-.19.55-.655.359-1.04a10.322 10.322 0 0 0-.934-1.527Zm-7.605 2.286A.782.782 0 0 0 12 9.05a.782.782 0 0 0-.786.777v2.833c0 .455 0 .852.033 1.182.035.356.113.696.304 1.025.192.329.45.566.744.775.273.195.62.394 1.018.623l.79.454a.792.792 0 0 0 1.075-.281.772.772 0 0 0-.284-1.062l-.76-.437c-.437-.251-.716-.413-.919-.557-.188-.135-.258-.219-.3-.29-.041-.07-.08-.173-.102-.402-.025-.245-.026-.565-.026-1.064v-2.8Zm9.367 1.575a.787.787 0 0 0-.938-.591.777.777 0 0 0-.598.926c.125.562.197 1.145.209 1.744.008.43.367.77.801.762a.781.781 0 0 0 .771-.792 10.309 10.309 0 0 0-.245-2.049Zm.014 4.442a.777.777 0 0 0-.605-.922.787.787 0 0 0-.933.597 8.693 8.693 0 0 1-.42 1.377c-.16.4.039.85.443 1.008a.79.79 0 0 0 1.02-.439c.208-.52.374-1.063.495-1.621Z" fill="currentColor"/></symbol><symbol fill="none" viewBox="0 0 24 24" id="icon-tag" xmlns="http://www.w3.org/2000/svg"><path fill-rule="evenodd" clip-rule="evenodd" d="M14.77 4.3c-.588-.011-1.29.201-2.999.74-.662.208-.929.294-1.17.412a3.75 3.75 0 0 0-1.323 1.077c-.163.212-.302.456-.64 1.062l-2.06 3.686c-.77 1.378-1.078 1.945-1.192 2.465a3.749 3.749 0 0 0 .926 3.36c.364.39.919.718 2.286 1.507 1.367.79 1.93 1.106 2.448 1.227 1.2.279 2.461-.05 3.373-.879.394-.358.73-.909 1.538-2.265l2.163-3.627c.355-.596.498-.838.6-1.085a3.75 3.75 0 0 0 .27-1.685c-.018-.267-.077-.541-.227-1.219-.388-1.748-.555-2.463-.86-2.966A3.75 3.75 0 0 0 14.77 4.3Zm-3.246-.546c1.519-.479 2.442-.77 3.271-.753a5.049 5.049 0 0 1 4.222 2.437c.429.71.638 1.655.982 3.21l.033.147.012.053c.135.608.218.982.244 1.356a5.052 5.052 0 0 1-.366 2.27c-.142.347-.338.675-.658 1.21l-2.19 3.674-.067.113c-.72 1.207-1.158 1.942-1.713 2.448a5.05 5.05 0 0 1-4.543 1.183c-.731-.17-1.472-.598-2.69-1.301l-.113-.066a88.912 88.912 0 0 0-.114-.066c-1.217-.702-1.958-1.13-2.471-1.678a5.049 5.049 0 0 1-1.247-4.526c.16-.734.577-1.48 1.263-2.707l.064-.115 2.06-3.687c.01-.015.018-.031.026-.047.305-.544.491-.878.72-1.175a5.049 5.049 0 0 1 1.783-1.451c.338-.165.702-.28 1.297-.467l.051-.016.144-.046Z" fill="currentColor"/><path fill-rule="evenodd" clip-rule="evenodd" d="M12.729 11.218a2.18 2.18 0 1 1 2.18-3.775 2.18 2.18 0 0 1-2.18 3.775Zm.65-1.126a.88.88 0 1 1 .88-1.523.88.88 0 0 1-.88 1.523Z" fill="currentColor"/></symbol><symbol fill="none" viewBox="0 0 24 24" id="icon-twitter" xmlns="http://www.w3.org/2000/svg"><path d="M6.538 6.21c1.342 1.53 2.966 2.337 4.945 2.733.007-.243.036-.485.089-.723l.003-.015a3.65 3.65 0 0 1 .71-1.423 3.776 3.776 0 0 1 1.18-.965c.459-.24.963-.382 1.48-.415a3.54 3.54 0 0 1 1.563.251l.001.001c.36.147.694.35.99.601.434-.14.861-.3 1.28-.481a.692.692 0 0 1 .916.904 4.68 4.68 0 0 1-.056.136.611.611 0 0 1 .487.453c.017.065.019.12.02.132v.042a.97.97 0 0 1-.195.598 6.33 6.33 0 0 1-1.222 1.284c-.04 2.419-.696 4.904-2.543 6.734-2.409 2.392-5.984 3.019-9.128 2.151h-.001a8.738 8.738 0 0 1-1.775-.711l-.004-.002c-.183-.1-.37-.208-.558-.332a.603.603 0 0 1-.065-.05h-.001c-.014-.012-.104-.088-.167-.194a.63.63 0 0 1 .227-.877.716.716 0 0 1 .363-.094c.073 0 .15.01.207.018a5.208 5.208 0 0 0 2.202-.285l.004-.002.078-.027c.092-.031.193-.067.299-.105a3.48 3.48 0 0 1-1.804-2.004.692.692 0 0 1 .05-.622 3.674 3.674 0 0 1-1.143-2.21 2.253 2.253 0 0 1-.023-.489.77.77 0 0 1 .055-.227.659.659 0 0 1 .315-.337 3.995 3.995 0 0 1-.33-1.054c-.128-.772-.035-1.63.423-2.327a.602.602 0 0 1 .014-.022l.003-.003a.702.702 0 0 1 .568-.308c.175 0 .308.069.384.122a.863.863 0 0 1 .159.144Zm0 0-.456.399m.527 7.213h.004" stroke="currentColor" stroke-width="1.212" stroke-linejoin="round"/></symbol><symbol fill="none" viewBox="0 0 24 24" id="icon-youtube" xmlns="http://www.w3.org/2000/svg"><path d="m12.07 6-.002-.6m.002.6v-.6m0 .6v-.6m-.002 0h-.058l-.164.002a92.563 92.563 0 0 0-2.476.05c-.714.024-1.472.06-2.135.114-.644.052-1.252.125-1.632.235-.916.266-1.608 1.023-1.844 1.96a.602.602 0 0 0-.011.053c-.385 2.42-.543 6.143.019 8.542l.002.01c.237.938.928 1.695 1.844 1.96.38.112.99.183 1.633.234.663.053 1.422.088 2.135.11a92.425 92.425 0 0 0 2.477.046h.222M12.068 5.4h.002m.01 13.317v-.6m0 .6h.058l.164-.001a96.992 96.992 0 0 0 2.477-.045 47.318 47.318 0 0 0 2.135-.11c.644-.052 1.252-.123 1.633-.234.916-.266 1.607-1.023 1.844-1.96a.606.606 0 0 0 .01-.049c.407-2.43.54-6.15-.017-8.556l-.003-.011c-.237-.938-.928-1.695-1.844-1.96-.38-.112-.99-.183-1.634-.234a47.437 47.437 0 0 0-2.134-.11 93.096 93.096 0 0 0-2.477-.046h-.222m2.444 6.837-3.137 1.854a.208.208 0 0 1-.313-.18v-3.707c0-.161.175-.26.313-.179l3.137 1.854a.208.208 0 0 1 0 .358Z" stroke="currentColor" stroke-width="1.2" stroke-linejoin="round"/></symbol></svg>