<svg width="14" height="14" viewBox="0 0 14 14" fill="none" xmlns="http://www.w3.org/2000/svg">
<path d="M6.99998 8.59131L2.19563 13.3957C1.98439 13.6069 1.71918 13.7125 1.39998 13.7125C1.08078 13.7125 0.815559 13.6069 0.604326 13.3957C0.393092 13.1844 0.287476 12.9192 0.287476 12.6C0.287476 12.2808 0.393092 12.0156 0.604326 11.8044L5.40868 7.00001L0.604326 2.19566C0.393092 1.98442 0.287476 1.71921 0.287476 1.40001C0.287476 1.08081 0.393092 0.81559 0.604326 0.604356C0.815559 0.393123 1.08078 0.287506 1.39998 0.287506C1.71918 0.287506 1.98439 0.393123 2.19563 0.604356L6.99998 5.40871L11.8043 0.604356C12.0156 0.393123 12.2808 0.287506 12.6 0.287506C12.9192 0.287506 13.1844 0.393123 13.3956 0.604356C13.6069 0.81559 13.7125 1.08081 13.7125 1.40001C13.7125 1.71921 13.6069 1.98442 13.3956 2.19566L8.59128 7.00001L13.3956 11.8044C13.6069 12.0156 13.7125 12.2808 13.7125 12.6C13.7125 12.9192 13.6069 13.1844 13.3956 13.3957C13.1844 13.6069 12.9192 13.7125 12.6 13.7125C12.2808 13.7125 12.0156 13.6069 11.8043 13.3957L6.99998 8.59131Z" fill="#080707"/>
</svg>
