<svg fill="none" height="16" viewBox="0 0 16 16" width="16" xmlns="http://www.w3.org/2000/svg"><path d="m8.00005 14.7903-.67901-2.0401h-4.75317c-.37345 0-.69316-.1332-.95911-.3995-.26595-.2664-.39892-.5862-.39892-.9594v-8.82231c0-.37326.13299-.6931.39898-.95952s.58574-.39963.95925-.39963h4.07474l.59423 2.03985h6.19706c.3961 0 .7212.12729.9752.38188.254.25458.381.57988.381.9759v8.82553c0 .3733-.1273.6928-.382.9586-.2546.2658-.58.3987-.9761.3987zm-3.29346-5.02503c.78284 0 1.42547-.25253 1.92788-.7576.50242-.50508.75363-1.1587.75363-1.96088 0-.08889-.00277-.16944-.00833-.24167-.00555-.07222-.01964-.14855-.04226-.22898h-2.68057v1.04928h1.51123c-.0909.31741-.26416.56398-.5198.73969s-.56425.26356-.92583.26356c-.44068 0-.81921-.15862-1.13558-.47586-.31639-.31725-.47459-.70814-.47459-1.17269 0-.46352.15844-.85374.4753-1.17065s.69596-.47536 1.1373-.47536c.2037 0 .39608.03678.57713.11036.18107.07357.34516.18392.49227.33105l.83177-.79793c-.23821-.24826-.52464-.44009-.85928-.5755s-.68794-.20312-1.05992-.20312c-.76039 0-1.40912.2692-1.9462.8076-.53708.53841-.80562 1.19626-.80562 1.97355 0 .7773.26854 1.43582.80562 1.97555.53708.53974 1.18569.8096 1.94585.8096zm4.54673.33733.37862-.35399c-.15821-.19155-.3032-.37754-.43497-.55797-.13175-.18043-.25874-.37331-.38097-.57863zm.84928-.86594c.3164-.37199.5578-.72731.7243-1.06595.1664-.33865.2774-.60507.3329-.79927h-2.70178l.20368.71195h.67894c.08889.17198.1951.35585.31865.55163.12355.19577.27132.39631.44331.60164zm-1.42393 4.87504h4.75433c.2053 0 .3698-.0651.4933-.1952.1236-.1302.1854-.2914.1854-.4838v-8.82576c0-.20531-.0618-.36974-.1854-.4933-.1235-.12354-.288-.18532-.4933-.18532h-5.99091l.7971 2.7477h1.3398v-.71236h.69531v.71236h2.4761v.69542h-.8633c-.1129.43019-.2831.84927-.5106 1.25723-.2275.40798-.494.78685-.7993 1.1366l1.8526 1.81523-.4913.4913-1.8359-1.8319-.60798.6286.54128 1.8819z" fill="#080707"/></svg>