<svg width="70" height="10" viewBox="0 0 70 10" fill="none" xmlns="http://www.w3.org/2000/svg">
<g clip-path="url(#clip0_1592_1938)">
<mask id="mask0_1592_1938" style="mask-type:luminance" maskUnits="userSpaceOnUse" x="0" y="0" width="70" height="10">
<path d="M69.69 0H0V9.8555H69.69V0Z" fill="white"/>
</mask>
<g mask="url(#mask0_1592_1938)">
<path d="M29.172 1.05917C29.1964 1.00956 29.2288 0.969872 29.2694 0.937622C29.31 0.905377 29.356 0.878089 29.4102 0.860723C29.4643 0.84336 29.5184 0.833435 29.5752 0.833435C29.6321 0.833435 29.6862 0.840877 29.7403 0.860723C29.7944 0.878089 29.8404 0.905377 29.881 0.937622C29.9216 0.972352 29.9514 1.01204 29.9784 1.05917C30.0028 1.10879 30.0136 1.16088 30.0136 1.21793C30.0136 1.27499 30.0001 1.33204 29.9784 1.37917C29.9568 1.42631 29.9216 1.46848 29.881 1.50072C29.8404 1.53545 29.7944 1.56026 29.7403 1.57762C29.6862 1.59499 29.6321 1.60491 29.5752 1.60491C29.5184 1.60491 29.4643 1.59747 29.4102 1.57762C29.356 1.56026 29.31 1.53545 29.2694 1.50072C29.2288 1.46599 29.1991 1.42631 29.172 1.37917C29.1449 1.33204 29.1368 1.27747 29.1368 1.21793C29.1368 1.1584 29.1503 1.10631 29.172 1.05917ZM29.2776 1.34196C29.2938 1.37917 29.3182 1.4139 29.3452 1.43871C29.3723 1.46599 29.4074 1.48832 29.448 1.50072C29.4886 1.51313 29.5292 1.52305 29.5725 1.52305C29.6158 1.52305 29.6564 1.51561 29.697 1.50072C29.7376 1.48584 29.7673 1.46351 29.7998 1.43871C29.8269 1.41142 29.854 1.37917 29.8675 1.34196C29.881 1.30476 29.8918 1.26506 29.8918 1.22041C29.8918 1.17576 29.8837 1.13607 29.8675 1.09886C29.8513 1.06165 29.8269 1.02941 29.7998 1.00212C29.7728 0.974831 29.7376 0.952506 29.697 0.940102C29.6564 0.927702 29.6158 0.917777 29.5725 0.917777C29.5292 0.917777 29.4859 0.925218 29.448 0.940102C29.4102 0.954985 29.3777 0.977314 29.3452 1.00212C29.3182 1.02693 29.2911 1.06165 29.2776 1.09886C29.2613 1.13607 29.2532 1.17576 29.2532 1.22041C29.2532 1.26506 29.2613 1.30476 29.2776 1.34196ZM29.5806 0.999639C29.6402 0.999639 29.6862 1.00708 29.7159 1.02693C29.7457 1.04677 29.7647 1.0815 29.7647 1.12615C29.7647 1.14599 29.7619 1.16336 29.7565 1.17824C29.7511 1.19313 29.7403 1.20305 29.7295 1.21297C29.7159 1.22041 29.7051 1.23034 29.6889 1.23282C29.6727 1.23778 29.6591 1.24026 29.6402 1.24026L29.7673 1.43126H29.6673L29.5536 1.24522H29.494V1.43126H29.402V1.00212H29.5833L29.5806 0.999639ZM29.5806 1.17824C29.6077 1.17824 29.6293 1.17576 29.6483 1.16584C29.6673 1.15592 29.6727 1.14351 29.6727 1.11375C29.6727 1.10134 29.6727 1.0939 29.6645 1.08646C29.6564 1.07902 29.651 1.07406 29.6429 1.0691C29.6348 1.06661 29.6239 1.06414 29.6131 1.06165C29.6023 1.05917 29.5915 1.06165 29.5779 1.06165H29.4968V1.17576H29.5806V1.17824Z" fill="#080707"/>
<path d="M28.279 9.84808H21.7113C21.7113 9.84808 21.6869 9.82329 21.6707 9.80837C21.1268 9.30979 20.5828 8.80871 20.0362 8.31504C20.0064 8.28779 19.9929 8.258 19.9929 8.21833V4.85458L19.9658 4.83725C19.9577 4.85458 19.9496 4.87691 19.9388 4.88933C18.9294 5.81458 17.92 6.74233 16.9079 7.66762C16.8808 7.69241 16.8673 7.71971 16.8673 7.75692V9.37179C16.8673 9.409 16.8538 9.43383 16.8267 9.46112L16.3991 9.85304H13.5766C13.5766 9.85304 13.555 9.82575 13.5415 9.81333C13.417 9.69925 13.2925 9.58267 13.1653 9.46854C13.1301 9.43629 13.1166 9.40654 13.1166 9.36437V7.76187C13.1166 7.72466 13.1085 7.69987 13.0787 7.67258C12.0666 6.74483 11.0545 5.81708 10.0397 4.88933C10.0262 4.87691 10.0127 4.867 9.99105 4.84962V9.36683C9.99105 9.40654 9.9775 9.43629 9.94773 9.46358C9.80432 9.59258 9.66627 9.72158 9.52559 9.85304H6.70309C6.63273 9.78358 6.56236 9.71662 6.48932 9.65212L3.7967 7.18391C3.78046 7.169 3.76693 7.15908 3.73987 7.13925V9.37179C3.73987 9.4115 3.72634 9.44125 3.69657 9.46854C3.56939 9.58267 3.4422 9.69925 3.31771 9.81583C3.30418 9.82825 3.29606 9.84312 3.28254 9.85554H0.468159C0.324735 9.72158 0.178605 9.59008 0.0378858 9.45612C0.0189429 9.43629 0.00270613 9.40404 0.00270613 9.37925C0 6.73492 0 4.09552 0 1.45615C0 1.42142 0.0135306 1.39661 0.040592 1.37429C0.221903 1.20561 0.403213 1.04189 0.584523 0.873202C0.614291 0.845915 0.644059 0.835994 0.687355 0.835994H3.05793C3.10393 0.835994 3.1364 0.848394 3.16888 0.878165L6.18623 3.64405C6.20245 3.65894 6.21055 3.68126 6.22409 3.69863L6.24573 3.68374V1.45863C6.24573 1.41894 6.25927 1.39413 6.28632 1.36436C6.47036 1.19816 6.65168 1.02948 6.83568 0.863277C6.85732 0.845915 6.8925 0.831031 6.91959 0.831031H9.31718C9.34427 0.831031 9.38214 0.845915 9.40109 0.863277C9.58509 1.02948 9.76373 1.1932 9.94773 1.36188C9.96395 1.37677 9.9775 1.38669 9.99373 1.40157L10.5837 0.860798C10.6026 0.843436 10.6378 0.828552 10.6649 0.828552H13.0679C13.095 0.828552 13.1329 0.843436 13.1518 0.863277C13.3385 1.03196 13.5225 1.19816 13.7038 1.36933C13.7228 1.38917 13.739 1.42142 13.739 1.44622V2.49304C13.739 2.53026 13.7525 2.55506 13.7796 2.58235C14.172 2.93708 14.5617 3.29676 14.9514 3.65646C14.9649 3.66886 14.9757 3.67878 15.0001 3.69863C15.0136 3.68126 15.0217 3.66141 15.038 3.64901C15.4222 3.29676 15.8092 2.93956 16.1962 2.58731C16.226 2.56002 16.2395 2.52777 16.2395 2.48809V1.45366C16.2395 1.42638 16.2557 1.39165 16.2774 1.37181C16.4614 1.20064 16.6481 1.02948 16.8321 0.863277C16.851 0.845915 16.8808 0.835994 16.9079 0.835994H19.3164C19.3434 0.835994 19.3759 0.850877 19.3975 0.86824C19.5843 1.03692 19.7683 1.20312 19.9496 1.37181C19.9766 1.39661 19.9902 1.4239 19.9875 1.46111V2.54762C20.0145 2.52529 20.0308 2.51041 20.047 2.49553C20.637 1.95475 21.2296 1.41398 21.8195 0.870719C21.8493 0.843436 21.879 0.833511 21.9224 0.833511H28.0517C28.095 0.833511 28.1221 0.845915 28.1545 0.873202C28.7229 1.39413 29.2911 1.91754 29.8621 2.43847V4.39321C29.8621 4.39321 29.8324 4.41304 29.8188 4.42546C29.6835 4.547 29.5428 4.6735 29.4102 4.79754C29.3831 4.82483 29.3507 4.83725 29.3074 4.83725H26.2359V4.27662H23.7436V6.55879H26.2413V5.99071H29.3182C29.3453 5.99071 29.3777 6.00558 29.3994 6.02296C29.559 6.16187 29.7106 6.30825 29.8649 6.44962V8.40437C29.8649 8.40437 29.8378 8.42421 29.8242 8.43166C29.3182 8.89304 28.8149 9.35691 28.3088 9.81833C28.2953 9.83071 28.2872 9.84062 28.2736 9.85554H28.279V9.84808Z" fill="#080707"/>
<path d="M36.2695 3.41089L38.2991 6.467H39.0189L41.0566 3.32903L41.0674 7.13679H42.5721L42.5504 0.788879H41.2352L38.6833 4.73308L36.0909 0.788879H34.7649V7.13679H36.2695V3.41089Z" fill="#080707"/>
<path d="M51.4887 6.82423C52.0596 7.10456 52.6982 7.24594 53.4018 7.24594C54.0028 7.24594 54.5468 7.14919 55.0337 6.95573C55.5209 6.76223 55.9296 6.48189 56.2596 6.11231L55.2314 5.2416C54.7632 5.74269 54.1814 5.99323 53.4914 5.99323C53.0637 5.99323 52.6796 5.90639 52.3441 5.73523C52.0082 5.5616 51.7459 5.32348 51.5564 5.01339C51.3696 4.70581 51.275 4.35356 51.275 3.96161C51.275 3.56967 51.3696 3.21742 51.5564 2.90982C51.7459 2.60223 52.0055 2.36161 52.3441 2.18797C52.6796 2.0168 53.0637 1.92998 53.4914 1.92998C54.1841 1.92998 54.7632 2.17804 55.2314 2.67417L56.2596 1.80347C55.9296 1.4413 55.5237 1.16347 55.0391 0.969982C54.555 0.77649 54.0109 0.679749 53.4128 0.679749C52.7009 0.679749 52.0596 0.821144 51.4887 1.10145C50.9178 1.38176 50.4687 1.77122 50.1437 2.2723C49.8164 2.77091 49.6541 3.33401 49.6541 3.96409C49.6541 4.59414 49.8164 5.15727 50.1437 5.65585C50.4714 6.15448 50.9178 6.54394 51.4887 6.82673V6.82423Z" fill="#080707"/>
<path d="M57.2309 2.25739V7.13675H58.7764V2.25739H57.9859H57.2309Z" fill="#080707"/>
<path d="M58.005 1.57768C58.2891 1.57768 58.5191 1.50078 58.6977 1.34698C58.8764 1.19318 58.9659 0.997208 58.9659 0.76155C58.9659 0.543254 58.8764 0.36217 58.6977 0.218295C58.5191 0.0744188 58.2891 0 58.005 0C57.7209 0 57.4909 0.0768992 57.3123 0.225736C57.1336 0.377054 57.0446 0.5631 57.0446 0.788838C57.0446 1.01458 57.1336 1.20062 57.3123 1.35194C57.4909 1.50325 57.7209 1.57768 58.005 1.57768Z" fill="#080707"/>
<path d="M60.3972 5.45983C60.3972 6.03533 60.5704 6.46946 60.9168 6.76463C61.2632 7.05983 61.7532 7.20867 62.3863 7.20867C62.63 7.20867 62.8627 7.18388 63.0845 7.13175C63.3063 7.07967 63.4904 7.00279 63.6445 6.90108L63.2304 5.90388C63.06 6.02542 62.8518 6.08496 62.6082 6.08496C62.3973 6.08496 62.2345 6.03038 62.1182 5.91625C62.0018 5.80463 61.945 5.64588 61.945 5.44V3.45549H63.2713V2.3665H61.945V1.17828H60.4027V2.3665H59.5827V3.45549H60.4027V5.45983H60.3972Z" fill="#080707"/>
<path d="M68.2127 2.25739L66.7082 5.56654L65.2141 2.25739H63.6205L65.9259 7.1715L65.9068 7.21613C65.8855 7.26329 65.8609 7.30546 65.8368 7.34513C65.8286 7.36 65.8177 7.37492 65.8096 7.38979C65.8068 7.39475 65.8014 7.40221 65.7986 7.40717C65.6473 7.65521 65.3386 8.11909 65.3386 8.11909C65.1005 8.48871 64.665 8.71442 64.1968 8.71442H46.3768L46.8396 7.72467C46.8882 7.63288 46.9341 7.53863 46.9805 7.43442L49.3832 2.25739H47.9005L46.3959 5.56654L44.902 2.25739H43.3081L45.6136 7.1715L45.595 7.21613C45.5841 7.236 45.5759 7.25334 45.565 7.27071L45.5382 7.31538L45.4081 7.51879L45.0238 8.11663C44.7856 8.48621 44.35 8.71196 43.8818 8.71196H34.7621L34.1046 9.8555H65.0327V9.84559C65.7446 9.7935 66.3723 9.38917 66.6564 8.78142L67.1814 7.65771C67.2168 7.58575 67.2518 7.51134 67.2873 7.43442L69.69 2.25739H68.2073H68.2127Z" fill="#080707"/>
</g>
</g>
<defs>
<clipPath id="clip0_1592_1938">
<rect width="70" height="10" fill="white"/>
</clipPath>
</defs>
</svg>
