<svg fill="none" height="18" viewBox="0 0 100 18" width="100" xmlns="http://www.w3.org/2000/svg"><g fill="#000"><path d="m5.4923 16.3792c-.98307 0-1.88632-.1824-2.70976-.5466-.82376-.3641-1.49861-.89-2.024544-1.5777l1.868804-2.2067c.38739.5226.80626.9145 1.25625 1.1755.44969.2614.93085.3919 1.44315.3919 1.37046 0 2.0557-.7905 2.0557-2.3718v-6.86774h-5.08732v-2.68111h8.45112v9.36325c0 1.7875-.4464 3.1213-1.33926 4.001-.89288.8801-2.19782 1.32-3.91414 1.32z"/><path d="m18.2311 16.2967c-1.1768 0-2.2254-.2475-3.1458-.7425-.9208-.495-1.644-1.172-2.17-2.0314-.5262-.8592-.789-1.8388-.789-2.9389 0-1.11373.2628-2.10014.789-2.95957.526-.85912 1.2492-1.53294 2.17-2.02114.9204-.48789 1.969-.73216 3.1458-.73216 1.1904 0 2.2494.24427 3.177.73216.9272.4882 1.654 1.16202 2.1802 2.02114.526.85943.7891 1.84584.7891 2.95957 0 1.1136-.2631 2.0968-.7891 2.9492-.5262.8526-1.253 1.5261-2.1802 2.0211-.9276.495-1.9866.7425-3.177.7425zm0-2.6399c.5535 0 1.0414-.1202 1.4639-.3609.4221-.2404.7611-.5946 1.0174-1.0621.256-.4673.3842-1.0174.3842-1.6499 0-.64616-.1282-1.19624-.3842-1.64996-.2563-.45373-.5953-.80079-1.0174-1.04151-.4225-.2404-.9033-.36092-1.4431-.36092-.5399 0-1.0247.12052-1.4536.36092-.4292.24072-.7718.58778-1.0278 1.04151-.2563.45372-.3842 1.0038-.3842 1.64996 0 .6325.1279 1.1826.3842 1.6499.256.4675.5986.8217 1.0278 1.0621.4289.2407.9065.3609 1.4328.3609z"/><path d="m25.9141 16.1317v-15.302965h3.2393v6.455285l-.2076 3.27918.0622 3.2998v2.2687zm6.5824.165c-.9552 0-1.7893-.2027-2.5021-.6084-.7132-.4054-1.2563-1.0345-1.63-1.8871-.3738-.8524-.5607-1.9248-.5607-3.2174 0-1.30603.1973-2.37847.5918-3.21728.3945-.83849.9448-1.4643 1.6508-1.87678s1.5226-.61872 2.4502-.61872c1.0658 0 2.0174.23717 2.8551.71153.8374.47435 1.5019 1.13786 1.9934 1.9902.4912.85267.7372 1.85615.7372 3.01105 0 1.155-.246 2.1588-.7372 3.0111-.4915.8527-1.156 1.5159-1.9934 1.9902-.8377.4744-1.7893.7116-2.8551.7116zm-.5399-2.6399c.5399 0 1.0207-.1202 1.4432-.3609.4221-.2404.7611-.5946 1.0174-1.0621.256-.4673.3842-1.0174.3842-1.65 0-.64607-.1282-1.19615-.3842-1.64987-.2563-.45373-.5953-.80079-1.0174-1.04151-.4225-.2404-.9033-.36092-1.4432-.36092-.5398 0-1.0246.12052-1.4535.36092-.4292.24072-.7719.58778-1.0278 1.04151-.2564.45372-.3842 1.0038-.3842 1.64987 0 .6326.1278 1.1827.3842 1.65.2559.4675.5986.8217 1.0278 1.0621.4289.2407.9136.3609 1.4535.3609z"/><path d="m96.4836 7.54384.9097-.8924v-2.71359l-2.7321-2.7108h-9.1004l-2.7321 2.7108v-1.8072l-.9097-.90359h-3.6419l-.9097.90359v1.8072l-1.8196 1.80999-1.8195-1.80999v-1.8072l-.9126-.90359h-3.6418l-.9098.90359-.9097-.90359h-3.6419l-.9097.90359v3.61719l-4.5517-4.52079h-3.6418l-.9098.9036v12.65595l.9098.9036h3.6418l.9126-.9036v-3.6144l4.5488 4.518h3.6419l.9097-.9036v-7.23157l4.5516 4.52077v2.7108l.9126.9036h3.6391l.9097-.9036v-2.7108l4.5516-4.52077v5.42437l2.7321 2.7108h9.1004l2.7321-2.7108v-2.7108l-.9097-.90638h-4.5545v.90638h-3.639v-3.61716h3.639v.8924z"/></g><path d="m97.7772 1.83688c.0873 0 .1605-.00839.1605-.1063 0-.08392-.0816-.09232-.1492-.09232h-.1381v.20142h.1268zm-.1268.38886h-.1126v-.68259h.2619c.1662 0 .2507.05875.2507.19583 0 .12589-.076.17345-.1803.18743l.1944.30214h-.1268l-.1774-.29374h-.1042v.29374zm.1212-.86443c-.2704 0-.4789.20981-.4789.51194 0 .28256.1831.51195.4789.51195.2675 0 .476-.20702.476-.51195 0-.30492-.2085-.51194-.476-.51194zm0 1.1302c-.3577 0-.6112-.26577-.6112-.61826 0-.37206.2816-.61825.6112-.61825.3295 0 .6083.24619.6083.61825 0 .36928-.2816.61826-.6083.61826z" fill="#004cbe"/><path d="m44.0645 16.3842c-.9804 0-1.9218-.1164-2.824-.3493-.9024-.2328-1.6164-.5255-2.1419-.8785l1.1083-2.3708c.5255.3248 1.1472.5894 1.8648.7938.7174.2047 1.4243.3069 2.1207.3069.7672 0 1.3107-.0916 1.6304-.2752.3197-.1832.4796-.4372.4796-.762 0-.2679-.1246-.469-.373-.6033-.2488-.134-.5791-.2362-.9911-.307-.4122-.0704-.8631-.1409-1.3533-.2117-.4902-.0704-.9841-.1657-1.4813-.2857-.4975-.1198-.9521-.2997-1.364-.5398-.4123-.2398-.7426-.5643-.9911-.97378-.2487-.40915-.3729-.93836-.3729-1.58764 0-.71973.2094-1.35478.6287-1.90517.4189-.55038 1.0263-.98433 1.8222-1.30186.7956-.31753 1.7477-.47629 2.856-.47629.7812 0 1.5771.08467 2.387.25402s1.4846.41643 2.0247.7409l-1.1082 2.3497c-.5542-.32447-1.112-.54674-1.6731-.6668-.5615-.11974-1.1049-.17994-1.6304-.17994-.739 0-1.2788.0989-1.6198.29636-.341.19779-.5115.45182-.5115.76207 0 .28246.1242.49415.373.63505.2484.14124.5787.25402.991.3387.4119.08467.8632.15876 1.3534.22227.4902.0635.9837.15876 1.4812.28577.4972.12701.9484.30694 1.3534.53984.4049.2328.7353.5503.991.9525.2558.4022.3837.9281.3837 1.5771 0 .7058-.2132 1.3303-.6394 1.8734-.4263.5434-1.041.9705-1.8436 1.2807-.8029.3103-1.7796.4657-2.9305.4657z" fill="#000"/></svg>