<svg width="2656" height="284" viewBox="0 0 2656 284" fill="none" xmlns="http://www.w3.org/2000/svg">
<path d="M1060.6 129.35L1071 117.01V79.4855L1039.77 42H935.741L904.511 79.4855V54.4952L894.111 42.0001H852.477L842.076 54.4952V79.4855L821.282 104.514L800.482 79.4855V54.4952L790.047 42.0001H748.417L738.017 54.4952L727.617 42.0001H685.988L675.588 54.4952V104.514L623.558 42H581.928L571.528 54.4952V229.505L581.928 242H623.558L633.988 229.505V179.524L685.988 242H727.617L738.017 229.505V129.505L790.047 192.019V229.505L800.482 242H842.076L852.477 229.505V192.019L904.511 129.505V204.514L935.741 242H1039.77L1071 204.514V167.029L1060.6 154.495H1008.54V167.029H966.941V117.01H1008.54V129.35H1060.6Z" fill="#2D31A6"/>
<path d="M59.8869 227.778C51.9898 227.778 44.4582 226.719 37.2922 224.6C30.2725 222.319 23.984 218.896 18.4268 214.333C12.8695 209.77 8.40903 204.148 5.04542 197.467C1.82805 190.785 0.146244 182.881 0 173.756C0 172.289 0.438732 171.067 1.3162 170.089C2.19366 168.948 3.29049 168.378 4.60669 168.378H25.4465C27.3476 168.378 28.737 168.948 29.6144 170.089C30.6381 171.23 31.4425 172.778 32.0274 174.733C32.7587 180.6 34.4405 185.407 37.0729 189.156C39.7053 192.741 42.9958 195.43 46.9443 197.222C51.0392 198.852 55.5727 199.667 60.545 199.667C69.7584 199.667 76.7781 196.326 81.6042 189.644C86.5765 182.963 89.0626 173.674 89.0626 161.778V83.0667H14.6975C13.0888 83.0667 11.7726 82.4963 10.7489 81.3555C9.87147 80.2148 9.43274 78.8296 9.43274 77.2V60.0889C9.43274 58.4592 9.87147 57.0741 10.7489 55.9333C11.7726 54.7926 13.0888 54.2222 14.6975 54.2222H114.948C116.557 54.2222 117.873 54.7926 118.896 55.9333C119.92 57.0741 120.432 58.5407 120.432 60.3333V162.756C120.432 176.281 117.873 187.933 112.754 197.711C107.782 207.489 100.762 214.985 91.695 220.2C82.7741 225.252 72.1714 227.778 59.8869 227.778Z" fill="black"/>
<path d="M201.234 227.778C189.535 227.778 179.663 225.496 171.62 220.933C163.723 216.37 157.653 209.933 153.412 201.622C149.317 193.311 146.978 183.615 146.393 172.533C146.246 169.6 146.173 166.015 146.173 161.778C146.173 157.541 146.246 153.956 146.393 151.022C146.978 139.778 149.391 130.081 153.632 121.933C158.019 113.622 164.161 107.185 172.058 102.622C180.102 98.0592 189.827 95.7778 201.234 95.7778C212.641 95.7778 222.293 98.0592 230.19 102.622C238.234 107.185 244.376 113.622 248.617 121.933C253.005 130.081 255.491 139.778 256.076 151.022C256.222 153.956 256.295 157.541 256.295 161.778C256.295 166.015 256.222 169.6 256.076 172.533C255.491 183.615 253.078 193.311 248.837 201.622C244.742 209.933 238.673 216.37 230.629 220.933C222.732 225.496 212.934 227.778 201.234 227.778ZM201.234 203.578C208.985 203.578 214.981 200.889 219.222 195.511C223.463 189.97 225.803 181.904 226.242 171.311C226.388 168.867 226.461 165.689 226.461 161.778C226.461 157.867 226.388 154.689 226.242 152.244C225.803 141.815 223.463 133.83 219.222 128.289C214.981 122.748 208.985 119.978 201.234 119.978C193.483 119.978 187.487 122.748 183.246 128.289C179.005 133.83 176.665 141.815 176.226 152.244C176.08 154.689 176.007 157.867 176.007 161.778C176.007 165.689 176.08 168.867 176.226 171.311C176.665 181.904 179.005 189.97 183.246 195.511C187.487 200.889 193.483 203.578 201.234 203.578Z" fill="black"/>
<path d="M343.777 227.778C335.295 227.778 328.202 226.148 322.499 222.889C316.942 219.63 312.335 215.474 308.679 210.422V219.467C308.679 221.096 308.167 222.481 307.143 223.622C306.266 224.763 305.023 225.333 303.414 225.333H286.084C284.622 225.333 283.379 224.763 282.355 223.622C281.331 222.481 280.819 221.096 280.819 219.467V57.6444C280.819 56.0148 281.331 54.6296 282.355 53.4889C283.379 52.3481 284.622 51.7778 286.084 51.7778H304.73C306.339 51.7778 307.582 52.3481 308.46 53.4889C309.483 54.6296 309.995 56.0148 309.995 57.6444V111.911C313.651 107.185 318.185 103.356 323.596 100.422C329.153 97.3259 335.88 95.7778 343.777 95.7778C351.528 95.7778 358.256 97.2444 363.959 100.178C369.663 103.111 374.416 107.267 378.218 112.644C382.167 117.859 385.165 123.97 387.212 130.978C389.259 137.985 390.356 145.563 390.502 153.711C390.649 156.644 390.722 159.333 390.722 161.778C390.722 164.059 390.649 166.667 390.502 169.6C390.21 178.074 389.04 185.896 386.993 193.067C384.945 200.074 382.02 206.185 378.218 211.4C374.416 216.615 369.663 220.689 363.959 223.622C358.256 226.393 351.528 227.778 343.777 227.778ZM335.661 201.622C341.949 201.622 346.849 200.156 350.358 197.222C353.868 194.126 356.354 190.133 357.817 185.244C359.426 180.356 360.376 174.978 360.669 169.111C360.961 164.222 360.961 159.333 360.669 154.444C360.376 148.578 359.426 143.2 357.817 138.311C356.354 133.422 353.868 129.511 350.358 126.578C346.849 123.481 341.949 121.933 335.661 121.933C329.811 121.933 325.058 123.4 321.402 126.333C317.746 129.267 314.967 133.015 313.066 137.578C311.165 141.978 310.141 146.622 309.995 151.511C309.849 154.444 309.776 157.622 309.776 161.044C309.776 164.304 309.849 167.4 309.995 170.333C310.288 175.385 311.238 180.356 312.847 185.244C314.602 189.97 317.307 193.881 320.963 196.978C324.766 200.074 329.665 201.622 335.661 201.622Z" fill="black"/>
<path d="M458.348 227.778C449.574 227.778 442.042 226.637 435.754 224.356C429.611 222.074 424.566 219.222 420.617 215.8C416.669 212.378 413.744 208.956 411.843 205.533C409.941 202.111 408.918 199.259 408.772 196.978C408.625 195.185 409.064 193.8 410.088 192.822C411.258 191.681 412.501 191.111 413.817 191.111H431.147C431.732 191.111 432.244 191.193 432.682 191.356C433.121 191.519 433.706 192.007 434.437 192.822C436.339 194.615 438.313 196.489 440.36 198.444C442.554 200.4 445.113 202.111 448.038 203.578C450.963 204.881 454.619 205.533 459.006 205.533C464.71 205.533 469.463 204.311 473.265 201.867C477.214 199.259 479.188 195.593 479.188 190.867C479.188 187.444 478.311 184.674 476.556 182.556C474.947 180.437 471.876 178.563 467.342 176.933C462.809 175.141 456.374 173.267 448.038 171.311C439.848 169.193 433.048 166.504 427.637 163.244C422.226 159.985 418.204 155.911 415.572 151.022C412.939 146.133 411.623 140.43 411.623 133.911C411.623 127.556 413.305 121.526 416.669 115.822C420.179 109.956 425.297 105.148 432.024 101.4C438.898 97.6518 447.38 95.7778 457.471 95.7778C465.368 95.7778 472.241 96.9185 478.091 99.2C483.941 101.319 488.767 104.007 492.569 107.267C496.518 110.526 499.516 113.867 501.563 117.289C503.611 120.548 504.708 123.4 504.854 125.844C505 127.637 504.561 129.104 503.538 130.244C502.514 131.222 501.344 131.711 500.028 131.711H483.795C483.064 131.711 482.405 131.548 481.82 131.222C481.235 130.896 480.651 130.489 480.066 130C478.457 128.37 476.702 126.659 474.801 124.867C472.9 123.074 470.56 121.526 467.781 120.222C465.149 118.756 461.639 118.022 457.251 118.022C451.694 118.022 447.453 119.407 444.528 122.178C441.603 124.785 440.141 128.126 440.141 132.2C440.141 134.97 440.799 137.415 442.115 139.533C443.578 141.489 446.429 143.363 450.67 145.156C454.912 146.948 461.346 148.822 469.975 150.778C479.773 152.733 487.524 155.667 493.227 159.578C499.077 163.326 503.172 167.726 505.512 172.778C507.998 177.667 509.241 183.126 509.241 189.156C509.241 196.489 507.267 203.089 503.318 208.956C499.516 214.822 493.812 219.467 486.208 222.889C478.749 226.148 469.463 227.778 458.348 227.778Z" fill="black"/>
<path fill-rule="evenodd" clip-rule="evenodd" d="M1201 0V284H1191V0H1201Z" fill="black"/>
<path d="M1393.96 226.4C1385.32 226.4 1377.08 225.36 1369.24 223.28C1361.56 221.04 1354.68 217.68 1348.6 213.2C1342.52 208.72 1337.64 203.2 1333.96 196.64C1330.44 190.08 1328.6 182.32 1328.44 173.36C1328.44 171.92 1328.92 170.72 1329.88 169.76C1330.84 168.64 1332.04 168.08 1333.48 168.08H1356.28C1358.36 168.08 1359.88 168.64 1360.84 169.76C1361.96 170.88 1362.84 172.4 1363.48 174.32C1364.28 180.08 1366.12 184.8 1369 188.48C1371.88 192 1375.48 194.64 1379.8 196.4C1384.28 198 1389.24 198.8 1394.68 198.8C1404.76 198.8 1412.44 195.52 1417.72 188.96C1423.16 182.4 1425.88 173.28 1425.88 161.6V84.32H1344.52C1342.76 84.32 1341.32 83.76 1340.2 82.64C1339.24 81.52 1338.76 80.16 1338.76 78.56V61.76C1338.76 60.16 1339.24 58.8 1340.2 57.68C1341.32 56.56 1342.76 56 1344.52 56H1454.2C1455.96 56 1457.4 56.56 1458.52 57.68C1459.64 58.8 1460.2 60.24 1460.2 62V162.56C1460.2 175.84 1457.4 187.28 1451.8 196.88C1446.36 206.48 1438.68 213.84 1428.76 218.96C1419 223.92 1407.4 226.4 1393.96 226.4Z" fill="black"/>
<path d="M1548.6 226.4C1535.8 226.4 1525 224.16 1516.2 219.68C1507.56 215.2 1500.92 208.88 1496.28 200.72C1491.8 192.56 1489.24 183.04 1488.6 172.16C1488.44 169.28 1488.36 165.76 1488.36 161.6C1488.36 157.44 1488.44 153.92 1488.6 151.04C1489.24 140 1491.88 130.48 1496.52 122.48C1501.32 114.32 1508.04 108 1516.68 103.52C1525.48 99.04 1536.12 96.8 1548.6 96.8C1561.08 96.8 1571.64 99.04 1580.28 103.52C1589.08 108 1595.8 114.32 1600.44 122.48C1605.24 130.48 1607.96 140 1608.6 151.04C1608.76 153.92 1608.84 157.44 1608.84 161.6C1608.84 165.76 1608.76 169.28 1608.6 172.16C1607.96 183.04 1605.32 192.56 1600.68 200.72C1596.2 208.88 1589.56 215.2 1580.76 219.68C1572.12 224.16 1561.4 226.4 1548.6 226.4ZM1548.6 202.64C1557.08 202.64 1563.64 200 1568.28 194.72C1572.92 189.28 1575.48 181.36 1575.96 170.96C1576.12 168.56 1576.2 165.44 1576.2 161.6C1576.2 157.76 1576.12 154.64 1575.96 152.24C1575.48 142 1572.92 134.16 1568.28 128.72C1563.64 123.28 1557.08 120.56 1548.6 120.56C1540.12 120.56 1533.56 123.28 1528.92 128.72C1524.28 134.16 1521.72 142 1521.24 152.24C1521.08 154.64 1521 157.76 1521 161.6C1521 165.44 1521.08 168.56 1521.24 170.96C1521.72 181.36 1524.28 189.28 1528.92 194.72C1533.56 200 1540.12 202.64 1548.6 202.64Z" fill="black"/>
<path d="M1704.55 226.4C1695.27 226.4 1687.51 224.8 1681.27 221.6C1675.19 218.4 1670.15 214.32 1666.15 209.36V218.24C1666.15 219.84 1665.59 221.2 1664.47 222.32C1663.51 223.44 1662.15 224 1660.39 224H1641.43C1639.83 224 1638.47 223.44 1637.35 222.32C1636.23 221.2 1635.67 219.84 1635.67 218.24V59.36C1635.67 57.76 1636.23 56.4 1637.35 55.28C1638.47 54.16 1639.83 53.6 1641.43 53.6H1661.83C1663.59 53.6 1664.95 54.16 1665.91 55.28C1667.03 56.4 1667.59 57.76 1667.59 59.36V112.64C1671.59 108 1676.55 104.24 1682.47 101.36C1688.55 98.32 1695.91 96.8 1704.55 96.8C1713.03 96.8 1720.39 98.24 1726.63 101.12C1732.87 104 1738.07 108.08 1742.23 113.36C1746.55 118.48 1749.83 124.48 1752.07 131.36C1754.31 138.24 1755.51 145.68 1755.67 153.68C1755.83 156.56 1755.91 159.2 1755.91 161.6C1755.91 163.84 1755.83 166.4 1755.67 169.28C1755.35 177.6 1754.07 185.28 1751.83 192.32C1749.59 199.2 1746.39 205.2 1742.23 210.32C1738.07 215.44 1732.87 219.44 1726.63 222.32C1720.39 225.04 1713.03 226.4 1704.55 226.4ZM1695.67 200.72C1702.55 200.72 1707.91 199.28 1711.75 196.4C1715.59 193.36 1718.31 189.44 1719.91 184.64C1721.67 179.84 1722.71 174.56 1723.03 168.8C1723.35 164 1723.35 159.2 1723.03 154.4C1722.71 148.64 1721.67 143.36 1719.91 138.56C1718.31 133.76 1715.59 129.92 1711.75 127.04C1707.91 124 1702.55 122.48 1695.67 122.48C1689.27 122.48 1684.07 123.92 1680.07 126.8C1676.07 129.68 1673.03 133.36 1670.95 137.84C1668.87 142.16 1667.75 146.72 1667.59 151.52C1667.43 154.4 1667.35 157.52 1667.35 160.88C1667.35 164.08 1667.43 167.12 1667.59 170C1667.91 174.96 1668.95 179.84 1670.71 184.64C1672.63 189.28 1675.59 193.12 1679.59 196.16C1683.75 199.2 1689.11 200.72 1695.67 200.72Z" fill="black"/>
<path d="M1829.9 226.4C1820.3 226.4 1812.06 225.28 1805.18 223.04C1798.46 220.8 1792.94 218 1788.62 214.64C1784.3 211.28 1781.1 207.92 1779.02 204.56C1776.94 201.2 1775.82 198.4 1775.66 196.16C1775.5 194.4 1775.98 193.04 1777.1 192.08C1778.38 190.96 1779.74 190.4 1781.18 190.4H1800.14C1800.78 190.4 1801.34 190.48 1801.82 190.64C1802.3 190.8 1802.94 191.28 1803.74 192.08C1805.82 193.84 1807.98 195.68 1810.22 197.6C1812.62 199.52 1815.42 201.2 1818.62 202.64C1821.82 203.92 1825.82 204.56 1830.62 204.56C1836.86 204.56 1842.06 203.36 1846.22 200.96C1850.54 198.4 1852.7 194.8 1852.7 190.16C1852.7 186.8 1851.74 184.08 1849.82 182C1848.06 179.92 1844.7 178.08 1839.74 176.48C1834.78 174.72 1827.74 172.88 1818.62 170.96C1809.66 168.88 1802.22 166.24 1796.3 163.04C1790.38 159.84 1785.98 155.84 1783.1 151.04C1780.22 146.24 1778.78 140.64 1778.78 134.24C1778.78 128 1780.62 122.08 1784.3 116.48C1788.14 110.72 1793.74 106 1801.1 102.32C1808.62 98.64 1817.9 96.8 1828.94 96.8C1837.58 96.8 1845.1 97.92 1851.5 100.16C1857.9 102.24 1863.18 104.88 1867.34 108.08C1871.66 111.28 1874.94 114.56 1877.18 117.92C1879.42 121.12 1880.62 123.92 1880.78 126.32C1880.94 128.08 1880.46 129.52 1879.34 130.64C1878.22 131.6 1876.94 132.08 1875.5 132.08H1857.74C1856.94 132.08 1856.22 131.92 1855.58 131.6C1854.94 131.28 1854.3 130.88 1853.66 130.4C1851.9 128.8 1849.98 127.12 1847.9 125.36C1845.82 123.6 1843.26 122.08 1840.22 120.8C1837.34 119.36 1833.5 118.64 1828.7 118.64C1822.62 118.64 1817.98 120 1814.78 122.72C1811.58 125.28 1809.98 128.56 1809.98 132.56C1809.98 135.28 1810.7 137.68 1812.14 139.76C1813.74 141.68 1816.86 143.52 1821.5 145.28C1826.14 147.04 1833.18 148.88 1842.62 150.8C1853.34 152.72 1861.82 155.6 1868.06 159.44C1874.46 163.12 1878.94 167.44 1881.5 172.4C1884.22 177.2 1885.58 182.56 1885.58 188.48C1885.58 195.68 1883.42 202.16 1879.1 207.92C1874.94 213.68 1868.7 218.24 1860.38 221.6C1852.22 224.8 1842.06 226.4 1829.9 226.4Z" fill="black"/>
<path d="M1964.12 226.4C1946.36 226.4 1932.28 221.28 1921.88 211.04C1911.48 200.8 1905.88 186.24 1905.08 167.36C1904.92 165.76 1904.84 163.76 1904.84 161.36C1904.84 158.8 1904.92 156.8 1905.08 155.36C1905.72 143.36 1908.44 132.96 1913.24 124.16C1918.2 115.36 1925 108.64 1933.64 104C1942.28 99.2 1952.44 96.8 1964.12 96.8C1977.08 96.8 1987.96 99.52 1996.76 104.96C2005.56 110.24 2012.2 117.68 2016.68 127.28C2021.16 136.72 2023.4 147.68 2023.4 160.16V165.2C2023.4 166.8 2022.84 168.16 2021.72 169.28C2020.6 170.4 2019.16 170.96 2017.4 170.96H1937.72C1937.72 170.96 1937.72 171.2 1937.72 171.68C1937.72 172.16 1937.72 172.56 1937.72 172.88C1937.88 178.48 1938.92 183.68 1940.84 188.48C1942.92 193.12 1945.88 196.88 1949.72 199.76C1953.72 202.64 1958.44 204.08 1963.88 204.08C1968.36 204.08 1972.12 203.44 1975.16 202.16C1978.2 200.72 1980.68 199.12 1982.6 197.36C1984.52 195.6 1985.88 194.16 1986.68 193.04C1988.12 191.12 1989.24 190 1990.04 189.68C1991 189.2 1992.36 188.96 1994.12 188.96H2014.76C2016.36 188.96 2017.64 189.44 2018.6 190.4C2019.72 191.36 2020.2 192.56 2020.04 194C2019.88 196.56 2018.52 199.68 2015.96 203.36C2013.56 207.04 2010.04 210.64 2005.4 214.16C2000.76 217.68 1994.92 220.64 1987.88 223.04C1981 225.28 1973.08 226.4 1964.12 226.4ZM1937.72 150.8H1990.76V150.08C1990.76 143.84 1989.72 138.4 1987.64 133.76C1985.56 129.12 1982.52 125.44 1978.52 122.72C1974.52 120 1969.72 118.64 1964.12 118.64C1958.52 118.64 1953.72 120 1949.72 122.72C1945.72 125.44 1942.68 129.12 1940.6 133.76C1938.68 138.4 1937.72 143.84 1937.72 150.08V150.8Z" fill="black"/>
<path d="M2102.63 226.4C2084.87 226.4 2070.79 221.28 2060.39 211.04C2049.99 200.8 2044.39 186.24 2043.59 167.36C2043.43 165.76 2043.35 163.76 2043.35 161.36C2043.35 158.8 2043.43 156.8 2043.59 155.36C2044.23 143.36 2046.95 132.96 2051.75 124.16C2056.71 115.36 2063.51 108.64 2072.15 104C2080.79 99.2 2090.95 96.8 2102.63 96.8C2115.59 96.8 2126.47 99.52 2135.27 104.96C2144.07 110.24 2150.71 117.68 2155.19 127.28C2159.67 136.72 2161.91 147.68 2161.91 160.16V165.2C2161.91 166.8 2161.35 168.16 2160.23 169.28C2159.11 170.4 2157.67 170.96 2155.91 170.96H2076.23C2076.23 170.96 2076.23 171.2 2076.23 171.68C2076.23 172.16 2076.23 172.56 2076.23 172.88C2076.39 178.48 2077.43 183.68 2079.35 188.48C2081.43 193.12 2084.39 196.88 2088.23 199.76C2092.23 202.64 2096.95 204.08 2102.39 204.08C2106.87 204.08 2110.63 203.44 2113.67 202.16C2116.71 200.72 2119.19 199.12 2121.11 197.36C2123.03 195.6 2124.39 194.16 2125.19 193.04C2126.63 191.12 2127.75 190 2128.55 189.68C2129.51 189.2 2130.87 188.96 2132.63 188.96H2153.27C2154.87 188.96 2156.15 189.44 2157.11 190.4C2158.23 191.36 2158.71 192.56 2158.55 194C2158.39 196.56 2157.03 199.68 2154.47 203.36C2152.07 207.04 2148.55 210.64 2143.91 214.16C2139.27 217.68 2133.43 220.64 2126.39 223.04C2119.51 225.28 2111.59 226.4 2102.63 226.4ZM2076.23 150.8H2129.27V150.08C2129.27 143.84 2128.23 138.4 2126.15 133.76C2124.07 129.12 2121.03 125.44 2117.03 122.72C2113.03 120 2108.23 118.64 2102.63 118.64C2097.03 118.64 2092.23 120 2088.23 122.72C2084.23 125.44 2081.19 129.12 2079.11 133.76C2077.19 138.4 2076.23 143.84 2076.23 150.08V150.8Z" fill="black"/>
<path d="M2193.39 224C2191.79 224 2190.43 223.44 2189.31 222.32C2188.19 221.2 2187.63 219.84 2187.63 218.24V59.36C2187.63 57.76 2188.19 56.4 2189.31 55.28C2190.43 54.16 2191.79 53.6 2193.39 53.6H2212.83C2214.59 53.6 2215.95 54.16 2216.91 55.28C2218.03 56.4 2218.59 57.76 2218.59 59.36V141.44L2258.91 103.28C2260.35 102 2261.63 101.04 2262.75 100.4C2263.87 99.6 2265.55 99.2 2267.79 99.2H2290.11C2291.71 99.2 2292.99 99.68 2293.95 100.64C2294.91 101.6 2295.39 102.88 2295.39 104.48C2295.39 105.12 2295.23 105.84 2294.91 106.64C2294.59 107.44 2293.95 108.16 2292.99 108.8L2243.55 155.12L2298.99 214.64C2300.59 216.24 2301.39 217.6 2301.39 218.72C2301.39 220.32 2300.83 221.6 2299.71 222.56C2298.75 223.52 2297.55 224 2296.11 224H2273.31C2270.91 224 2269.15 223.68 2268.03 223.04C2267.07 222.24 2265.87 221.2 2264.43 219.92L2218.59 171.68V218.24C2218.59 219.84 2218.03 221.2 2216.91 222.32C2215.95 223.44 2214.59 224 2212.83 224H2193.39Z" fill="black"/>
<path d="M2367.24 226.4C2349.48 226.4 2335.4 221.28 2325 211.04C2314.6 200.8 2309 186.24 2308.2 167.36C2308.04 165.76 2307.96 163.76 2307.96 161.36C2307.96 158.8 2308.04 156.8 2308.2 155.36C2308.84 143.36 2311.56 132.96 2316.36 124.16C2321.32 115.36 2328.12 108.64 2336.76 104C2345.4 99.2 2355.56 96.8 2367.24 96.8C2380.2 96.8 2391.08 99.52 2399.88 104.96C2408.68 110.24 2415.32 117.68 2419.8 127.28C2424.28 136.72 2426.52 147.68 2426.52 160.16V165.2C2426.52 166.8 2425.96 168.16 2424.84 169.28C2423.72 170.4 2422.28 170.96 2420.52 170.96H2340.84C2340.84 170.96 2340.84 171.2 2340.84 171.68C2340.84 172.16 2340.84 172.56 2340.84 172.88C2341 178.48 2342.04 183.68 2343.96 188.48C2346.04 193.12 2349 196.88 2352.84 199.76C2356.84 202.64 2361.56 204.08 2367 204.08C2371.48 204.08 2375.24 203.44 2378.28 202.16C2381.32 200.72 2383.8 199.12 2385.72 197.36C2387.64 195.6 2389 194.16 2389.8 193.04C2391.24 191.12 2392.36 190 2393.16 189.68C2394.12 189.2 2395.48 188.96 2397.24 188.96H2417.88C2419.48 188.96 2420.76 189.44 2421.72 190.4C2422.84 191.36 2423.32 192.56 2423.16 194C2423 196.56 2421.64 199.68 2419.08 203.36C2416.68 207.04 2413.16 210.64 2408.52 214.16C2403.88 217.68 2398.04 220.64 2391 223.04C2384.12 225.28 2376.2 226.4 2367.24 226.4ZM2340.84 150.8H2393.88V150.08C2393.88 143.84 2392.84 138.4 2390.76 133.76C2388.68 129.12 2385.64 125.44 2381.64 122.72C2377.64 120 2372.84 118.64 2367.24 118.64C2361.64 118.64 2356.84 120 2352.84 122.72C2348.84 125.44 2345.8 129.12 2343.72 133.76C2341.8 138.4 2340.84 143.84 2340.84 150.08V150.8Z" fill="black"/>
<path d="M2457.76 224C2456.16 224 2454.8 223.44 2453.68 222.32C2452.56 221.2 2452 219.84 2452 218.24V105.2C2452 103.44 2452.56 102 2453.68 100.88C2454.8 99.76 2456.16 99.2 2457.76 99.2H2477.2C2478.8 99.2 2480.16 99.76 2481.28 100.88C2482.56 102 2483.2 103.44 2483.2 105.2V115.04C2486.88 109.92 2491.6 106 2497.36 103.28C2503.28 100.56 2510.08 99.2 2517.76 99.2H2527.6C2529.36 99.2 2530.72 99.76 2531.68 100.88C2532.8 102 2533.36 103.36 2533.36 104.96V122.24C2533.36 123.84 2532.8 125.2 2531.68 126.32C2530.72 127.44 2529.36 128 2527.6 128H2508.88C2501.2 128 2495.2 130.16 2490.88 134.48C2486.72 138.8 2484.64 144.72 2484.64 152.24V218.24C2484.64 219.84 2484.08 221.2 2482.96 222.32C2481.84 223.44 2480.4 224 2478.64 224H2457.76Z" fill="black"/>
<path d="M2599.35 226.4C2589.75 226.4 2581.51 225.28 2574.63 223.04C2567.91 220.8 2562.39 218 2558.07 214.64C2553.75 211.28 2550.55 207.92 2548.47 204.56C2546.39 201.2 2545.27 198.4 2545.11 196.16C2544.95 194.4 2545.43 193.04 2546.55 192.08C2547.83 190.96 2549.19 190.4 2550.63 190.4H2569.59C2570.23 190.4 2570.79 190.48 2571.27 190.64C2571.75 190.8 2572.39 191.28 2573.19 192.08C2575.27 193.84 2577.43 195.68 2579.67 197.6C2582.07 199.52 2584.87 201.2 2588.07 202.64C2591.27 203.92 2595.27 204.56 2600.07 204.56C2606.31 204.56 2611.51 203.36 2615.67 200.96C2619.99 198.4 2622.15 194.8 2622.15 190.16C2622.15 186.8 2621.19 184.08 2619.27 182C2617.51 179.92 2614.15 178.08 2609.19 176.48C2604.23 174.72 2597.19 172.88 2588.07 170.96C2579.11 168.88 2571.67 166.24 2565.75 163.04C2559.83 159.84 2555.43 155.84 2552.55 151.04C2549.67 146.24 2548.23 140.64 2548.23 134.24C2548.23 128 2550.07 122.08 2553.75 116.48C2557.59 110.72 2563.19 106 2570.55 102.32C2578.07 98.64 2587.35 96.8 2598.39 96.8C2607.03 96.8 2614.55 97.92 2620.95 100.16C2627.35 102.24 2632.63 104.88 2636.79 108.08C2641.11 111.28 2644.39 114.56 2646.63 117.92C2648.87 121.12 2650.07 123.92 2650.23 126.32C2650.39 128.08 2649.91 129.52 2648.79 130.64C2647.67 131.6 2646.39 132.08 2644.95 132.08H2627.19C2626.39 132.08 2625.67 131.92 2625.03 131.6C2624.39 131.28 2623.75 130.88 2623.11 130.4C2621.35 128.8 2619.43 127.12 2617.35 125.36C2615.27 123.6 2612.71 122.08 2609.67 120.8C2606.79 119.36 2602.95 118.64 2598.15 118.64C2592.07 118.64 2587.43 120 2584.23 122.72C2581.03 125.28 2579.43 128.56 2579.43 132.56C2579.43 135.28 2580.15 137.68 2581.59 139.76C2583.19 141.68 2586.31 143.52 2590.95 145.28C2595.59 147.04 2602.63 148.88 2612.07 150.8C2622.79 152.72 2631.27 155.6 2637.51 159.44C2643.91 163.12 2648.39 167.44 2650.95 172.4C2653.67 177.2 2655.03 182.56 2655.03 188.48C2655.03 195.68 2652.87 202.16 2648.55 207.92C2644.39 213.68 2638.15 218.24 2629.83 221.6C2621.67 224.8 2611.51 226.4 2599.35 226.4Z" fill="black"/>
</svg>
