<svg width="218" height="36" viewBox="0 0 218 36" fill="none" xmlns="http://www.w3.org/2000/svg">
<path d="M12.52 35.28C10.869 35.28 9.29449 35.072 7.79636 34.656C6.32881 34.208 5.01413 33.536 3.85232 32.64C2.69051 31.744 1.758 30.64 1.0548 29.328C0.382175 28.016 0.030574 26.464 0 24.672C0 24.384 0.0917219 24.144 0.275166 23.952C0.458609 23.728 0.687914 23.616 0.96308 23.616H5.31987C5.71733 23.616 6.00778 23.728 6.19123 23.952C6.40525 24.176 6.5734 24.48 6.6957 24.864C6.84857 26.016 7.20017 26.96 7.7505 27.696C8.30083 28.4 8.98875 28.928 9.81424 29.28C10.6703 29.6 11.6181 29.76 12.6576 29.76C14.5838 29.76 16.0513 29.104 17.0603 27.792C18.0998 26.48 18.6195 24.656 18.6195 22.32V6.864H3.07268C2.73637 6.864 2.4612 6.752 2.24719 6.528C2.06374 6.304 1.97202 6.032 1.97202 5.712V2.352C1.97202 2.032 2.06374 1.76 2.24719 1.536C2.4612 1.312 2.73637 1.2 3.07268 1.2H24.0311C24.3675 1.2 24.6426 1.312 24.8566 1.536C25.0707 1.76 25.1777 2.048 25.1777 2.4V22.512C25.1777 25.168 24.6426 27.456 23.5725 29.376C22.533 31.296 21.0655 32.768 19.1699 33.792C17.3049 34.784 15.0883 35.28 12.52 35.28Z" fill="#111322"/>
<path d="M42.0702 35.28C39.6243 35.28 37.5606 34.832 35.879 33.936C34.228 33.04 32.9592 31.776 32.0726 30.144C31.2165 28.512 30.7273 26.608 30.605 24.432C30.5744 23.856 30.5592 23.152 30.5592 22.32C30.5592 21.488 30.5744 20.784 30.605 20.208C30.7273 18 31.2318 16.096 32.1184 14.496C33.0356 12.864 34.3198 11.6 35.9707 10.704C37.6523 9.808 39.6855 9.36 42.0702 9.36C44.455 9.36 46.4729 9.808 48.1239 10.704C49.8055 11.6 51.0896 12.864 51.9762 14.496C52.8934 16.096 53.4132 18 53.5355 20.208C53.5661 20.784 53.5814 21.488 53.5814 22.32C53.5814 23.152 53.5661 23.856 53.5355 24.432C53.4132 26.608 52.9087 28.512 52.0221 30.144C51.166 31.776 49.8972 33.04 48.2156 33.936C46.5646 34.832 44.5162 35.28 42.0702 35.28ZM42.0702 30.528C43.6907 30.528 44.9442 30 45.8308 28.944C46.7175 27.856 47.2067 26.272 47.2984 24.192C47.329 23.712 47.3443 23.088 47.3443 22.32C47.3443 21.552 47.329 20.928 47.2984 20.448C47.2067 18.4 46.7175 16.832 45.8308 15.744C44.9442 14.656 43.6907 14.112 42.0702 14.112C40.4498 14.112 39.1963 14.656 38.3097 15.744C37.423 16.832 36.9338 18.4 36.8421 20.448C36.8115 20.928 36.7962 21.552 36.7962 22.32C36.7962 23.088 36.8115 23.712 36.8421 24.192C36.9338 26.272 37.423 27.856 38.3097 28.944C39.1963 30 40.4498 30.528 42.0702 30.528Z" fill="#111322"/>
<path d="M71.8705 35.28C70.0973 35.28 68.6144 34.96 67.422 34.32C66.2602 33.68 65.2971 32.864 64.5328 31.872V33.648C64.5328 33.968 64.4258 34.24 64.2118 34.464C64.0283 34.688 63.7685 34.8 63.4321 34.8H59.8091C59.5034 34.8 59.2435 34.688 59.0295 34.464C58.8155 34.24 58.7085 33.968 58.7085 33.648V1.872C58.7085 1.552 58.8155 1.28 59.0295 1.056C59.2435 0.831999 59.5034 0.719998 59.8091 0.719998H63.7073C64.0436 0.719998 64.3035 0.831999 64.4869 1.056C64.701 1.28 64.808 1.552 64.808 1.872V12.528C65.5723 11.6 66.5201 10.848 67.6513 10.272C68.8132 9.664 70.2196 9.36 71.8705 9.36C73.491 9.36 74.8974 9.648 76.0898 10.224C77.2821 10.8 78.2758 11.616 79.0707 12.672C79.8962 13.696 80.523 14.896 80.951 16.272C81.3791 17.648 81.6084 19.136 81.6389 20.736C81.6695 21.312 81.6848 21.84 81.6848 22.32C81.6848 22.768 81.6695 23.28 81.6389 23.856C81.5778 25.52 81.3332 27.056 80.9052 28.464C80.4771 29.84 79.8656 31.04 79.0707 32.064C78.2758 33.088 77.2821 33.888 76.0898 34.464C74.8974 35.008 73.491 35.28 71.8705 35.28ZM70.1737 30.144C71.4884 30.144 72.5126 29.856 73.2464 29.28C73.9801 28.672 74.4999 27.888 74.8056 26.928C75.142 25.968 75.3407 24.912 75.4018 23.76C75.463 22.8 75.463 21.84 75.4018 20.88C75.3407 19.728 75.142 18.672 74.8056 17.712C74.4999 16.752 73.9801 15.984 73.2464 15.408C72.5126 14.8 71.4884 14.496 70.1737 14.496C68.9507 14.496 67.9571 14.784 67.1927 15.36C66.4284 15.936 65.8475 16.672 65.45 17.568C65.0526 18.432 64.8385 19.344 64.808 20.304C64.7774 20.88 64.7621 21.504 64.7621 22.176C64.7621 22.816 64.7774 23.424 64.808 24C64.8691 24.992 65.0678 25.968 65.4042 26.928C65.771 27.856 66.3367 28.624 67.101 29.232C67.8959 29.84 68.9202 30.144 70.1737 30.144Z" fill="#111322"/>
<path d="M95.8229 35.28C93.9884 35.28 92.4139 35.056 91.0992 34.608C89.8151 34.16 88.7603 33.6 87.9348 32.928C87.1093 32.256 86.4978 31.584 86.1003 30.912C85.7029 30.24 85.4889 29.68 85.4583 29.232C85.4277 28.88 85.5194 28.608 85.7335 28.416C85.9781 28.192 86.2379 28.08 86.5131 28.08H90.1361C90.2584 28.08 90.3654 28.096 90.4571 28.128C90.5489 28.16 90.6711 28.256 90.824 28.416C91.2215 28.768 91.6342 29.136 92.0623 29.52C92.5209 29.904 93.0559 30.24 93.6674 30.528C94.2789 30.784 95.0432 30.912 95.9604 30.912C97.1528 30.912 98.1465 30.672 98.9414 30.192C99.7669 29.68 100.18 28.96 100.18 28.032C100.18 27.36 99.9962 26.816 99.6293 26.4C99.293 25.984 98.6509 25.616 97.7032 25.296C96.7554 24.944 95.4101 24.576 93.6674 24.192C91.9553 23.776 90.5336 23.248 89.4023 22.608C88.2711 21.968 87.4303 21.168 86.88 20.208C86.3297 19.248 86.0545 18.128 86.0545 16.848C86.0545 15.6 86.4061 14.416 87.1093 13.296C87.8431 12.144 88.9131 11.2 90.3195 10.464C91.7565 9.728 93.5298 9.36 95.6394 9.36C97.2904 9.36 98.7274 9.584 99.9503 10.032C101.173 10.448 102.182 10.976 102.977 11.616C103.803 12.256 104.429 12.912 104.857 13.584C105.286 14.224 105.515 14.784 105.545 15.264C105.576 15.616 105.484 15.904 105.27 16.128C105.056 16.32 104.812 16.416 104.536 16.416H101.143C100.99 16.416 100.852 16.384 100.73 16.32C100.608 16.256 100.485 16.176 100.363 16.08C100.027 15.76 99.6599 15.424 99.2624 15.072C98.865 14.72 98.3758 14.416 97.7949 14.16C97.2445 13.872 96.5108 13.728 95.5936 13.728C94.4317 13.728 93.5451 14 92.9336 14.544C92.3221 15.056 92.0164 15.712 92.0164 16.512C92.0164 17.056 92.154 17.536 92.4291 17.952C92.7349 18.336 93.3311 18.704 94.2177 19.056C95.1044 19.408 96.4496 19.776 98.2535 20.16C100.302 20.544 101.922 21.12 103.115 21.888C104.338 22.624 105.194 23.488 105.683 24.48C106.203 25.44 106.463 26.512 106.463 27.696C106.463 29.136 106.05 30.432 105.224 31.584C104.429 32.736 103.237 33.648 101.647 34.32C100.088 34.96 98.1465 35.28 95.8229 35.28Z" fill="#111322"/>
<path d="M215.914 15.723L218 13.5018V6.7474L211.736 0H190.87L184.606 6.7474V2.24914L182.52 1.39358e-05H174.169L172.083 2.24914V6.7474L167.912 11.2526L163.74 6.7474V2.24914L161.647 1.39358e-05H153.297L151.211 2.24914L149.125 1.39358e-05H140.775L138.689 2.24914V11.2526L128.253 0H119.903L117.817 2.24913V33.7509L119.903 36H128.253L130.345 33.7509V24.7543L140.775 36H149.125L151.211 33.7509V15.7509L161.647 27.0035V33.7509L163.74 36H172.083L174.169 33.7509V27.0035L184.606 15.7509V29.2526L190.87 36H211.736L218 29.2526V22.5052L215.914 20.2491H205.471V22.5052H197.128V13.5018H205.471V15.723H215.914Z" fill="#2D31A6"/>
</svg>
