<svg width="466" height="68" viewBox="0 0 466 68" fill="none" xmlns="http://www.w3.org/2000/svg">
<path d="M76.92 5.98L61.18 54.1H49.22L38.63 21.52L27.7 54.1H15.81L0 5.98H11.55L22.41 39.8L33.75 5.98H44.06L55.06 40.08L66.27 5.98H76.93H76.92Z"/>
<path d="M75.47 35.6C75.47 24.46 84.06 16.56 95.82 16.56C107.58 16.56 116.1 24.47 116.1 35.6C116.1 46.73 107.58 54.64 95.82 54.64C84.06 54.64 75.47 46.73 75.47 35.6ZM105.23 35.6C105.23 29.21 101.18 25.36 95.81 25.36C90.44 25.36 86.32 29.21 86.32 35.6C86.32 41.99 90.44 45.84 95.81 45.84C101.18 45.84 105.23 41.99 105.23 35.6Z"/>
<path d="M144.83 16.56V26.46C143.94 26.39 143.25 26.32 142.42 26.32C136.51 26.32 132.59 29.55 132.59 36.63V54.09H121.87V17.11H132.11V21.99C134.72 18.42 139.12 16.56 144.83 16.56Z"/>
<path d="M165.72 39.59L160.57 44.68V54.1H149.85V3.09H160.57V31.96L176.24 17.11H189.03L173.63 32.78L190.4 54.09H177.41L165.72 39.59Z"/>
<path d="M192.26 5.98C192.26 2.61 194.94 0 198.93 0C202.92 0 205.6 2.47 205.6 5.77C205.6 9.34 202.92 11.96 198.93 11.96C194.94 11.96 192.26 9.35 192.26 5.98ZM193.56 17.12H204.28V54.09H193.56V17.11V17.12Z"/>
<path d="M250.68 32.92V54.09H239.96V34.57C239.96 28.59 237.21 25.84 232.47 25.84C227.31 25.84 223.6 29 223.6 35.81V54.1H212.88V17.11H223.12V21.44C226.01 18.28 230.34 16.56 235.36 16.56C244.09 16.56 250.69 21.65 250.69 32.92H250.68Z"/>
<path d="M297.56 17.11V47.91C297.56 61.66 290.14 67.98 276.8 67.98C269.79 67.98 262.98 66.26 258.65 62.89L262.91 55.19C266.07 57.73 271.23 59.38 275.97 59.38C283.53 59.38 286.83 55.94 286.83 49.28V47.7C284.01 50.79 279.96 52.31 275.14 52.31C264.9 52.31 256.65 45.23 256.65 34.44C256.65 23.65 264.9 16.57 275.14 16.57C280.3 16.57 284.56 18.29 287.38 21.86V17.12H297.55L297.56 17.11ZM286.97 34.43C286.97 29 282.91 25.36 277.28 25.36C271.65 25.36 267.52 29 267.52 34.43C267.52 39.86 271.64 43.5 277.28 43.5C282.92 43.5 286.97 39.86 286.97 34.43Z"/>
<path d="M462.46 25.75L465.69 22.56V12.86L455.99 3.17H423.68L413.98 12.86V6.4L410.75 3.17H397.82L394.59 6.4V12.86L388.13 19.33L381.67 12.86V6.4L378.43 3.17H365.5L362.27 6.4L359.04 3.17H346.11L342.88 6.4V19.33L326.72 3.17H313.79L310.56 6.4V51.64L313.79 54.87H326.72L329.96 51.64V38.72L346.11 54.87H359.04L362.27 51.64V25.79L378.43 41.95V51.64L381.67 54.87H394.59L397.82 51.64V41.95L413.98 25.79V45.18L423.68 54.87H455.99L465.69 45.18V35.49L462.46 32.25H446.29V35.49H433.37V22.56H446.29V25.75H462.46Z" fill="currentColor"/>
<path d="M463.39 5.35C463.7 5.35 463.96 5.32 463.96 4.97C463.96 4.67 463.67 4.64 463.43 4.64H462.94V5.36H463.39V5.35ZM462.94 6.74H462.54V4.3H463.47C464.06 4.3 464.36 4.51 464.36 5C464.36 5.45 464.09 5.62 463.72 5.67L464.41 6.75H463.96L463.33 5.7H462.96V6.75L462.94 6.74ZM463.37 3.65C462.41 3.65 461.67 4.4 461.67 5.48C461.67 6.49 462.32 7.31 463.37 7.31C464.32 7.31 465.06 6.57 465.06 5.48C465.06 4.39 464.32 3.65 463.37 3.65ZM463.37 7.69C462.1 7.69 461.2 6.74 461.2 5.48C461.2 4.15 462.2 3.27 463.37 3.27C464.54 3.27 465.53 4.15 465.53 5.48C465.53 6.8 464.53 7.69 463.37 7.69Z" fill="currentColor"/>
</svg>
