<svg width="210" height="40" viewBox="0 0 210 40" fill="none" xmlns="http://www.w3.org/2000/svg">
<path d="M11.5338 36.3982C9.46938 36.3982 7.57255 35.9929 5.84334 35.1837C4.11344 34.3745 2.69626 33.2058 1.5918 31.6776L5.5163 26.7737C6.3298 27.9353 7.20943 28.806 8.15441 29.3861C9.09876 29.9668 10.1092 30.2569 11.185 30.2569C14.063 30.2569 15.502 28.5003 15.502 24.9863V9.72464H4.81862V3.7666H22.5661V24.5738C22.5661 28.5461 21.6285 31.51 19.7535 33.465C17.8785 35.4207 15.1381 36.3982 11.5338 36.3982Z" fill="black"/>
<path d="M38.2853 36.2148C35.8141 36.2148 33.612 35.6648 31.6791 34.5649C29.7455 33.4649 28.2268 31.9604 27.1223 30.0505C26.0172 28.1414 25.4653 25.9644 25.4653 23.5196C25.4653 21.0448 26.0172 18.8528 27.1223 16.9429C28.2268 15.0338 29.7455 13.5364 31.6791 12.4515C33.612 11.3673 35.8141 10.8245 38.2853 10.8245C40.7852 10.8245 43.0091 11.3673 44.957 12.4515C46.9042 13.5364 48.4304 15.0338 49.5356 16.9429C50.64 18.8528 51.1926 21.0448 51.1926 23.5196C51.1926 25.9945 50.64 28.1793 49.5356 30.0735C48.4304 31.9683 46.9042 33.4649 44.957 34.5649C43.0091 35.6648 40.7852 36.2148 38.2853 36.2148ZM38.2853 30.3484C39.4477 30.3484 40.4724 30.0813 41.3595 29.5464C42.246 29.0122 42.958 28.2252 43.4962 27.1861C44.0338 26.1477 44.3029 24.9253 44.3029 23.5196C44.3029 22.0838 44.0338 20.8614 43.4962 19.8531C42.958 18.8449 42.246 18.0736 41.3595 17.5387C40.4724 17.0045 39.4627 16.7366 38.329 16.7366C37.1952 16.7366 36.1773 17.0045 35.2766 17.5387C34.3751 18.0736 33.6556 18.8449 33.1181 19.8531C32.5798 20.8614 32.3114 22.0838 32.3114 23.5196C32.3114 24.9253 32.5798 26.1477 33.1181 27.1861C33.6556 28.2252 34.3751 29.0122 35.2766 29.5464C36.1773 30.0813 37.1802 30.3484 38.2853 30.3484Z" fill="black"/>
<path d="M54.4197 35.8481V1.84155H61.2222V16.1866L60.7861 23.4737L60.9169 30.8067V35.8481L54.4197 35.8481ZM68.2427 36.2147C66.2368 36.2147 64.4851 35.7643 62.9882 34.8627C61.4906 33.9619 60.3501 32.564 59.5652 30.6692C58.7802 28.7751 58.3878 26.3919 58.3878 23.5196C58.3878 20.6172 58.8021 18.234 59.6306 16.37C60.4591 14.5067 61.6146 13.116 63.0972 12.1993C64.5798 11.2827 66.2948 10.8244 68.2427 10.8244C70.4809 10.8244 72.4792 11.3515 74.2385 12.4056C75.997 13.4597 77.3924 14.9342 78.4246 16.8283C79.4561 18.7231 79.9726 20.953 79.9726 23.5196C79.9726 26.0861 79.4561 28.3168 78.4246 30.2109C77.3924 32.1057 75.997 33.5795 74.2385 34.6336C72.4792 35.6877 70.4809 36.2147 68.2427 36.2147ZM67.1089 30.3484C68.2427 30.3484 69.2524 30.0812 70.1395 29.5463C71.0259 29.0121 71.7379 28.2251 72.2762 27.186C72.8138 26.1477 73.0829 24.9253 73.0829 23.5196C73.0829 22.0838 72.8138 20.8614 72.2762 19.8531C71.7379 18.8448 71.0259 18.0736 70.1395 17.5386C69.2524 17.0044 68.2427 16.7366 67.1089 16.7366C65.9752 16.7366 64.9573 17.0044 64.0566 17.5386C63.1551 18.0736 62.4356 18.8448 61.898 19.8531C61.3598 20.8614 61.0914 22.0838 61.0914 23.5196C61.0914 24.9253 61.3598 26.1477 61.898 27.186C62.4356 28.2251 63.1551 29.0121 64.0566 29.5463C64.9572 30.0812 65.9752 30.3484 67.1089 30.3484Z" fill="black"/>
<path d="M202.616 16.7641L204.526 14.781V8.7508L198.789 2.72681H179.678L173.94 8.7508V4.73481L172.03 2.72682H164.382L162.472 4.73481V8.7508L158.651 12.773L154.83 8.7508V4.73481L152.913 2.72682H145.265L143.355 4.73481L141.444 2.72682H133.796L131.886 4.73481V12.773L122.327 2.72681H114.68L112.769 4.7348V32.8591L114.68 34.8671H122.327L124.244 32.8591V24.8272L133.796 34.8671H141.444L143.355 32.8591V16.789L152.913 26.8352V32.8592L154.83 34.8672H162.472L164.382 32.8592V26.8352L173.94 16.789V28.8432L179.678 34.8672H198.789L204.526 28.8432V22.8192L202.616 20.805H193.051V22.8192H185.409V14.781H193.051V16.7641H202.616Z" fill="black"/>
<path d="M205.332 4.08188C205.516 4.08188 205.669 4.06323 205.669 3.84565C205.669 3.65915 205.498 3.6405 205.356 3.6405H205.066V4.08811H205.332V4.08188ZM205.066 4.94601H204.829V3.42914H205.38C205.728 3.42914 205.906 3.55969 205.906 3.86432C205.906 4.14407 205.746 4.24975 205.527 4.28084L205.936 4.95225H205.669L205.297 4.29949H205.078V4.95225L205.066 4.94601ZM205.32 3.02505C204.753 3.02505 204.315 3.4913 204.315 4.16271C204.315 4.7906 204.699 5.30036 205.32 5.30036C205.882 5.30036 206.32 4.84033 206.32 4.16271C206.32 3.48509 205.882 3.02505 205.32 3.02505ZM205.32 5.5366C204.569 5.5366 204.037 4.94601 204.037 4.16271C204.037 3.33589 204.628 2.78882 205.32 2.78882C206.012 2.78882 206.598 3.33589 206.598 4.16271C206.598 4.98332 206.006 5.5366 205.32 5.5366Z" fill="#004CBE"/>
<path d="M92.5356 36.4094C90.4767 36.4094 88.4997 36.1507 86.6053 35.6332C84.7101 35.1158 83.2107 34.4653 82.1072 33.681L84.4345 28.4124C85.5381 29.1342 86.8437 29.7222 88.3508 30.1765C89.8571 30.6314 91.3418 30.8586 92.8041 30.8586C94.4154 30.8586 95.5567 30.655 96.228 30.247C96.8994 29.8398 97.2351 29.2753 97.2351 28.5535C97.2351 27.9582 96.9735 27.5113 96.4518 27.2129C95.9294 26.9152 95.2357 26.6881 94.3706 26.5308C93.5048 26.3742 92.5579 26.2177 91.5285 26.0604C90.4991 25.9038 89.462 25.6921 88.4179 25.4253C87.3731 25.1592 86.4185 24.7594 85.5535 24.2258C84.6877 23.6929 83.994 22.9718 83.4723 22.0619C82.9499 21.1527 82.689 19.9766 82.689 18.5338C82.689 16.9344 83.1289 15.5232 84.0094 14.3001C84.8891 13.077 86.1647 12.1127 87.8361 11.4071C89.5068 10.7014 91.5062 10.3486 93.8335 10.3486C95.4741 10.3486 97.1455 10.5368 98.8463 10.9131C100.547 11.2895 101.964 11.8385 103.098 12.5596L100.771 17.7811C99.6072 17.0601 98.4358 16.5661 97.2574 16.2993C96.0784 16.0333 94.9371 15.8995 93.8335 15.8995C92.2817 15.8995 91.1481 16.1193 90.432 16.5581C89.7159 16.9976 89.3578 17.5621 89.3578 18.2515C89.3578 18.8792 89.6187 19.3497 90.1411 19.6628C90.6628 19.9766 91.3565 20.2273 92.2223 20.4154C93.0873 20.6036 94.0349 20.7682 95.0643 20.9094C96.0937 21.0505 97.1302 21.2622 98.1749 21.5444C99.219 21.8267 100.167 22.2265 101.017 22.744C101.867 23.2614 102.561 23.967 103.098 24.8608C103.635 25.7546 103.904 26.9233 103.904 28.3654C103.904 29.9339 103.456 31.3216 102.561 32.5285C101.666 33.7362 100.375 34.6851 98.6897 35.3745C97.0036 36.064 94.9524 36.4094 92.5356 36.4094Z" fill="black"/>
</svg>
