<svg width="291" height="262" viewBox="0 0 291 262" stroke="transparent" stroke-width="0" fill="none" xmlns="http://www.w3.org/2000/svg">
<g clip-path="url(#clip0_7894_29110)">
<path d="M237.56 199.71V257.53L145.48 221.78L53.4 257.53V199.71" stroke="" stroke-width="8" stroke-linejoin="bevel" fill="transparent"/>
<path d="M75.53 5.95001L60.37 52.28H48.85L38.66 20.9L28.14 52.28H16.69L1.46002 5.95001H12.58L23.04 38.52L33.96 5.95001H43.89L54.48 38.78L65.27 5.95001H75.53Z"/>
<path d="M73.14 34.48C73.14 23.76 81.41 16.14 92.73 16.14C104.05 16.14 112.26 23.75 112.26 34.48C112.26 45.21 104.05 52.82 92.73 52.82C81.41 52.82 73.14 45.21 73.14 34.48V34.48ZM101.8 34.48C101.8 28.32 97.89 24.62 92.73 24.62C87.57 24.62 83.6 28.33 83.6 34.48C83.6 40.63 87.57 44.34 92.73 44.34C97.89 44.34 101.8 40.63 101.8 34.48V34.48Z"/>
<path d="M139.93 16.14V25.67C139.07 25.6 138.41 25.54 137.61 25.54C131.92 25.54 128.14 28.65 128.14 35.47V52.28H117.81V16.67H127.67V21.37C130.18 17.93 134.42 16.14 139.92 16.14H139.93Z"/>
<path d="M160.06 38.32L155.1 43.22V52.29H144.77V3.16998H155.1V30.97L170.19 16.67H182.5L167.67 31.76L183.82 52.28H171.31L160.06 38.31V38.32Z"/>
<path d="M185.61 5.95C185.61 2.71 188.19 0.190002 192.03 0.190002C195.87 0.190002 198.45 2.57 198.45 5.75C198.45 9.19 195.87 11.71 192.03 11.71C188.19 11.71 185.61 9.19 185.61 5.95V5.95ZM186.87 16.67H197.2V52.28H186.87V16.67Z"/>
<path d="M241.87 31.9V52.29H231.54V33.49C231.54 27.73 228.89 25.08 224.33 25.08C219.37 25.08 215.79 28.12 215.79 34.68V52.29H205.46V16.67H215.32V20.84C218.1 17.8 222.27 16.14 227.1 16.14C235.51 16.14 241.86 21.04 241.86 31.89L241.87 31.9Z"/>
<path d="M287.02 16.67V46.32C287.02 59.56 279.87 65.65 267.03 65.65C260.28 65.65 253.73 64 249.56 60.75L253.66 53.34C256.7 55.79 261.67 57.38 266.24 57.38C273.52 57.38 276.7 54.07 276.7 47.65V46.13C273.99 49.11 270.08 50.56 265.45 50.56C255.59 50.56 247.64 43.74 247.64 33.35C247.64 22.96 255.58 16.14 265.45 16.14C270.41 16.14 274.52 17.79 277.23 21.24V16.67H287.03H287.02ZM276.83 33.35C276.83 28.12 272.92 24.61 267.5 24.61C262.08 24.61 258.1 28.12 258.1 33.35C258.1 38.58 262.07 42.09 267.5 42.09C272.93 42.09 276.83 38.58 276.83 33.35Z"/>
<path d="M284.04 123.48L290.07 117.53V99.42L271.96 81.31H211.62L193.51 99.42V87.35L187.48 81.31H163.34L157.31 87.35V99.42L145.23 111.49L133.17 99.42V87.35L127.12 81.31H102.98L96.95 87.35L90.92 81.31H66.78L60.75 87.35V111.49L30.56 81.31H6.42001L0.390015 87.35V171.84L6.42001 177.87H30.56L36.61 171.84V147.7L66.78 177.87H90.92L96.95 171.84V123.56L127.12 153.73V171.84L133.17 177.87H157.31L163.34 171.84V153.73L193.51 123.56V159.78L211.62 177.87H271.96L290.07 159.78V141.67L284.04 135.62H253.85V141.67H229.73V117.53H253.85V123.48H284.04Z" fill="currentColor"/>
<path d="M285.77 85.38C286.34 85.38 286.83 85.33 286.83 84.67C286.83 84.11 286.29 84.05 285.84 84.05H284.93V85.39H285.78L285.77 85.38ZM284.94 87.97H284.19V83.41H285.92C287.02 83.41 287.58 83.79 287.58 84.72C287.58 85.55 287.08 85.88 286.39 85.96L287.67 87.97H286.82L285.64 86.01H284.94V87.97H284.92H284.94ZM285.75 82.2C283.96 82.2 282.58 83.6 282.58 85.61C282.58 87.49 283.8 89.02 285.75 89.02C287.52 89.02 288.91 87.63 288.91 85.61C288.91 83.59 287.52 82.2 285.75 82.2ZM285.75 89.74C283.38 89.74 281.69 87.97 281.69 85.61C281.69 83.12 283.57 81.48 285.75 81.48C287.93 81.48 289.79 83.12 289.79 85.61C289.8 88.08 287.92 89.74 285.75 89.74Z" fill="currentColor"/>
</g>
<defs>
<clipPath id="clip0_7894_29110">
<rect width="290.53" height="261.26" fill="white"/>
</clipPath>
</defs>
</svg>
