<svg width="1509" height="171" viewBox="0 0 1509 171" fill="none" xmlns="http://www.w3.org/2000/svg">
<path d="M446.505 68.3803L456 59.0104V30.5052L427.495 2H332.505L304 30.5052V11.5156L294.505 2H256.505L247.01 11.5156V30.5052L228 49.5156L209.01 30.5052V11.5156L199.495 2H161.495L152 11.5156L142.505 2H104.505L95.0104 11.5156V49.5156L47.4948 2H9.49479L0 11.5156V144.505L9.49479 154H47.4948L57.0104 144.505V106.505L104.505 154H142.505L152 144.505V68.5052L199.495 116V144.505L209.01 154H247.01L256.505 144.505V116L304 68.5052V125.516L332.505 154H427.495L456 125.516V97.0104L446.505 87.4948H398.99V97.0104H361.01V59.0104H398.99V68.3803H446.505Z" fill="currentColor"/>
<path d="M449.233 8.41315C450.128 8.41315 450.899 8.32986 450.899 7.28876C450.899 6.41424 450.045 6.31013 449.337 6.31013H447.9V8.41315H449.233ZM447.921 12.4942H446.734V5.31068H449.462C451.19 5.31068 452.085 5.91452 452.085 7.37205C452.085 8.68383 451.294 9.20438 450.211 9.32931L452.231 12.4942H450.899L449.045 9.4126H447.942V12.4942H447.921ZM449.191 3.41589C446.38 3.41589 444.194 5.62301 444.194 8.78794C444.194 11.7447 446.109 14.16 449.191 14.16C451.981 14.16 454.168 11.9737 454.168 8.78794C454.168 5.62301 451.981 3.41589 449.191 3.41589ZM449.191 15.2844C445.464 15.2844 442.799 12.4942 442.799 8.78794C442.799 4.87342 445.756 2.2915 449.191 2.2915C452.585 2.2915 455.542 4.87342 455.542 8.78794C455.563 12.6816 452.606 15.2844 449.191 15.2844Z" fill="currentColor"/>
<path d="M946.445 40H955.72V11.274H955.826L963.776 40H971.302L979.252 11.274H979.358V40H988.633V2.158H974.111L967.592 27.386H967.486L960.967 2.158H946.445V40ZM1002.61 32.103C1002.61 29.93 1004.31 29.082 1006.32 28.605C1008.28 28.075 1010.62 27.916 1011.89 27.121C1012.1 32.792 1010.67 35.23 1006.38 35.23C1004.36 35.23 1002.61 34.329 1002.61 32.103ZM1003.14 20.973C1003.57 18.641 1005.16 17.528 1007.65 17.528C1009.5 17.528 1011.99 18.323 1011.99 20.39C1011.99 22.086 1011.15 22.616 1009.61 22.934C1003.36 24.206 993.603 23.517 993.603 32.474C993.603 38.145 997.737 40.795 1002.98 40.795C1006.27 40.795 1009.72 39.841 1012.05 37.403C1012.15 38.304 1012.26 39.152 1012.58 40H1021.64C1020.58 37.827 1020.58 35.283 1020.58 32.951V20.92C1020.58 13.129 1014.27 11.698 1007.75 11.698C1004.63 11.698 1001.45 12.228 999.009 13.606C996.571 15.037 994.875 17.369 994.716 20.973H1003.14ZM1052.37 12.493H1043.15L1037.95 30.407H1037.85L1032.65 12.493H1023.11L1030.21 31.626C1030.74 33.11 1032.49 37.35 1032.49 38.834C1032.49 40.742 1030.96 41.908 1028.89 41.908H1025.76V49.222H1030C1036.1 49.222 1039.33 48.48 1041.5 42.438L1052.37 12.493ZM1062.66 26.273C1062.66 22.775 1063.93 18.588 1068.12 18.588C1072.3 18.588 1073.63 22.775 1073.63 26.273C1073.63 29.771 1072.3 33.905 1068.12 33.905C1063.93 33.905 1062.66 29.771 1062.66 26.273ZM1053.65 26.273C1053.65 34.541 1059.58 40.795 1068.12 40.795C1076.65 40.795 1082.64 34.541 1082.64 26.273C1082.64 18.005 1076.65 11.698 1068.12 11.698C1059.58 11.698 1053.65 18.005 1053.65 26.273ZM1087.69 40H1096.7V26.379C1096.7 22.934 1099.03 19.86 1103.48 19.86C1104.7 19.86 1105.76 20.072 1106.93 20.39V12.175C1106.24 12.016 1105.5 11.963 1104.81 11.963C1100.94 11.963 1097.87 13.818 1096.54 17.316H1096.43V12.493H1087.69V40ZM1110.57 12.016H1114.39C1114.55 14.454 1112.91 16.574 1110.57 16.998V21.238C1116.35 20.284 1118.95 16.256 1119 10.956V2.158H1110.57V12.016ZM1120.1 30.937C1120.36 38.622 1127.04 40.795 1133.56 40.795C1139.76 40.795 1146.76 38.357 1146.76 30.99C1146.76 28.711 1145.33 24.683 1139.76 23.57C1135.63 22.669 1129.58 22.192 1129.58 19.595C1129.58 17.687 1131.97 17.528 1133.45 17.528C1134.57 17.528 1135.57 17.74 1136.32 18.217C1137.06 18.694 1137.48 19.436 1137.48 20.602H1145.8C1145.48 13.447 1139.18 11.698 1133.14 11.698C1127.73 11.698 1120.57 13.5 1120.57 20.125C1120.57 27.545 1127.68 27.704 1133.35 29.135C1134.94 29.506 1137.75 29.93 1137.75 32.05C1137.75 34.223 1135.26 34.965 1133.51 34.965C1132.23 34.965 1131.02 34.647 1130.17 34.011C1129.27 33.322 1128.68 32.315 1128.68 30.937H1120.1ZM1166.79 21.079C1166.79 32.05 1173.53 40.795 1185.45 40.795C1197.38 40.795 1204.11 32.05 1204.11 21.079C1204.11 10.108 1197.38 1.363 1185.45 1.363C1173.53 1.363 1166.79 10.108 1166.79 21.079ZM1176.65 21.079C1176.65 15.461 1179.09 9.843 1185.45 9.843C1191.81 9.843 1194.25 15.461 1194.25 21.079C1194.25 26.697 1191.81 32.315 1185.45 32.315C1179.09 32.315 1176.65 26.697 1176.65 21.079ZM1211.07 40H1220.08V18.323H1225.48V12.493H1220.08V11.274C1220.08 8.783 1221.35 8.518 1223.42 8.518C1224.21 8.518 1225.01 8.571 1225.85 8.677V2.317C1224.42 2.264 1222.94 2.158 1221.51 2.158C1213.82 2.158 1211.07 4.596 1211.07 12.493H1206.72V18.323H1211.07V40ZM1246.76 40H1255.77V12.493H1246.76V40ZM1255.77 2.158H1246.76V9.048H1255.77V2.158ZM1229.75 40H1238.76V18.323H1244.17V12.493H1238.76V11.274C1238.76 8.783 1240.03 8.518 1242.1 8.518C1242.9 8.518 1243.69 8.571 1244.54 8.677V2.317C1243.11 2.264 1241.62 2.158 1240.19 2.158C1232.51 2.158 1229.75 4.596 1229.75 12.493H1225.41V18.323H1229.75V40ZM1288.82 22.563C1288.18 15.302 1282.09 11.698 1275.25 11.698C1266.4 11.698 1260.83 17.952 1260.83 26.697C1260.83 35.124 1266.98 40.795 1275.25 40.795C1282.56 40.795 1288.29 36.555 1289.08 29.188H1280.34C1279.91 32.103 1278.32 33.905 1275.2 33.905C1271.38 33.905 1269.84 30.248 1269.84 26.697C1269.84 22.881 1270.64 18.588 1275.67 18.588C1277.95 18.588 1280.02 20.231 1280.07 22.563H1288.82ZM1301.26 23.411C1301.79 20.072 1303.91 17.793 1307.09 17.793C1310.11 17.793 1312.28 20.337 1312.44 23.411H1301.26ZM1321.45 28.446C1321.88 19.118 1316.95 11.698 1307.09 11.698C1298.98 11.698 1292.25 17.74 1292.25 26.167C1292.25 35.389 1298.34 40.795 1307.3 40.795C1313.45 40.795 1319.33 38.039 1320.98 31.679H1312.55C1311.7 33.693 1309.58 34.7 1307.41 34.7C1303.59 34.7 1301.42 32.209 1301.26 28.446H1321.45ZM1350.38 26.273C1350.38 22.775 1351.65 18.588 1355.84 18.588C1360.02 18.588 1361.35 22.775 1361.35 26.273C1361.35 29.771 1360.02 33.905 1355.84 33.905C1351.65 33.905 1350.38 29.771 1350.38 26.273ZM1341.37 26.273C1341.37 34.541 1347.3 40.795 1355.84 40.795C1364.37 40.795 1370.36 34.541 1370.36 26.273C1370.36 18.005 1364.37 11.698 1355.84 11.698C1347.3 11.698 1341.37 18.005 1341.37 26.273ZM1377.05 40H1386.06V18.323H1391.47V12.493H1386.06V11.274C1386.06 8.783 1387.34 8.518 1389.4 8.518C1390.2 8.518 1390.99 8.571 1391.84 8.677V2.317C1390.41 2.264 1388.93 2.158 1387.5 2.158C1379.81 2.158 1377.05 4.596 1377.05 12.493H1372.71V18.323H1377.05V40ZM976.39 59.158H943.954V67.638H955.243V97H965.101V67.638H976.39V59.158ZM982.014 89.103C982.014 86.93 983.71 86.082 985.724 85.605C987.685 85.075 990.017 84.916 991.289 84.121C991.501 89.792 990.07 92.23 985.777 92.23C983.763 92.23 982.014 91.329 982.014 89.103ZM982.544 77.973C982.968 75.641 984.558 74.528 987.049 74.528C988.904 74.528 991.395 75.323 991.395 77.39C991.395 79.086 990.547 79.616 989.01 79.934C982.756 81.206 973.004 80.517 973.004 89.474C973.004 95.145 977.138 97.795 982.385 97.795C985.671 97.795 989.116 96.841 991.448 94.403C991.554 95.304 991.66 96.152 991.978 97H1001.04C999.981 94.827 999.981 92.283 999.981 89.951V77.92C999.981 70.129 993.674 68.698 987.155 68.698C984.028 68.698 980.848 69.228 978.41 70.606C975.972 72.037 974.276 74.369 974.117 77.973H982.544ZM1006.22 97H1015.23V59.158H1006.22V97ZM1029.27 80.411C1029.8 77.072 1031.92 74.793 1035.1 74.793C1038.12 74.793 1040.3 77.337 1040.46 80.411H1029.27ZM1049.47 85.446C1049.89 76.118 1044.96 68.698 1035.1 68.698C1026.99 68.698 1020.26 74.74 1020.26 83.167C1020.26 92.389 1026.36 97.795 1035.31 97.795C1041.46 97.795 1047.35 95.039 1048.99 88.679H1040.56C1039.71 90.693 1037.59 91.7 1035.42 91.7C1031.6 91.7 1029.43 89.209 1029.27 85.446H1049.47ZM1053.99 97H1063V82.001C1063 78.98 1064.48 76.118 1067.87 76.118C1072.8 76.118 1072.38 79.934 1072.38 83.697V97H1081.39V79.351C1081.39 75.376 1080.65 68.698 1071.48 68.698C1068.19 68.698 1064.48 70.447 1062.84 73.256H1062.73V69.493H1053.99V97ZM1103.96 69.493H1098.4V61.172H1089.39V69.493H1084.83V75.323H1089.39V87.566C1089.39 95.039 1091.35 97.265 1099.03 97.265C1100.67 97.265 1102.32 97.053 1103.96 97V90.375C1103.17 90.375 1102.37 90.481 1101.63 90.481C1099.67 90.481 1098.4 90.004 1098.4 87.831V75.323H1103.96V69.493ZM1132.21 89.103C1132.21 86.93 1133.91 86.082 1135.92 85.605C1137.89 85.075 1140.22 84.916 1141.49 84.121C1141.7 89.792 1140.27 92.23 1135.98 92.23C1133.96 92.23 1132.21 91.329 1132.21 89.103ZM1132.74 77.973C1133.17 75.641 1134.76 74.528 1137.25 74.528C1139.1 74.528 1141.6 75.323 1141.6 77.39C1141.6 79.086 1140.75 79.616 1139.21 79.934C1132.96 81.206 1123.2 80.517 1123.2 89.474C1123.2 95.145 1127.34 97.795 1132.59 97.795C1135.87 97.795 1139.32 96.841 1141.65 94.403C1141.75 95.304 1141.86 96.152 1142.18 97H1151.24C1150.18 94.827 1150.18 92.283 1150.18 89.951V77.92C1150.18 70.129 1143.87 68.698 1137.36 68.698C1134.23 68.698 1131.05 69.228 1128.61 70.606C1126.17 72.037 1124.48 74.369 1124.32 77.973H1132.74ZM1156.11 97H1165.12V82.001C1165.12 78.98 1166.6 76.118 1169.99 76.118C1174.92 76.118 1174.5 79.934 1174.5 83.697V97H1183.51V79.351C1183.51 75.376 1182.76 68.698 1173.6 68.698C1170.31 68.698 1166.6 70.447 1164.96 73.256H1164.85V69.493H1156.11V97ZM1202.69 75.588C1206.61 75.588 1208.04 79.245 1208.04 83.22C1208.04 86.718 1207.09 90.905 1202.69 90.905C1198.55 90.905 1197.17 86.718 1197.17 82.955C1197.17 79.457 1198.55 75.588 1202.69 75.588ZM1216.73 59.158H1207.72V72.461H1207.62C1205.76 69.97 1203.16 68.698 1199.77 68.698C1191.98 68.698 1188.16 75.482 1188.16 82.637C1188.16 90.375 1191.82 97.795 1200.46 97.795C1203.64 97.795 1206.29 96.417 1208.04 93.82H1208.15V97H1216.73V59.158ZM1287.61 59.158H1277.75L1272.4 86.824H1272.29L1266.73 59.158H1257.45L1251.89 86.824H1251.78L1246.43 59.158H1236.57L1246.8 97H1256.82L1262.01 70.924H1262.12L1267.31 97H1277.17L1287.61 59.158ZM1296.34 83.273C1296.34 79.775 1297.61 75.588 1301.8 75.588C1305.99 75.588 1307.31 79.775 1307.31 83.273C1307.31 86.771 1305.99 90.905 1301.8 90.905C1297.61 90.905 1296.34 86.771 1296.34 83.273ZM1287.33 83.273C1287.33 91.541 1293.27 97.795 1301.8 97.795C1310.33 97.795 1316.32 91.541 1316.32 83.273C1316.32 75.005 1310.33 68.698 1301.8 68.698C1293.27 68.698 1287.33 75.005 1287.33 83.273ZM1321.38 97H1330.39V83.379C1330.39 79.934 1332.72 76.86 1337.17 76.86C1338.39 76.86 1339.45 77.072 1340.62 77.39V69.175C1339.93 69.016 1339.18 68.963 1338.5 68.963C1334.63 68.963 1331.55 70.818 1330.23 74.316H1330.12V69.493H1321.38V97ZM1343.62 97H1352.63V88.202L1354.97 85.923L1361.7 97H1372.56L1361.22 79.881L1371.29 69.493H1360.85L1352.63 78.662V59.158H1343.62V97ZM1377 97H1386.01V75.323H1391.42V69.493H1386.01V68.274C1386.01 65.783 1387.28 65.518 1389.35 65.518C1390.15 65.518 1390.94 65.571 1391.79 65.677V59.317C1390.36 59.264 1388.87 59.158 1387.44 59.158C1379.76 59.158 1377 61.596 1377 69.493H1372.66V75.323H1377V97ZM1402.34 83.273C1402.34 79.775 1403.61 75.588 1407.8 75.588C1411.99 75.588 1413.31 79.775 1413.31 83.273C1413.31 86.771 1411.99 90.905 1407.8 90.905C1403.61 90.905 1402.34 86.771 1402.34 83.273ZM1393.33 83.273C1393.33 91.541 1399.27 97.795 1407.8 97.795C1416.33 97.795 1422.32 91.541 1422.32 83.273C1422.32 75.005 1416.33 68.698 1407.8 68.698C1399.27 68.698 1393.33 75.005 1393.33 83.273ZM1427.38 97H1436.39V83.379C1436.39 79.934 1438.72 76.86 1443.17 76.86C1444.39 76.86 1445.45 77.072 1446.62 77.39V69.175C1445.93 69.016 1445.18 68.963 1444.5 68.963C1440.63 68.963 1437.55 70.818 1436.23 74.316H1436.12V69.493H1427.38V97ZM1475.35 79.563C1474.72 72.302 1468.62 68.698 1461.78 68.698C1452.93 68.698 1447.37 74.952 1447.37 83.697C1447.37 92.124 1453.52 97.795 1461.78 97.795C1469.1 97.795 1474.82 93.555 1475.62 86.188H1466.87C1466.45 89.103 1464.86 90.905 1461.73 90.905C1457.91 90.905 1456.38 87.248 1456.38 83.697C1456.38 79.881 1457.17 75.588 1462.21 75.588C1464.49 75.588 1466.55 77.231 1466.61 79.563H1475.35ZM1487.79 80.411C1488.32 77.072 1490.44 74.793 1493.62 74.793C1496.65 74.793 1498.82 77.337 1498.98 80.411H1487.79ZM1507.99 85.446C1508.41 76.118 1503.48 68.698 1493.62 68.698C1485.52 68.698 1478.78 74.74 1478.78 83.167C1478.78 92.389 1484.88 97.795 1493.84 97.795C1499.98 97.795 1505.87 95.039 1507.51 88.679H1499.08C1498.24 90.693 1496.12 91.7 1493.94 91.7C1490.13 91.7 1487.95 89.209 1487.79 85.446H1507.99ZM946.392 154H962.663C974.164 154 981.213 147.322 981.213 134.92C981.213 123.207 974.27 116.158 962.663 116.158H946.392V154ZM956.25 124.638H960.914C967.645 124.638 971.355 127.977 971.355 134.867C971.355 142.446 968.387 145.361 960.914 145.52H956.25V124.638ZM993.922 137.411C994.452 134.072 996.572 131.793 999.752 131.793C1002.77 131.793 1004.95 134.337 1005.1 137.411H993.922ZM1014.11 142.446C1014.54 133.118 1009.61 125.698 999.752 125.698C991.643 125.698 984.912 131.74 984.912 140.167C984.912 149.389 991.007 154.795 999.964 154.795C1006.11 154.795 1011.99 152.039 1013.64 145.679H1005.21C1004.36 147.693 1002.24 148.7 1000.07 148.7C996.254 148.7 994.081 146.209 993.922 142.446H1014.11ZM1044.24 126.493H1035.07L1029.98 144.672H1029.87L1024.84 126.493H1015.46L1024.63 154H1035.01L1044.24 126.493ZM1054.79 137.411C1055.32 134.072 1057.44 131.793 1060.62 131.793C1063.64 131.793 1065.81 134.337 1065.97 137.411H1054.79ZM1074.98 142.446C1075.41 133.118 1070.48 125.698 1060.62 125.698C1052.51 125.698 1045.78 131.74 1045.78 140.167C1045.78 149.389 1051.87 154.795 1060.83 154.795C1066.98 154.795 1072.86 152.039 1074.51 145.679H1066.08C1065.23 147.693 1063.11 148.7 1060.94 148.7C1057.12 148.7 1054.95 146.209 1054.79 142.446H1074.98ZM1079.82 154H1088.83V116.158H1079.82V154ZM1102.87 140.273C1102.87 136.775 1104.14 132.588 1108.33 132.588C1112.52 132.588 1113.84 136.775 1113.84 140.273C1113.84 143.771 1112.52 147.905 1108.33 147.905C1104.14 147.905 1102.87 143.771 1102.87 140.273ZM1093.86 140.273C1093.86 148.541 1099.8 154.795 1108.33 154.795C1116.86 154.795 1122.85 148.541 1122.85 140.273C1122.85 132.005 1116.86 125.698 1108.33 125.698C1099.8 125.698 1093.86 132.005 1093.86 140.273ZM1141.79 132.588C1145.77 132.588 1147.14 136.457 1147.14 139.955C1147.14 143.718 1145.77 147.905 1141.74 147.905C1137.66 147.905 1136.28 144.778 1136.28 139.955C1136.28 134.284 1139.35 132.588 1141.79 132.588ZM1127.59 163.222H1136.6V151.032H1136.7C1138.56 153.523 1141.16 154.795 1144.55 154.795C1152.34 154.795 1156.15 148.011 1156.15 140.856C1156.15 133.118 1152.5 125.698 1143.86 125.698C1140.68 125.698 1138.03 127.076 1136.28 129.673H1136.17V126.493H1127.59V163.222ZM1160.97 154H1169.98V140.591C1169.98 134.973 1171.36 133.118 1174.59 133.118C1177.03 133.118 1177.98 135.132 1177.98 138.365V154H1186.99V140.538C1186.99 136.086 1187.37 133.118 1191.23 133.118C1193.57 133.118 1195 134.867 1195 137.835V154H1204.01V137.57C1204.01 132.323 1203.05 125.698 1194.31 125.698C1190.6 125.698 1187.9 127.235 1185.72 130.15C1184.24 126.811 1181.16 125.698 1177.72 125.698C1174.38 125.698 1171.47 127.5 1169.82 130.256H1169.72V126.493H1160.97V154ZM1217.72 137.411C1218.25 134.072 1220.37 131.793 1223.55 131.793C1226.57 131.793 1228.75 134.337 1228.91 137.411H1217.72ZM1237.92 142.446C1238.34 133.118 1233.41 125.698 1223.55 125.698C1215.44 125.698 1208.71 131.74 1208.71 140.167C1208.71 149.389 1214.81 154.795 1223.76 154.795C1229.91 154.795 1235.8 152.039 1237.44 145.679H1229.01C1228.16 147.693 1226.04 148.7 1223.87 148.7C1220.05 148.7 1217.88 146.209 1217.72 142.446H1237.92ZM1242.44 154H1251.45V139.001C1251.45 135.98 1252.93 133.118 1256.32 133.118C1261.25 133.118 1260.83 136.934 1260.83 140.697V154H1269.84V136.351C1269.84 132.376 1269.1 125.698 1259.93 125.698C1256.64 125.698 1252.93 127.447 1251.29 130.256H1251.18V126.493H1242.44V154ZM1292.41 126.493H1286.85V118.172H1277.84V126.493H1273.28V132.323H1277.84V144.566C1277.84 152.039 1279.8 154.265 1287.48 154.265C1289.12 154.265 1290.77 154.053 1292.41 154V147.375C1291.62 147.375 1290.82 147.481 1290.08 147.481C1288.12 147.481 1286.85 147.004 1286.85 144.831V132.323H1292.41V126.493Z" fill="currentColor"/>
<path d="M494.445 40H503.72V11.274H503.826L511.776 40H519.302L527.252 11.274H527.358V40H536.633V2.158H522.111L515.592 27.386H515.486L508.967 2.158H494.445V40ZM550.613 32.103C550.613 29.93 552.309 29.082 554.323 28.605C556.284 28.075 558.616 27.916 559.888 27.121C560.1 32.792 558.669 35.23 554.376 35.23C552.362 35.23 550.613 34.329 550.613 32.103ZM551.143 20.973C551.567 18.641 553.157 17.528 555.648 17.528C557.503 17.528 559.994 18.323 559.994 20.39C559.994 22.086 559.146 22.616 557.609 22.934C551.355 24.206 541.603 23.517 541.603 32.474C541.603 38.145 545.737 40.795 550.984 40.795C554.27 40.795 557.715 39.841 560.047 37.403C560.153 38.304 560.259 39.152 560.577 40H569.64C568.58 37.827 568.58 35.283 568.58 32.951V20.92C568.58 13.129 562.273 11.698 555.754 11.698C552.627 11.698 549.447 12.228 547.009 13.606C544.571 15.037 542.875 17.369 542.716 20.973H551.143ZM600.368 12.493H591.146L585.952 30.407H585.846L580.652 12.493H571.112L578.214 31.626C578.744 33.11 580.493 37.35 580.493 38.834C580.493 40.742 578.956 41.908 576.889 41.908H573.762V49.222H578.002C584.097 49.222 587.33 48.48 589.503 42.438L600.368 12.493ZM610.656 26.273C610.656 22.775 611.928 18.588 616.115 18.588C620.302 18.588 621.627 22.775 621.627 26.273C621.627 29.771 620.302 33.905 616.115 33.905C611.928 33.905 610.656 29.771 610.656 26.273ZM601.646 26.273C601.646 34.541 607.582 40.795 616.115 40.795C624.648 40.795 630.637 34.541 630.637 26.273C630.637 18.005 624.648 11.698 616.115 11.698C607.582 11.698 601.646 18.005 601.646 26.273ZM635.69 40H644.7V26.379C644.7 22.934 647.032 19.86 651.484 19.86C652.703 19.86 653.763 20.072 654.929 20.39V12.175C654.24 12.016 653.498 11.963 652.809 11.963C648.94 11.963 645.866 13.818 644.541 17.316H644.435V12.493H635.69V40ZM658.574 12.016H662.39C662.549 14.454 660.906 16.574 658.574 16.998V21.238C664.351 20.284 666.948 16.256 667.001 10.956V2.158H658.574V12.016ZM668.097 30.937C668.362 38.622 675.04 40.795 681.559 40.795C687.76 40.795 694.756 38.357 694.756 30.99C694.756 28.711 693.325 24.683 687.76 23.57C683.626 22.669 677.584 22.192 677.584 19.595C677.584 17.687 679.969 17.528 681.453 17.528C682.566 17.528 683.573 17.74 684.315 18.217C685.057 18.694 685.481 19.436 685.481 20.602H693.802C693.484 13.447 687.177 11.698 681.135 11.698C675.729 11.698 668.574 13.5 668.574 20.125C668.574 27.545 675.676 27.704 681.347 29.135C682.937 29.506 685.746 29.93 685.746 32.05C685.746 34.223 683.255 34.965 681.506 34.965C680.234 34.965 679.015 34.647 678.167 34.011C677.266 33.322 676.683 32.315 676.683 30.937H668.097ZM714.795 21.079C714.795 32.05 721.526 40.795 733.451 40.795C745.376 40.795 752.107 32.05 752.107 21.079C752.107 10.108 745.376 1.363 733.451 1.363C721.526 1.363 714.795 10.108 714.795 21.079ZM724.653 21.079C724.653 15.461 727.091 9.843 733.451 9.843C739.811 9.843 742.249 15.461 742.249 21.079C742.249 26.697 739.811 32.315 733.451 32.315C727.091 32.315 724.653 26.697 724.653 21.079ZM759.067 40H768.077V18.323H773.483V12.493H768.077V11.274C768.077 8.783 769.349 8.518 771.416 8.518C772.211 8.518 773.006 8.571 773.854 8.677V2.317C772.423 2.264 770.939 2.158 769.508 2.158C761.823 2.158 759.067 4.596 759.067 12.493H754.721V18.323H759.067V40ZM794.765 40H803.775V12.493H794.765V40ZM803.775 2.158H794.765V9.048H803.775V2.158ZM777.752 40H786.762V18.323H792.168V12.493H786.762V11.274C786.762 8.783 788.034 8.518 790.101 8.518C790.896 8.518 791.691 8.571 792.539 8.677V2.317C791.108 2.264 789.624 2.158 788.193 2.158C780.508 2.158 777.752 4.596 777.752 12.493H773.406V18.323H777.752V40ZM836.817 22.563C836.181 15.302 830.086 11.698 823.249 11.698C814.398 11.698 808.833 17.952 808.833 26.697C808.833 35.124 814.981 40.795 823.249 40.795C830.563 40.795 836.287 36.555 837.082 29.188H828.337C827.913 32.103 826.323 33.905 823.196 33.905C819.38 33.905 817.843 30.248 817.843 26.697C817.843 22.881 818.638 18.588 823.673 18.588C825.952 18.588 828.019 20.231 828.072 22.563H836.817ZM849.26 23.411C849.79 20.072 851.91 17.793 855.09 17.793C858.111 17.793 860.284 20.337 860.443 23.411H849.26ZM869.453 28.446C869.877 19.118 864.948 11.698 855.09 11.698C846.981 11.698 840.25 17.74 840.25 26.167C840.25 35.389 846.345 40.795 855.302 40.795C861.45 40.795 867.333 38.039 868.976 31.679H860.549C859.701 33.693 857.581 34.7 855.408 34.7C851.592 34.7 849.419 32.209 849.26 28.446H869.453ZM495.982 97H504.992V75.323H510.398V69.493H504.992V68.274C504.992 65.783 506.264 65.518 508.331 65.518C509.126 65.518 509.921 65.571 510.769 65.677V59.317C509.338 59.264 507.854 59.158 506.423 59.158C498.738 59.158 495.982 61.596 495.982 69.493H491.636V75.323H495.982V97ZM521.322 83.273C521.322 79.775 522.594 75.588 526.781 75.588C530.968 75.588 532.293 79.775 532.293 83.273C532.293 86.771 530.968 90.905 526.781 90.905C522.594 90.905 521.322 86.771 521.322 83.273ZM512.312 83.273C512.312 91.541 518.248 97.795 526.781 97.795C535.314 97.795 541.303 91.541 541.303 83.273C541.303 75.005 535.314 68.698 526.781 68.698C518.248 68.698 512.312 75.005 512.312 83.273ZM546.356 97H555.366V83.379C555.366 79.934 557.698 76.86 562.15 76.86C563.369 76.86 564.429 77.072 565.595 77.39V69.175C564.906 69.016 564.164 68.963 563.475 68.963C559.606 68.963 556.532 70.818 555.207 74.316H555.101V69.493H546.356V97ZM585.693 97H616.38V88.52H595.551V81.312H614.101V73.68H595.551V67.055H615.85V59.158H585.693V97ZM648.263 79.563C647.627 72.302 641.532 68.698 634.695 68.698C625.844 68.698 620.279 74.952 620.279 83.697C620.279 92.124 626.427 97.795 634.695 97.795C642.009 97.795 647.733 93.555 648.528 86.188H639.783C639.359 89.103 637.769 90.905 634.642 90.905C630.826 90.905 629.289 87.248 629.289 83.697C629.289 79.881 630.084 75.588 635.119 75.588C637.398 75.588 639.465 77.231 639.518 79.563H648.263ZM660.706 83.273C660.706 79.775 661.978 75.588 666.165 75.588C670.352 75.588 671.677 79.775 671.677 83.273C671.677 86.771 670.352 90.905 666.165 90.905C661.978 90.905 660.706 86.771 660.706 83.273ZM651.696 83.273C651.696 91.541 657.632 97.795 666.165 97.795C674.698 97.795 680.687 91.541 680.687 83.273C680.687 75.005 674.698 68.698 666.165 68.698C657.632 68.698 651.696 75.005 651.696 83.273ZM685.421 97H694.431V82.001C694.431 78.98 695.915 76.118 699.307 76.118C704.236 76.118 703.812 79.934 703.812 83.697V97H712.822V79.351C712.822 75.376 712.08 68.698 702.911 68.698C699.625 68.698 695.915 70.447 694.272 73.256H694.166V69.493H685.421V97ZM726.49 83.273C726.49 79.775 727.762 75.588 731.949 75.588C736.136 75.588 737.461 79.775 737.461 83.273C737.461 86.771 736.136 90.905 731.949 90.905C727.762 90.905 726.49 86.771 726.49 83.273ZM717.48 83.273C717.48 91.541 723.416 97.795 731.949 97.795C740.482 97.795 746.471 91.541 746.471 83.273C746.471 75.005 740.482 68.698 731.949 68.698C723.416 68.698 717.48 75.005 717.48 83.273ZM751.206 97H760.216V83.591C760.216 77.973 761.594 76.118 764.827 76.118C767.265 76.118 768.219 78.132 768.219 81.365V97H777.229V83.538C777.229 79.086 777.6 76.118 781.469 76.118C783.801 76.118 785.232 77.867 785.232 80.835V97H794.242V80.57C794.242 75.323 793.288 68.698 784.543 68.698C780.833 68.698 778.13 70.235 775.957 73.15C774.473 69.811 771.399 68.698 767.954 68.698C764.615 68.698 761.7 70.5 760.057 73.256H759.951V69.493H751.206V97ZM800.59 97H809.6V69.493H800.59V97ZM809.6 59.158H800.59V66.048H809.6V59.158ZM842.614 79.563C841.978 72.302 835.883 68.698 829.046 68.698C820.195 68.698 814.63 74.952 814.63 83.697C814.63 92.124 820.778 97.795 829.046 97.795C836.36 97.795 842.084 93.555 842.879 86.188H834.134C833.71 89.103 832.12 90.905 828.993 90.905C825.177 90.905 823.64 87.248 823.64 83.697C823.64 79.881 824.435 75.588 829.47 75.588C831.749 75.588 833.816 77.231 833.869 79.563H842.614ZM492.961 135.079C492.961 146.05 499.692 154.795 511.617 154.795C523.542 154.795 530.273 146.05 530.273 135.079C530.273 124.108 523.542 115.363 511.617 115.363C499.692 115.363 492.961 124.108 492.961 135.079ZM502.819 135.079C502.819 129.461 505.257 123.843 511.617 123.843C517.977 123.843 520.415 129.461 520.415 135.079C520.415 140.697 517.977 146.315 511.617 146.315C505.257 146.315 502.819 140.697 502.819 135.079ZM549.476 132.588C553.451 132.588 554.829 136.457 554.829 139.955C554.829 143.718 553.451 147.905 549.423 147.905C545.342 147.905 543.964 144.778 543.964 139.955C543.964 134.284 547.038 132.588 549.476 132.588ZM535.272 163.222H544.282V151.032H544.388C546.243 153.523 548.84 154.795 552.232 154.795C560.023 154.795 563.839 148.011 563.839 140.856C563.839 133.118 560.182 125.698 551.543 125.698C548.363 125.698 545.713 127.076 543.964 129.673H543.858V126.493H535.272V163.222ZM582.86 132.588C586.835 132.588 588.213 136.457 588.213 139.955C588.213 143.718 586.835 147.905 582.807 147.905C578.726 147.905 577.348 144.778 577.348 139.955C577.348 134.284 580.422 132.588 582.86 132.588ZM568.656 163.222H577.666V151.032H577.772C579.627 153.523 582.224 154.795 585.616 154.795C593.407 154.795 597.223 148.011 597.223 140.856C597.223 133.118 593.566 125.698 584.927 125.698C581.747 125.698 579.097 127.076 577.348 129.673H577.242V126.493H568.656V163.222ZM609.725 140.273C609.725 136.775 610.997 132.588 615.184 132.588C619.371 132.588 620.696 136.775 620.696 140.273C620.696 143.771 619.371 147.905 615.184 147.905C610.997 147.905 609.725 143.771 609.725 140.273ZM600.715 140.273C600.715 148.541 606.651 154.795 615.184 154.795C623.717 154.795 629.706 148.541 629.706 140.273C629.706 132.005 623.717 125.698 615.184 125.698C606.651 125.698 600.715 132.005 600.715 140.273ZM634.758 154H643.768V140.379C643.768 136.934 646.1 133.86 650.552 133.86C651.771 133.86 652.831 134.072 653.997 134.39V126.175C653.308 126.016 652.566 125.963 651.877 125.963C648.008 125.963 644.934 127.818 643.609 131.316H643.503V126.493H634.758V154ZM673.595 126.493H668.03V118.172H659.02V126.493H654.462V132.323H659.02V144.566C659.02 152.039 660.981 154.265 668.666 154.265C670.309 154.265 671.952 154.053 673.595 154V147.375C672.8 147.375 672.005 147.481 671.263 147.481C669.302 147.481 668.03 147.004 668.03 144.831V132.323H673.595V126.493ZM704.954 126.493H695.944V141.227C695.944 146.103 692.976 147.375 691.015 147.375C688.153 147.375 686.563 146.103 686.563 142.446V126.493H677.553V143.029C677.553 150.237 679.832 154.795 687.729 154.795C690.909 154.795 694.407 153.046 696.103 150.237H696.209V154H704.954V126.493ZM710.99 154H720V139.001C720 135.98 721.484 133.118 724.876 133.118C729.805 133.118 729.381 136.934 729.381 140.697V154H738.391V136.351C738.391 132.376 737.649 125.698 728.48 125.698C725.194 125.698 721.484 127.447 719.841 130.256H719.735V126.493H710.99V154ZM744.692 154H753.702V126.493H744.692V154ZM753.702 116.158H744.692V123.048H753.702V116.158ZM776.645 126.493H771.08V118.172H762.07V126.493H757.512V132.323H762.07V144.566C762.07 152.039 764.031 154.265 771.716 154.265C773.359 154.265 775.002 154.053 776.645 154V147.375C775.85 147.375 775.055 147.481 774.313 147.481C772.352 147.481 771.08 147.004 771.08 144.831V132.323H776.645V126.493ZM806.52 126.493H797.298L792.104 144.407H791.998L786.804 126.493H777.264L784.366 145.626C784.896 147.11 786.645 151.35 786.645 152.834C786.645 154.742 785.108 155.908 783.041 155.908H779.914V163.222H784.154C790.249 163.222 793.482 162.48 795.655 156.438L806.52 126.493Z" fill="currentColor"/>
<line x1="907.5" y1="2" x2="907.5" y2="154" stroke="currentColor"/>
</svg>
