<svg width="1071" height="200" viewBox="0 0 1071 200" fill="none" xmlns="http://www.w3.org/2000/svg">
<path d="M1060.6 87.35L1071 75.01V37.4856L1039.77 0H935.741L904.511 37.4856V12.4952L894.111 7.74211e-05H852.477L842.076 12.4952V37.4856L821.282 62.5144L800.482 37.4856V12.4952L790.047 7.74211e-05H748.417L738.017 12.4952L727.617 7.74211e-05H685.988L675.588 12.4952V62.5144L623.558 0H581.928L571.528 12.4952V187.505L581.928 200H623.558L633.988 187.505V137.524L685.988 200H727.617L738.017 187.505V87.505L790.047 150.019V187.505L800.482 200H842.076L852.477 187.505V150.019L904.511 87.505V162.514L935.741 200H1039.77L1071 162.514V125.029L1060.6 112.495H1008.54V125.029H966.941V75.01H1008.54V87.35H1060.6Z" fill="#2D31A6"/>
<path d="M59.8869 185.778C51.9898 185.778 44.4582 184.719 37.2922 182.6C30.2725 180.319 23.984 176.896 18.4268 172.333C12.8695 167.77 8.40903 162.148 5.04542 155.467C1.82805 148.785 0.146244 140.881 0 131.756C0 130.289 0.438732 129.067 1.3162 128.089C2.19366 126.948 3.29049 126.378 4.60669 126.378H25.4465C27.3476 126.378 28.737 126.948 29.6144 128.089C30.6381 129.23 31.4425 130.778 32.0274 132.733C32.7587 138.6 34.4405 143.407 37.0729 147.156C39.7053 150.741 42.9958 153.43 46.9443 155.222C51.0392 156.852 55.5727 157.667 60.545 157.667C69.7584 157.667 76.7781 154.326 81.6042 147.644C86.5765 140.963 89.0626 131.674 89.0626 119.778V41.0667H14.6975C13.0888 41.0667 11.7726 40.4963 10.7489 39.3555C9.87147 38.2148 9.43274 36.8296 9.43274 35.2V18.0889C9.43274 16.4592 9.87147 15.0741 10.7489 13.9333C11.7726 12.7926 13.0888 12.2222 14.6975 12.2222H114.948C116.557 12.2222 117.873 12.7926 118.896 13.9333C119.92 15.0741 120.432 16.5407 120.432 18.3333V120.756C120.432 134.281 117.873 145.933 112.754 155.711C107.782 165.489 100.762 172.985 91.695 178.2C82.7741 183.252 72.1714 185.778 59.8869 185.778Z" fill="black"/>
<path d="M201.234 185.778C189.535 185.778 179.663 183.496 171.62 178.933C163.723 174.37 157.653 167.933 153.412 159.622C149.317 151.311 146.978 141.615 146.393 130.533C146.246 127.6 146.173 124.015 146.173 119.778C146.173 115.541 146.246 111.956 146.393 109.022C146.978 97.7778 149.391 88.0815 153.632 79.9333C158.019 71.6222 164.161 65.1852 172.058 60.6222C180.102 56.0592 189.827 53.7778 201.234 53.7778C212.641 53.7778 222.293 56.0592 230.19 60.6222C238.234 65.1852 244.376 71.6222 248.617 79.9333C253.005 88.0815 255.491 97.7778 256.076 109.022C256.222 111.956 256.295 115.541 256.295 119.778C256.295 124.015 256.222 127.6 256.076 130.533C255.491 141.615 253.078 151.311 248.837 159.622C244.742 167.933 238.673 174.37 230.629 178.933C222.732 183.496 212.934 185.778 201.234 185.778ZM201.234 161.578C208.985 161.578 214.981 158.889 219.222 153.511C223.463 147.97 225.803 139.904 226.242 129.311C226.388 126.867 226.461 123.689 226.461 119.778C226.461 115.867 226.388 112.689 226.242 110.244C225.803 99.8148 223.463 91.8296 219.222 86.2889C214.981 80.7481 208.985 77.9778 201.234 77.9778C193.483 77.9778 187.487 80.7481 183.246 86.2889C179.005 91.8296 176.665 99.8148 176.226 110.244C176.08 112.689 176.007 115.867 176.007 119.778C176.007 123.689 176.08 126.867 176.226 129.311C176.665 139.904 179.005 147.97 183.246 153.511C187.487 158.889 193.483 161.578 201.234 161.578Z" fill="black"/>
<path d="M343.777 185.778C335.295 185.778 328.202 184.148 322.499 180.889C316.942 177.63 312.335 173.474 308.679 168.422V177.467C308.679 179.096 308.167 180.481 307.143 181.622C306.266 182.763 305.023 183.333 303.414 183.333H286.084C284.622 183.333 283.379 182.763 282.355 181.622C281.331 180.481 280.819 179.096 280.819 177.467V15.6444C280.819 14.0148 281.331 12.6296 282.355 11.4889C283.379 10.3481 284.622 9.77777 286.084 9.77777H304.73C306.339 9.77777 307.582 10.3481 308.46 11.4889C309.483 12.6296 309.995 14.0148 309.995 15.6444V69.9111C313.651 65.1852 318.185 61.3555 323.596 58.4222C329.153 55.3259 335.88 53.7778 343.777 53.7778C351.528 53.7778 358.256 55.2444 363.959 58.1778C369.663 61.1111 374.416 65.2667 378.218 70.6444C382.167 75.8592 385.165 81.9704 387.212 88.9778C389.259 95.9852 390.356 103.563 390.502 111.711C390.649 114.644 390.722 117.333 390.722 119.778C390.722 122.059 390.649 124.667 390.502 127.6C390.21 136.074 389.04 143.896 386.993 151.067C384.945 158.074 382.02 164.185 378.218 169.4C374.416 174.615 369.663 178.689 363.959 181.622C358.256 184.393 351.528 185.778 343.777 185.778ZM335.661 159.622C341.949 159.622 346.849 158.156 350.358 155.222C353.868 152.126 356.354 148.133 357.817 143.244C359.426 138.356 360.376 132.978 360.669 127.111C360.961 122.222 360.961 117.333 360.669 112.444C360.376 106.578 359.426 101.2 357.817 96.3111C356.354 91.4222 353.868 87.5111 350.358 84.5778C346.849 81.4815 341.949 79.9333 335.661 79.9333C329.811 79.9333 325.058 81.4 321.402 84.3333C317.746 87.2667 314.967 91.0148 313.066 95.5778C311.165 99.9778 310.141 104.622 309.995 109.511C309.849 112.444 309.776 115.622 309.776 119.044C309.776 122.304 309.849 125.4 309.995 128.333C310.288 133.385 311.238 138.356 312.847 143.244C314.602 147.97 317.307 151.881 320.963 154.978C324.766 158.074 329.665 159.622 335.661 159.622Z" fill="black"/>
<path d="M458.348 185.778C449.574 185.778 442.042 184.637 435.754 182.356C429.611 180.074 424.566 177.222 420.617 173.8C416.669 170.378 413.744 166.956 411.843 163.533C409.941 160.111 408.918 157.259 408.772 154.978C408.625 153.185 409.064 151.8 410.088 150.822C411.258 149.681 412.501 149.111 413.817 149.111H431.147C431.732 149.111 432.244 149.193 432.682 149.356C433.121 149.519 433.706 150.007 434.437 150.822C436.339 152.615 438.313 154.489 440.36 156.444C442.554 158.4 445.113 160.111 448.038 161.578C450.963 162.881 454.619 163.533 459.006 163.533C464.71 163.533 469.463 162.311 473.265 159.867C477.214 157.259 479.188 153.593 479.188 148.867C479.188 145.444 478.311 142.674 476.556 140.556C474.947 138.437 471.876 136.563 467.342 134.933C462.809 133.141 456.374 131.267 448.038 129.311C439.848 127.193 433.048 124.504 427.637 121.244C422.226 117.985 418.204 113.911 415.572 109.022C412.939 104.133 411.623 98.4296 411.623 91.9111C411.623 85.5555 413.305 79.5259 416.669 73.8222C420.179 67.9555 425.297 63.1481 432.024 59.4C438.898 55.6518 447.38 53.7778 457.471 53.7778C465.368 53.7778 472.241 54.9185 478.091 57.2C483.941 59.3185 488.767 62.0074 492.569 65.2667C496.518 68.5259 499.516 71.8667 501.563 75.2889C503.611 78.5481 504.708 81.4 504.854 83.8444C505 85.637 504.561 87.1037 503.538 88.2444C502.514 89.2222 501.344 89.7111 500.028 89.7111H483.795C483.064 89.7111 482.405 89.5481 481.82 89.2222C481.235 88.8963 480.651 88.4889 480.066 88C478.457 86.3704 476.702 84.6593 474.801 82.8667C472.9 81.0741 470.56 79.5259 467.781 78.2222C465.149 76.7556 461.639 76.0222 457.251 76.0222C451.694 76.0222 447.453 77.4074 444.528 80.1778C441.603 82.7852 440.141 86.1259 440.141 90.2C440.141 92.9704 440.799 95.4148 442.115 97.5333C443.578 99.4889 446.429 101.363 450.67 103.156C454.912 104.948 461.346 106.822 469.975 108.778C479.773 110.733 487.524 113.667 493.227 117.578C499.077 121.326 503.172 125.726 505.512 130.778C507.998 135.667 509.241 141.126 509.241 147.156C509.241 154.489 507.267 161.089 503.318 166.956C499.516 172.822 493.812 177.467 486.208 180.889C478.749 184.148 469.463 185.778 458.348 185.778Z" fill="black"/>
</svg>
