<svg width="156" height="72" viewBox="0 0 156 72" fill="none" xmlns="http://www.w3.org/2000/svg">
<g id="logo">
<path id="Vector" d="M13.8326 34.5849C12.979 34.5849 12.1947 34.4151 11.4797 34.0762C10.7644 33.7373 10.1785 33.2478 9.7218 32.6078L11.3445 30.554C11.6808 31.0404 12.0445 31.4051 12.4353 31.6481C12.8257 31.8913 13.2435 32.0128 13.6883 32.0128C14.8783 32.0128 15.4733 31.2771 15.4733 29.8054V23.4135H11.056V20.9182H18.3941V29.6326C18.3941 31.2963 18.0064 32.5376 17.2312 33.3564C16.4559 34.1755 15.3228 34.5849 13.8326 34.5849Z" fill="#071F42"/>
<path id="Vector_2" d="M24.8935 34.5082C23.8718 34.5082 22.9613 34.2778 22.1621 33.8172C21.3625 33.3565 20.7346 32.7263 20.278 31.9265C19.821 31.1269 19.5928 30.2151 19.5928 29.1912C19.5928 28.1547 19.821 27.2366 20.278 26.4368C20.7346 25.6372 21.3625 25.0101 22.1621 24.5557C22.9613 24.1016 23.8718 23.8743 24.8935 23.8743C25.9272 23.8743 26.8467 24.1016 27.6521 24.5557C28.4572 25.0101 29.0883 25.6372 29.5452 26.4368C30.0019 27.2366 30.2303 28.1547 30.2303 29.1912C30.2303 30.2277 30.0019 31.1428 29.5452 31.9361C29.0883 32.7296 28.4572 33.3565 27.6521 33.8172C26.8467 34.2778 25.9272 34.5082 24.8935 34.5082ZM24.8935 32.0512C25.3741 32.0512 25.7978 31.9394 26.1646 31.7153C26.5312 31.4916 26.8255 31.162 27.0481 30.7268C27.2704 30.2919 27.3816 29.7799 27.3816 29.1912C27.3816 28.5899 27.2704 28.0779 27.0481 27.6556C26.8255 27.2333 26.5312 26.9103 26.1646 26.6863C25.7978 26.4626 25.3804 26.3504 24.9116 26.3504C24.4428 26.3504 24.0219 26.4626 23.6495 26.6863C23.2768 26.9103 22.9793 27.2334 22.757 27.6556C22.5345 28.0779 22.4235 28.5899 22.4235 29.1912C22.4235 29.78 22.5345 30.2919 22.757 30.7268C22.9793 31.162 23.2768 31.4916 23.6495 31.7153C24.0219 31.9394 24.4366 32.0512 24.8935 32.0512Z" fill="#071F42"/>
<path id="Vector_3" d="M31.5646 34.3546V20.1121H34.3773V26.12L34.197 29.172L34.2511 32.2431V34.3546H31.5646ZM37.2801 34.5081C36.4507 34.5081 35.7264 34.3195 35.1075 33.9419C34.4883 33.5646 34.0167 32.9791 33.6921 32.1856C33.3676 31.3923 33.2054 30.3942 33.2054 29.1912C33.2054 27.9756 33.3766 26.9775 33.7192 26.1968C34.0618 25.4164 34.5395 24.834 35.1525 24.4501C35.7656 24.0662 36.4746 23.8742 37.2801 23.8742C38.2055 23.8742 39.0317 24.095 39.7591 24.5365C40.4862 24.9779 41.0632 25.5955 41.49 26.3887C41.9165 27.1823 42.13 28.1163 42.13 29.1912C42.13 30.2661 41.9165 31.2003 41.49 31.9936C41.0632 32.7872 40.4862 33.4044 39.7591 33.8459C39.0317 34.2874 38.2055 34.5081 37.2801 34.5081ZM36.8113 32.0512C37.2801 32.0512 37.6975 31.9393 38.0643 31.7153C38.4309 31.4916 38.7252 31.1619 38.9478 30.7268C39.1701 30.2919 39.2813 29.7799 39.2813 29.1912C39.2813 28.5899 39.1701 28.0779 38.9478 27.6556C38.7252 27.2333 38.4309 26.9103 38.0643 26.6863C37.6975 26.4625 37.2801 26.3504 36.8113 26.3504C36.3425 26.3504 35.9216 26.4625 35.5492 26.6863C35.1765 26.9103 34.879 27.2333 34.6567 27.6556C34.4342 28.0779 34.3232 28.5899 34.3232 29.1912C34.3232 29.7799 34.4342 30.2919 34.6567 30.7268C34.879 31.1619 35.1765 31.4916 35.5492 31.7153C35.9216 31.9393 36.3425 32.0512 36.8113 32.0512Z" fill="#071F42"/>
<path id="Vector_4" d="M47.0028 34.3545V20.9182H52.4658C53.5955 20.9182 54.5691 21.1135 55.3866 21.5036C56.2038 21.8941 56.8349 22.4538 57.2797 23.1832C57.7243 23.9126 57.9468 24.7764 57.9468 25.7745C57.9468 26.7855 57.7243 27.6526 57.2797 28.3754C56.8349 29.0985 56.2038 29.6488 55.3866 30.0261C54.5691 30.4037 53.5955 30.5924 52.4658 30.5924H48.6074L49.9416 29.2487V34.3545H47.0028ZM49.9416 29.5942L48.6074 28.1162H52.3035C53.1929 28.1162 53.8659 27.9117 54.3228 27.502C54.7795 27.0926 55.008 26.5168 55.008 25.7745C55.008 25.0322 54.7795 24.4596 54.3228 24.0566C53.8659 23.6535 53.1929 23.4519 52.3035 23.4519H48.6074L49.9416 21.9739V29.5942ZM55.044 34.3545L51.8708 29.4791H55.008L58.1812 34.3545H55.044Z" fill="#071F42"/>
<path id="Vector_5" d="M64.4191 34.508C63.3132 34.508 62.3457 34.2777 61.5164 33.817C60.687 33.3564 60.0439 32.7262 59.5872 31.9263C59.1303 31.1268 58.9021 30.215 58.9021 29.1911C58.9021 28.1672 59.1213 27.2524 59.5602 26.4462C59.9988 25.6401 60.6118 25.0099 61.3992 24.5556C62.1863 24.1015 63.0729 23.8741 64.0586 23.8741C65.0079 23.8741 65.8643 24.0919 66.6278 24.5268C67.391 24.9619 67.995 25.5762 68.4398 26.3695C68.8843 27.163 69.1069 28.1162 69.1069 29.2295C69.1069 29.3446 69.1007 29.476 69.0889 29.623C69.0768 29.7702 69.0646 29.9079 69.0528 30.0357H61.1738V28.2889H67.5743L66.4746 28.8072C66.4864 28.2697 66.3903 27.8028 66.1861 27.406C65.9816 27.0095 65.6993 26.6991 65.3387 26.475C64.9781 26.2513 64.5572 26.1391 64.0766 26.1391C63.5957 26.1391 63.172 26.2513 62.8055 26.475C62.4387 26.6991 62.1533 27.0125 61.9491 27.4156C61.7446 27.8187 61.6426 28.2955 61.6426 28.8456V29.3063C61.6426 29.8821 61.7626 30.3812 62.0032 30.8035C62.2435 31.2257 62.5739 31.5491 62.9948 31.7728C63.4154 31.9968 63.9202 32.1087 64.5093 32.1087C65.0141 32.1087 65.4618 32.0256 65.8525 31.8592C66.243 31.693 66.6008 31.4435 66.9253 31.1106L68.4218 32.8381C67.9769 33.3756 67.418 33.7882 66.745 34.0762C66.0717 34.3641 65.2964 34.508 64.4191 34.508Z" fill="#071F42"/>
<path id="Vector_6" d="M73.4342 34.508C72.6887 34.508 72.0459 34.3704 71.505 34.0954C70.9641 33.8203 70.5463 33.446 70.2519 32.9725C69.9572 32.4992 69.8102 31.968 69.8102 31.3793C69.8102 30.778 69.9513 30.2438 70.2339 29.7765C70.5162 29.3096 70.9641 28.9482 71.5771 28.692C72.1901 28.4362 72.9953 28.3081 73.9931 28.3081H76.5533V30.0357H74.2816C73.6204 30.0357 73.1665 30.1508 72.9203 30.3812C72.6738 30.6115 72.5507 30.8994 72.5507 31.2449C72.5507 31.6288 72.6919 31.933 72.9744 32.1567C73.2567 32.3807 73.6384 32.4926 74.1193 32.4926C74.5999 32.4926 75.0298 32.3774 75.4084 32.1471C75.787 31.9168 76.0544 31.565 76.2107 31.0914L76.6435 32.4926C76.4389 33.1326 76.0665 33.6284 75.5256 33.9802C74.9847 34.3323 74.2874 34.508 73.4342 34.508ZM76.391 34.3545V32.339L76.2107 31.8976V28.2889C76.2107 27.6492 76.0273 27.1502 75.6608 26.7918C75.294 26.4337 74.7323 26.2543 73.975 26.2543C73.4581 26.2543 72.9502 26.3407 72.4516 26.5134C71.9526 26.6862 71.523 26.9198 71.1624 27.214L70.1708 25.1218C70.6996 24.7124 71.3365 24.402 72.0819 24.1909C72.8271 23.9797 73.5843 23.8741 74.3536 23.8741C75.8321 23.8741 76.9798 24.2454 77.7973 24.9874C78.6146 25.7297 79.0234 26.8877 79.0234 28.4617V34.3545H76.391Z" fill="#071F42"/>
<path id="Vector_7" d="M84.9911 34.5081C84.0776 34.5081 83.2541 34.2874 82.5211 33.8459C81.7877 33.4044 81.2108 32.7872 80.7902 31.9936C80.3693 31.2003 80.1592 30.2661 80.1592 29.1912C80.1592 28.1163 80.3693 27.1823 80.7902 26.3887C81.2108 25.5955 81.7877 24.9779 82.5211 24.5365C83.2541 24.095 84.0776 23.8742 84.9911 23.8742C85.8084 23.8742 86.5237 24.0662 87.1367 24.4501C87.7497 24.834 88.2244 25.4164 88.561 26.1968C88.8974 26.9775 89.0658 27.9756 89.0658 29.1912C89.0658 30.3942 88.9036 31.3923 88.579 32.1856C88.2545 32.9792 87.7886 33.5646 87.1817 33.9419C86.5746 34.3195 85.8444 34.5081 84.9911 34.5081ZM85.4599 32.0512C85.9287 32.0512 86.3493 31.9393 86.722 31.7153C87.0944 31.4916 87.3919 31.1619 87.6145 30.7268C87.8367 30.2919 87.948 29.7799 87.948 29.1912C87.948 28.5899 87.8367 28.0779 87.6145 27.6556C87.3919 27.2333 87.0944 26.9103 86.722 26.6863C86.3493 26.4625 85.9287 26.3504 85.4599 26.3504C85.003 26.3504 84.5883 26.4625 84.2159 26.6863C83.8432 26.9103 83.5456 27.2333 83.3234 27.6556C83.1008 28.0779 82.9898 28.5899 82.9898 29.1912C82.9898 29.7799 83.1008 30.2919 83.3234 30.7268C83.5456 31.1619 83.8432 31.4916 84.2159 31.7153C84.5883 31.9393 85.003 32.0512 85.4599 32.0512ZM88.0201 34.3546V32.2431L88.0742 29.172L87.8939 26.12V20.1121H90.7065V34.3546H88.0201Z" fill="#071F42"/>
<path id="Vector_8" d="M94.3934 38.2318C93.9004 38.2318 93.4076 38.1485 92.9149 37.9823C92.4219 37.8158 91.9233 37.5855 91.5988 37.2913L92.7166 35.1415C92.9329 35.3589 93.1823 35.5254 93.4648 35.6405C93.7471 35.7557 94.0328 35.8133 94.3213 35.8133C94.7058 35.8133 95.0154 35.714 95.2498 35.5158C95.4842 35.3172 95.6974 34.9879 95.8898 34.5272L96.3947 33.2604L96.611 32.9341L100.109 24.0277H102.795L98.414 34.9879C98.1013 35.8325 97.7438 36.4881 97.3412 36.9554C96.9384 37.4223 96.4938 37.752 96.007 37.9439C95.5202 38.1359 94.9821 38.2318 94.3934 38.2318ZM96.0521 34.7576L91.6529 24.0277H94.6278L97.9993 32.6845L96.0521 34.7576Z" fill="#071F42"/>
<path id="Vector_9" d="M144.063 26.9922L144.853 26.1617V23.6361L142.481 21.1132H134.579L132.207 23.6361V21.9541L131.417 21.1132H128.255L127.465 21.9541V23.6361L125.885 25.3207L124.305 23.6361V21.9541L123.513 21.1132H120.351L119.561 21.9541L118.771 21.1132H115.609L114.819 21.9541V25.3207L110.866 21.1132H107.704L106.914 21.9541V33.7331L107.704 34.5741H110.866L111.659 33.7331V30.3692L115.609 34.5741H118.771L119.561 33.7331V27.0026L123.513 31.2102V33.7331L124.305 34.5741H127.465L128.255 33.7331V31.2102L132.207 27.0026V32.0511L134.579 34.5741H142.481L144.853 32.0511V29.5282L144.063 28.6846H140.109V29.5282H136.949V26.1617H140.109V26.9922L144.063 26.9922Z" fill="#004CBE"/>
<path id="Vector_10" d="M144.742 21.6808C144.818 21.6808 144.882 21.673 144.882 21.5819C144.882 21.5038 144.811 21.496 144.752 21.496H144.632V21.6834H144.742V21.6808ZM144.632 22.0428H144.535V21.4075H144.762C144.906 21.4075 144.98 21.4621 144.98 21.5897C144.98 21.7069 144.914 21.7511 144.823 21.7642L144.992 22.0454H144.882L144.728 21.772H144.637V22.0454L144.632 22.0428ZM144.738 21.2382C144.503 21.2382 144.322 21.4335 144.322 21.7147C144.322 21.9777 144.481 22.1912 144.738 22.1912C144.97 22.1912 145.151 21.9985 145.151 21.7147C145.151 21.4309 144.97 21.2382 144.738 21.2382ZM144.738 22.2901C144.427 22.2901 144.207 22.0427 144.207 21.7147C144.207 21.3684 144.451 21.1393 144.738 21.1393C145.024 21.1393 145.266 21.3684 145.266 21.7147C145.266 22.0584 145.021 22.2901 144.738 22.2901Z" fill="#004CBE"/>
<path id="Vector_11" d="M97.3937 58.5692L72.9645 48.9394L48.5353 58.5692L47.0669 57.4176V40.798H49.2232V55.6128L72.5743 46.4626H73.3547L96.7057 55.6128V40.798H98.862V57.4176L97.3937 58.5692Z" fill="#071F42"/>
</g>
</svg>
