<svg width="56" height="20" viewBox="0 0 56 20" fill="none" xmlns="http://www.w3.org/2000/svg">
<g clip-path="url(#clip0_605_1380)">
<path d="M54.2652 1.30887C54.3105 1.20819 54.3709 1.12765 54.4464 1.06221C54.5219 0.996767 54.6075 0.941394 54.7082 0.906157C54.8088 0.87092 54.9095 0.850784 55.0152 0.850784C55.1209 0.850784 55.2216 0.865886 55.3223 0.906157C55.423 0.941394 55.5085 0.996767 55.5841 1.06221C55.6596 1.13268 55.7149 1.21322 55.7653 1.30887C55.8106 1.40954 55.8307 1.51526 55.8307 1.63104C55.8307 1.74681 55.8055 1.86259 55.7653 1.95824C55.725 2.05388 55.6596 2.13946 55.5841 2.2049C55.5085 2.27537 55.423 2.32571 55.3223 2.36095C55.2216 2.39618 55.1209 2.41632 55.0152 2.41632C54.9095 2.41632 54.8088 2.40122 54.7082 2.36095C54.6075 2.32571 54.5219 2.27537 54.4464 2.2049C54.3709 2.13442 54.3155 2.05388 54.2652 1.95824C54.2148 1.86259 54.1997 1.75185 54.1997 1.63104C54.1997 1.51022 54.2249 1.40451 54.2652 1.30887ZM54.4615 1.88273C54.4917 1.95824 54.537 2.02871 54.5873 2.07905C54.6377 2.13442 54.7031 2.17973 54.7786 2.2049C54.8541 2.23007 54.9297 2.2502 55.0102 2.2502C55.0907 2.2502 55.1662 2.2351 55.2417 2.2049C55.3173 2.17469 55.3726 2.12939 55.433 2.07905C55.4834 2.02368 55.5337 1.95824 55.5589 1.88273C55.5841 1.80722 55.6042 1.72668 55.6042 1.63607C55.6042 1.54546 55.5891 1.46492 55.5589 1.38941C55.5287 1.3139 55.4834 1.24846 55.433 1.19309C55.3827 1.13772 55.3173 1.09241 55.2417 1.06724C55.1662 1.04207 55.0907 1.02194 55.0102 1.02194C54.9297 1.02194 54.8491 1.03704 54.7786 1.06724C54.7082 1.09744 54.6478 1.14275 54.5873 1.19309C54.537 1.24343 54.4867 1.3139 54.4615 1.38941C54.4313 1.46492 54.4162 1.54546 54.4162 1.63607C54.4162 1.72668 54.4313 1.80722 54.4615 1.88273ZM55.0253 1.18805C55.136 1.18805 55.2216 1.20316 55.277 1.24343C55.3324 1.2837 55.3676 1.35417 55.3676 1.44478C55.3676 1.48505 55.3626 1.52029 55.3525 1.55049C55.3424 1.5807 55.3223 1.60083 55.3022 1.62097C55.277 1.63607 55.2569 1.6562 55.2266 1.66124C55.1964 1.67131 55.1713 1.67634 55.136 1.67634L55.3726 2.06395H55.1864L54.975 1.68641H54.8642V2.06395H54.6931V1.19309H55.0303L55.0253 1.18805ZM55.0253 1.55049C55.0756 1.55049 55.1159 1.54546 55.1511 1.52532C55.1864 1.50519 55.1964 1.48002 55.1964 1.41961C55.1964 1.39444 55.1964 1.37934 55.1813 1.36424C55.1662 1.34914 55.1562 1.33907 55.1411 1.329C55.126 1.32397 55.1058 1.31893 55.0857 1.3139C55.0656 1.30887 55.0454 1.3139 55.0203 1.3139H54.8692V1.54546H55.0253V1.55049Z" fill="#080707"/>
<path d="M52.604 19.144H40.3868C40.3868 19.144 40.3415 19.0937 40.3113 19.0635C39.2995 18.0517 38.2877 17.0348 37.2708 16.0331C37.2155 15.9777 37.1903 15.9173 37.1903 15.8368V9.01085L37.1399 8.97561C37.1248 9.01085 37.1097 9.05615 37.0896 9.08132C35.212 10.959 33.3343 12.8416 31.4517 14.7193C31.4013 14.7696 31.3762 14.825 31.3762 14.9005V18.1775C31.3762 18.253 31.351 18.3034 31.3006 18.3588L30.5053 19.1541H25.255C25.255 19.1541 25.2147 19.0987 25.1895 19.0736C24.958 18.842 24.7264 18.6054 24.4898 18.3739C24.4244 18.3084 24.3992 18.248 24.3992 18.1624V14.9106C24.3992 14.835 24.3841 14.7847 24.3287 14.7293C22.4461 12.8467 20.5634 10.964 18.6757 9.08132C18.6505 9.05615 18.6253 9.03602 18.5851 9.00078V18.1675C18.5851 18.248 18.5599 18.3084 18.5045 18.3638C18.2377 18.6256 17.981 18.8873 17.7192 19.1541H12.4689C12.338 19.0132 12.2072 18.8772 12.0712 18.7464L7.06253 13.7377C7.03233 13.7075 7.00716 13.6873 6.95682 13.647V18.1775C6.95682 18.2581 6.93165 18.3185 6.87628 18.3739C6.63968 18.6054 6.40309 18.842 6.17153 19.0786C6.14636 19.1038 6.13126 19.134 6.10609 19.1591H0.870861C0.604065 18.8873 0.332236 18.6205 0.0704743 18.3487C0.0352371 18.3084 0.00503388 18.243 0.00503388 18.1926C0 12.8265 0 7.47048 0 2.11444C0 2.04396 0.0251694 1.99362 0.0755082 1.94832C0.412778 1.60602 0.750048 1.27378 1.08732 0.931476C1.14269 0.876103 1.19806 0.855968 1.2786 0.855968H5.68828C5.77386 0.855968 5.83426 0.881137 5.89467 0.941544L11.5074 6.55432C11.5376 6.58452 11.5527 6.62982 11.5779 6.66506L11.6182 6.63486V2.11947C11.6182 2.03893 11.6434 1.98859 11.6937 1.92818C12.036 1.59091 12.3733 1.24861 12.7156 0.91134C12.7558 0.876103 12.8213 0.8459 12.8716 0.8459H17.3316C17.382 0.8459 17.4525 0.876103 17.4877 0.91134C17.83 1.24861 18.1622 1.58085 18.5045 1.92315C18.5347 1.95335 18.5599 1.97349 18.5901 2.00369L19.6875 0.906307C19.7227 0.871069 19.7882 0.840866 19.8385 0.840866H24.3086C24.3589 0.840866 24.4294 0.871069 24.4646 0.91134C24.812 1.25364 25.1543 1.59091 25.4916 1.93825C25.5268 1.97852 25.557 2.04396 25.557 2.0943V4.2186C25.557 4.29411 25.5822 4.34444 25.6325 4.39982C26.3624 5.11966 27.0873 5.84957 27.8122 6.57949C27.8373 6.60465 27.8575 6.62479 27.9028 6.66506C27.9279 6.62982 27.9431 6.58955 27.9733 6.56438C28.6881 5.84957 29.4079 5.1247 30.1278 4.40988C30.1831 4.35451 30.2083 4.28907 30.2083 4.20853V2.1094C30.2083 2.05403 30.2385 1.98356 30.2788 1.94329C30.6211 1.59595 30.9684 1.24861 31.3107 0.91134C31.346 0.876103 31.4013 0.855968 31.4517 0.855968H35.9318C35.9822 0.855968 36.0426 0.886171 36.0828 0.921408C36.4302 1.26371 36.7725 1.60098 37.1097 1.94329C37.1601 1.99362 37.1852 2.049 37.1802 2.1245V4.32934C37.2306 4.28404 37.2608 4.25383 37.291 4.22363C38.3883 3.12625 39.4908 2.02886 40.5881 0.926442C40.6435 0.871069 40.6989 0.850934 40.7794 0.850934H52.1812C52.2617 0.850934 52.312 0.876103 52.3725 0.931476C53.4296 1.98859 54.4867 3.05074 55.5488 4.10785V8.07455C55.5488 8.07455 55.4935 8.11482 55.4683 8.13999C55.2166 8.38665 54.9548 8.64338 54.7082 8.89507C54.6578 8.95044 54.5974 8.97561 54.5169 8.97561H48.8034V7.83795H44.1672V12.4691H48.8135V11.3164H54.537C54.5874 11.3164 54.6478 11.3466 54.688 11.3818C54.985 11.6637 55.2669 11.9607 55.5539 12.2476V16.2143C55.5539 16.2143 55.5035 16.2546 55.4784 16.2697C54.537 17.206 53.6007 18.1473 52.6594 19.0836C52.6342 19.1088 52.6191 19.1289 52.5939 19.1591H52.604V19.144Z" fill="#080707"/>
</g>
<defs>
<clipPath id="clip0_605_1380">
<rect width="55.8307" height="18.3183" fill="white" transform="translate(0 0.840866)"/>
</clipPath>
</defs>
</svg>
