<svg width="210" height="40" viewBox="0 0 210 40" fill="none" xmlns="http://www.w3.org/2000/svg">
<path d="M11.5339 36.3981C9.46941 36.3981 7.57258 35.9928 5.84338 35.1836C4.11347 34.3744 2.69629 33.2057 1.59183 31.6775L5.51633 26.7736C6.32983 27.9352 7.20946 28.8059 8.15444 29.386C9.09879 29.9667 10.1092 30.2568 11.1851 30.2568C14.063 30.2568 15.502 28.5002 15.502 24.9862V9.72454H4.81865V3.7665H22.5661V24.5737C22.5661 28.546 21.6286 31.5099 19.7536 33.4649C17.8785 35.4206 15.1381 36.3981 11.5339 36.3981Z" fill="black"/>
<path d="M38.2852 36.2148C35.8141 36.2148 33.612 35.6648 31.679 34.5649C29.7454 33.4649 28.2267 31.9604 27.1222 30.0505C26.0171 28.1414 25.4652 25.9644 25.4652 23.5196C25.4652 21.0448 26.0171 18.8528 27.1222 16.9429C28.2267 15.0338 29.7454 13.5364 31.679 12.4515C33.612 11.3673 35.8141 10.8245 38.2852 10.8245C40.7851 10.8245 43.009 11.3673 44.9569 12.4515C46.9041 13.5364 48.4303 15.0338 49.5355 16.9429C50.6399 18.8528 51.1925 21.0448 51.1925 23.5196C51.1925 25.9945 50.6399 28.1793 49.5355 30.0735C48.4303 31.9683 46.9041 33.4649 44.9569 34.5649C43.009 35.6648 40.7851 36.2148 38.2852 36.2148ZM38.2852 30.3484C39.4476 30.3484 40.4723 30.0813 41.3594 29.5464C42.2459 29.0122 42.9579 28.2252 43.4961 27.1861C44.0337 26.1477 44.3028 24.9253 44.3028 23.5196C44.3028 22.0838 44.0337 20.8614 43.4961 19.8531C42.9579 18.8449 42.2459 18.0736 41.3594 17.5387C40.4723 17.0045 39.4626 16.7366 38.3289 16.7366C37.1951 16.7366 36.1772 17.0045 35.2765 17.5387C34.375 18.0736 33.6555 18.8449 33.118 19.8531C32.5797 20.8614 32.3113 22.0838 32.3113 23.5196C32.3113 24.9253 32.5797 26.1477 33.118 27.1861C33.6555 28.2252 34.375 29.0122 35.2765 29.5464C36.1772 30.0813 37.1801 30.3484 38.2852 30.3484Z" fill="black"/>
<path d="M54.4197 35.8481V1.84161H61.2222V16.1867L60.7861 23.4738L60.9169 30.8067V35.8481L54.4197 35.8481ZM68.2427 36.2148C66.2368 36.2148 64.4851 35.7644 62.9882 34.8628C61.4906 33.9619 60.3501 32.5641 59.5652 30.6693C58.7802 28.7752 58.3878 26.3919 58.3878 23.5196C58.3878 20.6172 58.8021 18.234 59.6306 16.37C60.4591 14.5067 61.6146 13.116 63.0972 12.1994C64.5798 11.2828 66.2948 10.8245 68.2427 10.8245C70.4809 10.8245 72.4792 11.3515 74.2385 12.4056C75.997 13.4597 77.3924 14.9342 78.4246 16.8283C79.4561 18.7231 79.9726 20.9531 79.9726 23.5196C79.9726 26.0862 79.4561 28.3168 78.4246 30.2109C77.3924 32.1058 75.997 33.5795 74.2385 34.6336C72.4792 35.6877 70.4809 36.2148 68.2427 36.2148ZM67.1089 30.3484C68.2427 30.3484 69.2524 30.0813 70.1395 29.5464C71.0259 29.0122 71.7379 28.2252 72.2762 27.1861C72.8138 26.1477 73.0829 24.9253 73.0829 23.5196C73.0829 22.0838 72.8138 20.8614 72.2762 19.8531C71.7379 18.8449 71.0259 18.0736 70.1395 17.5387C69.2524 17.0045 68.2427 16.7366 67.1089 16.7366C65.9752 16.7366 64.9573 17.0045 64.0566 17.5387C63.1551 18.0736 62.4356 18.8449 61.898 19.8531C61.3598 20.8614 61.0914 22.0838 61.0914 23.5196C61.0914 24.9253 61.3598 26.1477 61.898 27.1861C62.4356 28.2252 63.1551 29.0122 64.0566 29.5464C64.9572 30.0813 65.9752 30.3484 67.1089 30.3484Z" fill="black"/>
<path d="M202.616 16.7641L204.526 14.7809V8.75074L198.789 2.72674H179.678L173.94 8.75074V4.73474L172.03 2.72675H164.382L162.472 4.73474V8.75074L158.651 12.7729L154.83 8.75074V4.73474L152.913 2.72675H145.265L143.355 4.73474L141.444 2.72675H133.796L131.886 4.73474V12.7729L122.327 2.72674H114.68L112.769 4.73473V32.8591L114.68 34.8671H122.327L124.244 32.8591V24.8271L133.796 34.8671H141.444L143.355 32.8591V16.7889L152.913 26.8351V32.8591L154.83 34.8671H162.472L164.382 32.8591V26.8351L173.94 16.7889V28.8431L179.678 34.8671H198.789L204.526 28.8431V22.8191L202.616 20.8049H193.051V22.8191H185.409V14.7809H193.051V16.7641H202.616Z" fill="black"/>
<path d="M205.332 4.08196C205.516 4.08196 205.669 4.06331 205.669 3.84573C205.669 3.65923 205.498 3.64058 205.356 3.64058H205.066V4.08818H205.332V4.08196ZM205.066 4.94609H204.829V3.42922H205.379C205.728 3.42922 205.906 3.55977 205.906 3.86439C205.906 4.14414 205.746 4.24983 205.527 4.28091L205.935 4.95232H205.669L205.297 4.29957H205.078V4.95232L205.066 4.94609ZM205.32 3.02513C204.752 3.02513 204.315 3.49138 204.315 4.16278C204.315 4.79068 204.699 5.30044 205.32 5.30044C205.882 5.30044 206.32 4.8404 206.32 4.16278C206.32 3.48517 205.882 3.02513 205.32 3.02513ZM205.32 5.53667C204.569 5.53667 204.037 4.94609 204.037 4.16278C204.037 3.33596 204.628 2.78889 205.32 2.78889C206.012 2.78889 206.598 3.33596 206.598 4.16278C206.598 4.98339 206.006 5.53667 205.32 5.53667Z" fill="#004CBE"/>
<path d="M92.5354 36.4093C90.4766 36.4093 88.4996 36.1506 86.6051 35.6332C84.71 35.1157 83.2106 34.4652 82.1071 33.6809L84.4344 28.4123C85.538 29.1341 86.8436 29.7221 88.3507 30.1764C89.857 30.6314 91.3417 30.8585 92.804 30.8585C94.4152 30.8585 95.5565 30.6549 96.2279 30.2469C96.8993 29.8397 97.2349 29.2753 97.2349 28.5535C97.2349 27.9581 96.9734 27.5112 96.4517 27.2128C95.9293 26.9151 95.2355 26.688 94.3705 26.5307C93.5047 26.3741 92.5578 26.2176 91.5284 26.0603C90.499 25.9037 89.4619 25.692 88.4178 25.4252C87.373 25.1592 86.4184 24.7593 85.5533 24.2257C84.6876 23.6928 83.9938 22.9717 83.4721 22.0618C82.9497 21.1526 82.6889 19.9766 82.6889 18.5337C82.6889 16.9343 83.1288 15.5231 84.0092 14.3C84.889 13.0769 86.1646 12.1126 87.836 11.407C89.5066 10.7014 91.506 10.3486 93.8334 10.3486C95.474 10.3486 97.1454 10.5367 98.8462 10.913C100.547 11.2894 101.964 11.8384 103.098 12.5595L100.771 17.7811C99.6071 17.06 98.4357 16.5661 97.2573 16.2993C96.0782 16.0332 94.9369 15.8994 93.8334 15.8994C92.2816 15.8994 91.148 16.1192 90.4319 16.558C89.7158 16.9975 89.3577 17.562 89.3577 18.2515C89.3577 18.8792 89.6185 19.3496 90.1409 19.6627C90.6626 19.9766 91.3564 20.2272 92.2221 20.4154C93.0872 20.6035 94.0348 20.7682 95.0642 20.9093C96.0936 21.0504 97.13 21.2621 98.1748 21.5443C99.2189 21.8266 100.167 22.2264 101.017 22.7439C101.867 23.2613 102.561 23.967 103.098 24.8607C103.635 25.7545 103.904 26.9232 103.904 28.3653C103.904 29.9338 103.456 31.3215 102.561 32.5284C101.666 33.7361 100.375 34.685 98.6895 35.3744C97.0034 36.0639 94.9523 36.4093 92.5354 36.4093Z" fill="black"/>
</svg>
