<?xml version="1.0" encoding="UTF-8"?><!DOCTYPE svg PUBLIC "-//W3C//DTD SVG 1.1//EN" "http://www.w3.org/Graphics/SVG/1.1/DTD/svg11.dtd"><svg xmlns="http://www.w3.org/2000/svg" xmlns:xlink="http://www.w3.org/1999/xlink"><defs/><symbol id="feather-x" viewBox="0 0 24 24"><path d="M18 6 6 18M6 6 18 18"/></symbol><symbol id="feather-volume-x" viewBox="0 0 24 24"><path d="M11 5 6 9 2 9 2 15 6 15 11 19 11 5zM23 9 17 15M17 9 23 15"/></symbol><symbol id="feather-users" viewBox="0 0 24 24"><path d="M17 21v-2a4 4 0 0 0-4-4H5a4 4 0 0 0-4 4v2"/><circle cx="9" cy="7" r="4"/><path d="M23 21v-2a4 4 0 0 0-3-3.87M16 3.13a4 4 0 0 1 0 7.75"/></symbol><symbol id="feather-user-x" viewBox="0 0 24 24"><path d="M16 21v-2a4 4 0 0 0-4-4H5a4 4 0 0 0-4 4v2"/><circle cx="8.5" cy="7" r="4"/><path d="M18 8 23 13M23 8 18 13"/></symbol><symbol id="feather-user-check" viewBox="0 0 24 24"><path d="M16 21v-2a4 4 0 0 0-4-4H5a4 4 0 0 0-4 4v2"/><circle cx="8.5" cy="7" r="4"/><path d="M17 11 19 13 23 9"/></symbol><symbol id="feather-twitter" viewBox="0 0 24 24"><path d="M23 3a10.9 10.9 0 0 1-3.14 1.53 4.48 4.48 0 0 0-7.86 3v1A10.66 10.66 0 0 1 3 4s-4 9 5 13a11.64 11.64 0 0 1-7 2c9 5 20 0 20-11.5a4.5 4.5 0 0 0-.08-.83A7.72 7.72 0 0 0 23 3z"/></symbol><symbol id="feather-sun" viewBox="0 0 24 24"><circle cx="12" cy="12" r="5"/><path d="M12 1 12 3M12 21 12 23M4.22 4.22 5.64 5.64M18.36 18.36 19.78 19.78M1 12 3 12M21 12 23 12M4.22 19.78 5.64 18.36M18.36 5.64 19.78 4.22"/></symbol><symbol id="feather-share-2" viewBox="0 0 24 24"><circle cx="18" cy="5" r="3"/><circle cx="6" cy="12" r="3"/><circle cx="18" cy="19" r="3"/><path d="M8.59 13.51 15.42 17.49M15.41 6.51 8.59 10.49"/></symbol><symbol id="feather-search" viewBox="0 0 24 24"><circle cx="11" cy="11" r="8"/><path d="M21 21 16.65 16.65"/></symbol><symbol id="feather-moon" viewBox="0 0 24 24"><path d="M21 12.79A9 9 0 1 1 11.21 3 7 7 0 0 0 21 12.79z"/></symbol><symbol id="feather-menu" viewBox="0 0 24 24"><path d="M3 12 21 12M3 6 21 6M3 18 21 18"/></symbol><symbol id="feather-info" viewBox="0 0 24 24"><circle cx="12" cy="12" r="10"/><path d="M12 16 12 12M12 8 12.01 8"/></symbol><symbol id="feather-inbox" viewBox="0 0 24 24"><path d="M22 12 16 12 14 15 10 15 8 12 2 12"/><path d="M5.45 5.11L2 12v6a2 2 0 0 0 2 2h16a2 2 0 0 0 2-2v-6l-3.45-6.89A2 2 0 0 0 16.76 4H7.24a2 2 0 0 0-1.79 1.11z"/></symbol><symbol id="feather-help-circle" viewBox="0 0 24 24"><circle cx="12" cy="12" r="10"/><path d="M9.09 9a3 3 0 0 1 5.83 1c0 2-3 3-3 3M12 17 12.01 17"/></symbol><symbol id="feather-facebook" viewBox="0 0 24 24"><path d="M18 2h-3a5 5 0 0 0-5 5v3H7v4h3v8h4v-8h3l1-4h-4V7a1 1 0 0 1 1-1h3z"/></symbol><symbol id="feather-external-link" viewBox="0 0 24 24"><path d="M18 13v6a2 2 0 0 1-2 2H5a2 2 0 0 1-2-2V8a2 2 0 0 1 2-2h6M15 3 21 3 21 9M10 14 21 3"/></symbol><symbol id="feather-copy" viewBox="0 0 24 24"><rect x="9" y="9" width="13" height="13" rx="2" ry="2"/><path d="M5 15H4a2 2 0 0 1-2-2V4a2 2 0 0 1 2-2h9a2 2 0 0 1 2 2v1"/></symbol><symbol id="feather-codesandbox" viewBox="0 0 24 24"><path d="M21 16V8a2 2 0 0 0-1-1.73l-7-4a2 2 0 0 0-2 0l-7 4A2 2 0 0 0 3 8v8a2 2 0 0 0 1 1.73l7 4a2 2 0 0 0 2 0l7-4A2 2 0 0 0 21 16z"/><path d="M7.5 4.21 12 6.81 16.5 4.21M7.5 19.79 7.5 14.6 3 12M21 12 16.5 14.6 16.5 19.79M3.27 6.96 12 12.01 20.73 6.96M12 22.08 12 12"/></symbol><symbol id="feather-chevron-up" viewBox="0 0 24 24"><path d="M18 15 12 9 6 15"/></symbol><symbol id="feather-chevron-right" viewBox="0 0 24 24"><path d="M9 18 15 12 9 6"/></symbol><symbol id="feather-chevron-left" viewBox="0 0 24 24"><path d="M15 18 9 12 15 6"/></symbol><symbol id="feather-chevron-down" viewBox="0 0 24 24"><path d="M6 9 12 15 18 9"/></symbol><symbol id="feather-check" viewBox="0 0 24 24"><path d="M20 6 9 17 4 12"/></symbol><symbol id="feather-calendar" viewBox="0 0 24 24"><rect x="3" y="4" width="18" height="18" rx="2" ry="2"/><path d="M16 2 16 6M8 2 8 6M3 10 21 10"/></symbol><symbol id="feather-box" viewBox="0 0 24 24"><path d="M21 16V8a2 2 0 0 0-1-1.73l-7-4a2 2 0 0 0-2 0l-7 4A2 2 0 0 0 3 8v8a2 2 0 0 0 1 1.73l7 4a2 2 0 0 0 2 0l7-4A2 2 0 0 0 21 16z"/><path d="M3.27 6.96 12 12.01 20.73 6.96M12 22.08 12 12"/></symbol><symbol id="feather-award" viewBox="0 0 24 24"><circle cx="12" cy="8" r="7"/><path d="M8.21 13.89 7 23 12 20 17 23 15.79 13.88"/></symbol><symbol id="feather-arrow-up" viewBox="0 0 24 24"><path d="M12 19 12 5M5 12 12 5 19 12"/></symbol><symbol id="feather-arrow-up-right" viewBox="0 0 24 24"><path d="M7 17 17 7M7 7 17 7 17 17"/></symbol><symbol id="feather-arrow-up-left" viewBox="0 0 24 24"><path d="M17 17 7 7M7 17 7 7 17 7"/></symbol><symbol id="feather-arrow-up-circle" viewBox="0 0 24 24"><circle cx="12" cy="12" r="10"/><path d="M16 12 12 8 8 12M12 16 12 8"/></symbol><symbol id="feather-arrow-right" viewBox="0 0 24 24"><path d="M5 12 19 12M12 5 19 12 12 19"/></symbol><symbol id="feather-arrow-right-circle" viewBox="0 0 24 24"><circle cx="12" cy="12" r="10"/><path d="M12 16 16 12 12 8M8 12 16 12"/></symbol><symbol id="feather-arrow-left" viewBox="0 0 24 24"><path d="M19 12 5 12M12 19 5 12 12 5"/></symbol><symbol id="feather-arrow-left-circle" viewBox="0 0 24 24"><circle cx="12" cy="12" r="10"/><path d="M12 8 8 12 12 16M16 12 8 12"/></symbol><symbol id="feather-arrow-down" viewBox="0 0 24 24"><path d="M12 5 12 19M19 12 12 19 5 12"/></symbol><symbol id="feather-arrow-down-right" viewBox="0 0 24 24"><path d="M7 7 17 17M17 7 17 17 7 17"/></symbol><symbol id="feather-arrow-down-left" viewBox="0 0 24 24"><path d="M17 7 7 17M17 17 7 17 7 7"/></symbol><symbol id="feather-arrow-down-circle" viewBox="0 0 24 24"><circle cx="12" cy="12" r="10"/><path d="M8 12 12 16 16 12M12 8 12 16"/></symbol><symbol id="feather-alert-triangle" viewBox="0 0 24 24"><path d="M10.29 3.86 1.82 18a2 2 0 0 0 1.71 3h16.94a2 2 0 0 0 1.71-3L13.71 3.86a2 2 0 0 0-3.42 0zM12 9 12 13M12 17 12.01 17"/></symbol><symbol id="feather-alert-octagon" viewBox="0 0 24 24"><path d="M7.86 2 16.14 2 22 7.86 22 16.14 16.14 22 7.86 22 2 16.14 2 7.86 7.86 2zM12 8 12 12M12 16 12.01 16"/></symbol><symbol id="feather-alert-circle" viewBox="0 0 24 24"><circle cx="12" cy="12" r="10"/><path d="M12 8 12 12M12 16 12.01 16"/></symbol></svg>