<?xml version="1.0" encoding="UTF-8"?><!DOCTYPE svg PUBLIC "-//W3C//DTD SVG 1.1//EN" "http://www.w3.org/Graphics/SVG/1.1/DTD/svg11.dtd"><svg xmlns="http://www.w3.org/2000/svg" xmlns:xlink="http://www.w3.org/1999/xlink"><defs/><symbol id="icon-wnyc-accessible" viewBox="0 0 24 24"><path d="M20.089 10.975a1.31 1.31 0 00-1.009-.393l-4.557.254 2.508-2.857c.357-.406.46-.949.321-1.434a1.301 1.301 0 00-.583-.827c-.01-.007-5.995-3.484-5.995-3.484a1.307 1.307 0 00-1.527.155L6.324 4.997a1.307 1.307 0 101.74 1.95l2.216-1.976 1.833 1.064-3.235 3.684a6.665 6.665 0 00-3.495 1.728l1.689 1.689a4.281 4.281 0 012.888-1.118 4.303 4.303 0 014.298 4.297 4.281 4.281 0 01-1.118 2.889l1.69 1.69a6.659 6.659 0 001.815-4.578 6.657 6.657 0 00-.681-2.942l1.764-.098-.429 5.263a1.307 1.307 0 102.605.213l.551-6.758a1.307 1.307 0 00-.366-1.019zM17.668 5.376a2.188 2.188 0 100-4.376 2.188 2.188 0 000 4.376zM9.96 20.613a4.303 4.303 0 01-4.297-4.297c0-.894.274-1.724.742-2.412l-1.707-1.707a6.684 6.684 0 009.381 9.382l-1.707-1.708a4.273 4.273 0 01-2.411.742z" fill="currentColor"/></symbol><symbol id="icon-wnyc-translate" viewBox="0 0 24 24"><path d="M3 16c1.5-.833 5-3.5 7-6.5S11.5 4 11.5 4m3 0h-6m-6 0h6m0 0V2.5M4.5 7c1 3 3 5.5 5.5 7.5m2 6.5l1.35-3M21 21l-1.35-3m-6.3 0l3.15-7.5c1.23 2.734 1.92 4.766 3.15 7.5m-6.3 0h6.3"/></symbol><symbol id="logo-google-translate"><path fill-rule="evenodd" clip-rule="evenodd" d="M128.789 4.794c-.738 0-1.766.522-2.056 1.333h-.058V4.903H125.4V12h1.333V8.184c0-1.304.927-2.071 1.839-2.071.29 0 .522.028.71.1l.507-1.244c-.275-.116-.565-.175-1-.175zM152.801 1.46h1.332V12h-1.332V1.46zM148.658 4.794c-1.433 0-2.767.8-2.767 2.05 0 1.21 1.209 1.757 1.841 1.911l1.432.338c.731.182.982.562.982.913 0 .575-.617.952-1.418.952-.829 0-1.544-.404-1.909-1.293l-1.152.478c.407 1 1.39 1.984 3.048 1.984 1.615 0 2.752-.941 2.752-2.163 0-.843-.575-1.686-1.938-2.01l-1.404-.323c-.548-.126-.912-.364-.912-.8 0-.562.672-.868 1.403-.868.674 0 1.347.268 1.615.914l1.123-.464c-.421-1.054-1.502-1.62-2.696-1.62zM158.579 10.929c-.675 0-1.508-.348-1.508-1.078 0-.632.608-1.322 1.971-1.322 1.096 0 1.625.409 1.625.409 0 1.124-1.063 1.99-2.088 1.99zm.28-6.135c-1.728 0-2.701 1.006-2.94 1.638l1.18.506c.239-.646 1.072-.946 1.788-.946.97 0 1.78.602 1.78 1.693v.198c-.268-.155-.922-.422-1.85-.422-1.615 0-3.116.803-3.116 2.362 0 1.433 1.262 2.304 2.666 2.304 1.181 0 1.864-.636 2.244-1.212h.056V12h1.255V7.744c0-1.939-1.377-2.95-3.063-2.95zM133.323 10.929c-.674 0-1.508-.348-1.508-1.078 0-.632.609-1.322 1.972-1.322 1.095 0 1.624.409 1.624.409 0 1.124-1.062 1.99-2.088 1.99zm.281-6.135c-1.728 0-2.702 1.006-2.941 1.638l1.18.506c.24-.646 1.072-.946 1.789-.946.969 0 1.779.602 1.779 1.693v.198c-.267-.155-.922-.422-1.85-.422-1.615 0-3.115.803-3.115 2.362 0 1.433 1.261 2.304 2.666 2.304 1.18 0 1.863-.636 2.243-1.212h.056V12h1.256V7.744c0-1.939-1.377-2.95-3.063-2.95zM169.398 7.623c.257-1.003 1.027-1.631 1.998-1.631 1.498 0 2.011 1.035 2.054 1.631h-4.052zm2.026-2.83c-2.054 0-3.424 1.714-3.424 3.668 0 2.079 1.427 3.666 3.567 3.666 1.612 0 2.64-.9 3.053-1.882l-1.17-.478c-.371.872-1.141 1.162-1.912 1.162-1.084 0-2.154-.768-2.225-2.222h5.521s.015-.148.015-.246c0-2.22-1.342-3.667-3.425-3.667zM141.778 4.794c-.971 0-1.869.565-2.245 1.216h-.058V4.903H138.2V12h1.333V8.197c0-1.086.71-2.187 1.868-2.187 1.014 0 1.753.493 1.753 1.97V12h1.333V7.778c0-1.753-.898-2.984-2.709-2.984zM165.399 2.794h-1.332v2.109h-1.246V6.13h1.246v3.723c0 1.449.796 2.274 2.288 2.274.449 0 .768-.058 1.072-.188l-.463-1.144a1.352 1.352 0 01-.609.116c-.622 0-.956-.362-.956-1.16V6.13h1.738V4.903h-1.738V2.794zM124.95 1.46h-7.217v1.367h2.934v9.167h1.35V2.827h2.933V1.461zM72.16 5.586v1.639h3.922c-.117.922-.425 1.595-.893 2.063-.571.57-1.464 1.2-3.029 1.2-2.415 0-4.303-1.946-4.303-4.36 0-2.415 1.888-4.361 4.303-4.361 1.302 0 2.253.512 2.956 1.17l1.156-1.156C75.292.845 73.989.127 72.16.127c-3.307 0-6.088 2.693-6.088 6 0 3.308 2.78 6 6.088 6 1.785 0 3.131-.585 4.185-1.682 1.083-1.084 1.42-2.606 1.42-3.835 0-.38-.03-.731-.088-1.024H72.16zM82.667 4.255c-2.142 0-3.888 1.628-3.888 3.872 0 2.23 1.746 3.873 3.888 3.873s3.887-1.643 3.887-3.873c0-2.244-1.745-3.872-3.887-3.872zm0 6.219c-1.174 0-2.186-.968-2.186-2.347 0-1.393 1.012-2.347 2.186-2.347 1.173 0 2.186.954 2.186 2.347 0 1.379-1.013 2.347-2.186 2.347zM101.72 5.12h-.059c-.382-.455-1.115-.865-2.039-.865C97.686 4.255 96 5.94 96 8.127 96 10.297 97.686 12 99.622 12c.924 0 1.657-.41 2.039-.88h.059v.541c0 1.482-.792 2.274-2.069 2.274-1.041 0-1.686-.748-1.95-1.38l-1.482.617c.426 1.027 1.555 2.289 3.432 2.289 1.996 0 3.682-1.174 3.682-4.034V4.454h-1.613v.667zm-1.95 5.354c-1.174 0-2.068-.997-2.068-2.347 0-1.364.894-2.347 2.067-2.347 1.16 0 2.068.998 2.068 2.362 0 1.35-.908 2.332-2.068 2.332zM91.333 4.255c-2.141 0-3.887 1.628-3.887 3.872 0 2.23 1.746 3.873 3.887 3.873 2.142 0 3.888-1.643 3.888-3.873 0-2.244-1.746-3.872-3.888-3.872zm0 6.219c-1.173 0-2.185-.968-2.185-2.347 0-1.393 1.012-2.347 2.185-2.347 1.174 0 2.186.954 2.186 2.347 0 1.379-1.012 2.347-2.186 2.347zM104.667.287h1.673V12h-1.673V.287zM111.51 10.474c-.865 0-1.481-.395-1.878-1.173l5.178-2.142-.176-.44c-.323-.865-1.305-2.464-3.315-2.464-1.995 0-3.652 1.57-3.652 3.872 0 2.172 1.642 3.873 3.843 3.873 1.775 0 2.801-1.085 3.227-1.717l-1.32-.88c-.44.646-1.042 1.07-1.907 1.07zm-.126-4.768c.689 0 1.272.35 1.467.854l-3.498 1.45c0-1.633 1.155-2.304 2.031-2.304z" fill="currentColor"/><g fill="currentColor"><path d="M6.176 8.9c0 .965-.22 1.743-.662 2.332-.442.59-1.04.885-1.793.885-.77 0-1.375-.244-1.817-.732v3.053H.82V5.66h.99l.053.703c.442-.547 1.055-.82 1.84-.82.762 0 1.363.287 1.805.861.445.575.668 1.373.668 2.397v.1zm-1.084-.123c0-.714-.153-1.279-.457-1.693-.305-.414-.723-.621-1.254-.621-.656 0-1.149.29-1.477.873v3.03c.325.577.82.866 1.489.866.52 0 .931-.205 1.236-.615.309-.414.463-1.027.463-1.84zM7.271 8.771c0-.62.122-1.18.364-1.675a2.758 2.758 0 011.02-1.149 2.79 2.79 0 011.493-.404c.864 0 1.561.299 2.092.896.535.598.803 1.393.803 2.385V8.9c0 .618-.12 1.172-.357 1.665a2.67 2.67 0 01-1.014 1.142c-.438.273-.942.41-1.512.41-.86 0-1.556-.299-2.092-.896-.53-.598-.797-1.389-.797-2.373V8.77zm1.09.13c0 .703.162 1.267.487 1.693.328.426.765.638 1.312.638.55 0 .988-.214 1.313-.644.324-.434.486-1.04.486-1.817 0-.695-.166-1.257-.498-1.687a1.564 1.564 0 00-1.313-.65c-.535 0-.966.212-1.294.638-.329.426-.493 1.035-.493 1.828zM20.016 10.506l1.218-4.846h1.084L20.473 12h-.88l-1.54-4.805-1.5 4.805h-.88l-1.839-6.34h1.078l1.248 4.746 1.477-4.746h.873l1.506 4.846zM26.057 12.117c-.86 0-1.559-.281-2.098-.844-.54-.566-.809-1.322-.809-2.267v-.2c0-.628.12-1.189.358-1.681a2.814 2.814 0 011.008-1.16 2.535 2.535 0 011.406-.422c.824 0 1.465.271 1.922.814.457.543.685 1.32.685 2.332v.452h-4.295c.016.625.198 1.13.545 1.517.352.383.797.574 1.336.574.383 0 .707-.078.973-.234.265-.156.498-.363.697-.621l.662.516c-.531.816-1.328 1.224-2.39 1.224zm-.135-5.683c-.438 0-.805.16-1.102.48-.297.316-.48.762-.55 1.336h3.175v-.082c-.03-.55-.18-.977-.445-1.277-.266-.305-.625-.457-1.078-.457zM32.853 6.633a3.248 3.248 0 00-.533-.041c-.71 0-1.193.303-1.447.908V12h-1.084V5.66h1.055l.017.733c.356-.567.86-.85 1.512-.85.211 0 .371.027.48.082v1.008zM36.37 12.117c-.86 0-1.56-.281-2.098-.844-.54-.566-.81-1.322-.81-2.267v-.2c0-.628.12-1.189.358-1.681a2.814 2.814 0 011.008-1.16 2.535 2.535 0 011.406-.422c.825 0 1.465.271 1.922.814.457.543.686 1.32.686 2.332v.452h-4.295c.016.625.197 1.13.545 1.517.351.383.797.574 1.336.574.383 0 .707-.078.972-.234.266-.156.498-.363.698-.621l.662.516c-.532.816-1.328 1.224-2.39 1.224zm-.136-5.683c-.437 0-.804.16-1.101.48-.297.316-.48.762-.551 1.336h3.176v-.082c-.031-.55-.18-.977-.446-1.277-.265-.305-.624-.457-1.078-.457zM39.838 8.777c0-.972.23-1.754.691-2.343.461-.594 1.065-.891 1.81-.891.743 0 1.33.254 1.764.762V3h1.084v9h-.996l-.052-.68c-.434.532-1.037.797-1.81.797-.735 0-1.335-.3-1.8-.902-.46-.602-.691-1.387-.691-2.356v-.082zm1.084.123c0 .72.148 1.282.445 1.688.297.406.707.61 1.23.61.688 0 1.19-.31 1.506-.927V7.36c-.324-.597-.822-.896-1.494-.896-.53 0-.945.205-1.242.615-.297.41-.445 1.018-.445 1.822zM55.219 8.9c0 .97-.223 1.748-.668 2.338-.446.586-1.043.88-1.793.88-.801 0-1.42-.284-1.858-.85l-.052.732h-.996V3h1.084v3.357c.437-.543 1.04-.814 1.81-.814s1.373.291 1.81.873c.442.582.663 1.379.663 2.39V8.9zm-1.084-.123c0-.738-.143-1.308-.428-1.71-.285-.403-.695-.604-1.23-.604-.715 0-1.229.332-1.541.996v2.742c.332.664.85.996 1.552.996.52 0 .924-.2 1.213-.603.29-.403.434-1.008.434-1.817zM58.594 10.412L60.07 5.66h1.16l-2.548 7.319c-.395 1.054-1.022 1.582-1.881 1.582l-.205-.018-.405-.076v-.88l.293.024c.368 0 .653-.074.856-.222.207-.149.377-.42.51-.815l.24-.644-2.262-6.27h1.184l1.582 4.752z"/></g></symbol><symbol id="logo-nyc" viewBox="0 0 219 73"><g data-name="Layer 2"><g data-name="Layer 1"><path d="M214.44 31.88l4.56-4.5V13.69L205.31 0h-45.62L146 13.69V4.56L141.44 0h-18.25l-4.56 4.56v9.13l-9.13 9.12-9.12-9.12V4.56L95.81 0H77.56L73 4.56 68.44 0H50.19l-4.56 4.56v18.25L22.81 0H4.56L0 4.56v63.88L4.56 73h18.25l4.57-4.56V50.19L50.19 73h18.25L73 68.44v-36.5l22.81 22.81v13.69l4.57 4.56h18.25l4.56-4.56V54.75L146 31.94v27.37L159.69 73h45.62L219 59.31V45.63l-4.56-4.57h-22.81v4.57h-18.25V27.38h18.25v4.5h22.81zM215.75 3.08c.43 0 .8 0 .8-.54s-.41-.47-.75-.47h-.68v1zm-.63 2h-.57V1.59h1.31c.83 0 1.26.29 1.26 1a.88.88 0 01-.9.94l1 1.52h-.65l-.89-1.48h-.53zm.61-4.36a2.42 2.42 0 00-2.4 2.57 2.4 2.4 0 104.79 0 2.42 2.42 0 00-2.39-2.61m0 5.69a3 3 0 01-3.07-3.12 3.07 3.07 0 116.13 0 3 3 0 01-3.06 3.12"/></g></g></symbol><symbol id="logo-partnership-workdev-opportunity" viewBox="0 0 409 159"><path d="M214.44 31.88l4.56-4.5V13.69L205.31 0h-45.62L146 13.69V4.56L141.44 0h-18.25l-4.56 4.56v9.13l-9.13 9.12-9.12-9.12V4.56L95.81 0H77.56L73 4.56 68.44 0H50.19l-4.56 4.56v18.25L22.81 0H4.56L0 4.56v63.88L4.56 73h18.25l4.57-4.56V50.19L50.19 73h18.25L73 68.44v-36.5l22.81 22.81v13.69l4.57 4.56h18.25l4.56-4.56V54.75L146 31.94v27.37L159.69 73h45.62L219 59.31V45.63l-4.56-4.57h-22.81v4.57h-18.25V27.38h18.25v4.5h22.81zM215.75 3.08c.43 0 .8 0 .8-.54s-.41-.47-.75-.47h-.68v1l.63.01zm-.63 2h-.57V1.59h1.31c.83 0 1.26.29 1.26 1a.882.882 0 01-.9.94l1 1.52h-.65l-.89-1.48h-.53l-.03 1.51zm.61-4.36a2.423 2.423 0 00-2.262 1.602c-.112.31-.158.64-.138.968a2.4 2.4 0 104.79 0 2.421 2.421 0 00-2.39-2.61v.04zm0 5.65a2.999 2.999 0 01-3.07-3.12 3.072 3.072 0 014.28-2.994 3.07 3.07 0 011.85 2.994 3.011 3.011 0 01-.856 2.221 2.994 2.994 0 01-2.204.899M8.66 84.33c5.53 0 8.64 4 8.64 9.14 0 5.14-3.11 9.13-8.64 9.13-5.53 0-8.66-4.05-8.66-9.13 0-5.08 3.13-9.14 8.66-9.14zm0 14.34c2.95 0 4.08-2.6 4.08-5.2s-1.13-5.21-4.08-5.21-4.08 2.6-4.08 5.21 1.13 5.2 4.08 5.2zM20.37 92.19h-2v-2.7h2c0-3.66 1.28-4.79 4.84-4.79.66 0 1.35 0 2 .07v3a8.967 8.967 0 00-1.13-.07c-1 0-1.55.12-1.55 1.27v.57h2.5v2.7h-2.5v10h-4.16V92.19zM29.59 92.19h-2v-2.7h2c0-3.66 1.28-4.79 4.84-4.79.66 0 1.35 0 2 .07v3a8.785 8.785 0 00-1.13-.07c-1 0-1.54.12-1.54 1.27v.57h2.5v2.7h-2.5v10h-4.17V92.19zm12.06-4.3h-4.17V84.7h4.17v3.19zm-4.17 1.6h4.17v12.74h-4.17V89.49zM52.75 94.15a2 2 0 00-2-1.84c-2.33 0-2.7 2-2.7 3.76 0 1.76.71 3.34 2.48 3.34a2.231 2.231 0 002.38-2.19h4.06c-.37 3.42-3 5.38-6.41 5.38a6.338 6.338 0 01-6.68-6.53c0-4 2.57-6.95 6.68-6.95 3.16 0 6 1.67 6.28 5l-4.09.03zM62.43 96.88a2.719 2.719 0 002.84 2.9 2.51 2.51 0 002.39-1.4h3.9c-.76 3-3.49 4.22-6.33 4.22-4.15 0-7-2.5-7-6.78a6.689 6.689 0 016.88-6.7c4.56 0 6.85 3.44 6.65 7.76h-9.33zm5.18-2.33a2.59 2.59 0 00-2.48-2.61 2.75 2.75 0 00-2.7 2.61h5.18zM87.4 89.12a6.739 6.739 0 014.824 11.488 6.737 6.737 0 01-7.347 1.485A6.735 6.735 0 0180.7 95.87a6.54 6.54 0 016.7-6.75zm0 10.29c1.94 0 2.56-1.92 2.56-3.54s-.62-3.56-2.56-3.56-2.53 1.94-2.53 3.56.59 3.54 2.53 3.54zM97.08 92.19h-2v-2.7h2c0-3.66 1.27-4.79 4.84-4.79.66 0 1.35 0 2 .07v3a8.784 8.784 0 00-1.13-.07c-1 0-1.55.12-1.55 1.27v.57h2.51v2.7h-2.51v10h-4.16V92.19zM130.11 102.23h-4.57l-2.41-12.08-2.4 12.08H116l-4.7-17.53h4.56l2.48 12.82L121 84.7h4.3l2.58 12.82h.05l2.48-12.82H135l-4.89 17.53zM141.06 89.12a6.737 6.737 0 016.254 4.13 6.734 6.734 0 01-1.43 7.358 6.737 6.737 0 01-7.347 1.485 6.737 6.737 0 01-4.177-6.223 6.535 6.535 0 014.098-6.28 6.54 6.54 0 012.602-.47zm0 10.29c1.94 0 2.55-1.92 2.55-3.54s-.61-3.56-2.55-3.56-2.53 1.94-2.53 3.56.59 3.54 2.53 3.54zM149.73 89.49h4.05v2.23h.05a3.836 3.836 0 013.83-2.48c.336-.003.671.03 1 .1v3.81a5.745 5.745 0 00-1.59-.25 2.942 2.942 0 00-3.15 3v6.31h-4.17l-.02-12.72zM159.9 84.7h4.17v9l3.81-4.25h4.84l-4.67 4.81 5.25 7.93h-5l-3.12-5.13-1.08 1.06v4.07h-4.2V84.7zM175.47 92.19h-2v-2.7h2c0-3.66 1.27-4.79 4.83-4.79.67 0 1.35 0 2 .07v3a8.893 8.893 0 00-1.13-.07c-1 0-1.55.12-1.55 1.27v.57h2.51v2.7h-2.51v10h-4.17l.02-10.05zM189.59 89.12a6.74 6.74 0 11-6.71 6.75 6.547 6.547 0 011.898-4.823 6.55 6.55 0 014.812-1.927zm0 10.29c1.94 0 2.55-1.92 2.55-3.54s-.61-3.56-2.55-3.56-2.53 1.94-2.53 3.56.59 3.54 2.53 3.54zM198.5 89.49h4.05v2.23a3.852 3.852 0 013.83-2.48c.336-.003.671.03 1 .1v3.81a5.741 5.741 0 00-1.59-.25 2.939 2.939 0 00-3.15 3v6.31h-4.14V89.49zM216.72 94.15a1.999 1.999 0 00-2-1.84c-2.33 0-2.7 2-2.7 3.76 0 1.76.72 3.34 2.48 3.34a2.241 2.241 0 002.39-2.19h4.05c-.37 3.42-3 5.38-6.41 5.38a6.351 6.351 0 01-6.68-6.53c0-4 2.58-6.95 6.68-6.95 3.17 0 6 1.67 6.28 5l-4.09.03zM226.4 96.88a2.724 2.724 0 001.725 2.717c.358.14.741.202 1.125.183a2.5 2.5 0 002.38-1.4h3.9c-.76 3-3.48 4.22-6.33 4.22-4.15 0-7-2.5-7-6.78a6.674 6.674 0 012.023-4.806 6.686 6.686 0 014.857-1.894c4.57 0 6.85 3.44 6.66 7.76h-9.34zm5.18-2.33a2.578 2.578 0 00-2.48-2.61 2.75 2.75 0 00-2.7 2.61h5.18zM245.45 84.7H253c5.38 0 8.6 3.27 8.6 8.69 0 5.75-3.27 8.84-8.6 8.84h-7.54l-.01-17.53zM250 98.31h2.16c3.47-.08 4.84-1.43 4.84-4.94 0-3.19-1.72-4.74-4.84-4.74H250v9.68zM267.34 96.88a2.729 2.729 0 00.771 2.086 2.722 2.722 0 002.069.814 2.511 2.511 0 002.39-1.4h3.9c-.76 3-3.49 4.22-6.33 4.22-4.16 0-7-2.5-7-6.78a6.674 6.674 0 012.023-4.806 6.686 6.686 0 014.857-1.894c4.56 0 6.85 3.44 6.65 7.76h-9.33zm5.18-2.33a2.59 2.59 0 00-2.52-2.61 2.75 2.75 0 00-2.7 2.61h5.22zM286.22 102.23h-4.81l-4.25-12.74h4.35l2.33 8.42h.05l2.36-8.42h4.24l-4.27 12.74zM295.23 96.88a2.734 2.734 0 00.777 2.087 2.733 2.733 0 002.073.813 2.49 2.49 0 002.38-1.4h3.91c-.76 3-3.49 4.22-6.34 4.22-4.15 0-7-2.5-7-6.78a6.68 6.68 0 012.019-4.802 6.697 6.697 0 014.851-1.898c4.57 0 6.86 3.44 6.66 7.76h-9.33zm5.18-2.33a2.582 2.582 0 00-2.48-2.61 2.759 2.759 0 00-2.7 2.61h5.18zM306.68 84.7h4.17v17.53h-4.17V84.7zM319.74 89.12a6.739 6.739 0 11-6.7 6.75 6.541 6.541 0 011.892-4.823 6.524 6.524 0 014.808-1.927zm0 10.29c1.94 0 2.56-1.92 2.56-3.54s-.62-3.56-2.56-3.56-2.53 1.94-2.53 3.56.59 3.54 2.53 3.54zM328.51 89.49h4V91h.05a4.074 4.074 0 013.51-1.84c4 0 5.7 3.44 5.7 7 0 3.32-1.77 6.46-5.38 6.46a4.288 4.288 0 01-3.64-1.74h-.05v5.65h-4.17l-.02-17.04zm4 6.24c0 2.23.64 3.68 2.53 3.68 1.89 0 2.5-1.94 2.5-3.68 0-1.74-.64-3.42-2.48-3.42-1.06 0-2.52.79-2.52 3.42h-.03zM343.83 89.49h4.06v1.74a4.275 4.275 0 013.66-2.11 3.69 3.69 0 013.71 2.06 4.68 4.68 0 014-2.06c4.05 0 4.49 3.07 4.49 5.5v7.61h-4.15v-7.49c0-1.37-.66-2.18-1.74-2.18-1.8 0-2 1.37-2 3.44v6.23h-4.17V95c0-1.5-.45-2.43-1.58-2.43-1.49 0-2.13.86-2.13 3.46v6.21h-4.18l.03-12.75zM370 96.88a2.724 2.724 0 001.725 2.717c.358.14.741.202 1.125.183a2.5 2.5 0 002.38-1.4h3.9c-.76 3-3.48 4.22-6.33 4.22-4.15 0-7-2.5-7-6.78a6.692 6.692 0 016.88-6.7c4.57 0 6.85 3.44 6.65 7.76H370zm5.18-2.33a2.582 2.582 0 00-2.48-2.61 2.75 2.75 0 00-2.7 2.61h5.18zM381.28 89.49h4.06v1.74a4.843 4.843 0 014-2.11c4.25 0 4.59 3.09 4.59 4.94v8.17h-4.17v-6.16c0-1.74.19-3.51-2.09-3.51-1.57 0-2.26 1.32-2.26 2.72v7h-4.18l.05-12.79zM404.29 92.19h-2.57V98c0 1 .59 1.22 1.49 1.22h1.08v3.07c-.76 0-1.52.13-2.28.13-3.56 0-4.47-1-4.47-4.5v-5.73h-2.11v-2.7h2.11v-3.86h4.18v3.86h2.57v2.7zM9 135.73c5.74 0 9 4.21 9 9.49s-3.23 9.49-9 9.49-9-4.21-9-9.49 3.25-9.49 9-9.49zm0 14.9c3.06 0 4.23-2.71 4.23-5.41s-1.17-5.41-4.23-5.41c-3.06 0-4.23 2.71-4.23 5.41s1.16 5.41 4.23 5.41zM21.15 143.89h-2.09v-2.8h2.09c0-3.8 1.33-5 5-5 .69 0 1.4 0 2.09.07v3.06a9.533 9.533 0 00-1.17-.07c-1 0-1.61.12-1.61 1.32v.59h2.6v2.8h-2.6v10.43h-4.31v-10.4zM30.44 143.89h-2.09v-2.8h2.09c0-3.8 1.32-5 5-5 .69 0 1.4 0 2.09.07v3.06a9.533 9.533 0 00-1.17-.07c-1 0-1.61.12-1.61 1.32v.59h2.6v2.8h-2.6v10.43h-4.31v-10.4zM43 139.43h-4.38v-3.31H43v3.31zm-4.33 1.66H43v13.23h-4.38l.05-13.23zM54.48 145.93a2 2 0 00-2.11-1.93c-2.43 0-2.81 2.07-2.81 3.9s.74 3.47 2.58 3.47a2.331 2.331 0 001.72-.607 2.32 2.32 0 00.75-1.663h4.21c-.39 3.55-3.14 5.59-6.66 5.59a6.58 6.58 0 01-6.93-6.79c0-4.21 2.67-7.21 6.93-7.21 3.29 0 6.22 1.73 6.53 5.22l-4.21.02zM64.53 148.76a2.834 2.834 0 00.823 2.176 2.827 2.827 0 002.177.824 2.576 2.576 0 002.47-1.44h4c-.79 3.06-3.62 4.39-6.57 4.39-4.31 0-7.25-2.61-7.25-7a6.935 6.935 0 012.081-5.019 6.94 6.94 0 015.059-1.981c4.75 0 7.12 3.57 6.91 8l-9.7.05zm5.38-2.42a2.68 2.68 0 00-2.58-2.7 2.852 2.852 0 00-2.8 2.7h5.38zM85.08 143.89H83v-2.8h2.09c0-3.8 1.33-5 5-5 .69 0 1.41 0 2.1.07v3.06a9.695 9.695 0 00-1.18-.07c-1 0-1.6.12-1.6 1.32v.59H92v2.8h-2.6v10.43h-4.32v-10.4zM99.49 140.71a7.002 7.002 0 016.866 8.366 6.997 6.997 0 01-9.545 5.101 7.002 7.002 0 01-4.321-6.467 6.783 6.783 0 014.285-6.53 6.772 6.772 0 012.715-.47zm0 10.68c2 0 2.65-2 2.65-3.67s-.64-3.7-2.65-3.7-2.63 2-2.63 3.7c0 1.7.61 3.67 2.63 3.67zM108.49 141.09h4.21v2.32a4 4 0 014-2.58c.336-.001.672.036 1 .11v3.95a6.311 6.311 0 00-1.66-.26 3.057 3.057 0 00-2.334.842 3.05 3.05 0 00-.936 2.298v6.55h-4.33l.05-13.23zM127.1 136.12h14.51v3.8h-9.76v3.18h8.92v3.68h-8.92v3.46h10v4.08H127.1v-18.2zM152.6 145.93a2.003 2.003 0 00-1.331-1.799 2.005 2.005 0 00-.779-.111c-2.43 0-2.81 2.07-2.81 3.9s.74 3.47 2.58 3.47a2.328 2.328 0 001.72-.607 2.317 2.317 0 00.75-1.663h4.21c-.38 3.55-3.14 5.59-6.66 5.59a6.596 6.596 0 01-6.93-6.79c0-4.21 2.68-7.21 6.93-7.21 3.29 0 6.22 1.73 6.53 5.22h-4.21zM165.28 140.71a7 7 0 11-7 7 6.776 6.776 0 011.982-5.018 6.783 6.783 0 015.018-1.982zm0 10.68c2 0 2.65-2 2.65-3.67s-.64-3.7-2.65-3.7-2.63 2-2.63 3.7c0 1.7.61 3.67 2.63 3.67zM174.13 141.09h4.2v1.81a4.995 4.995 0 014.16-2.19c4.41 0 4.77 3.21 4.77 5.12v8.49H183v-6.4c0-1.81.21-3.64-2.16-3.64-1.64 0-2.35 1.37-2.35 2.83v7.21h-4.33l-.03-13.23zM196.11 140.71a7.002 7.002 0 016.866 8.366 6.997 6.997 0 01-9.545 5.101 7 7 0 01-4.321-6.467 6.783 6.783 0 017-7zm0 10.68c2 0 2.65-2 2.65-3.67s-.64-3.7-2.65-3.7-2.63 2-2.63 3.7c0 1.7.61 3.67 2.63 3.67zM205.21 141.09h4.21v1.81h.05a4.396 4.396 0 013.8-2.19 3.828 3.828 0 013.85 2.14 4.836 4.836 0 014.13-2.14c4.2 0 4.66 3.18 4.66 5.71v7.9h-4.33v-7.77c0-1.43-.69-2.27-1.81-2.27-1.86 0-2 1.42-2 3.57v6.47h-4.34v-7.52c0-1.55-.45-2.52-1.63-2.52-1.55 0-2.22.89-2.22 3.59v6.45h-4.33l-.04-13.23zM233.16 139.43h-4.34v-3.31h4.34v3.31zm-4.34 1.66h4.34v13.23h-4.34v-13.23zM244.68 145.93a1.985 1.985 0 00-.656-1.396 1.992 1.992 0 00-1.454-.514c-2.43 0-2.81 2.07-2.81 3.9s.74 3.47 2.58 3.47a2.328 2.328 0 001.72-.607 2.32 2.32 0 00.75-1.663H249c-.39 3.55-3.14 5.59-6.66 5.59a6.582 6.582 0 01-6.93-6.79c0-4.21 2.67-7.21 6.93-7.21 3.29 0 6.22 1.73 6.53 5.22h-4.19zM267.38 135.73c5.73 0 9 4.21 9 9.49s-3.24 9.49-9 9.49-9-4.21-9-9.49 3.26-9.49 9-9.49zm0 14.9c3.06 0 4.23-2.71 4.23-5.41s-1.17-5.41-4.23-5.41c-3.06 0-4.24 2.71-4.24 5.41s1.18 5.41 4.24 5.41zM278.6 141.09h4.13v1.53a4.225 4.225 0 013.65-1.91c4.15 0 5.91 3.57 5.91 7.29 0 3.44-1.83 6.71-5.58 6.71a4.446 4.446 0 01-3.78-1.82h-.05v5.87h-4.28v-17.67zm4.18 6.48c0 2.32.66 3.82 2.63 3.82 1.97 0 2.6-2 2.6-3.82 0-1.82-.67-3.55-2.58-3.55-1.17-.02-2.65.82-2.65 3.55zM294.51 141.09h4.13v1.53h.05a4.225 4.225 0 013.65-1.91c4.15 0 5.91 3.57 5.91 7.29 0 3.44-1.83 6.71-5.58 6.71a4.426 4.426 0 01-3.77-1.82h-.06v5.87h-4.33v-17.67zm4.18 6.48c0 2.32.66 3.82 2.63 3.82 1.97 0 2.6-2 2.6-3.82 0-1.82-.66-3.55-2.58-3.55-1.17-.02-2.65.82-2.65 3.55zM316.74 140.71a7.002 7.002 0 016.866 8.366 6.997 6.997 0 01-9.545 5.101 7 7 0 01-4.321-6.467 6.783 6.783 0 017-7zm0 10.68c2 0 2.66-2 2.66-3.67s-.64-3.7-2.66-3.7-2.62 2-2.62 3.7c0 1.7.61 3.67 2.62 3.67zM325.49 141.09h4.21v2.32h.05a4 4 0 014-2.58c.336-.001.672.036 1 .11v3.95a6.184 6.184 0 00-1.66-.26 3.006 3.006 0 00-2.345.828 2.992 2.992 0 00-.915 2.312v6.55h-4.34v-13.23zM344.54 143.89h-2.68v6c0 1.05.61 1.28 1.56 1.28.35 0 .74-.06 1.12-.06v3.19c-.79 0-1.58.13-2.37.13-3.7 0-4.64-1.07-4.64-4.67v-5.89h-2.2v-2.8h2.2v-4h4.33v4h2.68v2.82zM359.48 154.32h-4.21v-1.81a4.885 4.885 0 01-4 2.2c-3.79 0-4.89-2.2-4.89-5.67v-7.95h4.33v7.67c0 1.76.77 2.37 2.15 2.37.94 0 2.37-.61 2.37-2.95v-7.09h4.33l-.08 13.23zM362.24 141.09h4.2v1.81h.05a4.995 4.995 0 014.16-2.19c4.41 0 4.77 3.21 4.77 5.12v8.49h-4.34v-6.4c0-1.81.21-3.64-2.16-3.64-1.63 0-2.35 1.37-2.35 2.83v7.21h-4.33v-13.23zM382.13 139.43h-4.34v-3.31h4.34v3.31zm-4.34 1.66h4.34v13.23h-4.34v-13.23zM393 143.89h-2.67v6c0 1.05.61 1.28 1.55 1.28.36 0 .74-.06 1.12-.06v3.19c-.79 0-1.58.13-2.37.13-3.69 0-4.64-1.07-4.64-4.67v-5.89h-2.19v-2.8h2.2v-4h4.34v4H393v2.82zM402.78 155.5c-1 2.9-2.6 3.26-5.53 3.26h-2v-3.52h1.5a1.542 1.542 0 001.74-1.48 18.841 18.841 0 00-1.1-3.47l-3.42-9.2h4.59l2.5 8.62h.05l2.5-8.62H408l-5.22 14.41zM404.28 118.48H.01v1h404.27v-1z" fill="currentColor"/></symbol><symbol id="logo-wnyc-stacked" viewBox="0 0 211 61"><path d="M150.9 34.6l-.1 25.3h-7l-9.6-11.6-.1 11.5h-8.3l.1-25.3h7l9.6 11.6.1-11.5h8.3zM173.6 50.8V60h-8.5v-9.3l-9.5-16.1h9l5.1 8.8 5.3-8.7h8.3l-9.7 16.1zM191.5 59c-2.1-1.1-3.8-2.7-5-4.7-1.2-2-1.8-4.3-1.8-6.9 0-2.6.6-4.8 1.9-6.9 1.2-2 2.9-3.6 5.1-4.7 2.2-1.1 4.6-1.7 7.2-1.7 2.5 0 4.7.5 6.6 1.3 1.9.9 3.5 2.1 4.8 3.8l-5.4 4.8c-1.6-2-3.4-3-5.5-3-1.8 0-3.2.6-4.3 1.7-1.1 1.1-1.6 2.7-1.6 4.6 0 1.9.5 3.5 1.6 4.6 1.1 1.2 2.5 1.7 4.3 1.7 2.1 0 4-1 5.6-2.9l5.4 4.8c-1.3 1.6-2.9 2.9-4.8 3.7-1.9.9-4.1 1.3-6.6 1.3-2.9.2-5.3-.4-7.5-1.5z" fill="currentColor"/><path d="M40.6.6l-8.4 25.3h-6.3L20.4 8.7l-5.8 17.1H8.3L.1.4h6.1l5.6 17.8L17.9.4h5.4l5.7 18L35 .5l5.6.1zM50.9 24.7C48.8 23.6 47.1 22 46 20c-1.2-2-1.8-4.2-1.8-6.7s.6-4.7 1.8-6.7c1.2-2 2.9-3.5 5-4.7C53.1.8 55.5.2 58.1.2c2.6 0 5 .6 7.1 1.7 2.1 1.1 3.7 2.7 4.9 4.7 1.2 2 1.8 4.2 1.8 6.7s-.6 4.7-1.8 6.7c-1.2 2-2.9 3.5-5 4.7-2.1 1.1-4.5 1.7-7.1 1.7-2.6 0-5-.5-7.1-1.7zm11.2-4.3c1.2-.7 2.2-1.6 2.9-2.9.7-1.2 1-2.6 1.1-4.2.1-1.6-.3-3-1-4.2-.7-1.2-1.6-2.2-2.8-2.9-1.2-.7-2.6-1-4.1-1.1-1.5 0-2.8.3-4.1 1-1.2.7-2.2 1.6-2.9 2.9-.7 1.2-1 2.6-1.1 4.2 0 1.6.3 3 1 4.2.7 1.2 1.6 2.2 2.8 2.9 1.2.7 2.6 1 4 1 1.7.2 3-.2 4.2-.9zM94.6 26.2l-4.9-7.1H84.3v7.1h-5.9L78.5.9h11c2.2 0 4.2.4 5.8 1.1 1.6.8 2.9 1.8 3.8 3.2.9 1.4 1.3 3 1.3 4.9 0 1.9-.5 3.5-1.4 4.9-.9 1.4-2.2 2.4-3.9 3.1l5.6 8.2-6.1-.1zM93.2 6.8c-.9-.8-2.3-1.2-4-1.2h-4.8v8.8h4.8c1.8 0 3.1-.4 4-1.1.9-.8 1.4-1.9 1.4-3.3s-.4-2.5-1.4-3.2zM117.6 16.3l-3.4 3.5v6.4h-5.8l.1-25.3h5.8l-.1 11.8L125.5.9h6.5l-10.5 11.2 11.1 14.1h-6.8l-8.2-9.9zM139.5 1.1h5.9l-.1 25.3h-5.9l.1-25.3zM177.9 1.2l-.1 25.3H173l-12.6-15.4-.1 15.4h-5.8l.1-25.3h4.9L172 16.6l.1-15.4h5.8zM203.7 13.6h5.4v10.3c-1.4 1-3 1.8-4.8 2.4-1.8.6-3.6.8-5.5.8-2.6 0-5-.6-7.1-1.7-2.1-1.1-3.7-2.7-4.9-4.7-1.2-2-1.8-4.2-1.8-6.8 0-2.6.6-4.8 1.8-6.7 1.2-2 2.9-3.5 5-4.6 2.1-1.1 4.5-1.7 7.2-1.7 2.2 0 4.2.4 6 1.1 1.8.8 3.3 1.8 4.5 3.3l-3.8 3.5c-1.8-1.9-4-2.9-6.5-2.9-1.6 0-3.1.3-4.3 1-1.3.7-2.2 1.6-2.9 2.8-.7 1.2-1.1 2.6-1.1 4.2s.3 3 1 4.2c.7 1.2 1.7 2.2 2.9 2.9 1.2.7 2.7 1 4.2 1.1 1.7 0 3.2-.3 4.6-1.1l.1-7.4z"/></symbol><symbol id="logo-wnyc-standard" viewBox="0 0 305 28"><path d="M247 1.3l-.1 25.3h-7L230.3 15l-.1 11.5h-8.3l.1-25.3h7l9.6 11.6.1-11.5h8.3zM268.7 17.6v9.2h-8.5v-9.3l-9.5-16.1h9l5.1 8.8 5.3-8.7h8.3l-9.7 16.1zM285.6 25.7c-2.1-1.1-3.8-2.7-5-4.7-1.2-2-1.8-4.3-1.8-6.9 0-2.6.6-4.8 1.9-6.9 1.2-2 2.9-3.6 5.1-4.7C288 1.4 290.4.8 293 .8c2.5 0 4.7.5 6.6 1.3 1.9.9 3.5 2.1 4.8 3.8l-5.4 4.8c-1.6-2-3.4-3-5.5-3-1.8 0-3.2.6-4.3 1.7-1.1 1.1-1.6 2.7-1.6 4.6 0 1.9.5 3.5 1.6 4.6 1.1 1.2 2.5 1.7 4.3 1.7 2.1 0 4-1 5.6-2.9l5.4 4.8c-1.3 1.6-2.9 2.9-4.8 3.7-1.9.9-4.1 1.3-6.6 1.3-3 .2-5.4-.4-7.5-1.5z" fill="currentColor"/><path d="M40.6.4l-8.4 25.3h-6.3L20.4 8.4l-5.8 17.1H8.3L.1.2h6.1L11.8 18 17.9.2h5.4l5.7 18L35 .3l5.6.1zM50.9 24.5c-2.1-1.1-3.8-2.7-4.9-4.7-1.2-2-1.8-4.2-1.8-6.7s.6-4.7 1.8-6.7c1.2-2 2.9-3.5 5-4.7C53.1.5 55.5 0 58.1 0c2.6 0 5 .6 7.1 1.7 2.1 1.1 3.7 2.7 4.9 4.7 1.2 2 1.8 4.2 1.8 6.7s-.6 4.7-1.8 6.7c-1.2 2-2.9 3.5-5 4.7-2.1 1.1-4.5 1.7-7.1 1.7-2.7 0-5-.6-7.1-1.7zm11.2-4.3c1.2-.7 2.2-1.6 2.9-2.9.7-1.2 1-2.6 1.1-4.2.1-1.6-.3-3-1-4.2-.7-1.2-1.6-2.2-2.8-2.9-1.2-.7-2.6-1-4.1-1.1-1.5 0-2.8.3-4.1 1-1.2.7-2.2 1.6-2.9 2.9-.7 1.2-1 2.6-1.1 4.2 0 1.6.3 3 1 4.2.7 1.2 1.6 2.2 2.8 2.9 1.2.7 2.6 1 4 1 1.6.1 2.9-.2 4.2-.9zM94.6 25.9l-4.9-7.1H84.3v7.1h-5.9L78.5.6h11c2.2 0 4.2.4 5.8 1.1 1.6.8 2.9 1.8 3.8 3.2.9 1.4 1.3 3 1.3 4.9 0 1.9-.5 3.5-1.4 4.9-.9 1.4-2.2 2.4-3.9 3.1l5.6 8.2-6.1-.1zM93.2 6.5c-.9-.8-2.3-1.2-4-1.2h-4.8v8.8h4.8c1.8 0 3.1-.4 4-1.1.9-.8 1.4-1.9 1.4-3.3-.1-1.3-.5-2.4-1.4-3.2zM117.7 16.1l-3.4 3.5V26h-5.8l.1-25.3h5.8l-.1 11.8L125.6.7h6.5L121.5 12l11.1 14.1h-6.8l-8.1-10zM139.5.8h5.9l-.1 25.3h-5.9l.1-25.3zM177.9 1l-.1 25.3H173l-12.6-15.4-.1 15.4h-5.8l.1-25.3h4.9L172 16.4l.2-15.4h5.7zM203.8 13.4h5.4v10.3c-1.4 1-3 1.8-4.8 2.4-1.8.6-3.6.8-5.5.8-2.6 0-5-.6-7.1-1.7-2.1-1.1-3.7-2.7-4.9-4.7-1.2-2-1.8-4.2-1.8-6.8 0-2.6.6-4.8 1.8-6.7 1.2-2 2.9-3.5 5-4.6 2.1-1.1 4.5-1.7 7.2-1.7 2.2 0 4.2.4 6 1.1 1.8.8 3.3 1.8 4.5 3.3l-3.8 3.5c-1.8-1.9-4-2.9-6.5-2.9-1.6 0-3.1.3-4.3 1-1.3.7-2.2 1.6-2.9 2.8-.7 1.2-1.1 2.6-1.1 4.2s.3 3 1 4.2c.7 1.2 1.7 2.2 2.9 2.9 1.2.7 2.7 1 4.2 1.1 1.7 0 3.2-.3 4.6-1.1l.1-7.4z"/></symbol><symbol id="option-wnyc-checkbox" viewBox="0 0 24 24"><path stroke="currentColor" stroke-width="2" d="M1 1h22v22H1z"/><path d="M20 6L9 17l-5-5" fill="none"/></symbol><symbol id="option-wnyc-radio" viewBox="0 0 24 24"><rect x="1" y="1" width="22" height="22" rx="11" stroke="currentColor" stroke-width="2" fill="transparent"/><rect x="4" y="4" width="16" height="16" rx="8" fill="currentColor"/></symbol><symbol id="select-wnyc-chevrons" viewBox="0 0 24 40"><path d="M6 25l6 6 6-6M18 15l-6-6-6 6" stroke="currentColor" stroke-width="2" stroke-linecap="round" stroke-linejoin="round" fill="transparent"/></symbol><symbol id="arrow-down-circle" viewBox="0 0 24 24"><circle cx="12" cy="12" r="10"/><polyline points="8 12 12 16 16 12"/><line x1="12" y1="8" x2="12" y2="16"/></symbol><symbol id="arrow-down-left" viewBox="0 0 24 24"><line x1="17" y1="7" x2="7" y2="17"/><polyline points="17 17 7 17 7 7"/></symbol><symbol id="arrow-down-right" viewBox="0 0 24 24"><line x1="7" y1="7" x2="17" y2="17"/><polyline points="17 7 17 17 7 17"/></symbol><symbol id="arrow-down" viewBox="0 0 24 24"><line x1="12" y1="5" x2="12" y2="19"/><polyline points="19 12 12 19 5 12"/></symbol><symbol id="arrow-left-circle" viewBox="0 0 24 24"><circle cx="12" cy="12" r="10"/><polyline points="12 8 8 12 12 16"/><line x1="16" y1="12" x2="8" y2="12"/></symbol><symbol id="arrow-left" viewBox="0 0 24 24"><line x1="19" y1="12" x2="5" y2="12"/><polyline points="12 19 5 12 12 5"/></symbol><symbol id="arrow-right-circle" viewBox="0 0 24 24"><circle cx="12" cy="12" r="10"/><polyline points="12 16 16 12 12 8"/><line x1="8" y1="12" x2="16" y2="12"/></symbol><symbol id="arrow-right" viewBox="0 0 24 24"><line x1="5" y1="12" x2="19" y2="12"/><polyline points="12 5 19 12 12 19"/></symbol><symbol id="arrow-up-circle" viewBox="0 0 24 24"><circle cx="12" cy="12" r="10"/><polyline points="16 12 12 8 8 12"/><line x1="12" y1="16" x2="12" y2="8"/></symbol><symbol id="arrow-up-left" viewBox="0 0 24 24"><line x1="17" y1="17" x2="7" y2="7"/><polyline points="7 17 7 7 17 7"/></symbol><symbol id="arrow-up-right" viewBox="0 0 24 24"><line x1="7" y1="17" x2="17" y2="7"/><polyline points="7 7 17 7 17 17"/></symbol><symbol id="arrow-up" viewBox="0 0 24 24"><line x1="12" y1="19" x2="12" y2="5"/><polyline points="5 12 12 5 19 12"/></symbol><symbol id="chevron-down" viewBox="0 0 24 24"><polyline points="6 9 12 15 18 9"/></symbol><symbol id="chevron-left" viewBox="0 0 24 24"><polyline points="15 18 9 12 15 6"/></symbol><symbol id="chevron-right" viewBox="0 0 24 24"><polyline points="9 18 15 12 9 6"/></symbol><symbol id="chevron-up" viewBox="0 0 24 24"><polyline points="18 15 12 9 6 15"/></symbol><symbol id="help-circle" viewBox="0 0 24 24"><circle cx="12" cy="12" r="10"/><path d="M9.09 9a3 3 0 0 1 5.83 1c0 2-3 3-3 3"/><line x1="12" y1="17" x2="12.01" y2="17"/></symbol><symbol id="calendar" viewBox="0 0 24 24"><rect x="3" y="4" width="18" height="18" rx="2" ry="2"/><line x1="16" y1="2" x2="16" y2="6"/><line x1="8" y1="2" x2="8" y2="6"/><line x1="3" y1="10" x2="21" y2="10"/></symbol><symbol id="users" viewBox="0 0 24 24"><path d="M17 21v-2a4 4 0 0 0-4-4H5a4 4 0 0 0-4 4v2"/><circle cx="9" cy="7" r="4"/><path d="M23 21v-2a4 4 0 0 0-3-3.87"/><path d="M16 3.13a4 4 0 0 1 0 7.75"/></symbol><symbol id="award" viewBox="0 0 24 24"><circle cx="12" cy="8" r="7"/><polyline points="8.21 13.89 7 23 12 20 17 23 15.79 13.88"/></symbol><symbol id="x-circle" viewBox="0 0 24 24"><circle cx="12" cy="12" r="10"/><line x1="15" y1="9" x2="9" y2="15"/><line x1="9" y1="9" x2="15" y2="15"/></symbol><symbol id="x-octagon" viewBox="0 0 24 24"><polygon points="7.86 2 16.14 2 22 7.86 22 16.14 16.14 22 7.86 22 2 16.14 2 7.86 7.86 2"/><line x1="15" y1="9" x2="9" y2="15"/><line x1="9" y1="9" x2="15" y2="15"/></symbol><symbol id="x-square" viewBox="0 0 24 24"><rect x="3" y="3" width="18" height="18" rx="2" ry="2"/><line x1="9" y1="9" x2="15" y2="15"/><line x1="15" y1="9" x2="9" y2="15"/></symbol><symbol id="x" viewBox="0 0 24 24"><line x1="18" y1="6" x2="6" y2="18"/><line x1="6" y1="6" x2="18" y2="18"/></symbol><symbol id="copy" viewBox="0 0 24 24"><rect x="9" y="9" width="13" height="13" rx="2" ry="2"/><path d="M5 15H4a2 2 0 0 1-2-2V4a2 2 0 0 1 2-2h9a2 2 0 0 1 2 2v1"/></symbol><symbol id="check-circle" viewBox="0 0 24 24"><path d="M22 11.08V12a10 10 0 1 1-5.93-9.14"/><polyline points="22 4 12 14.01 9 11.01"/></symbol><symbol id="check-square" viewBox="0 0 24 24"><polyline points="9 11 12 14 22 4"/><path d="M21 12v7a2 2 0 0 1-2 2H5a2 2 0 0 1-2-2V5a2 2 0 0 1 2-2h11"/></symbol><symbol id="check" viewBox="0 0 24 24"><polyline points="20 6 9 17 4 12"/></symbol><symbol id="facebook" viewBox="0 0 24 24"><path d="M18 2h-3a5 5 0 0 0-5 5v3H7v4h3v8h4v-8h3l1-4h-4V7a1 1 0 0 1 1-1h3z"/></symbol><symbol id="twitter" viewBox="0 0 24 24"><path d="M23 3a10.9 10.9 0 0 1-3.14 1.53 4.48 4.48 0 0 0-7.86 3v1A10.66 10.66 0 0 1 3 4s-4 9 5 13a11.64 11.64 0 0 1-7 2c9 5 20 0 20-11.5a4.5 4.5 0 0 0-.08-.83A7.72 7.72 0 0 0 23 3z"/></symbol><symbol id="menu" viewBox="0 0 24 24"><line x1="3" y1="12" x2="21" y2="12"/><line x1="3" y1="6" x2="21" y2="6"/><line x1="3" y1="18" x2="21" y2="18"/></symbol><symbol id="search" viewBox="0 0 24 24"><circle cx="11" cy="11" r="8"/><line x1="21" y1="21" x2="16.65" y2="16.65"/></symbol><symbol id="info" viewBox="0 0 24 24"><circle cx="12" cy="12" r="10"/><line x1="12" y1="16" x2="12" y2="12"/><line x1="12" y1="8" x2="12.01" y2="8"/></symbol><symbol id="alert-circle" viewBox="0 0 24 24"><circle cx="12" cy="12" r="10"/><line x1="12" y1="8" x2="12" y2="12"/><line x1="12" y1="16" x2="12.01" y2="16"/></symbol><symbol id="alert-octagon" viewBox="0 0 24 24"><polygon points="7.86 2 16.14 2 22 7.86 22 16.14 16.14 22 7.86 22 2 16.14 2 7.86 7.86 2"/><line x1="12" y1="8" x2="12" y2="12"/><line x1="12" y1="16" x2="12.01" y2="16"/></symbol><symbol id="alert-triangle" viewBox="0 0 24 24"><path d="M10.29 3.86L1.82 18a2 2 0 0 0 1.71 3h16.94a2 2 0 0 0 1.71-3L13.71 3.86a2 2 0 0 0-3.42 0z"/><line x1="12" y1="9" x2="12" y2="13"/><line x1="12" y1="17" x2="12.01" y2="17"/></symbol><symbol id="external-link" viewBox="0 0 24 24"><path d="M18 13v6a2 2 0 0 1-2 2H5a2 2 0 0 1-2-2V8a2 2 0 0 1 2-2h6"/><polyline points="15 3 21 3 21 9"/><line x1="10" y1="14" x2="21" y2="3"/></symbol><symbol id="share-2" viewBox="0 0 24 24"><circle cx="18" cy="5" r="3"/><circle cx="6" cy="12" r="3"/><circle cx="18" cy="19" r="3"/><line x1="8.59" y1="13.51" x2="15.42" y2="17.49"/><line x1="15.41" y1="6.51" x2="8.59" y2="10.49"/></symbol></svg>