<?xml version="1.0" encoding="UTF-8"?><!DOCTYPE svg PUBLIC "-//W3C//DTD SVG 1.1//EN" "http://www.w3.org/Graphics/SVG/1.1/DTD/svg11.dtd"><svg xmlns="http://www.w3.org/2000/svg" xmlns:xlink="http://www.w3.org/1999/xlink"><defs/><symbol id="shape-wnyc-c@light" viewBox="0 0 129 129"><circle id="shape-wnyc-c__circle" cx="64.5" cy="64.5" r="64.5" fill="#E3F1FD"/></symbol><symbol id="shape-wnyc-c" viewBox="0 0 129 129"><circle cx="64.5" cy="64.5" r="64.5" fill="#0C264D"/></symbol><symbol id="shape-wnyc-b@light" viewBox="0 0 262 262"><path transform="rotate(45 91.217 0)" fill="#E3F1FD" d="M91.217 0H220.21699999999998V129H91.217z"/><circle cx="197.5" cy="197.5" r="64.5" fill="#C9E7FC"/></symbol><symbol id="shape-wnyc-b" viewBox="0 0 262 262"><path transform="rotate(45 91.217 0)" fill="#0C264D" d="M91.217 0H220.21699999999998V129H91.217z"/><circle cx="197.5" cy="197.5" r="64.5" fill="#003C7A"/></symbol><symbol id="shape-wnyc-a@light" viewBox="0 0 218 183"><path transform="rotate(45 126.217 0)" fill="#E3F1FD" d="M126.217 0H255.21699999999998V129H126.217z"/><circle cx="25.5" cy="136.5" r="25.5" fill="#F0F6FA"/></symbol><symbol id="shape-wnyc-a" viewBox="0 0 218 183"><path transform="rotate(45 126.217 0)" fill="#003C7A" d="M126.217 0H255.21699999999998V129H126.217z"/><circle cx="25.5" cy="136.5" r="25.5" fill="#071F42"/></symbol><symbol id="select-wnyc-chevrons" viewBox="0 0 24 40"><path d="M6 25 12 31 18 25M18 15 12 9 6 15" stroke="currentColor" stroke-width="2" stroke-linecap="round" stroke-linejoin="round" fill="transparent"/></symbol><symbol id="option-wnyc-radio" viewBox="0 0 24 24"><rect x="1" y="1" width="22" height="22" rx="11" stroke="currentColor" stroke-width="2" fill="transparent"/><rect x="4" y="4" width="16" height="16" rx="8" stroke="transparent"/></symbol><symbol id="option-wnyc-checkbox" viewBox="0 0 24 24"><path stroke="currentColor" stroke-width="2" d="M1 1H23V23H1z"/><path d="M20 6L9 17L4 12" fill="none"/></symbol><symbol id="logo-wnyc-standard" viewBox="0 0 305 28"><path d="M247 1.3 246.9 26.6H239.9L230.3 15 230.2 26.5H221.9L222 1.2H229L238.6 12.8 238.7 1.3H247ZM268.7 17.6V26.8H260.2V17.5L250.7 1.4H259.7L264.8 10.2 270.1 1.5H278.4L268.7 17.6ZM285.6 25.7C283.5 24.6 281.8 23 280.6 21 279.4 19 278.8 16.7 278.8 14.1 278.8 11.5 279.4 9.3 280.7 7.2 281.9 5.2 283.6 3.6 285.8 2.5 288 1.4 290.4.800003 293 .800003 295.5.800003 297.7 1.3 299.6 2.1 301.5 3 303.1 4.2 304.4 5.9L299 10.7C297.4 8.7 295.6 7.7 293.5 7.7 291.7 7.7 290.3 8.3 289.2 9.4 288.1 10.5 287.6 12.1 287.6 14 287.6 15.9 288.1 17.5 289.2 18.6 290.3 19.8 291.7 20.3 293.5 20.3 295.6 20.3 297.5 19.3 299.1 17.4L304.5 22.2C303.2 23.8 301.6 25.1 299.7 25.9 297.8 26.8 295.6 27.2 293.1 27.2 290.1 27.4 287.7 26.8 285.6 25.7Z" fill="currentColor"/><path d="M40.6.399997 32.2 25.7H25.9L20.4 8.4 14.6 25.5H8.29997L.0999756.199997H6.19998L11.8 18 17.9.199997H23.3L29 18.2 35 .299997 40.6.399997ZM50.9 24.5C48.8 23.4 47.1 21.8 46 19.8 44.8 17.8 44.2 15.6 44.2 13.1 44.2 10.6 44.8 8.4 46 6.4 47.2 4.4 48.9 2.9 51 1.7 53.1.5 55.5 0 58.1 0 60.7 0 63.1.6 65.2 1.7 67.3 2.8 68.9 4.4 70.1 6.4 71.3 8.4 71.9 10.6 71.9 13.1 71.9 15.6 71.3 17.8 70.1 19.8 68.9 21.8 67.2 23.3 65.1 24.5 63 25.6 60.6 26.2 58 26.2 55.3 26.2 53 25.6 50.9 24.5ZM62.1 20.2C63.3 19.5 64.3 18.6 65 17.3 65.7 16.1 66 14.7 66.1 13.1 66.2 11.5 65.8 10.1 65.1 8.9 64.4 7.7 63.5 6.7 62.3 6 61.1 5.3 59.7 5 58.2 4.9 56.7 4.9 55.4 5.2 54.1 5.9 52.9 6.6 51.9 7.5 51.2 8.8 50.5 10 50.2 11.4 50.1 13 50.1 14.6 50.4 16 51.1 17.2 51.8 18.4 52.7 19.4 53.9 20.1 55.1 20.8 56.5 21.1 57.9 21.1 59.5 21.2 60.8 20.9 62.1 20.2ZM94.6 25.9 89.7 18.8H89.4 84.3V25.9H78.4L78.5.599998H89.5C91.7.599998 93.7.999999 95.3 1.7 96.9 2.5 98.2 3.5 99.1 4.9 100 6.3 100.4 7.9 100.4 9.8 100.4 11.7 99.9 13.3 99 14.7 98.1 16.1 96.8 17.1 95.1 17.8L100.7 26 94.6 25.9ZM93.2 6.5C92.3 5.7 90.9 5.3 89.2 5.3H84.4V14.1H89.2C91 14.1 92.3 13.7 93.2 13 94.1 12.2 94.6 11.1 94.6 9.7 94.5 8.4 94.1 7.3 93.2 6.5ZM117.7 16.1 114.3 19.6V26H108.5L108.6.699997H114.4L114.3 12.5 125.6.699997H132.1L121.5 12 132.6 26.1H125.8L117.7 16.1ZM139.5.800003H145.4L145.3 26.1H139.4L139.5.800003ZM177.9 1 177.8 26.3H173L160.4 10.9 160.3 26.3H154.5L154.6 1H159.5L172 16.4 172.2 1H177.9ZM203.8 13.4H209.2V23.7C207.8 24.7 206.2 25.5 204.4 26.1 202.6 26.7 200.8 26.9 198.9 26.9 196.3 26.9 193.9 26.3 191.8 25.2 189.7 24.1 188.1 22.5 186.9 20.5 185.7 18.5 185.1 16.3 185.1 13.7 185.1 11.1 185.7 8.9 186.9 7 188.1 5 189.8 3.5 191.9 2.4 194 1.3 196.4.699997 199.1.699997 201.3.699997 203.3 1.1 205.1 1.8 206.9 2.6 208.4 3.6 209.6 5.1L205.8 8.6C204 6.7 201.8 5.7 199.3 5.7 197.7 5.7 196.2 6 195 6.7 193.7 7.4 192.8 8.3 192.1 9.5 191.4 10.7 191 12.1 191 13.7 191 15.3 191.3 16.7 192 17.9 192.7 19.1 193.7 20.1 194.9 20.8 196.1 21.5 197.6 21.8 199.1 21.9 200.8 21.9 202.3 21.6 203.7 20.8L203.8 13.4Z"/></symbol><symbol id="logo-wnyc-stacked" viewBox="0 0 211 61"><path d="M150.9 34.6 150.8 59.9H143.8L134.2 48.3 134.1 59.8H125.8L125.9 34.5H132.9L142.5 46.1 142.6 34.6H150.9ZM173.6 50.8V60H165.1V50.7L155.6 34.6H164.6L169.7 43.4 175 34.7H183.3L173.6 50.8ZM191.5 59C189.4 57.9 187.7 56.3 186.5 54.3 185.3 52.3 184.7 50 184.7 47.4 184.7 44.8 185.3 42.6 186.6 40.5 187.8 38.5 189.5 36.9 191.7 35.8 193.9 34.7 196.3 34.1 198.9 34.1 201.4 34.1 203.6 34.6 205.5 35.4 207.4 36.3 209 37.5 210.3 39.2L204.9 44C203.3 42 201.5 41 199.4 41 197.6 41 196.2 41.6 195.1 42.7 194 43.8 193.5 45.4 193.5 47.3 193.5 49.2 194 50.8 195.1 51.9 196.2 53.1 197.6 53.6 199.4 53.6 201.5 53.6 203.4 52.6 205 50.7L210.4 55.5C209.1 57.1 207.5 58.4 205.6 59.2 203.7 60.1 201.5 60.5 199 60.5 196.1 60.7 193.7 60.1 191.5 59Z" fill="currentColor"/><path d="M40.6.600006 32.2 25.9H25.9L20.4 8.70001 14.6 25.8H8.29998L.0999756.399994H6.19997L11.8 18.2 17.9.399994H23.3L29 18.4 35 .5 40.6.600006ZM50.9 24.7C48.8 23.6 47.1 22 46 20 44.8 18 44.2 15.8 44.2 13.3 44.2 10.8 44.8 8.60001 46 6.60001 47.2 4.60001 48.9 3.09999 51 1.89999 53.1.799994 55.5.200012 58.1.200012 60.7.200012 63.1.799994 65.2 1.89999 67.3 2.99999 68.9 4.60001 70.1 6.60001 71.3 8.60001 71.8999 10.8 71.8999 13.3 71.8999 15.8 71.3 18 70.1 20 68.9 22 67.2 23.5 65.1 24.7 63 25.8 60.6 26.4 58 26.4 55.4 26.4 53 25.9 50.9 24.7ZM62.1 20.4C63.3 19.7 64.3 18.8 65 17.5 65.7 16.3 66 14.9 66.1 13.3 66.2 11.7 65.8 10.3 65.1 9.10001 64.4 7.90001 63.5 6.90001 62.3 6.20001 61.1 5.50001 59.7 5.20001 58.2 5.10001 56.7 5.10001 55.4 5.40001 54.1 6.10001 52.9 6.80001 51.9 7.7 51.2 9 50.5 10.2 50.2 11.6 50.1 13.2 50.1 14.8 50.4 16.2 51.1 17.4 51.8 18.6 52.6999 19.6 53.8999 20.3 55.0999 21 56.4999 21.3 57.8999 21.3 59.5999 21.5 60.9 21.1 62.1 20.4ZM94.6 26.2 89.7 19.1H89.4 84.3V26.2H78.4L78.5.899994H89.5C91.7.899994 93.7 1.3 95.3 2 96.9 2.8 98.2 3.80001 99.1 5.20001 100 6.60001 100.4 8.20001 100.4 10.1 100.4 12 99.9 13.6 99 15 98.1 16.4 96.8 17.4 95.1 18.1L100.7 26.3 94.6 26.2ZM93.2 6.79999C92.3 5.99999 90.9 5.60001 89.2 5.60001H84.4V14.4H89.2C91 14.4 92.3 14 93.2 13.3 94.1 12.5 94.6 11.4 94.6 10 94.6 8.6 94.2 7.49999 93.2 6.79999ZM117.6 16.3 114.2 19.8V26.2H108.4L108.5.899994H114.3L114.2 12.7 125.5.899994H132L121.5 12.1 132.6 26.2H125.8L117.6 16.3ZM139.5 1.10001H145.4L145.3 26.4H139.4L139.5 1.10001ZM177.9 1.20001 177.8 26.5H173L160.4 11.1 160.3 26.5H154.5L154.6 1.20001H159.5L172 16.6 172.1 1.20001H177.9ZM203.7 13.6H209.1V23.9C207.7 24.9 206.1 25.7 204.3 26.3 202.5 26.9 200.7 27.1 198.8 27.1 196.2 27.1 193.8 26.5 191.7 25.4 189.6 24.3 188 22.7 186.8 20.7 185.6 18.7 185 16.5 185 13.9 185 11.3 185.6 9.10001 186.8 7.20001 188 5.20001 189.7 3.70001 191.8 2.60001 193.9 1.50001 196.3.899994 199 .899994 201.2.899994 203.2 1.3 205 2 206.8 2.8 208.3 3.79999 209.5 5.29999L205.7 8.79999C203.9 6.89999 201.7 5.89999 199.2 5.89999 197.6 5.89999 196.1 6.19999 194.9 6.89999 193.6 7.59999 192.7 8.50001 192 9.70001 191.3 10.9 190.9 12.3 190.9 13.9 190.9 15.5 191.2 16.9 191.9 18.1 192.6 19.3 193.6 20.3 194.8 21 196 21.7 197.5 22 199 22.1 200.7 22.1 202.2 21.8 203.6 21L203.7 13.6Z"/></symbol><symbol id="logo-partnership-workdev-opportunity" viewBox="0 0 1509 171"><path d="M446.505 68.3803 456 59.0104V30.5052L427.495 2H332.505L304 30.5052V11.5156L294.505 2H256.505L247.01 11.5156V30.5052L228 49.5156 209.01 30.5052V11.5156L199.495 2H161.495L152 11.5156 142.505 2H104.505L95.0104 11.5156V49.5156L47.4948 2H9.49479L0 11.5156V144.505L9.49479 154H47.4948L57.0104 144.505V106.505L104.505 154H142.505L152 144.505V68.5052L199.495 116V144.505L209.01 154H247.01L256.505 144.505V116L304 68.5052V125.516L332.505 154H427.495L456 125.516V97.0104L446.505 87.4948H398.99V97.0104H361.01V59.0104H398.99V68.3803H446.505ZM449.233 8.41315C450.128 8.41315 450.899 8.32986 450.899 7.28876 450.899 6.41424 450.045 6.31013 449.337 6.31013H447.9V8.41315H449.233ZM447.921 12.4942H446.734V5.31068H449.462C451.19 5.31068 452.085 5.91452 452.085 7.37205 452.085 8.68383 451.294 9.20438 450.211 9.32931L452.231 12.4942H450.899L449.045 9.4126H447.942V12.4942H447.921ZM449.191 3.41589C446.38 3.41589 444.194 5.62301 444.194 8.78794 444.194 11.7447 446.109 14.16 449.191 14.16 451.981 14.16 454.168 11.9737 454.168 8.78794 454.168 5.62301 451.981 3.41589 449.191 3.41589ZM449.191 15.2844C445.464 15.2844 442.799 12.4942 442.799 8.78794 442.799 4.87342 445.756 2.2915 449.191 2.2915 452.585 2.2915 455.542 4.87342 455.542 8.78794 455.563 12.6816 452.606 15.2844 449.191 15.2844ZM946.445 40H955.72V11.274H955.826L963.776 40H971.302L979.252 11.274H979.358V40H988.633V2.158H974.111L967.592 27.386H967.486L960.967 2.158H946.445V40ZM1002.61 32.103C1002.61 29.93 1004.31 29.082 1006.32 28.605 1008.28 28.075 1010.62 27.916 1011.89 27.121 1012.1 32.792 1010.67 35.23 1006.38 35.23 1004.36 35.23 1002.61 34.329 1002.61 32.103ZM1003.14 20.973C1003.57 18.641 1005.16 17.528 1007.65 17.528 1009.5 17.528 1011.99 18.323 1011.99 20.39 1011.99 22.086 1011.15 22.616 1009.61 22.934 1003.36 24.206 993.603 23.517 993.603 32.474 993.603 38.145 997.737 40.795 1002.98 40.795 1006.27 40.795 1009.72 39.841 1012.05 37.403 1012.15 38.304 1012.26 39.152 1012.58 40H1021.64C1020.58 37.827 1020.58 35.283 1020.58 32.951V20.92C1020.58 13.129 1014.27 11.698 1007.75 11.698 1004.63 11.698 1001.45 12.228 999.009 13.606 996.571 15.037 994.875 17.369 994.716 20.973H1003.14ZM1052.37 12.493H1043.15L1037.95 30.407H1037.85L1032.65 12.493H1023.11L1030.21 31.626C1030.74 33.11 1032.49 37.35 1032.49 38.834 1032.49 40.742 1030.96 41.908 1028.89 41.908H1025.76V49.222H1030C1036.1 49.222 1039.33 48.48 1041.5 42.438L1052.37 12.493ZM1062.66 26.273C1062.66 22.775 1063.93 18.588 1068.12 18.588 1072.3 18.588 1073.63 22.775 1073.63 26.273 1073.63 29.771 1072.3 33.905 1068.12 33.905 1063.93 33.905 1062.66 29.771 1062.66 26.273ZM1053.65 26.273C1053.65 34.541 1059.58 40.795 1068.12 40.795 1076.65 40.795 1082.64 34.541 1082.64 26.273 1082.64 18.005 1076.65 11.698 1068.12 11.698 1059.58 11.698 1053.65 18.005 1053.65 26.273ZM1087.69 40H1096.7V26.379C1096.7 22.934 1099.03 19.86 1103.48 19.86 1104.7 19.86 1105.76 20.072 1106.93 20.39V12.175C1106.24 12.016 1105.5 11.963 1104.81 11.963 1100.94 11.963 1097.87 13.818 1096.54 17.316H1096.43V12.493H1087.69V40ZM1110.57 12.016H1114.39C1114.55 14.454 1112.91 16.574 1110.57 16.998V21.238C1116.35 20.284 1118.95 16.256 1119 10.956V2.158H1110.57V12.016ZM1120.1 30.937C1120.36 38.622 1127.04 40.795 1133.56 40.795 1139.76 40.795 1146.76 38.357 1146.76 30.99 1146.76 28.711 1145.33 24.683 1139.76 23.57 1135.63 22.669 1129.58 22.192 1129.58 19.595 1129.58 17.687 1131.97 17.528 1133.45 17.528 1134.57 17.528 1135.57 17.74 1136.32 18.217 1137.06 18.694 1137.48 19.436 1137.48 20.602H1145.8C1145.48 13.447 1139.18 11.698 1133.14 11.698 1127.73 11.698 1120.57 13.5 1120.57 20.125 1120.57 27.545 1127.68 27.704 1133.35 29.135 1134.94 29.506 1137.75 29.93 1137.75 32.05 1137.75 34.223 1135.26 34.965 1133.51 34.965 1132.23 34.965 1131.02 34.647 1130.17 34.011 1129.27 33.322 1128.68 32.315 1128.68 30.937H1120.1ZM1166.79 21.079C1166.79 32.05 1173.53 40.795 1185.45 40.795 1197.38 40.795 1204.11 32.05 1204.11 21.079 1204.11 10.108 1197.38 1.363 1185.45 1.363 1173.53 1.363 1166.79 10.108 1166.79 21.079ZM1176.65 21.079C1176.65 15.461 1179.09 9.843 1185.45 9.843 1191.81 9.843 1194.25 15.461 1194.25 21.079 1194.25 26.697 1191.81 32.315 1185.45 32.315 1179.09 32.315 1176.65 26.697 1176.65 21.079ZM1211.07 40H1220.08V18.323H1225.48V12.493H1220.08V11.274C1220.08 8.783 1221.35 8.518 1223.42 8.518 1224.21 8.518 1225.01 8.571 1225.85 8.677V2.317C1224.42 2.264 1222.94 2.158 1221.51 2.158 1213.82 2.158 1211.07 4.596 1211.07 12.493H1206.72V18.323H1211.07V40ZM1246.76 40H1255.77V12.493H1246.76V40ZM1255.77 2.158H1246.76V9.048H1255.77V2.158ZM1229.75 40H1238.76V18.323H1244.17V12.493H1238.76V11.274C1238.76 8.783 1240.03 8.518 1242.1 8.518 1242.9 8.518 1243.69 8.571 1244.54 8.677V2.317C1243.11 2.264 1241.62 2.158 1240.19 2.158 1232.51 2.158 1229.75 4.596 1229.75 12.493H1225.41V18.323H1229.75V40ZM1288.82 22.563C1288.18 15.302 1282.09 11.698 1275.25 11.698 1266.4 11.698 1260.83 17.952 1260.83 26.697 1260.83 35.124 1266.98 40.795 1275.25 40.795 1282.56 40.795 1288.29 36.555 1289.08 29.188H1280.34C1279.91 32.103 1278.32 33.905 1275.2 33.905 1271.38 33.905 1269.84 30.248 1269.84 26.697 1269.84 22.881 1270.64 18.588 1275.67 18.588 1277.95 18.588 1280.02 20.231 1280.07 22.563H1288.82ZM1301.26 23.411C1301.79 20.072 1303.91 17.793 1307.09 17.793 1310.11 17.793 1312.28 20.337 1312.44 23.411H1301.26ZM1321.45 28.446C1321.88 19.118 1316.95 11.698 1307.09 11.698 1298.98 11.698 1292.25 17.74 1292.25 26.167 1292.25 35.389 1298.34 40.795 1307.3 40.795 1313.45 40.795 1319.33 38.039 1320.98 31.679H1312.55C1311.7 33.693 1309.58 34.7 1307.41 34.7 1303.59 34.7 1301.42 32.209 1301.26 28.446H1321.45ZM1350.38 26.273C1350.38 22.775 1351.65 18.588 1355.84 18.588 1360.02 18.588 1361.35 22.775 1361.35 26.273 1361.35 29.771 1360.02 33.905 1355.84 33.905 1351.65 33.905 1350.38 29.771 1350.38 26.273ZM1341.37 26.273C1341.37 34.541 1347.3 40.795 1355.84 40.795 1364.37 40.795 1370.36 34.541 1370.36 26.273 1370.36 18.005 1364.37 11.698 1355.84 11.698 1347.3 11.698 1341.37 18.005 1341.37 26.273ZM1377.05 40H1386.06V18.323H1391.47V12.493H1386.06V11.274C1386.06 8.783 1387.34 8.518 1389.4 8.518 1390.2 8.518 1390.99 8.571 1391.84 8.677V2.317C1390.41 2.264 1388.93 2.158 1387.5 2.158 1379.81 2.158 1377.05 4.596 1377.05 12.493H1372.71V18.323H1377.05V40ZM976.39 59.158H943.954V67.638H955.243V97H965.101V67.638H976.39V59.158ZM982.014 89.103C982.014 86.93 983.71 86.082 985.724 85.605 987.685 85.075 990.017 84.916 991.289 84.121 991.501 89.792 990.07 92.23 985.777 92.23 983.763 92.23 982.014 91.329 982.014 89.103ZM982.544 77.973C982.968 75.641 984.558 74.528 987.049 74.528 988.904 74.528 991.395 75.323 991.395 77.39 991.395 79.086 990.547 79.616 989.01 79.934 982.756 81.206 973.004 80.517 973.004 89.474 973.004 95.145 977.138 97.795 982.385 97.795 985.671 97.795 989.116 96.841 991.448 94.403 991.554 95.304 991.66 96.152 991.978 97H1001.04C999.981 94.827 999.981 92.283 999.981 89.951V77.92C999.981 70.129 993.674 68.698 987.155 68.698 984.028 68.698 980.848 69.228 978.41 70.606 975.972 72.037 974.276 74.369 974.117 77.973H982.544ZM1006.22 97H1015.23V59.158H1006.22V97ZM1029.27 80.411C1029.8 77.072 1031.92 74.793 1035.1 74.793 1038.12 74.793 1040.3 77.337 1040.46 80.411H1029.27ZM1049.47 85.446C1049.89 76.118 1044.96 68.698 1035.1 68.698 1026.99 68.698 1020.26 74.74 1020.26 83.167 1020.26 92.389 1026.36 97.795 1035.31 97.795 1041.46 97.795 1047.35 95.039 1048.99 88.679H1040.56C1039.71 90.693 1037.59 91.7 1035.42 91.7 1031.6 91.7 1029.43 89.209 1029.27 85.446H1049.47ZM1053.99 97H1063V82.001C1063 78.98 1064.48 76.118 1067.87 76.118 1072.8 76.118 1072.38 79.934 1072.38 83.697V97H1081.39V79.351C1081.39 75.376 1080.65 68.698 1071.48 68.698 1068.19 68.698 1064.48 70.447 1062.84 73.256H1062.73V69.493H1053.99V97ZM1103.96 69.493H1098.4V61.172H1089.39V69.493H1084.83V75.323H1089.39V87.566C1089.39 95.039 1091.35 97.265 1099.03 97.265 1100.67 97.265 1102.32 97.053 1103.96 97V90.375C1103.17 90.375 1102.37 90.481 1101.63 90.481 1099.67 90.481 1098.4 90.004 1098.4 87.831V75.323H1103.96V69.493ZM1132.21 89.103C1132.21 86.93 1133.91 86.082 1135.92 85.605 1137.89 85.075 1140.22 84.916 1141.49 84.121 1141.7 89.792 1140.27 92.23 1135.98 92.23 1133.96 92.23 1132.21 91.329 1132.21 89.103ZM1132.74 77.973C1133.17 75.641 1134.76 74.528 1137.25 74.528 1139.1 74.528 1141.6 75.323 1141.6 77.39 1141.6 79.086 1140.75 79.616 1139.21 79.934 1132.96 81.206 1123.2 80.517 1123.2 89.474 1123.2 95.145 1127.34 97.795 1132.59 97.795 1135.87 97.795 1139.32 96.841 1141.65 94.403 1141.75 95.304 1141.86 96.152 1142.18 97H1151.24C1150.18 94.827 1150.18 92.283 1150.18 89.951V77.92C1150.18 70.129 1143.87 68.698 1137.36 68.698 1134.23 68.698 1131.05 69.228 1128.61 70.606 1126.17 72.037 1124.48 74.369 1124.32 77.973H1132.74ZM1156.11 97H1165.12V82.001C1165.12 78.98 1166.6 76.118 1169.99 76.118 1174.92 76.118 1174.5 79.934 1174.5 83.697V97H1183.51V79.351C1183.51 75.376 1182.76 68.698 1173.6 68.698 1170.31 68.698 1166.6 70.447 1164.96 73.256H1164.85V69.493H1156.11V97ZM1202.69 75.588C1206.61 75.588 1208.04 79.245 1208.04 83.22 1208.04 86.718 1207.09 90.905 1202.69 90.905 1198.55 90.905 1197.17 86.718 1197.17 82.955 1197.17 79.457 1198.55 75.588 1202.69 75.588ZM1216.73 59.158H1207.72V72.461H1207.62C1205.76 69.97 1203.16 68.698 1199.77 68.698 1191.98 68.698 1188.16 75.482 1188.16 82.637 1188.16 90.375 1191.82 97.795 1200.46 97.795 1203.64 97.795 1206.29 96.417 1208.04 93.82H1208.15V97H1216.73V59.158ZM1287.61 59.158H1277.75L1272.4 86.824H1272.29L1266.73 59.158H1257.45L1251.89 86.824H1251.78L1246.43 59.158H1236.57L1246.8 97H1256.82L1262.01 70.924H1262.12L1267.31 97H1277.17L1287.61 59.158ZM1296.34 83.273C1296.34 79.775 1297.61 75.588 1301.8 75.588 1305.99 75.588 1307.31 79.775 1307.31 83.273 1307.31 86.771 1305.99 90.905 1301.8 90.905 1297.61 90.905 1296.34 86.771 1296.34 83.273ZM1287.33 83.273C1287.33 91.541 1293.27 97.795 1301.8 97.795 1310.33 97.795 1316.32 91.541 1316.32 83.273 1316.32 75.005 1310.33 68.698 1301.8 68.698 1293.27 68.698 1287.33 75.005 1287.33 83.273ZM1321.38 97H1330.39V83.379C1330.39 79.934 1332.72 76.86 1337.17 76.86 1338.39 76.86 1339.45 77.072 1340.62 77.39V69.175C1339.93 69.016 1339.18 68.963 1338.5 68.963 1334.63 68.963 1331.55 70.818 1330.23 74.316H1330.12V69.493H1321.38V97ZM1343.62 97H1352.63V88.202L1354.97 85.923 1361.7 97H1372.56L1361.22 79.881 1371.29 69.493H1360.85L1352.63 78.662V59.158H1343.62V97ZM1377 97H1386.01V75.323H1391.42V69.493H1386.01V68.274C1386.01 65.783 1387.28 65.518 1389.35 65.518 1390.15 65.518 1390.94 65.571 1391.79 65.677V59.317C1390.36 59.264 1388.87 59.158 1387.44 59.158 1379.76 59.158 1377 61.596 1377 69.493H1372.66V75.323H1377V97ZM1402.34 83.273C1402.34 79.775 1403.61 75.588 1407.8 75.588 1411.99 75.588 1413.31 79.775 1413.31 83.273 1413.31 86.771 1411.99 90.905 1407.8 90.905 1403.61 90.905 1402.34 86.771 1402.34 83.273ZM1393.33 83.273C1393.33 91.541 1399.27 97.795 1407.8 97.795 1416.33 97.795 1422.32 91.541 1422.32 83.273 1422.32 75.005 1416.33 68.698 1407.8 68.698 1399.27 68.698 1393.33 75.005 1393.33 83.273ZM1427.38 97H1436.39V83.379C1436.39 79.934 1438.72 76.86 1443.17 76.86 1444.39 76.86 1445.45 77.072 1446.62 77.39V69.175C1445.93 69.016 1445.18 68.963 1444.5 68.963 1440.63 68.963 1437.55 70.818 1436.23 74.316H1436.12V69.493H1427.38V97ZM1475.35 79.563C1474.72 72.302 1468.62 68.698 1461.78 68.698 1452.93 68.698 1447.37 74.952 1447.37 83.697 1447.37 92.124 1453.52 97.795 1461.78 97.795 1469.1 97.795 1474.82 93.555 1475.62 86.188H1466.87C1466.45 89.103 1464.86 90.905 1461.73 90.905 1457.91 90.905 1456.38 87.248 1456.38 83.697 1456.38 79.881 1457.17 75.588 1462.21 75.588 1464.49 75.588 1466.55 77.231 1466.61 79.563H1475.35ZM1487.79 80.411C1488.32 77.072 1490.44 74.793 1493.62 74.793 1496.65 74.793 1498.82 77.337 1498.98 80.411H1487.79ZM1507.99 85.446C1508.41 76.118 1503.48 68.698 1493.62 68.698 1485.52 68.698 1478.78 74.74 1478.78 83.167 1478.78 92.389 1484.88 97.795 1493.84 97.795 1499.98 97.795 1505.87 95.039 1507.51 88.679H1499.08C1498.24 90.693 1496.12 91.7 1493.94 91.7 1490.13 91.7 1487.95 89.209 1487.79 85.446H1507.99ZM946.392 154H962.663C974.164 154 981.213 147.322 981.213 134.92 981.213 123.207 974.27 116.158 962.663 116.158H946.392V154ZM956.25 124.638H960.914C967.645 124.638 971.355 127.977 971.355 134.867 971.355 142.446 968.387 145.361 960.914 145.52H956.25V124.638ZM993.922 137.411C994.452 134.072 996.572 131.793 999.752 131.793 1002.77 131.793 1004.95 134.337 1005.1 137.411H993.922ZM1014.11 142.446C1014.54 133.118 1009.61 125.698 999.752 125.698 991.643 125.698 984.912 131.74 984.912 140.167 984.912 149.389 991.007 154.795 999.964 154.795 1006.11 154.795 1011.99 152.039 1013.64 145.679H1005.21C1004.36 147.693 1002.24 148.7 1000.07 148.7 996.254 148.7 994.081 146.209 993.922 142.446H1014.11ZM1044.24 126.493H1035.07L1029.98 144.672H1029.87L1024.84 126.493H1015.46L1024.63 154H1035.01L1044.24 126.493ZM1054.79 137.411C1055.32 134.072 1057.44 131.793 1060.62 131.793 1063.64 131.793 1065.81 134.337 1065.97 137.411H1054.79ZM1074.98 142.446C1075.41 133.118 1070.48 125.698 1060.62 125.698 1052.51 125.698 1045.78 131.74 1045.78 140.167 1045.78 149.389 1051.87 154.795 1060.83 154.795 1066.98 154.795 1072.86 152.039 1074.51 145.679H1066.08C1065.23 147.693 1063.11 148.7 1060.94 148.7 1057.12 148.7 1054.95 146.209 1054.79 142.446H1074.98ZM1079.82 154H1088.83V116.158H1079.82V154ZM1102.87 140.273C1102.87 136.775 1104.14 132.588 1108.33 132.588 1112.52 132.588 1113.84 136.775 1113.84 140.273 1113.84 143.771 1112.52 147.905 1108.33 147.905 1104.14 147.905 1102.87 143.771 1102.87 140.273ZM1093.86 140.273C1093.86 148.541 1099.8 154.795 1108.33 154.795 1116.86 154.795 1122.85 148.541 1122.85 140.273 1122.85 132.005 1116.86 125.698 1108.33 125.698 1099.8 125.698 1093.86 132.005 1093.86 140.273ZM1141.79 132.588C1145.77 132.588 1147.14 136.457 1147.14 139.955 1147.14 143.718 1145.77 147.905 1141.74 147.905 1137.66 147.905 1136.28 144.778 1136.28 139.955 1136.28 134.284 1139.35 132.588 1141.79 132.588ZM1127.59 163.222H1136.6V151.032H1136.7C1138.56 153.523 1141.16 154.795 1144.55 154.795 1152.34 154.795 1156.15 148.011 1156.15 140.856 1156.15 133.118 1152.5 125.698 1143.86 125.698 1140.68 125.698 1138.03 127.076 1136.28 129.673H1136.17V126.493H1127.59V163.222ZM1160.97 154H1169.98V140.591C1169.98 134.973 1171.36 133.118 1174.59 133.118 1177.03 133.118 1177.98 135.132 1177.98 138.365V154H1186.99V140.538C1186.99 136.086 1187.37 133.118 1191.23 133.118 1193.57 133.118 1195 134.867 1195 137.835V154H1204.01V137.57C1204.01 132.323 1203.05 125.698 1194.31 125.698 1190.6 125.698 1187.9 127.235 1185.72 130.15 1184.24 126.811 1181.16 125.698 1177.72 125.698 1174.38 125.698 1171.47 127.5 1169.82 130.256H1169.72V126.493H1160.97V154ZM1217.72 137.411C1218.25 134.072 1220.37 131.793 1223.55 131.793 1226.57 131.793 1228.75 134.337 1228.91 137.411H1217.72ZM1237.92 142.446C1238.34 133.118 1233.41 125.698 1223.55 125.698 1215.44 125.698 1208.71 131.74 1208.71 140.167 1208.71 149.389 1214.81 154.795 1223.76 154.795 1229.91 154.795 1235.8 152.039 1237.44 145.679H1229.01C1228.16 147.693 1226.04 148.7 1223.87 148.7 1220.05 148.7 1217.88 146.209 1217.72 142.446H1237.92ZM1242.44 154H1251.45V139.001C1251.45 135.98 1252.93 133.118 1256.32 133.118 1261.25 133.118 1260.83 136.934 1260.83 140.697V154H1269.84V136.351C1269.84 132.376 1269.1 125.698 1259.93 125.698 1256.64 125.698 1252.93 127.447 1251.29 130.256H1251.18V126.493H1242.44V154ZM1292.41 126.493H1286.85V118.172H1277.84V126.493H1273.28V132.323H1277.84V144.566C1277.84 152.039 1279.8 154.265 1287.48 154.265 1289.12 154.265 1290.77 154.053 1292.41 154V147.375C1291.62 147.375 1290.82 147.481 1290.08 147.481 1288.12 147.481 1286.85 147.004 1286.85 144.831V132.323H1292.41V126.493ZM494.445 40H503.72V11.274H503.826L511.776 40H519.302L527.252 11.274H527.358V40H536.633V2.158H522.111L515.592 27.386H515.486L508.967 2.158H494.445V40ZM550.613 32.103C550.613 29.93 552.309 29.082 554.323 28.605 556.284 28.075 558.616 27.916 559.888 27.121 560.1 32.792 558.669 35.23 554.376 35.23 552.362 35.23 550.613 34.329 550.613 32.103ZM551.143 20.973C551.567 18.641 553.157 17.528 555.648 17.528 557.503 17.528 559.994 18.323 559.994 20.39 559.994 22.086 559.146 22.616 557.609 22.934 551.355 24.206 541.603 23.517 541.603 32.474 541.603 38.145 545.737 40.795 550.984 40.795 554.27 40.795 557.715 39.841 560.047 37.403 560.153 38.304 560.259 39.152 560.577 40H569.64C568.58 37.827 568.58 35.283 568.58 32.951V20.92C568.58 13.129 562.273 11.698 555.754 11.698 552.627 11.698 549.447 12.228 547.009 13.606 544.571 15.037 542.875 17.369 542.716 20.973H551.143ZM600.368 12.493H591.146L585.952 30.407H585.846L580.652 12.493H571.112L578.214 31.626C578.744 33.11 580.493 37.35 580.493 38.834 580.493 40.742 578.956 41.908 576.889 41.908H573.762V49.222H578.002C584.097 49.222 587.33 48.48 589.503 42.438L600.368 12.493ZM610.656 26.273C610.656 22.775 611.928 18.588 616.115 18.588 620.302 18.588 621.627 22.775 621.627 26.273 621.627 29.771 620.302 33.905 616.115 33.905 611.928 33.905 610.656 29.771 610.656 26.273ZM601.646 26.273C601.646 34.541 607.582 40.795 616.115 40.795 624.648 40.795 630.637 34.541 630.637 26.273 630.637 18.005 624.648 11.698 616.115 11.698 607.582 11.698 601.646 18.005 601.646 26.273ZM635.69 40H644.7V26.379C644.7 22.934 647.032 19.86 651.484 19.86 652.703 19.86 653.763 20.072 654.929 20.39V12.175C654.24 12.016 653.498 11.963 652.809 11.963 648.94 11.963 645.866 13.818 644.541 17.316H644.435V12.493H635.69V40ZM658.574 12.016H662.39C662.549 14.454 660.906 16.574 658.574 16.998V21.238C664.351 20.284 666.948 16.256 667.001 10.956V2.158H658.574V12.016ZM668.097 30.937C668.362 38.622 675.04 40.795 681.559 40.795 687.76 40.795 694.756 38.357 694.756 30.99 694.756 28.711 693.325 24.683 687.76 23.57 683.626 22.669 677.584 22.192 677.584 19.595 677.584 17.687 679.969 17.528 681.453 17.528 682.566 17.528 683.573 17.74 684.315 18.217 685.057 18.694 685.481 19.436 685.481 20.602H693.802C693.484 13.447 687.177 11.698 681.135 11.698 675.729 11.698 668.574 13.5 668.574 20.125 668.574 27.545 675.676 27.704 681.347 29.135 682.937 29.506 685.746 29.93 685.746 32.05 685.746 34.223 683.255 34.965 681.506 34.965 680.234 34.965 679.015 34.647 678.167 34.011 677.266 33.322 676.683 32.315 676.683 30.937H668.097ZM714.795 21.079C714.795 32.05 721.526 40.795 733.451 40.795 745.376 40.795 752.107 32.05 752.107 21.079 752.107 10.108 745.376 1.363 733.451 1.363 721.526 1.363 714.795 10.108 714.795 21.079ZM724.653 21.079C724.653 15.461 727.091 9.843 733.451 9.843 739.811 9.843 742.249 15.461 742.249 21.079 742.249 26.697 739.811 32.315 733.451 32.315 727.091 32.315 724.653 26.697 724.653 21.079ZM759.067 40H768.077V18.323H773.483V12.493H768.077V11.274C768.077 8.783 769.349 8.518 771.416 8.518 772.211 8.518 773.006 8.571 773.854 8.677V2.317C772.423 2.264 770.939 2.158 769.508 2.158 761.823 2.158 759.067 4.596 759.067 12.493H754.721V18.323H759.067V40ZM794.765 40H803.775V12.493H794.765V40ZM803.775 2.158H794.765V9.048H803.775V2.158ZM777.752 40H786.762V18.323H792.168V12.493H786.762V11.274C786.762 8.783 788.034 8.518 790.101 8.518 790.896 8.518 791.691 8.571 792.539 8.677V2.317C791.108 2.264 789.624 2.158 788.193 2.158 780.508 2.158 777.752 4.596 777.752 12.493H773.406V18.323H777.752V40ZM836.817 22.563C836.181 15.302 830.086 11.698 823.249 11.698 814.398 11.698 808.833 17.952 808.833 26.697 808.833 35.124 814.981 40.795 823.249 40.795 830.563 40.795 836.287 36.555 837.082 29.188H828.337C827.913 32.103 826.323 33.905 823.196 33.905 819.38 33.905 817.843 30.248 817.843 26.697 817.843 22.881 818.638 18.588 823.673 18.588 825.952 18.588 828.019 20.231 828.072 22.563H836.817ZM849.26 23.411C849.79 20.072 851.91 17.793 855.09 17.793 858.111 17.793 860.284 20.337 860.443 23.411H849.26ZM869.453 28.446C869.877 19.118 864.948 11.698 855.09 11.698 846.981 11.698 840.25 17.74 840.25 26.167 840.25 35.389 846.345 40.795 855.302 40.795 861.45 40.795 867.333 38.039 868.976 31.679H860.549C859.701 33.693 857.581 34.7 855.408 34.7 851.592 34.7 849.419 32.209 849.26 28.446H869.453ZM495.982 97H504.992V75.323H510.398V69.493H504.992V68.274C504.992 65.783 506.264 65.518 508.331 65.518 509.126 65.518 509.921 65.571 510.769 65.677V59.317C509.338 59.264 507.854 59.158 506.423 59.158 498.738 59.158 495.982 61.596 495.982 69.493H491.636V75.323H495.982V97ZM521.322 83.273C521.322 79.775 522.594 75.588 526.781 75.588 530.968 75.588 532.293 79.775 532.293 83.273 532.293 86.771 530.968 90.905 526.781 90.905 522.594 90.905 521.322 86.771 521.322 83.273ZM512.312 83.273C512.312 91.541 518.248 97.795 526.781 97.795 535.314 97.795 541.303 91.541 541.303 83.273 541.303 75.005 535.314 68.698 526.781 68.698 518.248 68.698 512.312 75.005 512.312 83.273ZM546.356 97H555.366V83.379C555.366 79.934 557.698 76.86 562.15 76.86 563.369 76.86 564.429 77.072 565.595 77.39V69.175C564.906 69.016 564.164 68.963 563.475 68.963 559.606 68.963 556.532 70.818 555.207 74.316H555.101V69.493H546.356V97ZM585.693 97H616.38V88.52H595.551V81.312H614.101V73.68H595.551V67.055H615.85V59.158H585.693V97ZM648.263 79.563C647.627 72.302 641.532 68.698 634.695 68.698 625.844 68.698 620.279 74.952 620.279 83.697 620.279 92.124 626.427 97.795 634.695 97.795 642.009 97.795 647.733 93.555 648.528 86.188H639.783C639.359 89.103 637.769 90.905 634.642 90.905 630.826 90.905 629.289 87.248 629.289 83.697 629.289 79.881 630.084 75.588 635.119 75.588 637.398 75.588 639.465 77.231 639.518 79.563H648.263ZM660.706 83.273C660.706 79.775 661.978 75.588 666.165 75.588 670.352 75.588 671.677 79.775 671.677 83.273 671.677 86.771 670.352 90.905 666.165 90.905 661.978 90.905 660.706 86.771 660.706 83.273ZM651.696 83.273C651.696 91.541 657.632 97.795 666.165 97.795 674.698 97.795 680.687 91.541 680.687 83.273 680.687 75.005 674.698 68.698 666.165 68.698 657.632 68.698 651.696 75.005 651.696 83.273ZM685.421 97H694.431V82.001C694.431 78.98 695.915 76.118 699.307 76.118 704.236 76.118 703.812 79.934 703.812 83.697V97H712.822V79.351C712.822 75.376 712.08 68.698 702.911 68.698 699.625 68.698 695.915 70.447 694.272 73.256H694.166V69.493H685.421V97ZM726.49 83.273C726.49 79.775 727.762 75.588 731.949 75.588 736.136 75.588 737.461 79.775 737.461 83.273 737.461 86.771 736.136 90.905 731.949 90.905 727.762 90.905 726.49 86.771 726.49 83.273ZM717.48 83.273C717.48 91.541 723.416 97.795 731.949 97.795 740.482 97.795 746.471 91.541 746.471 83.273 746.471 75.005 740.482 68.698 731.949 68.698 723.416 68.698 717.48 75.005 717.48 83.273ZM751.206 97H760.216V83.591C760.216 77.973 761.594 76.118 764.827 76.118 767.265 76.118 768.219 78.132 768.219 81.365V97H777.229V83.538C777.229 79.086 777.6 76.118 781.469 76.118 783.801 76.118 785.232 77.867 785.232 80.835V97H794.242V80.57C794.242 75.323 793.288 68.698 784.543 68.698 780.833 68.698 778.13 70.235 775.957 73.15 774.473 69.811 771.399 68.698 767.954 68.698 764.615 68.698 761.7 70.5 760.057 73.256H759.951V69.493H751.206V97ZM800.59 97H809.6V69.493H800.59V97ZM809.6 59.158H800.59V66.048H809.6V59.158ZM842.614 79.563C841.978 72.302 835.883 68.698 829.046 68.698 820.195 68.698 814.63 74.952 814.63 83.697 814.63 92.124 820.778 97.795 829.046 97.795 836.36 97.795 842.084 93.555 842.879 86.188H834.134C833.71 89.103 832.12 90.905 828.993 90.905 825.177 90.905 823.64 87.248 823.64 83.697 823.64 79.881 824.435 75.588 829.47 75.588 831.749 75.588 833.816 77.231 833.869 79.563H842.614ZM492.961 135.079C492.961 146.05 499.692 154.795 511.617 154.795 523.542 154.795 530.273 146.05 530.273 135.079 530.273 124.108 523.542 115.363 511.617 115.363 499.692 115.363 492.961 124.108 492.961 135.079ZM502.819 135.079C502.819 129.461 505.257 123.843 511.617 123.843 517.977 123.843 520.415 129.461 520.415 135.079 520.415 140.697 517.977 146.315 511.617 146.315 505.257 146.315 502.819 140.697 502.819 135.079ZM549.476 132.588C553.451 132.588 554.829 136.457 554.829 139.955 554.829 143.718 553.451 147.905 549.423 147.905 545.342 147.905 543.964 144.778 543.964 139.955 543.964 134.284 547.038 132.588 549.476 132.588ZM535.272 163.222H544.282V151.032H544.388C546.243 153.523 548.84 154.795 552.232 154.795 560.023 154.795 563.839 148.011 563.839 140.856 563.839 133.118 560.182 125.698 551.543 125.698 548.363 125.698 545.713 127.076 543.964 129.673H543.858V126.493H535.272V163.222ZM582.86 132.588C586.835 132.588 588.213 136.457 588.213 139.955 588.213 143.718 586.835 147.905 582.807 147.905 578.726 147.905 577.348 144.778 577.348 139.955 577.348 134.284 580.422 132.588 582.86 132.588ZM568.656 163.222H577.666V151.032H577.772C579.627 153.523 582.224 154.795 585.616 154.795 593.407 154.795 597.223 148.011 597.223 140.856 597.223 133.118 593.566 125.698 584.927 125.698 581.747 125.698 579.097 127.076 577.348 129.673H577.242V126.493H568.656V163.222ZM609.725 140.273C609.725 136.775 610.997 132.588 615.184 132.588 619.371 132.588 620.696 136.775 620.696 140.273 620.696 143.771 619.371 147.905 615.184 147.905 610.997 147.905 609.725 143.771 609.725 140.273ZM600.715 140.273C600.715 148.541 606.651 154.795 615.184 154.795 623.717 154.795 629.706 148.541 629.706 140.273 629.706 132.005 623.717 125.698 615.184 125.698 606.651 125.698 600.715 132.005 600.715 140.273ZM634.758 154H643.768V140.379C643.768 136.934 646.1 133.86 650.552 133.86 651.771 133.86 652.831 134.072 653.997 134.39V126.175C653.308 126.016 652.566 125.963 651.877 125.963 648.008 125.963 644.934 127.818 643.609 131.316H643.503V126.493H634.758V154ZM673.595 126.493H668.03V118.172H659.02V126.493H654.462V132.323H659.02V144.566C659.02 152.039 660.981 154.265 668.666 154.265 670.309 154.265 671.952 154.053 673.595 154V147.375C672.8 147.375 672.005 147.481 671.263 147.481 669.302 147.481 668.03 147.004 668.03 144.831V132.323H673.595V126.493ZM704.954 126.493H695.944V141.227C695.944 146.103 692.976 147.375 691.015 147.375 688.153 147.375 686.563 146.103 686.563 142.446V126.493H677.553V143.029C677.553 150.237 679.832 154.795 687.729 154.795 690.909 154.795 694.407 153.046 696.103 150.237H696.209V154H704.954V126.493ZM710.99 154H720V139.001C720 135.98 721.484 133.118 724.876 133.118 729.805 133.118 729.381 136.934 729.381 140.697V154H738.391V136.351C738.391 132.376 737.649 125.698 728.48 125.698 725.194 125.698 721.484 127.447 719.841 130.256H719.735V126.493H710.99V154ZM744.692 154H753.702V126.493H744.692V154ZM753.702 116.158H744.692V123.048H753.702V116.158ZM776.645 126.493H771.08V118.172H762.07V126.493H757.512V132.323H762.07V144.566C762.07 152.039 764.031 154.265 771.716 154.265 773.359 154.265 775.002 154.053 776.645 154V147.375C775.85 147.375 775.055 147.481 774.313 147.481 772.352 147.481 771.08 147.004 771.08 144.831V132.323H776.645V126.493ZM806.52 126.493H797.298L792.104 144.407H791.998L786.804 126.493H777.264L784.366 145.626C784.896 147.11 786.645 151.35 786.645 152.834 786.645 154.742 785.108 155.908 783.041 155.908H779.914V163.222H784.154C790.249 163.222 793.482 162.48 795.655 156.438L806.52 126.493Z" fill="currentColor"/><path stroke="currentColor" d="M907.5 2 907.5 154"/></symbol><symbol id="logo-nyc" viewBox="0 0 219 73"><g id="Layer_2" data-name="Layer 2"><g id="Layer_1-2" data-name="Layer 1"><path d="M214.44 31.88 219 27.38 219 13.69 205.31 0 159.69 0 146 13.69 146 4.56 141.44 0 123.19 0 118.63 4.56 118.63 13.69 109.5 22.81 100.38 13.69 100.38 4.56 95.81 0 77.56 0 73 4.56 68.44 0 50.19 0 45.63 4.56 45.63 22.81 22.81 0 4.56 0 0 4.56 0 68.44 4.56 73 22.81 73 27.38 68.44 27.38 50.19 50.19 73 68.44 73 73 68.44 73 31.94 95.81 54.75 95.81 68.44 100.38 73 118.63 73 123.19 68.44 123.19 54.75 146 31.94 146 59.31 159.69 73 205.31 73 219 59.31 219 45.63 214.44 41.06 191.63 41.06 191.63 45.63 173.38 45.63 173.38 27.38 191.63 27.38 191.63 31.88 214.44 31.88zM215.75 3.08c.43 0 .8 0 .8-.54s-.41-.47-.75-.47h-.68v1Zm-.63 2h-.57V1.59h1.31c.83 0 1.26.29 1.26 1a.88.88 0 0 1-.9.94l1 1.52h-.65l-.89-1.48h-.53Zm.61-4.36a2.42 2.42 0 0 0-2.4 2.57 2.4 2.4 0 1 0 4.79 0A2.42 2.42 0 0 0 215.73.68m0 5.69a3 3 0 0 1-3.07-3.12 3.07 3.07 0 1 1 6.13 0 3 3 0 0 1-3.06 3.12"/></g></g></symbol><symbol id="logo-google-translate" viewBox="0 0 175 16"><path fill-rule="evenodd" clip-rule="evenodd" d="M128.789 4.79395C128.051 4.79395 127.023 5.31595 126.733 6.12728H126.675V4.90261H125.4V11.9999H126.733V8.18395C126.733 6.87995 127.66 6.11261 128.572 6.11261 128.862 6.11261 129.094 6.14128 129.282 6.21395L129.789 4.96861C129.514 4.85261 129.224 4.79395 128.789 4.79395ZM152.801 1.4606H154.133V11.9999H152.801V1.4606ZM148.658 4.79395C147.225 4.79395 145.891 5.59461 145.891 6.84461 145.891 8.05328 147.1 8.60061 147.732 8.75528L149.164 9.09261C149.895 9.27528 150.146 9.65461 150.146 10.0059 150.146 10.5813 149.529 10.9579 148.728 10.9579 147.899 10.9579 147.184 10.5539 146.819 9.66461L145.667 10.1426C146.074 11.1433 147.057 12.1273 148.715 12.1273 150.33 12.1273 151.467 11.1859 151.467 9.96395 151.467 9.12061 150.892 8.27795 149.529 7.95461L148.125 7.63128C147.577 7.50528 147.213 7.26661 147.213 6.83061 147.213 6.26861 147.885 5.96328 148.616 5.96328 149.29 5.96328 149.963 6.23061 150.231 6.87661L151.354 6.41328C150.933 5.35928 149.852 4.79395 148.658 4.79395ZM158.579 10.9286C157.904 10.9286 157.071 10.5813 157.071 9.85128 157.071 9.21928 157.679 8.52861 159.042 8.52861 160.138 8.52861 160.667 8.93795 160.667 8.93795 160.667 10.0619 159.604 10.9286 158.579 10.9286ZM158.859 4.79395C157.131 4.79395 156.158 5.79995 155.919 6.43195L157.099 6.93795C157.338 6.29195 158.171 5.99195 158.887 5.99195 159.857 5.99195 160.667 6.59395 160.667 7.68528V7.88261C160.399 7.72795 159.745 7.46061 158.817 7.46061 157.202 7.46061 155.701 8.26395 155.701 9.82328 155.701 11.2559 156.963 12.1273 158.367 12.1273 159.548 12.1273 160.231 11.4913 160.611 10.9153H160.667V11.9999H161.922V7.74395C161.922 5.80528 160.545 4.79395 158.859 4.79395ZM133.323 10.9286C132.649 10.9286 131.815 10.5813 131.815 9.85128 131.815 9.21928 132.424 8.52861 133.787 8.52861 134.882 8.52861 135.411 8.93795 135.411 8.93795 135.411 10.0619 134.349 10.9286 133.323 10.9286ZM133.604 4.79395C131.876 4.79395 130.902 5.79995 130.663 6.43195L131.843 6.93795C132.083 6.29195 132.915 5.99195 133.632 5.99195 134.601 5.99195 135.411 6.59395 135.411 7.68528V7.88261C135.144 7.72795 134.489 7.46061 133.561 7.46061 131.946 7.46061 130.446 8.26395 130.446 9.82328 130.446 11.2559 131.707 12.1273 133.112 12.1273 134.292 12.1273 134.975 11.4913 135.355 10.9153H135.411V11.9999H136.667V7.74395C136.667 5.80528 135.29 4.79395 133.604 4.79395ZM169.398 7.62328C169.655 6.61995 170.425 5.99195 171.396 5.99195 172.894 5.99195 173.407 7.02728 173.45 7.62328H169.398ZM171.424 4.79395C169.37 4.79395 168 6.50728 168 8.46061 168 10.5399 169.427 12.1273 171.567 12.1273 173.179 12.1273 174.207 11.2279 174.62 10.2446L173.45 9.76728C173.079 10.6386 172.309 10.9286 171.538 10.9286 170.454 10.9286 169.384 10.1606 169.313 8.70728H174.834C174.834 8.70728 174.849 8.55861 174.849 8.46061 174.849 6.24061 173.507 4.79395 171.424 4.79395ZM141.778 4.79395C140.807 4.79395 139.909 5.35861 139.533 6.00995H139.475V4.90261H138.2V11.9999H139.533V8.19728C139.533 7.11128 140.243 6.00995 141.401 6.00995 142.415 6.00995 143.154 6.50261 143.154 7.97995V11.9999H144.487V7.77795C144.487 6.02528 143.589 4.79395 141.778 4.79395ZM165.399 2.79395H164.067V4.90261H162.821V6.12995H164.067V9.85328C164.067 11.3019 164.863 12.1273 166.355 12.1273 166.804 12.1273 167.123 12.0693 167.427 11.9393L166.964 10.7946C166.775 10.8813 166.601 10.9106 166.355 10.9106 165.733 10.9106 165.399 10.5486 165.399 9.75128V6.12995H167.137V4.90261H165.399V2.79395ZM124.95 1.4606H117.733V2.82727H120.667V11.9939H122.017V2.82727H124.95V1.4606ZM72.16 5.58594V7.22461H76.082C75.9647 8.14661 75.6574 8.81994 75.1894 9.28794 74.618 9.85861 73.7254 10.4879 72.16 10.4879 69.7447 10.4879 67.8574 8.54194 67.8574 6.12727 67.8574 3.71261 69.7447 1.76661 72.16 1.76661 73.462 1.76661 74.4134 2.27861 75.116 2.93727L76.272 1.78061C75.2914.844607 73.9894.127274 72.16.127274 68.8527.127274 66.072 2.81994 66.072 6.12727 66.072 9.43461 68.8527 12.1273 72.16 12.1273 73.9447 12.1273 75.2914 11.5419 76.3454 10.4446 77.428 9.36127 77.7647 7.83927 77.7647 6.60994 77.7647 6.22994 77.7354 5.87861 77.6767 5.58594H72.16ZM82.6666 4.25461C80.5253 4.25461 78.7793 5.88328 78.7793 8.12727 78.7793 10.3566 80.5253 11.9999 82.6666 11.9999 84.8086 11.9999 86.554 10.3566 86.554 8.12727 86.554 5.88328 84.8086 4.25461 82.6666 4.25461ZM82.6666 10.4739C81.4933 10.4739 80.4806 9.50594 80.4806 8.12727 80.4806 6.73394 81.4933 5.77994 82.6666 5.77994 83.84 5.77994 84.8526 6.73394 84.8526 8.12727 84.8526 9.50594 83.84 10.4739 82.6666 10.4739ZM101.72 5.12061H101.661C101.279 4.66528 100.546 4.25461 99.622 4.25461 97.686 4.25461 96 5.94127 96 8.12727 96 10.2979 97.686 11.9999 99.622 11.9999 100.546 11.9999 101.279 11.5893 101.661 11.1199H101.72V11.6613C101.72 13.1426 100.928 13.9346 99.6513 13.9346 98.61 13.9346 97.9647 13.1866 97.7007 12.5559L96.2193 13.1719C96.6447 14.1986 97.774 15.4606 99.6513 15.4606 101.647 15.4606 103.333 14.2873 103.333 11.4266V4.45394H101.72V5.12061ZM99.7693 10.4739C98.596 10.4739 97.702 9.47661 97.702 8.12727 97.702 6.76328 98.596 5.77994 99.7693 5.77994 100.929 5.77994 101.837 6.77794 101.837 8.14194 101.837 9.49127 100.929 10.4739 99.7693 10.4739ZM91.3334 4.25461C89.192 4.25461 87.446 5.88328 87.446 8.12727 87.446 10.3566 89.192 11.9999 91.3334 11.9999 93.4754 11.9999 95.2207 10.3566 95.2207 8.12727 95.2207 5.88328 93.4754 4.25461 91.3334 4.25461ZM91.3334 10.4739C90.16 10.4739 89.148 9.50594 89.148 8.12727 89.148 6.73394 90.16 5.77994 91.3334 5.77994 92.5067 5.77994 93.5194 6.73394 93.5194 8.12727 93.5194 9.50594 92.5067 10.4739 91.3334 10.4739ZM104.667.287277H106.34V11.9999H104.667V.287277ZM111.51 10.4739C110.645 10.4739 110.029 10.0786 109.632 9.30127L114.81 7.15928 114.634 6.71927C114.311 5.85394 113.329 4.25461 111.319 4.25461 109.324 4.25461 107.667 5.82461 107.667 8.12727 107.667 10.2986 109.309 11.9999 111.51 11.9999 113.285 11.9999 114.311 10.9146 114.737 10.2833L113.417 9.40328C112.977 10.0493 112.375 10.4739 111.51 10.4739ZM111.384 5.70594C112.073 5.70594 112.656 6.05661 112.851 6.55994L109.353 8.00994C109.353 6.37727 110.508 5.70594 111.384 5.70594Z" fill="currentColor"/><g fill="currentColor"><path d="M6.17578 8.90039C6.17578 9.86523 5.95508 10.6426 5.51367 11.2324 5.07227 11.8223 4.47461 12.1172 3.7207 12.1172 2.95117 12.1172 2.3457 11.873 1.9043 11.3848V14.4375H.820312V5.66016H1.81055L1.86328 6.36328C2.30469 5.81641 2.91797 5.54297 3.70312 5.54297 4.46484 5.54297 5.06641 5.83008 5.50781 6.4043 5.95312 6.97852 6.17578 7.77734 6.17578 8.80078V8.90039ZM5.0918 8.77734C5.0918 8.0625 4.93945 7.49805 4.63477 7.08398 4.33008 6.66992 3.91211 6.46289 3.38086 6.46289 2.72461 6.46289 2.23242 6.75391 1.9043 7.33594V10.3652C2.22852 10.9434 2.72461 11.2324 3.39258 11.2324 3.91211 11.2324 4.32422 11.0273 4.62891 10.6172 4.9375 10.2031 5.0918 9.58984 5.0918 8.77734ZM7.27148 8.77148C7.27148 8.15039 7.39258 7.5918 7.63477 7.0957 7.88086 6.59961 8.2207 6.2168 8.6543 5.94727 9.0918 5.67773 9.58984 5.54297 10.1484 5.54297 11.0117 5.54297 11.709 5.8418 12.2402 6.43945 12.7754 7.03711 13.043 7.83203 13.043 8.82422V8.90039C13.043 9.51758 12.9238 10.0723 12.6855 10.5645 12.4512 11.0527 12.1133 11.4336 11.6719 11.707 11.2344 11.9805 10.7305 12.1172 10.1602 12.1172 9.30078 12.1172 8.60352 11.8184 8.06836 11.2207 7.53711 10.623 7.27148 9.83203 7.27148 8.84766V8.77148ZM8.36133 8.90039C8.36133 9.60352 8.52344 10.168 8.84766 10.5938 9.17578 11.0195 9.61328 11.2324 10.1602 11.2324 10.7109 11.2324 11.1484 11.0176 11.4727 10.5879 11.7969 10.1543 11.959 9.54883 11.959 8.77148 11.959 8.07617 11.793 7.51367 11.4609 7.08398 11.1328 6.65039 10.6953 6.43359 10.1484 6.43359 9.61328 6.43359 9.18164 6.64648 8.85352 7.07227 8.52539 7.49805 8.36133 8.10742 8.36133 8.90039ZM20.0156 10.5059 21.2344 5.66016H22.3184L20.4727 12H19.5938L18.0527 7.19531 16.5527 12H15.6738L13.834 5.66016H14.9121L16.1602 10.4062 17.6367 5.66016H18.5098L20.0156 10.5059ZM26.0566 12.1172C25.1973 12.1172 24.498 11.8359 23.959 11.2734 23.4199 10.707 23.1504 9.95117 23.1504 9.00586V8.80664C23.1504 8.17773 23.2695 7.61719 23.5078 7.125 23.75 6.62891 24.0859 6.24219 24.5156 5.96484 24.9492 5.68359 25.418 5.54297 25.9219 5.54297 26.7461 5.54297 27.3867 5.81445 27.8438 6.35742 28.3008 6.90039 28.5293 7.67773 28.5293 8.68945V9.14062H24.2344C24.25 9.76562 24.4316 10.2715 24.7793 10.6582 25.1309 11.041 25.5762 11.2324 26.1152 11.2324 26.498 11.2324 26.8223 11.1543 27.0879 10.998 27.3535 10.8418 27.5859 10.6348 27.7852 10.377L28.4473 10.8926C27.916 11.709 27.1191 12.1172 26.0566 12.1172ZM25.9219 6.43359C25.4844 6.43359 25.1172 6.59375 24.8203 6.91406 24.5234 7.23047 24.3398 7.67578 24.2695 8.25H27.4453V8.16797C27.4141 7.61719 27.2656 7.19141 27 6.89062 26.7344 6.58594 26.375 6.43359 25.9219 6.43359ZM32.8535 6.63281C32.6895 6.60547 32.5117 6.5918 32.3203 6.5918 31.6094 6.5918 31.127 6.89453 30.873 7.5V12H29.7891V5.66016H30.8438L30.8613 6.39258C31.2168 5.82617 31.7207 5.54297 32.373 5.54297 32.584 5.54297 32.7441 5.57031 32.8535 5.625V6.63281ZM36.3691 12.1172C35.5098 12.1172 34.8105 11.8359 34.2715 11.2734 33.7324 10.707 33.4629 9.95117 33.4629 9.00586V8.80664C33.4629 8.17773 33.582 7.61719 33.8203 7.125 34.0625 6.62891 34.3984 6.24219 34.8281 5.96484 35.2617 5.68359 35.7305 5.54297 36.2344 5.54297 37.0586 5.54297 37.6992 5.81445 38.1562 6.35742 38.6133 6.90039 38.8418 7.67773 38.8418 8.68945V9.14062H34.5469C34.5625 9.76562 34.7441 10.2715 35.0918 10.6582 35.4434 11.041 35.8887 11.2324 36.4277 11.2324 36.8105 11.2324 37.1348 11.1543 37.4004 10.998 37.666 10.8418 37.8984 10.6348 38.0977 10.377L38.7598 10.8926C38.2285 11.709 37.4316 12.1172 36.3691 12.1172ZM36.2344 6.43359C35.7969 6.43359 35.4297 6.59375 35.1328 6.91406 34.8359 7.23047 34.6523 7.67578 34.582 8.25H37.7578V8.16797C37.7266 7.61719 37.5781 7.19141 37.3125 6.89062 37.0469 6.58594 36.6875 6.43359 36.2344 6.43359ZM39.8379 8.77734C39.8379 7.80469 40.0684 7.02344 40.5293 6.43359 40.9902 5.83984 41.5938 5.54297 42.3398 5.54297 43.082 5.54297 43.6699 5.79688 44.1035 6.30469V3H45.1875V12H44.1914L44.1387 11.3203C43.7051 11.8516 43.1016 12.1172 42.3281 12.1172 41.5938 12.1172 40.9941 11.8164 40.5293 11.2148 40.0684 10.6133 39.8379 9.82812 39.8379 8.85938V8.77734ZM40.9219 8.90039C40.9219 9.61914 41.0703 10.1816 41.3672 10.5879 41.6641 10.9941 42.0742 11.1973 42.5977 11.1973 43.2852 11.1973 43.7871 10.8887 44.1035 10.2715V7.35938C43.7793 6.76172 43.2812 6.46289 42.6094 6.46289 42.0781 6.46289 41.6641 6.66797 41.3672 7.07812 41.0703 7.48828 40.9219 8.0957 40.9219 8.90039ZM55.2188 8.90039C55.2188 9.86914 54.9961 10.6484 54.5508 11.2383 54.1055 11.8242 53.5078 12.1172 52.7578 12.1172 51.957 12.1172 51.3379 11.834 50.9004 11.2676L50.8477 12H49.8516V3H50.9355V6.35742C51.373 5.81445 51.9766 5.54297 52.7461 5.54297 53.5156 5.54297 54.1191 5.83398 54.5566 6.41602 54.998 6.99805 55.2188 7.79492 55.2188 8.80664V8.90039ZM54.1348 8.77734C54.1348 8.03906 53.9922 7.46875 53.707 7.06641 53.4219 6.66406 53.0117 6.46289 52.4766 6.46289 51.7617 6.46289 51.248 6.79492 50.9355 7.45898V10.2012C51.2676 10.8652 51.7852 11.1973 52.4883 11.1973 53.0078 11.1973 53.4121 10.9961 53.7012 10.5938 53.9902 10.1914 54.1348 9.58594 54.1348 8.77734ZM58.5938 10.4121 60.0703 5.66016H61.2305L58.6816 12.9785C58.2871 14.0332 57.6602 14.5605 56.8008 14.5605L56.5957 14.543 56.1914 14.4668V13.5879L56.4844 13.6113C56.8516 13.6113 57.1367 13.5371 57.3398 13.3887 57.5469 13.2402 57.7168 12.9688 57.8496 12.5742L58.0898 11.9297 55.8281 5.66016H57.0117L58.5938 10.4121Z"/></g></symbol><symbol id="icon-wnyc-translate" viewBox="0 0 24 24"><path d="M3 16C4.5 15.1667 8 12.5 10 9.5C12 6.5 11.5 4 11.5 4M14.5 4H8.5M2.5 4H8.5M8.5 4V2.5M4.5 7C5.5 10 7.5 12.5 10 14.5M12 21L13.35 18M21 21L19.65 18M13.35 18L16.5 10.5C17.7302 13.2337 18.4198 15.2663 19.65 18M13.35 18H19.65"/></symbol><symbol id="icon-wnyc-accessible" viewBox="0 0 24 24"><path d="M20.0888 10.975C19.8251 10.7044 19.4566 10.5616 19.0801 10.5822L14.5227 10.8359 17.0307 7.97945C17.388 7.57256 17.4901 7.03016 17.352 6.54548 17.2791 6.21336 17.0779 5.91117 16.7689 5.7181 16.7595 5.71133 10.7739 2.23419 10.7739 2.23419 10.2852 1.95027 9.66928 2.01282 9.24749 2.38903L6.32364 4.99716C5.78494 5.47765 5.73777 6.30387 6.21829 6.8426 6.69886 7.38126 7.52511 7.42858 8.06377 6.94791L10.2805 4.97059 12.113 6.03475 8.8783 9.71873C7.53699 9.93748 6.33014 10.5556 5.38275 11.4467L7.07193 13.1359C7.83553 12.4416 8.84942 12.0178 9.96041 12.0178 12.3301 12.0178 14.2581 13.9458 14.2581 16.3155 14.2581 17.4265 13.8343 18.4403 13.14 19.2039L14.8291 20.8931C15.9543 19.6969 16.6449 18.0874 16.6449 16.3155 16.6449 15.2599 16.3998 14.2616 15.964 13.3738L17.7281 13.2756 17.299 18.5394C17.2403 19.2589 17.7761 19.8896 18.4956 19.9483 18.5316 19.9513 18.5676 19.9527 18.6032 19.9527 19.2769 19.9527 19.8489 19.435 19.9045 18.7517L20.4553 11.9935C20.4861 11.6169 20.3524 11.2455 20.0888 10.975ZM17.668 5.37585C18.8763 5.37585 19.8557 4.39632 19.8557 3.18794 19.8557 1.97963 18.8763 1 17.668 1 16.4596 1 15.4801 1.97963 15.4801 3.18794 15.4801 4.39632 16.4595 5.37585 17.668 5.37585ZM9.96055 20.6132C7.59079 20.6132 5.66283 18.6852 5.66283 16.3155 5.66283 15.4224 5.93685 14.5923 6.40493 13.9043L4.69752 12.1969C3.80786 13.3322 3.276 14.7614 3.276 16.3155 3.276 20.0073 6.26874 23 9.96055 23 11.5147 23 12.9438 22.4681 14.079 21.5785L12.3717 19.8711C11.6837 20.3391 10.8536 20.6132 9.96055 20.6132Z" fill="currentColor"/></symbol><symbol id="favicon"><path id="favicon" d="M262.562 8.28859V24.4295V56.7114L221.428 97.2819V121.711L213.113 130H237.619L262.125 154.43V178.859L253.81 186.711H212.676V178.859H179.855V211.141H212.676V202.852H253.81L262.125 211.141V235.57L237.619 260H155.787L131.281 234.698V153.993L155.787 129.564H180.293L171.978 121.275V96.8456L131.281 56.7114V121.275L122.967 129.564H90.1464L49.0116 88.9933V121.275L40.6972 129.564H8.31448L0 121.275V7.85235L8.31448 0H41.1348L82.2695 40.5705V8.28859L90.1464 0H122.967L131.281 8.28859L139.596 0H172.416L180.73 8.28859V24.4295L196.922 40.5705L213.551 24.4295V8.28859L221.428 0H254.248L262.562 8.28859ZM257.311 140.47C254.248 140.47 251.622 138.289 251.622 134.799C251.622 131.309 254.248 129.128 257.311 129.128C260.374 129.128 263 131.309 263 134.799C262.562 138.289 259.937 140.47 257.311 140.47ZM257.311 130.436C254.686 130.436 252.935 132.181 252.935 134.799C252.935 137.416 254.686 139.597 257.311 139.597C259.937 139.597 261.687 137.852 261.687 134.799C261.25 132.181 259.499 130.436 257.311 130.436ZM255.998 138.289H255.123V132.181H257.311C258.624 132.181 259.499 132.617 259.499 133.926C259.499 135.235 258.624 135.671 257.749 135.671L259.499 138.289H258.186L256.436 135.671H255.561V138.289H255.998ZM257.311 134.799C258.186 134.799 258.624 134.799 258.624 133.926C258.624 133.054 257.749 133.054 257.311 133.054H255.998V134.799H257.311Z"/><style>#favicon{fill:#217ceb}@media (prefers-color-scheme:light){#favicon{fill:#004cbe}}</style></symbol></svg>