<?xml version="1.0" encoding="UTF-8"?><!DOCTYPE svg PUBLIC "-//W3C//DTD SVG 1.1//EN" "http://www.w3.org/Graphics/SVG/1.1/DTD/svg11.dtd"><svg xmlns="http://www.w3.org/2000/svg" xmlns:xlink="http://www.w3.org/1999/xlink"><defs/><symbol id="shape-wnyc-c@light" viewBox="0 0 129 129"><circle id="shape-wnyc-c__circle" cx="64.5" cy="64.5" r="64.5" fill="#E3F1FD"/></symbol><symbol id="shape-wnyc-c" viewBox="0 0 129 129"><circle cx="64.5" cy="64.5" r="64.5" fill="#0C264D"/></symbol><symbol id="shape-wnyc-b@light" viewBox="0 0 262 262"><path transform="rotate(45 91.217 0)" fill="#E3F1FD" d="M91.217 0H220.21699999999998V129H91.217z"/><circle cx="197.5" cy="197.5" r="64.5" fill="#C9E7FC"/></symbol><symbol id="shape-wnyc-b" viewBox="0 0 262 262"><path transform="rotate(45 91.217 0)" fill="#0C264D" d="M91.217 0H220.21699999999998V129H91.217z"/><circle cx="197.5" cy="197.5" r="64.5" fill="#003C7A"/></symbol><symbol id="shape-wnyc-a@light" viewBox="0 0 218 183"><path transform="rotate(45 126.217 0)" fill="#E3F1FD" d="M126.217 0H255.21699999999998V129H126.217z"/><circle cx="25.5" cy="136.5" r="25.5" fill="#F0F6FA"/></symbol><symbol id="shape-wnyc-a" viewBox="0 0 218 183"><path transform="rotate(45 126.217 0)" fill="#003C7A" d="M126.217 0H255.21699999999998V129H126.217z"/><circle cx="25.5" cy="136.5" r="25.5" fill="#071F42"/></symbol><symbol id="select-wnyc-chevrons" viewBox="0 0 24 40"><path d="M6 25 12 31 18 25M18 15 12 9 6 15" stroke="currentColor" stroke-width="2" stroke-linecap="round" stroke-linejoin="round" fill="transparent"/></symbol><symbol id="option-wnyc-radio" viewBox="0 0 24 24"><rect x="1" y="1" width="22" height="22" rx="11" stroke="currentColor" stroke-width="2" fill="transparent"/><rect x="4" y="4" width="16" height="16" rx="8" stroke="transparent"/></symbol><symbol id="option-wnyc-checkbox" viewBox="0 0 24 24"><path stroke="currentColor" stroke-width="2" d="M1 1H23V23H1z"/><path d="M20 6L9 17L4 12" fill="none"/></symbol><symbol id="logo-wnyc-standard" viewBox="0 0 305 28"><path d="M247 1.3 246.9 26.6H239.9L230.3 15 230.2 26.5H221.9L222 1.2H229L238.6 12.8 238.7 1.3H247ZM268.7 17.6V26.8H260.2V17.5L250.7 1.4H259.7L264.8 10.2 270.1 1.5H278.4L268.7 17.6ZM285.6 25.7C283.5 24.6 281.8 23 280.6 21 279.4 19 278.8 16.7 278.8 14.1 278.8 11.5 279.4 9.3 280.7 7.2 281.9 5.2 283.6 3.6 285.8 2.5 288 1.4 290.4.800003 293 .800003 295.5.800003 297.7 1.3 299.6 2.1 301.5 3 303.1 4.2 304.4 5.9L299 10.7C297.4 8.7 295.6 7.7 293.5 7.7 291.7 7.7 290.3 8.3 289.2 9.4 288.1 10.5 287.6 12.1 287.6 14 287.6 15.9 288.1 17.5 289.2 18.6 290.3 19.8 291.7 20.3 293.5 20.3 295.6 20.3 297.5 19.3 299.1 17.4L304.5 22.2C303.2 23.8 301.6 25.1 299.7 25.9 297.8 26.8 295.6 27.2 293.1 27.2 290.1 27.4 287.7 26.8 285.6 25.7Z" fill="currentColor"/><path d="M40.6.399997 32.2 25.7H25.9L20.4 8.4 14.6 25.5H8.29997L.0999756.199997H6.19998L11.8 18 17.9.199997H23.3L29 18.2 35 .299997 40.6.399997ZM50.9 24.5C48.8 23.4 47.1 21.8 46 19.8 44.8 17.8 44.2 15.6 44.2 13.1 44.2 10.6 44.8 8.4 46 6.4 47.2 4.4 48.9 2.9 51 1.7 53.1.5 55.5 0 58.1 0 60.7 0 63.1.6 65.2 1.7 67.3 2.8 68.9 4.4 70.1 6.4 71.3 8.4 71.9 10.6 71.9 13.1 71.9 15.6 71.3 17.8 70.1 19.8 68.9 21.8 67.2 23.3 65.1 24.5 63 25.6 60.6 26.2 58 26.2 55.3 26.2 53 25.6 50.9 24.5ZM62.1 20.2C63.3 19.5 64.3 18.6 65 17.3 65.7 16.1 66 14.7 66.1 13.1 66.2 11.5 65.8 10.1 65.1 8.9 64.4 7.7 63.5 6.7 62.3 6 61.1 5.3 59.7 5 58.2 4.9 56.7 4.9 55.4 5.2 54.1 5.9 52.9 6.6 51.9 7.5 51.2 8.8 50.5 10 50.2 11.4 50.1 13 50.1 14.6 50.4 16 51.1 17.2 51.8 18.4 52.7 19.4 53.9 20.1 55.1 20.8 56.5 21.1 57.9 21.1 59.5 21.2 60.8 20.9 62.1 20.2ZM94.6 25.9 89.7 18.8H89.4 84.3V25.9H78.4L78.5.599998H89.5C91.7.599998 93.7.999999 95.3 1.7 96.9 2.5 98.2 3.5 99.1 4.9 100 6.3 100.4 7.9 100.4 9.8 100.4 11.7 99.9 13.3 99 14.7 98.1 16.1 96.8 17.1 95.1 17.8L100.7 26 94.6 25.9ZM93.2 6.5C92.3 5.7 90.9 5.3 89.2 5.3H84.4V14.1H89.2C91 14.1 92.3 13.7 93.2 13 94.1 12.2 94.6 11.1 94.6 9.7 94.5 8.4 94.1 7.3 93.2 6.5ZM117.7 16.1 114.3 19.6V26H108.5L108.6.699997H114.4L114.3 12.5 125.6.699997H132.1L121.5 12 132.6 26.1H125.8L117.7 16.1ZM139.5.800003H145.4L145.3 26.1H139.4L139.5.800003ZM177.9 1 177.8 26.3H173L160.4 10.9 160.3 26.3H154.5L154.6 1H159.5L172 16.4 172.2 1H177.9ZM203.8 13.4H209.2V23.7C207.8 24.7 206.2 25.5 204.4 26.1 202.6 26.7 200.8 26.9 198.9 26.9 196.3 26.9 193.9 26.3 191.8 25.2 189.7 24.1 188.1 22.5 186.9 20.5 185.7 18.5 185.1 16.3 185.1 13.7 185.1 11.1 185.7 8.9 186.9 7 188.1 5 189.8 3.5 191.9 2.4 194 1.3 196.4.699997 199.1.699997 201.3.699997 203.3 1.1 205.1 1.8 206.9 2.6 208.4 3.6 209.6 5.1L205.8 8.6C204 6.7 201.8 5.7 199.3 5.7 197.7 5.7 196.2 6 195 6.7 193.7 7.4 192.8 8.3 192.1 9.5 191.4 10.7 191 12.1 191 13.7 191 15.3 191.3 16.7 192 17.9 192.7 19.1 193.7 20.1 194.9 20.8 196.1 21.5 197.6 21.8 199.1 21.9 200.8 21.9 202.3 21.6 203.7 20.8L203.8 13.4Z"/></symbol><symbol id="logo-wnyc-stacked" viewBox="0 0 211 61"><path d="M150.9 34.6 150.8 59.9H143.8L134.2 48.3 134.1 59.8H125.8L125.9 34.5H132.9L142.5 46.1 142.6 34.6H150.9ZM173.6 50.8V60H165.1V50.7L155.6 34.6H164.6L169.7 43.4 175 34.7H183.3L173.6 50.8ZM191.5 59C189.4 57.9 187.7 56.3 186.5 54.3 185.3 52.3 184.7 50 184.7 47.4 184.7 44.8 185.3 42.6 186.6 40.5 187.8 38.5 189.5 36.9 191.7 35.8 193.9 34.7 196.3 34.1 198.9 34.1 201.4 34.1 203.6 34.6 205.5 35.4 207.4 36.3 209 37.5 210.3 39.2L204.9 44C203.3 42 201.5 41 199.4 41 197.6 41 196.2 41.6 195.1 42.7 194 43.8 193.5 45.4 193.5 47.3 193.5 49.2 194 50.8 195.1 51.9 196.2 53.1 197.6 53.6 199.4 53.6 201.5 53.6 203.4 52.6 205 50.7L210.4 55.5C209.1 57.1 207.5 58.4 205.6 59.2 203.7 60.1 201.5 60.5 199 60.5 196.1 60.7 193.7 60.1 191.5 59Z" fill="currentColor"/><path d="M40.6.600006 32.2 25.9H25.9L20.4 8.70001 14.6 25.8H8.29998L.0999756.399994H6.19997L11.8 18.2 17.9.399994H23.3L29 18.4 35 .5 40.6.600006ZM50.9 24.7C48.8 23.6 47.1 22 46 20 44.8 18 44.2 15.8 44.2 13.3 44.2 10.8 44.8 8.60001 46 6.60001 47.2 4.60001 48.9 3.09999 51 1.89999 53.1.799994 55.5.200012 58.1.200012 60.7.200012 63.1.799994 65.2 1.89999 67.3 2.99999 68.9 4.60001 70.1 6.60001 71.3 8.60001 71.8999 10.8 71.8999 13.3 71.8999 15.8 71.3 18 70.1 20 68.9 22 67.2 23.5 65.1 24.7 63 25.8 60.6 26.4 58 26.4 55.4 26.4 53 25.9 50.9 24.7ZM62.1 20.4C63.3 19.7 64.3 18.8 65 17.5 65.7 16.3 66 14.9 66.1 13.3 66.2 11.7 65.8 10.3 65.1 9.10001 64.4 7.90001 63.5 6.90001 62.3 6.20001 61.1 5.50001 59.7 5.20001 58.2 5.10001 56.7 5.10001 55.4 5.40001 54.1 6.10001 52.9 6.80001 51.9 7.7 51.2 9 50.5 10.2 50.2 11.6 50.1 13.2 50.1 14.8 50.4 16.2 51.1 17.4 51.8 18.6 52.6999 19.6 53.8999 20.3 55.0999 21 56.4999 21.3 57.8999 21.3 59.5999 21.5 60.9 21.1 62.1 20.4ZM94.6 26.2 89.7 19.1H89.4 84.3V26.2H78.4L78.5.899994H89.5C91.7.899994 93.7 1.3 95.3 2 96.9 2.8 98.2 3.80001 99.1 5.20001 100 6.60001 100.4 8.20001 100.4 10.1 100.4 12 99.9 13.6 99 15 98.1 16.4 96.8 17.4 95.1 18.1L100.7 26.3 94.6 26.2ZM93.2 6.79999C92.3 5.99999 90.9 5.60001 89.2 5.60001H84.4V14.4H89.2C91 14.4 92.3 14 93.2 13.3 94.1 12.5 94.6 11.4 94.6 10 94.6 8.6 94.2 7.49999 93.2 6.79999ZM117.6 16.3 114.2 19.8V26.2H108.4L108.5.899994H114.3L114.2 12.7 125.5.899994H132L121.5 12.1 132.6 26.2H125.8L117.6 16.3ZM139.5 1.10001H145.4L145.3 26.4H139.4L139.5 1.10001ZM177.9 1.20001 177.8 26.5H173L160.4 11.1 160.3 26.5H154.5L154.6 1.20001H159.5L172 16.6 172.1 1.20001H177.9ZM203.7 13.6H209.1V23.9C207.7 24.9 206.1 25.7 204.3 26.3 202.5 26.9 200.7 27.1 198.8 27.1 196.2 27.1 193.8 26.5 191.7 25.4 189.6 24.3 188 22.7 186.8 20.7 185.6 18.7 185 16.5 185 13.9 185 11.3 185.6 9.10001 186.8 7.20001 188 5.20001 189.7 3.70001 191.8 2.60001 193.9 1.50001 196.3.899994 199 .899994 201.2.899994 203.2 1.3 205 2 206.8 2.8 208.3 3.79999 209.5 5.29999L205.7 8.79999C203.9 6.89999 201.7 5.89999 199.2 5.89999 197.6 5.89999 196.1 6.19999 194.9 6.89999 193.6 7.59999 192.7 8.50001 192 9.70001 191.3 10.9 190.9 12.3 190.9 13.9 190.9 15.5 191.2 16.9 191.9 18.1 192.6 19.3 193.6 20.3 194.8 21 196 21.7 197.5 22 199 22.1 200.7 22.1 202.2 21.8 203.6 21L203.7 13.6Z"/></symbol><symbol id="logo-partnership-workdev-opportunity" viewBox="0 0 409 159"><path d="M214.44 31.88 219 27.38V13.69L205.31 0H159.69L146 13.69V4.56L141.44 0H123.19L118.63 4.56V13.69L109.5 22.81 100.38 13.69V4.56L95.81 0H77.56L73 4.56 68.44 0H50.19L45.63 4.56V22.81L22.81 0H4.56L0 4.56V68.44L4.56 73H22.81L27.38 68.44V50.19L50.19 73H68.44L73 68.44V31.94L95.81 54.75V68.44L100.38 73H118.63L123.19 68.44V54.75L146 31.94V59.31L159.69 73H205.31L219 59.31V45.63L214.44 41.06H191.63V45.63H173.38V27.38H191.63V31.88H214.44ZM215.75 3.08003C216.18 3.08003 216.55 3.08003 216.55 2.54003 216.55 2.00003 216.14 2.07003 215.8 2.07003H215.12V3.07003L215.75 3.08003ZM215.12 5.08003H214.55V1.59003H215.86C216.69 1.59003 217.12 1.88003 217.12 2.59003 217.128 2.71224 217.111 2.83486 217.069 2.95003 217.028 3.06521 216.962 3.1704 216.878 3.25889 216.793 3.34737 216.691 3.41719 216.577 3.46388 216.464 3.51057 216.342 3.5331 216.22 3.53003L217.22 5.05003H216.57L215.68 3.57003H215.15L215.12 5.08003ZM215.73.720026C215.401.722113 215.076.79132 214.774.923415 214.473 1.05551 214.201 1.24772 213.977 1.48828 213.752 1.72884 213.579 2.0127 213.468 2.32249 213.356 2.63229 213.31 2.96151 213.33 3.29003 213.309 3.61756 213.355 3.94595 213.466 4.25491 213.577 4.56386 213.75 4.84681 213.974 5.08626 214.199 5.32572 214.47 5.51658 214.771 5.64706 215.072 5.77754 215.397 5.84486 215.725 5.84486 216.053 5.84486 216.378 5.77754 216.679 5.64706 216.98 5.51658 217.251 5.32572 217.476 5.08626 217.7 4.84681 217.873 4.56386 217.984 4.25491 218.095 3.94595 218.141 3.61756 218.12 3.29003 218.146 2.95913 218.104 2.62641 217.996 2.31254 217.888 1.99868 217.716 1.71039 217.492 1.4656 217.268 1.2208 216.996 1.02474 216.693.889593 216.39.754449 216.062.683115 215.73.680026V.720026ZM215.73 6.37003C215.32 6.37993 214.912 6.30562 214.532 6.15167 214.152 5.99773 213.807 5.76743 213.519 5.47502 213.231 5.1826 213.007 4.83428 212.859 4.45158 212.711 4.06888 212.644 3.65993 212.66 3.25003 212.636 2.8328 212.698 2.4151 212.841 2.02251 212.984 1.62992 213.206 1.27071 213.493.966897 213.78.663079 214.126.421046 214.51.255626 214.894.0902063 215.307.00488281 215.725.00488281 216.143.00488281 216.556.0902063 216.94.255626 217.324.421046 217.67.663079 217.957.966897 218.244 1.27071 218.466 1.62992 218.609 2.02251 218.752 2.4151 218.814 2.8328 218.79 3.25003 218.806 3.65907 218.739 4.06716 218.592 4.44917 218.445 4.83118 218.221 5.17903 217.934 5.4713 217.648 5.76357 217.304 5.99408 216.925 6.14864 216.546 6.3032 216.139 6.37854 215.73 6.37003M8.66 84.3301C14.19 84.3301 17.3 88.3301 17.3 93.4701 17.3 98.6101 14.19 102.6 8.66 102.6 3.13 102.6 0 98.5501 0 93.4701 0 88.3901 3.13 84.3301 8.66 84.3301ZM8.66 98.6701C11.61 98.6701 12.74 96.0701 12.74 93.4701 12.74 90.8701 11.61 88.2601 8.66 88.2601 5.71 88.2601 4.58 90.8601 4.58 93.4701 4.58 96.0801 5.71 98.6701 8.66 98.6701ZM20.37 92.19H18.37V89.49H20.37C20.37 85.83 21.65 84.7 25.21 84.7 25.87 84.7 26.56 84.7 27.21 84.77V87.77C26.8352 87.7229 26.4578 87.6995 26.08 87.7 25.08 87.7 24.53 87.82 24.53 88.97V89.54H27.03V92.24H24.53V102.24H20.37V92.19ZM29.59 92.19H27.59V89.49H29.59C29.59 85.83 30.87 84.7 34.43 84.7 35.09 84.7 35.78 84.7 36.43 84.77V87.77C36.0552 87.7224 35.6777 87.699 35.3 87.7 34.3 87.7 33.76 87.82 33.76 88.97V89.54H36.26V92.24H33.76V102.24H29.59V92.19ZM41.65 87.89H37.48V84.7H41.65V87.89ZM37.48 89.49H41.65V102.23H37.48V89.49ZM52.75 94.1501C52.7097 93.6479 52.4813 93.1794 52.1105 92.8382 51.7397 92.4971 51.2538 92.3085 50.75 92.3101 48.42 92.3101 48.05 94.3101 48.05 96.0701 48.05 97.8301 48.76 99.4101 50.53 99.4101 50.8318 99.4305 51.1347 99.3892 51.4201 99.2889 51.7056 99.1885 51.9676 99.031 52.1902 98.8262 52.4129 98.6213 52.5915 98.3733 52.7152 98.0972 52.839 97.821 52.9052 97.5226 52.91 97.2201H56.97C56.6 100.64 53.97 102.6 50.56 102.6 49.683 102.648 48.8057 102.512 47.9837 102.203 47.1617 101.894 46.413 101.417 45.785 100.803 45.1569 100.189 44.6633 99.4514 44.3354 98.6367 44.0074 97.8219 43.8524 96.9479 43.88 96.0701 43.88 92.0701 46.45 89.1201 50.56 89.1201 53.72 89.1201 56.56 90.7901 56.84 94.1201L52.75 94.1501ZM62.43 96.8799C62.4042 97.2623 62.4595 97.6457 62.5923 98.0052 62.7251 98.3647 62.9324 98.6921 63.2005 98.9659 63.4686 99.2397 63.7916 99.4538 64.1483 99.5941 64.5049 99.7343 64.8872 99.7977 65.27 99.7799 65.7618 99.8068 66.2506 99.6883 66.6756 99.4394 67.1006 99.1905 67.4429 98.822 67.66 98.3799H71.56C70.8 101.38 68.07 102.6 65.23 102.6 61.08 102.6 58.23 100.1 58.23 95.8199 58.2283 94.9243 58.4064 94.0375 58.7539 93.212 59.1013 92.3865 59.6109 91.6392 60.2525 91.0144 60.8942 90.3895 61.6547 89.8999 62.4891 89.5744 63.3235 89.249 64.2147 89.0944 65.11 89.1199 69.67 89.1199 71.96 92.5599 71.76 96.8799H62.43ZM67.61 94.5499C67.6158 93.8782 67.3604 93.2305 66.8977 92.7435 66.4349 92.2565 65.8011 91.9684 65.13 91.9399 64.4329 91.9517 63.7664 92.2277 63.2651 92.7123 62.7639 93.1968 62.4654 93.8536 62.43 94.5499H67.61ZM87.4 89.12C88.7343 89.112 90.0409 89.5003 91.1543 90.2357 92.2677 90.971 93.1378 92.0203 93.6544 93.2505 94.171 94.4808 94.3107 95.8367 94.056 97.1465 93.8013 98.4563 93.1635 99.661 92.2236 100.608 91.2836 101.555 90.0836 102.202 88.7758 102.466 87.4679 102.731 86.111 102.601 84.8769 102.093 83.6429 101.586 82.5872 100.724 81.8436 99.6159 81.1 98.508 80.702 97.2043 80.7 95.87 80.6711 94.98 80.8243 94.0935 81.1501 93.2648 81.476 92.4361 81.9676 91.6826 82.5949 91.0507 83.2222 90.4187 83.9719 89.9215 84.7982 89.5895 85.6245 89.2575 86.5098 89.0977 87.4 89.12V89.12ZM87.4 99.41C89.34 99.41 89.96 97.49 89.96 95.87 89.96 94.25 89.34 92.31 87.4 92.31 85.46 92.31 84.87 94.25 84.87 95.87 84.87 97.49 85.46 99.41 87.4 99.41ZM97.08 92.19H95.08V89.49H97.08C97.08 85.83 98.35 84.7 101.92 84.7 102.58 84.7 103.27 84.7 103.92 84.77V87.77C103.545 87.7224 103.168 87.699 102.79 87.7 101.79 87.7 101.24 87.82 101.24 88.97V89.54H103.75V92.24H101.24V102.24H97.08V92.19ZM130.11 102.23H125.54L123.13 90.15 120.73 102.23H116L111.3 84.7H115.86L118.34 97.52 121 84.7H125.3L127.88 97.52H127.93L130.41 84.7H135L130.11 102.23ZM141.06 89.12C142.394 89.112 143.701 89.5003 144.814 90.2357 145.928 90.971 146.798 92.0203 147.314 93.2505 147.831 94.4808 147.971 95.8367 147.716 97.1465 147.461 98.4563 146.824 99.661 145.884 100.608 144.944 101.555 143.744 102.202 142.436 102.466 141.128 102.731 139.771 102.601 138.537 102.093 137.303 101.586 136.247 100.724 135.504 99.6159 134.76 98.508 134.362 97.2043 134.36 95.87 134.331 94.98 134.484 94.0935 134.81 93.2648 135.136 92.4361 135.628 91.6826 136.255 91.0507 136.882 90.4187 137.632 89.9215 138.458 89.5895 139.284 89.2575 140.17 89.0977 141.06 89.12V89.12ZM141.06 99.41C143 99.41 143.61 97.49 143.61 95.87 143.61 94.25 143 92.31 141.06 92.31 139.12 92.31 138.53 94.25 138.53 95.87 138.53 97.49 139.12 99.41 141.06 99.41ZM149.73 89.4899H153.78V91.7199H153.83C154.119 90.9514 154.647 90.2958 155.337 89.8494 156.026 89.403 156.84 89.1894 157.66 89.2399 157.996 89.2371 158.331 89.2707 158.66 89.3399V93.1499C158.144 92.9923 157.609 92.9082 157.07 92.8999 156.662 92.8706 156.251 92.9269 155.866 93.0652 155.48 93.2036 155.128 93.421 154.832 93.7034 154.535 93.9858 154.301 94.3271 154.144 94.7054 153.987 95.0836 153.911 95.4905 153.92 95.8999V102.21H149.75L149.73 89.4899ZM159.9 84.7H164.07V93.7L167.88 89.45H172.72L168.05 94.26 173.3 102.19H168.3L165.18 97.06 164.1 98.12V102.19H159.9V84.7ZM175.47 92.19H173.47V89.49H175.47C175.47 85.83 176.74 84.7 180.3 84.7 180.97 84.7 181.65 84.7 182.3 84.77V87.77C181.925 87.7227 181.548 87.6993 181.17 87.7 180.17 87.7 179.62 87.82 179.62 88.97V89.54H182.13V92.24H179.62V102.24H175.45L175.47 92.19ZM189.59 89.12C190.924 89.114 192.23 89.504 193.342 90.2406 194.454 90.9771 195.322 92.0271 195.837 93.2575 196.352 94.488 196.491 95.8436 196.235 97.1527 195.979 98.4618 195.34 99.6656 194.4 100.612 193.46 101.558 192.26 102.203 190.952 102.467 189.645 102.731 188.288 102.6 187.055 102.093 185.821 101.585 184.766 100.723 184.023 99.6149 183.28 98.5072 182.882 97.2039 182.88 95.87 182.851 94.9791 183.005 94.0918 183.331 93.2624 183.657 92.433 184.15 91.6791 184.778 91.047 185.407 90.4148 186.158 89.9178 186.985 89.5864 187.813 89.2551 188.699 89.0963 189.59 89.12V89.12ZM189.59 99.41C191.53 99.41 192.14 97.49 192.14 95.87 192.14 94.25 191.53 92.31 189.59 92.31 187.65 92.31 187.06 94.25 187.06 95.87 187.06 97.49 187.65 99.41 189.59 99.41ZM198.5 89.49H202.55V91.72C202.841 90.9523 203.369 90.2976 204.058 89.8515 204.747 89.4053 205.561 89.1911 206.38 89.24 206.716 89.2366 207.051 89.2702 207.38 89.34V93.15C206.864 92.9924 206.329 92.9082 205.79 92.9 205.382 92.8706 204.971 92.9269 204.586 93.0653 204.2 93.2037 203.848 93.421 203.552 93.7035 203.255 93.9859 203.021 94.3272 202.864 94.7054 202.707 95.0837 202.631 95.4906 202.64 95.9V102.21H198.5V89.49ZM216.72 94.1501C216.68 93.6479 216.451 93.1794 216.08 92.8382 215.71 92.4971 215.224 92.3085 214.72 92.3101 212.39 92.3101 212.02 94.3101 212.02 96.0701 212.02 97.8301 212.74 99.4101 214.5 99.4101 214.802 99.4305 215.106 99.3893 215.392 99.289 215.678 99.1887 215.94 99.0314 216.164 98.8267 216.387 98.6219 216.567 98.374 216.692 98.0979 216.816 97.8217 216.884 97.5231 216.89 97.2201H220.94C220.57 100.64 217.94 102.6 214.53 102.6 213.653 102.646 212.777 102.51 211.955 102.2 211.134 101.89 210.386 101.413 209.758 100.8 209.131 100.186 208.637 99.4489 208.308 98.6349 207.98 97.8208 207.824 96.9475 207.85 96.0701 207.85 92.0701 210.43 89.1201 214.53 89.1201 217.7 89.1201 220.53 90.7901 220.81 94.1201L216.72 94.1501ZM226.4 96.8799C226.374 97.2631 226.43 97.6475 226.563 98.0077 226.696 98.368 226.905 98.6959 227.174 98.9698 227.443 99.2438 227.767 99.4576 228.125 99.5972 228.483 99.7369 228.866 99.7991 229.25 99.7799 229.74 99.8061 230.228 99.6873 230.651 99.4383 231.074 99.1893 231.415 98.8212 231.63 98.3799H235.53C234.77 101.38 232.05 102.6 229.2 102.6 225.05 102.6 222.2 100.1 222.2 95.8199 222.198 94.9243 222.376 94.0375 222.724 93.212 223.071 92.3865 223.581 91.6392 224.223 91.0144 224.864 90.3895 225.625 89.8999 226.459 89.5744 227.293 89.249 228.185 89.0944 229.08 89.1199 233.65 89.1199 235.93 92.5599 235.74 96.8799H226.4ZM231.58 94.5499C231.588 93.8774 231.334 93.2283 230.87 92.7408 230.407 92.2533 229.772 91.9659 229.1 91.9399 228.403 91.9517 227.736 92.2277 227.235 92.7123 226.734 93.1968 226.435 93.8536 226.4 94.5499H231.58ZM245.45 84.7H253C258.38 84.7 261.6 87.97 261.6 93.39 261.6 99.14 258.33 102.23 253 102.23H245.46L245.45 84.7ZM250 98.31H252.16C255.63 98.23 257 96.88 257 93.37 257 90.18 255.28 88.63 252.16 88.63H250V98.31ZM267.34 96.8799C267.314 97.2623 267.37 97.6457 267.502 98.0052 267.635 98.3647 267.842 98.6921 268.111 98.9659 268.379 99.2397 268.702 99.4538 269.058 99.5941 269.415 99.7343 269.797 99.7977 270.18 99.7799 270.672 99.8068 271.161 99.6883 271.586 99.4394 272.011 99.1905 272.353 98.822 272.57 98.3799H276.47C275.71 101.38 272.98 102.6 270.14 102.6 265.98 102.6 263.14 100.1 263.14 95.8199 263.138 94.9243 263.316 94.0375 263.664 93.212 264.011 92.3865 264.521 91.6392 265.163 91.0144 265.804 90.3895 266.565 89.8999 267.399 89.5744 268.234 89.249 269.125 89.0944 270.02 89.1199 274.58 89.1199 276.87 92.5599 276.67 96.8799H267.34ZM272.52 94.5499C272.525 93.8715 272.265 93.218 271.793 92.7299 271.322 92.2419 270.678 91.9582 270 91.9399 269.303 91.9517 268.636 92.2277 268.135 92.7123 267.634 93.1968 267.335 93.8536 267.3 94.5499H272.52ZM286.22 102.23H281.41L277.16 89.49H281.51L283.84 97.91H283.89L286.25 89.49H290.49L286.22 102.23ZM295.23 96.8801C295.206 97.263 295.262 97.6467 295.396 98.0062 295.53 98.3657 295.739 98.6929 296.007 98.9665 296.276 99.2402 296.6 99.454 296.957 99.5942 297.314 99.7344 297.697 99.7977 298.08 99.7801 298.571 99.8076 299.058 99.6893 299.482 99.4402 299.905 99.1911 300.246 98.8222 300.46 98.3801H304.37C303.61 101.38 300.88 102.6 298.03 102.6 293.88 102.6 291.03 100.1 291.03 95.8201 291.028 94.9254 291.206 94.0394 291.553 93.2146 291.9 92.3898 292.409 91.6429 293.049 91.0182 293.69 90.3935 294.449 89.9037 295.282 89.5776 296.115 89.2516 297.006 89.096 297.9 89.1201 302.47 89.1201 304.76 92.5601 304.56 96.8801H295.23ZM300.41 94.5501C300.418 93.8776 300.164 93.2285 299.701 92.741 299.237 92.2535 298.602 91.9661 297.93 91.9401 297.234 91.9542 296.568 92.2311 296.068 92.7151 295.567 93.1992 295.268 93.8547 295.23 94.5501H300.41ZM306.68 84.7H310.85V102.23H306.68V84.7ZM319.74 89.12C321.074 89.1121 322.381 89.5004 323.494 90.2357 324.608 90.971 325.478 92.0203 325.994 93.2506 326.511 94.4808 326.651 95.8367 326.396 97.1465 326.141 98.4563 325.504 99.661 324.564 100.608 323.624 101.555 322.424 102.202 321.116 102.466 319.808 102.731 318.451 102.601 317.217 102.094 315.983 101.586 314.927 100.724 314.184 99.6159 313.44 98.508 313.042 97.2043 313.04 95.87 313.01 94.9796 313.162 94.0925 313.487 93.2631 313.813 92.4338 314.304 91.6797 314.932 91.0475 315.559 90.4152 316.31 89.918 317.137 89.5865 317.963 89.255 318.849 89.0963 319.74 89.12V89.12ZM319.74 99.41C321.68 99.41 322.3 97.49 322.3 95.87 322.3 94.25 321.68 92.31 319.74 92.31 317.8 92.31 317.21 94.25 317.21 95.87 317.21 97.49 317.8 99.41 319.74 99.41ZM328.51 89.49H332.51V91H332.56C332.94 90.4197 333.462 89.946 334.076 89.624 334.69 89.3019 335.377 89.1422 336.07 89.16 340.07 89.16 341.77 92.6 341.77 96.16 341.77 99.48 340 102.62 336.39 102.62 335.687 102.651 334.987 102.508 334.353 102.205 333.718 101.901 333.168 101.446 332.75 100.88H332.7V106.53H328.53L328.51 89.49ZM332.51 95.73C332.51 97.96 333.15 99.41 335.04 99.41 336.93 99.41 337.54 97.47 337.54 95.73 337.54 93.99 336.9 92.31 335.06 92.31 334 92.31 332.54 93.1 332.54 95.73H332.51ZM343.83 89.49H347.89V91.23C348.265 90.5917 348.8 90.0618 349.442 89.6919 350.083 89.3221 350.81 89.125 351.55 89.12 352.305 89.0398 353.067 89.1946 353.731 89.5633 354.395 89.932 354.929 90.4966 355.26 91.18 355.7 90.5282 356.297 89.9978 356.996 89.6378 357.695 89.2777 358.474 89.0996 359.26 89.12 363.31 89.12 363.75 92.19 363.75 94.62V102.23H359.6V94.74C359.6 93.37 358.94 92.56 357.86 92.56 356.06 92.56 355.86 93.93 355.86 96V102.23H351.69V95C351.69 93.5 351.24 92.57 350.11 92.57 348.62 92.57 347.98 93.43 347.98 96.03V102.24H343.8L343.83 89.49ZM370 96.8799C369.974 97.2631 370.03 97.6475 370.163 98.0077 370.297 98.368 370.505 98.6959 370.774 98.9698 371.043 99.2438 371.367 99.4576 371.725 99.5972 372.083 99.7369 372.466 99.7991 372.85 99.7799 373.34 99.8061 373.828 99.6873 374.251 99.4383 374.674 99.1893 375.015 98.8212 375.23 98.3799H379.13C378.37 101.38 375.65 102.6 372.8 102.6 368.65 102.6 365.8 100.1 365.8 95.8199 365.798 94.9243 365.977 94.0375 366.324 93.212 366.671 92.3865 367.181 91.6392 367.823 91.0144 368.464 90.3895 369.225 89.8999 370.059 89.5744 370.894 89.249 371.785 89.0944 372.68 89.1199 377.25 89.1199 379.53 92.5599 379.33 96.8799H370ZM375.18 94.5499C375.188 93.8774 374.934 93.2283 374.471 92.7408 374.007 92.2533 373.372 91.9659 372.7 91.9399 372.003 91.9517 371.336 92.2277 370.835 92.7123 370.334 93.1968 370.035 93.8536 370 94.5499H375.18ZM381.28 89.4901H385.34V91.2301C385.785 90.5793 386.381 90.0469 387.078 89.6792 387.775 89.3115 388.552 89.1196 389.34 89.1201 393.59 89.1201 393.93 92.2101 393.93 94.0601V102.23H389.76V96.0701C389.76 94.3301 389.95 92.5601 387.67 92.5601 386.1 92.5601 385.41 93.8801 385.41 95.2801V102.28H381.23L381.28 89.4901ZM404.29 92.1899H401.72V97.9999C401.72 98.9999 402.31 99.2199 403.21 99.2199 403.56 99.2199 403.93 99.2199 404.29 99.2199V102.29C403.53 102.29 402.77 102.42 402.01 102.42 398.45 102.42 397.54 101.42 397.54 97.9199V92.1899H395.43V89.4899H397.54V85.6299H401.72V89.4899H404.29V92.1899ZM9 135.73C14.74 135.73 18 139.94 18 145.22 18 150.5 14.77 154.71 9 154.71 3.23 154.71 0 150.5 0 145.22 0 139.94 3.25 135.73 9 135.73ZM9 150.63C12.06 150.63 13.23 147.92 13.23 145.22 13.23 142.52 12.06 139.81 9 139.81 5.94 139.81 4.77 142.52 4.77 145.22 4.77 147.92 5.93 150.63 9 150.63ZM21.1501 143.89H19.0601V141.09H21.1501C21.1501 137.29 22.4801 136.09 26.1501 136.09 26.8401 136.09 27.5501 136.09 28.2401 136.16V139.22C27.8519 139.173 27.4611 139.149 27.0701 139.15 26.0701 139.15 25.4601 139.27 25.4601 140.47V141.06H28.0601V143.86H25.4601V154.29H21.1501V143.89ZM30.44 143.89H28.35V141.09H30.44C30.44 137.29 31.76 136.09 35.44 136.09 36.13 136.09 36.84 136.09 37.53 136.16V139.22C37.1418 139.173 36.751 139.149 36.36 139.15 35.36 139.15 34.75 139.27 34.75 140.47V141.06H37.35V143.86H34.75V154.29H30.44V143.89ZM43 139.43H38.62V136.12H43V139.43ZM38.67 141.09H43V154.32H38.62L38.67 141.09ZM54.48 145.93C54.4711 145.664 54.4091 145.402 54.2976 145.16 54.1862 144.918 54.0275 144.701 53.831 144.521 53.6344 144.341 53.4039 144.203 53.1531 144.113 52.9022 144.024 52.6359 143.985 52.37 144 49.94 144 49.56 146.07 49.56 147.9 49.56 149.73 50.3 151.37 52.14 151.37 52.4529 151.39 52.7666 151.347 53.0623 151.243 53.358 151.138 53.6294 150.975 53.8603 150.763 54.0911 150.551 54.2766 150.294 54.4055 150.008 54.5343 149.722 54.6039 149.413 54.61 149.1H58.82C58.43 152.65 55.68 154.69 52.16 154.69 51.2489 154.739 50.3376 154.598 49.484 154.276 48.6303 153.954 47.853 153.458 47.2013 152.819 46.5496 152.181 46.0378 151.414 45.6984 150.567 45.3591 149.72 45.1995 148.812 45.23 147.9 45.23 143.69 47.9 140.69 52.16 140.69 55.45 140.69 58.38 142.42 58.69 145.91L54.48 145.93ZM64.53 148.76C64.5051 149.16 64.5657 149.561 64.7076 149.937 64.8496 150.312 65.0697 150.653 65.3534 150.936 65.6371 151.22 65.9779 151.44 66.3531 151.582 66.7284 151.724 67.1295 151.785 67.53 151.76 68.0378 151.79 68.5432 151.67 68.9827 151.413 69.4222 151.157 69.7761 150.777 70 150.32H74C73.21 153.38 70.38 154.71 67.43 154.71 63.12 154.71 60.18 152.1 60.18 147.71 60.1715 146.776 60.3515 145.851 60.7091 144.989 61.0667 144.126 61.5946 143.345 62.2612 142.691 62.9278 142.038 63.7194 141.525 64.5886 141.185 65.4579 140.845 66.3868 140.683 67.32 140.71 72.07 140.71 74.44 144.28 74.23 148.71L64.53 148.76ZM69.91 146.34C69.9157 145.643 69.6494 144.971 69.1677 144.467 68.686 143.962 68.0268 143.666 67.33 143.64 66.6081 143.652 65.9175 143.937 65.3978 144.438 64.878 144.939 64.5679 145.619 64.53 146.34H69.91ZM85.08 143.89H83V141.09H85.09C85.09 137.29 86.42 136.09 90.09 136.09 90.78 136.09 91.5 136.09 92.19 136.16V139.22C91.7985 139.173 91.4044 139.149 91.01 139.15 90.01 139.15 89.41 139.27 89.41 140.47V141.06H92V143.86H89.4V154.29H85.08V143.89ZM99.49 140.71C100.874 140.71 102.228 141.121 103.379 141.89 104.53 142.659 105.427 143.752 105.957 145.031 106.487 146.31 106.626 147.718 106.356 149.076 106.085 150.433 105.419 151.681 104.44 152.66 103.461 153.639 102.214 154.305 100.856 154.575 99.4978 154.846 98.0903 154.707 96.8112 154.177 95.5322 153.647 94.4389 152.75 93.6697 151.599 92.9006 150.448 92.49 149.094 92.49 147.71 92.4594 146.782 92.6195 145.859 92.9605 144.995 93.3014 144.132 93.8159 143.348 94.4721 142.692 95.1284 142.036 95.9123 141.521 96.7754 141.18 97.6386 140.839 98.5625 140.679 99.49 140.71V140.71ZM99.49 151.39C101.49 151.39 102.14 149.39 102.14 147.72 102.14 146.05 101.5 144.02 99.49 144.02 97.48 144.02 96.86 146.02 96.86 147.72 96.86 149.42 97.47 151.39 99.49 151.39V151.39ZM108.49 141.09H112.7V143.41C113.002 142.608 113.554 141.925 114.274 141.46 114.995 140.996 115.845 140.775 116.7 140.83 117.036 140.829 117.372 140.866 117.7 140.94V144.89C117.161 144.73 116.602 144.642 116.04 144.63 115.614 144.599 115.186 144.658 114.783 144.803 114.381 144.948 114.014 145.176 113.706 145.472 113.398 145.768 113.155 146.126 112.994 146.522 112.832 146.917 112.756 147.343 112.77 147.77V154.32H108.44L108.49 141.09ZM127.1 136.12H141.61V139.92H131.85V143.1H140.77V146.78H131.85V150.24H141.85V154.32H127.1V136.12ZM152.6 145.93C152.588 145.665 152.525 145.406 152.412 145.166 152.299 144.927 152.14 144.712 151.944 144.534 151.748 144.356 151.518 144.219 151.269 144.131 151.019 144.043 150.754 144.005 150.49 144.02 148.06 144.02 147.68 146.09 147.68 147.92 147.68 149.75 148.42 151.39 150.26 151.39 150.573 151.41 150.887 151.367 151.182 151.263 151.478 151.158 151.749 150.995 151.98 150.783 152.211 150.571 152.397 150.314 152.525 150.028 152.654 149.742 152.724 149.433 152.73 149.12H156.94C156.56 152.67 153.8 154.71 150.28 154.71 149.369 154.757 148.459 154.615 147.606 154.293 146.753 153.97 145.976 153.474 145.325 152.836 144.673 152.198 144.161 151.431 143.822 150.585 143.482 149.739 143.321 148.831 143.35 147.92 143.35 143.71 146.03 140.71 150.28 140.71 153.57 140.71 156.5 142.44 156.81 145.93H152.6ZM165.28 140.71C166.665 140.71 168.018 141.121 169.169 141.89 170.32 142.659 171.217 143.752 171.747 145.031 172.277 146.31 172.416 147.718 172.146 149.076 171.875 150.433 171.209 151.681 170.23 152.66 169.251 153.639 168.004 154.305 166.646 154.575 165.288 154.846 163.88 154.707 162.601 154.177 161.322 153.647 160.229 152.75 159.46 151.599 158.691 150.448 158.28 149.094 158.28 147.71 158.249 146.782 158.41 145.859 158.751 144.995 159.091 144.132 159.606 143.348 160.262 142.692 160.918 142.036 161.702 141.521 162.565 141.18 163.429 140.839 164.353 140.679 165.28 140.71V140.71ZM165.28 151.39C167.28 151.39 167.93 149.39 167.93 147.72 167.93 146.05 167.29 144.02 165.28 144.02 163.27 144.02 162.65 146.02 162.65 147.72 162.65 149.42 163.26 151.39 165.28 151.39V151.39ZM174.13 141.09H178.33V142.9C178.791 142.222 179.411 141.667 180.137 141.286 180.862 140.904 181.67 140.706 182.49 140.71 186.9 140.71 187.26 143.92 187.26 145.83V154.32H183V147.92C183 146.11 183.21 144.28 180.84 144.28 179.2 144.28 178.49 145.65 178.49 147.11V154.32H174.16L174.13 141.09ZM196.11 140.71C197.494 140.71 198.848 141.121 199.999 141.89 201.15 142.659 202.047 143.752 202.577 145.031 203.107 146.31 203.246 147.718 202.976 149.076 202.705 150.433 202.039 151.681 201.06 152.66 200.081 153.639 198.834 154.305 197.476 154.575 196.118 154.846 194.71 154.707 193.431 154.177 192.152 153.647 191.059 152.75 190.29 151.599 189.521 150.448 189.11 149.094 189.11 147.71 189.079 146.782 189.24 145.859 189.58 144.995 189.921 144.132 190.436 143.348 191.092 142.692 191.748 142.036 192.532 141.521 193.395 141.18 194.259 140.839 195.182 140.679 196.11 140.71V140.71ZM196.11 151.39C198.11 151.39 198.76 149.39 198.76 147.72 198.76 146.05 198.12 144.02 196.11 144.02 194.1 144.02 193.48 146.02 193.48 147.72 193.48 149.42 194.09 151.39 196.11 151.39V151.39ZM205.21 141.09H209.42V142.9H209.47C209.857 142.234 210.411 141.682 211.078 141.298 211.744 140.913 212.5 140.711 213.27 140.71 214.054 140.627 214.844 140.788 215.533 141.171 216.222 141.554 216.776 142.14 217.12 142.85 217.573 142.175 218.189 141.625 218.911 141.251 219.633 140.877 220.437 140.691 221.25 140.71 225.45 140.71 225.91 143.89 225.91 146.42V154.32H221.58V146.55C221.58 145.12 220.89 144.28 219.77 144.28 217.91 144.28 217.77 145.7 217.77 147.85V154.32H213.43V146.8C213.43 145.25 212.98 144.28 211.8 144.28 210.25 144.28 209.58 145.17 209.58 147.87V154.32H205.25L205.21 141.09ZM233.16 139.43H228.82V136.12H233.16V139.43ZM228.82 141.09H233.16V154.32H228.82V141.09ZM244.68 145.93C244.669 145.665 244.605 145.406 244.492 145.166 244.379 144.927 244.22 144.712 244.024 144.534 243.828 144.356 243.598 144.219 243.349 144.131 243.099 144.043 242.834 144.005 242.57 144.02 240.14 144.02 239.76 146.09 239.76 147.92 239.76 149.75 240.5 151.39 242.34 151.39 242.653 151.41 242.967 151.367 243.262 151.263 243.558 151.158 243.829 150.995 244.06 150.783 244.291 150.571 244.477 150.314 244.606 150.028 244.734 149.742 244.804 149.433 244.81 149.12H249C248.61 152.67 245.86 154.71 242.34 154.71 241.429 154.759 240.518 154.618 239.664 154.296 238.81 153.974 238.033 153.478 237.381 152.839 236.73 152.201 236.218 151.434 235.878 150.587 235.539 149.74 235.38 148.832 235.41 147.92 235.41 143.71 238.08 140.71 242.34 140.71 245.63 140.71 248.56 142.44 248.87 145.93H244.68ZM267.38 135.73C273.11 135.73 276.38 139.94 276.38 145.22 276.38 150.5 273.14 154.71 267.38 154.71 261.62 154.71 258.38 150.5 258.38 145.22 258.38 139.94 261.64 135.73 267.38 135.73ZM267.38 150.63C270.44 150.63 271.61 147.92 271.61 145.22 271.61 142.52 270.44 139.81 267.38 139.81 264.32 139.81 263.14 142.52 263.14 145.22 263.14 147.92 264.32 150.63 267.38 150.63ZM278.6 141.09H282.73V142.62C283.125 142.017 283.668 141.525 284.307 141.191 284.946 140.856 285.659 140.691 286.38 140.71 290.53 140.71 292.29 144.28 292.29 148 292.29 151.44 290.46 154.71 286.71 154.71 285.979 154.742 285.251 154.592 284.591 154.275 283.932 153.957 283.361 153.481 282.93 152.89H282.88V158.76H278.6V141.09ZM282.78 147.57C282.78 149.89 283.44 151.39 285.41 151.39 287.38 151.39 288.01 149.39 288.01 147.57 288.01 145.75 287.34 144.02 285.43 144.02 284.26 144 282.78 144.84 282.78 147.57V147.57ZM294.51 141.09H298.64V142.62H298.69C299.085 142.017 299.628 141.525 300.267 141.191 300.906 140.856 301.619 140.691 302.34 140.71 306.49 140.71 308.25 144.28 308.25 148 308.25 151.44 306.42 154.71 302.67 154.71 301.94 154.741 301.214 154.591 300.556 154.273 299.899 153.956 299.33 153.481 298.9 152.89H298.84V158.76H294.51V141.09ZM298.69 147.57C298.69 149.89 299.35 151.39 301.32 151.39 303.29 151.39 303.92 149.39 303.92 147.57 303.92 145.75 303.26 144.02 301.34 144.02 300.17 144 298.69 144.84 298.69 147.57ZM316.74 140.71C318.124 140.71 319.478 141.121 320.629 141.89 321.78 142.659 322.677 143.752 323.207 145.031 323.737 146.31 323.876 147.718 323.606 149.076 323.335 150.433 322.669 151.681 321.69 152.66 320.711 153.639 319.464 154.305 318.106 154.575 316.748 154.846 315.34 154.707 314.061 154.177 312.782 153.647 311.689 152.75 310.92 151.599 310.151 150.448 309.74 149.094 309.74 147.71 309.709 146.782 309.87 145.859 310.21 144.995 310.551 144.132 311.066 143.348 311.722 142.692 312.378 142.036 313.162 141.521 314.025 141.18 314.889 140.839 315.812 140.679 316.74 140.71V140.71ZM316.74 151.39C318.74 151.39 319.4 149.39 319.4 147.72 319.4 146.05 318.76 144.02 316.74 144.02 314.72 144.02 314.12 146.02 314.12 147.72 314.12 149.42 314.73 151.39 316.74 151.39V151.39ZM325.49 141.09H329.7V143.41H329.75C330.052 142.608 330.604 141.925 331.324 141.46 332.045 140.996 332.895 140.775 333.75 140.83 334.086 140.829 334.422 140.866 334.75 140.94V144.89C334.211 144.728 333.653 144.641 333.09 144.63 332.663 144.592 332.232 144.647 331.828 144.789 331.423 144.932 331.054 145.16 330.745 145.458 330.436 145.755 330.194 146.116 330.037 146.515 329.879 146.914 329.808 147.342 329.83 147.77V154.32H325.49V141.09ZM344.54 143.89H341.86V149.89C341.86 150.94 342.47 151.17 343.42 151.17 343.77 151.17 344.16 151.11 344.54 151.11V154.3C343.75 154.3 342.96 154.43 342.17 154.43 338.47 154.43 337.53 153.36 337.53 149.76V143.87H335.33V141.07H337.53V137.07H341.86V141.07H344.54V143.89ZM359.48 154.32H355.27V152.51C354.833 153.175 354.24 153.723 353.543 154.107 352.846 154.49 352.066 154.697 351.27 154.71 347.48 154.71 346.38 152.51 346.38 149.04V141.09H350.71V148.76C350.71 150.52 351.48 151.13 352.86 151.13 353.8 151.13 355.23 150.52 355.23 148.18V141.09H359.56L359.48 154.32ZM362.24 141.09H366.44V142.9H366.49C366.951 142.222 367.571 141.667 368.297 141.286 369.022 140.904 369.83 140.706 370.65 140.71 375.06 140.71 375.42 143.92 375.42 145.83V154.32H371.08V147.92C371.08 146.11 371.29 144.28 368.92 144.28 367.29 144.28 366.57 145.65 366.57 147.11V154.32H362.24V141.09ZM382.13 139.43H377.79V136.12H382.13V139.43ZM377.79 141.09H382.13V154.32H377.79V141.09ZM393 143.89H390.33V149.89C390.33 150.94 390.94 151.17 391.88 151.17 392.24 151.17 392.62 151.11 393 151.11V154.3C392.21 154.3 391.42 154.43 390.63 154.43 386.94 154.43 385.99 153.36 385.99 149.76V143.87H383.8V141.07H386V137.07H390.34V141.07H393V143.89ZM402.78 155.5C401.78 158.4 400.18 158.76 397.25 158.76H395.25V155.24H396.75C396.963 155.268 397.18 155.251 397.387 155.19 397.593 155.129 397.785 155.026 397.948 154.886 398.112 154.747 398.245 154.575 398.339 154.381 398.432 154.187 398.483 153.975 398.49 153.76 398.236 152.571 397.868 151.408 397.39 150.29L393.97 141.09H398.56L401.06 149.71H401.11L403.61 141.09H408L402.78 155.5ZM404.28 118.48H.0100098V119.48H404.28V118.48Z" fill="currentColor"/></symbol><symbol id="logo-nyc" viewBox="0 0 219 73"><g id="Layer_2" data-name="Layer 2"><g id="Layer_1-2" data-name="Layer 1"><path d="M214.44 31.88 219 27.38 219 13.69 205.31 0 159.69 0 146 13.69 146 4.56 141.44 0 123.19 0 118.63 4.56 118.63 13.69 109.5 22.81 100.38 13.69 100.38 4.56 95.81 0 77.56 0 73 4.56 68.44 0 50.19 0 45.63 4.56 45.63 22.81 22.81 0 4.56 0 0 4.56 0 68.44 4.56 73 22.81 73 27.38 68.44 27.38 50.19 50.19 73 68.44 73 73 68.44 73 31.94 95.81 54.75 95.81 68.44 100.38 73 118.63 73 123.19 68.44 123.19 54.75 146 31.94 146 59.31 159.69 73 205.31 73 219 59.31 219 45.63 214.44 41.06 191.63 41.06 191.63 45.63 173.38 45.63 173.38 27.38 191.63 27.38 191.63 31.88 214.44 31.88zM215.75 3.08c.43 0 .8 0 .8-.54s-.41-.47-.75-.47h-.68v1Zm-.63 2h-.57V1.59h1.31c.83 0 1.26.29 1.26 1a.88.88 0 0 1-.9.94l1 1.52h-.65l-.89-1.48h-.53Zm.61-4.36a2.42 2.42 0 0 0-2.4 2.57 2.4 2.4 0 1 0 4.79 0A2.42 2.42 0 0 0 215.73.68m0 5.69a3 3 0 0 1-3.07-3.12 3.07 3.07 0 1 1 6.13 0 3 3 0 0 1-3.06 3.12"/></g></g></symbol><symbol id="logo-google-translate" viewBox="0 0 175 16"><path fill-rule="evenodd" clip-rule="evenodd" d="M128.789 4.79395C128.051 4.79395 127.023 5.31595 126.733 6.12728H126.675V4.90261H125.4V11.9999H126.733V8.18395C126.733 6.87995 127.66 6.11261 128.572 6.11261 128.862 6.11261 129.094 6.14128 129.282 6.21395L129.789 4.96861C129.514 4.85261 129.224 4.79395 128.789 4.79395ZM152.801 1.4606H154.133V11.9999H152.801V1.4606ZM148.658 4.79395C147.225 4.79395 145.891 5.59461 145.891 6.84461 145.891 8.05328 147.1 8.60061 147.732 8.75528L149.164 9.09261C149.895 9.27528 150.146 9.65461 150.146 10.0059 150.146 10.5813 149.529 10.9579 148.728 10.9579 147.899 10.9579 147.184 10.5539 146.819 9.66461L145.667 10.1426C146.074 11.1433 147.057 12.1273 148.715 12.1273 150.33 12.1273 151.467 11.1859 151.467 9.96395 151.467 9.12061 150.892 8.27795 149.529 7.95461L148.125 7.63128C147.577 7.50528 147.213 7.26661 147.213 6.83061 147.213 6.26861 147.885 5.96328 148.616 5.96328 149.29 5.96328 149.963 6.23061 150.231 6.87661L151.354 6.41328C150.933 5.35928 149.852 4.79395 148.658 4.79395ZM158.579 10.9286C157.904 10.9286 157.071 10.5813 157.071 9.85128 157.071 9.21928 157.679 8.52861 159.042 8.52861 160.138 8.52861 160.667 8.93795 160.667 8.93795 160.667 10.0619 159.604 10.9286 158.579 10.9286ZM158.859 4.79395C157.131 4.79395 156.158 5.79995 155.919 6.43195L157.099 6.93795C157.338 6.29195 158.171 5.99195 158.887 5.99195 159.857 5.99195 160.667 6.59395 160.667 7.68528V7.88261C160.399 7.72795 159.745 7.46061 158.817 7.46061 157.202 7.46061 155.701 8.26395 155.701 9.82328 155.701 11.2559 156.963 12.1273 158.367 12.1273 159.548 12.1273 160.231 11.4913 160.611 10.9153H160.667V11.9999H161.922V7.74395C161.922 5.80528 160.545 4.79395 158.859 4.79395ZM133.323 10.9286C132.649 10.9286 131.815 10.5813 131.815 9.85128 131.815 9.21928 132.424 8.52861 133.787 8.52861 134.882 8.52861 135.411 8.93795 135.411 8.93795 135.411 10.0619 134.349 10.9286 133.323 10.9286ZM133.604 4.79395C131.876 4.79395 130.902 5.79995 130.663 6.43195L131.843 6.93795C132.083 6.29195 132.915 5.99195 133.632 5.99195 134.601 5.99195 135.411 6.59395 135.411 7.68528V7.88261C135.144 7.72795 134.489 7.46061 133.561 7.46061 131.946 7.46061 130.446 8.26395 130.446 9.82328 130.446 11.2559 131.707 12.1273 133.112 12.1273 134.292 12.1273 134.975 11.4913 135.355 10.9153H135.411V11.9999H136.667V7.74395C136.667 5.80528 135.29 4.79395 133.604 4.79395ZM169.398 7.62328C169.655 6.61995 170.425 5.99195 171.396 5.99195 172.894 5.99195 173.407 7.02728 173.45 7.62328H169.398ZM171.424 4.79395C169.37 4.79395 168 6.50728 168 8.46061 168 10.5399 169.427 12.1273 171.567 12.1273 173.179 12.1273 174.207 11.2279 174.62 10.2446L173.45 9.76728C173.079 10.6386 172.309 10.9286 171.538 10.9286 170.454 10.9286 169.384 10.1606 169.313 8.70728H174.834C174.834 8.70728 174.849 8.55861 174.849 8.46061 174.849 6.24061 173.507 4.79395 171.424 4.79395ZM141.778 4.79395C140.807 4.79395 139.909 5.35861 139.533 6.00995H139.475V4.90261H138.2V11.9999H139.533V8.19728C139.533 7.11128 140.243 6.00995 141.401 6.00995 142.415 6.00995 143.154 6.50261 143.154 7.97995V11.9999H144.487V7.77795C144.487 6.02528 143.589 4.79395 141.778 4.79395ZM165.399 2.79395H164.067V4.90261H162.821V6.12995H164.067V9.85328C164.067 11.3019 164.863 12.1273 166.355 12.1273 166.804 12.1273 167.123 12.0693 167.427 11.9393L166.964 10.7946C166.775 10.8813 166.601 10.9106 166.355 10.9106 165.733 10.9106 165.399 10.5486 165.399 9.75128V6.12995H167.137V4.90261H165.399V2.79395ZM124.95 1.4606H117.733V2.82727H120.667V11.9939H122.017V2.82727H124.95V1.4606ZM72.16 5.58594V7.22461H76.082C75.9647 8.14661 75.6574 8.81994 75.1894 9.28794 74.618 9.85861 73.7254 10.4879 72.16 10.4879 69.7447 10.4879 67.8574 8.54194 67.8574 6.12727 67.8574 3.71261 69.7447 1.76661 72.16 1.76661 73.462 1.76661 74.4134 2.27861 75.116 2.93727L76.272 1.78061C75.2914.844607 73.9894.127274 72.16.127274 68.8527.127274 66.072 2.81994 66.072 6.12727 66.072 9.43461 68.8527 12.1273 72.16 12.1273 73.9447 12.1273 75.2914 11.5419 76.3454 10.4446 77.428 9.36127 77.7647 7.83927 77.7647 6.60994 77.7647 6.22994 77.7354 5.87861 77.6767 5.58594H72.16ZM82.6666 4.25461C80.5253 4.25461 78.7793 5.88328 78.7793 8.12727 78.7793 10.3566 80.5253 11.9999 82.6666 11.9999 84.8086 11.9999 86.554 10.3566 86.554 8.12727 86.554 5.88328 84.8086 4.25461 82.6666 4.25461ZM82.6666 10.4739C81.4933 10.4739 80.4806 9.50594 80.4806 8.12727 80.4806 6.73394 81.4933 5.77994 82.6666 5.77994 83.84 5.77994 84.8526 6.73394 84.8526 8.12727 84.8526 9.50594 83.84 10.4739 82.6666 10.4739ZM101.72 5.12061H101.661C101.279 4.66528 100.546 4.25461 99.622 4.25461 97.686 4.25461 96 5.94127 96 8.12727 96 10.2979 97.686 11.9999 99.622 11.9999 100.546 11.9999 101.279 11.5893 101.661 11.1199H101.72V11.6613C101.72 13.1426 100.928 13.9346 99.6513 13.9346 98.61 13.9346 97.9647 13.1866 97.7007 12.5559L96.2193 13.1719C96.6447 14.1986 97.774 15.4606 99.6513 15.4606 101.647 15.4606 103.333 14.2873 103.333 11.4266V4.45394H101.72V5.12061ZM99.7693 10.4739C98.596 10.4739 97.702 9.47661 97.702 8.12727 97.702 6.76328 98.596 5.77994 99.7693 5.77994 100.929 5.77994 101.837 6.77794 101.837 8.14194 101.837 9.49127 100.929 10.4739 99.7693 10.4739ZM91.3334 4.25461C89.192 4.25461 87.446 5.88328 87.446 8.12727 87.446 10.3566 89.192 11.9999 91.3334 11.9999 93.4754 11.9999 95.2207 10.3566 95.2207 8.12727 95.2207 5.88328 93.4754 4.25461 91.3334 4.25461ZM91.3334 10.4739C90.16 10.4739 89.148 9.50594 89.148 8.12727 89.148 6.73394 90.16 5.77994 91.3334 5.77994 92.5067 5.77994 93.5194 6.73394 93.5194 8.12727 93.5194 9.50594 92.5067 10.4739 91.3334 10.4739ZM104.667.287277H106.34V11.9999H104.667V.287277ZM111.51 10.4739C110.645 10.4739 110.029 10.0786 109.632 9.30127L114.81 7.15928 114.634 6.71927C114.311 5.85394 113.329 4.25461 111.319 4.25461 109.324 4.25461 107.667 5.82461 107.667 8.12727 107.667 10.2986 109.309 11.9999 111.51 11.9999 113.285 11.9999 114.311 10.9146 114.737 10.2833L113.417 9.40328C112.977 10.0493 112.375 10.4739 111.51 10.4739ZM111.384 5.70594C112.073 5.70594 112.656 6.05661 112.851 6.55994L109.353 8.00994C109.353 6.37727 110.508 5.70594 111.384 5.70594Z" fill="currentColor"/><g fill="currentColor"><path d="M6.17578 8.90039C6.17578 9.86523 5.95508 10.6426 5.51367 11.2324 5.07227 11.8223 4.47461 12.1172 3.7207 12.1172 2.95117 12.1172 2.3457 11.873 1.9043 11.3848V14.4375H.820312V5.66016H1.81055L1.86328 6.36328C2.30469 5.81641 2.91797 5.54297 3.70312 5.54297 4.46484 5.54297 5.06641 5.83008 5.50781 6.4043 5.95312 6.97852 6.17578 7.77734 6.17578 8.80078V8.90039ZM5.0918 8.77734C5.0918 8.0625 4.93945 7.49805 4.63477 7.08398 4.33008 6.66992 3.91211 6.46289 3.38086 6.46289 2.72461 6.46289 2.23242 6.75391 1.9043 7.33594V10.3652C2.22852 10.9434 2.72461 11.2324 3.39258 11.2324 3.91211 11.2324 4.32422 11.0273 4.62891 10.6172 4.9375 10.2031 5.0918 9.58984 5.0918 8.77734ZM7.27148 8.77148C7.27148 8.15039 7.39258 7.5918 7.63477 7.0957 7.88086 6.59961 8.2207 6.2168 8.6543 5.94727 9.0918 5.67773 9.58984 5.54297 10.1484 5.54297 11.0117 5.54297 11.709 5.8418 12.2402 6.43945 12.7754 7.03711 13.043 7.83203 13.043 8.82422V8.90039C13.043 9.51758 12.9238 10.0723 12.6855 10.5645 12.4512 11.0527 12.1133 11.4336 11.6719 11.707 11.2344 11.9805 10.7305 12.1172 10.1602 12.1172 9.30078 12.1172 8.60352 11.8184 8.06836 11.2207 7.53711 10.623 7.27148 9.83203 7.27148 8.84766V8.77148ZM8.36133 8.90039C8.36133 9.60352 8.52344 10.168 8.84766 10.5938 9.17578 11.0195 9.61328 11.2324 10.1602 11.2324 10.7109 11.2324 11.1484 11.0176 11.4727 10.5879 11.7969 10.1543 11.959 9.54883 11.959 8.77148 11.959 8.07617 11.793 7.51367 11.4609 7.08398 11.1328 6.65039 10.6953 6.43359 10.1484 6.43359 9.61328 6.43359 9.18164 6.64648 8.85352 7.07227 8.52539 7.49805 8.36133 8.10742 8.36133 8.90039ZM20.0156 10.5059 21.2344 5.66016H22.3184L20.4727 12H19.5938L18.0527 7.19531 16.5527 12H15.6738L13.834 5.66016H14.9121L16.1602 10.4062 17.6367 5.66016H18.5098L20.0156 10.5059ZM26.0566 12.1172C25.1973 12.1172 24.498 11.8359 23.959 11.2734 23.4199 10.707 23.1504 9.95117 23.1504 9.00586V8.80664C23.1504 8.17773 23.2695 7.61719 23.5078 7.125 23.75 6.62891 24.0859 6.24219 24.5156 5.96484 24.9492 5.68359 25.418 5.54297 25.9219 5.54297 26.7461 5.54297 27.3867 5.81445 27.8438 6.35742 28.3008 6.90039 28.5293 7.67773 28.5293 8.68945V9.14062H24.2344C24.25 9.76562 24.4316 10.2715 24.7793 10.6582 25.1309 11.041 25.5762 11.2324 26.1152 11.2324 26.498 11.2324 26.8223 11.1543 27.0879 10.998 27.3535 10.8418 27.5859 10.6348 27.7852 10.377L28.4473 10.8926C27.916 11.709 27.1191 12.1172 26.0566 12.1172ZM25.9219 6.43359C25.4844 6.43359 25.1172 6.59375 24.8203 6.91406 24.5234 7.23047 24.3398 7.67578 24.2695 8.25H27.4453V8.16797C27.4141 7.61719 27.2656 7.19141 27 6.89062 26.7344 6.58594 26.375 6.43359 25.9219 6.43359ZM32.8535 6.63281C32.6895 6.60547 32.5117 6.5918 32.3203 6.5918 31.6094 6.5918 31.127 6.89453 30.873 7.5V12H29.7891V5.66016H30.8438L30.8613 6.39258C31.2168 5.82617 31.7207 5.54297 32.373 5.54297 32.584 5.54297 32.7441 5.57031 32.8535 5.625V6.63281ZM36.3691 12.1172C35.5098 12.1172 34.8105 11.8359 34.2715 11.2734 33.7324 10.707 33.4629 9.95117 33.4629 9.00586V8.80664C33.4629 8.17773 33.582 7.61719 33.8203 7.125 34.0625 6.62891 34.3984 6.24219 34.8281 5.96484 35.2617 5.68359 35.7305 5.54297 36.2344 5.54297 37.0586 5.54297 37.6992 5.81445 38.1562 6.35742 38.6133 6.90039 38.8418 7.67773 38.8418 8.68945V9.14062H34.5469C34.5625 9.76562 34.7441 10.2715 35.0918 10.6582 35.4434 11.041 35.8887 11.2324 36.4277 11.2324 36.8105 11.2324 37.1348 11.1543 37.4004 10.998 37.666 10.8418 37.8984 10.6348 38.0977 10.377L38.7598 10.8926C38.2285 11.709 37.4316 12.1172 36.3691 12.1172ZM36.2344 6.43359C35.7969 6.43359 35.4297 6.59375 35.1328 6.91406 34.8359 7.23047 34.6523 7.67578 34.582 8.25H37.7578V8.16797C37.7266 7.61719 37.5781 7.19141 37.3125 6.89062 37.0469 6.58594 36.6875 6.43359 36.2344 6.43359ZM39.8379 8.77734C39.8379 7.80469 40.0684 7.02344 40.5293 6.43359 40.9902 5.83984 41.5938 5.54297 42.3398 5.54297 43.082 5.54297 43.6699 5.79688 44.1035 6.30469V3H45.1875V12H44.1914L44.1387 11.3203C43.7051 11.8516 43.1016 12.1172 42.3281 12.1172 41.5938 12.1172 40.9941 11.8164 40.5293 11.2148 40.0684 10.6133 39.8379 9.82812 39.8379 8.85938V8.77734ZM40.9219 8.90039C40.9219 9.61914 41.0703 10.1816 41.3672 10.5879 41.6641 10.9941 42.0742 11.1973 42.5977 11.1973 43.2852 11.1973 43.7871 10.8887 44.1035 10.2715V7.35938C43.7793 6.76172 43.2812 6.46289 42.6094 6.46289 42.0781 6.46289 41.6641 6.66797 41.3672 7.07812 41.0703 7.48828 40.9219 8.0957 40.9219 8.90039ZM55.2188 8.90039C55.2188 9.86914 54.9961 10.6484 54.5508 11.2383 54.1055 11.8242 53.5078 12.1172 52.7578 12.1172 51.957 12.1172 51.3379 11.834 50.9004 11.2676L50.8477 12H49.8516V3H50.9355V6.35742C51.373 5.81445 51.9766 5.54297 52.7461 5.54297 53.5156 5.54297 54.1191 5.83398 54.5566 6.41602 54.998 6.99805 55.2188 7.79492 55.2188 8.80664V8.90039ZM54.1348 8.77734C54.1348 8.03906 53.9922 7.46875 53.707 7.06641 53.4219 6.66406 53.0117 6.46289 52.4766 6.46289 51.7617 6.46289 51.248 6.79492 50.9355 7.45898V10.2012C51.2676 10.8652 51.7852 11.1973 52.4883 11.1973 53.0078 11.1973 53.4121 10.9961 53.7012 10.5938 53.9902 10.1914 54.1348 9.58594 54.1348 8.77734ZM58.5938 10.4121 60.0703 5.66016H61.2305L58.6816 12.9785C58.2871 14.0332 57.6602 14.5605 56.8008 14.5605L56.5957 14.543 56.1914 14.4668V13.5879L56.4844 13.6113C56.8516 13.6113 57.1367 13.5371 57.3398 13.3887 57.5469 13.2402 57.7168 12.9688 57.8496 12.5742L58.0898 11.9297 55.8281 5.66016H57.0117L58.5938 10.4121Z"/></g></symbol><symbol id="icon-wnyc-translate" viewBox="0 0 24 24"><path d="M3 16C4.5 15.1667 8 12.5 10 9.5C12 6.5 11.5 4 11.5 4M14.5 4H8.5M2.5 4H8.5M8.5 4V2.5M4.5 7C5.5 10 7.5 12.5 10 14.5M12 21L13.35 18M21 21L19.65 18M13.35 18L16.5 10.5C17.7302 13.2337 18.4198 15.2663 19.65 18M13.35 18H19.65"/></symbol><symbol id="icon-wnyc-accessible" viewBox="0 0 24 24"><path d="M20.0888 10.975C19.8251 10.7044 19.4566 10.5616 19.0801 10.5822L14.5227 10.8359 17.0307 7.97945C17.388 7.57256 17.4901 7.03016 17.352 6.54548 17.2791 6.21336 17.0779 5.91117 16.7689 5.7181 16.7595 5.71133 10.7739 2.23419 10.7739 2.23419 10.2852 1.95027 9.66928 2.01282 9.24749 2.38903L6.32364 4.99716C5.78494 5.47765 5.73777 6.30387 6.21829 6.8426 6.69886 7.38126 7.52511 7.42858 8.06377 6.94791L10.2805 4.97059 12.113 6.03475 8.8783 9.71873C7.53699 9.93748 6.33014 10.5556 5.38275 11.4467L7.07193 13.1359C7.83553 12.4416 8.84942 12.0178 9.96041 12.0178 12.3301 12.0178 14.2581 13.9458 14.2581 16.3155 14.2581 17.4265 13.8343 18.4403 13.14 19.2039L14.8291 20.8931C15.9543 19.6969 16.6449 18.0874 16.6449 16.3155 16.6449 15.2599 16.3998 14.2616 15.964 13.3738L17.7281 13.2756 17.299 18.5394C17.2403 19.2589 17.7761 19.8896 18.4956 19.9483 18.5316 19.9513 18.5676 19.9527 18.6032 19.9527 19.2769 19.9527 19.8489 19.435 19.9045 18.7517L20.4553 11.9935C20.4861 11.6169 20.3524 11.2455 20.0888 10.975ZM17.668 5.37585C18.8763 5.37585 19.8557 4.39632 19.8557 3.18794 19.8557 1.97963 18.8763 1 17.668 1 16.4596 1 15.4801 1.97963 15.4801 3.18794 15.4801 4.39632 16.4595 5.37585 17.668 5.37585ZM9.96055 20.6132C7.59079 20.6132 5.66283 18.6852 5.66283 16.3155 5.66283 15.4224 5.93685 14.5923 6.40493 13.9043L4.69752 12.1969C3.80786 13.3322 3.276 14.7614 3.276 16.3155 3.276 20.0073 6.26874 23 9.96055 23 11.5147 23 12.9438 22.4681 14.079 21.5785L12.3717 19.8711C11.6837 20.3391 10.8536 20.6132 9.96055 20.6132Z" fill="currentColor"/></symbol><symbol id="favicon"><path id="favicon" d="M262.562 8.28859V24.4295V56.7114L221.428 97.2819V121.711L213.113 130H237.619L262.125 154.43V178.859L253.81 186.711H212.676V178.859H179.855V211.141H212.676V202.852H253.81L262.125 211.141V235.57L237.619 260H155.787L131.281 234.698V153.993L155.787 129.564H180.293L171.978 121.275V96.8456L131.281 56.7114V121.275L122.967 129.564H90.1464L49.0116 88.9933V121.275L40.6972 129.564H8.31448L0 121.275V7.85235L8.31448 0H41.1348L82.2695 40.5705V8.28859L90.1464 0H122.967L131.281 8.28859L139.596 0H172.416L180.73 8.28859V24.4295L196.922 40.5705L213.551 24.4295V8.28859L221.428 0H254.248L262.562 8.28859ZM257.311 140.47C254.248 140.47 251.622 138.289 251.622 134.799C251.622 131.309 254.248 129.128 257.311 129.128C260.374 129.128 263 131.309 263 134.799C262.562 138.289 259.937 140.47 257.311 140.47ZM257.311 130.436C254.686 130.436 252.935 132.181 252.935 134.799C252.935 137.416 254.686 139.597 257.311 139.597C259.937 139.597 261.687 137.852 261.687 134.799C261.25 132.181 259.499 130.436 257.311 130.436ZM255.998 138.289H255.123V132.181H257.311C258.624 132.181 259.499 132.617 259.499 133.926C259.499 135.235 258.624 135.671 257.749 135.671L259.499 138.289H258.186L256.436 135.671H255.561V138.289H255.998ZM257.311 134.799C258.186 134.799 258.624 134.799 258.624 133.926C258.624 133.054 257.749 133.054 257.311 133.054H255.998V134.799H257.311Z"/><style>#favicon{fill:#217ceb}@media (prefers-color-scheme:light){#favicon{fill:#004cbe}}</style></symbol></svg>