<svg width="20" height="20" viewBox="0 0 20 20" fill="none" xmlns="http://www.w3.org/2000/svg"><g id="base icon"><path id="Union" d="M6.79471 9.05171H15.888C16.154 9.05171 16.3785 9.1432 16.5615 9.32617C16.7445 9.50914 16.8359 9.73363 16.8359 9.99963C16.8359 10.2656 16.7445 10.4901 16.5615 10.6731C16.3785 10.8561 16.154 10.9475 15.888 10.9475H6.79471L10.6838 14.8366C10.8737 15.0265 10.966 15.2492 10.9607 15.5046C10.9554 15.76 10.8578 15.9827 10.6679 16.1726C10.478 16.3487 10.2553 16.4393 9.99988 16.4446C9.74444 16.4499 9.52177 16.3576 9.33185 16.1677L3.83185 10.6677C3.73855 10.5744 3.67038 10.4708 3.62736 10.357C3.58434 10.2431 3.56283 10.124 3.56283 9.99963C3.56283 9.87523 3.58434 9.75612 3.62736 9.6423C3.67038 9.52846 3.73855 9.4249 3.83185 9.33161L9.33683 3.82663C9.51618 3.64727 9.73538 3.55759 9.99444 3.55759C10.2535 3.55759 10.478 3.64727 10.6679 3.82663C10.8578 4.01655 10.9528 4.24186 10.9528 4.50257C10.9528 4.76329 10.8578 4.98861 10.6679 5.17853L6.79471 9.05171Z" fill="#30374F"/></g></svg>