<svg fill="none" height="20" viewBox="0 0 56 20" width="56" xmlns="http://www.w3.org/2000/svg"><clipPath id="a"><path d="m0 .840866h55.8307v18.3183h-55.8307z"/></clipPath><g clip-path="url(#a)" fill="#080707"><path d="M54.2652 1.30887c.0453-.10068.1057-.18122.1812-.24666.0755-.065443.1611-.120816.2618-.156053.1006-.035237.2013-.055373.307-.055373s.2064.015102.3071.055373c.1007.035237.1862.09061.2618.156053.0755.07047.1308.15101.1812.24666.0453.10067.0654.20639.0654.32217 0 .11577-.0252.23155-.0654.3272-.0403.09564-.1057.18122-.1812.24666-.0756.07047-.1611.12081-.2618.15605-.1007.03523-.2014.05537-.3071.05537s-.2064-.0151-.307-.05537c-.1007-.03524-.1863-.08558-.2618-.15605-.0755-.07048-.1309-.15102-.1812-.24666-.0504-.09565-.0655-.20639-.0655-.3272 0-.12082.0252-.22653.0655-.32217zm.1963.57386c.0302.07551.0755.14598.1258.19632.0504.05537.1158.10068.1913.12585s.1511.0453.2316.0453.156-.0151.2315-.0453c.0756-.03021.1309-.07551.1913-.12585.0504-.05537.1007-.12081.1259-.19632s.0453-.15605.0453-.24666-.0151-.17115-.0453-.24666-.0755-.14095-.1259-.19632c-.0503-.05537-.1157-.10068-.1913-.12585-.0755-.02517-.151-.0453-.2315-.0453s-.1611.0151-.2316.0453c-.0704.0302-.1308.07551-.1913.12585-.0503.05034-.1006.12081-.1258.19632-.0302.07551-.0453.15605-.0453.24666s.0151.17115.0453.24666zm.5638-.69468c.1107 0 .1963.01511.2517.05538s.0906.11074.0906.20135c0 .04027-.005.07551-.0151.10571-.0101.03021-.0302.05034-.0503.07048-.0252.0151-.0453.03523-.0756.04027-.0302.01007-.0553.0151-.0906.0151l.2366.38761h-.1862l-.2114-.37754h-.1108v.37754h-.1711v-.87086h.3372zm0 .36244c.0503 0 .0906-.00503.1258-.02517.0353-.02013.0453-.0453.0453-.10571 0-.02517 0-.04027-.0151-.05537s-.0251-.02517-.0402-.03524c-.0151-.00503-.0353-.01007-.0554-.0151s-.0403 0-.0654 0h-.1511v.23156h.1561zM52.604 19.144h-12.2172s-.0453-.0503-.0755-.0805c-1.0118-1.0118-2.0236-2.0287-3.0405-3.0304-.0553-.0554-.0805-.1158-.0805-.1963v-6.82595l-.0504-.03524c-.0151.03524-.0302.08054-.0503.10571-1.8776 1.87768-3.7553 3.76028-5.6379 5.63798-.0504.0503-.0755.1057-.0755.1812v3.277c0 .0755-.0252.1259-.0756.1813l-.7953.7953h-5.2503s-.0403-.0554-.0655-.0805c-.2315-.2316-.4631-.4682-.6997-.6997-.0654-.0655-.0906-.1259-.0906-.2115v-3.2518c0-.0756-.0151-.1259-.0705-.1813-1.8826-1.8826-3.7653-3.7653-5.653-5.64798-.0252-.02517-.0504-.0453-.0906-.08054v9.16672c0 .0805-.0252.1409-.0806.1963-.2668.2618-.5235.5235-.7853.7903h-5.2503c-.1309-.1409-.2617-.2769-.3977-.4077l-5.00867-5.0087c-.0302-.0302-.05537-.0504-.10571-.0907v4.5305c0 .0806-.02517.141-.08054.1964-.2366.2315-.47319.4681-.70475.7047-.02517.0252-.04027.0554-.06544.0805h-5.235229c-.266796-.2718-.538625-.5386-.8003867-.8104-.0352372-.0403-.06544042-.1057-.06544042-.1561-.00503388-5.3661-.00503388-10.72212-.00503388-16.07816 0-.07048.0251694-.12082.0755082-.16612.3372698-.3423.6745398-.67454 1.0118118-1.016844.05537-.055373.11074-.075508.19128-.075508h4.40968c.08558 0 .14598.025169.20639.085576l5.61273 5.612776c.0302.0302.0453.0755.0705.11074l.0403-.0302v-4.51539c0-.08054.0252-.13088.0755-.19129.3423-.33727.6796-.67957 1.0219-1.01684.0402-.035237.1057-.06544.156-.06544h4.46c.0504 0 .1209.030203.1561.06544.3423.33727.6745.66951 1.0168 1.01181.0302.0302.0554.05034.0856.08054l1.0974-1.097383c.0352-.035238.1007-.065441.151-.065441h4.4701c.0503 0 .1208.030203.156.070474.3474.3423.6897.67957 1.027 1.02691.0352.04027.0654.10571.0654.15605v2.1243c0 .07551.0252.12584.0755.18122.7299.71984 1.4548 1.44975 2.1797 2.17967.0251.02516.0453.0453.0906.08557.0251-.03524.0403-.07551.0705-.10068.7148-.71481 1.4346-1.43968 2.1545-2.1545.0553-.05537.0805-.12081.0805-.20135v-2.09913c0-.05537.0302-.12584.0705-.16611.3423-.34734.6896-.69468 1.0319-1.03195.0353-.035237.0906-.055372.141-.055372h4.4801c.0504 0 .1108.030203.151.06544.3474.342302.6897.679572 1.0269 1.021882.0504.05033.0755.10571.0705.18121v2.20484c.0504-.0453.0806-.07551.1108-.10571 1.0973-1.09738 2.1998-2.19477 3.2971-3.297188.0554-.055373.1108-.075508.1913-.075508h11.4018c.0805 0 .1308.025169.1913.080542 1.0571 1.057114 2.1142 2.119264 3.1763 3.176374v3.9667s-.0553.04027-.0805.06544c-.2517.24666-.5135.50339-.7601.75508-.0504.05537-.1108.08054-.1913.08054h-5.7135v-1.13766h-4.6362v4.63115h4.6463v-1.1527h5.7235c.0504 0 .1108.0302.151.0654.297.2819.5789.5789.8659.8658v3.9667s-.0504.0403-.0755.0554c-.9414.9363-1.8777 1.8776-2.819 2.8139-.0252.0252-.0403.0453-.0655.0755h.0101z"/></g></svg>