<svg width="324" height="52" viewBox="0 0 324 52" fill="none" xmlns="http://www.w3.org/2000/svg"><g clip-path="url(#clip0_7894_29123)"><path d="M89.58.22998 71.6 51.69H57.94L45.85 16.84 33.37 51.69H19.79L1.72998.22998H14.92L27.32 36.4 40.27.22998H52.05L64.61 36.69 77.41.22998H89.58ZM122.95 31.48 115.57 38.68V51.69H102.93V.22998H115.57V24.27L139.9.22998H154.03L131.26 23.17 155.36 51.69H140.52L122.93 31.47 122.95 31.48Z"/><path d="M320.38 22.69 323.61 19.5V9.80999L313.92.109985H281.6L271.9 9.80999V3.34999L268.67.109985H255.75L252.52 3.34999V9.80999L246.05 16.27 239.59 9.80999V3.34999L236.35.109985H223.43L220.2 3.34999 216.97.109985H204.04L200.81 3.34999V16.27L184.64.109985H171.72L168.49 3.34999V48.59L171.72 51.82H184.64L187.88 48.59V35.66L204.04 51.82H216.97L220.2 48.59V22.73L236.35 38.89V48.59L239.59 51.82H252.52L255.75 48.59V38.89L271.9 22.73V42.13L281.6 51.82H313.92L323.61 42.13V32.43L320.38 29.19H304.22V32.43H291.3V19.5H304.22V22.69H320.38ZM321.31 2.28996C321.62 2.28996 321.88 2.25996 321.88 1.90996 321.88 1.60996 321.59 1.57996 321.35 1.57996H320.86V2.29996H321.31V2.28996ZM320.86 3.67996H320.46V1.23996H321.39C321.98 1.23996 322.28 1.44996 322.28 1.93996 322.28 2.38996 322.01 2.55996 321.64 2.60996L322.33 3.68996H321.88L321.25 2.63996H320.88V3.68996L320.86 3.67996ZM321.29.589961C320.33.589961 319.59 1.33996 319.59 2.41996 319.59 3.42996 320.24 4.24996 321.29 4.24996 322.24 4.24996 322.98 3.50996 322.98 2.41996 322.98 1.32996 322.24.589961 321.29.589961ZM321.29 4.62996C320.02 4.62996 319.12 3.67996 319.12 2.41996 319.12 1.08996 320.12.209961 321.29.209961 322.46.209961 323.45 1.08996 323.45 2.41996 323.45 3.73996 322.45 4.62996 321.29 4.62996Z" fill="currentColor"/></g><defs><clipPath id="clip0_7894_29123"><path fill="#fff" d="M0 0H323.61V51.93H0z"/></clipPath></defs></svg>