<svg width="156" height="119" viewBox="0 0 156 119" fill="none" xmlns="http://www.w3.org/2000/svg"><g clip-path="url(#clip0_7894_29114)"><path d="M86.4.0599976 69.41 48.68H56.5L45.08 15.76 33.29 48.68H20.46L3.40002.0599976H15.86L27.58 34.23 39.81.0599976H50.94L62.81 34.51 74.9.0599976H86.4ZM117.92 29.58 110.95 36.39V48.68H99.01V.0599976H110.95V22.77L133.94.0599976H147.29L125.78 21.73 148.55 48.68H134.53L117.91 29.58H117.92Z"/><path d="M151.89 88.98 155.12 85.79V76.1L145.43 66.4H113.11L103.42 76.1V69.64L100.19 66.4H87.26L84.03 69.64V76.1L77.56 82.56 71.1 76.1V69.64L67.87 66.4H54.94L51.71 69.64 48.48 66.4H35.55L32.32 69.64V82.56L16.16 66.4H3.23L0 69.64V114.88L3.23 118.11H16.16L19.39 114.88V101.95L35.55 118.11H48.48L51.71 114.88V89.02L67.87 105.18V114.88L71.1 118.11H84.03L87.26 114.88V105.18L103.42 89.02V108.42L113.11 118.11H145.43L155.12 108.42V98.72L151.89 95.48H135.73V98.72H122.81V85.79H135.73V88.98H151.89ZM152.82 68.58C153.13 68.58 153.39 68.55 153.39 68.2 153.39 67.9 153.1 67.87 152.86 67.87H152.37V68.59H152.82V68.58ZM152.37 69.97H151.97V67.53H152.9C153.49 67.53 153.79 67.74 153.79 68.23 153.79 68.68 153.52 68.85 153.15 68.9L153.84 69.98H153.39L152.76 68.93H152.39V69.98L152.37 69.97ZM152.8 66.88C151.84 66.88 151.1 67.63 151.1 68.71 151.1 69.72 151.75 70.54 152.8 70.54 153.75 70.54 154.49 69.8 154.49 68.71 154.49 67.62 153.75 66.88 152.8 66.88ZM152.8 70.92C151.53 70.92 150.63 69.97 150.63 68.71 150.63 67.38 151.63 66.5 152.8 66.5 153.97 66.5 154.96 67.38 154.96 68.71 154.96 70.03 153.96 70.92 152.8 70.92Z" fill="currentColor"/></g><defs><clipPath id="clip0_7894_29114"><path fill="#fff" d="M0 0H155.12V118.11H0z"/></clipPath></defs></svg>