<svg viewBox="0 0 305 28" fill="none" xmlns="http://www.w3.org/2000/svg"><path d="M247 1.3 246.9 26.6H239.9L230.3 15 230.2 26.5H221.9L222 1.2H229L238.6 12.8 238.7 1.3H247ZM268.7 17.6V26.8H260.2V17.5L250.7 1.4H259.7L264.8 10.2 270.1 1.5H278.4L268.7 17.6ZM285.6 25.7C283.5 24.6 281.8 23 280.6 21 279.4 19 278.8 16.7 278.8 14.1 278.8 11.5 279.4 9.3 280.7 7.2 281.9 5.2 283.6 3.6 285.8 2.5 288 1.4 290.4.800003 293 .800003 295.5.800003 297.7 1.3 299.6 2.1 301.5 3 303.1 4.2 304.4 5.9L299 10.7C297.4 8.7 295.6 7.7 293.5 7.7 291.7 7.7 290.3 8.3 289.2 9.4 288.1 10.5 287.6 12.1 287.6 14 287.6 15.9 288.1 17.5 289.2 18.6 290.3 19.8 291.7 20.3 293.5 20.3 295.6 20.3 297.5 19.3 299.1 17.4L304.5 22.2C303.2 23.8 301.6 25.1 299.7 25.9 297.8 26.8 295.6 27.2 293.1 27.2 290.1 27.4 287.7 26.8 285.6 25.7Z" fill="currentColor"/><path d="M40.6.399997 32.2 25.7H25.9L20.4 8.4 14.6 25.5H8.29997L.0999756.199997H6.19998L11.8 18 17.9.199997H23.3L29 18.2 35 .299997 40.6.399997ZM50.9 24.5C48.8 23.4 47.1 21.8 46 19.8 44.8 17.8 44.2 15.6 44.2 13.1 44.2 10.6 44.8 8.4 46 6.4 47.2 4.4 48.9 2.9 51 1.7 53.1.5 55.5 0 58.1 0 60.7 0 63.1.6 65.2 1.7 67.3 2.8 68.9 4.4 70.1 6.4 71.3 8.4 71.9 10.6 71.9 13.1 71.9 15.6 71.3 17.8 70.1 19.8 68.9 21.8 67.2 23.3 65.1 24.5 63 25.6 60.6 26.2 58 26.2 55.3 26.2 53 25.6 50.9 24.5ZM62.1 20.2C63.3 19.5 64.3 18.6 65 17.3 65.7 16.1 66 14.7 66.1 13.1 66.2 11.5 65.8 10.1 65.1 8.9 64.4 7.7 63.5 6.7 62.3 6 61.1 5.3 59.7 5 58.2 4.9 56.7 4.9 55.4 5.2 54.1 5.9 52.9 6.6 51.9 7.5 51.2 8.8 50.5 10 50.2 11.4 50.1 13 50.1 14.6 50.4 16 51.1 17.2 51.8 18.4 52.7 19.4 53.9 20.1 55.1 20.8 56.5 21.1 57.9 21.1 59.5 21.2 60.8 20.9 62.1 20.2ZM94.6 25.9 89.7 18.8H89.4 84.3V25.9H78.4L78.5.599998H89.5C91.7.599998 93.7.999999 95.3 1.7 96.9 2.5 98.2 3.5 99.1 4.9 100 6.3 100.4 7.9 100.4 9.8 100.4 11.7 99.9 13.3 99 14.7 98.1 16.1 96.8 17.1 95.1 17.8L100.7 26 94.6 25.9ZM93.2 6.5C92.3 5.7 90.9 5.3 89.2 5.3H84.4V14.1H89.2C91 14.1 92.3 13.7 93.2 13 94.1 12.2 94.6 11.1 94.6 9.7 94.5 8.4 94.1 7.3 93.2 6.5ZM117.7 16.1 114.3 19.6V26H108.5L108.6.699997H114.4L114.3 12.5 125.6.699997H132.1L121.5 12 132.6 26.1H125.8L117.7 16.1ZM139.5.800003H145.4L145.3 26.1H139.4L139.5.800003ZM177.9 1 177.8 26.3H173L160.4 10.9 160.3 26.3H154.5L154.6 1H159.5L172 16.4 172.2 1H177.9ZM203.8 13.4H209.2V23.7C207.8 24.7 206.2 25.5 204.4 26.1 202.6 26.7 200.8 26.9 198.9 26.9 196.3 26.9 193.9 26.3 191.8 25.2 189.7 24.1 188.1 22.5 186.9 20.5 185.7 18.5 185.1 16.3 185.1 13.7 185.1 11.1 185.7 8.9 186.9 7 188.1 5 189.8 3.5 191.9 2.4 194 1.3 196.4.699997 199.1.699997 201.3.699997 203.3 1.1 205.1 1.8 206.9 2.6 208.4 3.6 209.6 5.1L205.8 8.6C204 6.7 201.8 5.7 199.3 5.7 197.7 5.7 196.2 6 195 6.7 193.7 7.4 192.8 8.3 192.1 9.5 191.4 10.7 191 12.1 191 13.7 191 15.3 191.3 16.7 192 17.9 192.7 19.1 193.7 20.1 194.9 20.8 196.1 21.5 197.6 21.8 199.1 21.9 200.8 21.9 202.3 21.6 203.7 20.8L203.8 13.4Z"/></svg>