<svg width="456" height="152" viewBox="0 0 456 152" fill="none" xmlns="http://www.w3.org/2000/svg"><path d="M446.505 66.3803 456 57.0104V28.5052L427.495 0H332.505L304 28.5052V9.51562L294.505 0H256.505L247.01 9.51562V28.5052L228 47.5156 209.01 28.5052V9.51562L199.495 0H161.495L152 9.51562 142.505 0H104.505L95.0104 9.51562V47.5156L47.4948 0H9.49479L0 9.51562V142.505L9.49479 152H47.4948L57.0104 142.505V104.505L104.505 152H142.505L152 142.505V66.5052L199.495 114V142.505L209.01 152H247.01L256.505 142.505V114L304 66.5052V123.516L332.505 152H427.495L456 123.516V95.0104L446.505 85.4948H398.99V95.0104H361.01V57.0104H398.99V66.3803H446.505ZM449.233 6.41315C450.128 6.41315 450.899 6.32986 450.899 5.28876 450.899 4.41424 450.045 4.31013 449.337 4.31013H447.9V6.41315H449.233ZM447.921 10.4942H446.734V3.31068H449.462C451.19 3.31068 452.085 3.91452 452.085 5.37205 452.085 6.68383 451.294 7.20438 450.211 7.32931L452.231 10.4942H450.899L449.045 7.4126H447.942V10.4942H447.921ZM449.191 1.41589C446.38 1.41589 444.194 3.62301 444.194 6.78794 444.194 9.74466 446.11 12.16 449.191 12.16 451.981 12.16 454.168 9.9737 454.168 6.78794 454.168 3.62301 451.981 1.41589 449.191 1.41589ZM449.191 13.2844C445.464 13.2844 442.799 10.4942 442.799 6.78794 442.799 2.87342 445.756.291504 449.191.291504 452.585.291504 455.542 2.87342 455.542 6.78794 455.563 10.6816 452.606 13.2844 449.191 13.2844Z" fill="currentColor"/></svg>