<svg fill="none" height="30" viewBox="0 0 150 30" width="150" xmlns="http://www.w3.org/2000/svg"><g fill="#071f42"><path d="M8.23842 27.2986c-1.47461 0-2.82949-.304-4.06464-.9109-1.23564-.6069-2.24792-1.4834-3.03682-2.6295l2.80322-3.678c.58107.8712 1.20937 1.5243 1.88436 1.9593.67454.4356 1.39628.6531 2.16473.6531 2.05573 0 3.08353-1.3175 3.08353-3.9529v-11.44628h-7.63096v-4.46853h12.67676v15.60541c0 2.9792-.6697 5.2022-2.009 6.6684-1.3393 1.4668-3.2967 2.1999-5.87118 2.1999zM27.3466 27.1611c-1.7651 0-3.3381-.4125-4.7187-1.2374-1.3812-.825-2.466-1.9534-3.2549-3.3858-.7893-1.4319-1.1835-3.0646-1.1835-4.8982 0-1.8561.3942-3.5001 1.1835-4.9325.7889-1.4319 1.8737-2.5549 3.2549-3.3686 1.3806-.81314 2.9536-1.22025 4.7187-1.22025 1.7856 0 3.3741.40711 4.7655 1.22025 1.3909.8137 2.481 1.9367 3.2704 3.3686.7889 1.4324 1.1836 3.0764 1.1836 4.9325 0 1.8562-.3947 3.4948-1.1836 4.9154-.7894 1.4211-1.8795 2.5436-3.2704 3.3686-1.3914.8249-2.9799 1.2374-4.7655 1.2374zm0-4.3998c.8303 0 1.5622-.2003 2.1959-.6015.6331-.4007 1.1417-.9909 1.5262-1.7702.3839-.7788.5762-1.6956.5762-2.7499 0-1.0768-.1923-1.9936-.5762-2.7498-.3845-.7563-.8931-1.3347-1.5262-1.7359-.6337-.4007-1.3549-.6015-2.1647-.6015s-1.537.2008-2.1803.6015c-.6439.4012-1.1578.9796-1.5418 1.7359-.3845.7562-.5762 1.673-.5762 2.7498 0 1.0543.1917 1.9711.5762 2.7499.384.7793.8979 1.3695 1.5418 1.7702.6433.4012 1.3597.6015 2.1491.6015zM38.8712 26.8861v-25.5049h4.8589v10.7588l-.3114 5.4653.0934 5.4997v3.7811zm9.8736.275c-1.4328 0-2.684-.3378-3.7532-1.014-1.0697-.6757-1.8844-1.7241-2.445-3.1452-.5607-1.4205-.841-3.208-.841-5.3622 0-2.1768.2959-3.9642.8877-5.3622.5918-1.3975 1.4172-2.44049 2.4762-3.12796 1.059-.68746 2.2839-1.0312 3.6753-1.0312 1.5987 0 3.0261.39529 4.2827 1.18588 1.2561.79058 2.2528 1.89648 2.9901 3.31698.7368 1.4211 1.1057 3.0936 1.1057 5.0185s-.3689 3.5979-1.1057 5.0185c-.7373 1.4211-1.734 2.5264-2.9901 3.317-1.2566.7906-2.684 1.1859-4.2827 1.1859zm-.8098-4.3998c.8098 0 1.531-.2003 2.1647-.6015.6331-.4007 1.1417-.9909 1.5262-1.7702.3839-.7788.5762-1.6956.5762-2.7499 0-1.0768-.1923-1.9936-.5762-2.7498-.3845-.7563-.8931-1.3347-1.5262-1.7359-.6337-.4007-1.3549-.6015-2.1647-.6015s-1.5369.2008-2.1803.6015c-.6439.4012-1.1578.9796-1.5418 1.7359-.3845.7562-.5762 1.673-.5762 2.7498 0 1.0543.1917 1.9711.5762 2.7499.384.7793.8979 1.3695 1.5418 1.7702.6433.4012 1.3704.6015 2.1803.6015z"/></g><path d="m144.725 12.573 1.365-1.4873v-4.52266l-4.098-4.518h-13.651l-4.098 4.518v-3.01199l-1.365-1.506h-5.462l-1.365 1.506v3.01199l-2.729 3.01665-2.729-3.01665v-3.01199l-1.369-1.506h-5.463l-1.365 1.506-1.364-1.506h-5.4632l-1.3646 1.506v6.02864l-6.8275-7.53465h-5.4627l-1.3647 1.506v21.09326l1.3647 1.506h5.4627l1.3689-1.506v-6.024l6.8232 7.53h5.4632l1.364-1.506v-12.0526l6.828 7.5346v4.518l1.369 1.506h5.458l1.365-1.506v-4.518l6.827-7.5346v9.0406l4.098 4.518h13.651l4.098-4.518v-4.518l-1.365-1.5106h-6.831v1.5106h-5.459v-6.0286h5.459v1.4873zM146.666 3.06147c.131 0 .241-.01399.241-.17717 0-.13987-.123-.15386-.224-.15386h-.207v.3357h.19zm-.19.6481h-.169v-1.13765h.393c.249 0 .376.09791.376.32638 0 .20981-.114.28908-.271.31239l.292.50356h-.19l-.267-.48957h-.156v.48957zm.181-1.44072c-.405 0-.718.34969-.718.85324 0 .47092.275.85324.718.85324.402 0 .714-.34502.714-.85324 0-.50821-.312-.85324-.714-.85324zm0 1.88366c-.536 0-.916-.44294-.916-1.03042 0-.62011.422-1.03042.916-1.03042.495 0 .913.41031.913 1.03042 0 .61546-.423 1.03042-.913 1.03042z" fill="#004cbe"/><path d="m66.0968 27.307c-1.4706 0-2.8827-.194-4.2359-.5821-1.3537-.3881-2.4247-.876-3.213-1.4642l1.6625-3.9514c.7882.5413 1.7208.9823 2.7973 1.323 1.0759.3412 2.1364.5116 3.1809.5116 1.1509 0 1.9661-.1527 2.4457-.4587.4795-.3054.7193-.7288.7193-1.2701 0-.4465-.1868-.7817-.5595-1.0055-.3731-.2233-.8687-.3936-1.4866-.5116-.6184-.1174-1.2947-.2348-2.03-.3528-.7353-.1174-1.4761-.2762-2.2219-.4763-.7463-.1995-1.4281-.4994-2.046-.8996-.6184-.3997-1.1139-.9405-1.4866-1.623-.3731-.6819-.5594-1.5639-.5594-2.646 0-1.1996.3141-2.258.943-3.1753.6284-.9173 1.5396-1.64056 2.7334-2.16977 1.1934-.52921 2.6215-.79382 4.2839-.79382 1.1719 0 2.3657.14113 3.5806.42337 1.2148.28225 2.2268.69405 3.0371 1.23483l-1.6624 3.91619c-.8312-.5408-1.668-.9112-2.5096-1.1114-.8422-.1995-1.6574-.2998-2.4457-.2998-1.1084 0-1.9181.1648-2.4297.4939-.5115.3296-.7672.753-.7672 1.2701 0 .4708.1863.8236.5594 1.0584.3727.2354.8682.4234 1.4866.5645.6179.1411 1.2948.2646 2.0301.3705.7353.1058 1.4755.2646 2.2218.4763.7458.2116 1.4227.5115 2.0301.8996s1.1029.9173 1.4866 1.5876c.3836.6704.5754 1.5469.5754 2.6285 0 1.1764-.3197 2.2172-.9591 3.1223-.6394.9058-1.5615 1.6174-2.7653 2.1345-1.2044.5171-2.6695.7762-4.3958.7762z" fill="#071f42"/></svg>