<svg width="156" height="167" viewBox="0 0 156 167" stroke="transparent" stroke-width="0" fill="none" xmlns="http://www.w3.org/2000/svg"><g clip-path="url(#clip0_7894_29111)"><path d="M86.4.26001 69.41 48.88H56.5L45.08 15.96 33.29 48.88H20.46L3.40002.26001H15.86L27.58 34.43 39.81.26001H50.94L62.81 34.71 74.9.26001H86.4ZM117.92 29.78 110.95 36.59V48.88H99.01V.26001H110.95V22.98L133.94.26001H147.29L125.78 21.93 148.55 48.88H134.53L117.91 29.78H117.92Z" stroke="none"/><path d="M125.83 133.18V164.16L76.5099 145.01L27.1899 164.16V133.18" stroke-width="6" stroke-linejoin="bevel" fill="transparent"/><path d="M151.89 89.18 155.12 85.99V76.3L145.43 66.6H113.11L103.42 76.3V69.84L100.19 66.6H87.26L84.03 69.84V76.3L77.56 82.76 71.1 76.3V69.84L67.87 66.6H54.94L51.71 69.84 48.48 66.6H35.55L32.32 69.84V82.76L16.16 66.6H3.23L0 69.84V115.08L3.23 118.31H16.16L19.39 115.08V102.15L35.55 118.31H48.48L51.71 115.08V89.22L67.87 105.38V115.08L71.1 118.31H84.03L87.26 115.08V105.38L103.42 89.22V108.62L113.11 118.31H145.43L155.12 108.62V98.92L151.89 95.68H135.73V98.92H122.81V85.99H135.73V89.18H151.89ZM152.82 68.78C153.13 68.78 153.39 68.75 153.39 68.4 153.39 68.1 153.1 68.07 152.86 68.07H152.37V68.79H152.82V68.78ZM152.37 70.17H151.97V67.73H152.9C153.49 67.73 153.79 67.94 153.79 68.43 153.79 68.88 153.52 69.05 153.15 69.1L153.84 70.18H153.39L152.76 69.13H152.39V70.18L152.37 70.17ZM152.8 67.08C151.84 67.08 151.1 67.83 151.1 68.91 151.1 69.92 151.75 70.74 152.8 70.74 153.75 70.74 154.49 70 154.49 68.91 154.49 67.82 153.75 67.08 152.8 67.08ZM152.8 71.12C151.53 71.12 150.63 70.17 150.63 68.91 150.63 67.58 151.63 66.7 152.8 66.7 153.97 66.7 154.96 67.58 154.96 68.91 154.96 70.23 153.96 71.12 152.8 71.12Z" fill="currentColor" stroke="none"/></g><defs><clipPath id="clip0_7894_29111"><path fill="#fff" d="M0 0H155.12V166.95H0z"/></clipPath></defs></svg>