<svg fill="none" id="Layer_1" xmlns="http://www.w3.org/2000/svg" viewBox="0 0 1759.5 318.87"><path d="M96.6373 290.1566c-17.2972 0-33.1899-3.2312-47.6782-9.6819-14.4941-6.4508-26.3681-15.7672-35.6219-27.9494l32.8817-39.0926c6.816 9.2594 14.186 16.201 22.1036 20.825 7.9123 4.6297 16.3784 6.9417 25.3923 6.9417 24.1132 0 36.17-14.0032 36.17-42.0155v-121.6623H40.3734V30.0256h148.6983v165.87c0 31.6658-7.8552 55.2938-23.5651 70.8784-15.7103 15.5904-38.6706 23.3826-68.8693 23.3826ZM320.7756 288.6951c-20.7049 0-39.1554-4.3842-55.3505-13.1526-16.2014-8.7685-28.9258-20.7624-38.1796-35.9872-9.2591-15.2192-13.8831-32.5734-13.8831-52.0627 0-19.729 4.624-37.2032 13.8831-52.4281 9.2538-15.2192 21.9782-27.1559 38.1796-35.8045 16.1951-8.6429 34.6456-12.9701 55.3505-12.9701 20.9453 0 39.5782 4.3272 55.8991 12.9701 16.3151 8.6486 29.1024 20.5853 38.362 35.8045 9.2538 15.2249 13.8836 32.6991 13.8836 52.4281s-4.6298 37.146-13.8836 52.2454c-9.2596 15.105-22.0469 27.0361-38.362 35.8046-16.3209 8.7684-34.9538 13.1526-55.8991 13.1526Zm0-46.7651c9.739 0 18.3247-2.1294 25.7575-6.3937 7.427-4.2586 13.3925-10.5324 17.9024-18.8156 4.504-8.2775 6.7589-18.0222 6.7589-29.2282 0-11.4458-2.2549-21.1905-6.7589-29.2282-4.5098-8.0378-10.4753-14.186-17.9024-18.4504-7.4328-4.2586-15.8927-6.3937-25.3918-6.3937s-18.0281 2.1351-25.5747 6.3937c-7.5528 4.2644-13.5812 10.4126-18.0852 18.4504-4.5098 8.0377-6.7589 17.7824-6.7589 29.2282 0 11.206 2.2491 20.9507 6.7589 29.2282 4.504 8.2832 10.5324 14.557 18.0852 18.8156 7.5465 4.2643 15.9498 6.3937 25.209 6.3937ZM455.9593 285.7723V14.6808h56.9953v114.3554l-3.6535 58.091 1.0958 58.4564v40.1888h-54.4376Zm115.817 2.9228c-16.8061 0-31.4831-3.5906-44.0251-10.7778-12.5474-7.1815-22.1036-18.3247-28.6801-33.4297-6.5765-15.0993-9.8643-34.0977-9.8643-56.995 0-23.1371 3.4707-42.1354 10.4125-56.995 6.9418-14.8538 16.6233-25.94 29.0453-33.2471 12.4221-7.307 26.7909-10.9606 43.1118-10.9606 18.7529 0 35.4961 4.2015 50.236 12.6047 14.7341 8.4031 26.4252 20.1572 35.0737 35.2565 8.6428 15.105 12.9702 32.8817 12.9702 53.3415s-4.3274 38.2421-12.9702 53.3415c-8.6486 15.105-20.3397 26.8533-35.0737 35.2565-14.7399 8.4031-31.4831 12.6046-50.236 12.6046Zm-9.4991-46.7651c9.4991 0 17.959-2.1294 25.3918-6.3937 7.427-4.2586 13.3925-10.5324 17.9024-18.8156 4.504-8.2775 6.7589-18.0222 6.7589-29.2282 0-11.4458-2.2549-21.1905-6.7589-29.2282-4.5098-8.0378-10.4753-14.186-17.9024-18.4504-7.4328-4.2586-15.8927-6.3937-25.3918-6.3937s-18.0281 2.1351-25.5747 6.3937c-7.5528 4.2644-13.5812 10.4126-18.0852 18.4504-4.5098 8.0377-6.7589 17.7824-6.7589 29.2282 0 11.206 2.2491 20.9507 6.7589 29.2282 4.504 8.2832 10.5324 14.557 18.0852 18.8156 7.5465 4.2643 16.0752 6.3937 25.5747 6.3937Z"/><path fill="currentColor" d="m1697.6286 133.6389 16.0073-15.809v-48.0712l-48.0713-48.0218h-160.1217l-48.0711 48.0218v-32.0145l-16.0073-16.0072h-64.0784l-16.0073 16.0072v32.0145l-32.0144 32.064-32.0144-32.064v-32.0145l-16.0569-16.0072h-64.0784l-16.0073 16.0072-16.0071-16.0072h-64.0786l-16.0071 16.0072v64.0785l-80.0857-80.0858h-64.0784l-16.0073 16.0072v224.2003l16.0073 16.0072h64.0784l16.0567-16.0072v-64.0289l80.0361 80.0361h64.0786l16.0071-16.0072v-128.1073l80.0857 80.0857v48.0217l16.0569 16.0072h64.0288l16.0073-16.0072v-48.0217l80.0857-80.0857v96.0929l48.0711 48.0217h160.1217l48.0713-48.0217v-48.0217l-16.0073-16.0568h-80.1351v16.0568h-64.0289v-64.0784h64.0289v15.809h80.1351ZM1720.3899 32.5404c1.5363 0 2.8247-.1487 2.8247-1.8832 0-1.4867-1.4371-1.6354-2.6266-1.6354h-2.4283v3.5682h2.2302v-.0496Zm-2.2302 6.8886h-1.9823v-12.0921h4.6089c2.9239 0 4.4106 1.0407 4.4106 3.4691 0 2.2301-1.338 3.0726-3.1716 3.3204l3.4195 5.3523h-2.2302l-3.1222-5.2036h-1.8336v5.2036l-.0991-.0496Zm2.131-15.3134c-4.7575 0-8.4248 3.7168-8.4248 9.0691 0 5.0054 3.2212 9.0691 8.4248 9.0691 4.7081 0 8.3753-3.6673 8.3753-9.0691s-3.6672-9.0691-8.3753-9.0691Zm0 20.0214c-6.2938 0-10.754-4.708-10.754-10.9523 0-6.5912 4.9558-10.9523 10.754-10.9523s10.7045 4.3611 10.7045 10.9523c0 6.5417-4.9558 10.9523-10.7045 10.9523Z"/><path d="m775.315,290.2461c-17.25,0-33.8145-2.0625-49.6875-6.1875-15.8789-4.125-28.4414-9.3105-37.6875-15.5625l19.5-42c9.2461,5.7539,20.1855,10.4414,32.8125,14.0625,12.6211,3.627,25.0605,5.4375,37.3125,5.4375,13.5,0,23.0625-1.623,28.6875-4.875,5.625-3.2461,8.4375-7.7461,8.4375-13.5,0-4.7461-2.1914-8.3086-6.5625-10.6875-4.377-2.373-10.1895-4.1836-17.4375-5.4375-7.2539-1.248-15.1875-2.4961-23.8125-3.75-8.625-1.248-17.3145-2.9355-26.0625-5.0625-8.7539-2.1211-16.752-5.3086-24-9.5625-7.2539-4.248-13.0664-9.9961-17.4375-17.25-4.377-7.248-6.5625-16.623-6.5625-28.125,0-12.75,3.6855-24,11.0625-33.75,7.3711-9.75,18.0586-17.4375,32.0625-23.0625,13.998-5.625,30.75-8.4375,50.25-8.4375,13.7461,0,27.75,1.5,42,4.5s26.1211,7.377,35.625,13.125l-19.5,41.625c-9.75-5.748-19.5645-9.6855-29.4375-11.8125-9.8789-2.1211-19.4414-3.1875-28.6875-3.1875-13.002,0-22.5,1.752-28.5,5.25-6,3.5039-9,8.0039-9,13.5,0,5.0039,2.1855,8.7539,6.5625,11.25,4.3711,2.502,10.1836,4.5,17.4375,6,7.248,1.5,15.1875,2.8125,23.8125,3.9375s17.3086,2.8125,26.0625,5.0625c8.748,2.25,16.6875,5.4375,23.8125,9.5625s12.9375,9.75,17.4375,16.875,6.75,16.4414,6.75,27.9375c0,12.5039-3.75,23.5664-11.25,33.1875-7.5,9.627-18.3164,17.1914-32.4375,22.6875-14.127,5.4961-31.3125,8.25-51.5625,8.25Z"/></svg>