<svg fill="none" id="Layer_1" xmlns="http://www.w3.org/2000/svg" viewBox="0 0 1374.87 1046.87"><path d="M151.6965 430.3455c-26.1704 0-50.2159-4.8887-72.1366-14.6486-21.9294-9.7599-39.8946-23.8556-53.8955-42.2872l49.7497-59.1467c10.3126 14.0093 21.4632 24.512 33.4424 31.508 11.9711 7.0047 24.7804 10.5027 38.4182 10.5027 36.483 0 54.7248-21.1867 54.7248-63.569V108.6309H66.5698V36.7703h224.9788v250.9594c0 47.9101-11.8848 83.6589-35.6537 107.2381-23.7696 23.588-58.5082 35.3777-104.1985 35.3777ZM490.8151 428.1343c-31.3263 0-59.2417-6.6332-83.7447-19.8997-24.5125-13.2667-43.7644-31.4132-57.7653-54.4483-14.009-23.0265-21.005-49.2832-21.005-78.7703 0-29.8498 6.996-56.288 21.005-79.3231 14.0009-23.0265 33.2528-41.0866 57.7653-54.1718 24.503-13.0766 52.4184-19.6236 83.7447-19.6236 31.69 0 59.8814 6.547 84.5747 19.6236 24.6845 13.0852 44.0316 31.1453 58.0413 54.1718 14.0009 23.0351 21.0057 49.4733 21.0057 79.3231s-7.0048 56.2015-21.0057 79.0466c-14.0096 22.8537-33.3567 40.9052-58.0413 54.172-24.6933 13.2665-52.8847 19.8997-84.5747 19.8997Zm0-70.755c14.735 0 27.7251-3.2217 38.9708-9.6735 11.237-6.4432 20.2628-15.9354 27.0861-28.4678 6.8145-12.5238 10.2262-27.2674 10.2262-44.2219 0-17.3174-3.4117-32.061-10.2262-44.2219-6.8233-12.1611-15.8491-21.4632-27.0861-27.9152-11.2458-6.4432-24.0455-9.6735-38.4175-9.6735s-27.2764 3.2303-38.6942 9.6735c-11.4273 6.452-20.5482 15.7541-27.3627 27.9152-6.8233 12.1609-10.2262 26.9046-10.2262 44.2219 0 16.9545 3.4029 31.6981 10.2262 44.2219 6.8145 12.5324 15.9354 22.0246 27.3627 28.4678 11.4178 6.4518 24.1319 9.6735 38.1409 9.6735ZM695.3465 423.7122V13.5537h86.2333v173.0184l-5.5277 87.891 1.6579 88.4439v60.8051h-82.3635Zm175.2298 4.4221c-25.4275 0-47.6336-5.4326-66.6095-16.3067-18.9841-10.8655-33.4424-27.7251-43.3926-50.5788-9.9502-22.8451-14.9246-51.5894-14.9246-86.2328 0-35.0062 5.2511-63.7504 15.7539-86.2328 10.5028-22.4737 25.1508-39.247 43.9453-50.3025 18.7945-11.0555 40.5343-16.5832 65.2276-16.5832 28.3729 0 53.7052 6.3569 76.0064 19.0708 22.2925 12.7137 39.981 30.4975 53.0662 53.3427 13.0764 22.8537 19.6237 49.7497 19.6237 80.705s-6.5473 57.8599-19.6237 80.705c-13.0852 22.8537-30.7737 40.6288-53.0662 53.3427-22.3012 12.7137-47.6336 19.0706-76.0064 19.0706Zm-14.372-70.755c14.372 0 27.1718-3.2217 38.4175-9.6735 11.237-6.4432 20.2628-15.9354 27.0861-28.4678 6.8145-12.5238 10.2262-27.2674 10.2262-44.2219 0-17.3174-3.4117-32.061-10.2262-44.2219-6.8233-12.1611-15.8491-21.4632-27.0861-27.9152-11.2458-6.4432-24.0455-9.6735-38.4175-9.6735s-27.2764 3.2303-38.6942 9.6735c-11.4273 6.452-20.5482 15.7541-27.3627 27.9152-6.8233 12.1609-10.2262 26.9046-10.2262 44.2219 0 16.9545 3.4029 31.6981 10.2262 44.2219 6.8145 12.5324 15.9354 22.0246 27.3627 28.4678 11.4178 6.4518 24.3215 9.6735 38.6942 9.6735Z"/><path fill="currentColor" d="m1292.2524 774.8176 26.2087-25.8841v-78.7071l-78.7072-78.6261h-262.1676l-78.7069 78.6261v-52.4175l-26.2087-26.2086h-104.9157l-26.2087 26.2086v52.4175l-52.4172 52.4984-52.4172-52.4984v-52.4175l-26.29-26.2086h-104.9157l-26.2087 26.2086-26.2085-26.2086h-104.9159l-26.2085 26.2086v104.9159l-131.1244-131.1245h-104.9157l-26.2087 26.2086v367.0835l26.2087 26.2086h104.9157l26.2897-26.2086v-104.8346l131.0432 131.0432h104.9159l26.2085-26.2086v-209.7503l131.1244 131.1244v78.6259l26.29 26.2086h104.8345l26.2087-26.2086v-78.6259l131.1244-131.1244v157.333l78.7069 78.6259h262.1676l78.7072-78.6259v-78.6259l-26.2087-26.2898h-131.2054v26.2898h-104.8347v-104.9158h104.8347v25.8841h131.2054ZM1320.9434 609.1081c2.4896 0 4.5776-.2409 4.5776-3.0518 0-2.4094-2.3289-2.6503-4.2565-2.6503h-3.9352v5.7825h3.6141v-.0803Zm-3.6141 11.1634h-3.2124v-19.5961h7.4689c4.7384 0 7.1476 1.6866 7.1476 5.6218 0 3.614-2.1683 4.9793-5.1398 5.3809l5.5415 8.6737h-3.6141l-5.0597-8.4327h-2.9715v8.4327l-.1605-.0803Zm3.4534-24.8164c-7.7099 0-13.6529 6.0234-13.6529 14.6971 0 8.1115 5.2202 14.6971 13.6529 14.6971 7.6297 0 13.5727-5.9431 13.5727-14.6971s-5.943-14.6971-13.5727-14.6971Zm0 32.446c-10.1995 0-17.4275-7.6296-17.4275-17.7489 0-10.6815 8.0312-17.7489 17.4275-17.7489s17.3474 7.0674 17.3474 17.7489c0 10.6012-8.0312 17.7489-17.3474 17.7489Z"/><path d="m1178.5289,430.4811c-26.0991,0-51.1609-3.1205-75.1766-9.3616-24.0246-6.2411-43.0315-14.0868-57.0208-23.5459l29.5033-63.5455c13.9892,8.7056,30.5405,15.7977,49.6449,21.2764,19.0956,5.4875,37.9163,8.2269,56.4534,8.2269,20.4253,0,34.8933-2.4557,43.4039-7.3758,8.5106-4.9113,12.7658-11.7198,12.7658-20.4253,0-7.1808-3.3156-12.5708-9.929-16.1701-6.6223-3.5904-15.4165-6.3297-26.3827-8.2269-10.9751-1.8883-22.9785-3.7766-36.028-5.6737-13.0495-1.8883-26.1966-4.4414-39.4323-7.6595-13.2446-3.2092-25.3455-8.0318-36.3117-14.468-10.9751-6.4272-19.7693-15.124-26.3827-26.0991-6.6223-10.9662-9.929-25.1505-9.929-42.5528,0-19.2906,5.5762-36.3117,16.7374-51.0634,11.1524-14.7516,27.3224-26.3827,48.5102-34.8933,21.1789-8.5106,46.5244-12.7658,76.0277-12.7658,20.7977,0,41.9854,2.2695,63.5455,6.8084,21.5601,4.539,39.5209,11.1612,53.9002,19.858l-29.5033,62.9782c-14.7516-8.6967-29.6008-14.6541-44.5386-17.8722-14.9467-3.2092-29.4146-4.8227-43.4039-4.8227-19.6718,0-34.0422,2.6507-43.1202,7.9432-9.0779,5.3014-13.6169,12.1098-13.6169,20.4253,0,7.5709,3.3067,13.2446,9.929,17.0211,6.6134,3.7854,15.4077,6.8084,26.3827,9.0779,10.9662,2.2695,22.9785,4.2553,36.028,5.9574s26.1877,4.2553,39.4323,7.6595c13.2357,3.4042,25.248,8.2269,36.028,14.468,10.78,6.2411,19.5743,14.7516,26.3827,25.5317,6.8084,10.78,10.2127,24.8757,10.2127,42.2691,0,18.9183-5.6737,35.6557-17.0211,50.2123-11.3474,14.5655-27.7125,26.0104-49.0776,34.3259-21.3739,8.3155-47.3755,12.4822-78.0135,12.4822Z"/></svg>