<svg width="70" height="10" viewBox="0 0 70 10" fill="none" xmlns="http://www.w3.org/2000/svg"><g clip-path="url(#clip0_1592_1938)"><mask id="mask0_1592_1938" style="mask-type:luminance" maskUnits="userSpaceOnUse" x="0" y="0" width="70" height="10"><path d="M69.69 0H0V9.8555H69.69V0Z" fill="#fff"/></mask><g mask="url(#mask0_1592_1938)" fill="#080707"><path d="M29.172 1.05917C29.1964 1.00956 29.2288.969872 29.2694.937622 29.31.905377 29.356.878089 29.4102.860723 29.4643.84336 29.5184.833435 29.5752.833435 29.6321.833435 29.6862.840877 29.7403.860723 29.7944.878089 29.8404.905377 29.881.937622 29.9216.972352 29.9514 1.01204 29.9784 1.05917 30.0028 1.10879 30.0136 1.16088 30.0136 1.21793 30.0136 1.27499 30.0001 1.33204 29.9784 1.37917 29.9568 1.42631 29.9216 1.46848 29.881 1.50072 29.8404 1.53545 29.7944 1.56026 29.7403 1.57762 29.6862 1.59499 29.6321 1.60491 29.5752 1.60491 29.5184 1.60491 29.4643 1.59747 29.4102 1.57762 29.356 1.56026 29.31 1.53545 29.2694 1.50072 29.2288 1.46599 29.1991 1.42631 29.172 1.37917 29.1449 1.33204 29.1368 1.27747 29.1368 1.21793 29.1368 1.1584 29.1503 1.10631 29.172 1.05917ZM29.2776 1.34196C29.2938 1.37917 29.3182 1.4139 29.3452 1.43871 29.3723 1.46599 29.4074 1.48832 29.448 1.50072 29.4886 1.51313 29.5292 1.52305 29.5725 1.52305 29.6158 1.52305 29.6564 1.51561 29.697 1.50072 29.7376 1.48584 29.7673 1.46351 29.7998 1.43871 29.8269 1.41142 29.854 1.37917 29.8675 1.34196 29.881 1.30476 29.8918 1.26506 29.8918 1.22041 29.8918 1.17576 29.8837 1.13607 29.8675 1.09886 29.8513 1.06165 29.8269 1.02941 29.7998 1.00212 29.7728.974831 29.7376.952506 29.697.940102 29.6564.927702 29.6158.917777 29.5725.917777 29.5292.917777 29.4859.925218 29.448.940102 29.4102.954985 29.3777.977314 29.3452 1.00212 29.3182 1.02693 29.2911 1.06165 29.2776 1.09886 29.2613 1.13607 29.2532 1.17576 29.2532 1.22041 29.2532 1.26506 29.2613 1.30476 29.2776 1.34196ZM29.5806.999639C29.6402.999639 29.6862 1.00708 29.7159 1.02693 29.7457 1.04677 29.7647 1.0815 29.7647 1.12615 29.7647 1.14599 29.7619 1.16336 29.7565 1.17824 29.7511 1.19313 29.7403 1.20305 29.7295 1.21297 29.7159 1.22041 29.7051 1.23034 29.6889 1.23282 29.6727 1.23778 29.6591 1.24026 29.6402 1.24026L29.7673 1.43126H29.6673L29.5536 1.24522H29.494V1.43126H29.402V1.00212H29.5833L29.5806.999639ZM29.5806 1.17824C29.6077 1.17824 29.6293 1.17576 29.6483 1.16584 29.6673 1.15592 29.6727 1.14351 29.6727 1.11375 29.6727 1.10134 29.6727 1.0939 29.6645 1.08646 29.6564 1.07902 29.651 1.07406 29.6429 1.0691 29.6348 1.06661 29.6239 1.06414 29.6131 1.06165 29.6023 1.05917 29.5915 1.06165 29.5779 1.06165H29.4968V1.17576H29.5806V1.17824ZM28.279 9.84808H21.7113C21.7113 9.84808 21.6869 9.82329 21.6707 9.80837 21.1268 9.30979 20.5828 8.80871 20.0362 8.31504 20.0064 8.28779 19.9929 8.258 19.9929 8.21833V4.85458L19.9658 4.83725C19.9577 4.85458 19.9496 4.87691 19.9388 4.88933 18.9294 5.81458 17.92 6.74233 16.9079 7.66762 16.8808 7.69241 16.8673 7.71971 16.8673 7.75692V9.37179C16.8673 9.409 16.8538 9.43383 16.8267 9.46112L16.3991 9.85304H13.5766C13.5766 9.85304 13.555 9.82575 13.5415 9.81333 13.417 9.69925 13.2925 9.58267 13.1653 9.46854 13.1301 9.43629 13.1166 9.40654 13.1166 9.36437V7.76187C13.1166 7.72466 13.1085 7.69987 13.0787 7.67258 12.0666 6.74483 11.0545 5.81708 10.0397 4.88933 10.0262 4.87691 10.0127 4.867 9.99105 4.84962V9.36683C9.99105 9.40654 9.9775 9.43629 9.94773 9.46358 9.80432 9.59258 9.66627 9.72158 9.52559 9.85304H6.70309C6.63273 9.78358 6.56236 9.71662 6.48932 9.65212L3.7967 7.18391C3.78046 7.169 3.76693 7.15908 3.73987 7.13925V9.37179C3.73987 9.4115 3.72634 9.44125 3.69657 9.46854 3.56939 9.58267 3.4422 9.69925 3.31771 9.81583 3.30418 9.82825 3.29606 9.84312 3.28254 9.85554H.468159C.324735 9.72158.178605 9.59008.0378858 9.45612.0189429 9.43629.00270613 9.40404.00270613 9.37925 0 6.73492 0 4.09552 0 1.45615 0 1.42142.0135306 1.39661.040592 1.37429.221903 1.20561.403213 1.04189.584523.873202.614291.845915.644059.835994.687355.835994H3.05793C3.10393.835994 3.1364.848394 3.16888.878165L6.18623 3.64405C6.20245 3.65894 6.21055 3.68126 6.22409 3.69863L6.24573 3.68374V1.45863C6.24573 1.41894 6.25927 1.39413 6.28632 1.36436 6.47036 1.19816 6.65168 1.02948 6.83568.863277 6.85732.845915 6.8925.831031 6.91959.831031H9.31718C9.34427.831031 9.38214.845915 9.40109.863277 9.58509 1.02948 9.76373 1.1932 9.94773 1.36188 9.96395 1.37677 9.9775 1.38669 9.99373 1.40157L10.5837.860798C10.6026.843436 10.6378.828552 10.6649.828552H13.0679C13.095.828552 13.1329.843436 13.1518.863277 13.3385 1.03196 13.5225 1.19816 13.7038 1.36933 13.7228 1.38917 13.739 1.42142 13.739 1.44622V2.49304C13.739 2.53026 13.7525 2.55506 13.7796 2.58235 14.172 2.93708 14.5617 3.29676 14.9514 3.65646 14.9649 3.66886 14.9757 3.67878 15.0001 3.69863 15.0136 3.68126 15.0217 3.66141 15.038 3.64901 15.4222 3.29676 15.8092 2.93956 16.1962 2.58731 16.226 2.56002 16.2395 2.52777 16.2395 2.48809V1.45366C16.2395 1.42638 16.2557 1.39165 16.2774 1.37181 16.4614 1.20064 16.6481 1.02948 16.8321.863277 16.851.845915 16.8808.835994 16.9079.835994H19.3164C19.3434.835994 19.3759.850877 19.3975.86824 19.5843 1.03692 19.7683 1.20312 19.9496 1.37181 19.9766 1.39661 19.9902 1.4239 19.9875 1.46111V2.54762C20.0145 2.52529 20.0308 2.51041 20.047 2.49553 20.637 1.95475 21.2296 1.41398 21.8195.870719 21.8493.843436 21.879.833511 21.9224.833511H28.0517C28.095.833511 28.1221.845915 28.1545.873202 28.7229 1.39413 29.2911 1.91754 29.8621 2.43847V4.39321C29.8621 4.39321 29.8324 4.41304 29.8188 4.42546 29.6835 4.547 29.5428 4.6735 29.4102 4.79754 29.3831 4.82483 29.3507 4.83725 29.3074 4.83725H26.2359V4.27662H23.7436V6.55879H26.2413V5.99071H29.3182C29.3453 5.99071 29.3777 6.00558 29.3994 6.02296 29.559 6.16187 29.7106 6.30825 29.8649 6.44962V8.40437C29.8649 8.40437 29.8378 8.42421 29.8242 8.43166 29.3182 8.89304 28.8149 9.35691 28.3088 9.81833 28.2953 9.83071 28.2872 9.84062 28.2736 9.85554H28.279V9.84808ZM36.2695 3.41089 38.2991 6.467H39.0189L41.0566 3.32903 41.0674 7.13679H42.5721L42.5504.788879H41.2352L38.6833 4.73308 36.0909.788879H34.7649V7.13679H36.2695V3.41089ZM51.4887 6.82423C52.0596 7.10456 52.6982 7.24594 53.4018 7.24594 54.0028 7.24594 54.5468 7.14919 55.0337 6.95573 55.5209 6.76223 55.9296 6.48189 56.2596 6.11231L55.2314 5.2416C54.7632 5.74269 54.1814 5.99323 53.4914 5.99323 53.0637 5.99323 52.6796 5.90639 52.3441 5.73523 52.0082 5.5616 51.7459 5.32348 51.5564 5.01339 51.3696 4.70581 51.275 4.35356 51.275 3.96161 51.275 3.56967 51.3696 3.21742 51.5564 2.90982 51.7459 2.60223 52.0055 2.36161 52.3441 2.18797 52.6796 2.0168 53.0637 1.92998 53.4914 1.92998 54.1841 1.92998 54.7632 2.17804 55.2314 2.67417L56.2596 1.80347C55.9296 1.4413 55.5237 1.16347 55.0391.969982 54.555.77649 54.0109.679749 53.4128.679749 52.7009.679749 52.0596.821144 51.4887 1.10145 50.9178 1.38176 50.4687 1.77122 50.1437 2.2723 49.8164 2.77091 49.6541 3.33401 49.6541 3.96409 49.6541 4.59414 49.8164 5.15727 50.1437 5.65585 50.4714 6.15448 50.9178 6.54394 51.4887 6.82673V6.82423ZM57.2309 2.25739V7.13675H58.7764V2.25739H57.9859 57.2309ZM58.005 1.57768C58.2891 1.57768 58.5191 1.50078 58.6977 1.34698 58.8764 1.19318 58.9659.997208 58.9659.76155 58.9659.543254 58.8764.36217 58.6977.218295 58.5191.0744188 58.2891 0 58.005 0 57.7209 0 57.4909.0768992 57.3123.225736 57.1336.377054 57.0446.5631 57.0446.788838 57.0446 1.01458 57.1336 1.20062 57.3123 1.35194 57.4909 1.50325 57.7209 1.57768 58.005 1.57768ZM60.3972 5.45983C60.3972 6.03533 60.5704 6.46946 60.9168 6.76463 61.2632 7.05983 61.7532 7.20867 62.3863 7.20867 62.63 7.20867 62.8627 7.18388 63.0845 7.13175 63.3063 7.07967 63.4904 7.00279 63.6445 6.90108L63.2304 5.90388C63.06 6.02542 62.8518 6.08496 62.6082 6.08496 62.3973 6.08496 62.2345 6.03038 62.1182 5.91625 62.0018 5.80463 61.945 5.64588 61.945 5.44V3.45549H63.2713V2.3665H61.945V1.17828H60.4027V2.3665H59.5827V3.45549H60.4027V5.45983H60.3972Z"/><path d="M68.2127 2.25739L66.7082 5.56654L65.2141 2.25739H63.6205L65.9259 7.1715L65.9068 7.21613C65.8855 7.26329 65.8609 7.30546 65.8368 7.34513C65.8286 7.36 65.8177 7.37492 65.8096 7.38979C65.8068 7.39475 65.8014 7.40221 65.7986 7.40717C65.6473 7.65521 65.3386 8.11909 65.3386 8.11909C65.1005 8.48871 64.665 8.71442 64.1968 8.71442H46.3768L46.8396 7.72467C46.8882 7.63288 46.9341 7.53863 46.9805 7.43442L49.3832 2.25739H47.9005L46.3959 5.56654L44.902 2.25739H43.3081L45.6136 7.1715L45.595 7.21613C45.5841 7.236 45.5759 7.25334 45.565 7.27071L45.5382 7.31538L45.4081 7.51879L45.0238 8.11663C44.7856 8.48621 44.35 8.71196 43.8818 8.71196H34.7621L34.1046 9.8555H65.0327V9.84559C65.7446 9.7935 66.3723 9.38917 66.6564 8.78142L67.1814 7.65771C67.2168 7.58575 67.2518 7.51134 67.2873 7.43442L69.69 2.25739H68.2073H68.2127Z"/></g></g><defs><clipPath id="clip0_1592_1938"><path fill="#fff" d="M0 0H70V10H0z"/></clipPath></defs></svg>