<svg width="324" height="102" viewBox="0 0 324 102" stroke="transparent" stroke-width="0" fill="none" xmlns="http://www.w3.org/2000/svg"><g clip-path="url(#clip0_7894_29112)"><path d="M224.13 67.8V98.77L174.8 79.63L125.48 98.77V67.8" stroke-width="6" stroke-linejoin="bevel" fill="transparent"/><path d="M89.58.279999 71.6 51.74H57.94L45.85 16.89 33.37 51.74H19.79L1.72998.279999H14.92L27.32 36.45 40.27.279999H52.05L64.61 36.74 77.41.279999H89.58ZM122.95 31.52 115.57 38.72V51.73H102.93V.279999H115.57V24.32L139.9.279999H154.03L131.26 23.22 155.36 51.74H140.52L122.93 31.52H122.95Z" stroke="none"/><path d="M320.38 22.74 323.61 19.55V9.85L313.92.160004H281.6L271.9 9.85V3.39L268.67.160004H255.75L252.52 3.39V9.85L246.05 16.32 239.59 9.85V3.39L236.35.160004H223.43L220.2 3.39 216.97.160004H204.04L200.81 3.39V16.32L184.64.160004H171.72L168.49 3.39V48.63L171.72 51.86H184.64L187.88 48.63V35.71L204.04 51.86H216.97L220.2 48.63V22.78L236.35 38.94V48.63L239.59 51.86H252.52L255.75 48.63V38.94L271.9 22.78V42.17L281.6 51.86H313.92L323.61 42.17V32.48L320.38 29.24H304.22V32.48H291.3V19.55H304.22V22.74H320.38ZM321.31 2.34001C321.62 2.34001 321.88 2.31001 321.88 1.96001 321.88 1.66001 321.59 1.63001 321.35 1.63001H320.86V2.35001H321.31V2.34001ZM320.86 3.73001H320.46V1.28001H321.39C321.98 1.28001 322.28 1.49001 322.28 1.98001 322.28 2.43001 322.01 2.60001 321.64 2.65001L322.33 3.73001H321.88L321.25 2.68001H320.88V3.73001H320.86ZM321.29.64001C320.33.64001 319.59 1.39001 319.59 2.47001 319.59 3.48001 320.24 4.30001 321.29 4.30001 322.24 4.30001 322.98 3.56001 322.98 2.47001 322.98 1.38001 322.24.64001 321.29.64001ZM321.29 4.68001C320.02 4.68001 319.12 3.73001 319.12 2.47001 319.12 1.14001 320.12.26001 321.29.26001 322.46.26001 323.45 1.14001 323.45 2.47001 323.45 3.79001 322.45 4.68001 321.29 4.68001Z" fill="currentColor" stroke="none"/></g><defs><clipPath id="clip0_7894_29112"><path fill="#fff" d="M0 0H323.61V101.57H0z"/></clipPath></defs></svg>