<svg viewBox="0 0 409 159" fill="none" xmlns="http://www.w3.org/2000/svg"><path d="M214.44 31.88l4.56-4.5V13.69L205.31 0h-45.62L146 13.69V4.56L141.44 0h-18.25l-4.56 4.56v9.13l-9.13 9.12-9.12-9.12V4.56L95.81 0H77.56L73 4.56 68.44 0H50.19l-4.56 4.56v18.25L22.81 0H4.56L0 4.56v63.88L4.56 73h18.25l4.57-4.56V50.19L50.19 73h18.25L73 68.44v-36.5l22.81 22.81v13.69l4.57 4.56h18.25l4.56-4.56V54.75L146 31.94v27.37L159.69 73h45.62L219 59.31V45.63l-4.56-4.57h-22.81v4.57h-18.25V27.38h18.25v4.5h22.81zM215.75 3.08c.43 0 .8 0 .8-.54s-.41-.47-.75-.47h-.68v1l.63.01zm-.63 2h-.57V1.59h1.31c.83 0 1.26.29 1.26 1a.882.882 0 01-.9.94l1 1.52h-.65l-.89-1.48h-.53l-.03 1.51zm.61-4.36a2.423 2.423 0 00-2.262 1.602c-.112.31-.158.64-.138.968a2.4 2.4 0 104.79 0 2.421 2.421 0 00-2.39-2.61v.04zm0 5.65a2.999 2.999 0 01-3.07-3.12 3.072 3.072 0 014.28-2.994 3.07 3.07 0 011.85 2.994 3.011 3.011 0 01-.856 2.221 2.994 2.994 0 01-2.204.899M8.66 84.33c5.53 0 8.64 4 8.64 9.14 0 5.14-3.11 9.13-8.64 9.13-5.53 0-8.66-4.05-8.66-9.13 0-5.08 3.13-9.14 8.66-9.14zm0 14.34c2.95 0 4.08-2.6 4.08-5.2s-1.13-5.21-4.08-5.21-4.08 2.6-4.08 5.21 1.13 5.2 4.08 5.2zM20.37 92.19h-2v-2.7h2c0-3.66 1.28-4.79 4.84-4.79.66 0 1.35 0 2 .07v3a8.967 8.967 0 00-1.13-.07c-1 0-1.55.12-1.55 1.27v.57h2.5v2.7h-2.5v10h-4.16V92.19zM29.59 92.19h-2v-2.7h2c0-3.66 1.28-4.79 4.84-4.79.66 0 1.35 0 2 .07v3a8.785 8.785 0 00-1.13-.07c-1 0-1.54.12-1.54 1.27v.57h2.5v2.7h-2.5v10h-4.17V92.19zm12.06-4.3h-4.17V84.7h4.17v3.19zm-4.17 1.6h4.17v12.74h-4.17V89.49zM52.75 94.15a2 2 0 00-2-1.84c-2.33 0-2.7 2-2.7 3.76 0 1.76.71 3.34 2.48 3.34a2.231 2.231 0 002.38-2.19h4.06c-.37 3.42-3 5.38-6.41 5.38a6.338 6.338 0 01-6.68-6.53c0-4 2.57-6.95 6.68-6.95 3.16 0 6 1.67 6.28 5l-4.09.03zM62.43 96.88a2.719 2.719 0 002.84 2.9 2.51 2.51 0 002.39-1.4h3.9c-.76 3-3.49 4.22-6.33 4.22-4.15 0-7-2.5-7-6.78a6.689 6.689 0 016.88-6.7c4.56 0 6.85 3.44 6.65 7.76h-9.33zm5.18-2.33a2.59 2.59 0 00-2.48-2.61 2.75 2.75 0 00-2.7 2.61h5.18zM87.4 89.12a6.739 6.739 0 014.824 11.488 6.737 6.737 0 01-7.347 1.485A6.735 6.735 0 0180.7 95.87a6.54 6.54 0 016.7-6.75zm0 10.29c1.94 0 2.56-1.92 2.56-3.54s-.62-3.56-2.56-3.56-2.53 1.94-2.53 3.56.59 3.54 2.53 3.54zM97.08 92.19h-2v-2.7h2c0-3.66 1.27-4.79 4.84-4.79.66 0 1.35 0 2 .07v3a8.784 8.784 0 00-1.13-.07c-1 0-1.55.12-1.55 1.27v.57h2.51v2.7h-2.51v10h-4.16V92.19zM130.11 102.23h-4.57l-2.41-12.08-2.4 12.08H116l-4.7-17.53h4.56l2.48 12.82L121 84.7h4.3l2.58 12.82h.05l2.48-12.82H135l-4.89 17.53zM141.06 89.12a6.737 6.737 0 016.254 4.13 6.734 6.734 0 01-1.43 7.358 6.737 6.737 0 01-7.347 1.485 6.737 6.737 0 01-4.177-6.223 6.535 6.535 0 014.098-6.28 6.54 6.54 0 012.602-.47zm0 10.29c1.94 0 2.55-1.92 2.55-3.54s-.61-3.56-2.55-3.56-2.53 1.94-2.53 3.56.59 3.54 2.53 3.54zM149.73 89.49h4.05v2.23h.05a3.836 3.836 0 013.83-2.48c.336-.003.671.03 1 .1v3.81a5.745 5.745 0 00-1.59-.25 2.942 2.942 0 00-3.15 3v6.31h-4.17l-.02-12.72zM159.9 84.7h4.17v9l3.81-4.25h4.84l-4.67 4.81 5.25 7.93h-5l-3.12-5.13-1.08 1.06v4.07h-4.2V84.7zM175.47 92.19h-2v-2.7h2c0-3.66 1.27-4.79 4.83-4.79.67 0 1.35 0 2 .07v3a8.893 8.893 0 00-1.13-.07c-1 0-1.55.12-1.55 1.27v.57h2.51v2.7h-2.51v10h-4.17l.02-10.05zM189.59 89.12a6.74 6.74 0 11-6.71 6.75 6.547 6.547 0 011.898-4.823 6.55 6.55 0 014.812-1.927zm0 10.29c1.94 0 2.55-1.92 2.55-3.54s-.61-3.56-2.55-3.56-2.53 1.94-2.53 3.56.59 3.54 2.53 3.54zM198.5 89.49h4.05v2.23a3.852 3.852 0 013.83-2.48c.336-.003.671.03 1 .1v3.81a5.741 5.741 0 00-1.59-.25 2.939 2.939 0 00-3.15 3v6.31h-4.14V89.49zM216.72 94.15a1.999 1.999 0 00-2-1.84c-2.33 0-2.7 2-2.7 3.76 0 1.76.72 3.34 2.48 3.34a2.241 2.241 0 002.39-2.19h4.05c-.37 3.42-3 5.38-6.41 5.38a6.351 6.351 0 01-6.68-6.53c0-4 2.58-6.95 6.68-6.95 3.17 0 6 1.67 6.28 5l-4.09.03zM226.4 96.88a2.724 2.724 0 001.725 2.717c.358.14.741.202 1.125.183a2.5 2.5 0 002.38-1.4h3.9c-.76 3-3.48 4.22-6.33 4.22-4.15 0-7-2.5-7-6.78a6.674 6.674 0 012.023-4.806 6.686 6.686 0 014.857-1.894c4.57 0 6.85 3.44 6.66 7.76h-9.34zm5.18-2.33a2.578 2.578 0 00-2.48-2.61 2.75 2.75 0 00-2.7 2.61h5.18zM245.45 84.7H253c5.38 0 8.6 3.27 8.6 8.69 0 5.75-3.27 8.84-8.6 8.84h-7.54l-.01-17.53zM250 98.31h2.16c3.47-.08 4.84-1.43 4.84-4.94 0-3.19-1.72-4.74-4.84-4.74H250v9.68zM267.34 96.88a2.729 2.729 0 00.771 2.086 2.722 2.722 0 002.069.814 2.511 2.511 0 002.39-1.4h3.9c-.76 3-3.49 4.22-6.33 4.22-4.16 0-7-2.5-7-6.78a6.674 6.674 0 012.023-4.806 6.686 6.686 0 014.857-1.894c4.56 0 6.85 3.44 6.65 7.76h-9.33zm5.18-2.33a2.59 2.59 0 00-2.52-2.61 2.75 2.75 0 00-2.7 2.61h5.22zM286.22 102.23h-4.81l-4.25-12.74h4.35l2.33 8.42h.05l2.36-8.42h4.24l-4.27 12.74zM295.23 96.88a2.734 2.734 0 00.777 2.087 2.733 2.733 0 002.073.813 2.49 2.49 0 002.38-1.4h3.91c-.76 3-3.49 4.22-6.34 4.22-4.15 0-7-2.5-7-6.78a6.68 6.68 0 012.019-4.802 6.697 6.697 0 014.851-1.898c4.57 0 6.86 3.44 6.66 7.76h-9.33zm5.18-2.33a2.582 2.582 0 00-2.48-2.61 2.759 2.759 0 00-2.7 2.61h5.18zM306.68 84.7h4.17v17.53h-4.17V84.7zM319.74 89.12a6.739 6.739 0 11-6.7 6.75 6.541 6.541 0 011.892-4.823 6.524 6.524 0 014.808-1.927zm0 10.29c1.94 0 2.56-1.92 2.56-3.54s-.62-3.56-2.56-3.56-2.53 1.94-2.53 3.56.59 3.54 2.53 3.54zM328.51 89.49h4V91h.05a4.074 4.074 0 013.51-1.84c4 0 5.7 3.44 5.7 7 0 3.32-1.77 6.46-5.38 6.46a4.288 4.288 0 01-3.64-1.74h-.05v5.65h-4.17l-.02-17.04zm4 6.24c0 2.23.64 3.68 2.53 3.68 1.89 0 2.5-1.94 2.5-3.68 0-1.74-.64-3.42-2.48-3.42-1.06 0-2.52.79-2.52 3.42h-.03zM343.83 89.49h4.06v1.74a4.275 4.275 0 013.66-2.11 3.69 3.69 0 013.71 2.06 4.68 4.68 0 014-2.06c4.05 0 4.49 3.07 4.49 5.5v7.61h-4.15v-7.49c0-1.37-.66-2.18-1.74-2.18-1.8 0-2 1.37-2 3.44v6.23h-4.17V95c0-1.5-.45-2.43-1.58-2.43-1.49 0-2.13.86-2.13 3.46v6.21h-4.18l.03-12.75zM370 96.88a2.724 2.724 0 001.725 2.717c.358.14.741.202 1.125.183a2.5 2.5 0 002.38-1.4h3.9c-.76 3-3.48 4.22-6.33 4.22-4.15 0-7-2.5-7-6.78a6.692 6.692 0 016.88-6.7c4.57 0 6.85 3.44 6.65 7.76H370zm5.18-2.33a2.582 2.582 0 00-2.48-2.61 2.75 2.75 0 00-2.7 2.61h5.18zM381.28 89.49h4.06v1.74a4.843 4.843 0 014-2.11c4.25 0 4.59 3.09 4.59 4.94v8.17h-4.17v-6.16c0-1.74.19-3.51-2.09-3.51-1.57 0-2.26 1.32-2.26 2.72v7h-4.18l.05-12.79zM404.29 92.19h-2.57V98c0 1 .59 1.22 1.49 1.22h1.08v3.07c-.76 0-1.52.13-2.28.13-3.56 0-4.47-1-4.47-4.5v-5.73h-2.11v-2.7h2.11v-3.86h4.18v3.86h2.57v2.7zM9 135.73c5.74 0 9 4.21 9 9.49s-3.23 9.49-9 9.49-9-4.21-9-9.49 3.25-9.49 9-9.49zm0 14.9c3.06 0 4.23-2.71 4.23-5.41s-1.17-5.41-4.23-5.41c-3.06 0-4.23 2.71-4.23 5.41s1.16 5.41 4.23 5.41zM21.15 143.89h-2.09v-2.8h2.09c0-3.8 1.33-5 5-5 .69 0 1.4 0 2.09.07v3.06a9.533 9.533 0 00-1.17-.07c-1 0-1.61.12-1.61 1.32v.59h2.6v2.8h-2.6v10.43h-4.31v-10.4zM30.44 143.89h-2.09v-2.8h2.09c0-3.8 1.32-5 5-5 .69 0 1.4 0 2.09.07v3.06a9.533 9.533 0 00-1.17-.07c-1 0-1.61.12-1.61 1.32v.59h2.6v2.8h-2.6v10.43h-4.31v-10.4zM43 139.43h-4.38v-3.31H43v3.31zm-4.33 1.66H43v13.23h-4.38l.05-13.23zM54.48 145.93a2 2 0 00-2.11-1.93c-2.43 0-2.81 2.07-2.81 3.9s.74 3.47 2.58 3.47a2.331 2.331 0 001.72-.607 2.32 2.32 0 00.75-1.663h4.21c-.39 3.55-3.14 5.59-6.66 5.59a6.58 6.58 0 01-6.93-6.79c0-4.21 2.67-7.21 6.93-7.21 3.29 0 6.22 1.73 6.53 5.22l-4.21.02zM64.53 148.76a2.834 2.834 0 00.823 2.176 2.827 2.827 0 002.177.824 2.576 2.576 0 002.47-1.44h4c-.79 3.06-3.62 4.39-6.57 4.39-4.31 0-7.25-2.61-7.25-7a6.935 6.935 0 012.081-5.019 6.94 6.94 0 015.059-1.981c4.75 0 7.12 3.57 6.91 8l-9.7.05zm5.38-2.42a2.68 2.68 0 00-2.58-2.7 2.852 2.852 0 00-2.8 2.7h5.38zM85.08 143.89H83v-2.8h2.09c0-3.8 1.33-5 5-5 .69 0 1.41 0 2.1.07v3.06a9.695 9.695 0 00-1.18-.07c-1 0-1.6.12-1.6 1.32v.59H92v2.8h-2.6v10.43h-4.32v-10.4zM99.49 140.71a7.002 7.002 0 016.866 8.366 6.997 6.997 0 01-9.545 5.101 7.002 7.002 0 01-4.321-6.467 6.783 6.783 0 014.285-6.53 6.772 6.772 0 012.715-.47zm0 10.68c2 0 2.65-2 2.65-3.67s-.64-3.7-2.65-3.7-2.63 2-2.63 3.7c0 1.7.61 3.67 2.63 3.67zM108.49 141.09h4.21v2.32a4 4 0 014-2.58c.336-.001.672.036 1 .11v3.95a6.311 6.311 0 00-1.66-.26 3.057 3.057 0 00-2.334.842 3.05 3.05 0 00-.936 2.298v6.55h-4.33l.05-13.23zM127.1 136.12h14.51v3.8h-9.76v3.18h8.92v3.68h-8.92v3.46h10v4.08H127.1v-18.2zM152.6 145.93a2.003 2.003 0 00-1.331-1.799 2.005 2.005 0 00-.779-.111c-2.43 0-2.81 2.07-2.81 3.9s.74 3.47 2.58 3.47a2.328 2.328 0 001.72-.607 2.317 2.317 0 00.75-1.663h4.21c-.38 3.55-3.14 5.59-6.66 5.59a6.596 6.596 0 01-6.93-6.79c0-4.21 2.68-7.21 6.93-7.21 3.29 0 6.22 1.73 6.53 5.22h-4.21zM165.28 140.71a7 7 0 11-7 7 6.776 6.776 0 011.982-5.018 6.783 6.783 0 015.018-1.982zm0 10.68c2 0 2.65-2 2.65-3.67s-.64-3.7-2.65-3.7-2.63 2-2.63 3.7c0 1.7.61 3.67 2.63 3.67zM174.13 141.09h4.2v1.81a4.995 4.995 0 014.16-2.19c4.41 0 4.77 3.21 4.77 5.12v8.49H183v-6.4c0-1.81.21-3.64-2.16-3.64-1.64 0-2.35 1.37-2.35 2.83v7.21h-4.33l-.03-13.23zM196.11 140.71a7.002 7.002 0 016.866 8.366 6.997 6.997 0 01-9.545 5.101 7 7 0 01-4.321-6.467 6.783 6.783 0 017-7zm0 10.68c2 0 2.65-2 2.65-3.67s-.64-3.7-2.65-3.7-2.63 2-2.63 3.7c0 1.7.61 3.67 2.63 3.67zM205.21 141.09h4.21v1.81h.05a4.396 4.396 0 013.8-2.19 3.828 3.828 0 013.85 2.14 4.836 4.836 0 014.13-2.14c4.2 0 4.66 3.18 4.66 5.71v7.9h-4.33v-7.77c0-1.43-.69-2.27-1.81-2.27-1.86 0-2 1.42-2 3.57v6.47h-4.34v-7.52c0-1.55-.45-2.52-1.63-2.52-1.55 0-2.22.89-2.22 3.59v6.45h-4.33l-.04-13.23zM233.16 139.43h-4.34v-3.31h4.34v3.31zm-4.34 1.66h4.34v13.23h-4.34v-13.23zM244.68 145.93a1.985 1.985 0 00-.656-1.396 1.992 1.992 0 00-1.454-.514c-2.43 0-2.81 2.07-2.81 3.9s.74 3.47 2.58 3.47a2.328 2.328 0 001.72-.607 2.32 2.32 0 00.75-1.663H249c-.39 3.55-3.14 5.59-6.66 5.59a6.582 6.582 0 01-6.93-6.79c0-4.21 2.67-7.21 6.93-7.21 3.29 0 6.22 1.73 6.53 5.22h-4.19zM267.38 135.73c5.73 0 9 4.21 9 9.49s-3.24 9.49-9 9.49-9-4.21-9-9.49 3.26-9.49 9-9.49zm0 14.9c3.06 0 4.23-2.71 4.23-5.41s-1.17-5.41-4.23-5.41c-3.06 0-4.24 2.71-4.24 5.41s1.18 5.41 4.24 5.41zM278.6 141.09h4.13v1.53a4.225 4.225 0 013.65-1.91c4.15 0 5.91 3.57 5.91 7.29 0 3.44-1.83 6.71-5.58 6.71a4.446 4.446 0 01-3.78-1.82h-.05v5.87h-4.28v-17.67zm4.18 6.48c0 2.32.66 3.82 2.63 3.82 1.97 0 2.6-2 2.6-3.82 0-1.82-.67-3.55-2.58-3.55-1.17-.02-2.65.82-2.65 3.55zM294.51 141.09h4.13v1.53h.05a4.225 4.225 0 013.65-1.91c4.15 0 5.91 3.57 5.91 7.29 0 3.44-1.83 6.71-5.58 6.71a4.426 4.426 0 01-3.77-1.82h-.06v5.87h-4.33v-17.67zm4.18 6.48c0 2.32.66 3.82 2.63 3.82 1.97 0 2.6-2 2.6-3.82 0-1.82-.66-3.55-2.58-3.55-1.17-.02-2.65.82-2.65 3.55zM316.74 140.71a7.002 7.002 0 016.866 8.366 6.997 6.997 0 01-9.545 5.101 7 7 0 01-4.321-6.467 6.783 6.783 0 017-7zm0 10.68c2 0 2.66-2 2.66-3.67s-.64-3.7-2.66-3.7-2.62 2-2.62 3.7c0 1.7.61 3.67 2.62 3.67zM325.49 141.09h4.21v2.32h.05a4 4 0 014-2.58c.336-.001.672.036 1 .11v3.95a6.184 6.184 0 00-1.66-.26 3.006 3.006 0 00-2.345.828 2.992 2.992 0 00-.915 2.312v6.55h-4.34v-13.23zM344.54 143.89h-2.68v6c0 1.05.61 1.28 1.56 1.28.35 0 .74-.06 1.12-.06v3.19c-.79 0-1.58.13-2.37.13-3.7 0-4.64-1.07-4.64-4.67v-5.89h-2.2v-2.8h2.2v-4h4.33v4h2.68v2.82zM359.48 154.32h-4.21v-1.81a4.885 4.885 0 01-4 2.2c-3.79 0-4.89-2.2-4.89-5.67v-7.95h4.33v7.67c0 1.76.77 2.37 2.15 2.37.94 0 2.37-.61 2.37-2.95v-7.09h4.33l-.08 13.23zM362.24 141.09h4.2v1.81h.05a4.995 4.995 0 014.16-2.19c4.41 0 4.77 3.21 4.77 5.12v8.49h-4.34v-6.4c0-1.81.21-3.64-2.16-3.64-1.63 0-2.35 1.37-2.35 2.83v7.21h-4.33v-13.23zM382.13 139.43h-4.34v-3.31h4.34v3.31zm-4.34 1.66h4.34v13.23h-4.34v-13.23zM393 143.89h-2.67v6c0 1.05.61 1.28 1.55 1.28.36 0 .74-.06 1.12-.06v3.19c-.79 0-1.58.13-2.37.13-3.69 0-4.64-1.07-4.64-4.67v-5.89h-2.19v-2.8h2.2v-4h4.34v4H393v2.82zM402.78 155.5c-1 2.9-2.6 3.26-5.53 3.26h-2v-3.52h1.5a1.542 1.542 0 001.74-1.48 18.841 18.841 0 00-1.1-3.47l-3.42-9.2h4.59l2.5 8.62h.05l2.5-8.62H408l-5.22 14.41zM404.28 118.48H.01v1h404.27v-1z" fill="currentColor"/></svg>