<svg fill="none" id="Layer_1" xmlns="http://www.w3.org/2000/svg" viewBox="0 0 911.87 1072.37"><path d="M99.396 304.7099c-17.2972 0-33.1899-3.2312-47.6782-9.6819-14.4941-6.4508-26.3681-15.7672-35.6219-27.9494l32.8817-39.0926c6.816 9.2594 14.186 16.201 22.1036 20.825 7.9123 4.6297 16.3784 6.9417 25.3923 6.9417 24.1132 0 36.17-14.0032 36.17-42.0155v-121.6623H43.1321v-47.4958h148.6983v165.87c0 31.6658-7.8552 55.2938-23.5651 70.8784-15.7103 15.5904-38.6706 23.3826-68.8693 23.3826ZM323.5343 303.2484c-20.7049 0-39.1554-4.3842-55.3505-13.1526-16.2014-8.7685-28.9258-20.7624-38.1796-35.9872-9.2591-15.2192-13.8831-32.5734-13.8831-52.0627 0-19.729 4.624-37.2032 13.8831-52.4281 9.2538-15.2192 21.9782-27.1559 38.1796-35.8045 16.1951-8.6429 34.6456-12.9701 55.3505-12.9701 20.9453 0 39.5782 4.3272 55.8991 12.9701 16.3151 8.6486 29.1024 20.5853 38.362 35.8045 9.2538 15.2249 13.8836 32.6991 13.8836 52.4281s-4.6298 37.146-13.8836 52.2454c-9.2596 15.105-22.0469 27.0361-38.362 35.8046-16.3209 8.7684-34.9538 13.1526-55.8991 13.1526Zm0-46.7651c9.739 0 18.3247-2.1294 25.7575-6.3937 7.427-4.2586 13.3925-10.5324 17.9024-18.8156 4.504-8.2775 6.7589-18.0222 6.7589-29.2282 0-11.4458-2.2549-21.1905-6.7589-29.2282-4.5098-8.0378-10.4753-14.186-17.9024-18.4504-7.4328-4.2586-15.8927-6.3937-25.3918-6.3937s-18.0281 2.1351-25.5747 6.3937c-7.5528 4.2644-13.5812 10.4126-18.0852 18.4504-4.5098 8.0377-6.7589 17.7824-6.7589 29.2282 0 11.206 2.2491 20.9507 6.7589 29.2282 4.504 8.2832 10.5324 14.557 18.0852 18.8156 7.5465 4.2643 15.9498 6.3937 25.209 6.3937ZM458.7179 300.3256V29.234h56.9953v114.3554l-3.6535 58.091 1.0958 58.4564v40.1888h-54.4376Zm115.817 2.9228c-16.8061 0-31.4831-3.5906-44.0251-10.7778-12.5474-7.1815-22.1036-18.3247-28.6801-33.4297-6.5765-15.0993-9.8643-34.0977-9.8643-56.995 0-23.1371 3.4707-42.1354 10.4125-56.995 6.9418-14.8538 16.6233-25.94 29.0453-33.2471 12.4221-7.307 26.7909-10.9606 43.1118-10.9606 18.7529 0 35.4961 4.2015 50.236 12.6047 14.7341 8.4031 26.4252 20.1572 35.0737 35.2565 8.6428 15.105 12.9702 32.8817 12.9702 53.3415s-4.3274 38.2421-12.9702 53.3415c-8.6486 15.105-20.3397 26.8533-35.0737 35.2565-14.7399 8.4031-31.4831 12.6046-50.236 12.6046Zm-9.4991-46.7651c9.4991 0 17.959-2.1294 25.3918-6.3937 7.427-4.2586 13.3925-10.5324 17.9024-18.8156 4.504-8.2775 6.7589-18.0222 6.7589-29.2282 0-11.4458-2.2549-21.1905-6.7589-29.2282-4.5098-8.0378-10.4753-14.186-17.9024-18.4504-7.4328-4.2586-15.8927-6.3937-25.3918-6.3937s-18.0281 2.1351-25.5747 6.3937c-7.5528 4.2644-13.5812 10.4126-18.0852 18.4504-4.5098 8.0377-6.7589 17.7824-6.7589 29.2282 0 11.206 2.2491 20.9507 6.7589 29.2282 4.504 8.2832 10.5324 14.557 18.0852 18.8156 7.5465 4.2643 16.0752 6.3937 25.5747 6.3937Z"/><path fill="currentColor" d="m853.239 532.3864 17.3225-17.1079v-52.0209l-52.021-51.9674h-173.278l-52.0208 51.9674v-34.645l-17.3225-17.3224h-69.3433l-17.3225 17.3224v34.645l-34.6448 34.6985-34.6448-34.6985v-34.645l-17.3762-17.3224h-69.3433l-17.3225 17.3224-17.3223-17.3224h-69.3435l-17.3223 17.3224v69.3435l-86.6658-86.6659H55.9244l-17.3225 17.3224v242.6215l17.3225 17.3224h69.3433l17.376-17.3224v-69.2897l86.6121 86.6122h69.3435l17.3223-17.3224v-138.6331l86.6658 86.6658v51.9673l17.3762 17.3224h69.2896l17.3225-17.3224v-51.9673l86.6658-86.6658v103.9882l52.0208 51.9673h173.278l52.021-51.9673v-51.9673l-17.3225-17.3761h-86.7193v17.3761h-69.2898v-69.3434h69.2898v17.1079h86.7193ZM882.2022 422.8619c1.6455 0 3.0255-.1592 3.0255-2.0171 0-1.5924-1.5393-1.7517-2.8133-1.7517h-2.6009v3.8219h2.3887v-.0531Zm-2.3887 7.3783h-2.1232v-12.9519h4.9366c3.1318 0 4.7242 1.1147 4.7242 3.7157 0 2.3887-1.4331 3.2911-3.3971 3.5565l3.6626 5.7328h-2.3887l-3.3442-5.5736h-1.964v5.5736l-.1061-.0531Zm2.2825-16.4022c-5.0958 0-9.0238 3.9811-9.0238 9.7139 0 5.3612 3.4503 9.7139 9.0238 9.7139 5.0428 0 8.9708-3.928 8.9708-9.7139s-3.928-9.7139-8.9708-9.7139Zm0 21.445c-6.7413 0-11.5186-5.0428-11.5186-11.731 0-7.0599 5.3082-11.731 11.5186-11.731s11.4657 4.6712 11.4657 11.731c0 7.0068-5.3082 11.731-11.4657 11.731Z"/><path d="m778.0745,304.7993c-17.25,0-33.8145-2.0625-49.6875-6.1875-15.8789-4.125-28.4414-9.3105-37.6875-15.5625l19.5-42c9.2461,5.7539,20.1855,10.4414,32.8125,14.0625,12.6211,3.627,25.0605,5.4375,37.3125,5.4375,13.5,0,23.0625-1.623,28.6875-4.875,5.625-3.2461,8.4375-7.7461,8.4375-13.5,0-4.7461-2.1914-8.3086-6.5625-10.6875-4.377-2.373-10.1895-4.1836-17.4375-5.4375-7.2539-1.248-15.1875-2.4961-23.8125-3.75-8.625-1.248-17.3145-2.9355-26.0625-5.0625-8.7539-2.1211-16.752-5.3086-24-9.5625-7.2539-4.248-13.0664-9.9961-17.4375-17.25-4.377-7.248-6.5625-16.623-6.5625-28.125,0-12.75,3.6855-24,11.0625-33.75,7.3711-9.75,18.0586-17.4375,32.0625-23.0625,13.998-5.625,30.75-8.4375,50.25-8.4375,13.7461,0,27.75,1.5,42,4.5s26.1211,7.377,35.625,13.125l-19.5,41.625c-9.75-5.748-19.5645-9.6855-29.4375-11.8125-9.8789-2.1211-19.4414-3.1875-28.6875-3.1875-13.002,0-22.5,1.752-28.5,5.25-6,3.5039-9,8.0039-9,13.5,0,5.0039,2.1855,8.7539,6.5625,11.25,4.3711,2.502,10.1836,4.5,17.4375,6,7.248,1.5,15.1875,2.8125,23.8125,3.9375s17.3086,2.8125,26.0625,5.0625c8.748,2.25,16.6875,5.4375,23.8125,9.5625s12.9375,9.75,17.4375,16.875,6.75,16.4414,6.75,27.9375c0,12.5039-3.75,23.5664-11.25,33.1875-7.5,9.627-18.3164,17.1914-32.4375,22.6875-14.127,5.4961-31.3125,8.25-51.5625,8.25Z"/><path class="cls-3" d="M776.8592 1027.6502 454.0967 902.3382 131.3332 1027.6502 111.9324 1014.3712 111.9324 808.4601 140.4224 808.4601 140.4224 993.5593 448.9409 873.7779 459.2525 873.7779 767.7701 993.5593 767.7701 808.4601 796.26 808.4601 796.26 1014.3712 776.8592 1027.6502z"/></svg>