<svg viewBox="0 0 409 159" fill="none" xmlns="http://www.w3.org/2000/svg"><path d="M214.44 31.88 219 27.38V13.69L205.31 0H159.69L146 13.69V4.56L141.44 0H123.19L118.63 4.56V13.69L109.5 22.81 100.38 13.69V4.56L95.81 0H77.56L73 4.56 68.44 0H50.19L45.63 4.56V22.81L22.81 0H4.56L0 4.56V68.44L4.56 73H22.81L27.38 68.44V50.19L50.19 73H68.44L73 68.44V31.94L95.81 54.75V68.44L100.38 73H118.63L123.19 68.44V54.75L146 31.94V59.31L159.69 73H205.31L219 59.31V45.63L214.44 41.06H191.63V45.63H173.38V27.38H191.63V31.88H214.44ZM215.75 3.08003C216.18 3.08003 216.55 3.08003 216.55 2.54003 216.55 2.00003 216.14 2.07003 215.8 2.07003H215.12V3.07003L215.75 3.08003ZM215.12 5.08003H214.55V1.59003H215.86C216.69 1.59003 217.12 1.88003 217.12 2.59003 217.128 2.71224 217.111 2.83486 217.069 2.95003 217.028 3.06521 216.962 3.1704 216.878 3.25889 216.793 3.34737 216.691 3.41719 216.577 3.46388 216.464 3.51057 216.342 3.5331 216.22 3.53003L217.22 5.05003H216.57L215.68 3.57003H215.15L215.12 5.08003ZM215.73.720026C215.401.722113 215.076.79132 214.774.923415 214.473 1.05551 214.201 1.24772 213.977 1.48828 213.752 1.72884 213.579 2.0127 213.468 2.32249 213.356 2.63229 213.31 2.96151 213.33 3.29003 213.309 3.61756 213.355 3.94595 213.466 4.25491 213.577 4.56386 213.75 4.84681 213.974 5.08626 214.199 5.32572 214.47 5.51658 214.771 5.64706 215.072 5.77754 215.397 5.84486 215.725 5.84486 216.053 5.84486 216.378 5.77754 216.679 5.64706 216.98 5.51658 217.251 5.32572 217.476 5.08626 217.7 4.84681 217.873 4.56386 217.984 4.25491 218.095 3.94595 218.141 3.61756 218.12 3.29003 218.146 2.95913 218.104 2.62641 217.996 2.31254 217.888 1.99868 217.716 1.71039 217.492 1.4656 217.268 1.2208 216.996 1.02474 216.693.889593 216.39.754449 216.062.683115 215.73.680026V.720026ZM215.73 6.37003C215.32 6.37993 214.912 6.30562 214.532 6.15167 214.152 5.99773 213.807 5.76743 213.519 5.47502 213.231 5.1826 213.007 4.83428 212.859 4.45158 212.711 4.06888 212.644 3.65993 212.66 3.25003 212.636 2.8328 212.698 2.4151 212.841 2.02251 212.984 1.62992 213.206 1.27071 213.493.966897 213.78.663079 214.126.421046 214.51.255626 214.894.0902063 215.307.00488281 215.725.00488281 216.143.00488281 216.556.0902063 216.94.255626 217.324.421046 217.67.663079 217.957.966897 218.244 1.27071 218.466 1.62992 218.609 2.02251 218.752 2.4151 218.814 2.8328 218.79 3.25003 218.806 3.65907 218.739 4.06716 218.592 4.44917 218.445 4.83118 218.221 5.17903 217.934 5.4713 217.648 5.76357 217.304 5.99408 216.925 6.14864 216.546 6.3032 216.139 6.37854 215.73 6.37003M8.66 84.3301C14.19 84.3301 17.3 88.3301 17.3 93.4701 17.3 98.6101 14.19 102.6 8.66 102.6 3.13 102.6 0 98.5501 0 93.4701 0 88.3901 3.13 84.3301 8.66 84.3301ZM8.66 98.6701C11.61 98.6701 12.74 96.0701 12.74 93.4701 12.74 90.8701 11.61 88.2601 8.66 88.2601 5.71 88.2601 4.58 90.8601 4.58 93.4701 4.58 96.0801 5.71 98.6701 8.66 98.6701ZM20.37 92.19H18.37V89.49H20.37C20.37 85.83 21.65 84.7 25.21 84.7 25.87 84.7 26.56 84.7 27.21 84.77V87.77C26.8352 87.7229 26.4578 87.6995 26.08 87.7 25.08 87.7 24.53 87.82 24.53 88.97V89.54H27.03V92.24H24.53V102.24H20.37V92.19ZM29.59 92.19H27.59V89.49H29.59C29.59 85.83 30.87 84.7 34.43 84.7 35.09 84.7 35.78 84.7 36.43 84.77V87.77C36.0552 87.7224 35.6777 87.699 35.3 87.7 34.3 87.7 33.76 87.82 33.76 88.97V89.54H36.26V92.24H33.76V102.24H29.59V92.19ZM41.65 87.89H37.48V84.7H41.65V87.89ZM37.48 89.49H41.65V102.23H37.48V89.49ZM52.75 94.1501C52.7097 93.6479 52.4813 93.1794 52.1105 92.8382 51.7397 92.4971 51.2538 92.3085 50.75 92.3101 48.42 92.3101 48.05 94.3101 48.05 96.0701 48.05 97.8301 48.76 99.4101 50.53 99.4101 50.8318 99.4305 51.1347 99.3892 51.4201 99.2889 51.7056 99.1885 51.9676 99.031 52.1902 98.8262 52.4129 98.6213 52.5915 98.3733 52.7152 98.0972 52.839 97.821 52.9052 97.5226 52.91 97.2201H56.97C56.6 100.64 53.97 102.6 50.56 102.6 49.683 102.648 48.8057 102.512 47.9837 102.203 47.1617 101.894 46.413 101.417 45.785 100.803 45.1569 100.189 44.6633 99.4514 44.3354 98.6367 44.0074 97.8219 43.8524 96.9479 43.88 96.0701 43.88 92.0701 46.45 89.1201 50.56 89.1201 53.72 89.1201 56.56 90.7901 56.84 94.1201L52.75 94.1501ZM62.43 96.8799C62.4042 97.2623 62.4595 97.6457 62.5923 98.0052 62.7251 98.3647 62.9324 98.6921 63.2005 98.9659 63.4686 99.2397 63.7916 99.4538 64.1483 99.5941 64.5049 99.7343 64.8872 99.7977 65.27 99.7799 65.7618 99.8068 66.2506 99.6883 66.6756 99.4394 67.1006 99.1905 67.4429 98.822 67.66 98.3799H71.56C70.8 101.38 68.07 102.6 65.23 102.6 61.08 102.6 58.23 100.1 58.23 95.8199 58.2283 94.9243 58.4064 94.0375 58.7539 93.212 59.1013 92.3865 59.6109 91.6392 60.2525 91.0144 60.8942 90.3895 61.6547 89.8999 62.4891 89.5744 63.3235 89.249 64.2147 89.0944 65.11 89.1199 69.67 89.1199 71.96 92.5599 71.76 96.8799H62.43ZM67.61 94.5499C67.6158 93.8782 67.3604 93.2305 66.8977 92.7435 66.4349 92.2565 65.8011 91.9684 65.13 91.9399 64.4329 91.9517 63.7664 92.2277 63.2651 92.7123 62.7639 93.1968 62.4654 93.8536 62.43 94.5499H67.61ZM87.4 89.12C88.7343 89.112 90.0409 89.5003 91.1543 90.2357 92.2677 90.971 93.1378 92.0203 93.6544 93.2505 94.171 94.4808 94.3107 95.8367 94.056 97.1465 93.8013 98.4563 93.1635 99.661 92.2236 100.608 91.2836 101.555 90.0836 102.202 88.7758 102.466 87.4679 102.731 86.111 102.601 84.8769 102.093 83.6429 101.586 82.5872 100.724 81.8436 99.6159 81.1 98.508 80.702 97.2043 80.7 95.87 80.6711 94.98 80.8243 94.0935 81.1501 93.2648 81.476 92.4361 81.9676 91.6826 82.5949 91.0507 83.2222 90.4187 83.9719 89.9215 84.7982 89.5895 85.6245 89.2575 86.5098 89.0977 87.4 89.12V89.12ZM87.4 99.41C89.34 99.41 89.96 97.49 89.96 95.87 89.96 94.25 89.34 92.31 87.4 92.31 85.46 92.31 84.87 94.25 84.87 95.87 84.87 97.49 85.46 99.41 87.4 99.41ZM97.08 92.19H95.08V89.49H97.08C97.08 85.83 98.35 84.7 101.92 84.7 102.58 84.7 103.27 84.7 103.92 84.77V87.77C103.545 87.7224 103.168 87.699 102.79 87.7 101.79 87.7 101.24 87.82 101.24 88.97V89.54H103.75V92.24H101.24V102.24H97.08V92.19ZM130.11 102.23H125.54L123.13 90.15 120.73 102.23H116L111.3 84.7H115.86L118.34 97.52 121 84.7H125.3L127.88 97.52H127.93L130.41 84.7H135L130.11 102.23ZM141.06 89.12C142.394 89.112 143.701 89.5003 144.814 90.2357 145.928 90.971 146.798 92.0203 147.314 93.2505 147.831 94.4808 147.971 95.8367 147.716 97.1465 147.461 98.4563 146.824 99.661 145.884 100.608 144.944 101.555 143.744 102.202 142.436 102.466 141.128 102.731 139.771 102.601 138.537 102.093 137.303 101.586 136.247 100.724 135.504 99.6159 134.76 98.508 134.362 97.2043 134.36 95.87 134.331 94.98 134.484 94.0935 134.81 93.2648 135.136 92.4361 135.628 91.6826 136.255 91.0507 136.882 90.4187 137.632 89.9215 138.458 89.5895 139.284 89.2575 140.17 89.0977 141.06 89.12V89.12ZM141.06 99.41C143 99.41 143.61 97.49 143.61 95.87 143.61 94.25 143 92.31 141.06 92.31 139.12 92.31 138.53 94.25 138.53 95.87 138.53 97.49 139.12 99.41 141.06 99.41ZM149.73 89.4899H153.78V91.7199H153.83C154.119 90.9514 154.647 90.2958 155.337 89.8494 156.026 89.403 156.84 89.1894 157.66 89.2399 157.996 89.2371 158.331 89.2707 158.66 89.3399V93.1499C158.144 92.9923 157.609 92.9082 157.07 92.8999 156.662 92.8706 156.251 92.9269 155.866 93.0652 155.48 93.2036 155.128 93.421 154.832 93.7034 154.535 93.9858 154.301 94.3271 154.144 94.7054 153.987 95.0836 153.911 95.4905 153.92 95.8999V102.21H149.75L149.73 89.4899ZM159.9 84.7H164.07V93.7L167.88 89.45H172.72L168.05 94.26 173.3 102.19H168.3L165.18 97.06 164.1 98.12V102.19H159.9V84.7ZM175.47 92.19H173.47V89.49H175.47C175.47 85.83 176.74 84.7 180.3 84.7 180.97 84.7 181.65 84.7 182.3 84.77V87.77C181.925 87.7227 181.548 87.6993 181.17 87.7 180.17 87.7 179.62 87.82 179.62 88.97V89.54H182.13V92.24H179.62V102.24H175.45L175.47 92.19ZM189.59 89.12C190.924 89.114 192.23 89.504 193.342 90.2406 194.454 90.9771 195.322 92.0271 195.837 93.2575 196.352 94.488 196.491 95.8436 196.235 97.1527 195.979 98.4618 195.34 99.6656 194.4 100.612 193.46 101.558 192.26 102.203 190.952 102.467 189.645 102.731 188.288 102.6 187.055 102.093 185.821 101.585 184.766 100.723 184.023 99.6149 183.28 98.5072 182.882 97.2039 182.88 95.87 182.851 94.9791 183.005 94.0918 183.331 93.2624 183.657 92.433 184.15 91.6791 184.778 91.047 185.407 90.4148 186.158 89.9178 186.985 89.5864 187.813 89.2551 188.699 89.0963 189.59 89.12V89.12ZM189.59 99.41C191.53 99.41 192.14 97.49 192.14 95.87 192.14 94.25 191.53 92.31 189.59 92.31 187.65 92.31 187.06 94.25 187.06 95.87 187.06 97.49 187.65 99.41 189.59 99.41ZM198.5 89.49H202.55V91.72C202.841 90.9523 203.369 90.2976 204.058 89.8515 204.747 89.4053 205.561 89.1911 206.38 89.24 206.716 89.2366 207.051 89.2702 207.38 89.34V93.15C206.864 92.9924 206.329 92.9082 205.79 92.9 205.382 92.8706 204.971 92.9269 204.586 93.0653 204.2 93.2037 203.848 93.421 203.552 93.7035 203.255 93.9859 203.021 94.3272 202.864 94.7054 202.707 95.0837 202.631 95.4906 202.64 95.9V102.21H198.5V89.49ZM216.72 94.1501C216.68 93.6479 216.451 93.1794 216.08 92.8382 215.71 92.4971 215.224 92.3085 214.72 92.3101 212.39 92.3101 212.02 94.3101 212.02 96.0701 212.02 97.8301 212.74 99.4101 214.5 99.4101 214.802 99.4305 215.106 99.3893 215.392 99.289 215.678 99.1887 215.94 99.0314 216.164 98.8267 216.387 98.6219 216.567 98.374 216.692 98.0979 216.816 97.8217 216.884 97.5231 216.89 97.2201H220.94C220.57 100.64 217.94 102.6 214.53 102.6 213.653 102.646 212.777 102.51 211.955 102.2 211.134 101.89 210.386 101.413 209.758 100.8 209.131 100.186 208.637 99.4489 208.308 98.6349 207.98 97.8208 207.824 96.9475 207.85 96.0701 207.85 92.0701 210.43 89.1201 214.53 89.1201 217.7 89.1201 220.53 90.7901 220.81 94.1201L216.72 94.1501ZM226.4 96.8799C226.374 97.2631 226.43 97.6475 226.563 98.0077 226.696 98.368 226.905 98.6959 227.174 98.9698 227.443 99.2438 227.767 99.4576 228.125 99.5972 228.483 99.7369 228.866 99.7991 229.25 99.7799 229.74 99.8061 230.228 99.6873 230.651 99.4383 231.074 99.1893 231.415 98.8212 231.63 98.3799H235.53C234.77 101.38 232.05 102.6 229.2 102.6 225.05 102.6 222.2 100.1 222.2 95.8199 222.198 94.9243 222.376 94.0375 222.724 93.212 223.071 92.3865 223.581 91.6392 224.223 91.0144 224.864 90.3895 225.625 89.8999 226.459 89.5744 227.293 89.249 228.185 89.0944 229.08 89.1199 233.65 89.1199 235.93 92.5599 235.74 96.8799H226.4ZM231.58 94.5499C231.588 93.8774 231.334 93.2283 230.87 92.7408 230.407 92.2533 229.772 91.9659 229.1 91.9399 228.403 91.9517 227.736 92.2277 227.235 92.7123 226.734 93.1968 226.435 93.8536 226.4 94.5499H231.58ZM245.45 84.7H253C258.38 84.7 261.6 87.97 261.6 93.39 261.6 99.14 258.33 102.23 253 102.23H245.46L245.45 84.7ZM250 98.31H252.16C255.63 98.23 257 96.88 257 93.37 257 90.18 255.28 88.63 252.16 88.63H250V98.31ZM267.34 96.8799C267.314 97.2623 267.37 97.6457 267.502 98.0052 267.635 98.3647 267.842 98.6921 268.111 98.9659 268.379 99.2397 268.702 99.4538 269.058 99.5941 269.415 99.7343 269.797 99.7977 270.18 99.7799 270.672 99.8068 271.161 99.6883 271.586 99.4394 272.011 99.1905 272.353 98.822 272.57 98.3799H276.47C275.71 101.38 272.98 102.6 270.14 102.6 265.98 102.6 263.14 100.1 263.14 95.8199 263.138 94.9243 263.316 94.0375 263.664 93.212 264.011 92.3865 264.521 91.6392 265.163 91.0144 265.804 90.3895 266.565 89.8999 267.399 89.5744 268.234 89.249 269.125 89.0944 270.02 89.1199 274.58 89.1199 276.87 92.5599 276.67 96.8799H267.34ZM272.52 94.5499C272.525 93.8715 272.265 93.218 271.793 92.7299 271.322 92.2419 270.678 91.9582 270 91.9399 269.303 91.9517 268.636 92.2277 268.135 92.7123 267.634 93.1968 267.335 93.8536 267.3 94.5499H272.52ZM286.22 102.23H281.41L277.16 89.49H281.51L283.84 97.91H283.89L286.25 89.49H290.49L286.22 102.23ZM295.23 96.8801C295.206 97.263 295.262 97.6467 295.396 98.0062 295.53 98.3657 295.739 98.6929 296.007 98.9665 296.276 99.2402 296.6 99.454 296.957 99.5942 297.314 99.7344 297.697 99.7977 298.08 99.7801 298.571 99.8076 299.058 99.6893 299.482 99.4402 299.905 99.1911 300.246 98.8222 300.46 98.3801H304.37C303.61 101.38 300.88 102.6 298.03 102.6 293.88 102.6 291.03 100.1 291.03 95.8201 291.028 94.9254 291.206 94.0394 291.553 93.2146 291.9 92.3898 292.409 91.6429 293.049 91.0182 293.69 90.3935 294.449 89.9037 295.282 89.5776 296.115 89.2516 297.006 89.096 297.9 89.1201 302.47 89.1201 304.76 92.5601 304.56 96.8801H295.23ZM300.41 94.5501C300.418 93.8776 300.164 93.2285 299.701 92.741 299.237 92.2535 298.602 91.9661 297.93 91.9401 297.234 91.9542 296.568 92.2311 296.068 92.7151 295.567 93.1992 295.268 93.8547 295.23 94.5501H300.41ZM306.68 84.7H310.85V102.23H306.68V84.7ZM319.74 89.12C321.074 89.1121 322.381 89.5004 323.494 90.2357 324.608 90.971 325.478 92.0203 325.994 93.2506 326.511 94.4808 326.651 95.8367 326.396 97.1465 326.141 98.4563 325.504 99.661 324.564 100.608 323.624 101.555 322.424 102.202 321.116 102.466 319.808 102.731 318.451 102.601 317.217 102.094 315.983 101.586 314.927 100.724 314.184 99.6159 313.44 98.508 313.042 97.2043 313.04 95.87 313.01 94.9796 313.162 94.0925 313.487 93.2631 313.813 92.4338 314.304 91.6797 314.932 91.0475 315.559 90.4152 316.31 89.918 317.137 89.5865 317.963 89.255 318.849 89.0963 319.74 89.12V89.12ZM319.74 99.41C321.68 99.41 322.3 97.49 322.3 95.87 322.3 94.25 321.68 92.31 319.74 92.31 317.8 92.31 317.21 94.25 317.21 95.87 317.21 97.49 317.8 99.41 319.74 99.41ZM328.51 89.49H332.51V91H332.56C332.94 90.4197 333.462 89.946 334.076 89.624 334.69 89.3019 335.377 89.1422 336.07 89.16 340.07 89.16 341.77 92.6 341.77 96.16 341.77 99.48 340 102.62 336.39 102.62 335.687 102.651 334.987 102.508 334.353 102.205 333.718 101.901 333.168 101.446 332.75 100.88H332.7V106.53H328.53L328.51 89.49ZM332.51 95.73C332.51 97.96 333.15 99.41 335.04 99.41 336.93 99.41 337.54 97.47 337.54 95.73 337.54 93.99 336.9 92.31 335.06 92.31 334 92.31 332.54 93.1 332.54 95.73H332.51ZM343.83 89.49H347.89V91.23C348.265 90.5917 348.8 90.0618 349.442 89.6919 350.083 89.3221 350.81 89.125 351.55 89.12 352.305 89.0398 353.067 89.1946 353.731 89.5633 354.395 89.932 354.929 90.4966 355.26 91.18 355.7 90.5282 356.297 89.9978 356.996 89.6378 357.695 89.2777 358.474 89.0996 359.26 89.12 363.31 89.12 363.75 92.19 363.75 94.62V102.23H359.6V94.74C359.6 93.37 358.94 92.56 357.86 92.56 356.06 92.56 355.86 93.93 355.86 96V102.23H351.69V95C351.69 93.5 351.24 92.57 350.11 92.57 348.62 92.57 347.98 93.43 347.98 96.03V102.24H343.8L343.83 89.49ZM370 96.8799C369.974 97.2631 370.03 97.6475 370.163 98.0077 370.297 98.368 370.505 98.6959 370.774 98.9698 371.043 99.2438 371.367 99.4576 371.725 99.5972 372.083 99.7369 372.466 99.7991 372.85 99.7799 373.34 99.8061 373.828 99.6873 374.251 99.4383 374.674 99.1893 375.015 98.8212 375.23 98.3799H379.13C378.37 101.38 375.65 102.6 372.8 102.6 368.65 102.6 365.8 100.1 365.8 95.8199 365.798 94.9243 365.977 94.0375 366.324 93.212 366.671 92.3865 367.181 91.6392 367.823 91.0144 368.464 90.3895 369.225 89.8999 370.059 89.5744 370.894 89.249 371.785 89.0944 372.68 89.1199 377.25 89.1199 379.53 92.5599 379.33 96.8799H370ZM375.18 94.5499C375.188 93.8774 374.934 93.2283 374.471 92.7408 374.007 92.2533 373.372 91.9659 372.7 91.9399 372.003 91.9517 371.336 92.2277 370.835 92.7123 370.334 93.1968 370.035 93.8536 370 94.5499H375.18ZM381.28 89.4901H385.34V91.2301C385.785 90.5793 386.381 90.0469 387.078 89.6792 387.775 89.3115 388.552 89.1196 389.34 89.1201 393.59 89.1201 393.93 92.2101 393.93 94.0601V102.23H389.76V96.0701C389.76 94.3301 389.95 92.5601 387.67 92.5601 386.1 92.5601 385.41 93.8801 385.41 95.2801V102.28H381.23L381.28 89.4901ZM404.29 92.1899H401.72V97.9999C401.72 98.9999 402.31 99.2199 403.21 99.2199 403.56 99.2199 403.93 99.2199 404.29 99.2199V102.29C403.53 102.29 402.77 102.42 402.01 102.42 398.45 102.42 397.54 101.42 397.54 97.9199V92.1899H395.43V89.4899H397.54V85.6299H401.72V89.4899H404.29V92.1899ZM9 135.73C14.74 135.73 18 139.94 18 145.22 18 150.5 14.77 154.71 9 154.71 3.23 154.71 0 150.5 0 145.22 0 139.94 3.25 135.73 9 135.73ZM9 150.63C12.06 150.63 13.23 147.92 13.23 145.22 13.23 142.52 12.06 139.81 9 139.81 5.94 139.81 4.77 142.52 4.77 145.22 4.77 147.92 5.93 150.63 9 150.63ZM21.1501 143.89H19.0601V141.09H21.1501C21.1501 137.29 22.4801 136.09 26.1501 136.09 26.8401 136.09 27.5501 136.09 28.2401 136.16V139.22C27.8519 139.173 27.4611 139.149 27.0701 139.15 26.0701 139.15 25.4601 139.27 25.4601 140.47V141.06H28.0601V143.86H25.4601V154.29H21.1501V143.89ZM30.44 143.89H28.35V141.09H30.44C30.44 137.29 31.76 136.09 35.44 136.09 36.13 136.09 36.84 136.09 37.53 136.16V139.22C37.1418 139.173 36.751 139.149 36.36 139.15 35.36 139.15 34.75 139.27 34.75 140.47V141.06H37.35V143.86H34.75V154.29H30.44V143.89ZM43 139.43H38.62V136.12H43V139.43ZM38.67 141.09H43V154.32H38.62L38.67 141.09ZM54.48 145.93C54.4711 145.664 54.4091 145.402 54.2976 145.16 54.1862 144.918 54.0275 144.701 53.831 144.521 53.6344 144.341 53.4039 144.203 53.1531 144.113 52.9022 144.024 52.6359 143.985 52.37 144 49.94 144 49.56 146.07 49.56 147.9 49.56 149.73 50.3 151.37 52.14 151.37 52.4529 151.39 52.7666 151.347 53.0623 151.243 53.358 151.138 53.6294 150.975 53.8603 150.763 54.0911 150.551 54.2766 150.294 54.4055 150.008 54.5343 149.722 54.6039 149.413 54.61 149.1H58.82C58.43 152.65 55.68 154.69 52.16 154.69 51.2489 154.739 50.3376 154.598 49.484 154.276 48.6303 153.954 47.853 153.458 47.2013 152.819 46.5496 152.181 46.0378 151.414 45.6984 150.567 45.3591 149.72 45.1995 148.812 45.23 147.9 45.23 143.69 47.9 140.69 52.16 140.69 55.45 140.69 58.38 142.42 58.69 145.91L54.48 145.93ZM64.53 148.76C64.5051 149.16 64.5657 149.561 64.7076 149.937 64.8496 150.312 65.0697 150.653 65.3534 150.936 65.6371 151.22 65.9779 151.44 66.3531 151.582 66.7284 151.724 67.1295 151.785 67.53 151.76 68.0378 151.79 68.5432 151.67 68.9827 151.413 69.4222 151.157 69.7761 150.777 70 150.32H74C73.21 153.38 70.38 154.71 67.43 154.71 63.12 154.71 60.18 152.1 60.18 147.71 60.1715 146.776 60.3515 145.851 60.7091 144.989 61.0667 144.126 61.5946 143.345 62.2612 142.691 62.9278 142.038 63.7194 141.525 64.5886 141.185 65.4579 140.845 66.3868 140.683 67.32 140.71 72.07 140.71 74.44 144.28 74.23 148.71L64.53 148.76ZM69.91 146.34C69.9157 145.643 69.6494 144.971 69.1677 144.467 68.686 143.962 68.0268 143.666 67.33 143.64 66.6081 143.652 65.9175 143.937 65.3978 144.438 64.878 144.939 64.5679 145.619 64.53 146.34H69.91ZM85.08 143.89H83V141.09H85.09C85.09 137.29 86.42 136.09 90.09 136.09 90.78 136.09 91.5 136.09 92.19 136.16V139.22C91.7985 139.173 91.4044 139.149 91.01 139.15 90.01 139.15 89.41 139.27 89.41 140.47V141.06H92V143.86H89.4V154.29H85.08V143.89ZM99.49 140.71C100.874 140.71 102.228 141.121 103.379 141.89 104.53 142.659 105.427 143.752 105.957 145.031 106.487 146.31 106.626 147.718 106.356 149.076 106.085 150.433 105.419 151.681 104.44 152.66 103.461 153.639 102.214 154.305 100.856 154.575 99.4978 154.846 98.0903 154.707 96.8112 154.177 95.5322 153.647 94.4389 152.75 93.6697 151.599 92.9006 150.448 92.49 149.094 92.49 147.71 92.4594 146.782 92.6195 145.859 92.9605 144.995 93.3014 144.132 93.8159 143.348 94.4721 142.692 95.1284 142.036 95.9123 141.521 96.7754 141.18 97.6386 140.839 98.5625 140.679 99.49 140.71V140.71ZM99.49 151.39C101.49 151.39 102.14 149.39 102.14 147.72 102.14 146.05 101.5 144.02 99.49 144.02 97.48 144.02 96.86 146.02 96.86 147.72 96.86 149.42 97.47 151.39 99.49 151.39V151.39ZM108.49 141.09H112.7V143.41C113.002 142.608 113.554 141.925 114.274 141.46 114.995 140.996 115.845 140.775 116.7 140.83 117.036 140.829 117.372 140.866 117.7 140.94V144.89C117.161 144.73 116.602 144.642 116.04 144.63 115.614 144.599 115.186 144.658 114.783 144.803 114.381 144.948 114.014 145.176 113.706 145.472 113.398 145.768 113.155 146.126 112.994 146.522 112.832 146.917 112.756 147.343 112.77 147.77V154.32H108.44L108.49 141.09ZM127.1 136.12H141.61V139.92H131.85V143.1H140.77V146.78H131.85V150.24H141.85V154.32H127.1V136.12ZM152.6 145.93C152.588 145.665 152.525 145.406 152.412 145.166 152.299 144.927 152.14 144.712 151.944 144.534 151.748 144.356 151.518 144.219 151.269 144.131 151.019 144.043 150.754 144.005 150.49 144.02 148.06 144.02 147.68 146.09 147.68 147.92 147.68 149.75 148.42 151.39 150.26 151.39 150.573 151.41 150.887 151.367 151.182 151.263 151.478 151.158 151.749 150.995 151.98 150.783 152.211 150.571 152.397 150.314 152.525 150.028 152.654 149.742 152.724 149.433 152.73 149.12H156.94C156.56 152.67 153.8 154.71 150.28 154.71 149.369 154.757 148.459 154.615 147.606 154.293 146.753 153.97 145.976 153.474 145.325 152.836 144.673 152.198 144.161 151.431 143.822 150.585 143.482 149.739 143.321 148.831 143.35 147.92 143.35 143.71 146.03 140.71 150.28 140.71 153.57 140.71 156.5 142.44 156.81 145.93H152.6ZM165.28 140.71C166.665 140.71 168.018 141.121 169.169 141.89 170.32 142.659 171.217 143.752 171.747 145.031 172.277 146.31 172.416 147.718 172.146 149.076 171.875 150.433 171.209 151.681 170.23 152.66 169.251 153.639 168.004 154.305 166.646 154.575 165.288 154.846 163.88 154.707 162.601 154.177 161.322 153.647 160.229 152.75 159.46 151.599 158.691 150.448 158.28 149.094 158.28 147.71 158.249 146.782 158.41 145.859 158.751 144.995 159.091 144.132 159.606 143.348 160.262 142.692 160.918 142.036 161.702 141.521 162.565 141.18 163.429 140.839 164.353 140.679 165.28 140.71V140.71ZM165.28 151.39C167.28 151.39 167.93 149.39 167.93 147.72 167.93 146.05 167.29 144.02 165.28 144.02 163.27 144.02 162.65 146.02 162.65 147.72 162.65 149.42 163.26 151.39 165.28 151.39V151.39ZM174.13 141.09H178.33V142.9C178.791 142.222 179.411 141.667 180.137 141.286 180.862 140.904 181.67 140.706 182.49 140.71 186.9 140.71 187.26 143.92 187.26 145.83V154.32H183V147.92C183 146.11 183.21 144.28 180.84 144.28 179.2 144.28 178.49 145.65 178.49 147.11V154.32H174.16L174.13 141.09ZM196.11 140.71C197.494 140.71 198.848 141.121 199.999 141.89 201.15 142.659 202.047 143.752 202.577 145.031 203.107 146.31 203.246 147.718 202.976 149.076 202.705 150.433 202.039 151.681 201.06 152.66 200.081 153.639 198.834 154.305 197.476 154.575 196.118 154.846 194.71 154.707 193.431 154.177 192.152 153.647 191.059 152.75 190.29 151.599 189.521 150.448 189.11 149.094 189.11 147.71 189.079 146.782 189.24 145.859 189.58 144.995 189.921 144.132 190.436 143.348 191.092 142.692 191.748 142.036 192.532 141.521 193.395 141.18 194.259 140.839 195.182 140.679 196.11 140.71V140.71ZM196.11 151.39C198.11 151.39 198.76 149.39 198.76 147.72 198.76 146.05 198.12 144.02 196.11 144.02 194.1 144.02 193.48 146.02 193.48 147.72 193.48 149.42 194.09 151.39 196.11 151.39V151.39ZM205.21 141.09H209.42V142.9H209.47C209.857 142.234 210.411 141.682 211.078 141.298 211.744 140.913 212.5 140.711 213.27 140.71 214.054 140.627 214.844 140.788 215.533 141.171 216.222 141.554 216.776 142.14 217.12 142.85 217.573 142.175 218.189 141.625 218.911 141.251 219.633 140.877 220.437 140.691 221.25 140.71 225.45 140.71 225.91 143.89 225.91 146.42V154.32H221.58V146.55C221.58 145.12 220.89 144.28 219.77 144.28 217.91 144.28 217.77 145.7 217.77 147.85V154.32H213.43V146.8C213.43 145.25 212.98 144.28 211.8 144.28 210.25 144.28 209.58 145.17 209.58 147.87V154.32H205.25L205.21 141.09ZM233.16 139.43H228.82V136.12H233.16V139.43ZM228.82 141.09H233.16V154.32H228.82V141.09ZM244.68 145.93C244.669 145.665 244.605 145.406 244.492 145.166 244.379 144.927 244.22 144.712 244.024 144.534 243.828 144.356 243.598 144.219 243.349 144.131 243.099 144.043 242.834 144.005 242.57 144.02 240.14 144.02 239.76 146.09 239.76 147.92 239.76 149.75 240.5 151.39 242.34 151.39 242.653 151.41 242.967 151.367 243.262 151.263 243.558 151.158 243.829 150.995 244.06 150.783 244.291 150.571 244.477 150.314 244.606 150.028 244.734 149.742 244.804 149.433 244.81 149.12H249C248.61 152.67 245.86 154.71 242.34 154.71 241.429 154.759 240.518 154.618 239.664 154.296 238.81 153.974 238.033 153.478 237.381 152.839 236.73 152.201 236.218 151.434 235.878 150.587 235.539 149.74 235.38 148.832 235.41 147.92 235.41 143.71 238.08 140.71 242.34 140.71 245.63 140.71 248.56 142.44 248.87 145.93H244.68ZM267.38 135.73C273.11 135.73 276.38 139.94 276.38 145.22 276.38 150.5 273.14 154.71 267.38 154.71 261.62 154.71 258.38 150.5 258.38 145.22 258.38 139.94 261.64 135.73 267.38 135.73ZM267.38 150.63C270.44 150.63 271.61 147.92 271.61 145.22 271.61 142.52 270.44 139.81 267.38 139.81 264.32 139.81 263.14 142.52 263.14 145.22 263.14 147.92 264.32 150.63 267.38 150.63ZM278.6 141.09H282.73V142.62C283.125 142.017 283.668 141.525 284.307 141.191 284.946 140.856 285.659 140.691 286.38 140.71 290.53 140.71 292.29 144.28 292.29 148 292.29 151.44 290.46 154.71 286.71 154.71 285.979 154.742 285.251 154.592 284.591 154.275 283.932 153.957 283.361 153.481 282.93 152.89H282.88V158.76H278.6V141.09ZM282.78 147.57C282.78 149.89 283.44 151.39 285.41 151.39 287.38 151.39 288.01 149.39 288.01 147.57 288.01 145.75 287.34 144.02 285.43 144.02 284.26 144 282.78 144.84 282.78 147.57V147.57ZM294.51 141.09H298.64V142.62H298.69C299.085 142.017 299.628 141.525 300.267 141.191 300.906 140.856 301.619 140.691 302.34 140.71 306.49 140.71 308.25 144.28 308.25 148 308.25 151.44 306.42 154.71 302.67 154.71 301.94 154.741 301.214 154.591 300.556 154.273 299.899 153.956 299.33 153.481 298.9 152.89H298.84V158.76H294.51V141.09ZM298.69 147.57C298.69 149.89 299.35 151.39 301.32 151.39 303.29 151.39 303.92 149.39 303.92 147.57 303.92 145.75 303.26 144.02 301.34 144.02 300.17 144 298.69 144.84 298.69 147.57ZM316.74 140.71C318.124 140.71 319.478 141.121 320.629 141.89 321.78 142.659 322.677 143.752 323.207 145.031 323.737 146.31 323.876 147.718 323.606 149.076 323.335 150.433 322.669 151.681 321.69 152.66 320.711 153.639 319.464 154.305 318.106 154.575 316.748 154.846 315.34 154.707 314.061 154.177 312.782 153.647 311.689 152.75 310.92 151.599 310.151 150.448 309.74 149.094 309.74 147.71 309.709 146.782 309.87 145.859 310.21 144.995 310.551 144.132 311.066 143.348 311.722 142.692 312.378 142.036 313.162 141.521 314.025 141.18 314.889 140.839 315.812 140.679 316.74 140.71V140.71ZM316.74 151.39C318.74 151.39 319.4 149.39 319.4 147.72 319.4 146.05 318.76 144.02 316.74 144.02 314.72 144.02 314.12 146.02 314.12 147.72 314.12 149.42 314.73 151.39 316.74 151.39V151.39ZM325.49 141.09H329.7V143.41H329.75C330.052 142.608 330.604 141.925 331.324 141.46 332.045 140.996 332.895 140.775 333.75 140.83 334.086 140.829 334.422 140.866 334.75 140.94V144.89C334.211 144.728 333.653 144.641 333.09 144.63 332.663 144.592 332.232 144.647 331.828 144.789 331.423 144.932 331.054 145.16 330.745 145.458 330.436 145.755 330.194 146.116 330.037 146.515 329.879 146.914 329.808 147.342 329.83 147.77V154.32H325.49V141.09ZM344.54 143.89H341.86V149.89C341.86 150.94 342.47 151.17 343.42 151.17 343.77 151.17 344.16 151.11 344.54 151.11V154.3C343.75 154.3 342.96 154.43 342.17 154.43 338.47 154.43 337.53 153.36 337.53 149.76V143.87H335.33V141.07H337.53V137.07H341.86V141.07H344.54V143.89ZM359.48 154.32H355.27V152.51C354.833 153.175 354.24 153.723 353.543 154.107 352.846 154.49 352.066 154.697 351.27 154.71 347.48 154.71 346.38 152.51 346.38 149.04V141.09H350.71V148.76C350.71 150.52 351.48 151.13 352.86 151.13 353.8 151.13 355.23 150.52 355.23 148.18V141.09H359.56L359.48 154.32ZM362.24 141.09H366.44V142.9H366.49C366.951 142.222 367.571 141.667 368.297 141.286 369.022 140.904 369.83 140.706 370.65 140.71 375.06 140.71 375.42 143.92 375.42 145.83V154.32H371.08V147.92C371.08 146.11 371.29 144.28 368.92 144.28 367.29 144.28 366.57 145.65 366.57 147.11V154.32H362.24V141.09ZM382.13 139.43H377.79V136.12H382.13V139.43ZM377.79 141.09H382.13V154.32H377.79V141.09ZM393 143.89H390.33V149.89C390.33 150.94 390.94 151.17 391.88 151.17 392.24 151.17 392.62 151.11 393 151.11V154.3C392.21 154.3 391.42 154.43 390.63 154.43 386.94 154.43 385.99 153.36 385.99 149.76V143.87H383.8V141.07H386V137.07H390.34V141.07H393V143.89ZM402.78 155.5C401.78 158.4 400.18 158.76 397.25 158.76H395.25V155.24H396.75C396.963 155.268 397.18 155.251 397.387 155.19 397.593 155.129 397.785 155.026 397.948 154.886 398.112 154.747 398.245 154.575 398.339 154.381 398.432 154.187 398.483 153.975 398.49 153.76 398.236 152.571 397.868 151.408 397.39 150.29L393.97 141.09H398.56L401.06 149.71H401.11L403.61 141.09H408L402.78 155.5ZM404.28 118.48H.0100098V119.48H404.28V118.48Z" fill="currentColor"/></svg>