<svg viewBox="0 0 305 28" fill="none" xmlns="http://www.w3.org/2000/svg"><path d="M247 1.3l-.1 25.3h-7L230.3 15l-.1 11.5h-8.3l.1-25.3h7l9.6 11.6.1-11.5h8.3zM268.7 17.6v9.2h-8.5v-9.3l-9.5-16.1h9l5.1 8.8 5.3-8.7h8.3l-9.7 16.1zM285.6 25.7c-2.1-1.1-3.8-2.7-5-4.7-1.2-2-1.8-4.3-1.8-6.9 0-2.6.6-4.8 1.9-6.9 1.2-2 2.9-3.6 5.1-4.7C288 1.4 290.4.8 293 .8c2.5 0 4.7.5 6.6 1.3 1.9.9 3.5 2.1 4.8 3.8l-5.4 4.8c-1.6-2-3.4-3-5.5-3-1.8 0-3.2.6-4.3 1.7-1.1 1.1-1.6 2.7-1.6 4.6 0 1.9.5 3.5 1.6 4.6 1.1 1.2 2.5 1.7 4.3 1.7 2.1 0 4-1 5.6-2.9l5.4 4.8c-1.3 1.6-2.9 2.9-4.8 3.7-1.9.9-4.1 1.3-6.6 1.3-3 .2-5.4-.4-7.5-1.5z" fill="currentColor"/><path d="M40.6.4l-8.4 25.3h-6.3L20.4 8.4l-5.8 17.1H8.3L.1.2h6.1L11.8 18 17.9.2h5.4l5.7 18L35 .3l5.6.1zM50.9 24.5c-2.1-1.1-3.8-2.7-4.9-4.7-1.2-2-1.8-4.2-1.8-6.7s.6-4.7 1.8-6.7c1.2-2 2.9-3.5 5-4.7C53.1.5 55.5 0 58.1 0c2.6 0 5 .6 7.1 1.7 2.1 1.1 3.7 2.7 4.9 4.7 1.2 2 1.8 4.2 1.8 6.7s-.6 4.7-1.8 6.7c-1.2 2-2.9 3.5-5 4.7-2.1 1.1-4.5 1.7-7.1 1.7-2.7 0-5-.6-7.1-1.7zm11.2-4.3c1.2-.7 2.2-1.6 2.9-2.9.7-1.2 1-2.6 1.1-4.2.1-1.6-.3-3-1-4.2-.7-1.2-1.6-2.2-2.8-2.9-1.2-.7-2.6-1-4.1-1.1-1.5 0-2.8.3-4.1 1-1.2.7-2.2 1.6-2.9 2.9-.7 1.2-1 2.6-1.1 4.2 0 1.6.3 3 1 4.2.7 1.2 1.6 2.2 2.8 2.9 1.2.7 2.6 1 4 1 1.6.1 2.9-.2 4.2-.9zM94.6 25.9l-4.9-7.1H84.3v7.1h-5.9L78.5.6h11c2.2 0 4.2.4 5.8 1.1 1.6.8 2.9 1.8 3.8 3.2.9 1.4 1.3 3 1.3 4.9 0 1.9-.5 3.5-1.4 4.9-.9 1.4-2.2 2.4-3.9 3.1l5.6 8.2-6.1-.1zM93.2 6.5c-.9-.8-2.3-1.2-4-1.2h-4.8v8.8h4.8c1.8 0 3.1-.4 4-1.1.9-.8 1.4-1.9 1.4-3.3-.1-1.3-.5-2.4-1.4-3.2zM117.7 16.1l-3.4 3.5V26h-5.8l.1-25.3h5.8l-.1 11.8L125.6.7h6.5L121.5 12l11.1 14.1h-6.8l-8.1-10zM139.5.8h5.9l-.1 25.3h-5.9l.1-25.3zM177.9 1l-.1 25.3H173l-12.6-15.4-.1 15.4h-5.8l.1-25.3h4.9L172 16.4l.2-15.4h5.7zM203.8 13.4h5.4v10.3c-1.4 1-3 1.8-4.8 2.4-1.8.6-3.6.8-5.5.8-2.6 0-5-.6-7.1-1.7-2.1-1.1-3.7-2.7-4.9-4.7-1.2-2-1.8-4.2-1.8-6.8 0-2.6.6-4.8 1.8-6.7 1.2-2 2.9-3.5 5-4.6 2.1-1.1 4.5-1.7 7.2-1.7 2.2 0 4.2.4 6 1.1 1.8.8 3.3 1.8 4.5 3.3l-3.8 3.5c-1.8-1.9-4-2.9-6.5-2.9-1.6 0-3.1.3-4.3 1-1.3.7-2.2 1.6-2.9 2.8-.7 1.2-1.1 2.6-1.1 4.2s.3 3 1 4.2c.7 1.2 1.7 2.2 2.9 2.9 1.2.7 2.7 1 4.2 1.1 1.7 0 3.2-.3 4.6-1.1l.1-7.4z"/></svg>