<?xml version="1.0" encoding="UTF-8"?><!DOCTYPE svg PUBLIC "-//W3C//DTD SVG 1.1//EN" "http://www.w3.org/Graphics/SVG/1.1/DTD/svg11.dtd"><svg xmlns="http://www.w3.org/2000/svg" xmlns:xlink="http://www.w3.org/1999/xlink"><defs/><symbol id="lucide-x" viewBox="0 0 24 24"><path d="M18 6 6 18M6 6 18 18"/></symbol><symbol id="lucide-volume-x" viewBox="0 0 24 24"><path d="M11 5 6 9 2 9 2 15 6 15 11 19 11 5zM22 9 16 15M16 9 22 15"/></symbol><symbol id="lucide-users" viewBox="0 0 24 24"><path d="M16 21v-2a4 4 0 0 0-4-4H6a4 4 0 0 0-4 4v2"/><circle cx="9" cy="7" r="4"/><path d="M22 21v-2a4 4 0 0 0-3-3.87M16 3.13a4 4 0 0 1 0 7.75"/></symbol><symbol id="lucide-user-x" viewBox="0 0 24 24"><path d="M16 21v-2a4 4 0 0 0-4-4H6a4 4 0 0 0-4 4v2"/><circle cx="9" cy="7" r="4"/><path d="M17 8 22 13M22 8 17 13"/></symbol><symbol id="lucide-user-check" viewBox="0 0 24 24"><path d="M16 21v-2a4 4 0 0 0-4-4H6a4 4 0 0 0-4 4v2"/><circle cx="9" cy="7" r="4"/><path d="M16 11 18 13 22 9"/></symbol><symbol id="lucide-twitter" viewBox="0 0 24 24"><path d="M22 4s-.7 2.1-2 3.4c1.6 10-9.4 17.3-18 11.6 2.2.1 4.4-.6 6-2C3 15.5.5 9.6 3 5c2.2 2.6 5.6 4.1 9 4-.9-4.2 4-6.6 7-3.8 1.1 0 3-1.2 3-1.2z"/></symbol><symbol id="lucide-thermometer-sun" viewBox="0 0 24 24"><path d="M12 9a4 4 0 0 0-2 7.5M12 3v2M6.6 18.4l-1.4 1.4M20 4v10.54a4 4 0 1 1-4 0V4a2 2 0 0 1 4 0ZM4 13H2M6.34 7.34 4.93 5.93"/></symbol><symbol id="lucide-sun" viewBox="0 0 24 24"><circle cx="12" cy="12" r="4"/><path d="M12 2v2M12 20v2M4.93 4.93l1.41 1.41M17.66 17.66l1.41 1.41M2 12h2M20 12h2M6.34 17.66l-1.41 1.41M19.07 4.93l-1.41 1.41"/></symbol><symbol id="lucide-sun-moon" viewBox="0 0 24 24"><path d="M12 16a4 4 0 1 0 0-8 4 4 0 0 0 0 8z"/><path d="M12 8a2.828 2.828 0 1 0 4 4M12 2v2M12 20v2M4.93 4.93l1.41 1.41M17.66 17.66l1.41 1.41M2 12h2M20 12h2M6.34 17.66l-1.41 1.41M19.07 4.93l-1.41 1.41"/></symbol><symbol id="lucide-shield-check" viewBox="0 0 24 24"><path d="M12 22s8-4 8-10V5l-8-3-8 3v7c0 6 8 10 8 10z"/><path d="m9 12 2 2 4-4"/></symbol><symbol id="lucide-share-2" viewBox="0 0 24 24"><circle cx="18" cy="5" r="3"/><circle cx="6" cy="12" r="3"/><circle cx="18" cy="19" r="3"/><path d="M8.59 13.51 15.42 17.49M15.41 6.51 8.59 10.49"/></symbol><symbol id="lucide-search" viewBox="0 0 24 24"><circle cx="11" cy="11" r="8"/><path d="M21 21 16.65 16.65"/></symbol><symbol id="lucide-regex" viewBox="0 0 24 24"><path d="M17 3v10M12.67 5.5l8.66 5M12.67 10.5l8.66-5M9 17a2 2 0 0 0-2-2H5a2 2 0 0 0-2 2v2a2 2 0 0 0 2 2h2a2 2 0 0 0 2-2v-2z"/></symbol><symbol id="lucide-package-x" viewBox="0 0 24 24"><path d="M21 10V8a2 2 0 0 0-1-1.73l-7-4a2 2 0 0 0-2 0l-7 4A2 2 0 0 0 3 8v8a2 2 0 0 0 1 1.73l7 4a2 2 0 0 0 2 0l2-1.14M16.5 9.4 7.55 4.24"/><path d="M3.29 7 12 12 20.71 7M12 22 12 12M17 13l5 5m-5 0 5-5"/></symbol><symbol id="lucide-package-search" viewBox="0 0 24 24"><path d="M21 10V8a2 2 0 0 0-1-1.73l-7-4a2 2 0 0 0-2 0l-7 4A2 2 0 0 0 3 8v8a2 2 0 0 0 1 1.73l7 4a2 2 0 0 0 2 0l2-1.14M16.5 9.4 7.55 4.24"/><path d="M3.29 7 12 12 20.71 7M12 22 12 12"/><circle cx="18.5" cy="15.5" r="2.5"/><path d="M20.27 17.27 22 19"/></symbol><symbol id="lucide-package-check" viewBox="0 0 24 24"><path d="m16 16 2 2 4-4"/><path d="M21 10V8a2 2 0 0 0-1-1.73l-7-4a2 2 0 0 0-2 0l-7 4A2 2 0 0 0 3 8v8a2 2 0 0 0 1 1.73l7 4a2 2 0 0 0 2 0l2-1.14M16.5 9.4 7.55 4.24"/><path d="M3.29 7 12 12 20.71 7M12 22 12 12"/></symbol><symbol id="lucide-moon" viewBox="0 0 24 24"><path d="M12 3a6.364 6.364 0 0 0 9 9 9 9 0 1 1-9-9Z"/></symbol><symbol id="lucide-menu" viewBox="0 0 24 24"><path d="M4 12 20 12M4 6 20 6M4 18 20 18"/></symbol><symbol id="lucide-map-pin" viewBox="0 0 24 24"><path d="M20 10c0 6-8 12-8 12s-8-6-8-12a8 8 0 0 1 16 0Z"/><circle cx="12" cy="10" r="3"/></symbol><symbol id="lucide-mail-x" viewBox="0 0 24 24"><path d="M22 13V6a2 2 0 0 0-2-2H4a2 2 0 0 0-2 2v12c0 1.1.9 2 2 2h9"/><path d="m22 7-8.97 5.7a1.94 1.94 0 0 1-2.06 0L2 7M17 17l4 4M21 17l-4 4"/></symbol><symbol id="lucide-mail-search" viewBox="0 0 24 24"><path d="M22 12.5V6a2 2 0 0 0-2-2H4a2 2 0 0 0-2 2v12c0 1.1.9 2 2 2h7.5"/><path d="m22 7-8.97 5.7a1.94 1.94 0 0 1-2.06 0L2 7M18 21a3 3 0 1 0 0-6 3 3 0 0 0 0 6v0Z"/><circle cx="18" cy="18" r="3"/><path d="m22 22-1.5-1.5"/></symbol><symbol id="lucide-mail-check" viewBox="0 0 24 24"><path d="M22 13V6a2 2 0 0 0-2-2H4a2 2 0 0 0-2 2v12c0 1.1.9 2 2 2h8"/><path d="m22 7-8.97 5.7a1.94 1.94 0 0 1-2.06 0L2 7M16 19l2 2 4-4"/></symbol><symbol id="lucide-list-x" viewBox="0 0 24 24"><path d="M11 12H3M16 6H3M16 18H3M19 10l-4 4M15 10l4 4"/></symbol><symbol id="lucide-info" viewBox="0 0 24 24"><circle cx="12" cy="12" r="10"/><path d="M12 16 12 12M12 8 12.01 8"/></symbol><symbol id="lucide-inbox" viewBox="0 0 24 24"><path d="M22 12 16 12 14 15 10 15 8 12 2 12"/><path d="M5.45 5.11 2 12v6a2 2 0 0 0 2 2h16a2 2 0 0 0 2-2v-6l-3.45-6.89A2 2 0 0 0 16.76 4H7.24a2 2 0 0 0-1.79 1.11z"/></symbol><symbol id="lucide-help-circle" viewBox="0 0 24 24"><circle cx="12" cy="12" r="10"/><path d="M9.09 9a3 3 0 0 1 5.83 1c0 2-3 3-3 3M12 17 12.01 17"/></symbol><symbol id="lucide-heart-handshake" viewBox="0 0 24 24"><path d="M20.42 4.58a5.4 5.4 0 0 0-7.65 0l-.77.78-.77-.78a5.4 5.4 0 0 0-7.65 0C1.46 6.7 1.33 10.28 4 13l8 8 8-8c2.67-2.72 2.54-6.3.42-8.42z"/><path d="M12 5.36 8.87 8.5a2.13 2.13 0 0 0 0 3h0a2.13 2.13 0 0 0 3 0l2.26-2.21a3 3 0 0 1 4.22 0l2.4 2.4M18 15l-2-2M15 18l-2-2"/></symbol><symbol id="lucide-folder-x" viewBox="0 0 24 24"><path d="M4 20h16a2 2 0 0 0 2-2V8a2 2 0 0 0-2-2h-7.93a2 2 0 0 1-1.66-.9l-.82-1.2A2 2 0 0 0 7.93 3H4a2 2 0 0 0-2 2v13c0 1.1.9 2 2 2ZM9.5 10.5l5 5M14.5 10.5l-5 5"/></symbol><symbol id="lucide-folder-search" viewBox="0 0 24 24"><path d="M11 20H4a2 2 0 0 1-2-2V5c0-1.1.9-2 2-2h3.93a2 2 0 0 1 1.66.9l.82 1.2a2 2 0 0 0 1.66.9H20a2 2 0 0 1 2 2v4"/><circle cx="17" cy="17" r="3"/><path d="m21 21-1.5-1.5"/></symbol><symbol id="lucide-folder-check" viewBox="0 0 24 24"><path d="M4 20h16a2 2 0 0 0 2-2V8a2 2 0 0 0-2-2h-7.93a2 2 0 0 1-1.66-.9l-.82-1.2A2 2 0 0 0 7.93 3H4a2 2 0 0 0-2 2v13c0 1.1.9 2 2 2Z"/><path d="m9 13 2 2 4-4"/></symbol><symbol id="lucide-file-x" viewBox="0 0 24 24"><path d="M14.5 2H6a2 2 0 0 0-2 2v16a2 2 0 0 0 2 2h12a2 2 0 0 0 2-2V7.5L14.5 2z"/><path d="M14 2 14 8 20 8M9.5 12.5 14.5 17.5M14.5 12.5 9.5 17.5"/></symbol><symbol id="lucide-file-search" viewBox="0 0 24 24"><path d="M4 22h14a2 2 0 0 0 2-2V7.5L14.5 2H6a2 2 0 0 0-2 2v3"/><path d="M14 2 14 8 20 8M5 17a3 3 0 1 0 0-6 3 3 0 0 0 0 6zM9 18l-1.5-1.5"/></symbol><symbol id="lucide-file-check" viewBox="0 0 24 24"><path d="M14.5 2H6a2 2 0 0 0-2 2v16a2 2 0 0 0 2 2h12a2 2 0 0 0 2-2V7.5L14.5 2z"/><path d="M14 2 14 8 20 8M9 15l2 2 4-4"/></symbol><symbol id="lucide-file-box" viewBox="0 0 24 24"><path d="M14.5 22H18a2 2 0 0 0 2-2V7.5L14.5 2H6a2 2 0 0 0-2 2v4"/><path d="M14 2 14 8 20 8M2.97 13.12c-.6.36-.97 1.02-.97 1.74v3.28c0 .72.37 1.38.97 1.74l3 1.83c.63.39 1.43.39 2.06 0l3-1.83c.6-.36.97-1.02.97-1.74v-3.28c0-.72-.37-1.38-.97-1.74l-3-1.83a1.97 1.97 0 0 0-2.06 0l-3 1.83ZM7 17l-4.74-2.85M7 17l4.74-2.85M7 17v5"/></symbol><symbol id="lucide-facebook" viewBox="0 0 24 24"><path d="M18 2h-3a5 5 0 0 0-5 5v3H7v4h3v8h4v-8h3l1-4h-4V7a1 1 0 0 1 1-1h3z"/></symbol><symbol id="lucide-external-link" viewBox="0 0 24 24"><path d="M18 13v6a2 2 0 0 1-2 2H5a2 2 0 0 1-2-2V8a2 2 0 0 1 2-2h6M15 3 21 3 21 9M10 14 21 3"/></symbol><symbol id="lucide-dollar-sign" viewBox="0 0 24 24"><path d="M12 2 12 22M17 5H9.5a3.5 3.5 0 0 0 0 7h5a3.5 3.5 0 0 1 0 7H6"/></symbol><symbol id="lucide-copy" viewBox="0 0 24 24"><rect x="9" y="9" width="13" height="13" rx="2" ry="2"/><path d="M5 15H4a2 2 0 0 1-2-2V4a2 2 0 0 1 2-2h9a2 2 0 0 1 2 2v1"/></symbol><symbol id="lucide-codesandbox" viewBox="0 0 24 24"><path d="M21 16V8a2 2 0 0 0-1-1.73l-7-4a2 2 0 0 0-2 0l-7 4A2 2 0 0 0 3 8v8a2 2 0 0 0 1 1.73l7 4a2 2 0 0 0 2 0l7-4A2 2 0 0 0 21 16z"/><path d="M7.5 4.21 12 6.81 16.5 4.21M7.5 19.79 7.5 14.6 3 12M21 12 16.5 14.6 16.5 19.79M3.27 6.96 12 12.01 20.73 6.96M12 22.08 12 12"/></symbol><symbol id="lucide-cloud-sun" viewBox="0 0 24 24"><path d="M12 2v2M4.93 4.93l1.41 1.41M20 12h2M19.07 4.93l-1.41 1.41M15.947 12.65a4 4 0 0 0-5.925-4.128M13 22H7a5 5 0 1 1 4.9-6H13a3 3 0 0 1 0 6Z"/></symbol><symbol id="lucide-cloud-moon" viewBox="0 0 24 24"><path d="M13 22H7a5 5 0 1 1 4.9-6H13a3 3 0 0 1 0 6ZM10.083 9A6.002 6.002 0 0 1 16 4a4.243 4.243 0 0 0 6 6c0 2.22-1.206 4.16-3 5.197"/></symbol><symbol id="lucide-clipboard" viewBox="0 0 24 24"><rect x="8" y="2" width="8" height="4" rx="1" ry="1"/><path d="M16 4h2a2 2 0 0 1 2 2v14a2 2 0 0 1-2 2H6a2 2 0 0 1-2-2V6a2 2 0 0 1 2-2h2"/></symbol><symbol id="lucide-clipboard-x" viewBox="0 0 24 24"><rect x="8" y="2" width="8" height="4" rx="1" ry="1"/><path d="M16 4h2a2 2 0 0 1 2 2v14a2 2 0 0 1-2 2H6a2 2 0 0 1-2-2V6a2 2 0 0 1 2-2h2M15 11l-6 6M9 11l6 6"/></symbol><symbol id="lucide-clipboard-copy" viewBox="0 0 24 24"><rect x="8" y="2" width="8" height="4" rx="1" ry="1"/><path d="M8 4H6a2 2 0 0 0-2 2v14a2 2 0 0 0 2 2h12a2 2 0 0 0 2-2v-2M16 4h2a2 2 0 0 1 2 2v4M21 14H11"/><path d="m15 10-4 4 4 4"/></symbol><symbol id="lucide-clipboard-check" viewBox="0 0 24 24"><rect x="8" y="2" width="8" height="4" rx="1" ry="1"/><path d="M16 4h2a2 2 0 0 1 2 2v14a2 2 0 0 1-2 2H6a2 2 0 0 1-2-2V6a2 2 0 0 1 2-2h2"/><path d="m9 14 2 2 4-4"/></symbol><symbol id="lucide-chevron-up" viewBox="0 0 24 24"><path d="M18 15 12 9 6 15"/></symbol><symbol id="lucide-chevron-right" viewBox="0 0 24 24"><path d="M9 18 15 12 9 6"/></symbol><symbol id="lucide-chevron-left" viewBox="0 0 24 24"><path d="M15 18 9 12 15 6"/></symbol><symbol id="lucide-chevron-last" viewBox="0 0 24 24"><path d="M7 18 13 12 7 6M17 6v12"/></symbol><symbol id="lucide-chevron-first" viewBox="0 0 24 24"><path d="M17 18 11 12 17 6M7 6v12"/></symbol><symbol id="lucide-chevron-down" viewBox="0 0 24 24"><path d="M6 9 12 15 18 9"/></symbol><symbol id="lucide-check" viewBox="0 0 24 24"><path d="M20 6 9 17 4 12"/></symbol><symbol id="lucide-calendar" viewBox="0 0 24 24"><rect x="3" y="4" width="18" height="18" rx="2" ry="2"/><path d="M16 2 16 6M8 2 8 6M3 10 21 10"/></symbol><symbol id="lucide-calendar-x" viewBox="0 0 24 24"><rect x="3" y="4" width="18" height="18" rx="2" ry="2"/><path d="M16 2 16 6M8 2 8 6M3 10 21 10M10 14 14 18M14 14 10 18"/></symbol><symbol id="lucide-calendar-search" viewBox="0 0 24 24"><path d="M21 12V6a2 2 0 0 0-2-2H5a2 2 0 0 0-2 2v14c0 1.1.9 2 2 2h7.5M16 2v4M8 2v4M3 10h18"/><path d="M18 21a3 3 0 1 0 0-6 3 3 0 0 0 0 6v0ZM22 22l-1.5-1.5"/></symbol><symbol id="lucide-calendar-check" viewBox="0 0 24 24"><rect x="3" y="4" width="18" height="18" rx="2" ry="2"/><path d="M16 2 16 6M8 2 8 6M3 10 21 10M9 16l2 2 4-4"/></symbol><symbol id="lucide-box" viewBox="0 0 24 24"><path d="M21 16V8a2 2 0 0 0-1-1.73l-7-4a2 2 0 0 0-2 0l-7 4A2 2 0 0 0 3 8v8a2 2 0 0 0 1 1.73l7 4a2 2 0 0 0 2 0l7-4A2 2 0 0 0 21 16z"/><path d="M3.29 7 12 12 20.71 7M12 22 12 12"/></symbol><symbol id="lucide-book-open-check" viewBox="0 0 24 24"><path d="M8 3H2v15h7c1.7 0 3 1.3 3 3V7c0-2.2-1.8-4-4-4ZM16 12l2 2 4-4"/><path d="M22 6V3h-6c-2.2 0-4 1.8-4 4v14c0-1.7 1.3-3 3-3h7v-2.3"/></symbol><symbol id="lucide-award" viewBox="0 0 24 24"><circle cx="12" cy="8" r="6"/><path d="M15.477 12.89 17 22l-5-3-5 3 1.523-9.11"/></symbol><symbol id="lucide-arrow-up" viewBox="0 0 24 24"><path d="M12 19 12 5M5 12 12 5 19 12"/></symbol><symbol id="lucide-arrow-up-right" viewBox="0 0 24 24"><path d="M7 17 17 7M7 7 17 7 17 17"/></symbol><symbol id="lucide-arrow-up-left" viewBox="0 0 24 24"><path d="M17 17 7 7M7 17 7 7 17 7"/></symbol><symbol id="lucide-arrow-up-down" viewBox="0 0 24 24"><path d="M11 17 7 21 3 17M7 21 7 9M21 7 17 3 13 7M17 15 17 3"/></symbol><symbol id="lucide-arrow-up-circle" viewBox="0 0 24 24"><circle cx="12" cy="12" r="10"/><path d="M16 12 12 8 8 12M12 16 12 8"/></symbol><symbol id="lucide-arrow-right" viewBox="0 0 24 24"><path d="M5 12 19 12M12 5 19 12 12 19"/></symbol><symbol id="lucide-arrow-right-circle" viewBox="0 0 24 24"><circle cx="12" cy="12" r="10"/><path d="M12 16 16 12 12 8M8 12 16 12"/></symbol><symbol id="lucide-arrow-left" viewBox="0 0 24 24"><path d="M19 12 5 12M12 19 5 12 12 5"/></symbol><symbol id="lucide-arrow-left-right" viewBox="0 0 24 24"><path d="M17 11 21 7 17 3M21 7 9 7M7 21 3 17 7 13M15 17 3 17"/></symbol><symbol id="lucide-arrow-left-circle" viewBox="0 0 24 24"><circle cx="12" cy="12" r="10"/><path d="M12 8 8 12 12 16M16 12 8 12"/></symbol><symbol id="lucide-arrow-down" viewBox="0 0 24 24"><path d="M12 5 12 19M19 12 12 19 5 12"/></symbol><symbol id="lucide-arrow-down-right" viewBox="0 0 24 24"><path d="M7 7 17 17M17 7 17 17 7 17"/></symbol><symbol id="lucide-arrow-down-left" viewBox="0 0 24 24"><path d="M17 7 7 17M17 17 7 17 7 7"/></symbol><symbol id="lucide-arrow-down-circle" viewBox="0 0 24 24"><circle cx="12" cy="12" r="10"/><path d="M8 12 12 16 16 12M12 8 12 16"/></symbol><symbol id="lucide-arrow-big-up" viewBox="0 0 24 24"><path d="M9 21V10H5l7-7 7 7h-4v11z"/></symbol><symbol id="lucide-arrow-big-right" viewBox="0 0 24 24"><path d="m21 12-7-7v4H3v6h11v4z"/></symbol><symbol id="lucide-arrow-big-left" viewBox="0 0 24 24"><path d="m3 12 7-7v4h11v6H10v4z"/></symbol><symbol id="lucide-arrow-big-down" viewBox="0 0 24 24"><path d="M9 3h6v11h4l-7 7-7-7h4z"/></symbol><symbol id="lucide-alert-triangle" viewBox="0 0 24 24"><path d="m21.73 18-8-14a2 2 0 0 0-3.48 0l-8 14A2 2 0 0 0 4 21h16a2 2 0 0 0 1.73-3ZM12 9 12 13M12 17 12.01 17"/></symbol><symbol id="lucide-alert-octagon" viewBox="0 0 24 24"><path d="M7.86 2 16.14 2 22 7.86 22 16.14 16.14 22 7.86 22 2 16.14 2 7.86 7.86 2zM12 8 12 12M12 16 12.01 16"/></symbol><symbol id="lucide-alert-circle" viewBox="0 0 24 24"><circle cx="12" cy="12" r="10"/><path d="M12 8 12 12M12 16 12.01 16"/></symbol><symbol id="lucide-alarm-check" viewBox="0 0 24 24"><path d="M12 21a8 8 0 1 0 0-16 8 8 0 0 0 0 16zM5 3 2 6M22 6l-3-3M6 19l-2 2M18 19l2 2"/><path d="m9 13 2 2 4-4"/></symbol></svg>