<svg width="56" height="20" viewBox="0 0 56 20" fill="none" xmlns="http://www.w3.org/2000/svg"><g clip-path="url(#clip0_605_1380)" fill="#080707"><path d="M54.2652 1.30887C54.3105 1.20819 54.3709 1.12765 54.4464 1.06221 54.5219.996767 54.6075.941394 54.7082.906157 54.8088.87092 54.9095.850784 55.0152.850784 55.1209.850784 55.2216.865886 55.3223.906157 55.423.941394 55.5085.996767 55.5841 1.06221 55.6596 1.13268 55.7149 1.21322 55.7653 1.30887 55.8106 1.40954 55.8307 1.51526 55.8307 1.63104 55.8307 1.74681 55.8055 1.86259 55.7653 1.95824 55.725 2.05388 55.6596 2.13946 55.5841 2.2049 55.5085 2.27537 55.423 2.32571 55.3223 2.36095 55.2216 2.39618 55.1209 2.41632 55.0152 2.41632 54.9095 2.41632 54.8088 2.40122 54.7082 2.36095 54.6075 2.32571 54.5219 2.27537 54.4464 2.2049 54.3709 2.13442 54.3155 2.05388 54.2652 1.95824 54.2148 1.86259 54.1997 1.75185 54.1997 1.63104 54.1997 1.51022 54.2249 1.40451 54.2652 1.30887ZM54.4615 1.88273C54.4917 1.95824 54.537 2.02871 54.5873 2.07905 54.6377 2.13442 54.7031 2.17973 54.7786 2.2049 54.8541 2.23007 54.9297 2.2502 55.0102 2.2502 55.0907 2.2502 55.1662 2.2351 55.2417 2.2049 55.3173 2.17469 55.3726 2.12939 55.433 2.07905 55.4834 2.02368 55.5337 1.95824 55.5589 1.88273 55.5841 1.80722 55.6042 1.72668 55.6042 1.63607 55.6042 1.54546 55.5891 1.46492 55.5589 1.38941 55.5287 1.3139 55.4834 1.24846 55.433 1.19309 55.3827 1.13772 55.3173 1.09241 55.2417 1.06724 55.1662 1.04207 55.0907 1.02194 55.0102 1.02194 54.9297 1.02194 54.8491 1.03704 54.7786 1.06724 54.7082 1.09744 54.6478 1.14275 54.5873 1.19309 54.537 1.24343 54.4867 1.3139 54.4615 1.38941 54.4313 1.46492 54.4162 1.54546 54.4162 1.63607 54.4162 1.72668 54.4313 1.80722 54.4615 1.88273ZM55.0253 1.18805C55.136 1.18805 55.2216 1.20316 55.277 1.24343 55.3324 1.2837 55.3676 1.35417 55.3676 1.44478 55.3676 1.48505 55.3626 1.52029 55.3525 1.55049 55.3424 1.5807 55.3223 1.60083 55.3022 1.62097 55.277 1.63607 55.2569 1.6562 55.2266 1.66124 55.1964 1.67131 55.1713 1.67634 55.136 1.67634L55.3726 2.06395H55.1864L54.975 1.68641H54.8642V2.06395H54.6931V1.19309H55.0303L55.0253 1.18805ZM55.0253 1.55049C55.0756 1.55049 55.1159 1.54546 55.1511 1.52532 55.1864 1.50519 55.1964 1.48002 55.1964 1.41961 55.1964 1.39444 55.1964 1.37934 55.1813 1.36424 55.1662 1.34914 55.1562 1.33907 55.1411 1.329 55.126 1.32397 55.1058 1.31893 55.0857 1.3139 55.0656 1.30887 55.0454 1.3139 55.0203 1.3139H54.8692V1.54546H55.0253V1.55049ZM52.604 19.144H40.3868C40.3868 19.144 40.3415 19.0937 40.3113 19.0635 39.2995 18.0517 38.2877 17.0348 37.2708 16.0331 37.2155 15.9777 37.1903 15.9173 37.1903 15.8368V9.01085L37.1399 8.97561C37.1248 9.01085 37.1097 9.05615 37.0896 9.08132 35.212 10.959 33.3343 12.8416 31.4517 14.7193 31.4013 14.7696 31.3762 14.825 31.3762 14.9005V18.1775C31.3762 18.253 31.351 18.3034 31.3006 18.3588L30.5053 19.1541H25.255C25.255 19.1541 25.2147 19.0987 25.1895 19.0736 24.958 18.842 24.7264 18.6054 24.4898 18.3739 24.4244 18.3084 24.3992 18.248 24.3992 18.1624V14.9106C24.3992 14.835 24.3841 14.7847 24.3287 14.7293 22.4461 12.8467 20.5634 10.964 18.6757 9.08132 18.6505 9.05615 18.6253 9.03602 18.5851 9.00078V18.1675C18.5851 18.248 18.5599 18.3084 18.5045 18.3638 18.2377 18.6256 17.981 18.8873 17.7192 19.1541H12.4689C12.338 19.0132 12.2072 18.8772 12.0712 18.7464L7.06253 13.7377C7.03233 13.7075 7.00716 13.6873 6.95682 13.647V18.1775C6.95682 18.2581 6.93165 18.3185 6.87628 18.3739 6.63968 18.6054 6.40309 18.842 6.17153 19.0786 6.14636 19.1038 6.13126 19.134 6.10609 19.1591H.870861C.604065 18.8873.332236 18.6205.0704743 18.3487.0352371 18.3084.00503388 18.243.00503388 18.1926 0 12.8265 0 7.47048 0 2.11444 0 2.04396.0251694 1.99362.0755082 1.94832.412778 1.60602.750048 1.27378 1.08732.931476 1.14269.876103 1.19806.855968 1.2786.855968H5.68828C5.77386.855968 5.83426.881137 5.89467.941544L11.5074 6.55432C11.5376 6.58452 11.5527 6.62982 11.5779 6.66506L11.6182 6.63486V2.11947C11.6182 2.03893 11.6434 1.98859 11.6937 1.92818 12.036 1.59091 12.3733 1.24861 12.7156.91134 12.7558.876103 12.8213.8459 12.8716.8459H17.3316C17.382.8459 17.4525.876103 17.4877.91134 17.83 1.24861 18.1622 1.58085 18.5045 1.92315 18.5347 1.95335 18.5599 1.97349 18.5901 2.00369L19.6875.906307C19.7227.871069 19.7882.840866 19.8385.840866H24.3086C24.3589.840866 24.4294.871069 24.4646.91134 24.812 1.25364 25.1543 1.59091 25.4916 1.93825 25.5268 1.97852 25.557 2.04396 25.557 2.0943V4.2186C25.557 4.29411 25.5822 4.34444 25.6325 4.39982 26.3624 5.11966 27.0873 5.84957 27.8122 6.57949 27.8373 6.60465 27.8575 6.62479 27.9028 6.66506 27.9279 6.62982 27.9431 6.58955 27.9733 6.56438 28.6881 5.84957 29.4079 5.1247 30.1278 4.40988 30.1831 4.35451 30.2083 4.28907 30.2083 4.20853V2.1094C30.2083 2.05403 30.2385 1.98356 30.2788 1.94329 30.6211 1.59595 30.9684 1.24861 31.3107.91134 31.346.876103 31.4013.855968 31.4517.855968H35.9318C35.9822.855968 36.0426.886171 36.0828.921408 36.4302 1.26371 36.7725 1.60098 37.1097 1.94329 37.1601 1.99362 37.1852 2.049 37.1802 2.1245V4.32934C37.2306 4.28404 37.2608 4.25383 37.291 4.22363 38.3883 3.12625 39.4908 2.02886 40.5881.926442 40.6435.871069 40.6989.850934 40.7794.850934H52.1812C52.2617.850934 52.312.876103 52.3725.931476 53.4296 1.98859 54.4867 3.05074 55.5488 4.10785V8.07455C55.5488 8.07455 55.4935 8.11482 55.4683 8.13999 55.2166 8.38665 54.9548 8.64338 54.7082 8.89507 54.6578 8.95044 54.5974 8.97561 54.5169 8.97561H48.8034V7.83795H44.1672V12.4691H48.8135V11.3164H54.537C54.5874 11.3164 54.6478 11.3466 54.688 11.3818 54.985 11.6637 55.2669 11.9607 55.5539 12.2476V16.2143C55.5539 16.2143 55.5035 16.2546 55.4784 16.2697 54.537 17.206 53.6007 18.1473 52.6594 19.0836 52.6342 19.1088 52.6191 19.1289 52.5939 19.1591H52.604V19.144Z"/></g><defs><clipPath id="clip0_605_1380"><path fill="#fff" transform="translate(0 .84)" d="M0 0H55.831V18.318H0z"/></clipPath></defs></svg>