<svg fill="none" height="10" viewBox="0 0 70 10" width="70" xmlns="http://www.w3.org/2000/svg"><clipPath id="a"><path d="m0 0h70v10h-70z"/></clipPath><mask id="b" height="10" maskUnits="userSpaceOnUse" width="70" x="0" y="0"><path d="m69.69 0h-69.69v9.8555h69.69z" fill="#fff"/></mask><g fill="#080707" mask="url(#b)" clip-path="url(#a)"><path d="M29.1721 1.05917c.0243-.04961.0568-.089298.0974-.121548.0406-.032245.0866-.059533.1407-.076899.0541-.017363.1082-.027288.165-.027288.0569 0 .111.007442.1651.027288.0542.017366.1002.044654.1408.076899.0405.03473.0703.074418.0974.121548.0243.04962.0351.10171.0351.15876 0 .05706-.0135.11411-.0351.16124-.0217.04714-.0569.08931-.0974.12155-.0406.03473-.0866.05954-.1408.0769-.0541.01737-.1082.02729-.1651.02729-.0568 0-.1109-.00744-.165-.02729-.0541-.01736-.1001-.04217-.1407-.0769s-.0704-.07441-.0974-.12155c-.0271-.04713-.0352-.1017-.0352-.16124 0-.05953.0135-.11162.0352-.15876zm.1055.28279c.0162.03721.0406.07194.0676.09675.0271.02728.0623.04961.1029.06201.0405.01241.0811.02233.1245.02233.0432 0 .0838-.00744.1244-.02233.0406-.01488.0704-.03721.1029-.06201.027-.02729.0541-.05954.0676-.09675.0136-.0372.0244-.0769.0244-.12155s-.0082-.08434-.0244-.12155-.0406-.06945-.0676-.09674c-.0271-.027289-.0623-.049614-.1029-.062018-.0406-.0124-.0812-.022325-.1244-.022325-.0434 0-.0866.007441-.1245.022325-.0379.014883-.0704.037212-.1029.062018-.027.02481-.0541.05953-.0676.09674-.0163.03721-.0244.0769-.0244.12155s.0081.08435.0244.12155zm.303-.342321c.0596 0 .1056.007441.1354.027291.0297.01984.0487.05457.0487.09922 0 .01984-.0027.03721-.0081.05209-.0055.01489-.0163.02481-.0271.03473-.0135.00744-.0244.01737-.0406.01985-.0162.00496-.0298.00744-.0487.00744l.1272.191h-.1001l-.1137-.18604h-.0595v.18604h-.092v-.42914h.1813zm0 .178601c.0271 0 .0488-.00248.0677-.0124.019-.00992.0244-.02233.0244-.05209 0-.01241 0-.01985-.0081-.02729-.0082-.00744-.0136-.0124-.0217-.01736-.0081-.00249-.0189-.00496-.0298-.00745-.0108-.00248-.0216 0-.0351 0h-.0812v.11411h.0838zM28.279 9.84808h-6.5677s-.0244-.02479-.0406-.03971c-.5439-.49858-1.0879-.99966-1.6345-1.49333-.0298-.02725-.0433-.05704-.0433-.09671v-3.36375l-.0271-.01733c-.0081.01733-.0162.03966-.027.05208-1.0094.92525-2.0188 1.853-3.0309 2.77829-.0271.02479-.0406.05209-.0406.0893v1.61487c0 .03721-.0135.06204-.0406.08933l-.4276.39192h-2.8225s-.0216-.02729-.0351-.03971c-.1245-.11408-.249-.23066-.3762-.34479-.0352-.03225-.0487-.062-.0487-.10417v-1.6025c0-.03721-.0081-.062-.0379-.08929-1.0121-.92775-2.0242-1.8555-3.039-2.78325-.0135-.01242-.027-.02233-.04865-.03971v4.51721c0 .03971-.01355.06946-.04332.09675-.14341.129-.28146.258-.42214.38946h-2.8225c-.07036-.06946-.14073-.13642-.21377-.20092l-2.69262-2.46821c-.01624-.01491-.02977-.02483-.05683-.04466v2.23254c0 .03971-.01353.06946-.0433.09675-.12718.11413-.25437.23071-.37886.34729-.01353.01242-.02165.02729-.03517.03971h-2.814381c-.143424-.13396-.289554-.26546-.4302732-.39942-.0189429-.01983-.03517967-.05208-.03517967-.07687-.00270613-2.64433-.00270613-5.28373-.00270613-7.9231 0-.03473.0135306-.05954.040592-.08186.181311-.16868.362621-.3324.543931-.501088.029768-.027287.059536-.037208.102832-.037208h2.370575c.046 0 .07847.0124.11095.042171l3.01735 2.765885c.01622.01489.02432.03721.03786.05458l.02164-.01489v-2.22511c0-.03969.01354-.0645.04059-.09427.18404-.1662.36536-.33488.54936-.501083.02164-.017362.05682-.032246.08391-.032246h2.39759c.02709 0 .06496.014884.08391.032246.184.166203.36264.329923.54664.498603.01622.01489.02977.02481.046.03969l.58997-.540772c.0189-.017362.0541-.032246.0812-.032246h2.403c.0271 0 .065.014884.0839.034725.1867.168683.3707.334883.552.506053.019.01984.0352.05209.0352.07689v1.04682c0 .03722.0135.06202.0406.08931.3924.35473.7821.71441 1.1718 1.07411.0135.0124.0243.02232.0487.04217.0135-.01737.0216-.03722.0379-.04962.3842-.35225.7712-.70945 1.1582-1.0617.0298-.02729.0433-.05954.0433-.09922v-1.03443c0-.02728.0162-.06201.0379-.08185.184-.17117.3707-.34233.5547-.508533.0189-.017362.0487-.027283.0758-.027283h2.4085c.027 0 .0595.014883.0811.032246.1868.16868.3708.33488.5521.50357.027.0248.0406.05209.0379.0893v1.08651c.027-.02233.0433-.03721.0595-.05209.59-.54078 1.1826-1.08155 1.7725-1.624811.0298-.027283.0595-.037208.1029-.037208h6.1293c.0433 0 .0704.012404.1028.039691.5684.520928 1.1366 1.044338 1.7076 1.565268v1.95474s-.0297.01983-.0433.03225c-.1353.12154-.276.24804-.4086.37208-.0271.02729-.0595.03971-.1028.03971h-3.0715v-.56063h-2.4923v2.28217h2.4977v-.56808h3.0769c.0271 0 .0595.01487.0812.03225.1596.13891.3112.28529.4655.42666v1.95475s-.0271.01984-.0407.02729c-.506.46138-1.0093.92525-1.5154 1.38667-.0135.01238-.0216.02229-.0352.03721h.0054zM36.2695 3.41089l2.0295 3.05611h.7199l2.0377-3.13797.0108 3.80776h1.5046l-.0216-6.347911h-1.3152l-2.5519 3.944201-2.5924-3.944201h-1.326v6.347911h1.5046zM51.4886 6.82423c.5709.28033 1.2096.42171 1.9132.42171.6009 0 1.145-.09675 1.6318-.29021.4873-.1935.8959-.47384 1.2259-.84342l-1.0281-.87071c-.4682.50109-1.05.75163-1.74.75163-.4278 0-.8119-.08684-1.1473-.258-.3359-.17363-.5982-.41175-.7877-.72184-.1869-.30758-.2814-.65983-.2814-1.05178 0-.39194.0945-.74419.2814-1.05179.1895-.30759.449-.54821.7877-.72185.3354-.17117.7195-.25799 1.1473-.25799.6927 0 1.2718.24806 1.74.74419l1.0281-.8707c-.33-.36217-.7359-.64-1.2204-.833488-.4841-.193492-1.0282-.290233-1.6264-.290233-.7118 0-1.3532.141395-1.9241.421701-.5709.28031-1.02.66977-1.345 1.17085-.3272.49861-.4895 1.06171-.4895 1.69179 0 .63005.1623 1.19318.4895 1.69176.3278.49863.7741.88809 1.345 1.17088zM57.2309 2.25739v4.87936h1.5455v-4.87936h-.7905zM58.005 1.57768c.2841 0 .5141-.0769.6927-.2307.1787-.1538.2682-.349772.2682-.58543 0-.218296-.0895-.39938-.2682-.543255-.1786-.1438762-.4086-.218295-.6927-.218295s-.5141.0768992-.6927.225736c-.1787.151318-.2677.337364-.2677.563102 0 .225742.089.411782.2677.563102.1786.15131.4086.22574.6927.22574zM60.3973 5.45983c0 .5755.1732 1.00963.5195 1.3048.3464.2952.8364.44404 1.4696.44404.2436 0 .4763-.02479.6981-.07692.2219-.05208.406-.12896.5601-.23067l-.4141-.9972c-.1705.12154-.3787.18108-.6223.18108-.2109 0-.3736-.05458-.49-.16871-.1164-.11162-.1732-.27037-.1732-.47625v-1.98451h1.3264v-1.08899h-1.3264v-1.18822h-1.5423v1.18822h-.82v1.08899h.82v2.00434z"/><path d="m68.2127 2.25739-1.5045 3.30915-1.4941-3.30915h-1.5936l2.3054 4.91411-.0191.04463c-.0213.04716-.0459.08933-.07.129-.0082.01487-.0191.02979-.0272.04466-.0028.00496-.0082.01242-.011.01738-.1513.24804-.46.71192-.46.71192-.2381.36962-.6736.59533-1.1418.59533h-17.82l.4628-.98975c.0486-.09179.0945-.18604.1409-.29025l2.4027-5.17703h-1.4827l-1.5046 3.30915-1.4939-3.30915h-1.5939l2.3055 4.91411-.0186.04463c-.0109.01987-.0191.03721-.03.05458l-.0268.04467-.1301.20341-.3843.59784c-.2382.36958-.6738.59533-1.142.59533h-9.1197l-.6575 1.14354h30.9281v-.00991c.7119-.05209 1.3396-.45642 1.6237-1.06417l.525-1.12371c.0354-.07196.0704-.14637.1059-.22329l2.4027-5.17703h-1.4827z"/></g></svg>