<svg width="48" height="48" viewBox="0 0 48 48" fill="none" xmlns="http://www.w3.org/2000/svg"><path d="M24 48C37.2548 48 48 37.2548 48 24C48 10.7452 37.2548 0 24 0C10.7452 0 0 10.7452 0 24C0 37.2548 10.7452 48 24 48Z"/><path d="M24 43.9998C35.0457 43.9998 44 35.0455 44 23.9998C44 12.9541 35.0457 3.99976 24 3.99976C12.9543 3.99976 3.99997 12.9541 3.99997 23.9998C3.99997 35.0455 12.9543 43.9998 24 43.9998Z" fill="currentColor"/><path fill-rule="evenodd" clip-rule="evenodd" d="M19.3839 14.3663C19.1163 14.0392 18.6718 13.9157 18.2738 14.0578C17.8757 14.1999 17.61 14.5769 17.61 14.9996V22.0896C17.61 22.6419 18.0577 23.0896 18.61 23.0896C19.1623 23.0896 19.61 22.6419 19.61 22.0896V17.8006L23.6461 22.7329C23.9138 23.06 24.3582 23.1835 24.7562 23.0413C25.1543 22.8992 25.42 22.5222 25.42 22.0996V14.9996C25.42 14.4473 24.9723 13.9996 24.42 13.9996C23.8677 13.9996 23.42 14.4473 23.42 14.9996V19.2985L19.3839 14.3663ZM11 13.9996H15.71C16.2623 13.9996 16.71 14.4473 16.71 14.9996C16.71 15.5519 16.2623 15.9996 15.71 15.9996H12V17.5495H15.5C16.0523 17.5495 16.5 17.9972 16.5 18.5495C16.5 19.1017 16.0523 19.5495 15.5 19.5495H12V21.0953L15.7058 21.0796C16.2581 21.0773 16.7077 21.5231 16.71 22.0753C16.7124 22.6276 16.2666 23.0772 15.7143 23.0796L11.0043 23.0996C10.452 23.1019 10.0024 22.6561 10 22.1038C9.99979 22.0444 10.0047 21.9862 10.0144 21.9296C10.005 21.8743 10 21.8175 10 21.7596V18.5495V14.9996C10 14.4473 10.4477 13.9996 11 13.9996ZM27.86 23.4597C27.3752 23.4597 26.9602 23.8075 26.8754 24.2848L25.2556 33.403L23.1473 30.298C22.8371 29.8411 22.2152 29.7221 21.7583 30.0324C21.3014 30.3426 21.1825 30.9645 21.4927 31.4214L24.9827 36.5614C25.2112 36.898 25.6209 37.0626 26.0188 36.9777C26.4167 36.8927 26.7234 36.5752 26.7946 36.1746L28.698 25.4597H38.87C39.4223 25.4597 39.87 25.012 39.87 24.4597C39.87 23.9074 39.4223 23.4597 38.87 23.4597H27.86ZM32.3901 28.3156C32.0069 27.918 31.3738 27.9062 30.9761 28.2894C30.5784 28.6726 30.5667 29.3057 30.9499 29.7034L32.2949 31.0992L30.9425 32.5335C30.5636 32.9353 30.5821 33.5682 30.984 33.9471C31.3858 34.326 32.0187 34.3074 32.3976 33.9056L33.6843 32.5411L34.9199 33.8234C35.3031 34.2211 35.9362 34.2328 36.3339 33.8496C36.7316 33.4664 36.7433 32.8333 36.3601 32.4357L35.058 31.0843L36.3676 29.6956C36.7465 29.2938 36.7279 28.6609 36.3261 28.282C35.9243 27.9031 35.2914 27.9217 34.9125 28.3235L33.6686 29.6425L32.3901 28.3156Z" fill="#fff"/></svg>