<svg width="60" height="60" viewBox="0 0 60 60" fill="none" xmlns="http://www.w3.org/2000/svg"><rect width="60" height="60" rx="30" fill="#E3F1FD"/><path d="M40.3333 23.5417L19.6667 23.5417C18.2399 23.5417 17.0833 24.6983 17.0833 26.125L17.0833 39.0417C17.0833 40.4684 18.2399 41.625 19.6667 41.625L40.3333 41.625C41.7601 41.625 42.9167 40.4684 42.9167 39.0417L42.9167 26.125C42.9167 24.6983 41.7601 23.5417 40.3333 23.5417Z" stroke="#031837" stroke-width="2" stroke-linecap="round" stroke-linejoin="round"/><path d="M35.1667 41.625L35.1667 20.9583C35.1667 20.2732 34.8945 19.6161 34.41 19.1316C33.9256 18.6472 33.2685 18.375 32.5833 18.375L27.4167 18.375C26.7315 18.375 26.0744 18.6472 25.59 19.1316C25.1055 19.6161 24.8333 20.2732 24.8333 20.9583L24.8333 41.625" stroke="#031837" stroke-width="2" stroke-linecap="round" stroke-linejoin="round"/></svg>