<svg viewBox="0 0 48 48" fill="none" xmlns="http://www.w3.org/2000/svg"><path d="M24 48C37.2548 48 48 37.2548 48 24C48 10.7452 37.2548 0 24 0C10.7452 0 0 10.7452 0 24C0 37.2548 10.7452 48 24 48Z"/><path d="M24 44C35.0457 44 44 35.0457 44 24C44 12.9543 35.0457 4 24 4C12.9543 4 4 12.9543 4 24C4 35.0457 12.9543 44 24 44Z" fill="currentColor"/><path d="M30.68 12.2503C29.9 12.2503 29.16 12.3903 28.47 12.6503C27.62 10.5203 25.54 9.01025 23.11 9.01025C20.01 9.01025 17.48 11.4603 17.35 14.5303C17 14.4603 16.63 14.4203 16.26 14.4203C13.27 14.4203 10.85 16.8403 10.85 19.8303C10.85 22.8203 13.27 25.2403 16.26 25.2403H30.69C34.28 25.2403 37.18 22.3303 37.18 18.7503C37.18 15.1703 34.27 12.2603 30.69 12.2603L30.68 12.2503Z" fill="#fff"/><path clip-rule="evenodd" d="M20.03 18.9956C20.8281 18.9956 21.475 19.6426 21.475 20.4406V22.4656H26.525V20.4406C26.525 19.6426 27.172 18.9956 27.97 18.9956C28.7681 18.9956 29.415 19.6426 29.415 20.4406L29.415 23.9106V28.8403V33.8903L29.415 37.5006C29.415 38.2987 28.7681 38.9456 27.97 38.9456C27.172 38.9456 26.525 38.2987 26.525 37.5006V35.3353H21.475V37.5006C21.475 38.2987 20.8281 38.9456 20.03 38.9456C19.232 38.9456 18.585 38.2987 18.585 37.5006V20.4406C18.585 19.6426 19.232 18.9956 20.03 18.9956ZM21.475 32.4453H26.525V30.2853H21.475V32.4453ZM26.525 25.3556V27.3953H21.475V25.3556H26.525Z"/><path fill-rule="evenodd" clip-rule="evenodd" d="M21.475 32.4452H26.525V30.2852H21.475V32.4452ZM26.525 25.3555V27.3952H21.475V25.3555H26.525Z" fill="currentColor"/></svg>