<svg width="48" height="48" viewBox="0 0 48 48" fill="none" xmlns="http://www.w3.org/2000/svg"><path d="M24 48C37.2548 48 48 37.2548 48 24C48 10.7452 37.2548 0 24 0C10.7452 0 0 10.7452 0 24C0 37.2548 10.7452 48 24 48Z"/><path d="M24 44C35.0457 44 44 35.0457 44 24C44 12.9543 35.0457 4 24 4C12.9543 4 4 12.9543 4 24C4 35.0457 12.9543 44 24 44Z" fill="currentColor"/><path d="M12.16 16.3098H35.24C36.48 16.3098 37.49 17.3198 37.49 18.5598V29.3798C37.49 30.6198 36.48 31.6298 35.24 31.6298H12.75C11.51 31.6298 10.5 30.6198 10.5 29.3798V17.9698C10.5 17.0498 11.24 16.3098 12.16 16.3098Z" fill="#fff"/><path d="M34.76 24.8272C34.76 22.1072 32.55 19.8972 29.83 19.8972C27.11 19.8972 24.9 22.1072 24.9 24.8272C24.9 26.5372 25.77 28.0372 27.09 28.9172V34.7572C27.09 34.9472 27.25 35.0772 27.4 35.0072L29.74 33.8972C29.79 33.8672 29.85 33.8672 29.91 33.8972L32.25 35.0072C32.4 35.0772 32.56 34.9472 32.56 34.7572V28.9172C33.88 28.0372 34.75 26.5272 34.75 24.8272H34.76Z"/><path d="M22.17 21.7803H13.78V20.3203H22.17V21.7803ZM22.17 24.6504H13.78V23.1904H22.17V24.6504ZM13.78 27.5105H22.17V26.0505H13.78V27.5105Z" fill="currentColor"/></svg>