<svg width="61" height="60" viewBox="0 0 61 60" fill="none" xmlns="http://www.w3.org/2000/svg"><rect x=".319" y=".006" width="60" height="60" rx="30" fill="#E3F1FD"/><path d="M39.0691 32.5063C40.9316 30.6813 42.8191 28.4938 42.8191 25.6313C42.8191 23.808 42.0948 22.0593 40.8055 20.77C39.5162 19.4807 37.7675 18.7563 35.9441 18.7563C33.7441 18.7563 32.1941 19.3813 30.3191 21.2563C28.4441 19.3813 26.8941 18.7563 24.6941 18.7563C22.8708 18.7563 21.1221 19.4807 19.8328 20.77C18.5435 22.0593 17.8191 23.808 17.8191 25.6313C17.8191 28.5063 19.6941 30.6938 21.5691 32.5063L30.3191 41.2563L39.0691 32.5063Z" stroke="#031837" stroke-width="2" stroke-linecap="round" stroke-linejoin="round"/><path d="M30.3191 21.2563 26.6191 24.9563C26.3652 25.2085 26.1636 25.5084 26.026 25.8388 25.8885 26.1691 25.8177 26.5235 25.8177 26.8813 25.8177 27.2392 25.8885 27.5936 26.026 27.9239 26.1636 28.2543 26.3652 28.5542 26.6191 28.8063 27.6441 29.8313 29.2816 29.8688 30.3691 28.8938L32.9566 26.5188C33.6052 25.9303 34.4496 25.6043 35.3254 25.6043 36.2011 25.6043 37.0456 25.9303 37.6941 26.5188L41.3941 29.8438M37.8191 33.7563 35.3191 31.2563M34.0691 37.5063 31.5691 35.0063" stroke="#031837" stroke-width="2" stroke-linecap="round" stroke-linejoin="round"/></svg>