<svg fill="none" height="60" viewBox="0 0 61 60" width="61" xmlns="http://www.w3.org/2000/svg"><rect fill="#e3f1fd" height="60" rx="30" width="60" x=".319" y=".006"/><g stroke="#031837" stroke-linecap="round" stroke-linejoin="round" stroke-width="2"><path d="M26.5691 30.0063h.0125M34.0691 30.0063h.0125M27.8191 35.0063c.625.375 1.5.625 2.5.625s1.875-.25 2.5-.625"/><path d="m39.0691 22.8813c1.1325 1.4196 1.9045 3.0923 2.25 4.875.4227.2048.7792.5244 1.0286.9223.2494.398.3817.8581.3817 1.3277 0 .4697-.1323.9298-.3817 1.3278-.2494.3979-.6059.7175-1.0286.9222-.5396 2.5169-1.926 4.7726-3.9279 6.3907-2.0018 1.6181-4.498 2.5009-7.0721 2.5009-2.574 0-5.0702-.8828-7.0721-2.5009-2.0018-1.6181-3.3882-3.8738-3.9279-6.3907-.4227-.2047-.7791-.5243-1.0285-.9222-.2495-.398-.3818-.8581-.3818-1.3278 0-.4696.1323-.9297.3818-1.3277.2494-.3979.6058-.7175 1.0285-.9223.5179-2.5368 1.8949-4.8174 3.8988-6.457s4.512-2.5377 7.1012-2.543c2.5 0 4.375 1.375 4.375 3.125s-1.125 3.125-2.5 3.125c-1 0-1.875-.5-1.875-1.25"/></g></svg>