<svg width="61" height="60" viewBox="0 0 61 60" fill="none" xmlns="http://www.w3.org/2000/svg"><rect x=".319" y=".006" width="60" height="60" rx="30" fill="#E3F1FD"/><path d="M37.8191 17.5063L22.8191 17.5063C22.1561 17.5063 21.5202 17.7697 21.0514 18.2386C20.5825 18.7074 20.3191 19.3433 20.3191 20.0063L20.3191 40.0063C20.3191 40.6694 20.5825 41.3053 21.0514 41.7741C21.5202 42.243 22.1561 42.5063 22.8191 42.5063L37.8191 42.5063C38.4822 42.5063 39.118 42.243 39.5869 41.7741C40.0557 41.3053 40.3191 40.6694 40.3191 40.0063L40.3191 20.0063C40.3191 19.3433 40.0557 18.7074 39.5869 18.2386C39.118 17.7697 38.4822 17.5063 37.8191 17.5063Z" stroke="#031837" stroke-width="2" stroke-linecap="round" stroke-linejoin="round"/><path d="M26.5691 35.0064 27.0041 34.7064C28.8354 33.4402 31.8041 33.4402 33.6341 34.7064L34.0691 35.0064M25.3191 23.7563 25.3316 23.7563M35.3191 23.7563 35.3316 23.7563M30.3191 23.7563 30.3316 23.7563M30.3191 28.7563 30.3316 28.7563M35.3191 28.7563 35.3316 28.7563M25.3191 28.7563 25.3316 28.7563M27.8191 42.5063 27.8191 34.3813M32.8191 34.3813 32.8191 42.5063" stroke="#031837" stroke-width="2" stroke-linecap="round" stroke-linejoin="round"/></svg>