<svg width="60" height="60" viewBox="0 0 60 60" fill="none" xmlns="http://www.w3.org/2000/svg"><rect width="60" height="60" rx="30" fill="#E3F1FD"/><path d="M30 41.1751C31.875 41.1751 33.4375 42.5001 35 42.5001C38.75 42.5001 42.5 32.5001 42.5 27.2251C42.4574 25.606 41.7765 24.0694 40.6058 22.9502C39.4351 21.8309 37.8694 21.2198 36.25 21.2501C33.475 21.2501 31.25 23.0501 30 23.7501C28.75 23.0501 26.525 21.2501 23.75 21.2501C22.1297 21.2165 20.5621 21.8265 19.3907 22.9464C18.2192 24.0664 17.5393 25.6049 17.5 27.2251C17.5 32.5001 21.25 42.5001 25 42.5001C26.5625 42.5001 28.125 41.1751 30 41.1751Z" stroke="#031837" stroke-width="2" stroke-linecap="round" stroke-linejoin="round"/><path d="M27.5 17.5C28.75 18.125 30 20 30 23.75" stroke="#031837" stroke-width="2" stroke-linecap="round" stroke-linejoin="round"/></svg>