<svg fill="none" height="60" viewBox="0 0 61 60" width="61" xmlns="http://www.w3.org/2000/svg"><rect fill="#e3f1fd" height="60" rx="30" width="60" x=".319" y=".006"/><path clip-rule="evenodd" d="m24.5546 17.5361c-.2584-.344-.708-.4841-1.1161-.3479-.4082.1363-.6834.5183-.6834.9486v8.0147c0 .5523.4477 1 1 1s1-.4477 1-1v-5.0188l4.2302 5.6307c.2585.344.708.4842 1.1161.3479.4082-.1362.6834-.5182.6834-.9485v-8.026c0-.5523-.4477-1-1-1s-1 .4477-1 1v5.0301zm-8.6977-.3993h4.8882c.5522 0 1 .4477 1 1s-.4478 1-1 1h-3.8882v2.0128h3.6702c.5523 0 1 .4477 1 1s-.4477 1-1 1h-3.6702v2.0086l3.8835-.018c.5523-.0026 1.0021.4431 1.0047.9954.0025.5522-.4431 1.002-.9954 1.0046l-4.8881.0226c-.5523.0025-1.0021-.4431-1.0047-.9954-.0003-.0673.0061-.1331.0185-.1968-.0121-.0622-.0185-.1264-.0185-.1922v-3.6288-4.0128c0-.5523.4477-1 1-1zm17.498 10.6939c-.4902 0-.9081.3553-.987.8391l-1.6993 10.4194-2.2146-3.5528c-.2922-.4686-.9089-.6117-1.3776-.3196-.4687.2922-.6118.909-.3196 1.3777l3.6219 5.8103c.2204.3535.6368.5334 1.0453.4515.4084-.0819.7233-.4084.7903-.8195l1.9907-12.2061h10.5763c.5523 0 1-.4477 1-1 0-.5522-.4477-1-1-1zm4.7027 5.4807c-.366-.4137-.998-.4524-1.4116-.0864-.4137.3659-.4523.9979-.0864 1.4115l1.5025 1.6984-1.5096 1.7436c-.3614.4175-.316 1.0491.1016 1.4106.4175.3614 1.049.316 1.4105-.1015l1.3344-1.5414 1.2807 1.4477c.366.4136.998.4523 1.4116.0864.4137-.366.4523-.998.0864-1.4116l-1.4579-1.648 1.465-1.6922c.3615-.4176.316-1.0491-.1015-1.4106-.4176-.3615-1.0491-.316-1.4106.1015l-1.2899 1.49z" fill="#031837" fill-rule="evenodd"/></svg>