<svg width="20" height="20" viewBox="0 0 20 20" fill="none" xmlns="http://www.w3.org/2000/svg"><g id="base icon"><path id="Union" d="M13.2053 10.9483H4.112C3.84599 10.9483 3.62149 10.8568 3.43852 10.6738C3.25555 10.4909 3.16406 10.2664 3.16406 10.0004C3.16406 9.73437 3.25555 9.50988 3.43852 9.32691C3.62149 9.14394 3.84599 9.05245 4.112 9.05245H13.2053L9.31625 5.16341C9.12633 4.97349 9.03401 4.75082 9.03929 4.49539C9.04458 4.23996 9.14219 4.01729 9.3321 3.82737C9.52202 3.65134 9.74469 3.56068 10.0001 3.55539C10.2556 3.55011 10.4782 3.64243 10.6681 3.83235L16.1681 9.33235C16.2615 9.42564 16.3296 9.5292 16.3726 9.64304C16.4157 9.75686 16.4372 9.87597 16.4372 10.0004C16.4372 10.1248 16.4157 10.2439 16.3726 10.3577C16.3296 10.4715 16.2615 10.5751 16.1681 10.6684L10.6632 16.1734C10.4838 16.3527 10.2646 16.4424 10.0056 16.4424C9.74651 16.4424 9.52202 16.3527 9.3321 16.1734C9.14219 15.9835 9.04723 15.7581 9.04723 15.4974C9.04723 15.2367 9.14219 15.0114 9.3321 14.8215L13.2053 10.9483Z" fill="#30374F"/></g></svg>