<?xml version="1.0" encoding="UTF-8"?><!DOCTYPE svg PUBLIC "-//W3C//DTD SVG 1.1//EN" "http://www.w3.org/Graphics/SVG/1.1/DTD/svg11.dtd"><svg xmlns="http://www.w3.org/2000/svg" xmlns:xlink="http://www.w3.org/1999/xlink"><defs><clipPath id="clip0_4244_93116"><rect width="50" height="50" rx="25" fill="#fff"/></clipPath></defs><symbol id="program-card-work" viewBox="0 0 60 60"><rect width="60" height="60" rx="30" fill="#E3F1FD"/><path d="M40.3333 23.5417L19.6667 23.5417C18.2399 23.5417 17.0833 24.6983 17.0833 26.125L17.0833 39.0417C17.0833 40.4684 18.2399 41.625 19.6667 41.625L40.3333 41.625C41.7601 41.625 42.9167 40.4684 42.9167 39.0417L42.9167 26.125C42.9167 24.6983 41.7601 23.5417 40.3333 23.5417Z" stroke="#031837" stroke-width="2" stroke-linecap="round" stroke-linejoin="round"/><path d="M35.1667 41.625L35.1667 20.9583C35.1667 20.2732 34.8945 19.6161 34.41 19.1316C33.9256 18.6472 33.2685 18.375 32.5833 18.375L27.4167 18.375C26.7315 18.375 26.0744 18.6472 25.59 19.1316C25.1055 19.6161 24.8333 20.2732 24.8333 20.9583L24.8333 41.625" stroke="#031837" stroke-width="2" stroke-linecap="round" stroke-linejoin="round"/></symbol><symbol id="program-card-people-disabilities" viewBox="0 0 48 48"><path d="M24 48C37.2548 48 48 37.2548 48 24C48 10.7452 37.2548 0 24 0C10.7452 0 0 10.7452 0 24C0 37.2548 10.7452 48 24 48Z"/><path d="M24 44C35.0457 44 44 35.0457 44 24C44 12.9543 35.0457 4 24 4C12.9543 4 4 12.9543 4 24C4 35.0457 12.9543 44 24 44Z" fill="currentColor"/><path d="M24.1209 10 29.3766 14.0777 35.6291 12.0842 33.3637 18.3367 37.2602 23.6831 30.5546 23.5018 26.6581 28.7576 24.8458 22.4145 18.5933 20.3303 24.0302 16.615 24.1209 10V10ZM14.4305 24.4075 18.1458 27.3072 22.6766 25.948 21.0455 30.3882 23.8546 34.2847 19.052 34.1034 16.2429 37.9999 14.8836 33.3785 10.3528 31.838 14.3399 29.2101 14.4305 24.4075V24.4075Z" fill="#fff"/></symbol><symbol id="program-card-identification" viewBox="0 0 48 48"><path d="M24 48C37.2548 48 48 37.2548 48 24C48 10.7452 37.2548 0 24 0C10.7452 0 0 10.7452 0 24C0 37.2548 10.7452 48 24 48Z"/><path d="M24 44.0003C35.0457 44.0003 44 35.0459 44 24.0002C44 12.9545 35.0457 4.00024 24 4.00024C12.9543 4.00024 4.00003 12.9545 4.00003 24.0002C4.00003 35.0459 12.9543 44.0003 24 44.0003Z" fill="currentColor"/><rect x="10" y="15" width="28" height="18" rx="1.051" fill="#fff"/><path d="M35.0002 25H27.0002V27H35.0002V25ZM35.0003 20.9998H27.0003V22.9998H35.0003V20.9998ZM13 18H25V30H13z" fill="currentColor"/><path d="M14 30C14 29.8922 14 29.6765 14 29.5686C14 26.9803 16.2093 24.9312 19 24.9312C21.7907 24.9312 24 26.9803 24 29.5686C24 29.6765 24 29.8922 24 30" fill="#fff"/><path d="M19 25.5C20.6569 25.5 22 24.1569 22 22.5C22 20.8431 20.6569 19.5 19 19.5C17.3432 19.5 16 20.8431 16 22.5C16 24.1569 17.3432 25.5 19 25.5Z" fill="#fff"/></symbol><symbol id="program-card-housing" viewBox="0 0 61 60"><rect x=".319" y=".006" width="60" height="60" rx="30" fill="#E3F1FD"/><path d="M37.8191 17.5063L22.8191 17.5063C22.1561 17.5063 21.5202 17.7697 21.0514 18.2386C20.5825 18.7074 20.3191 19.3433 20.3191 20.0063L20.3191 40.0063C20.3191 40.6694 20.5825 41.3053 21.0514 41.7741C21.5202 42.243 22.1561 42.5063 22.8191 42.5063L37.8191 42.5063C38.4822 42.5063 39.118 42.243 39.5869 41.7741C40.0557 41.3053 40.3191 40.6694 40.3191 40.0063L40.3191 20.0063C40.3191 19.3433 40.0557 18.7074 39.5869 18.2386C39.118 17.7697 38.4822 17.5063 37.8191 17.5063Z" stroke="#031837" stroke-width="2" stroke-linecap="round" stroke-linejoin="round"/><path d="M26.5691 35.0064 27.0041 34.7064C28.8354 33.4402 31.8041 33.4402 33.6341 34.7064L34.0691 35.0064M25.3191 23.7563 25.3316 23.7563M35.3191 23.7563 35.3316 23.7563M30.3191 23.7563 30.3316 23.7563M30.3191 28.7563 30.3316 28.7563M35.3191 28.7563 35.3316 28.7563M25.3191 28.7563 25.3316 28.7563M27.8191 42.5063 27.8191 34.3813M32.8191 34.3813 32.8191 42.5063" stroke="#031837" stroke-width="2" stroke-linecap="round" stroke-linejoin="round"/></symbol><symbol id="program-card-health" viewBox="0 0 48 48"><path d="M24 48C37.2548 48 48 37.2548 48 24C48 10.7452 37.2548 0 24 0C10.7452 0 0 10.7452 0 24C0 37.2548 10.7452 48 24 48Z"/><path d="M24 44C35.0457 44 44 35.0457 44 24C44 12.9543 35.0457 4 24 4C12.9543 4 4 12.9543 4 24C4 35.0457 12.9543 44 24 44Z" fill="currentColor"/><path d="M35.3334 26.6668L24 38.0001L12.6666 26.6668C9.53701 23.5371 9.53701 18.463 12.6666 15.3334C15.7963 12.2038 20.8704 13.2038 24 16.3334C27.1296 13.2038 32.2037 12.2038 35.3334 15.3334C38.463 18.463 38.463 23.5371 35.3334 26.6668Z" fill="#fff"/><path fill="currentColor" d="M22 20H26V30H22z"/><path transform="rotate(90 29 23)" fill="currentColor" d="M29 23H33V33H29z"/></symbol><symbol id="program-card-government" viewBox="0 0 50 50"><g clip-path="url(#clip0_4244_93116)"><rect width="50" height="50" rx="25" fill="#E3F1FD"/><rect x="-5" y="-5" width="60" height="60" rx="30" fill="#E3F1FD"/><path d="M18 31V24H20V31H18ZM24 31V24H26V31H24ZM15 35V33H35V35H15ZM30 31V24H32V31H30ZM15 22V20L25 15L35 20V22H15ZM19.45 20H30.55L25 17.25L19.45 20Z" fill="#000"/></g></symbol><symbol id="program-card-food" viewBox="0 0 60 60"><rect width="60" height="60" rx="30" fill="#E3F1FD"/><path d="M30 41.1751C31.875 41.1751 33.4375 42.5001 35 42.5001C38.75 42.5001 42.5 32.5001 42.5 27.2251C42.4574 25.606 41.7765 24.0694 40.6058 22.9502C39.4351 21.8309 37.8694 21.2198 36.25 21.2501C33.475 21.2501 31.25 23.0501 30 23.7501C28.75 23.0501 26.525 21.2501 23.75 21.2501C22.1297 21.2165 20.5621 21.8265 19.3907 22.9464C18.2192 24.0664 17.5393 25.6049 17.5 27.2251C17.5 32.5001 21.25 42.5001 25 42.5001C26.5625 42.5001 28.125 41.1751 30 41.1751Z" stroke="#031837" stroke-width="2" stroke-linecap="round" stroke-linejoin="round"/><path d="M27.5 17.5C28.75 18.125 30 20 30 23.75" stroke="#031837" stroke-width="2" stroke-linecap="round" stroke-linejoin="round"/></symbol><symbol id="program-card-family-services" viewBox="0 0 48 48"><path d="M24 48C37.2548 48 48 37.2548 48 24C48 10.7452 37.2548 0 24 0C10.7452 0 0 10.7452 0 24C0 37.2548 10.7452 48 24 48Z"/><path d="M24 44C35.0457 44 44 35.0457 44 24C44 12.9543 35.0457 4 24 4C12.9543 4 4 12.9543 4 24C4 35.0457 12.9543 44 24 44Z" fill="currentColor"/><ellipse cx="24" cy="29.5" rx="11" ry="8.5" fill="#fff"/><circle cx="24" cy="16" r="6" fill="#fff"/><ellipse cx="24" cy="35.5" rx="6" ry="4.5" fill="currentColor"/><circle cx="24" cy="28" r="4" fill="currentColor"/></symbol><symbol id="program-card-enrichment" viewBox="0 0 48 48"><path d="M24 48C37.2548 48 48 37.2548 48 24C48 10.7452 37.2548 0 24 0C10.7452 0 0 10.7452 0 24C0 37.2548 10.7452 48 24 48Z"/><path d="M24 44C35.0457 44 44 35.0457 44 24C44 12.9543 35.0457 4 24 4C12.9543 4 4 12.9543 4 24C4 35.0457 12.9543 44 24 44Z" fill="currentColor"/><path d="M24 31C27.866 31 31 27.866 31 24C31 20.134 27.866 17 24 17C20.134 17 17 20.134 17 24C17 27.866 20.134 31 24 31Z" fill="#fff"/><path stroke="#fff" stroke-width="2" stroke-linecap="round" d="M24 10 24 14M38 24 34 24M24 34 24 38M14 24 10 24M34.314 14.101 31.485 16.929M16.636 31.778 13.808 34.607M33.9 34.314 31.071 31.485M16.222 16.636 13.393 13.808"/></symbol><symbol id="program-card-english-math" viewBox="0 0 61 60"><rect x=".319" y=".006" width="60" height="60" rx="30" fill="#E3F1FD"/><path fill-rule="evenodd" clip-rule="evenodd" d="M24.5546 17.5361C24.2962 17.1921 23.8466 17.052 23.4385 17.1882C23.0303 17.3245 22.7551 17.7065 22.7551 18.1368L22.7551 26.1515C22.7551 26.7038 23.2028 27.1515 23.7551 27.1515C24.3074 27.1515 24.7551 26.7038 24.7551 26.1515L24.7551 21.1327L28.9853 26.7634C29.2438 27.1074 29.6933 27.2476 30.1014 27.1113C30.5096 26.9751 30.7848 26.5931 30.7848 26.1628L30.7848 18.1368C30.7848 17.5845 30.3371 17.1368 29.7848 17.1368C29.2325 17.1368 28.7848 17.5845 28.7848 18.1368L28.7848 23.1669L24.5546 17.5361ZM15.8569 17.1368L20.7451 17.1368C21.2973 17.1368 21.7451 17.5845 21.7451 18.1368C21.7451 18.6891 21.2973 19.1368 20.7451 19.1368L16.8569 19.1368L16.8569 21.1496L20.5271 21.1496C21.0794 21.1496 21.5271 21.5973 21.5271 22.1496C21.5271 22.7019 21.0794 23.1496 20.5271 23.1496L16.8569 23.1496L16.8569 25.1582L20.7404 25.1402C21.2927 25.1376 21.7425 25.5833 21.7451 26.1356C21.7476 26.6878 21.302 27.1376 20.7497 27.1402L15.8616 27.1628C15.3093 27.1653 14.8595 26.7197 14.8569 26.1674C14.8566 26.1001 14.863 26.0343 14.8754 25.9706C14.8633 25.9084 14.8569 25.8442 14.8569 25.7784L14.8569 22.1496L14.8569 18.1368C14.8569 17.5845 15.3046 17.1368 15.8569 17.1368ZM33.3549 27.8307C32.8647 27.8307 32.4468 28.186 32.3679 28.6698L30.6686 39.0892L28.454 35.5364C28.1618 35.0678 27.5451 34.9247 27.0764 35.2168C26.6077 35.509 26.4646 36.1258 26.7568 36.5945L30.3787 42.4048C30.5991 42.7583 31.0155 42.9382 31.424 42.8563C31.8324 42.7744 32.1473 42.4479 32.2143 42.0368L34.205 29.8307L44.7813 29.8307C45.3336 29.8307 45.7813 29.383 45.7813 28.8307C45.7813 28.2785 45.3336 27.8307 44.7813 27.8307L33.3549 27.8307ZM38.0576 33.3114C37.6916 32.8977 37.0596 32.859 36.646 33.225C36.2323 33.5909 36.1937 34.2229 36.5596 34.6365L38.0621 36.3349L36.5525 38.0785C36.1911 38.496 36.2365 39.1276 36.6541 39.4891C37.0716 39.8505 37.7031 39.8051 38.0646 39.3876L39.399 37.8462L40.6797 39.2939C41.0457 39.7075 41.6777 39.7462 42.0913 39.3803C42.505 39.0143 42.5436 38.3823 42.1777 37.9687L40.7198 36.3207L42.1848 34.6285C42.5463 34.2109 42.5008 33.5794 42.0833 33.2179C41.6657 32.8564 41.0342 32.9019 40.6727 33.3194L39.3828 34.8094L38.0576 33.3114Z" fill="#031837"/></symbol><symbol id="program-card-education" viewBox="0 0 61 60"><rect x=".319" y=".006" width="60" height="60" rx="30" fill="#E3F1FD"/><path fill-rule="evenodd" clip-rule="evenodd" d="M24.5546 17.5361C24.2962 17.1921 23.8466 17.052 23.4385 17.1882C23.0303 17.3245 22.7551 17.7065 22.7551 18.1368L22.7551 26.1515C22.7551 26.7038 23.2028 27.1515 23.7551 27.1515C24.3074 27.1515 24.7551 26.7038 24.7551 26.1515L24.7551 21.1327L28.9853 26.7634C29.2438 27.1074 29.6933 27.2476 30.1014 27.1113C30.5096 26.9751 30.7848 26.5931 30.7848 26.1628L30.7848 18.1368C30.7848 17.5845 30.3371 17.1368 29.7848 17.1368C29.2325 17.1368 28.7848 17.5845 28.7848 18.1368L28.7848 23.1669L24.5546 17.5361ZM15.8569 17.1368L20.7451 17.1368C21.2973 17.1368 21.7451 17.5845 21.7451 18.1368C21.7451 18.6891 21.2973 19.1368 20.7451 19.1368L16.8569 19.1368L16.8569 21.1496L20.5271 21.1496C21.0794 21.1496 21.5271 21.5973 21.5271 22.1496C21.5271 22.7019 21.0794 23.1496 20.5271 23.1496L16.8569 23.1496L16.8569 25.1582L20.7404 25.1402C21.2927 25.1376 21.7425 25.5833 21.7451 26.1356C21.7476 26.6878 21.302 27.1376 20.7497 27.1402L15.8616 27.1628C15.3093 27.1653 14.8595 26.7197 14.8569 26.1674C14.8566 26.1001 14.863 26.0343 14.8754 25.9706C14.8633 25.9084 14.8569 25.8442 14.8569 25.7784L14.8569 22.1496L14.8569 18.1368C14.8569 17.5845 15.3046 17.1368 15.8569 17.1368ZM33.3549 27.8307C32.8647 27.8307 32.4468 28.186 32.3679 28.6698L30.6686 39.0892L28.454 35.5364C28.1618 35.0678 27.5451 34.9247 27.0764 35.2168C26.6077 35.509 26.4646 36.1258 26.7568 36.5945L30.3787 42.4048C30.5991 42.7583 31.0155 42.9382 31.424 42.8563C31.8324 42.7744 32.1473 42.4479 32.2143 42.0368L34.205 29.8307L44.7813 29.8307C45.3336 29.8307 45.7813 29.383 45.7813 28.8307C45.7813 28.2785 45.3336 27.8307 44.7813 27.8307L33.3549 27.8307ZM38.0576 33.3114C37.6916 32.8977 37.0596 32.859 36.646 33.225C36.2323 33.5909 36.1937 34.2229 36.5596 34.6365L38.0621 36.3349L36.5525 38.0785C36.1911 38.496 36.2365 39.1276 36.6541 39.4891C37.0716 39.8505 37.7031 39.8051 38.0646 39.3876L39.399 37.8462L40.6797 39.2939C41.0457 39.7075 41.6777 39.7462 42.0913 39.3803C42.505 39.0143 42.5436 38.3823 42.1777 37.9687L40.7198 36.3207L42.1848 34.6285C42.5463 34.2109 42.5008 33.5794 42.0833 33.2179C41.6657 32.8564 41.0342 32.9019 40.6727 33.3194L39.3828 34.8094L38.0576 33.3114Z" fill="#031837"/></symbol><symbol id="program-card-child-care" viewBox="0 0 61 60"><rect fill="#e3f1fd" height="60" rx="30" width="60" x=".319" y=".006"/><g stroke="#031837" stroke-linecap="round" stroke-linejoin="round" stroke-width="2"><path d="M26.5691 30.0063h.0125M34.0691 30.0063h.0125M27.8191 35.0063c.625.375 1.5.625 2.5.625s1.875-.25 2.5-.625"/><path d="m39.0691 22.8813c1.1325 1.4196 1.9045 3.0923 2.25 4.875.4227.2048.7792.5244 1.0286.9223.2494.398.3817.8581.3817 1.3277 0 .4697-.1323.9298-.3817 1.3278-.2494.3979-.6059.7175-1.0286.9222-.5396 2.5169-1.926 4.7726-3.9279 6.3907-2.0018 1.6181-4.498 2.5009-7.0721 2.5009-2.574 0-5.0702-.8828-7.0721-2.5009-2.0018-1.6181-3.3882-3.8738-3.9279-6.3907-.4227-.2047-.7791-.5243-1.0285-.9222-.2495-.398-.3818-.8581-.3818-1.3278 0-.4696.1323-.9297.3818-1.3277.2494-.3979.6058-.7175 1.0285-.9223.5179-2.5368 1.8949-4.8174 3.8988-6.457s4.512-2.5377 7.1012-2.543c2.5 0 4.375 1.375 4.375 3.125s-1.125 3.125-2.5 3.125c-1 0-1.875-.5-1.875-1.25"/></g></symbol><symbol id="program-card-certification" viewBox="0 0 48 48"><path d="M24 48C37.2548 48 48 37.2548 48 24C48 10.7452 37.2548 0 24 0C10.7452 0 0 10.7452 0 24C0 37.2548 10.7452 48 24 48Z"/><path d="M24 44C35.0457 44 44 35.0457 44 24C44 12.9543 35.0457 4 24 4C12.9543 4 4 12.9543 4 24C4 35.0457 12.9543 44 24 44Z" fill="currentColor"/><path d="M12.16 16.3098H35.24C36.48 16.3098 37.49 17.3198 37.49 18.5598V29.3798C37.49 30.6198 36.48 31.6298 35.24 31.6298H12.75C11.51 31.6298 10.5 30.6198 10.5 29.3798V17.9698C10.5 17.0498 11.24 16.3098 12.16 16.3098Z" fill="#fff"/><path d="M34.76 24.8272C34.76 22.1072 32.55 19.8972 29.83 19.8972C27.11 19.8972 24.9 22.1072 24.9 24.8272C24.9 26.5372 25.77 28.0372 27.09 28.9172V34.7572C27.09 34.9472 27.25 35.0772 27.4 35.0072L29.74 33.8972C29.79 33.8672 29.85 33.8672 29.91 33.8972L32.25 35.0072C32.4 35.0772 32.56 34.9472 32.56 34.7572V28.9172C33.88 28.0372 34.75 26.5272 34.75 24.8272H34.76Z"/><path d="M22.17 21.7803H13.78V20.3203H22.17V21.7803ZM22.17 24.6504H13.78V23.1904H22.17V24.6504ZM13.78 27.5105H22.17V26.0505H13.78V27.5105Z" fill="currentColor"/></symbol><symbol id="program-card-cash-expenses" viewBox="0 0 48 48"><path d="M24 48C37.2548 48 48 37.2548 48 24C48 10.7452 37.2548 0 24 0C10.7452 0 0 10.7452 0 24C0 37.2548 10.7452 48 24 48Z"/><path d="M24 44C35.0457 44 44 35.0457 44 24C44 12.9543 35.0457 4 24 4C12.9543 4 4 12.9543 4 24C4 35.0457 12.9543 44 24 44Z" fill="currentColor"/><path d="M23.5 32C27.6421 32 31 28.6421 31 24.5C31 20.3579 27.6421 17 23.5 17C19.3579 17 16 20.3579 16 24.5C16 28.6421 19.3579 32 23.5 32Z" fill="currentColor"/><rect x="10" y="15" width="28" height="18" rx="1" fill="#fff"/><circle cx="24" cy="24" r="8" fill="currentColor"/><path d="M21 27.1351C21 27.1351 22.3636 28 24.2727 28C25.3636 28 27 27.5676 27 26.2703C27 25.1892 26.0641 24.7101 24 23.8919C23.8405 23.8287 23.4545 23.6757 22.9091 23.4595C21.8182 23.027 21.5455 22.3784 21.5455 21.7297C21.5455 20.9496 22.3636 20 24.2727 20C25.5818 20 26.6364 20.5766 27 20.8649" stroke="#fff" stroke-width="1.5" fill="transparent"/><path d="M24 20 24 18M24 30 24 28" stroke="#fff" stroke-width="1.5"/></symbol><symbol id="program-card-career-services" viewBox="0 0 61 60"><rect x=".319" y=".006" width="60" height="60" rx="30" fill="#E3F1FD"/><path d="M39.0691 32.5063C40.9316 30.6813 42.8191 28.4938 42.8191 25.6313C42.8191 23.808 42.0948 22.0593 40.8055 20.77C39.5162 19.4807 37.7675 18.7563 35.9441 18.7563C33.7441 18.7563 32.1941 19.3813 30.3191 21.2563C28.4441 19.3813 26.8941 18.7563 24.6941 18.7563C22.8708 18.7563 21.1221 19.4807 19.8328 20.77C18.5435 22.0593 17.8191 23.808 17.8191 25.6313C17.8191 28.5063 19.6941 30.6938 21.5691 32.5063L30.3191 41.2563L39.0691 32.5063Z" stroke="#031837" stroke-width="2" stroke-linecap="round" stroke-linejoin="round"/><path d="M30.3191 21.2563 26.6191 24.9563C26.3652 25.2085 26.1636 25.5084 26.026 25.8388 25.8885 26.1691 25.8177 26.5235 25.8177 26.8813 25.8177 27.2392 25.8885 27.5936 26.026 27.9239 26.1636 28.2543 26.3652 28.5542 26.6191 28.8063 27.6441 29.8313 29.2816 29.8688 30.3691 28.8938L32.9566 26.5188C33.6052 25.9303 34.4496 25.6043 35.3254 25.6043 36.2011 25.6043 37.0456 25.9303 37.6941 26.5188L41.3941 29.8438M37.8191 33.7563 35.3191 31.2563M34.0691 37.5063 31.5691 35.0063" stroke="#031837" stroke-width="2" stroke-linecap="round" stroke-linejoin="round"/></symbol><symbol id="nyco-languages" viewBox="0 0 24 24"><path d="M3 16C4.5 15.1667 8 12.5 10 9.5C12 6.5 11.5 4 11.5 4M14.5 4H8.5M2.5 4H8.5M8.5 4V2.5M4.5 7C5.5 10 7.5 12.5 10 14.5M12 21L13.35 18M21 21L19.65 18M13.35 18L16.5 10.5C17.7302 13.2337 18.4198 15.2663 19.65 18M13.35 18H19.65"/></symbol><symbol id="nyco-accessibility" viewBox="0 0 24 24"><path d="M20.0888 10.975C19.8251 10.7044 19.4566 10.5616 19.0801 10.5822L14.5227 10.8359 17.0307 7.97945C17.388 7.57256 17.4901 7.03016 17.352 6.54548 17.2791 6.21336 17.0779 5.91117 16.7689 5.7181 16.7595 5.71133 10.7739 2.23419 10.7739 2.23419 10.2852 1.95027 9.66928 2.01282 9.24749 2.38903L6.32364 4.99716C5.78494 5.47765 5.73777 6.30387 6.21829 6.8426 6.69886 7.38126 7.52511 7.42858 8.06377 6.94791L10.2805 4.97059 12.113 6.03475 8.8783 9.71873C7.53699 9.93748 6.33014 10.5556 5.38275 11.4467L7.07193 13.1359C7.83553 12.4416 8.84942 12.0178 9.96041 12.0178 12.3301 12.0178 14.2581 13.9458 14.2581 16.3155 14.2581 17.4265 13.8343 18.4403 13.14 19.2039L14.8291 20.8931C15.9543 19.6969 16.6449 18.0874 16.6449 16.3155 16.6449 15.2599 16.3998 14.2616 15.964 13.3738L17.7281 13.2756 17.299 18.5394C17.2403 19.2589 17.7761 19.8896 18.4956 19.9483 18.5316 19.9513 18.5676 19.9527 18.6032 19.9527 19.2769 19.9527 19.8489 19.435 19.9045 18.7517L20.4553 11.9935C20.4861 11.6169 20.3524 11.2455 20.0888 10.975ZM17.668 5.37585C18.8763 5.37585 19.8557 4.39632 19.8557 3.18794 19.8557 1.97963 18.8763 1 17.668 1 16.4596 1 15.4801 1.97963 15.4801 3.18794 15.4801 4.39632 16.4595 5.37585 17.668 5.37585ZM9.96055 20.6132C7.59079 20.6132 5.66283 18.6852 5.66283 16.3155 5.66283 15.4224 5.93685 14.5923 6.40493 13.9043L4.69752 12.1969C3.80786 13.3322 3.276 14.7614 3.276 16.3155 3.276 20.0073 6.26874 23 9.96055 23 11.5147 23 12.9438 22.4681 14.079 21.5785L12.3717 19.8711C11.6837 20.3391 10.8536 20.6132 9.96055 20.6132Z" fill="currentColor"/></symbol><symbol id="logo-nyc" viewBox="0 0 456 152"><path d="M446.505 66.3803 456 57.0104V28.5052L427.495 0H332.505L304 28.5052V9.51562L294.505 0H256.505L247.01 9.51562V28.5052L228 47.5156 209.01 28.5052V9.51562L199.495 0H161.495L152 9.51562 142.505 0H104.505L95.0104 9.51562V47.5156L47.4948 0H9.49479L0 9.51562V142.505L9.49479 152H47.4948L57.0104 142.505V104.505L104.505 152H142.505L152 142.505V66.5052L199.495 114V142.505L209.01 152H247.01L256.505 142.505V114L304 66.5052V123.516L332.505 152H427.495L456 123.516V95.0104L446.505 85.4948H398.99V95.0104H361.01V57.0104H398.99V66.3803H446.505ZM449.233 6.41315C450.128 6.41315 450.899 6.32986 450.899 5.28876 450.899 4.41424 450.045 4.31013 449.337 4.31013H447.9V6.41315H449.233ZM447.921 10.4942H446.734V3.31068H449.462C451.19 3.31068 452.085 3.91452 452.085 5.37205 452.085 6.68383 451.294 7.20438 450.211 7.32931L452.231 10.4942H450.899L449.045 7.4126H447.942V10.4942H447.921ZM449.191 1.41589C446.38 1.41589 444.194 3.62301 444.194 6.78794 444.194 9.74466 446.11 12.16 449.191 12.16 451.981 12.16 454.168 9.9737 454.168 6.78794 454.168 3.62301 451.981 1.41589 449.191 1.41589ZM449.191 13.2844C445.464 13.2844 442.799 10.4942 442.799 6.78794 442.799 2.87342 445.756.291504 449.191.291504 452.585.291504 455.542 2.87342 455.542 6.78794 455.563 10.6816 452.606 13.2844 449.191 13.2844Z" fill="currentColor"/></symbol><symbol id="favicon"><path id="favicon" d="M262.562 8.28859V24.4295V56.7114L221.428 97.2819V121.711L213.113 130H237.619L262.125 154.43V178.859L253.81 186.711H212.676V178.859H179.855V211.141H212.676V202.852H253.81L262.125 211.141V235.57L237.619 260H155.787L131.281 234.698V153.993L155.787 129.564H180.293L171.978 121.275V96.8456L131.281 56.7114V121.275L122.967 129.564H90.1464L49.0116 88.9933V121.275L40.6972 129.564H8.31448L0 121.275V7.85235L8.31448 0H41.1348L82.2695 40.5705V8.28859L90.1464 0H122.967L131.281 8.28859L139.596 0H172.416L180.73 8.28859V24.4295L196.922 40.5705L213.551 24.4295V8.28859L221.428 0H254.248L262.562 8.28859ZM257.311 140.47C254.248 140.47 251.622 138.289 251.622 134.799C251.622 131.309 254.248 129.128 257.311 129.128C260.374 129.128 263 131.309 263 134.799C262.562 138.289 259.937 140.47 257.311 140.47ZM257.311 130.436C254.686 130.436 252.935 132.181 252.935 134.799C252.935 137.416 254.686 139.597 257.311 139.597C259.937 139.597 261.687 137.852 261.687 134.799C261.25 132.181 259.499 130.436 257.311 130.436ZM255.998 138.289H255.123V132.181H257.311C258.624 132.181 259.499 132.617 259.499 133.926C259.499 135.235 258.624 135.671 257.749 135.671L259.499 138.289H258.186L256.436 135.671H255.561V138.289H255.998ZM257.311 134.799C258.186 134.799 258.624 134.799 258.624 133.926C258.624 133.054 257.749 133.054 257.311 133.054H255.998V134.799H257.311Z"/><style>#favicon{fill:#217ceb}@media (prefers-color-scheme:light){#favicon{fill:#004cbe}}</style></symbol></svg>