<?xml version="1.0" encoding="UTF-8"?><!DOCTYPE svg PUBLIC "-//W3C//DTD SVG 1.1//EN" "http://www.w3.org/Graphics/SVG/1.1/DTD/svg11.dtd"><svg xmlns="http://www.w3.org/2000/svg" xmlns:xlink="http://www.w3.org/1999/xlink"><defs/><symbol id="program-card-work" viewBox="0 0 48 48"><path d="M24 48C37.2548 48 48 37.2548 48 24C48 10.7452 37.2548 0 24 0C10.7452 0 0 10.7452 0 24C0 37.2548 10.7452 48 24 48Z"/><path d="M24 44C35.0457 44 44 35.0457 44 24C44 12.9543 35.0457 4 24 4C12.9543 4 4 12.9543 4 24C4 35.0457 12.9543 44 24 44Z" fill="currentColor"/><ellipse cx="21.5" cy="29" rx="10.5" ry="8" fill="#fff"/><circle cx="21.5" cy="15.5" r="6.5" fill="#fff"/><path d="M30.5 37.75C34.5041 37.75 37.75 34.5041 37.75 30.5C37.75 26.4959 34.5041 23.25 30.5 23.25C26.4959 23.25 23.25 26.4959 23.25 30.5C23.25 34.5041 26.4959 37.75 30.5 37.75Z" fill="currentColor" stroke="#fff" stroke-width="1.5"/><path d="M30.5178 30.7789H29.7678V31.1099L30.0123 31.3329L30.5178 30.7789ZM30.0123 31.3329L32.9945 34.054L34.0055 32.946L31.0233 30.2249L30.0123 31.3329ZM31.2678 30.7789V25.5H29.7678V30.7789H31.2678Z" fill="#fff"/></symbol><symbol id="program-card-people-disabilities" viewBox="0 0 48 48"><path d="M24 48C37.2548 48 48 37.2548 48 24C48 10.7452 37.2548 0 24 0C10.7452 0 0 10.7452 0 24C0 37.2548 10.7452 48 24 48Z"/><path d="M24 44C35.0457 44 44 35.0457 44 24C44 12.9543 35.0457 4 24 4C12.9543 4 4 12.9543 4 24C4 35.0457 12.9543 44 24 44Z" fill="currentColor"/><path d="M24.1209 10 29.3766 14.0777 35.6291 12.0842 33.3637 18.3367 37.2602 23.6831 30.5546 23.5018 26.6581 28.7576 24.8458 22.4145 18.5933 20.3303 24.0302 16.615 24.1209 10V10ZM14.4305 24.4075 18.1458 27.3072 22.6766 25.948 21.0455 30.3882 23.8546 34.2847 19.052 34.1034 16.2429 37.9999 14.8836 33.3785 10.3528 31.838 14.3399 29.2101 14.4305 24.4075V24.4075Z" fill="#fff"/></symbol><symbol id="program-card-identification" viewBox="0 0 48 48"><path d="M24 48C37.2548 48 48 37.2548 48 24C48 10.7452 37.2548 0 24 0C10.7452 0 0 10.7452 0 24C0 37.2548 10.7452 48 24 48Z"/><path d="M24 44.0003C35.0457 44.0003 44 35.0459 44 24.0002C44 12.9545 35.0457 4.00024 24 4.00024C12.9543 4.00024 4.00003 12.9545 4.00003 24.0002C4.00003 35.0459 12.9543 44.0003 24 44.0003Z" fill="currentColor"/><rect x="10" y="15" width="28" height="18" rx="1.051" fill="#fff"/><path d="M35.0002 25H27.0002V27H35.0002V25ZM35.0003 20.9998H27.0003V22.9998H35.0003V20.9998ZM13 18H25V30H13z" fill="currentColor"/><path d="M14 30C14 29.8922 14 29.6765 14 29.5686C14 26.9803 16.2093 24.9312 19 24.9312C21.7907 24.9312 24 26.9803 24 29.5686C24 29.6765 24 29.8922 24 30" fill="#fff"/><path d="M19 25.5C20.6569 25.5 22 24.1569 22 22.5C22 20.8431 20.6569 19.5 19 19.5C17.3432 19.5 16 20.8431 16 22.5C16 24.1569 17.3432 25.5 19 25.5Z" fill="#fff"/></symbol><symbol id="program-card-housing" viewBox="0 0 48 48"><path d="M24 48C37.2548 48 48 37.2548 48 24C48 10.7452 37.2548 0 24 0C10.7452 0 0 10.7452 0 24C0 37.2548 10.7452 48 24 48Z"/><path d="M24 44C35.0457 44 44 35.0457 44 24C44 12.9543 35.0457 4 24 4C12.9543 4 4 12.9543 4 24C4 35.0457 12.9543 44 24 44Z" fill="currentColor"/><path d="M33 13H23V35H33V13Z" fill="#fff"/><path d="M27 27H25V29H27V27ZM27 31H25V33H27V31ZM31 27H29V29H31V27ZM31 31H29V33H31V31ZM27 23H25V25H27V23ZM31 23H29V25H31V23ZM27 19H25V21H27V19ZM31 19H29V21H31V19ZM27 15H25V17H27V15ZM31 15H29V17H31V15Z" fill="currentColor"/><path d="M24 35H12V26.9394L18 22.5L23.9241 26.8545L24 26.9394V35Z" fill="#fff"/><path d="M19 27 19 29 21 29 21 27 19 27ZM19 31 19 33 21 33 21 31 19 31ZM15 27 15 29 17 29 17 27 15 27ZM15 31 15 33 17 33 17 31 15 31Z" fill="currentColor"/><path fill="#fff" d="M22 12H34V13H22z"/></symbol><symbol id="program-card-health" viewBox="0 0 48 48"><path d="M24 48C37.2548 48 48 37.2548 48 24C48 10.7452 37.2548 0 24 0C10.7452 0 0 10.7452 0 24C0 37.2548 10.7452 48 24 48Z"/><path d="M24 44C35.0457 44 44 35.0457 44 24C44 12.9543 35.0457 4 24 4C12.9543 4 4 12.9543 4 24C4 35.0457 12.9543 44 24 44Z" fill="currentColor"/><path d="M35.3334 26.6668L24 38.0001L12.6666 26.6668C9.53701 23.5371 9.53701 18.463 12.6666 15.3334C15.7963 12.2038 20.8704 13.2038 24 16.3334C27.1296 13.2038 32.2037 12.2038 35.3334 15.3334C38.463 18.463 38.463 23.5371 35.3334 26.6668Z" fill="#fff"/><path fill="currentColor" d="M22 20H26V30H22z"/><path transform="rotate(90 29 23)" fill="currentColor" d="M29 23H33V33H29z"/></symbol><symbol id="program-card-food" viewBox="0 0 48 48"><path d="M24 48C37.2548 48 48 37.2548 48 24C48 10.7452 37.2548 0 24 0C10.7452 0 0 10.7452 0 24C0 37.2548 10.7452 48 24 48Z"/><path d="M24 44C35.0457 44 44 35.0457 44 24C44 12.9543 35.0457 4 24 4C12.9543 4 4 12.9543 4 24C4 35.0457 12.9543 44 24 44Z" fill="currentColor"/><path d="M24.626 12.9863C23.6721 10.072 20.6933 8.75087 17.8958 9.15836 18.1786 11.9769 20.0341 14.5716 22.8866 14.9786 24.563 15.2177 25.1569 14.6079 24.626 12.9863ZM29.1721 16C26.8378 16 25.0174 16.4783 24.0713 17.913 23.1252 16.4783 21.3047 16 18.9704 16 5.14953 16 11.7721 38 20.287 38 22.1792 38 23.1252 37.0544 24.0713 37.0544 25.0174 37.0544 25.9635 38 27.8556 38 35.8973 38 42.993 16 29.1721 16Z" fill="#fff"/></symbol><symbol id="program-card-family-services" viewBox="0 0 48 48"><path d="M24 48C37.2548 48 48 37.2548 48 24C48 10.7452 37.2548 0 24 0C10.7452 0 0 10.7452 0 24C0 37.2548 10.7452 48 24 48Z"/><path d="M24 44C35.0457 44 44 35.0457 44 24C44 12.9543 35.0457 4 24 4C12.9543 4 4 12.9543 4 24C4 35.0457 12.9543 44 24 44Z" fill="currentColor"/><ellipse cx="24" cy="29.5" rx="11" ry="8.5" fill="#fff"/><circle cx="24" cy="16" r="6" fill="#fff"/><ellipse cx="24" cy="35.5" rx="6" ry="4.5" fill="currentColor"/><circle cx="24" cy="28" r="4" fill="currentColor"/></symbol><symbol id="program-card-enrichment" viewBox="0 0 48 48"><path d="M24 48C37.2548 48 48 37.2548 48 24C48 10.7452 37.2548 0 24 0C10.7452 0 0 10.7452 0 24C0 37.2548 10.7452 48 24 48Z"/><path d="M24 44C35.0457 44 44 35.0457 44 24C44 12.9543 35.0457 4 24 4C12.9543 4 4 12.9543 4 24C4 35.0457 12.9543 44 24 44Z" fill="currentColor"/><path d="M24 31C27.866 31 31 27.866 31 24C31 20.134 27.866 17 24 17C20.134 17 17 20.134 17 24C17 27.866 20.134 31 24 31Z" fill="#fff"/><path stroke="#fff" stroke-width="2" stroke-linecap="round" d="M24 10 24 14M38 24 34 24M24 34 24 38M14 24 10 24M34.314 14.101 31.485 16.929M16.636 31.778 13.808 34.607M33.9 34.314 31.071 31.485M16.222 16.636 13.393 13.808"/></symbol><symbol id="program-card-english-math" viewBox="0 0 48 48"><path d="M24 48C37.2548 48 48 37.2548 48 24C48 10.7452 37.2548 0 24 0C10.7452 0 0 10.7452 0 24C0 37.2548 10.7452 48 24 48Z"/><path d="M24 43.9998C35.0457 43.9998 44 35.0455 44 23.9998C44 12.9541 35.0457 3.99976 24 3.99976C12.9543 3.99976 3.99997 12.9541 3.99997 23.9998C3.99997 35.0455 12.9543 43.9998 24 43.9998Z" fill="currentColor"/><path fill-rule="evenodd" clip-rule="evenodd" d="M19.3839 14.3663C19.1163 14.0392 18.6718 13.9157 18.2738 14.0578C17.8757 14.1999 17.61 14.5769 17.61 14.9996V22.0896C17.61 22.6419 18.0577 23.0896 18.61 23.0896C19.1623 23.0896 19.61 22.6419 19.61 22.0896V17.8006L23.6461 22.7329C23.9138 23.06 24.3582 23.1835 24.7562 23.0413C25.1543 22.8992 25.42 22.5222 25.42 22.0996V14.9996C25.42 14.4473 24.9723 13.9996 24.42 13.9996C23.8677 13.9996 23.42 14.4473 23.42 14.9996V19.2985L19.3839 14.3663ZM11 13.9996H15.71C16.2623 13.9996 16.71 14.4473 16.71 14.9996C16.71 15.5519 16.2623 15.9996 15.71 15.9996H12V17.5495H15.5C16.0523 17.5495 16.5 17.9972 16.5 18.5495C16.5 19.1017 16.0523 19.5495 15.5 19.5495H12V21.0953L15.7058 21.0796C16.2581 21.0773 16.7077 21.5231 16.71 22.0753C16.7124 22.6276 16.2666 23.0772 15.7143 23.0796L11.0043 23.0996C10.452 23.1019 10.0024 22.6561 10 22.1038C9.99979 22.0444 10.0047 21.9862 10.0144 21.9296C10.005 21.8743 10 21.8175 10 21.7596V18.5495V14.9996C10 14.4473 10.4477 13.9996 11 13.9996ZM27.86 23.4597C27.3752 23.4597 26.9602 23.8075 26.8754 24.2848L25.2556 33.403L23.1473 30.298C22.8371 29.8411 22.2152 29.7221 21.7583 30.0324C21.3014 30.3426 21.1825 30.9645 21.4927 31.4214L24.9827 36.5614C25.2112 36.898 25.6209 37.0626 26.0188 36.9777C26.4167 36.8927 26.7234 36.5752 26.7946 36.1746L28.698 25.4597H38.87C39.4223 25.4597 39.87 25.012 39.87 24.4597C39.87 23.9074 39.4223 23.4597 38.87 23.4597H27.86ZM32.3901 28.3156C32.0069 27.918 31.3738 27.9062 30.9761 28.2894C30.5784 28.6726 30.5667 29.3057 30.9499 29.7034L32.2949 31.0992L30.9425 32.5335C30.5636 32.9353 30.5821 33.5682 30.984 33.9471C31.3858 34.326 32.0187 34.3074 32.3976 33.9056L33.6843 32.5411L34.9199 33.8234C35.3031 34.2211 35.9362 34.2328 36.3339 33.8496C36.7316 33.4664 36.7433 32.8333 36.3601 32.4357L35.058 31.0843L36.3676 29.6956C36.7465 29.2938 36.7279 28.6609 36.3261 28.282C35.9243 27.9031 35.2914 27.9217 34.9125 28.3235L33.6686 29.6425L32.3901 28.3156Z" fill="#fff"/></symbol><symbol id="program-card-education" viewBox="0 0 48 48"><path d="M24 48C37.2548 48 48 37.2548 48 24C48 10.7452 37.2548 0 24 0C10.7452 0 0 10.7452 0 24C0 37.2548 10.7452 48 24 48Z"/><path d="M24 44C35.0457 44 44 35.0457 44 24C44 12.9543 35.0457 4 24 4C12.9543 4 4 12.9543 4 24C4 35.0457 12.9543 44 24 44Z" fill="currentColor"/><path d="M31 21C32.1046 21 33 21.8954 33 23V27.0263C33 27.7668 32.5909 28.4467 31.9366 28.7934L24.9366 32.5036C24.3508 32.8141 23.6492 32.8141 23.0634 32.5036L16.0634 28.7934C15.4091 28.4467 15 27.7668 15 27.0263V23C15 21.8954 15.8954 21 17 21H31ZM14 21H13V31H14V21Z" fill="#fff"/><path d="M13.5 30L15 34H12L13.5 30V30Z" fill="#fff"/><path d="M37.7914 19.0173L24.4303 12.6511C24.1581 12.5214 23.8421 12.5214 23.57 12.6511L10.2089 19.0173C9.44703 19.3803 9.44964 20.4655 10.2132 20.8248L23.5743 27.1124C23.844 27.2393 24.1562 27.2393 24.4259 27.1124L37.787 20.8248C38.5506 20.4655 38.5532 19.3803 37.7914 19.0173Z" fill="#fff" stroke="currentColor"/><path d="M24 21C24.5523 21 25 20.5523 25 20C25 19.4477 24.5523 19 24 19C23.4477 19 23 19.4477 23 20C23 20.5523 23.4477 21 24 21Z" fill="currentColor"/><circle cx="13.5" cy="31" r="1" fill="#fff"/></symbol><symbol id="program-card-child-care" viewBox="0 0 48 48"><path d="M24 48C37.2548 48 48 37.2548 48 24C48 10.7452 37.2548 0 24 0C10.7452 0 0 10.7452 0 24C0 37.2548 10.7452 48 24 48Z"/><path d="M24 44C35.0457 44 44 35.0457 44 24C44 12.9543 35.0457 4 24 4C12.9543 4 4 12.9543 4 24C4 35.0457 12.9543 44 24 44Z" fill="currentColor"/><path d="M20.3516 23.03 14.7266 25.8092M27.6484 23.03 33.3646 25.8654" stroke="#fff" stroke-width="4.5" stroke-linecap="round"/><path d="M28.1697 31.3694 33.3646 34.1486M19.8303 31.3694 14.8109 34.3055" stroke="#fff" stroke-width="6" stroke-linecap="round"/><path d="M26.2267 33.9754H21.7732C18.9641 33.9754 16.7031 31.4771 16.7031 28.3731V26.0263C16.7031 22.9224 18.9641 20.4241 21.7732 20.4241H26.2267C29.0358 20.4241 31.2968 22.9224 31.2968 26.0263V28.3731C31.2968 31.4771 28.9673 33.9754 26.2267 33.9754V33.9754Z" fill="#fff"/><path d="M24.5213 32.9329H23.4789C21.4724 32.9329 18.7881 30.819 18.7881 28.1926V26.2068C18.7881 23.5804 20.4031 21.4664 22.4096 21.4664H25.5906C27.5972 21.4664 29.2121 23.5804 29.2121 26.2068V28.1926C29.2121 30.819 26.4789 32.9329 24.5213 32.9329Z" fill="currentColor"/><path d="M17.2244 15.212C18.6637 15.212 19.8304 14.0453 19.8304 12.606 19.8304 11.1668 18.6637 10 17.2244 10 15.7852 10 14.6184 11.1668 14.6184 12.606 14.6184 14.0453 15.7852 15.212 17.2244 15.212ZM30.7757 15.212C32.215 15.212 33.3817 14.0453 33.3817 12.606 33.3817 11.1668 32.215 10 30.7757 10 29.3364 10 28.1697 11.1668 28.1697 12.606 28.1697 14.0453 29.3364 15.212 30.7757 15.212Z" fill="#fff"/><path d="M24 22.5089C21.1909 22.5089 16.7031 19.7592 16.7031 17.0186V14.9464C16.7031 12.2058 18.9641 10 21.7732 10H26.2267C29.0358 10 31.2968 12.2058 31.2968 14.9464V17.0186C31.2968 19.7592 26.7406 22.5089 24 22.5089Z" fill="#fff"/><circle cx="21" cy="14" r="1" fill="currentColor"/><circle cx="27" cy="14" r="1" fill="currentColor"/><ellipse cx="24" cy="18.5" rx="3" ry="2.5" fill="currentColor"/><circle cx="24" cy="18" r="1" fill="#fff"/></symbol><symbol id="program-card-certification" viewBox="0 0 48 48"><path d="M24 48C37.2548 48 48 37.2548 48 24C48 10.7452 37.2548 0 24 0C10.7452 0 0 10.7452 0 24C0 37.2548 10.7452 48 24 48Z"/><path d="M24 44C35.0457 44 44 35.0457 44 24C44 12.9543 35.0457 4 24 4C12.9543 4 4 12.9543 4 24C4 35.0457 12.9543 44 24 44Z" fill="currentColor"/><path d="M12.16 16.3098H35.24C36.48 16.3098 37.49 17.3198 37.49 18.5598V29.3798C37.49 30.6198 36.48 31.6298 35.24 31.6298H12.75C11.51 31.6298 10.5 30.6198 10.5 29.3798V17.9698C10.5 17.0498 11.24 16.3098 12.16 16.3098Z" fill="#fff"/><path d="M34.76 24.8272C34.76 22.1072 32.55 19.8972 29.83 19.8972C27.11 19.8972 24.9 22.1072 24.9 24.8272C24.9 26.5372 25.77 28.0372 27.09 28.9172V34.7572C27.09 34.9472 27.25 35.0772 27.4 35.0072L29.74 33.8972C29.79 33.8672 29.85 33.8672 29.91 33.8972L32.25 35.0072C32.4 35.0772 32.56 34.9472 32.56 34.7572V28.9172C33.88 28.0372 34.75 26.5272 34.75 24.8272H34.76Z"/><path d="M22.17 21.7803H13.78V20.3203H22.17V21.7803ZM22.17 24.6504H13.78V23.1904H22.17V24.6504ZM13.78 27.5105H22.17V26.0505H13.78V27.5105Z" fill="currentColor"/></symbol><symbol id="program-card-cash-expenses" viewBox="0 0 48 48"><path d="M24 48C37.2548 48 48 37.2548 48 24C48 10.7452 37.2548 0 24 0C10.7452 0 0 10.7452 0 24C0 37.2548 10.7452 48 24 48Z"/><path d="M24 44C35.0457 44 44 35.0457 44 24C44 12.9543 35.0457 4 24 4C12.9543 4 4 12.9543 4 24C4 35.0457 12.9543 44 24 44Z" fill="currentColor"/><path d="M23.5 32C27.6421 32 31 28.6421 31 24.5C31 20.3579 27.6421 17 23.5 17C19.3579 17 16 20.3579 16 24.5C16 28.6421 19.3579 32 23.5 32Z" fill="currentColor"/><rect x="10" y="15" width="28" height="18" rx="1" fill="#fff"/><circle cx="24" cy="24" r="8" fill="currentColor"/><path d="M21 27.1351C21 27.1351 22.3636 28 24.2727 28C25.3636 28 27 27.5676 27 26.2703C27 25.1892 26.0641 24.7101 24 23.8919C23.8405 23.8287 23.4545 23.6757 22.9091 23.4595C21.8182 23.027 21.5455 22.3784 21.5455 21.7297C21.5455 20.9496 22.3636 20 24.2727 20C25.5818 20 26.6364 20.5766 27 20.8649" stroke="#fff" stroke-width="1.5" fill="transparent"/><path d="M24 20 24 18M24 30 24 28" stroke="#fff" stroke-width="1.5"/></symbol><symbol id="program-card-career-services" viewBox="0 0 48 48"><path d="M24 48C37.2548 48 48 37.2548 48 24C48 10.7452 37.2548 0 24 0C10.7452 0 0 10.7452 0 24C0 37.2548 10.7452 48 24 48Z"/><path d="M24 44C35.0457 44 44 35.0457 44 24C44 12.9543 35.0457 4 24 4C12.9543 4 4 12.9543 4 24C4 35.0457 12.9543 44 24 44Z" fill="currentColor"/><path d="M30.68 12.2503C29.9 12.2503 29.16 12.3903 28.47 12.6503C27.62 10.5203 25.54 9.01025 23.11 9.01025C20.01 9.01025 17.48 11.4603 17.35 14.5303C17 14.4603 16.63 14.4203 16.26 14.4203C13.27 14.4203 10.85 16.8403 10.85 19.8303C10.85 22.8203 13.27 25.2403 16.26 25.2403H30.69C34.28 25.2403 37.18 22.3303 37.18 18.7503C37.18 15.1703 34.27 12.2603 30.69 12.2603L30.68 12.2503Z" fill="#fff"/><path clip-rule="evenodd" d="M20.03 18.9956C20.8281 18.9956 21.475 19.6426 21.475 20.4406V22.4656H26.525V20.4406C26.525 19.6426 27.172 18.9956 27.97 18.9956C28.7681 18.9956 29.415 19.6426 29.415 20.4406L29.415 23.9106V28.8403V33.8903L29.415 37.5006C29.415 38.2987 28.7681 38.9456 27.97 38.9456C27.172 38.9456 26.525 38.2987 26.525 37.5006V35.3353H21.475V37.5006C21.475 38.2987 20.8281 38.9456 20.03 38.9456C19.232 38.9456 18.585 38.2987 18.585 37.5006V20.4406C18.585 19.6426 19.232 18.9956 20.03 18.9956ZM21.475 32.4453H26.525V30.2853H21.475V32.4453ZM26.525 25.3556V27.3953H21.475V25.3556H26.525Z"/><path fill-rule="evenodd" clip-rule="evenodd" d="M21.475 32.4452H26.525V30.2852H21.475V32.4452ZM26.525 25.3555V27.3952H21.475V25.3555H26.525Z" fill="currentColor"/></symbol><symbol id="nyco-languages" viewBox="0 0 24 24"><path d="M3 16C4.5 15.1667 8 12.5 10 9.5C12 6.5 11.5 4 11.5 4M14.5 4H8.5M2.5 4H8.5M8.5 4V2.5M4.5 7C5.5 10 7.5 12.5 10 14.5M12 21L13.35 18M21 21L19.65 18M13.35 18L16.5 10.5C17.7302 13.2337 18.4198 15.2663 19.65 18M13.35 18H19.65"/></symbol><symbol id="nyco-accessibility" viewBox="0 0 24 24"><path d="M20.0888 10.975C19.8251 10.7044 19.4566 10.5616 19.0801 10.5822L14.5227 10.8359 17.0307 7.97945C17.388 7.57256 17.4901 7.03016 17.352 6.54548 17.2791 6.21336 17.0779 5.91117 16.7689 5.7181 16.7595 5.71133 10.7739 2.23419 10.7739 2.23419 10.2852 1.95027 9.66928 2.01282 9.24749 2.38903L6.32364 4.99716C5.78494 5.47765 5.73777 6.30387 6.21829 6.8426 6.69886 7.38126 7.52511 7.42858 8.06377 6.94791L10.2805 4.97059 12.113 6.03475 8.8783 9.71873C7.53699 9.93748 6.33014 10.5556 5.38275 11.4467L7.07193 13.1359C7.83553 12.4416 8.84942 12.0178 9.96041 12.0178 12.3301 12.0178 14.2581 13.9458 14.2581 16.3155 14.2581 17.4265 13.8343 18.4403 13.14 19.2039L14.8291 20.8931C15.9543 19.6969 16.6449 18.0874 16.6449 16.3155 16.6449 15.2599 16.3998 14.2616 15.964 13.3738L17.7281 13.2756 17.299 18.5394C17.2403 19.2589 17.7761 19.8896 18.4956 19.9483 18.5316 19.9513 18.5676 19.9527 18.6032 19.9527 19.2769 19.9527 19.8489 19.435 19.9045 18.7517L20.4553 11.9935C20.4861 11.6169 20.3524 11.2455 20.0888 10.975ZM17.668 5.37585C18.8763 5.37585 19.8557 4.39632 19.8557 3.18794 19.8557 1.97963 18.8763 1 17.668 1 16.4596 1 15.4801 1.97963 15.4801 3.18794 15.4801 4.39632 16.4595 5.37585 17.668 5.37585ZM9.96055 20.6132C7.59079 20.6132 5.66283 18.6852 5.66283 16.3155 5.66283 15.4224 5.93685 14.5923 6.40493 13.9043L4.69752 12.1969C3.80786 13.3322 3.276 14.7614 3.276 16.3155 3.276 20.0073 6.26874 23 9.96055 23 11.5147 23 12.9438 22.4681 14.079 21.5785L12.3717 19.8711C11.6837 20.3391 10.8536 20.6132 9.96055 20.6132Z" fill="currentColor"/></symbol><symbol id="logo-nyc" viewBox="0 0 456 152"><path d="M446.505 66.3803 456 57.0104V28.5052L427.495 0H332.505L304 28.5052V9.51562L294.505 0H256.505L247.01 9.51562V28.5052L228 47.5156 209.01 28.5052V9.51562L199.495 0H161.495L152 9.51562 142.505 0H104.505L95.0104 9.51562V47.5156L47.4948 0H9.49479L0 9.51562V142.505L9.49479 152H47.4948L57.0104 142.505V104.505L104.505 152H142.505L152 142.505V66.5052L199.495 114V142.505L209.01 152H247.01L256.505 142.505V114L304 66.5052V123.516L332.505 152H427.495L456 123.516V95.0104L446.505 85.4948H398.99V95.0104H361.01V57.0104H398.99V66.3803H446.505ZM449.233 6.41315C450.128 6.41315 450.899 6.32986 450.899 5.28876 450.899 4.41424 450.045 4.31013 449.337 4.31013H447.9V6.41315H449.233ZM447.921 10.4942H446.734V3.31068H449.462C451.19 3.31068 452.085 3.91452 452.085 5.37205 452.085 6.68383 451.294 7.20438 450.211 7.32931L452.231 10.4942H450.899L449.045 7.4126H447.942V10.4942H447.921ZM449.191 1.41589C446.38 1.41589 444.194 3.62301 444.194 6.78794 444.194 9.74466 446.11 12.16 449.191 12.16 451.981 12.16 454.168 9.9737 454.168 6.78794 454.168 3.62301 451.981 1.41589 449.191 1.41589ZM449.191 13.2844C445.464 13.2844 442.799 10.4942 442.799 6.78794 442.799 2.87342 445.756.291504 449.191.291504 452.585.291504 455.542 2.87342 455.542 6.78794 455.563 10.6816 452.606 13.2844 449.191 13.2844Z" fill="currentColor"/></symbol><symbol id="favicon"><path id="favicon" d="M262.562 8.28859V24.4295V56.7114L221.428 97.2819V121.711L213.113 130H237.619L262.125 154.43V178.859L253.81 186.711H212.676V178.859H179.855V211.141H212.676V202.852H253.81L262.125 211.141V235.57L237.619 260H155.787L131.281 234.698V153.993L155.787 129.564H180.293L171.978 121.275V96.8456L131.281 56.7114V121.275L122.967 129.564H90.1464L49.0116 88.9933V121.275L40.6972 129.564H8.31448L0 121.275V7.85235L8.31448 0H41.1348L82.2695 40.5705V8.28859L90.1464 0H122.967L131.281 8.28859L139.596 0H172.416L180.73 8.28859V24.4295L196.922 40.5705L213.551 24.4295V8.28859L221.428 0H254.248L262.562 8.28859ZM257.311 140.47C254.248 140.47 251.622 138.289 251.622 134.799C251.622 131.309 254.248 129.128 257.311 129.128C260.374 129.128 263 131.309 263 134.799C262.562 138.289 259.937 140.47 257.311 140.47ZM257.311 130.436C254.686 130.436 252.935 132.181 252.935 134.799C252.935 137.416 254.686 139.597 257.311 139.597C259.937 139.597 261.687 137.852 261.687 134.799C261.25 132.181 259.499 130.436 257.311 130.436ZM255.998 138.289H255.123V132.181H257.311C258.624 132.181 259.499 132.617 259.499 133.926C259.499 135.235 258.624 135.671 257.749 135.671L259.499 138.289H258.186L256.436 135.671H255.561V138.289H255.998ZM257.311 134.799C258.186 134.799 258.624 134.799 258.624 133.926C258.624 133.054 257.749 133.054 257.311 133.054H255.998V134.799H257.311Z"/><style>#favicon{fill:#217ceb}@media (prefers-color-scheme:light){#favicon{fill:#004cbe}}</style></symbol></svg>