<?xml version="1.0" encoding="UTF-8"?><!DOCTYPE svg PUBLIC "-//W3C//DTD SVG 1.1//EN" "http://www.w3.org/Graphics/SVG/1.1/DTD/svg11.dtd"><svg xmlns="http://www.w3.org/2000/svg" xmlns:xlink="http://www.w3.org/1999/xlink"><defs><clipPath id="clip0_4244_93116"><rect width="50" height="50" rx="25" fill="#fff"/></clipPath><clipPath id="clip0_1592_1938"><path fill="#fff" d="M0 0H70V10H0z"/></clipPath><clipPath id="clip0_4244_93116"><rect width="50" height="50" rx="25" fill="#fff"/></clipPath></defs><symbol id="up-arrow" viewBox="0 0 24 25"><g id="tag/button/icons"><path id="Vector" d="M6 15.5L12 9.5L18 15.5" stroke="#111322" stroke-width="2" stroke-linecap="round" stroke-linejoin="round"/></g></symbol><symbol id="temp-lucide-clock" viewBox="0 0 24 24"><circle cx="12" cy="12" r="10"/><path d="M12 6 12 12 16 14"/></symbol><symbol id="shape-wnyc-c@default" viewBox="0 0 352 362"><ellipse opacity=".6" cx="176" cy="181.002" rx="176" ry="180.5" fill="#E3F1FD"/></symbol><symbol id="shape-wnyc-c@dark" viewBox="0 0 129 129"><circle opacity=".6" cx="64.5" cy="64.5" r="64.5" fill="#0C264D"/></symbol><symbol id="shape-wnyc-b@default" viewBox="0 0 485 486"><path transform="rotate(45 168.855 .502)" fill="#E3F1FD" d="M168.855.502H407.653V239.3H168.855z"/><circle cx="365.601" cy="366.103" r="119.399" fill="#F0F6FA"/></symbol><symbol id="shape-wnyc-b@dark" viewBox="0 0 262 262"><path transform="rotate(45 91.217 0)" fill="#0C264D" d="M91.217 0H220.21699999999998V129H91.217z"/><circle cx="197.5" cy="197.5" r="64.5" fill="#003C7A"/></symbol><symbol id="shape-wnyc-a@default" viewBox="0 0 402 374"><circle opacity=".5" cx="56.79" cy="297.794" r="52.336" transform="rotate(-85.844 56.79 297.794)" fill="#C9E7FC"/><path opacity=".5" transform="rotate(-55.844 77.938 200.95)" fill="#B8E0FC" d="M77.938 200.95H304.767V427.779H77.938z"/></symbol><symbol id="shape-wnyc-a@dark" viewBox="0 0 402 374"><circle opacity=".5" cx="56.79" cy="297.794" r="52.336" transform="rotate(-85.844 56.79 297.794)" fill="#071F42"/><path opacity=".5" transform="rotate(-55.844 77.938 200.95)" fill="#003C7A" d="M77.938 200.95H304.767V427.779H77.938z"/></symbol><symbol id="program-card-government1" viewBox="0 0 50 50"><g clip-path="url(#clip0_4244_93116)"><rect width="50" height="50" rx="25" fill="#E3F1FD"/><path d="M18 31V24H20V31H18ZM24 31V24H26V31H24ZM15 35V33H35V35H15ZM30 31V24H32V31H30ZM15 22V20L25 15L35 20V22H15ZM19.45 20H30.55L25 17.25L19.45 20Z" fill="#000"/></g></symbol><symbol id="lucide-x" viewBox="0 0 24 24"><path d="M18 6 6 18M6 6l12 12"/></symbol><symbol id="logo-nyc-mycity" viewBox="0 0 70 10"><g clip-path="url(#clip0_1592_1938)"><mask id="mask0_1592_1938" style="mask-type:luminance" maskUnits="userSpaceOnUse" x="0" y="0" width="70" height="10"><path d="M69.69 0H0V9.8555H69.69V0Z" fill="#fff"/></mask><g mask="url(#mask0_1592_1938)" fill="#080707"><path d="M29.172 1.05917C29.1964 1.00956 29.2288.969872 29.2694.937622 29.31.905377 29.356.878089 29.4102.860723 29.4643.84336 29.5184.833435 29.5752.833435 29.6321.833435 29.6862.840877 29.7403.860723 29.7944.878089 29.8404.905377 29.881.937622 29.9216.972352 29.9514 1.01204 29.9784 1.05917 30.0028 1.10879 30.0136 1.16088 30.0136 1.21793 30.0136 1.27499 30.0001 1.33204 29.9784 1.37917 29.9568 1.42631 29.9216 1.46848 29.881 1.50072 29.8404 1.53545 29.7944 1.56026 29.7403 1.57762 29.6862 1.59499 29.6321 1.60491 29.5752 1.60491 29.5184 1.60491 29.4643 1.59747 29.4102 1.57762 29.356 1.56026 29.31 1.53545 29.2694 1.50072 29.2288 1.46599 29.1991 1.42631 29.172 1.37917 29.1449 1.33204 29.1368 1.27747 29.1368 1.21793 29.1368 1.1584 29.1503 1.10631 29.172 1.05917ZM29.2776 1.34196C29.2938 1.37917 29.3182 1.4139 29.3452 1.43871 29.3723 1.46599 29.4074 1.48832 29.448 1.50072 29.4886 1.51313 29.5292 1.52305 29.5725 1.52305 29.6158 1.52305 29.6564 1.51561 29.697 1.50072 29.7376 1.48584 29.7673 1.46351 29.7998 1.43871 29.8269 1.41142 29.854 1.37917 29.8675 1.34196 29.881 1.30476 29.8918 1.26506 29.8918 1.22041 29.8918 1.17576 29.8837 1.13607 29.8675 1.09886 29.8513 1.06165 29.8269 1.02941 29.7998 1.00212 29.7728.974831 29.7376.952506 29.697.940102 29.6564.927702 29.6158.917777 29.5725.917777 29.5292.917777 29.4859.925218 29.448.940102 29.4102.954985 29.3777.977314 29.3452 1.00212 29.3182 1.02693 29.2911 1.06165 29.2776 1.09886 29.2613 1.13607 29.2532 1.17576 29.2532 1.22041 29.2532 1.26506 29.2613 1.30476 29.2776 1.34196ZM29.5806.999639C29.6402.999639 29.6862 1.00708 29.7159 1.02693 29.7457 1.04677 29.7647 1.0815 29.7647 1.12615 29.7647 1.14599 29.7619 1.16336 29.7565 1.17824 29.7511 1.19313 29.7403 1.20305 29.7295 1.21297 29.7159 1.22041 29.7051 1.23034 29.6889 1.23282 29.6727 1.23778 29.6591 1.24026 29.6402 1.24026L29.7673 1.43126H29.6673L29.5536 1.24522H29.494V1.43126H29.402V1.00212H29.5833L29.5806.999639ZM29.5806 1.17824C29.6077 1.17824 29.6293 1.17576 29.6483 1.16584 29.6673 1.15592 29.6727 1.14351 29.6727 1.11375 29.6727 1.10134 29.6727 1.0939 29.6645 1.08646 29.6564 1.07902 29.651 1.07406 29.6429 1.0691 29.6348 1.06661 29.6239 1.06414 29.6131 1.06165 29.6023 1.05917 29.5915 1.06165 29.5779 1.06165H29.4968V1.17576H29.5806V1.17824ZM28.279 9.84808H21.7113C21.7113 9.84808 21.6869 9.82329 21.6707 9.80837 21.1268 9.30979 20.5828 8.80871 20.0362 8.31504 20.0064 8.28779 19.9929 8.258 19.9929 8.21833V4.85458L19.9658 4.83725C19.9577 4.85458 19.9496 4.87691 19.9388 4.88933 18.9294 5.81458 17.92 6.74233 16.9079 7.66762 16.8808 7.69241 16.8673 7.71971 16.8673 7.75692V9.37179C16.8673 9.409 16.8538 9.43383 16.8267 9.46112L16.3991 9.85304H13.5766C13.5766 9.85304 13.555 9.82575 13.5415 9.81333 13.417 9.69925 13.2925 9.58267 13.1653 9.46854 13.1301 9.43629 13.1166 9.40654 13.1166 9.36437V7.76187C13.1166 7.72466 13.1085 7.69987 13.0787 7.67258 12.0666 6.74483 11.0545 5.81708 10.0397 4.88933 10.0262 4.87691 10.0127 4.867 9.99105 4.84962V9.36683C9.99105 9.40654 9.9775 9.43629 9.94773 9.46358 9.80432 9.59258 9.66627 9.72158 9.52559 9.85304H6.70309C6.63273 9.78358 6.56236 9.71662 6.48932 9.65212L3.7967 7.18391C3.78046 7.169 3.76693 7.15908 3.73987 7.13925V9.37179C3.73987 9.4115 3.72634 9.44125 3.69657 9.46854 3.56939 9.58267 3.4422 9.69925 3.31771 9.81583 3.30418 9.82825 3.29606 9.84312 3.28254 9.85554H.468159C.324735 9.72158.178605 9.59008.0378858 9.45612.0189429 9.43629.00270613 9.40404.00270613 9.37925 0 6.73492 0 4.09552 0 1.45615 0 1.42142.0135306 1.39661.040592 1.37429.221903 1.20561.403213 1.04189.584523.873202.614291.845915.644059.835994.687355.835994H3.05793C3.10393.835994 3.1364.848394 3.16888.878165L6.18623 3.64405C6.20245 3.65894 6.21055 3.68126 6.22409 3.69863L6.24573 3.68374V1.45863C6.24573 1.41894 6.25927 1.39413 6.28632 1.36436 6.47036 1.19816 6.65168 1.02948 6.83568.863277 6.85732.845915 6.8925.831031 6.91959.831031H9.31718C9.34427.831031 9.38214.845915 9.40109.863277 9.58509 1.02948 9.76373 1.1932 9.94773 1.36188 9.96395 1.37677 9.9775 1.38669 9.99373 1.40157L10.5837.860798C10.6026.843436 10.6378.828552 10.6649.828552H13.0679C13.095.828552 13.1329.843436 13.1518.863277 13.3385 1.03196 13.5225 1.19816 13.7038 1.36933 13.7228 1.38917 13.739 1.42142 13.739 1.44622V2.49304C13.739 2.53026 13.7525 2.55506 13.7796 2.58235 14.172 2.93708 14.5617 3.29676 14.9514 3.65646 14.9649 3.66886 14.9757 3.67878 15.0001 3.69863 15.0136 3.68126 15.0217 3.66141 15.038 3.64901 15.4222 3.29676 15.8092 2.93956 16.1962 2.58731 16.226 2.56002 16.2395 2.52777 16.2395 2.48809V1.45366C16.2395 1.42638 16.2557 1.39165 16.2774 1.37181 16.4614 1.20064 16.6481 1.02948 16.8321.863277 16.851.845915 16.8808.835994 16.9079.835994H19.3164C19.3434.835994 19.3759.850877 19.3975.86824 19.5843 1.03692 19.7683 1.20312 19.9496 1.37181 19.9766 1.39661 19.9902 1.4239 19.9875 1.46111V2.54762C20.0145 2.52529 20.0308 2.51041 20.047 2.49553 20.637 1.95475 21.2296 1.41398 21.8195.870719 21.8493.843436 21.879.833511 21.9224.833511H28.0517C28.095.833511 28.1221.845915 28.1545.873202 28.7229 1.39413 29.2911 1.91754 29.8621 2.43847V4.39321C29.8621 4.39321 29.8324 4.41304 29.8188 4.42546 29.6835 4.547 29.5428 4.6735 29.4102 4.79754 29.3831 4.82483 29.3507 4.83725 29.3074 4.83725H26.2359V4.27662H23.7436V6.55879H26.2413V5.99071H29.3182C29.3453 5.99071 29.3777 6.00558 29.3994 6.02296 29.559 6.16187 29.7106 6.30825 29.8649 6.44962V8.40437C29.8649 8.40437 29.8378 8.42421 29.8242 8.43166 29.3182 8.89304 28.8149 9.35691 28.3088 9.81833 28.2953 9.83071 28.2872 9.84062 28.2736 9.85554H28.279V9.84808ZM36.2695 3.41089 38.2991 6.467H39.0189L41.0566 3.32903 41.0674 7.13679H42.5721L42.5504.788879H41.2352L38.6833 4.73308 36.0909.788879H34.7649V7.13679H36.2695V3.41089ZM51.4887 6.82423C52.0596 7.10456 52.6982 7.24594 53.4018 7.24594 54.0028 7.24594 54.5468 7.14919 55.0337 6.95573 55.5209 6.76223 55.9296 6.48189 56.2596 6.11231L55.2314 5.2416C54.7632 5.74269 54.1814 5.99323 53.4914 5.99323 53.0637 5.99323 52.6796 5.90639 52.3441 5.73523 52.0082 5.5616 51.7459 5.32348 51.5564 5.01339 51.3696 4.70581 51.275 4.35356 51.275 3.96161 51.275 3.56967 51.3696 3.21742 51.5564 2.90982 51.7459 2.60223 52.0055 2.36161 52.3441 2.18797 52.6796 2.0168 53.0637 1.92998 53.4914 1.92998 54.1841 1.92998 54.7632 2.17804 55.2314 2.67417L56.2596 1.80347C55.9296 1.4413 55.5237 1.16347 55.0391.969982 54.555.77649 54.0109.679749 53.4128.679749 52.7009.679749 52.0596.821144 51.4887 1.10145 50.9178 1.38176 50.4687 1.77122 50.1437 2.2723 49.8164 2.77091 49.6541 3.33401 49.6541 3.96409 49.6541 4.59414 49.8164 5.15727 50.1437 5.65585 50.4714 6.15448 50.9178 6.54394 51.4887 6.82673V6.82423ZM57.2309 2.25739V7.13675H58.7764V2.25739H57.9859 57.2309ZM58.005 1.57768C58.2891 1.57768 58.5191 1.50078 58.6977 1.34698 58.8764 1.19318 58.9659.997208 58.9659.76155 58.9659.543254 58.8764.36217 58.6977.218295 58.5191.0744188 58.2891 0 58.005 0 57.7209 0 57.4909.0768992 57.3123.225736 57.1336.377054 57.0446.5631 57.0446.788838 57.0446 1.01458 57.1336 1.20062 57.3123 1.35194 57.4909 1.50325 57.7209 1.57768 58.005 1.57768ZM60.3972 5.45983C60.3972 6.03533 60.5704 6.46946 60.9168 6.76463 61.2632 7.05983 61.7532 7.20867 62.3863 7.20867 62.63 7.20867 62.8627 7.18388 63.0845 7.13175 63.3063 7.07967 63.4904 7.00279 63.6445 6.90108L63.2304 5.90388C63.06 6.02542 62.8518 6.08496 62.6082 6.08496 62.3973 6.08496 62.2345 6.03038 62.1182 5.91625 62.0018 5.80463 61.945 5.64588 61.945 5.44V3.45549H63.2713V2.3665H61.945V1.17828H60.4027V2.3665H59.5827V3.45549H60.4027V5.45983H60.3972Z"/><path d="M68.2127 2.25739L66.7082 5.56654L65.2141 2.25739H63.6205L65.9259 7.1715L65.9068 7.21613C65.8855 7.26329 65.8609 7.30546 65.8368 7.34513C65.8286 7.36 65.8177 7.37492 65.8096 7.38979C65.8068 7.39475 65.8014 7.40221 65.7986 7.40717C65.6473 7.65521 65.3386 8.11909 65.3386 8.11909C65.1005 8.48871 64.665 8.71442 64.1968 8.71442H46.3768L46.8396 7.72467C46.8882 7.63288 46.9341 7.53863 46.9805 7.43442L49.3832 2.25739H47.9005L46.3959 5.56654L44.902 2.25739H43.3081L45.6136 7.1715L45.595 7.21613C45.5841 7.236 45.5759 7.25334 45.565 7.27071L45.5382 7.31538L45.4081 7.51879L45.0238 8.11663C44.7856 8.48621 44.35 8.71196 43.8818 8.71196H34.7621L34.1046 9.8555H65.0327V9.84559C65.7446 9.7935 66.3723 9.38917 66.6564 8.78142L67.1814 7.65771C67.2168 7.58575 67.2518 7.51134 67.2873 7.43442L69.69 2.25739H68.2073H68.2127Z"/></g></g></symbol><symbol id="logo-nyc-black" viewBox="0 0 56 20"><clipPath id="a"><path d="m0 .840866h55.8307v18.3183h-55.8307z"/></clipPath><g clip-path="url(#a)" fill="#080707"><path d="M54.2652 1.30887c.0453-.10068.1057-.18122.1812-.24666.0755-.065443.1611-.120816.2618-.156053.1006-.035237.2013-.055373.307-.055373s.2064.015102.3071.055373c.1007.035237.1862.09061.2618.156053.0755.07047.1308.15101.1812.24666.0453.10067.0654.20639.0654.32217 0 .11577-.0252.23155-.0654.3272-.0403.09564-.1057.18122-.1812.24666-.0756.07047-.1611.12081-.2618.15605-.1007.03523-.2014.05537-.3071.05537s-.2064-.0151-.307-.05537c-.1007-.03524-.1863-.08558-.2618-.15605-.0755-.07048-.1309-.15102-.1812-.24666-.0504-.09565-.0655-.20639-.0655-.3272 0-.12082.0252-.22653.0655-.32217zm.1963.57386c.0302.07551.0755.14598.1258.19632.0504.05537.1158.10068.1913.12585s.1511.0453.2316.0453.156-.0151.2315-.0453c.0756-.03021.1309-.07551.1913-.12585.0504-.05537.1007-.12081.1259-.19632s.0453-.15605.0453-.24666-.0151-.17115-.0453-.24666-.0755-.14095-.1259-.19632c-.0503-.05537-.1157-.10068-.1913-.12585-.0755-.02517-.151-.0453-.2315-.0453s-.1611.0151-.2316.0453c-.0704.0302-.1308.07551-.1913.12585-.0503.05034-.1006.12081-.1258.19632-.0302.07551-.0453.15605-.0453.24666s.0151.17115.0453.24666zm.5638-.69468c.1107 0 .1963.01511.2517.05538s.0906.11074.0906.20135c0 .04027-.005.07551-.0151.10571-.0101.03021-.0302.05034-.0503.07048-.0252.0151-.0453.03523-.0756.04027-.0302.01007-.0553.0151-.0906.0151l.2366.38761h-.1862l-.2114-.37754h-.1108v.37754h-.1711v-.87086h.3372zm0 .36244c.0503 0 .0906-.00503.1258-.02517.0353-.02013.0453-.0453.0453-.10571 0-.02517 0-.04027-.0151-.05537s-.0251-.02517-.0402-.03524c-.0151-.00503-.0353-.01007-.0554-.0151s-.0403 0-.0654 0h-.1511v.23156h.1561zM52.604 19.144h-12.2172s-.0453-.0503-.0755-.0805c-1.0118-1.0118-2.0236-2.0287-3.0405-3.0304-.0553-.0554-.0805-.1158-.0805-.1963v-6.82595l-.0504-.03524c-.0151.03524-.0302.08054-.0503.10571-1.8776 1.87768-3.7553 3.76028-5.6379 5.63798-.0504.0503-.0755.1057-.0755.1812v3.277c0 .0755-.0252.1259-.0756.1813l-.7953.7953h-5.2503s-.0403-.0554-.0655-.0805c-.2315-.2316-.4631-.4682-.6997-.6997-.0654-.0655-.0906-.1259-.0906-.2115v-3.2518c0-.0756-.0151-.1259-.0705-.1813-1.8826-1.8826-3.7653-3.7653-5.653-5.64798-.0252-.02517-.0504-.0453-.0906-.08054v9.16672c0 .0805-.0252.1409-.0806.1963-.2668.2618-.5235.5235-.7853.7903h-5.2503c-.1309-.1409-.2617-.2769-.3977-.4077l-5.00867-5.0087c-.0302-.0302-.05537-.0504-.10571-.0907v4.5305c0 .0806-.02517.141-.08054.1964-.2366.2315-.47319.4681-.70475.7047-.02517.0252-.04027.0554-.06544.0805h-5.235229c-.266796-.2718-.538625-.5386-.8003867-.8104-.0352372-.0403-.06544042-.1057-.06544042-.1561-.00503388-5.3661-.00503388-10.72212-.00503388-16.07816 0-.07048.0251694-.12082.0755082-.16612.3372698-.3423.6745398-.67454 1.0118118-1.016844.05537-.055373.11074-.075508.19128-.075508h4.40968c.08558 0 .14598.025169.20639.085576l5.61273 5.612776c.0302.0302.0453.0755.0705.11074l.0403-.0302v-4.51539c0-.08054.0252-.13088.0755-.19129.3423-.33727.6796-.67957 1.0219-1.01684.0402-.035237.1057-.06544.156-.06544h4.46c.0504 0 .1209.030203.1561.06544.3423.33727.6745.66951 1.0168 1.01181.0302.0302.0554.05034.0856.08054l1.0974-1.097383c.0352-.035238.1007-.065441.151-.065441h4.4701c.0503 0 .1208.030203.156.070474.3474.3423.6897.67957 1.027 1.02691.0352.04027.0654.10571.0654.15605v2.1243c0 .07551.0252.12584.0755.18122.7299.71984 1.4548 1.44975 2.1797 2.17967.0251.02516.0453.0453.0906.08557.0251-.03524.0403-.07551.0705-.10068.7148-.71481 1.4346-1.43968 2.1545-2.1545.0553-.05537.0805-.12081.0805-.20135v-2.09913c0-.05537.0302-.12584.0705-.16611.3423-.34734.6896-.69468 1.0319-1.03195.0353-.035237.0906-.055372.141-.055372h4.4801c.0504 0 .1108.030203.151.06544.3474.342302.6897.679572 1.0269 1.021882.0504.05033.0755.10571.0705.18121v2.20484c.0504-.0453.0806-.07551.1108-.10571 1.0973-1.09738 2.1998-2.19477 3.2971-3.297188.0554-.055373.1108-.075508.1913-.075508h11.4018c.0805 0 .1308.025169.1913.080542 1.0571 1.057114 2.1142 2.119264 3.1763 3.176374v3.9667s-.0553.04027-.0805.06544c-.2517.24666-.5135.50339-.7601.75508-.0504.05537-.1108.08054-.1913.08054h-5.7135v-1.13766h-4.6362v4.63115h4.6463v-1.1527h5.7235c.0504 0 .1108.0302.151.0654.297.2819.5789.5789.8659.8658v3.9667s-.0504.0403-.0755.0554c-.9414.9363-1.8777 1.8776-2.819 2.8139-.0252.0252-.0403.0453-.0655.0755h.0101z"/></g></symbol><symbol id="logo-jobs-nyc-jobseeker" viewBox="0 0 2656 284"><path d="M1060.6 129.35L1071 117.01V79.4855L1039.77 42H935.741L904.511 79.4855V54.4952L894.111 42.0001H852.477L842.076 54.4952V79.4855L821.282 104.514L800.482 79.4855V54.4952L790.047 42.0001H748.417L738.017 54.4952L727.617 42.0001H685.988L675.588 54.4952V104.514L623.558 42H581.928L571.528 54.4952V229.505L581.928 242H623.558L633.988 229.505V179.524L685.988 242H727.617L738.017 229.505V129.505L790.047 192.019V229.505L800.482 242H842.076L852.477 229.505V192.019L904.511 129.505V204.514L935.741 242H1039.77L1071 204.514V167.029L1060.6 154.495H1008.54V167.029H966.941V117.01H1008.54V129.35H1060.6Z" fill="#2D31A6"/><path d="M59.8869 227.778C51.9898 227.778 44.4582 226.719 37.2922 224.6 30.2725 222.319 23.984 218.896 18.4268 214.333 12.8695 209.77 8.40903 204.148 5.04542 197.467 1.82805 190.785.146244 182.881 0 173.756 0 172.289.438732 171.067 1.3162 170.089 2.19366 168.948 3.29049 168.378 4.60669 168.378H25.4465C27.3476 168.378 28.737 168.948 29.6144 170.089 30.6381 171.23 31.4425 172.778 32.0274 174.733 32.7587 180.6 34.4405 185.407 37.0729 189.156 39.7053 192.741 42.9958 195.43 46.9443 197.222 51.0392 198.852 55.5727 199.667 60.545 199.667 69.7584 199.667 76.7781 196.326 81.6042 189.644 86.5765 182.963 89.0626 173.674 89.0626 161.778V83.0667H14.6975C13.0888 83.0667 11.7726 82.4963 10.7489 81.3555 9.87147 80.2148 9.43274 78.8296 9.43274 77.2V60.0889C9.43274 58.4592 9.87147 57.0741 10.7489 55.9333 11.7726 54.7926 13.0888 54.2222 14.6975 54.2222H114.948C116.557 54.2222 117.873 54.7926 118.896 55.9333 119.92 57.0741 120.432 58.5407 120.432 60.3333V162.756C120.432 176.281 117.873 187.933 112.754 197.711 107.782 207.489 100.762 214.985 91.695 220.2 82.7741 225.252 72.1714 227.778 59.8869 227.778ZM201.234 227.778C189.535 227.778 179.663 225.496 171.62 220.933 163.723 216.37 157.653 209.933 153.412 201.622 149.317 193.311 146.978 183.615 146.393 172.533 146.246 169.6 146.173 166.015 146.173 161.778 146.173 157.541 146.246 153.956 146.393 151.022 146.978 139.778 149.391 130.081 153.632 121.933 158.019 113.622 164.161 107.185 172.058 102.622 180.102 98.0592 189.827 95.7778 201.234 95.7778 212.641 95.7778 222.293 98.0592 230.19 102.622 238.234 107.185 244.376 113.622 248.617 121.933 253.005 130.081 255.491 139.778 256.076 151.022 256.222 153.956 256.295 157.541 256.295 161.778 256.295 166.015 256.222 169.6 256.076 172.533 255.491 183.615 253.078 193.311 248.837 201.622 244.742 209.933 238.673 216.37 230.629 220.933 222.732 225.496 212.934 227.778 201.234 227.778ZM201.234 203.578C208.985 203.578 214.981 200.889 219.222 195.511 223.463 189.97 225.803 181.904 226.242 171.311 226.388 168.867 226.461 165.689 226.461 161.778 226.461 157.867 226.388 154.689 226.242 152.244 225.803 141.815 223.463 133.83 219.222 128.289 214.981 122.748 208.985 119.978 201.234 119.978 193.483 119.978 187.487 122.748 183.246 128.289 179.005 133.83 176.665 141.815 176.226 152.244 176.08 154.689 176.007 157.867 176.007 161.778 176.007 165.689 176.08 168.867 176.226 171.311 176.665 181.904 179.005 189.97 183.246 195.511 187.487 200.889 193.483 203.578 201.234 203.578ZM343.777 227.778C335.295 227.778 328.202 226.148 322.499 222.889 316.942 219.63 312.335 215.474 308.679 210.422V219.467C308.679 221.096 308.167 222.481 307.143 223.622 306.266 224.763 305.023 225.333 303.414 225.333H286.084C284.622 225.333 283.379 224.763 282.355 223.622 281.331 222.481 280.819 221.096 280.819 219.467V57.6444C280.819 56.0148 281.331 54.6296 282.355 53.4889 283.379 52.3481 284.622 51.7778 286.084 51.7778H304.73C306.339 51.7778 307.582 52.3481 308.46 53.4889 309.483 54.6296 309.995 56.0148 309.995 57.6444V111.911C313.651 107.185 318.185 103.356 323.596 100.422 329.153 97.3259 335.88 95.7778 343.777 95.7778 351.528 95.7778 358.256 97.2444 363.959 100.178 369.663 103.111 374.416 107.267 378.218 112.644 382.167 117.859 385.165 123.97 387.212 130.978 389.259 137.985 390.356 145.563 390.502 153.711 390.649 156.644 390.722 159.333 390.722 161.778 390.722 164.059 390.649 166.667 390.502 169.6 390.21 178.074 389.04 185.896 386.993 193.067 384.945 200.074 382.02 206.185 378.218 211.4 374.416 216.615 369.663 220.689 363.959 223.622 358.256 226.393 351.528 227.778 343.777 227.778ZM335.661 201.622C341.949 201.622 346.849 200.156 350.358 197.222 353.868 194.126 356.354 190.133 357.817 185.244 359.426 180.356 360.376 174.978 360.669 169.111 360.961 164.222 360.961 159.333 360.669 154.444 360.376 148.578 359.426 143.2 357.817 138.311 356.354 133.422 353.868 129.511 350.358 126.578 346.849 123.481 341.949 121.933 335.661 121.933 329.811 121.933 325.058 123.4 321.402 126.333 317.746 129.267 314.967 133.015 313.066 137.578 311.165 141.978 310.141 146.622 309.995 151.511 309.849 154.444 309.776 157.622 309.776 161.044 309.776 164.304 309.849 167.4 309.995 170.333 310.288 175.385 311.238 180.356 312.847 185.244 314.602 189.97 317.307 193.881 320.963 196.978 324.766 200.074 329.665 201.622 335.661 201.622ZM458.348 227.778C449.574 227.778 442.042 226.637 435.754 224.356 429.611 222.074 424.566 219.222 420.617 215.8 416.669 212.378 413.744 208.956 411.843 205.533 409.941 202.111 408.918 199.259 408.772 196.978 408.625 195.185 409.064 193.8 410.088 192.822 411.258 191.681 412.501 191.111 413.817 191.111H431.147C431.732 191.111 432.244 191.193 432.682 191.356 433.121 191.519 433.706 192.007 434.437 192.822 436.339 194.615 438.313 196.489 440.36 198.444 442.554 200.4 445.113 202.111 448.038 203.578 450.963 204.881 454.619 205.533 459.006 205.533 464.71 205.533 469.463 204.311 473.265 201.867 477.214 199.259 479.188 195.593 479.188 190.867 479.188 187.444 478.311 184.674 476.556 182.556 474.947 180.437 471.876 178.563 467.342 176.933 462.809 175.141 456.374 173.267 448.038 171.311 439.848 169.193 433.048 166.504 427.637 163.244 422.226 159.985 418.204 155.911 415.572 151.022 412.939 146.133 411.623 140.43 411.623 133.911 411.623 127.556 413.305 121.526 416.669 115.822 420.179 109.956 425.297 105.148 432.024 101.4 438.898 97.6518 447.38 95.7778 457.471 95.7778 465.368 95.7778 472.241 96.9185 478.091 99.2 483.941 101.319 488.767 104.007 492.569 107.267 496.518 110.526 499.516 113.867 501.563 117.289 503.611 120.548 504.708 123.4 504.854 125.844 505 127.637 504.561 129.104 503.538 130.244 502.514 131.222 501.344 131.711 500.028 131.711H483.795C483.064 131.711 482.405 131.548 481.82 131.222 481.235 130.896 480.651 130.489 480.066 130 478.457 128.37 476.702 126.659 474.801 124.867 472.9 123.074 470.56 121.526 467.781 120.222 465.149 118.756 461.639 118.022 457.251 118.022 451.694 118.022 447.453 119.407 444.528 122.178 441.603 124.785 440.141 128.126 440.141 132.2 440.141 134.97 440.799 137.415 442.115 139.533 443.578 141.489 446.429 143.363 450.67 145.156 454.912 146.948 461.346 148.822 469.975 150.778 479.773 152.733 487.524 155.667 493.227 159.578 499.077 163.326 503.172 167.726 505.512 172.778 507.998 177.667 509.241 183.126 509.241 189.156 509.241 196.489 507.267 203.089 503.318 208.956 499.516 214.822 493.812 219.467 486.208 222.889 478.749 226.148 469.463 227.778 458.348 227.778Z" fill="#000"/><path fill-rule="evenodd" clip-rule="evenodd" d="M1201 0V284H1191V0H1201Z" fill="#000"/><path d="M1393.96 226.4C1385.32 226.4 1377.08 225.36 1369.24 223.28 1361.56 221.04 1354.68 217.68 1348.6 213.2 1342.52 208.72 1337.64 203.2 1333.96 196.64 1330.44 190.08 1328.6 182.32 1328.44 173.36 1328.44 171.92 1328.92 170.72 1329.88 169.76 1330.84 168.64 1332.04 168.08 1333.48 168.08H1356.28C1358.36 168.08 1359.88 168.64 1360.84 169.76 1361.96 170.88 1362.84 172.4 1363.48 174.32 1364.28 180.08 1366.12 184.8 1369 188.48 1371.88 192 1375.48 194.64 1379.8 196.4 1384.28 198 1389.24 198.8 1394.68 198.8 1404.76 198.8 1412.44 195.52 1417.72 188.96 1423.16 182.4 1425.88 173.28 1425.88 161.6V84.32H1344.52C1342.76 84.32 1341.32 83.76 1340.2 82.64 1339.24 81.52 1338.76 80.16 1338.76 78.56V61.76C1338.76 60.16 1339.24 58.8 1340.2 57.68 1341.32 56.56 1342.76 56 1344.52 56H1454.2C1455.96 56 1457.4 56.56 1458.52 57.68 1459.64 58.8 1460.2 60.24 1460.2 62V162.56C1460.2 175.84 1457.4 187.28 1451.8 196.88 1446.36 206.48 1438.68 213.84 1428.76 218.96 1419 223.92 1407.4 226.4 1393.96 226.4ZM1548.6 226.4C1535.8 226.4 1525 224.16 1516.2 219.68 1507.56 215.2 1500.92 208.88 1496.28 200.72 1491.8 192.56 1489.24 183.04 1488.6 172.16 1488.44 169.28 1488.36 165.76 1488.36 161.6 1488.36 157.44 1488.44 153.92 1488.6 151.04 1489.24 140 1491.88 130.48 1496.52 122.48 1501.32 114.32 1508.04 108 1516.68 103.52 1525.48 99.04 1536.12 96.8 1548.6 96.8 1561.08 96.8 1571.64 99.04 1580.28 103.52 1589.08 108 1595.8 114.32 1600.44 122.48 1605.24 130.48 1607.96 140 1608.6 151.04 1608.76 153.92 1608.84 157.44 1608.84 161.6 1608.84 165.76 1608.76 169.28 1608.6 172.16 1607.96 183.04 1605.32 192.56 1600.68 200.72 1596.2 208.88 1589.56 215.2 1580.76 219.68 1572.12 224.16 1561.4 226.4 1548.6 226.4ZM1548.6 202.64C1557.08 202.64 1563.64 200 1568.28 194.72 1572.92 189.28 1575.48 181.36 1575.96 170.96 1576.12 168.56 1576.2 165.44 1576.2 161.6 1576.2 157.76 1576.12 154.64 1575.96 152.24 1575.48 142 1572.92 134.16 1568.28 128.72 1563.64 123.28 1557.08 120.56 1548.6 120.56 1540.12 120.56 1533.56 123.28 1528.92 128.72 1524.28 134.16 1521.72 142 1521.24 152.24 1521.08 154.64 1521 157.76 1521 161.6 1521 165.44 1521.08 168.56 1521.24 170.96 1521.72 181.36 1524.28 189.28 1528.92 194.72 1533.56 200 1540.12 202.64 1548.6 202.64ZM1704.55 226.4C1695.27 226.4 1687.51 224.8 1681.27 221.6 1675.19 218.4 1670.15 214.32 1666.15 209.36V218.24C1666.15 219.84 1665.59 221.2 1664.47 222.32 1663.51 223.44 1662.15 224 1660.39 224H1641.43C1639.83 224 1638.47 223.44 1637.35 222.32 1636.23 221.2 1635.67 219.84 1635.67 218.24V59.36C1635.67 57.76 1636.23 56.4 1637.35 55.28 1638.47 54.16 1639.83 53.6 1641.43 53.6H1661.83C1663.59 53.6 1664.95 54.16 1665.91 55.28 1667.03 56.4 1667.59 57.76 1667.59 59.36V112.64C1671.59 108 1676.55 104.24 1682.47 101.36 1688.55 98.32 1695.91 96.8 1704.55 96.8 1713.03 96.8 1720.39 98.24 1726.63 101.12 1732.87 104 1738.07 108.08 1742.23 113.36 1746.55 118.48 1749.83 124.48 1752.07 131.36 1754.31 138.24 1755.51 145.68 1755.67 153.68 1755.83 156.56 1755.91 159.2 1755.91 161.6 1755.91 163.84 1755.83 166.4 1755.67 169.28 1755.35 177.6 1754.07 185.28 1751.83 192.32 1749.59 199.2 1746.39 205.2 1742.23 210.32 1738.07 215.44 1732.87 219.44 1726.63 222.32 1720.39 225.04 1713.03 226.4 1704.55 226.4ZM1695.67 200.72C1702.55 200.72 1707.91 199.28 1711.75 196.4 1715.59 193.36 1718.31 189.44 1719.91 184.64 1721.67 179.84 1722.71 174.56 1723.03 168.8 1723.35 164 1723.35 159.2 1723.03 154.4 1722.71 148.64 1721.67 143.36 1719.91 138.56 1718.31 133.76 1715.59 129.92 1711.75 127.04 1707.91 124 1702.55 122.48 1695.67 122.48 1689.27 122.48 1684.07 123.92 1680.07 126.8 1676.07 129.68 1673.03 133.36 1670.95 137.84 1668.87 142.16 1667.75 146.72 1667.59 151.52 1667.43 154.4 1667.35 157.52 1667.35 160.88 1667.35 164.08 1667.43 167.12 1667.59 170 1667.91 174.96 1668.95 179.84 1670.71 184.64 1672.63 189.28 1675.59 193.12 1679.59 196.16 1683.75 199.2 1689.11 200.72 1695.67 200.72ZM1829.9 226.4C1820.3 226.4 1812.06 225.28 1805.18 223.04 1798.46 220.8 1792.94 218 1788.62 214.64 1784.3 211.28 1781.1 207.92 1779.02 204.56 1776.94 201.2 1775.82 198.4 1775.66 196.16 1775.5 194.4 1775.98 193.04 1777.1 192.08 1778.38 190.96 1779.74 190.4 1781.18 190.4H1800.14C1800.78 190.4 1801.34 190.48 1801.82 190.64 1802.3 190.8 1802.94 191.28 1803.74 192.08 1805.82 193.84 1807.98 195.68 1810.22 197.6 1812.62 199.52 1815.42 201.2 1818.62 202.64 1821.82 203.92 1825.82 204.56 1830.62 204.56 1836.86 204.56 1842.06 203.36 1846.22 200.96 1850.54 198.4 1852.7 194.8 1852.7 190.16 1852.7 186.8 1851.74 184.08 1849.82 182 1848.06 179.92 1844.7 178.08 1839.74 176.48 1834.78 174.72 1827.74 172.88 1818.62 170.96 1809.66 168.88 1802.22 166.24 1796.3 163.04 1790.38 159.84 1785.98 155.84 1783.1 151.04 1780.22 146.24 1778.78 140.64 1778.78 134.24 1778.78 128 1780.62 122.08 1784.3 116.48 1788.14 110.72 1793.74 106 1801.1 102.32 1808.62 98.64 1817.9 96.8 1828.94 96.8 1837.58 96.8 1845.1 97.92 1851.5 100.16 1857.9 102.24 1863.18 104.88 1867.34 108.08 1871.66 111.28 1874.94 114.56 1877.18 117.92 1879.42 121.12 1880.62 123.92 1880.78 126.32 1880.94 128.08 1880.46 129.52 1879.34 130.64 1878.22 131.6 1876.94 132.08 1875.5 132.08H1857.74C1856.94 132.08 1856.22 131.92 1855.58 131.6 1854.94 131.28 1854.3 130.88 1853.66 130.4 1851.9 128.8 1849.98 127.12 1847.9 125.36 1845.82 123.6 1843.26 122.08 1840.22 120.8 1837.34 119.36 1833.5 118.64 1828.7 118.64 1822.62 118.64 1817.98 120 1814.78 122.72 1811.58 125.28 1809.98 128.56 1809.98 132.56 1809.98 135.28 1810.7 137.68 1812.14 139.76 1813.74 141.68 1816.86 143.52 1821.5 145.28 1826.14 147.04 1833.18 148.88 1842.62 150.8 1853.34 152.72 1861.82 155.6 1868.06 159.44 1874.46 163.12 1878.94 167.44 1881.5 172.4 1884.22 177.2 1885.58 182.56 1885.58 188.48 1885.58 195.68 1883.42 202.16 1879.1 207.92 1874.94 213.68 1868.7 218.24 1860.38 221.6 1852.22 224.8 1842.06 226.4 1829.9 226.4ZM1964.12 226.4C1946.36 226.4 1932.28 221.28 1921.88 211.04 1911.48 200.8 1905.88 186.24 1905.08 167.36 1904.92 165.76 1904.84 163.76 1904.84 161.36 1904.84 158.8 1904.92 156.8 1905.08 155.36 1905.72 143.36 1908.44 132.96 1913.24 124.16 1918.2 115.36 1925 108.64 1933.64 104 1942.28 99.2 1952.44 96.8 1964.12 96.8 1977.08 96.8 1987.96 99.52 1996.76 104.96 2005.56 110.24 2012.2 117.68 2016.68 127.28 2021.16 136.72 2023.4 147.68 2023.4 160.16V165.2C2023.4 166.8 2022.84 168.16 2021.72 169.28 2020.6 170.4 2019.16 170.96 2017.4 170.96H1937.72C1937.72 170.96 1937.72 171.2 1937.72 171.68 1937.72 172.16 1937.72 172.56 1937.72 172.88 1937.88 178.48 1938.92 183.68 1940.84 188.48 1942.92 193.12 1945.88 196.88 1949.72 199.76 1953.72 202.64 1958.44 204.08 1963.88 204.08 1968.36 204.08 1972.12 203.44 1975.16 202.16 1978.2 200.72 1980.68 199.12 1982.6 197.36 1984.52 195.6 1985.88 194.16 1986.68 193.04 1988.12 191.12 1989.24 190 1990.04 189.68 1991 189.2 1992.36 188.96 1994.12 188.96H2014.76C2016.36 188.96 2017.64 189.44 2018.6 190.4 2019.72 191.36 2020.2 192.56 2020.04 194 2019.88 196.56 2018.52 199.68 2015.96 203.36 2013.56 207.04 2010.04 210.64 2005.4 214.16 2000.76 217.68 1994.92 220.64 1987.88 223.04 1981 225.28 1973.08 226.4 1964.12 226.4ZM1937.72 150.8H1990.76V150.08C1990.76 143.84 1989.72 138.4 1987.64 133.76 1985.56 129.12 1982.52 125.44 1978.52 122.72 1974.52 120 1969.72 118.64 1964.12 118.64 1958.52 118.64 1953.72 120 1949.72 122.72 1945.72 125.44 1942.68 129.12 1940.6 133.76 1938.68 138.4 1937.72 143.84 1937.72 150.08V150.8ZM2102.63 226.4C2084.87 226.4 2070.79 221.28 2060.39 211.04 2049.99 200.8 2044.39 186.24 2043.59 167.36 2043.43 165.76 2043.35 163.76 2043.35 161.36 2043.35 158.8 2043.43 156.8 2043.59 155.36 2044.23 143.36 2046.95 132.96 2051.75 124.16 2056.71 115.36 2063.51 108.64 2072.15 104 2080.79 99.2 2090.95 96.8 2102.63 96.8 2115.59 96.8 2126.47 99.52 2135.27 104.96 2144.07 110.24 2150.71 117.68 2155.19 127.28 2159.67 136.72 2161.91 147.68 2161.91 160.16V165.2C2161.91 166.8 2161.35 168.16 2160.23 169.28 2159.11 170.4 2157.67 170.96 2155.91 170.96H2076.23C2076.23 170.96 2076.23 171.2 2076.23 171.68 2076.23 172.16 2076.23 172.56 2076.23 172.88 2076.39 178.48 2077.43 183.68 2079.35 188.48 2081.43 193.12 2084.39 196.88 2088.23 199.76 2092.23 202.64 2096.95 204.08 2102.39 204.08 2106.87 204.08 2110.63 203.44 2113.67 202.16 2116.71 200.72 2119.19 199.12 2121.11 197.36 2123.03 195.6 2124.39 194.16 2125.19 193.04 2126.63 191.12 2127.75 190 2128.55 189.68 2129.51 189.2 2130.87 188.96 2132.63 188.96H2153.27C2154.87 188.96 2156.15 189.44 2157.11 190.4 2158.23 191.36 2158.71 192.56 2158.55 194 2158.39 196.56 2157.03 199.68 2154.47 203.36 2152.07 207.04 2148.55 210.64 2143.91 214.16 2139.27 217.68 2133.43 220.64 2126.39 223.04 2119.51 225.28 2111.59 226.4 2102.63 226.4ZM2076.23 150.8H2129.27V150.08C2129.27 143.84 2128.23 138.4 2126.15 133.76 2124.07 129.12 2121.03 125.44 2117.03 122.72 2113.03 120 2108.23 118.64 2102.63 118.64 2097.03 118.64 2092.23 120 2088.23 122.72 2084.23 125.44 2081.19 129.12 2079.11 133.76 2077.19 138.4 2076.23 143.84 2076.23 150.08V150.8ZM2193.39 224C2191.79 224 2190.43 223.44 2189.31 222.32 2188.19 221.2 2187.63 219.84 2187.63 218.24V59.36C2187.63 57.76 2188.19 56.4 2189.31 55.28 2190.43 54.16 2191.79 53.6 2193.39 53.6H2212.83C2214.59 53.6 2215.95 54.16 2216.91 55.28 2218.03 56.4 2218.59 57.76 2218.59 59.36V141.44L2258.91 103.28C2260.35 102 2261.63 101.04 2262.75 100.4 2263.87 99.6 2265.55 99.2 2267.79 99.2H2290.11C2291.71 99.2 2292.99 99.68 2293.95 100.64 2294.91 101.6 2295.39 102.88 2295.39 104.48 2295.39 105.12 2295.23 105.84 2294.91 106.64 2294.59 107.44 2293.95 108.16 2292.99 108.8L2243.55 155.12 2298.99 214.64C2300.59 216.24 2301.39 217.6 2301.39 218.72 2301.39 220.32 2300.83 221.6 2299.71 222.56 2298.75 223.52 2297.55 224 2296.11 224H2273.31C2270.91 224 2269.15 223.68 2268.03 223.04 2267.07 222.24 2265.87 221.2 2264.43 219.92L2218.59 171.68V218.24C2218.59 219.84 2218.03 221.2 2216.91 222.32 2215.95 223.44 2214.59 224 2212.83 224H2193.39ZM2367.24 226.4C2349.48 226.4 2335.4 221.28 2325 211.04 2314.6 200.8 2309 186.24 2308.2 167.36 2308.04 165.76 2307.96 163.76 2307.96 161.36 2307.96 158.8 2308.04 156.8 2308.2 155.36 2308.84 143.36 2311.56 132.96 2316.36 124.16 2321.32 115.36 2328.12 108.64 2336.76 104 2345.4 99.2 2355.56 96.8 2367.24 96.8 2380.2 96.8 2391.08 99.52 2399.88 104.96 2408.68 110.24 2415.32 117.68 2419.8 127.28 2424.28 136.72 2426.52 147.68 2426.52 160.16V165.2C2426.52 166.8 2425.96 168.16 2424.84 169.28 2423.72 170.4 2422.28 170.96 2420.52 170.96H2340.84C2340.84 170.96 2340.84 171.2 2340.84 171.68 2340.84 172.16 2340.84 172.56 2340.84 172.88 2341 178.48 2342.04 183.68 2343.96 188.48 2346.04 193.12 2349 196.88 2352.84 199.76 2356.84 202.64 2361.56 204.08 2367 204.08 2371.48 204.08 2375.24 203.44 2378.28 202.16 2381.32 200.72 2383.8 199.12 2385.72 197.36 2387.64 195.6 2389 194.16 2389.8 193.04 2391.24 191.12 2392.36 190 2393.16 189.68 2394.12 189.2 2395.48 188.96 2397.24 188.96H2417.88C2419.48 188.96 2420.76 189.44 2421.72 190.4 2422.84 191.36 2423.32 192.56 2423.16 194 2423 196.56 2421.64 199.68 2419.08 203.36 2416.68 207.04 2413.16 210.64 2408.52 214.16 2403.88 217.68 2398.04 220.64 2391 223.04 2384.12 225.28 2376.2 226.4 2367.24 226.4ZM2340.84 150.8H2393.88V150.08C2393.88 143.84 2392.84 138.4 2390.76 133.76 2388.68 129.12 2385.64 125.44 2381.64 122.72 2377.64 120 2372.84 118.64 2367.24 118.64 2361.64 118.64 2356.84 120 2352.84 122.72 2348.84 125.44 2345.8 129.12 2343.72 133.76 2341.8 138.4 2340.84 143.84 2340.84 150.08V150.8ZM2457.76 224C2456.16 224 2454.8 223.44 2453.68 222.32 2452.56 221.2 2452 219.84 2452 218.24V105.2C2452 103.44 2452.56 102 2453.68 100.88 2454.8 99.76 2456.16 99.2 2457.76 99.2H2477.2C2478.8 99.2 2480.16 99.76 2481.28 100.88 2482.56 102 2483.2 103.44 2483.2 105.2V115.04C2486.88 109.92 2491.6 106 2497.36 103.28 2503.28 100.56 2510.08 99.2 2517.76 99.2H2527.6C2529.36 99.2 2530.72 99.76 2531.68 100.88 2532.8 102 2533.36 103.36 2533.36 104.96V122.24C2533.36 123.84 2532.8 125.2 2531.68 126.32 2530.72 127.44 2529.36 128 2527.6 128H2508.88C2501.2 128 2495.2 130.16 2490.88 134.48 2486.72 138.8 2484.64 144.72 2484.64 152.24V218.24C2484.64 219.84 2484.08 221.2 2482.96 222.32 2481.84 223.44 2480.4 224 2478.64 224H2457.76ZM2599.35 226.4C2589.75 226.4 2581.51 225.28 2574.63 223.04 2567.91 220.8 2562.39 218 2558.07 214.64 2553.75 211.28 2550.55 207.92 2548.47 204.56 2546.39 201.2 2545.27 198.4 2545.11 196.16 2544.95 194.4 2545.43 193.04 2546.55 192.08 2547.83 190.96 2549.19 190.4 2550.63 190.4H2569.59C2570.23 190.4 2570.79 190.48 2571.27 190.64 2571.75 190.8 2572.39 191.28 2573.19 192.08 2575.27 193.84 2577.43 195.68 2579.67 197.6 2582.07 199.52 2584.87 201.2 2588.07 202.64 2591.27 203.92 2595.27 204.56 2600.07 204.56 2606.31 204.56 2611.51 203.36 2615.67 200.96 2619.99 198.4 2622.15 194.8 2622.15 190.16 2622.15 186.8 2621.19 184.08 2619.27 182 2617.51 179.92 2614.15 178.08 2609.19 176.48 2604.23 174.72 2597.19 172.88 2588.07 170.96 2579.11 168.88 2571.67 166.24 2565.75 163.04 2559.83 159.84 2555.43 155.84 2552.55 151.04 2549.67 146.24 2548.23 140.64 2548.23 134.24 2548.23 128 2550.07 122.08 2553.75 116.48 2557.59 110.72 2563.19 106 2570.55 102.32 2578.07 98.64 2587.35 96.8 2598.39 96.8 2607.03 96.8 2614.55 97.92 2620.95 100.16 2627.35 102.24 2632.63 104.88 2636.79 108.08 2641.11 111.28 2644.39 114.56 2646.63 117.92 2648.87 121.12 2650.07 123.92 2650.23 126.32 2650.39 128.08 2649.91 129.52 2648.79 130.64 2647.67 131.6 2646.39 132.08 2644.95 132.08H2627.19C2626.39 132.08 2625.67 131.92 2625.03 131.6 2624.39 131.28 2623.75 130.88 2623.11 130.4 2621.35 128.8 2619.43 127.12 2617.35 125.36 2615.27 123.6 2612.71 122.08 2609.67 120.8 2606.79 119.36 2602.95 118.64 2598.15 118.64 2592.07 118.64 2587.43 120 2584.23 122.72 2581.03 125.28 2579.43 128.56 2579.43 132.56 2579.43 135.28 2580.15 137.68 2581.59 139.76 2583.19 141.68 2586.31 143.52 2590.95 145.28 2595.59 147.04 2602.63 148.88 2612.07 150.8 2622.79 152.72 2631.27 155.6 2637.51 159.44 2643.91 163.12 2648.39 167.44 2650.95 172.4 2653.67 177.2 2655.03 182.56 2655.03 188.48 2655.03 195.68 2652.87 202.16 2648.55 207.92 2644.39 213.68 2638.15 218.24 2629.83 221.6 2621.67 224.8 2611.51 226.4 2599.35 226.4Z" fill="#000"/></symbol><symbol id="logo-jobs-nyc-employer" viewBox="0 0 2526 284"><path d="M1060.6 129.35L1071 117.01V79.4855L1039.77 42H935.741L904.511 79.4855V54.4952L894.111 42.0001H852.477L842.076 54.4952V79.4855L821.282 104.514L800.482 79.4855V54.4952L790.047 42.0001H748.417L738.017 54.4952L727.617 42.0001H685.988L675.588 54.4952V104.514L623.558 42H581.928L571.528 54.4952V229.505L581.928 242H623.558L633.988 229.505V179.524L685.988 242H727.617L738.017 229.505V129.505L790.047 192.019V229.505L800.482 242H842.076L852.477 229.505V192.019L904.511 129.505V204.514L935.741 242H1039.77L1071 204.514V167.029L1060.6 154.495H1008.54V167.029H966.941V117.01H1008.54V129.35H1060.6Z" fill="#2D31A6"/><path d="M59.8869 227.778C51.9898 227.778 44.4582 226.719 37.2922 224.6 30.2725 222.319 23.984 218.896 18.4268 214.333 12.8695 209.77 8.40903 204.148 5.04542 197.467 1.82805 190.785.146244 182.881 0 173.756 0 172.289.438732 171.067 1.3162 170.089 2.19366 168.948 3.29049 168.378 4.60669 168.378H25.4465C27.3476 168.378 28.737 168.948 29.6144 170.089 30.6381 171.23 31.4425 172.778 32.0274 174.733 32.7587 180.6 34.4405 185.407 37.0729 189.156 39.7053 192.741 42.9958 195.43 46.9443 197.222 51.0392 198.852 55.5727 199.667 60.545 199.667 69.7584 199.667 76.7781 196.326 81.6042 189.644 86.5765 182.963 89.0626 173.674 89.0626 161.778V83.0667H14.6975C13.0888 83.0667 11.7726 82.4963 10.7489 81.3555 9.87147 80.2148 9.43274 78.8296 9.43274 77.2V60.0889C9.43274 58.4592 9.87147 57.0741 10.7489 55.9333 11.7726 54.7926 13.0888 54.2222 14.6975 54.2222H114.948C116.557 54.2222 117.873 54.7926 118.896 55.9333 119.92 57.0741 120.432 58.5407 120.432 60.3333V162.756C120.432 176.281 117.873 187.933 112.754 197.711 107.782 207.489 100.762 214.985 91.695 220.2 82.7741 225.252 72.1714 227.778 59.8869 227.778ZM201.234 227.778C189.535 227.778 179.663 225.496 171.62 220.933 163.723 216.37 157.653 209.933 153.412 201.622 149.317 193.311 146.978 183.615 146.393 172.533 146.246 169.6 146.173 166.015 146.173 161.778 146.173 157.541 146.246 153.956 146.393 151.022 146.978 139.778 149.391 130.081 153.632 121.933 158.019 113.622 164.161 107.185 172.058 102.622 180.102 98.0592 189.827 95.7778 201.234 95.7778 212.641 95.7778 222.293 98.0592 230.19 102.622 238.234 107.185 244.376 113.622 248.617 121.933 253.005 130.081 255.491 139.778 256.076 151.022 256.222 153.956 256.295 157.541 256.295 161.778 256.295 166.015 256.222 169.6 256.076 172.533 255.491 183.615 253.078 193.311 248.837 201.622 244.742 209.933 238.673 216.37 230.629 220.933 222.732 225.496 212.934 227.778 201.234 227.778ZM201.234 203.578C208.985 203.578 214.981 200.889 219.222 195.511 223.463 189.97 225.803 181.904 226.242 171.311 226.388 168.867 226.461 165.689 226.461 161.778 226.461 157.867 226.388 154.689 226.242 152.244 225.803 141.815 223.463 133.83 219.222 128.289 214.981 122.748 208.985 119.978 201.234 119.978 193.483 119.978 187.487 122.748 183.246 128.289 179.005 133.83 176.665 141.815 176.226 152.244 176.08 154.689 176.007 157.867 176.007 161.778 176.007 165.689 176.08 168.867 176.226 171.311 176.665 181.904 179.005 189.97 183.246 195.511 187.487 200.889 193.483 203.578 201.234 203.578ZM343.777 227.778C335.295 227.778 328.202 226.148 322.499 222.889 316.942 219.63 312.335 215.474 308.679 210.422V219.467C308.679 221.096 308.167 222.481 307.143 223.622 306.266 224.763 305.023 225.333 303.414 225.333H286.084C284.622 225.333 283.379 224.763 282.355 223.622 281.331 222.481 280.819 221.096 280.819 219.467V57.6444C280.819 56.0148 281.331 54.6296 282.355 53.4889 283.379 52.3481 284.622 51.7778 286.084 51.7778H304.73C306.339 51.7778 307.582 52.3481 308.46 53.4889 309.483 54.6296 309.995 56.0148 309.995 57.6444V111.911C313.651 107.185 318.185 103.356 323.596 100.422 329.153 97.3259 335.88 95.7778 343.777 95.7778 351.528 95.7778 358.256 97.2444 363.959 100.178 369.663 103.111 374.416 107.267 378.218 112.644 382.167 117.859 385.165 123.97 387.212 130.978 389.259 137.985 390.356 145.563 390.502 153.711 390.649 156.644 390.722 159.333 390.722 161.778 390.722 164.059 390.649 166.667 390.502 169.6 390.21 178.074 389.04 185.896 386.993 193.067 384.945 200.074 382.02 206.185 378.218 211.4 374.416 216.615 369.663 220.689 363.959 223.622 358.256 226.393 351.528 227.778 343.777 227.778ZM335.661 201.622C341.949 201.622 346.849 200.156 350.358 197.222 353.868 194.126 356.354 190.133 357.817 185.244 359.426 180.356 360.376 174.978 360.669 169.111 360.961 164.222 360.961 159.333 360.669 154.444 360.376 148.578 359.426 143.2 357.817 138.311 356.354 133.422 353.868 129.511 350.358 126.578 346.849 123.481 341.949 121.933 335.661 121.933 329.811 121.933 325.058 123.4 321.402 126.333 317.746 129.267 314.967 133.015 313.066 137.578 311.165 141.978 310.141 146.622 309.995 151.511 309.849 154.444 309.776 157.622 309.776 161.044 309.776 164.304 309.849 167.4 309.995 170.333 310.288 175.385 311.238 180.356 312.847 185.244 314.602 189.97 317.307 193.881 320.963 196.978 324.766 200.074 329.665 201.622 335.661 201.622ZM458.348 227.778C449.574 227.778 442.042 226.637 435.754 224.356 429.611 222.074 424.566 219.222 420.617 215.8 416.669 212.378 413.744 208.956 411.843 205.533 409.941 202.111 408.918 199.259 408.772 196.978 408.625 195.185 409.064 193.8 410.088 192.822 411.258 191.681 412.501 191.111 413.817 191.111H431.147C431.732 191.111 432.244 191.193 432.682 191.356 433.121 191.519 433.706 192.007 434.437 192.822 436.339 194.615 438.313 196.489 440.36 198.444 442.554 200.4 445.113 202.111 448.038 203.578 450.963 204.881 454.619 205.533 459.006 205.533 464.71 205.533 469.463 204.311 473.265 201.867 477.214 199.259 479.188 195.593 479.188 190.867 479.188 187.444 478.311 184.674 476.556 182.556 474.947 180.437 471.876 178.563 467.342 176.933 462.809 175.141 456.374 173.267 448.038 171.311 439.848 169.193 433.048 166.504 427.637 163.244 422.226 159.985 418.204 155.911 415.572 151.022 412.939 146.133 411.623 140.43 411.623 133.911 411.623 127.556 413.305 121.526 416.669 115.822 420.179 109.956 425.297 105.148 432.024 101.4 438.898 97.6518 447.38 95.7778 457.471 95.7778 465.368 95.7778 472.241 96.9185 478.091 99.2 483.941 101.319 488.767 104.007 492.569 107.267 496.518 110.526 499.516 113.867 501.563 117.289 503.611 120.548 504.708 123.4 504.854 125.844 505 127.637 504.561 129.104 503.538 130.244 502.514 131.222 501.344 131.711 500.028 131.711H483.795C483.064 131.711 482.405 131.548 481.82 131.222 481.235 130.896 480.651 130.489 480.066 130 478.457 128.37 476.702 126.659 474.801 124.867 472.9 123.074 470.56 121.526 467.781 120.222 465.149 118.756 461.639 118.022 457.251 118.022 451.694 118.022 447.453 119.407 444.528 122.178 441.603 124.785 440.141 128.126 440.141 132.2 440.141 134.97 440.799 137.415 442.115 139.533 443.578 141.489 446.429 143.363 450.67 145.156 454.912 146.948 461.346 148.822 469.975 150.778 479.773 152.733 487.524 155.667 493.227 159.578 499.077 163.326 503.172 167.726 505.512 172.778 507.998 177.667 509.241 183.126 509.241 189.156 509.241 196.489 507.267 203.089 503.318 208.956 499.516 214.822 493.812 219.467 486.208 222.889 478.749 226.148 469.463 227.778 458.348 227.778Z" fill="#000"/><path fill-rule="evenodd" clip-rule="evenodd" d="M1201 0V284H1191V0H1201Z" fill="#000"/><path d="M1345.48 224C1343.88 224 1342.52 223.44 1341.4 222.32 1340.28 221.2 1339.72 219.84 1339.72 218.24V62C1339.72 60.24 1340.28 58.8 1341.4 57.68 1342.52 56.56 1343.88 56 1345.48 56H1451.08C1452.84 56 1454.28 56.56 1455.4 57.68 1456.52 58.8 1457.08 60.24 1457.08 62V77.84C1457.08 79.44 1456.52 80.8 1455.4 81.92 1454.28 83.04 1452.84 83.6 1451.08 83.6H1372.12V126.08H1445.8C1447.56 126.08 1449 126.64 1450.12 127.76 1451.24 128.72 1451.8 130.08 1451.8 131.84V146.72C1451.8 148.48 1451.24 149.92 1450.12 151.04 1449 152 1447.56 152.48 1445.8 152.48H1372.12V196.4H1453C1454.76 196.4 1456.2 196.96 1457.32 198.08 1458.44 199.2 1459 200.64 1459 202.4V218.24C1459 219.84 1458.44 221.2 1457.32 222.32 1456.2 223.44 1454.76 224 1453 224H1345.48ZM1491.9 224C1490.3 224 1488.94 223.44 1487.82 222.32 1486.7 221.2 1486.14 219.84 1486.14 218.24V104.96C1486.14 103.36 1486.7 102 1487.82 100.88 1488.94 99.76 1490.3 99.2 1491.9 99.2H1510.62C1512.22 99.2 1513.58 99.76 1514.7 100.88 1515.82 102 1516.38 103.36 1516.38 104.96V113.12C1519.74 108.64 1524.22 104.88 1529.82 101.84 1535.58 98.64 1542.38 96.96 1550.22 96.8 1568.46 96.48 1581.18 103.6 1588.38 118.16 1592.06 111.76 1597.34 106.64 1604.22 102.8 1611.26 98.8 1619.02 96.8 1627.5 96.8 1635.82 96.8 1643.34 98.72 1650.06 102.56 1656.94 106.4 1662.3 112.24 1666.14 120.08 1670.14 127.76 1672.14 137.52 1672.14 149.36V218.24C1672.14 219.84 1671.58 221.2 1670.46 222.32 1669.34 223.44 1667.98 224 1666.38 224H1646.7C1645.1 224 1643.74 223.44 1642.62 222.32 1641.5 221.2 1640.94 219.84 1640.94 218.24V151.28C1640.94 144.08 1639.9 138.4 1637.82 134.24 1635.74 129.92 1632.94 126.88 1629.42 125.12 1625.9 123.36 1621.98 122.48 1617.66 122.48 1614.14 122.48 1610.62 123.36 1607.1 125.12 1603.58 126.88 1600.7 129.92 1598.46 134.24 1596.22 138.4 1595.1 144.08 1595.1 151.28V218.24C1595.1 219.84 1594.54 221.2 1593.42 222.32 1592.3 223.44 1590.94 224 1589.34 224H1569.66C1567.9 224 1566.46 223.44 1565.34 222.32 1564.38 221.2 1563.9 219.84 1563.9 218.24V151.28C1563.9 144.08 1562.78 138.4 1560.54 134.24 1558.3 129.92 1555.42 126.88 1551.9 125.12 1548.38 123.36 1544.62 122.48 1540.62 122.48 1536.94 122.48 1533.34 123.44 1529.82 125.36 1526.3 127.12 1523.42 130.08 1521.18 134.24 1518.94 138.4 1517.82 144.08 1517.82 151.28V218.24C1517.82 219.84 1517.26 221.2 1516.14 222.32 1515.02 223.44 1513.66 224 1512.06 224H1491.9ZM1708.7 269.6C1707.1 269.6 1705.74 269.04 1704.62 267.92 1703.5 266.8 1702.94 265.44 1702.94 263.84V104.96C1702.94 103.36 1703.5 102 1704.62 100.88 1705.74 99.76 1707.1 99.2 1708.7 99.2H1727.66C1729.42 99.2 1730.78 99.76 1731.74 100.88 1732.86 102 1733.42 103.36 1733.42 104.96V114.56C1737.26 109.44 1742.3 105.2 1748.54 101.84 1754.78 98.48 1762.54 96.8 1771.82 96.8 1780.3 96.8 1787.66 98.16 1793.9 100.88 1800.14 103.6 1805.34 107.52 1809.5 112.64 1813.66 117.6 1816.86 123.52 1819.1 130.4 1821.34 137.28 1822.62 144.88 1822.94 153.2 1823.1 155.92 1823.18 158.72 1823.18 161.6 1823.18 164.48 1823.1 167.36 1822.94 170.24 1822.78 178.24 1821.58 185.68 1819.34 192.56 1817.1 199.28 1813.82 205.2 1809.5 210.32 1805.34 215.28 1800.14 219.2 1793.9 222.08 1787.66 224.96 1780.3 226.4 1771.82 226.4 1763.18 226.4 1755.82 224.88 1749.74 221.84 1743.66 218.64 1738.7 214.48 1734.86 209.36V263.84C1734.86 265.44 1734.3 266.8 1733.18 267.92 1732.22 269.04 1730.86 269.6 1729.1 269.6H1708.7ZM1762.94 200.72C1769.82 200.72 1775.18 199.28 1779.02 196.4 1782.86 193.36 1785.58 189.44 1787.18 184.64 1788.94 179.84 1789.98 174.56 1790.3 168.8 1790.62 164 1790.62 159.2 1790.3 154.4 1789.98 148.64 1788.94 143.36 1787.18 138.56 1785.58 133.76 1782.86 129.92 1779.02 127.04 1775.18 124 1769.82 122.48 1762.94 122.48 1756.38 122.48 1751.02 124 1746.86 127.04 1742.86 130.08 1739.9 134 1737.98 138.8 1736.22 143.44 1735.18 148.24 1734.86 153.2 1734.7 156.08 1734.62 159.12 1734.62 162.32 1734.62 165.52 1734.7 168.64 1734.86 171.68 1735.02 176.48 1736.14 181.12 1738.22 185.6 1740.3 189.92 1743.34 193.52 1747.34 196.4 1751.34 199.28 1756.54 200.72 1762.94 200.72ZM1856.12 224C1854.52 224 1853.16 223.44 1852.04 222.32 1850.92 221.2 1850.36 219.84 1850.36 218.24V59.36C1850.36 57.76 1850.92 56.4 1852.04 55.28 1853.16 54.16 1854.52 53.6 1856.12 53.6H1876.04C1877.64 53.6 1879 54.16 1880.12 55.28 1881.24 56.4 1881.8 57.76 1881.8 59.36V218.24C1881.8 219.84 1881.24 221.2 1880.12 222.32 1879 223.44 1877.64 224 1876.04 224H1856.12ZM1968.84 226.4C1956.04 226.4 1945.24 224.16 1936.44 219.68 1927.8 215.2 1921.16 208.88 1916.52 200.72 1912.04 192.56 1909.48 183.04 1908.84 172.16 1908.68 169.28 1908.6 165.76 1908.6 161.6 1908.6 157.44 1908.68 153.92 1908.84 151.04 1909.48 140 1912.12 130.48 1916.76 122.48 1921.56 114.32 1928.28 108 1936.92 103.52 1945.72 99.04 1956.36 96.8 1968.84 96.8 1981.32 96.8 1991.88 99.04 2000.52 103.52 2009.32 108 2016.04 114.32 2020.68 122.48 2025.48 130.48 2028.2 140 2028.84 151.04 2029 153.92 2029.08 157.44 2029.08 161.6 2029.08 165.76 2029 169.28 2028.84 172.16 2028.2 183.04 2025.56 192.56 2020.92 200.72 2016.44 208.88 2009.8 215.2 2001 219.68 1992.36 224.16 1981.64 226.4 1968.84 226.4ZM1968.84 202.64C1977.32 202.64 1983.88 200 1988.52 194.72 1993.16 189.28 1995.72 181.36 1996.2 170.96 1996.36 168.56 1996.44 165.44 1996.44 161.6 1996.44 157.76 1996.36 154.64 1996.2 152.24 1995.72 142 1993.16 134.16 1988.52 128.72 1983.88 123.28 1977.32 120.56 1968.84 120.56 1960.36 120.56 1953.8 123.28 1949.16 128.72 1944.52 134.16 1941.96 142 1941.48 152.24 1941.32 154.64 1941.24 157.76 1941.24 161.6 1941.24 165.44 1941.32 168.56 1941.48 170.96 1941.96 181.36 1944.52 189.28 1949.16 194.72 1953.8 200 1960.36 202.64 1968.84 202.64ZM2073.31 269.6C2072.03 269.6 2070.91 269.12 2069.95 268.16 2068.99 267.2 2068.51 266.08 2068.51 264.8 2068.51 264.16 2068.51 263.52 2068.51 262.88 2068.67 262.4 2068.99 261.76 2069.47 260.96L2088.19 216.56 2042.11 107.84C2041.47 106.24 2041.15 105.12 2041.15 104.48 2041.31 103.04 2041.87 101.84 2042.83 100.88 2043.79 99.76 2044.99 99.2 2046.43 99.2H2065.87C2067.79 99.2 2069.23 99.68 2070.19 100.64 2071.15 101.6 2071.87 102.64 2072.35 103.76L2104.27 182.24 2137.15 103.76C2137.63 102.48 2138.35 101.44 2139.31 100.64 2140.27 99.68 2141.71 99.2 2143.63 99.2H2162.83C2164.11 99.2 2165.23 99.68 2166.19 100.64 2167.31 101.6 2167.87 102.72 2167.87 104 2167.87 104.96 2167.55 106.24 2166.91 107.84L2098.99 265.04C2098.35 266.32 2097.55 267.36 2096.59 268.16 2095.63 269.12 2094.19 269.6 2092.27 269.6H2073.31ZM2237.87 226.4C2220.11 226.4 2206.03 221.28 2195.63 211.04 2185.23 200.8 2179.63 186.24 2178.83 167.36 2178.67 165.76 2178.59 163.76 2178.59 161.36 2178.59 158.8 2178.67 156.8 2178.83 155.36 2179.47 143.36 2182.19 132.96 2186.99 124.16 2191.95 115.36 2198.75 108.64 2207.39 104 2216.03 99.2 2226.19 96.8 2237.87 96.8 2250.83 96.8 2261.71 99.52 2270.51 104.96 2279.31 110.24 2285.95 117.68 2290.43 127.28 2294.91 136.72 2297.15 147.68 2297.15 160.16V165.2C2297.15 166.8 2296.59 168.16 2295.47 169.28 2294.35 170.4 2292.91 170.96 2291.15 170.96H2211.47C2211.47 170.96 2211.47 171.2 2211.47 171.68 2211.47 172.16 2211.47 172.56 2211.47 172.88 2211.63 178.48 2212.67 183.68 2214.59 188.48 2216.67 193.12 2219.63 196.88 2223.47 199.76 2227.47 202.64 2232.19 204.08 2237.63 204.08 2242.11 204.08 2245.87 203.44 2248.91 202.16 2251.95 200.72 2254.43 199.12 2256.35 197.36 2258.27 195.6 2259.63 194.16 2260.43 193.04 2261.87 191.12 2262.99 190 2263.79 189.68 2264.75 189.2 2266.11 188.96 2267.87 188.96H2288.51C2290.11 188.96 2291.39 189.44 2292.35 190.4 2293.47 191.36 2293.95 192.56 2293.79 194 2293.63 196.56 2292.27 199.68 2289.71 203.36 2287.31 207.04 2283.79 210.64 2279.15 214.16 2274.51 217.68 2268.67 220.64 2261.63 223.04 2254.75 225.28 2246.83 226.4 2237.87 226.4ZM2211.47 150.8H2264.51V150.08C2264.51 143.84 2263.47 138.4 2261.39 133.76 2259.31 129.12 2256.27 125.44 2252.27 122.72 2248.27 120 2243.47 118.64 2237.87 118.64 2232.27 118.64 2227.47 120 2223.47 122.72 2219.47 125.44 2216.43 129.12 2214.35 133.76 2212.43 138.4 2211.47 143.84 2211.47 150.08V150.8ZM2328.38 224C2326.78 224 2325.42 223.44 2324.3 222.32 2323.18 221.2 2322.62 219.84 2322.62 218.24V105.2C2322.62 103.44 2323.18 102 2324.3 100.88 2325.42 99.76 2326.78 99.2 2328.38 99.2H2347.82C2349.42 99.2 2350.78 99.76 2351.9 100.88 2353.18 102 2353.82 103.44 2353.82 105.2V115.04C2357.5 109.92 2362.22 106 2367.98 103.28 2373.9 100.56 2380.7 99.2 2388.38 99.2H2398.22C2399.98 99.2 2401.34 99.76 2402.3 100.88 2403.42 102 2403.98 103.36 2403.98 104.96V122.24C2403.98 123.84 2403.42 125.2 2402.3 126.32 2401.34 127.44 2399.98 128 2398.22 128H2379.5C2371.82 128 2365.82 130.16 2361.5 134.48 2357.34 138.8 2355.26 144.72 2355.26 152.24V218.24C2355.26 219.84 2354.7 221.2 2353.58 222.32 2352.46 223.44 2351.02 224 2349.26 224H2328.38ZM2469.98 226.4C2460.38 226.4 2452.14 225.28 2445.26 223.04 2438.54 220.8 2433.02 218 2428.7 214.64 2424.38 211.28 2421.18 207.92 2419.1 204.56 2417.02 201.2 2415.9 198.4 2415.74 196.16 2415.58 194.4 2416.06 193.04 2417.18 192.08 2418.46 190.96 2419.82 190.4 2421.26 190.4H2440.22C2440.86 190.4 2441.42 190.48 2441.9 190.64 2442.38 190.8 2443.02 191.28 2443.82 192.08 2445.9 193.84 2448.06 195.68 2450.3 197.6 2452.7 199.52 2455.5 201.2 2458.7 202.64 2461.9 203.92 2465.9 204.56 2470.7 204.56 2476.94 204.56 2482.14 203.36 2486.3 200.96 2490.62 198.4 2492.78 194.8 2492.78 190.16 2492.78 186.8 2491.82 184.08 2489.9 182 2488.14 179.92 2484.78 178.08 2479.82 176.48 2474.86 174.72 2467.82 172.88 2458.7 170.96 2449.74 168.88 2442.3 166.24 2436.38 163.04 2430.46 159.84 2426.06 155.84 2423.18 151.04 2420.3 146.24 2418.86 140.64 2418.86 134.24 2418.86 128 2420.7 122.08 2424.38 116.48 2428.22 110.72 2433.82 106 2441.18 102.32 2448.7 98.64 2457.98 96.8 2469.02 96.8 2477.66 96.8 2485.18 97.92 2491.58 100.16 2497.98 102.24 2503.26 104.88 2507.42 108.08 2511.74 111.28 2515.02 114.56 2517.26 117.92 2519.5 121.12 2520.7 123.92 2520.86 126.32 2521.02 128.08 2520.54 129.52 2519.42 130.64 2518.3 131.6 2517.02 132.08 2515.58 132.08H2497.82C2497.02 132.08 2496.3 131.92 2495.66 131.6 2495.02 131.28 2494.38 130.88 2493.74 130.4 2491.98 128.8 2490.06 127.12 2487.98 125.36 2485.9 123.6 2483.34 122.08 2480.3 120.8 2477.42 119.36 2473.58 118.64 2468.78 118.64 2462.7 118.64 2458.06 120 2454.86 122.72 2451.66 125.28 2450.06 128.56 2450.06 132.56 2450.06 135.28 2450.78 137.68 2452.22 139.76 2453.82 141.68 2456.94 143.52 2461.58 145.28 2466.22 147.04 2473.26 148.88 2482.7 150.8 2493.42 152.72 2501.9 155.6 2508.14 159.44 2514.54 163.12 2519.02 167.44 2521.58 172.4 2524.3 177.2 2525.66 182.56 2525.66 188.48 2525.66 195.68 2523.5 202.16 2519.18 207.92 2515.02 213.68 2508.78 218.24 2500.46 221.6 2492.3 224.8 2482.14 226.4 2469.98 226.4Z" fill="#000"/></symbol><symbol id="logo-jobs-nyc-black-blue" viewBox="0 0 1071 200"><path d="M1060.6 87.35L1071 75.01V37.4856L1039.77 0H935.741L904.511 37.4856V12.4952L894.111 7.74211e-05H852.477L842.076 12.4952V37.4856L821.282 62.5144L800.482 37.4856V12.4952L790.047 7.74211e-05H748.417L738.017 12.4952L727.617 7.74211e-05H685.988L675.588 12.4952V62.5144L623.558 0H581.928L571.528 12.4952V187.505L581.928 200H623.558L633.988 187.505V137.524L685.988 200H727.617L738.017 187.505V87.505L790.047 150.019V187.505L800.482 200H842.076L852.477 187.505V150.019L904.511 87.505V162.514L935.741 200H1039.77L1071 162.514V125.029L1060.6 112.495H1008.54V125.029H966.941V75.01H1008.54V87.35H1060.6Z" fill="#2D31A6"/><path d="M59.8869 185.778C51.9898 185.778 44.4582 184.719 37.2922 182.6 30.2725 180.319 23.984 176.896 18.4268 172.333 12.8695 167.77 8.40903 162.148 5.04542 155.467 1.82805 148.785.146244 140.881 0 131.756 0 130.289.438732 129.067 1.3162 128.089 2.19366 126.948 3.29049 126.378 4.60669 126.378H25.4465C27.3476 126.378 28.737 126.948 29.6144 128.089 30.6381 129.23 31.4425 130.778 32.0274 132.733 32.7587 138.6 34.4405 143.407 37.0729 147.156 39.7053 150.741 42.9958 153.43 46.9443 155.222 51.0392 156.852 55.5727 157.667 60.545 157.667 69.7584 157.667 76.7781 154.326 81.6042 147.644 86.5765 140.963 89.0626 131.674 89.0626 119.778V41.0667H14.6975C13.0888 41.0667 11.7726 40.4963 10.7489 39.3555 9.87147 38.2148 9.43274 36.8296 9.43274 35.2V18.0889C9.43274 16.4592 9.87147 15.0741 10.7489 13.9333 11.7726 12.7926 13.0888 12.2222 14.6975 12.2222H114.948C116.557 12.2222 117.873 12.7926 118.896 13.9333 119.92 15.0741 120.432 16.5407 120.432 18.3333V120.756C120.432 134.281 117.873 145.933 112.754 155.711 107.782 165.489 100.762 172.985 91.695 178.2 82.7741 183.252 72.1714 185.778 59.8869 185.778ZM201.234 185.778C189.535 185.778 179.663 183.496 171.62 178.933 163.723 174.37 157.653 167.933 153.412 159.622 149.317 151.311 146.978 141.615 146.393 130.533 146.246 127.6 146.173 124.015 146.173 119.778 146.173 115.541 146.246 111.956 146.393 109.022 146.978 97.7778 149.391 88.0815 153.632 79.9333 158.019 71.6222 164.161 65.1852 172.058 60.6222 180.102 56.0592 189.827 53.7778 201.234 53.7778 212.641 53.7778 222.293 56.0592 230.19 60.6222 238.234 65.1852 244.376 71.6222 248.617 79.9333 253.005 88.0815 255.491 97.7778 256.076 109.022 256.222 111.956 256.295 115.541 256.295 119.778 256.295 124.015 256.222 127.6 256.076 130.533 255.491 141.615 253.078 151.311 248.837 159.622 244.742 167.933 238.673 174.37 230.629 178.933 222.732 183.496 212.934 185.778 201.234 185.778ZM201.234 161.578C208.985 161.578 214.981 158.889 219.222 153.511 223.463 147.97 225.803 139.904 226.242 129.311 226.388 126.867 226.461 123.689 226.461 119.778 226.461 115.867 226.388 112.689 226.242 110.244 225.803 99.8148 223.463 91.8296 219.222 86.2889 214.981 80.7481 208.985 77.9778 201.234 77.9778 193.483 77.9778 187.487 80.7481 183.246 86.2889 179.005 91.8296 176.665 99.8148 176.226 110.244 176.08 112.689 176.007 115.867 176.007 119.778 176.007 123.689 176.08 126.867 176.226 129.311 176.665 139.904 179.005 147.97 183.246 153.511 187.487 158.889 193.483 161.578 201.234 161.578ZM343.777 185.778C335.295 185.778 328.202 184.148 322.499 180.889 316.942 177.63 312.335 173.474 308.679 168.422V177.467C308.679 179.096 308.167 180.481 307.143 181.622 306.266 182.763 305.023 183.333 303.414 183.333H286.084C284.622 183.333 283.379 182.763 282.355 181.622 281.331 180.481 280.819 179.096 280.819 177.467V15.6444C280.819 14.0148 281.331 12.6296 282.355 11.4889 283.379 10.3481 284.622 9.77777 286.084 9.77777H304.73C306.339 9.77777 307.582 10.3481 308.46 11.4889 309.483 12.6296 309.995 14.0148 309.995 15.6444V69.9111C313.651 65.1852 318.185 61.3555 323.596 58.4222 329.153 55.3259 335.88 53.7778 343.777 53.7778 351.528 53.7778 358.256 55.2444 363.959 58.1778 369.663 61.1111 374.416 65.2667 378.218 70.6444 382.167 75.8592 385.165 81.9704 387.212 88.9778 389.259 95.9852 390.356 103.563 390.502 111.711 390.649 114.644 390.722 117.333 390.722 119.778 390.722 122.059 390.649 124.667 390.502 127.6 390.21 136.074 389.04 143.896 386.993 151.067 384.945 158.074 382.02 164.185 378.218 169.4 374.416 174.615 369.663 178.689 363.959 181.622 358.256 184.393 351.528 185.778 343.777 185.778ZM335.661 159.622C341.949 159.622 346.849 158.156 350.358 155.222 353.868 152.126 356.354 148.133 357.817 143.244 359.426 138.356 360.376 132.978 360.669 127.111 360.961 122.222 360.961 117.333 360.669 112.444 360.376 106.578 359.426 101.2 357.817 96.3111 356.354 91.4222 353.868 87.5111 350.358 84.5778 346.849 81.4815 341.949 79.9333 335.661 79.9333 329.811 79.9333 325.058 81.4 321.402 84.3333 317.746 87.2667 314.967 91.0148 313.066 95.5778 311.165 99.9778 310.141 104.622 309.995 109.511 309.849 112.444 309.776 115.622 309.776 119.044 309.776 122.304 309.849 125.4 309.995 128.333 310.288 133.385 311.238 138.356 312.847 143.244 314.602 147.97 317.307 151.881 320.963 154.978 324.766 158.074 329.665 159.622 335.661 159.622ZM458.348 185.778C449.574 185.778 442.042 184.637 435.754 182.356 429.611 180.074 424.566 177.222 420.617 173.8 416.669 170.378 413.744 166.956 411.843 163.533 409.941 160.111 408.918 157.259 408.772 154.978 408.625 153.185 409.064 151.8 410.088 150.822 411.258 149.681 412.501 149.111 413.817 149.111H431.147C431.732 149.111 432.244 149.193 432.682 149.356 433.121 149.519 433.706 150.007 434.437 150.822 436.339 152.615 438.313 154.489 440.36 156.444 442.554 158.4 445.113 160.111 448.038 161.578 450.963 162.881 454.619 163.533 459.006 163.533 464.71 163.533 469.463 162.311 473.265 159.867 477.214 157.259 479.188 153.593 479.188 148.867 479.188 145.444 478.311 142.674 476.556 140.556 474.947 138.437 471.876 136.563 467.342 134.933 462.809 133.141 456.374 131.267 448.038 129.311 439.848 127.193 433.048 124.504 427.637 121.244 422.226 117.985 418.204 113.911 415.572 109.022 412.939 104.133 411.623 98.4296 411.623 91.9111 411.623 85.5555 413.305 79.5259 416.669 73.8222 420.179 67.9555 425.297 63.1481 432.024 59.4 438.898 55.6518 447.38 53.7778 457.471 53.7778 465.368 53.7778 472.241 54.9185 478.091 57.2 483.941 59.3185 488.767 62.0074 492.569 65.2667 496.518 68.5259 499.516 71.8667 501.563 75.2889 503.611 78.5481 504.708 81.4 504.854 83.8444 505 85.637 504.561 87.1037 503.538 88.2444 502.514 89.2222 501.344 89.7111 500.028 89.7111H483.795C483.064 89.7111 482.405 89.5481 481.82 89.2222 481.235 88.8963 480.651 88.4889 480.066 88 478.457 86.3704 476.702 84.6593 474.801 82.8667 472.9 81.0741 470.56 79.5259 467.781 78.2222 465.149 76.7556 461.639 76.0222 457.251 76.0222 451.694 76.0222 447.453 77.4074 444.528 80.1778 441.603 82.7852 440.141 86.1259 440.141 90.2 440.141 92.9704 440.799 95.4148 442.115 97.5333 443.578 99.4889 446.429 101.363 450.67 103.156 454.912 104.948 461.346 106.822 469.975 108.778 479.773 110.733 487.524 113.667 493.227 117.578 499.077 121.326 503.172 125.726 505.512 130.778 507.998 135.667 509.241 141.126 509.241 147.156 509.241 154.489 507.267 161.089 503.318 166.956 499.516 172.822 493.812 177.467 486.208 180.889 478.749 184.148 469.463 185.778 458.348 185.778Z" fill="#000"/></symbol><symbol id="logo-google-translate" viewBox="0 0 175 16"><path fill-rule="evenodd" clip-rule="evenodd" d="M128.789 4.79395C128.051 4.79395 127.023 5.31595 126.733 6.12728H126.675V4.90261H125.4V11.9999H126.733V8.18395C126.733 6.87995 127.66 6.11261 128.572 6.11261 128.862 6.11261 129.094 6.14128 129.282 6.21395L129.789 4.96861C129.514 4.85261 129.224 4.79395 128.789 4.79395ZM152.801 1.4606H154.133V11.9999H152.801V1.4606ZM148.658 4.79395C147.225 4.79395 145.891 5.59461 145.891 6.84461 145.891 8.05328 147.1 8.60061 147.732 8.75528L149.164 9.09261C149.895 9.27528 150.146 9.65461 150.146 10.0059 150.146 10.5813 149.529 10.9579 148.728 10.9579 147.899 10.9579 147.184 10.5539 146.819 9.66461L145.667 10.1426C146.074 11.1433 147.057 12.1273 148.715 12.1273 150.33 12.1273 151.467 11.1859 151.467 9.96395 151.467 9.12061 150.892 8.27795 149.529 7.95461L148.125 7.63128C147.577 7.50528 147.213 7.26661 147.213 6.83061 147.213 6.26861 147.885 5.96328 148.616 5.96328 149.29 5.96328 149.963 6.23061 150.231 6.87661L151.354 6.41328C150.933 5.35928 149.852 4.79395 148.658 4.79395ZM158.579 10.9286C157.904 10.9286 157.071 10.5813 157.071 9.85128 157.071 9.21928 157.679 8.52861 159.042 8.52861 160.138 8.52861 160.667 8.93795 160.667 8.93795 160.667 10.0619 159.604 10.9286 158.579 10.9286ZM158.859 4.79395C157.131 4.79395 156.158 5.79995 155.919 6.43195L157.099 6.93795C157.338 6.29195 158.171 5.99195 158.887 5.99195 159.857 5.99195 160.667 6.59395 160.667 7.68528V7.88261C160.399 7.72795 159.745 7.46061 158.817 7.46061 157.202 7.46061 155.701 8.26395 155.701 9.82328 155.701 11.2559 156.963 12.1273 158.367 12.1273 159.548 12.1273 160.231 11.4913 160.611 10.9153H160.667V11.9999H161.922V7.74395C161.922 5.80528 160.545 4.79395 158.859 4.79395ZM133.323 10.9286C132.649 10.9286 131.815 10.5813 131.815 9.85128 131.815 9.21928 132.424 8.52861 133.787 8.52861 134.882 8.52861 135.411 8.93795 135.411 8.93795 135.411 10.0619 134.349 10.9286 133.323 10.9286ZM133.604 4.79395C131.876 4.79395 130.902 5.79995 130.663 6.43195L131.843 6.93795C132.083 6.29195 132.915 5.99195 133.632 5.99195 134.601 5.99195 135.411 6.59395 135.411 7.68528V7.88261C135.144 7.72795 134.489 7.46061 133.561 7.46061 131.946 7.46061 130.446 8.26395 130.446 9.82328 130.446 11.2559 131.707 12.1273 133.112 12.1273 134.292 12.1273 134.975 11.4913 135.355 10.9153H135.411V11.9999H136.667V7.74395C136.667 5.80528 135.29 4.79395 133.604 4.79395ZM169.398 7.62328C169.655 6.61995 170.425 5.99195 171.396 5.99195 172.894 5.99195 173.407 7.02728 173.45 7.62328H169.398ZM171.424 4.79395C169.37 4.79395 168 6.50728 168 8.46061 168 10.5399 169.427 12.1273 171.567 12.1273 173.179 12.1273 174.207 11.2279 174.62 10.2446L173.45 9.76728C173.079 10.6386 172.309 10.9286 171.538 10.9286 170.454 10.9286 169.384 10.1606 169.313 8.70728H174.834C174.834 8.70728 174.849 8.55861 174.849 8.46061 174.849 6.24061 173.507 4.79395 171.424 4.79395ZM141.778 4.79395C140.807 4.79395 139.909 5.35861 139.533 6.00995H139.475V4.90261H138.2V11.9999H139.533V8.19728C139.533 7.11128 140.243 6.00995 141.401 6.00995 142.415 6.00995 143.154 6.50261 143.154 7.97995V11.9999H144.487V7.77795C144.487 6.02528 143.589 4.79395 141.778 4.79395ZM165.399 2.79395H164.067V4.90261H162.821V6.12995H164.067V9.85328C164.067 11.3019 164.863 12.1273 166.355 12.1273 166.804 12.1273 167.123 12.0693 167.427 11.9393L166.964 10.7946C166.775 10.8813 166.601 10.9106 166.355 10.9106 165.733 10.9106 165.399 10.5486 165.399 9.75128V6.12995H167.137V4.90261H165.399V2.79395ZM124.95 1.4606H117.733V2.82727H120.667V11.9939H122.017V2.82727H124.95V1.4606ZM72.16 5.58594V7.22461H76.082C75.9647 8.14661 75.6574 8.81994 75.1894 9.28794 74.618 9.85861 73.7254 10.4879 72.16 10.4879 69.7447 10.4879 67.8574 8.54194 67.8574 6.12727 67.8574 3.71261 69.7447 1.76661 72.16 1.76661 73.462 1.76661 74.4134 2.27861 75.116 2.93727L76.272 1.78061C75.2914.844607 73.9894.127274 72.16.127274 68.8527.127274 66.072 2.81994 66.072 6.12727 66.072 9.43461 68.8527 12.1273 72.16 12.1273 73.9447 12.1273 75.2914 11.5419 76.3454 10.4446 77.428 9.36127 77.7647 7.83927 77.7647 6.60994 77.7647 6.22994 77.7354 5.87861 77.6767 5.58594H72.16ZM82.6666 4.25461C80.5253 4.25461 78.7793 5.88328 78.7793 8.12727 78.7793 10.3566 80.5253 11.9999 82.6666 11.9999 84.8086 11.9999 86.554 10.3566 86.554 8.12727 86.554 5.88328 84.8086 4.25461 82.6666 4.25461ZM82.6666 10.4739C81.4933 10.4739 80.4806 9.50594 80.4806 8.12727 80.4806 6.73394 81.4933 5.77994 82.6666 5.77994 83.84 5.77994 84.8526 6.73394 84.8526 8.12727 84.8526 9.50594 83.84 10.4739 82.6666 10.4739ZM101.72 5.12061H101.661C101.279 4.66528 100.546 4.25461 99.622 4.25461 97.686 4.25461 96 5.94127 96 8.12727 96 10.2979 97.686 11.9999 99.622 11.9999 100.546 11.9999 101.279 11.5893 101.661 11.1199H101.72V11.6613C101.72 13.1426 100.928 13.9346 99.6513 13.9346 98.61 13.9346 97.9647 13.1866 97.7007 12.5559L96.2193 13.1719C96.6447 14.1986 97.774 15.4606 99.6513 15.4606 101.647 15.4606 103.333 14.2873 103.333 11.4266V4.45394H101.72V5.12061ZM99.7693 10.4739C98.596 10.4739 97.702 9.47661 97.702 8.12727 97.702 6.76328 98.596 5.77994 99.7693 5.77994 100.929 5.77994 101.837 6.77794 101.837 8.14194 101.837 9.49127 100.929 10.4739 99.7693 10.4739ZM91.3334 4.25461C89.192 4.25461 87.446 5.88328 87.446 8.12727 87.446 10.3566 89.192 11.9999 91.3334 11.9999 93.4754 11.9999 95.2207 10.3566 95.2207 8.12727 95.2207 5.88328 93.4754 4.25461 91.3334 4.25461ZM91.3334 10.4739C90.16 10.4739 89.148 9.50594 89.148 8.12727 89.148 6.73394 90.16 5.77994 91.3334 5.77994 92.5067 5.77994 93.5194 6.73394 93.5194 8.12727 93.5194 9.50594 92.5067 10.4739 91.3334 10.4739ZM104.667.287277H106.34V11.9999H104.667V.287277ZM111.51 10.4739C110.645 10.4739 110.029 10.0786 109.632 9.30127L114.81 7.15928 114.634 6.71927C114.311 5.85394 113.329 4.25461 111.319 4.25461 109.324 4.25461 107.667 5.82461 107.667 8.12727 107.667 10.2986 109.309 11.9999 111.51 11.9999 113.285 11.9999 114.311 10.9146 114.737 10.2833L113.417 9.40328C112.977 10.0493 112.375 10.4739 111.51 10.4739ZM111.384 5.70594C112.073 5.70594 112.656 6.05661 112.851 6.55994L109.353 8.00994C109.353 6.37727 110.508 5.70594 111.384 5.70594Z" fill="currentColor"/><g fill="currentColor"><path d="M6.17578 8.90039C6.17578 9.86523 5.95508 10.6426 5.51367 11.2324 5.07227 11.8223 4.47461 12.1172 3.7207 12.1172 2.95117 12.1172 2.3457 11.873 1.9043 11.3848V14.4375H.820312V5.66016H1.81055L1.86328 6.36328C2.30469 5.81641 2.91797 5.54297 3.70312 5.54297 4.46484 5.54297 5.06641 5.83008 5.50781 6.4043 5.95312 6.97852 6.17578 7.77734 6.17578 8.80078V8.90039ZM5.0918 8.77734C5.0918 8.0625 4.93945 7.49805 4.63477 7.08398 4.33008 6.66992 3.91211 6.46289 3.38086 6.46289 2.72461 6.46289 2.23242 6.75391 1.9043 7.33594V10.3652C2.22852 10.9434 2.72461 11.2324 3.39258 11.2324 3.91211 11.2324 4.32422 11.0273 4.62891 10.6172 4.9375 10.2031 5.0918 9.58984 5.0918 8.77734ZM7.27148 8.77148C7.27148 8.15039 7.39258 7.5918 7.63477 7.0957 7.88086 6.59961 8.2207 6.2168 8.6543 5.94727 9.0918 5.67773 9.58984 5.54297 10.1484 5.54297 11.0117 5.54297 11.709 5.8418 12.2402 6.43945 12.7754 7.03711 13.043 7.83203 13.043 8.82422V8.90039C13.043 9.51758 12.9238 10.0723 12.6855 10.5645 12.4512 11.0527 12.1133 11.4336 11.6719 11.707 11.2344 11.9805 10.7305 12.1172 10.1602 12.1172 9.30078 12.1172 8.60352 11.8184 8.06836 11.2207 7.53711 10.623 7.27148 9.83203 7.27148 8.84766V8.77148ZM8.36133 8.90039C8.36133 9.60352 8.52344 10.168 8.84766 10.5938 9.17578 11.0195 9.61328 11.2324 10.1602 11.2324 10.7109 11.2324 11.1484 11.0176 11.4727 10.5879 11.7969 10.1543 11.959 9.54883 11.959 8.77148 11.959 8.07617 11.793 7.51367 11.4609 7.08398 11.1328 6.65039 10.6953 6.43359 10.1484 6.43359 9.61328 6.43359 9.18164 6.64648 8.85352 7.07227 8.52539 7.49805 8.36133 8.10742 8.36133 8.90039ZM20.0156 10.5059 21.2344 5.66016H22.3184L20.4727 12H19.5938L18.0527 7.19531 16.5527 12H15.6738L13.834 5.66016H14.9121L16.1602 10.4062 17.6367 5.66016H18.5098L20.0156 10.5059ZM26.0566 12.1172C25.1973 12.1172 24.498 11.8359 23.959 11.2734 23.4199 10.707 23.1504 9.95117 23.1504 9.00586V8.80664C23.1504 8.17773 23.2695 7.61719 23.5078 7.125 23.75 6.62891 24.0859 6.24219 24.5156 5.96484 24.9492 5.68359 25.418 5.54297 25.9219 5.54297 26.7461 5.54297 27.3867 5.81445 27.8438 6.35742 28.3008 6.90039 28.5293 7.67773 28.5293 8.68945V9.14062H24.2344C24.25 9.76562 24.4316 10.2715 24.7793 10.6582 25.1309 11.041 25.5762 11.2324 26.1152 11.2324 26.498 11.2324 26.8223 11.1543 27.0879 10.998 27.3535 10.8418 27.5859 10.6348 27.7852 10.377L28.4473 10.8926C27.916 11.709 27.1191 12.1172 26.0566 12.1172ZM25.9219 6.43359C25.4844 6.43359 25.1172 6.59375 24.8203 6.91406 24.5234 7.23047 24.3398 7.67578 24.2695 8.25H27.4453V8.16797C27.4141 7.61719 27.2656 7.19141 27 6.89062 26.7344 6.58594 26.375 6.43359 25.9219 6.43359ZM32.8535 6.63281C32.6895 6.60547 32.5117 6.5918 32.3203 6.5918 31.6094 6.5918 31.127 6.89453 30.873 7.5V12H29.7891V5.66016H30.8438L30.8613 6.39258C31.2168 5.82617 31.7207 5.54297 32.373 5.54297 32.584 5.54297 32.7441 5.57031 32.8535 5.625V6.63281ZM36.3691 12.1172C35.5098 12.1172 34.8105 11.8359 34.2715 11.2734 33.7324 10.707 33.4629 9.95117 33.4629 9.00586V8.80664C33.4629 8.17773 33.582 7.61719 33.8203 7.125 34.0625 6.62891 34.3984 6.24219 34.8281 5.96484 35.2617 5.68359 35.7305 5.54297 36.2344 5.54297 37.0586 5.54297 37.6992 5.81445 38.1562 6.35742 38.6133 6.90039 38.8418 7.67773 38.8418 8.68945V9.14062H34.5469C34.5625 9.76562 34.7441 10.2715 35.0918 10.6582 35.4434 11.041 35.8887 11.2324 36.4277 11.2324 36.8105 11.2324 37.1348 11.1543 37.4004 10.998 37.666 10.8418 37.8984 10.6348 38.0977 10.377L38.7598 10.8926C38.2285 11.709 37.4316 12.1172 36.3691 12.1172ZM36.2344 6.43359C35.7969 6.43359 35.4297 6.59375 35.1328 6.91406 34.8359 7.23047 34.6523 7.67578 34.582 8.25H37.7578V8.16797C37.7266 7.61719 37.5781 7.19141 37.3125 6.89062 37.0469 6.58594 36.6875 6.43359 36.2344 6.43359ZM39.8379 8.77734C39.8379 7.80469 40.0684 7.02344 40.5293 6.43359 40.9902 5.83984 41.5938 5.54297 42.3398 5.54297 43.082 5.54297 43.6699 5.79688 44.1035 6.30469V3H45.1875V12H44.1914L44.1387 11.3203C43.7051 11.8516 43.1016 12.1172 42.3281 12.1172 41.5938 12.1172 40.9941 11.8164 40.5293 11.2148 40.0684 10.6133 39.8379 9.82812 39.8379 8.85938V8.77734ZM40.9219 8.90039C40.9219 9.61914 41.0703 10.1816 41.3672 10.5879 41.6641 10.9941 42.0742 11.1973 42.5977 11.1973 43.2852 11.1973 43.7871 10.8887 44.1035 10.2715V7.35938C43.7793 6.76172 43.2812 6.46289 42.6094 6.46289 42.0781 6.46289 41.6641 6.66797 41.3672 7.07812 41.0703 7.48828 40.9219 8.0957 40.9219 8.90039ZM55.2188 8.90039C55.2188 9.86914 54.9961 10.6484 54.5508 11.2383 54.1055 11.8242 53.5078 12.1172 52.7578 12.1172 51.957 12.1172 51.3379 11.834 50.9004 11.2676L50.8477 12H49.8516V3H50.9355V6.35742C51.373 5.81445 51.9766 5.54297 52.7461 5.54297 53.5156 5.54297 54.1191 5.83398 54.5566 6.41602 54.998 6.99805 55.2188 7.79492 55.2188 8.80664V8.90039ZM54.1348 8.77734C54.1348 8.03906 53.9922 7.46875 53.707 7.06641 53.4219 6.66406 53.0117 6.46289 52.4766 6.46289 51.7617 6.46289 51.248 6.79492 50.9355 7.45898V10.2012C51.2676 10.8652 51.7852 11.1973 52.4883 11.1973 53.0078 11.1973 53.4121 10.9961 53.7012 10.5938 53.9902 10.1914 54.1348 9.58594 54.1348 8.77734ZM58.5938 10.4121 60.0703 5.66016H61.2305L58.6816 12.9785C58.2871 14.0332 57.6602 14.5605 56.8008 14.5605L56.5957 14.543 56.1914 14.4668V13.5879L56.4844 13.6113C56.8516 13.6113 57.1367 13.5371 57.3398 13.3887 57.5469 13.2402 57.7168 12.9688 57.8496 12.5742L58.0898 11.9297 55.8281 5.66016H57.0117L58.5938 10.4121Z"/></g></symbol><symbol id="languages-nav" viewBox="0 0 16 16"><path d="m8.00005 14.7903-.67901-2.0401h-4.75317c-.37345 0-.69316-.1332-.95911-.3995-.26595-.2664-.39892-.5862-.39892-.9594v-8.82231c0-.37326.13299-.6931.39898-.95952s.58574-.39963.95925-.39963h4.07474l.59423 2.03985h6.19706c.3961 0 .7212.12729.9752.38188.254.25458.381.57988.381.9759v8.82553c0 .3733-.1273.6928-.382.9586-.2546.2658-.58.3987-.9761.3987zm-3.29346-5.02503c.78284 0 1.42547-.25253 1.92788-.7576.50242-.50508.75363-1.1587.75363-1.96088 0-.08889-.00277-.16944-.00833-.24167-.00555-.07222-.01964-.14855-.04226-.22898h-2.68057v1.04928h1.51123c-.0909.31741-.26416.56398-.5198.73969s-.56425.26356-.92583.26356c-.44068 0-.81921-.15862-1.13558-.47586-.31639-.31725-.47459-.70814-.47459-1.17269 0-.46352.15844-.85374.4753-1.17065s.69596-.47536 1.1373-.47536c.2037 0 .39608.03678.57713.11036.18107.07357.34516.18392.49227.33105l.83177-.79793c-.23821-.24826-.52464-.44009-.85928-.5755s-.68794-.20312-1.05992-.20312c-.76039 0-1.40912.2692-1.9462.8076-.53708.53841-.80562 1.19626-.80562 1.97355 0 .7773.26854 1.43582.80562 1.97555.53708.53974 1.18569.8096 1.94585.8096zm4.54673.33733.37862-.35399c-.15821-.19155-.3032-.37754-.43497-.55797-.13175-.18043-.25874-.37331-.38097-.57863zm.84928-.86594c.3164-.37199.5578-.72731.7243-1.06595.1664-.33865.2774-.60507.3329-.79927h-2.70178l.20368.71195h.67894c.08889.17198.1951.35585.31865.55163.12355.19577.27132.39631.44331.60164zm-1.42393 4.87504h4.75433c.2053 0 .3698-.0651.4933-.1952.1236-.1302.1854-.2914.1854-.4838v-8.82576c0-.20531-.0618-.36974-.1854-.4933-.1235-.12354-.288-.18532-.4933-.18532h-5.99091l.7971 2.7477h1.3398v-.71236h.69531v.71236h2.4761v.69542h-.8633c-.1129.43019-.2831.84927-.5106 1.25723-.2275.40798-.494.78685-.7993 1.1366l1.8526 1.81523-.4913.4913-1.8359-1.8319-.60798.6286.54128 1.8819z" fill="#080707"/></symbol><symbol id="government" viewBox="0 0 50 50"><g clip-path="url(#clip0_4244_93116)"><rect width="50" height="50" rx="25" fill="#E3F1FD"/><rect x="-5" y="-5" width="60" height="60" rx="30" fill="#E3F1FD"/><path d="M18 31V24H20V31H18ZM24 31V24H26V31H24ZM15 35V33H35V35H15ZM30 31V24H32V31H30ZM15 22V20L25 15L35 20V22H15ZM19.45 20H30.55L25 17.25L19.45 20Z" fill="#000"/></g></symbol><symbol id="down-arrow" viewBox="0 0 24 24"><g id="tag/button/icons"><path id="Vector" d="M6 9L12 15L18 9" stroke="#111322" stroke-width="2" stroke-linecap="round" stroke-linejoin="round"/></g></symbol></svg>